<?xml version="1.0" encoding="UTF-8" standalone="no"?>
<!-- Created with Inkscape (http://www.inkscape.org/) -->

<svg
   xmlns:dc="http://purl.org/dc/elements/1.1/"
   xmlns:cc="http://creativecommons.org/ns#"
   xmlns:rdf="http://www.w3.org/1999/02/22-rdf-syntax-ns#"
   xmlns:svg="http://www.w3.org/2000/svg"
   xmlns="http://www.w3.org/2000/svg"
   xmlns:sodipodi="http://sodipodi.sourceforge.net/DTD/sodipodi-0.dtd"
   xmlns:inkscape="http://www.inkscape.org/namespaces/inkscape"
   width="40mm"
   height="25.920349mm"
   viewBox="0 0 141.73228 91.843756"
   id="svg5703"
   version="1.1"
   inkscape:version="0.91 r13725"
   sodipodi:docname="hanekawa-export.svg">
  <defs
     id="defs5705" />
  <sodipodi:namedview
     id="base"
     pagecolor="#ffffff"
     bordercolor="#666666"
     borderopacity="1.0"
     inkscape:pageopacity="0.0"
     inkscape:pageshadow="2"
     inkscape:zoom="3.959798"
     inkscape:cx="121.06451"
     inkscape:cy="37.891556"
     inkscape:document-units="mm"
     inkscape:current-layer="layer1"
     showgrid="false"
     inkscape:window-width="2560"
     inkscape:window-height="1377"
     inkscape:window-x="1358"
     inkscape:window-y="-8"
     inkscape:window-maximized="1"
     fit-margin-top="0"
     fit-margin-left="0"
     fit-margin-right="0"
     fit-margin-bottom="0" />
  <metadata
     id="metadata5708">
    <rdf:RDF>
      <cc:Work
         rdf:about="">
        <dc:format>image/svg+xml</dc:format>
        <dc:type
           rdf:resource="http://purl.org/dc/dcmitype/StillImage" />
        <dc:title></dc:title>
      </cc:Work>
    </rdf:RDF>
  </metadata>
  <g
     inkscape:label="Layer 1"
     inkscape:groupmode="layer"
     id="layer1"
     transform="translate(-45.548897,-458.10298)">
    <path
       inkscape:connector-curvature="0"
       style="color:#000000;clip-rule:nonzero;display:inline;overflow:visible;visibility:visible;opacity:1;isolation:auto;mix-blend-mode:normal;color-interpolation:sRGB;color-interpolation-filters:linearRGB;solid-color:#000000;solid-opacity:1;fill:#ffcc00;fill-opacity:1;fill-rule:evenodd;stroke:none;stroke-width:2.12598419;stroke-linecap:butt;stroke-linejoin:miter;stroke-miterlimit:4;stroke-dasharray:none;stroke-dashoffset:0;stroke-opacity:1;color-rendering:auto;image-rendering:auto;shape-rendering:auto;text-rendering:auto;enable-background:accumulate"
       d="m 168.72897,458.10298 -0.40583,0.13515 c 3.41119,10.25167 4.07291,21.49034 2.89347,32.43278 -0.75705,7.02351 -2.27046,13.92527 -4.30937,20.36467 -5.05198,15.95544 -13.32653,29.04586 -21.06555,34.14332 0.92863,-1.61627 1.67361,-3.63406 1.94627,-6.63278 3.44166,-2.80657 6.21582,-6.299 8.13275,-10.66635 l -0.39169,-0.17207 c -1.30118,2.96447 -3.00478,5.51808 -5.04992,7.72456 2.70565,-4.00259 5.38737,-8.53245 7.93474,-15.24326 l -0.35319,-0.22472 c -2.77599,2.86421 -5.54866,4.68144 -8.33075,6.19356 7.25867,-6.93843 9.34032,-13.17718 13.57003,-19.6532 l -0.3579,-0.23375 c -4.48669,6.86946 -6.44673,13.33238 -14.61349,20.65264 l 0.24004,0.34926 c 3.02211,-1.54585 6.05875,-3.40505 9.09214,-6.35227 -2.81542,7.1649 -5.77613,11.78053 -8.76723,16.06239 l 0.0185,0.013 c -5.7772,5.33111 -13.79616,8.38523 -23.0071,10.25855 2.74046,-1.52326 4.78601,-3.4673 6.04426,-5.92208 l 0.25105,-0.48991 -0.51623,0.19212 c -3.75311,1.39697 -8.92437,1.70347 -14.55024,0.52448 4.6219,-2.63512 7.70539,-4.83304 9.81618,-7.25037 0.61213,-0.70103 1.14213,-1.4223 1.61076,-2.17649 2.27872,-3.05323 4.81475,-5.56427 6.5161,-10.23734 l 0.1159,-0.31783 -0.33669,0.0318 c -2.29032,0.21636 -5.14183,0.24229 -7.40477,0.13712 6.94299,-1.23369 13.58091,-3.4043 18.99868,-8.91967 -6.48062,10.73764 -13.73194,18.48102 -21.36963,24.75851 l 0.19211,0.37165 c 4.44498,-1.2119 6.79119,-3.29914 15.059,-2.71196 -2.04865,3.31423 -4.49383,5.85369 -6.88382,8.55115 l 0.32019,0.28326 c 2.45804,-2.77427 5.01746,-5.39646 7.13486,-8.92124 l 0.17797,-0.29583 -0.34415,-0.0271 c -7.9483,-0.63329 -10.73462,1.13225 -14.5467,2.36506 7.80099,-6.54516 15.20609,-14.6403 21.75542,-26.01176 l -0.34886,-0.24436 c -6.01168,7.13794 -13.78789,9.3944 -21.97386,10.67264 -0.0976,-0.01 -0.20944,-0.0175 -0.30133,-0.0279 7.33401,-3.19165 17.04804,-9.77437 20.86912,-20.15959 l 0.27186,-0.73977 -0.60855,0.5009 c -2.29313,1.88621 -5.21959,2.64159 -8.08521,3.20501 1.60583,-1.95602 2.86784,-4.31 3.89449,-6.93489 l 0.0189,-0.0483 c 2.18743,-1.299 5.19439,-4.18298 6.55421,-6.93058 l -0.38305,-0.18975 c -0.0497,0.10035 -0.1022,0.20111 -0.15675,0.30211 l -1.38447,0 c 0.32591,-0.47433 0.63732,-0.94636 0.93345,-1.41589 l 3.5032,0 c -0.76725,1.68764 -1.51658,3.06947 -2.21459,4.00371 l 0.34258,0.25576 c 1.48003,-1.98094 3.09369,-5.71296 4.65705,-10.13048 1.34651,-3.80478 2.61217,-8.08376 3.72242,-12.18872 -0.1823,3.11807 -0.4704,6.13015 -0.91735,8.98292 l -0.10214,0.65334 0.46555,-0.46948 c 1.54527,-1.55917 3.7495,-5.52748 6.82882,-11.82374 l -0.38423,-0.18818 c -2.78602,5.69656 -4.85415,9.38961 -6.28823,11.12679 0.48498,-3.27615 0.82642,-6.69535 0.96134,-10.32063 l -0.42076,-0.0617 c -1.21049,4.65901 -2.71089,9.7455 -4.2685,14.14677 -0.7887,2.2286 -1.59448,4.2819 -2.38156,6.01322 l -3.5032,0 c 1.82956,-2.90094 3.10527,-5.71269 3.99939,-8.46275 -1.19711,1.27055 -2.38517,2.99546 -3.73382,5.15599 -0.45433,1.08066 -0.98688,2.20041 -1.4925,3.30676 l -0.61994,0 c 0.29814,-0.57861 0.52448,-1.27138 0.29897,-1.42218 -0.0381,-0.0254 -0.082,-0.0334 -0.13083,-0.0263 -0.34154,0.0497 -0.92223,0.83586 -1.41589,1.50194 -0.2282,0.30789 -0.53088,0.9075 -0.62152,1.36285 l -0.0519,0 0,4e-4 0.0519,0 c -0.0516,0.25975 -0.035,0.47286 0.10568,0.55709 0.14688,0.088 0.44597,-0.19875 0.75077,-0.55709 l 1.00496,0 c -0.3563,0.83873 -0.66975,1.65617 -0.88435,2.424 0.25818,-0.44453 0.62876,-0.98125 1.40451,-1.84923 0.13647,-0.19214 0.26926,-0.38343 0.40072,-0.57477 l 1.38447,0 c -1.55801,2.884 -5.0492,5.98794 -6.99226,6.85122 l 0.0236,0.0534 c -1.6229,0.75068 -3.5679,1.4426 -5.63293,2.11166 7.00058,-11.83303 9.57634,-24.70534 9.95212,-38.07671 l -0.41486,-0.0786 c -2.72846,7.5423 -5.90088,12.96893 -9.61072,17.27084 l -1.11535,0 c 0.40711,-0.48015 0.80552,-1.00257 1.08903,-1.46029 0.7379,-1.19129 2.2402,-4.0536 1.7954,-4.03592 -0.46447,0.0184 -1.77458,1.85828 -2.6491,3.28908 -0.41846,0.68465 -0.89572,1.43498 -1.27446,2.20713 l -1.43711,0 c 0.0135,-0.0234 0.0328,-0.0514 0.0448,-0.0735 0.20638,-0.37875 0.67148,-1.30956 0.28443,-1.26229 -0.36573,0.0447 -0.64363,0.69726 -0.96016,1.102 -0.30018,0.38382 -0.55113,1.04924 -0.28444,1.13813 0.25196,0.084 0.68308,-0.50036 0.91499,-0.90398 l 1.4375,0 c -0.24977,0.50925 -0.45771,1.02764 -0.57437,1.54396 0.23995,-0.0696 0.93881,-0.74824 1.6135,-1.54396 l 1.11496,0 c -4.25788,4.93728 -9.22382,8.39268 -15.04171,11.85791 4.24814,-5.596 8.03395,-12.10453 9.38992,-19.62726 2.30928,-2.91127 4.90884,-7.77407 4.98627,-11.89327 l -0.42783,-0.008 c -0.0687,3.65497 -2.27558,8.08202 -4.39579,10.98104 l 0.009,-0.0491 -0.50995,0.60462 c -6.53165,7.74493 -14.33658,14.1625 -23.68283,14.47717 1.99855,-1.32085 3.68682,-2.82748 4.91045,-4.60912 5.21905,-2.19201 8.98691,-5.66839 12.56429,-10.10102 l -0.33276,-0.26872 c -3.58662,4.44408 -7.32607,7.88093 -12.53836,10.03541 l 0.0122,0.0291 c -4.37703,2.03533 -11.846145,2.4182 -20.646359,1.29725 3.941839,-2.26477 8.165228,-5.46981 11.769919,-11.02347 l 1.63864,0 c -0.15937,0.26761 -0.24255,0.54229 -0.0711,0.68516 0.32002,0.26668 0.89534,-0.28969 1.2446,-0.58695 0.0341,-0.029 0.0813,-0.0663 0.12061,-0.0982 l 1.53572,0 c 0.0112,0.0454 0.0328,0.0849 0.0684,0.11629 0.60449,0.53337 3.89331,-2.48921 3.89331,-2.48921 0,0 3.36045,-3.18239 2.82708,-3.50241 -0.0333,-0.02 -0.0739,-0.0313 -0.1214,-0.0342 -0.71164,-0.0428 -2.92535,1.75633 -4.0921,2.78975 0,0 -2.75374,2.39233 -2.57564,3.11937 l -1.53494,0 c 0.40273,-0.32658 1.01515,-0.78565 0.73231,-1.146 -0.088,-0.11213 -0.20637,-0.155 -0.34101,-0.15047 -0.40391,0.0136 -0.95312,0.45641 -1.25914,0.75509 -0.13724,0.13395 -0.30363,0.3356 -0.42626,0.54138 l -1.63865,0 c 1.27773,-1.96864 2.47826,-4.22982 3.56016,-6.8524 2e-4,-6e-4 6.1e-4,-10e-4 8.1e-4,-0.002 6e-4,-0.002 0.001,-0.003 0.002,-0.004 l -0.39326,-0.16697 c -6.1e-4,0.001 -0.001,0.003 -0.002,0.004 -2.01011,4.58479 -5.240103,7.78617 -9.825618,9.95055 -3.628133,1.7125 -8.114285,2.7659 -13.495782,3.3162 a 1.4667799,1.4667799 0 0 0 -0.529585,-0.10215 1.4667799,1.4667799 0 0 0 -0.776307,0.22433 c -0.987078,0.0841 -1.99981,0.15433 -3.044721,0.20782 l -0.0169,-0.0185 c 4.567786,-2.56254 9.101496,-5.79411 13.348457,-12.08853 l 1.572648,0 c -0.01042,0.01 -0.02317,0.02 -0.03339,0.0295 -1.252174,1.15513 -1.867443,2.26851 -1.724689,2.43578 0.08621,0.10102 1.85877,-0.89937 2.733573,-1.7184 0.785051,-0.735 2.295126,-2.42707 1.942337,-2.53085 -0.02924,-0.009 -0.06285,-0.012 -0.100574,-0.011 -0.558691,0.0155 -1.994943,1.04387 -2.816861,1.79462 l -1.57304,0 c 0.196282,-0.29091 0.392305,-0.58599 0.587336,-0.89024 l -0.330007,-0.26754 c -0.383815,0.37915 -0.803042,0.76721 -1.238713,1.15778 l -0.167753,0 0,4e-4 0.167361,0 c -4.102271,3.6775 -10.338285,7.67007 -15.765376,8.40344 l -0.410155,-0.44512 c -0.0045,-0.11248 -0.0082,-0.22356 -0.01179,-0.33433 -0.0044,-0.13634 -0.0087,-0.27239 -0.01179,-0.40623 -0.0036,-0.1599 -0.0065,-0.31783 -0.0082,-0.47419 -0.0014,-0.11602 -0.0016,-0.2304 -0.002,-0.34454 -4.03e-4,-0.17117 -6.04e-4,-0.34257 0.0012,-0.50955 4.02e-4,-0.0469 0.0016,-0.0922 0.0024,-0.13868 0.0072,-0.492 0.0245,-0.96564 0.05029,-1.42336 1.353389,-1.15064 2.637589,-2.35241 3.827708,-3.62342 l 0.974703,0 c -0.480685,0.55502 -0.853658,1.13727 -0.687124,1.26346 0.116928,0.29232 1.158704,-0.58988 1.706615,-0.94249 0.123153,-0.0793 0.24793,-0.19152 0.366939,-0.32097 l 0.692625,0 0,-4e-4 -0.692231,0 c 0.478658,-0.52086 0.859926,-1.33184 0.628588,-1.50979 -0.01319,-0.0363 -0.04025,-0.0549 -0.07779,-0.0585 -0.26276,-0.0257 -1.055428,0.6731 -1.451254,1.05407 -0.163698,0.15755 -0.330291,0.33453 -0.485975,0.51426 l -0.974706,0 c 0.449894,-0.48048 0.88754,-0.97005 1.308642,-1.47168 l 0.460048,-0.54805 -0.685553,0.20586 c -1.473865,0.44261 -2.890748,0.93151 -4.385186,1.33457 0.01368,-0.0657 0.02834,-0.12981 0.04243,-0.19486 0.04022,-0.18541 0.0816,-0.36865 0.124931,-0.54884 0.02005,-0.0835 0.03982,-0.16781 0.0605,-0.25025 0.05531,-0.22016 0.112905,-0.43578 0.172469,-0.64902 0.02534,-0.0908 0.05094,-0.1814 0.077,-0.27108 0.02502,-0.086 0.05174,-0.16959 0.0774,-0.25458 0.06814,-0.22601 0.137885,-0.44936 0.210184,-0.66905 0.03288,-0.0998 0.06651,-0.19872 0.100181,-0.2974 0.06814,-0.19991 0.137546,-0.39818 0.208613,-0.59402 0.03377,-0.093 0.06739,-0.18595 0.101753,-0.27815 0.07261,-0.19498 0.146591,-0.38814 0.221577,-0.58026 0.03722,-0.0953 0.07385,-0.19126 0.111575,-0.28601 0.04055,-0.10189 0.08228,-0.2027 0.12336,-0.30408 0.18116,-0.44687 0.365582,-0.89042 0.553943,-1.33417 l -0.393654,-0.16697 c -0.123276,0.29043 -0.245178,0.58156 -0.365758,0.87373 -0.04406,0.10669 -0.08725,0.21459 -0.130827,0.32176 -0.07953,0.19577 -0.158149,0.39277 -0.235719,0.59087 -0.05277,0.13461 -0.10505,0.27022 -0.156755,0.40623 -0.06891,0.18152 -0.13598,0.3658 -0.202719,0.55041 -0.05408,0.14938 -0.108996,0.29726 -0.161468,0.44904 -0.191831,0.5549 -0.372011,1.12771 -0.537051,1.72548 -0.164566,0.59606 -0.313405,1.21849 -0.443154,1.87397 -4.02e-4,0.002 -8.04e-4,0.003 -0.0012,0.005 l -0.01492,0.004 -0.02554,0.13239 c -0.219023,1.12905 -0.379929,2.3586 -0.461619,3.73107 l -0.02986,0.49894 0.02357,-0.02 c -1.17e-4,0.003 -2.01e-4,0.005 -4.02e-4,0.008 -0.0091,0.2039 -0.01635,0.41127 -0.022,0.62151 -8.05e-4,0.0297 -0.0012,0.0597 -0.002,0.0896 -0.0048,0.19882 -0.0085,0.39956 -0.01022,0.60424 -4.02e-4,0.0536 -6.03e-4,0.10862 -8.04e-4,0.16264 -8.05e-4,0.19189 -0.0014,0.38386 8.04e-4,0.58105 0.0016,0.15406 0.0056,0.31277 0.009,0.47027 0.002,0.0911 0.0025,0.17956 0.0051,0.27186 l -0.02043,-0.022 0.02397,0.58184 c 0.0087,0.21276 0.01692,0.42633 0.02907,0.64823 l 0.01179,0.22118 0.02004,-0.002 c 0.02007,0.34222 0.04411,0.69191 0.07229,1.04935 0.0271,0.34372 0.05783,0.69487 0.09272,1.05328 0.0024,0.0243 0.0047,0.0483 0.0071,0.0727 0.03383,0.34323 0.07154,0.69371 0.112753,1.05092 0.0038,0.0327 0.0072,0.065 0.011,0.0978 0.04001,0.34234 0.08383,0.69181 0.130825,1.04739 0.0071,0.0542 0.0139,0.10734 0.02121,0.16186 0.04452,0.33116 0.09269,0.66947 0.143396,1.01242 0.01199,0.0812 0.02302,0.1605 0.03536,0.2424 0.04806,0.3183 0.10013,0.64448 0.153611,0.97313 0.01812,0.11157 0.03505,0.22036 0.05382,0.33315 0.05691,0.34154 0.118275,0.69176 0.181112,1.04464 0.01684,0.0946 0.03183,0.18581 0.04911,0.28129 0.08233,0.45469 0.168912,0.91763 0.261257,1.39154 -0.516506,-0.30716 -0.977996,-0.52647 -1.581291,-1.03168 -0.763679,-0.6395 -1.808638,-1.80199 -3.570772,-4.35571 l -0.388153,0.1481 c 0.339381,2.66338 0.853479,4.85238 1.521575,6.63907 0.09544,0.25524 0.194168,0.50231 0.29583,0.74134 -1.26752,-0.96549 -2.486297,-2.08986 -3.560165,-3.31658 l -0.0059,-0.007 c -0.892319,-6.24116 -1.058434,-12.11813 0.107252,-17.33174 0.389457,0.3946 0.793039,0.75903 1.213569,1.08667 0.382632,-0.27516 0.33539,-0.60395 0.355545,-0.92442 -0.43589,-0.41544 -0.864581,-0.8547 -1.281535,-1.3326 0.45858,-1.71005 1.069632,-3.34421 1.859836,-4.88924 l -0.381083,-0.19447 c -0.76072,1.48739 -1.35885,3.0523 -1.815833,4.68416 -1.016085,-1.24145 -1.949656,-2.75547 -2.719325,-4.81057 l -1.351464,0.28443 c 1.116823,2.20535 2.342491,4.17673 3.765241,5.7233 -0.363812,1.55411 -0.604554,3.16669 -0.746054,4.82637 l -2.852218,0 c 0.366275,-2.80535 0.509048,-5.69766 0.312723,-5.72643 -0.213744,-0.0313 -1.065117,2.02915 -1.506648,5.04088 -0.44153,3.01174 -0.306059,5.83417 -0.09232,5.86551 0.213734,0.0313 0.744928,-1.42451 1.186459,-4.43626 0.03595,-0.24519 0.06732,-0.49466 0.09979,-0.7433 l 2.852218,0 c -0.370285,4.34362 -0.03882,9.02026 0.70991,13.89336 1.75e-4,0.002 2.01e-4,0.003 4.02e-4,0.005 0.04693,0.47134 0.09548,0.92941 0.145754,1.37425 6.04e-4,0.006 0.0012,0.0118 0.002,0.0177 0.10093,0.89149 0.2088,1.73244 0.323329,2.52653 0.0012,0.009 0.0026,0.0178 0.0039,0.0267 0.05711,0.39489 0.115895,0.77924 0.176399,1.15228 0.05986,0.3691 0.121439,0.72885 0.184648,1.07803 0.0038,0.0212 0.0075,0.0421 0.01139,0.0632 0.06107,0.33519 0.123599,0.66287 0.187789,0.98099 0.0044,0.0221 0.0093,0.0436 0.01376,0.0656 0.06322,0.31118 0.127441,0.6162 0.193683,0.91224 0.0072,0.0322 0.01476,0.0635 0.022,0.0955 0.06638,0.29362 0.133721,0.58162 0.203113,0.86156 0.0029,0.0117 0.0061,0.0229 0.009,0.0346 0.07229,0.29055 0.146007,0.57536 0.221577,0.85252 0.0053,0.0195 0.01078,0.0383 0.01611,0.0577 0.07276,0.26517 0.146968,0.52608 0.222755,0.78024 0.01163,0.039 0.02366,0.0767 0.03536,0.1155 0.07143,0.23659 0.143547,0.47079 0.217648,0.69891 0.01523,0.0469 0.03102,0.0921 0.04636,0.13869 0.07054,0.21402 0.14157,0.42696 0.214504,0.63448 0.02621,0.0747 0.05362,0.14688 0.08015,0.22079 0.06458,0.17973 0.129217,0.3595 0.195648,0.53508 0.03203,0.0848 0.06536,0.16716 0.09782,0.25104 0.0631,0.16287 0.125818,0.32643 0.190541,0.48637 0.05824,0.14405 0.118008,0.28543 0.177576,0.42744 0.03871,0.0922 0.07663,0.18588 0.115895,0.27737 0.103129,0.24039 0.208066,0.47859 0.315081,0.71502 -0.281797,-0.18918 -0.563696,-0.37385 -0.845452,-0.55669 -0.0102,-0.007 -0.02044,-0.013 -0.03064,-0.0197 -0.539914,-0.35013 -1.07897,-0.69382 -1.615471,-1.04895 -3.168608,-2.09742 -6.241483,-4.59821 -8.787658,-11.2368 -0.33211,-0.8659 -0.655176,-1.80226 -0.968418,-2.81725 -1.064476,-4.50672 -1.593674,-9.42153 -0.371653,-15.7528 l -0.419975,-0.0809 c -1.182359,6.12578 -0.74023,10.96662 0.242399,15.35758 l -0.03261,0.004 c -0.186563,9.5141 0.97204,13.43132 2.009516,17.77529 -0.314439,-0.35462 -0.628495,-0.70915 -0.940524,-1.06624 -0.07866,-0.09 -0.155759,-0.18227 -0.234149,-0.27266 -0.244638,-0.28218 -0.488991,-0.56457 -0.729948,-0.85252 -0.03416,-0.0408 -0.06808,-0.082 -0.102145,-0.12297 -0.121785,-0.14645 -0.243303,-0.29336 -0.363795,-0.44197 -0.02923,-0.036 -0.05807,-0.0727 -0.08722,-0.10882 -0.124522,-0.15462 -0.248389,-0.31048 -0.371259,-0.46791 -0.02857,-0.0366 -0.05678,-0.0737 -0.08525,-0.1104 -0.123816,-0.1599 -0.247052,-0.32108 -0.368903,-0.4844 -0.02622,-0.0351 -0.05206,-0.0708 -0.07818,-0.10607 -0.122742,-0.16594 -0.244521,-0.3333 -0.364973,-0.50327 -0.02596,-0.0366 -0.05155,-0.0736 -0.0774,-0.11039 -0.119458,-0.17022 -0.237854,-0.34264 -0.35476,-0.51741 -0.02419,-0.0361 -0.04821,-0.0725 -0.07229,-0.10883 -0.119695,-0.18081 -0.238064,-0.3642 -0.35476,-0.5504 -0.01978,-0.0315 -0.03963,-0.063 -0.05932,-0.0947 -0.122532,-0.19743 -0.242971,-0.39821 -0.361831,-0.60227 -0.01196,-0.0205 -0.02423,-0.0407 -0.03614,-0.0613 -0.119414,-0.20637 -0.236654,-0.41679 -0.352009,-0.63055 -0.01428,-0.0265 -0.029,-0.0524 -0.04322,-0.079 -0.124115,-0.23207 -0.245617,-0.46844 -0.364581,-0.70992 -0.12339,-0.25046 -0.244005,-0.50587 -0.361438,-0.76727 -0.136637,-0.30414 -0.267667,-0.61881 -0.395617,-0.93895 -1.09e-4,-0.009 -3.62e-4,-0.0182 -4.03e-4,-0.0275 l -0.01021,0 c -0.06803,-0.1708 -0.13495,-0.34374 -0.200362,-0.51937 -0.01945,-0.052 -0.03932,-0.1031 -0.05854,-0.15558 0.0048,-0.0111 0.0093,-0.0224 0.01414,-0.0334 l -0.03222,-0.0141 c -0.0063,-0.0173 -0.01299,-0.0337 -0.01925,-0.0511 -0.02962,-0.0821 -0.05846,-0.16567 -0.08761,-0.24869 -0.08864,-0.25345 -0.176116,-0.50897 -0.2589,-0.77316 -0.09287,-0.29638 -0.181541,-0.60074 -0.266757,-0.91145 -0.0037,-0.0134 -0.0077,-0.0266 -0.01139,-0.0401 -0.08527,-0.31276 -0.166447,-0.63258 -0.243971,-0.95977 -8.24e-4,-0.004 -0.0019,-0.007 -0.0027,-0.0102 -7.85e-4,-0.003 -0.0016,-0.007 -0.0024,-0.0102 -0.08008,-0.339 -0.155598,-0.68612 -0.226684,-1.04188 -0.212553,-1.06374 -0.383412,-2.20524 -0.507192,-3.43406 -0.0029,-0.0287 -0.0058,-0.0572 -0.0086,-0.086 -0.03811,-0.38658 -0.07164,-0.78211 -0.100181,-1.18646 -0.0028,-0.04 -0.0051,-0.0804 -0.0079,-0.12061 -0.0281,-0.41389 -0.05182,-0.83581 -0.06954,-1.26896 -2.21e-4,-0.005 -5.83e-4,-0.0105 -7.85e-4,-0.0157 -0.03574,-0.8806 -0.04863,-1.8037 -0.03889,-2.76853 5.64e-4,-0.0545 8.65e-4,-0.10823 0.0016,-0.16304 0.0058,-0.45013 0.01686,-0.9108 0.033,-1.38015 0.0023,-0.0677 0.0049,-0.13542 0.0075,-0.2035 0.01793,-0.479 0.04091,-0.96746 0.06993,-1.46697 0.0028,-0.0489 0.0061,-0.0986 0.009,-0.14772 0.0037,-0.062 0.0095,-0.12749 0.01336,-0.18975 l 0.06482,0 c 0.01256,1.14526 0.191913,2.07003 0.624659,2.58703 -0.06647,-0.46993 0.02266,-1.39572 0.193684,-2.58703 l 0.645481,0 c -0.217376,1.67878 -0.217793,4.25542 0.121003,4.43587 0.358036,-0.1162 0.729713,-2.71088 0.650589,-4.43587 l 1.411572,0 0,-4e-4 -1.411572,0 c -0.0312,-0.67957 -0.130004,-1.22817 -0.330795,-1.43083 -0.187335,0.0425 -0.338025,0.6373 -0.440797,1.43083 l -0.645481,0 c 0.48468,-3.37593 1.639128,-8.92873 1.868477,-12.63187 l 0,-0.14222 c -0.395806,1.01806 -2.733864,8.47197 -2.68682,12.77409 l -0.06482,0 c 0.0282,-0.45296 0.0586,-0.9101 0.09625,-1.38054 0.0035,-0.0439 0.0078,-0.0891 0.01139,-0.13318 0.0422,-0.51695 0.09007,-1.04464 0.14379,-1.58287 0.0044,-0.0444 0.0084,-0.0878 0.01296,-0.13239 0.05475,-0.54059 0.11641,-1.09453 0.183076,-1.65712 0.01129,-0.0952 0.02255,-0.18976 0.03418,-0.28561 0.06693,-0.55162 0.139824,-1.1138 0.218434,-1.68697 0.01313,-0.0957 0.02662,-0.19206 0.04007,-0.28837 0.08221,-0.58842 0.16964,-1.18699 0.264399,-1.79854 0.01147,-0.074 0.02409,-0.14955 0.03575,-0.22394 0.100952,-0.64407 0.206985,-1.29799 0.322152,-1.96827 l -0.421547,-0.0723 c -0.119698,0.69665 -0.228717,1.37382 -0.333152,2.04251 -0.03645,0.23337 -0.07302,0.46693 -0.107646,0.69695 -0.02128,0.14142 -0.04304,0.28335 -0.06364,0.42351 -0.06051,0.41163 -0.11857,0.81889 -0.173255,1.21985 -0.003,0.0222 -0.0064,0.045 -0.0094,0.0672 -7.45e-4,0.005 -0.0016,0.0111 -0.0024,0.0165 -0.05839,0.4305 -0.112429,0.8529 -0.164218,1.27132 -0.01162,0.0939 -0.02249,0.18639 -0.03379,0.27972 -0.03873,0.31997 -0.07549,0.63659 -0.110396,0.94956 -0.01339,0.12008 -0.02685,0.24041 -0.03968,0.35948 -0.03618,0.33555 -0.07034,0.66717 -0.102146,0.99474 -0.0064,0.0657 -0.01344,0.13302 -0.01964,0.19839 -4.63e-4,0.005 -0.0011,0.01 -0.0016,0.0145 -0.03636,0.38375 -0.06897,0.76011 -0.0994,1.13303 -0.0068,0.0834 -0.01274,0.16546 -0.01925,0.24829 -0.02372,0.30177 -0.04573,0.60019 -0.06561,0.89495 -0.0066,0.0979 -0.01307,0.19594 -0.01925,0.29308 -0.02282,0.35841 -0.0437,0.71299 -0.06089,1.06113 -0.01882,0.38106 -0.03373,0.75496 -0.04597,1.124 -8.65e-4,0.0261 -0.0015,0.0517 -0.0024,0.0778 -0.01028,0.32121 -0.01779,0.63767 -0.02318,0.94996 -0.0012,0.0673 -0.0026,0.13462 -0.0035,0.20154 -0.0047,0.33192 -0.0071,0.66016 -0.0063,0.98217 8.25e-4,0.34198 0.005,0.6778 0.01179,1.00888 6.63e-4,0.032 0.0016,0.0635 0.0024,0.0955 0.0067,0.3001 0.01599,0.59536 0.0275,0.8867 0.0013,0.0342 0.0025,0.0685 0.0039,0.10254 0.013,0.31278 0.02833,0.62189 0.04675,0.92481 0.01917,0.3153 0.04112,0.625 0.066,0.92992 2.82e-4,0.003 5.03e-4,0.007 7.85e-4,0.0106 -5.520937,-7.4243 -3.983117,-18.13095 -3.137481,-23.58578 l -0.422725,-0.0656 c -0.866533,5.58962 -2.520368,16.81862 3.632452,24.44342 0.0022,0.0217 0.0049,0.0424 0.0071,0.064 0.02703,0.26407 0.05626,0.5244 0.08761,0.78063 0.0043,0.0354 0.0082,0.0712 0.01257,0.10647 0.03532,0.28222 0.07311,0.56032 0.113539,0.83327 0.0033,0.0225 0.0069,0.0444 0.01021,0.0668 0.03595,0.23962 0.07415,0.47528 0.113931,0.70795 0.01125,0.0659 0.02263,0.13144 0.03418,0.19683 0.03528,0.19932 0.07196,0.39615 0.110003,0.59048 0.01109,0.0568 0.02168,0.11452 0.033,0.17089 0.04452,0.22119 0.09105,0.4389 0.139075,0.65374 0.02402,0.10766 0.04898,0.21329 0.07386,0.3194 0.02882,0.12271 0.05805,0.2447 0.088,0.36536 0.02608,0.10526 0.05243,0.21019 0.07936,0.31391 0.02817,0.10835 0.05735,0.21504 0.08643,0.32176 0.09271,0.34062 0.188271,0.67618 0.289936,1.00063 0.09358,0.29864 0.191548,0.5893 0.292294,0.87491 0.0069,0.0194 0.01355,0.0392 0.02043,0.0585 0.006,0.0169 0.01166,0.0342 0.01768,0.0511 -3.56159,8.20811 -3.556135,18.27054 -2.047233,26.92478 0.760499,4.3618 1.903556,8.36607 3.170833,11.59745 1.267277,3.23137 2.649244,5.68672 3.935747,6.97418 l 0.354759,-0.21647 c -0.666447,-2.07329 -1.086477,-4.93256 -1.435931,-8.00585 3.259379,4.78822 5.775786,10.03576 12.229963,13.31113 l 0.432547,0.21961 -0.13004,-0.46751 c -0.893464,-3.21202 -1.494667,-6.72188 -1.807976,-10.39959 l 1.721939,-2.97047 c 1.661554,5.07557 2.954625,11.35937 8.34254,14.74038 l 0.432153,0.27147 -0.10961,-0.49815 c -0.749675,-3.40755 -0.86747,-6.34649 -0.44119,-8.87606 1.30314,3.91345 2.261369,8.0616 1.278783,13.76333 l -0.11236,0.65137 0.47262,-0.4624 c 1.717117,-1.67995 3.328191,-3.75108 4.759589,-6.46581 1.225666,1.52452 2.451183,3.10636 3.676847,4.78355 1.789488,1.51323 5.290093,1.74282 9.833472,0.87413 11.979993,-2.5587 20.385223,-6.24013 27.254783,-10.26916 0.13725,-0.14414 0.27278,-0.28979 0.40937,-0.43451 -10.23148,5.97426 -20.26363,9.11293 -29.532632,10.96728 17.765402,-4.20814 25.970982,-9.5191 31.112352,-13.24945 0.6774,-0.4915 1.30499,-1.019 1.88851,-1.56597 0.91007,-1.06399 1.79464,-2.1502 2.64871,-3.26316 -0.47752,1.42747 -1.04919,2.69651 -1.77968,3.878 -0.20524,0.27551 -0.40939,0.55424 -0.61091,0.84152 l 0.0357,0.0251 c -0.31285,0.43893 -0.64969,0.86842 -1.01832,1.29057 -2.13816,2.44868 -5.29132,4.68803 -10.19294,7.44798 l -0.48401,0.27226 0.54176,0.12258 c 5.65483,1.27719 10.88008,1.05484 14.80757,-0.2644 -1.43226,2.52043 -3.70261,4.49901 -6.8854,5.97787 l 0.12965,0.40386 c 8.89296,-1.66774 16.79624,-4.37911 22.7757,-9.06738 -0.34574,3.19258 -1.227,5.20051 -2.29867,6.8194 l 0.28758,0.30172 c 0.65191,-0.38715 1.3073,-0.83584 1.96356,-1.33143 2.51346,-0.0988 4.64627,-1.05063 6.18137,-3.1339 2.57135,3.21507 5.23535,6.1342 8.19836,8.08678 l 0.43097,0.28404 -0.10371,-0.50562 c -0.68409,-3.32992 -0.89324,-5.98822 -0.86863,-8.32211 5.57231,-3.02576 10.98467,-9.65904 16.27689,-20.02327 -1.69418,13.78655 -6.22536,22.02594 -10.598,27.90537 l 0.29701,0.30094 c 4.80723,-3.47627 11.66431,-13.32546 16.03567,-25.69785 4.32457,-12.23994 6.19078,-26.94722 1.06035,-40.32942 1.79984,-9.48037 2.01996,-17.93335 -0.0216,-24.92468 l -0.41015,0.11982 c 1.99382,6.82783 1.79932,15.12408 0.0562,24.45286 l -0.19015,0.075 c 0.0401,0.10147 0.0785,0.20324 0.11786,0.30487 -1.48965,7.80833 -4.05023,16.33069 -7.32148,25.32109 l 0.40152,0.14654 c 3.17864,-8.7359 5.6989,-17.03826 7.21383,-24.68661 4.77362,13.07707 2.92092,27.40352 -1.30982,39.37789 -3.97364,11.24668 -10.04583,20.3577 -14.61546,24.42142 4.18505,-5.95682 8.34194,-14.22347 9.8378,-27.59304 l 0.0303,0.002 0.25143,-3.19323 -0.42665,-0.0334 -0.21569,2.73947 -0.001,-4.1e-4 c -5.38573,10.84279 -10.89003,17.69851 -16.45879,20.81883 0.0512,-2.05627 0.27608,-3.8723 0.50562,-5.69147 l -0.4243,-0.0534 c -0.48901,3.87564 -0.95737,7.8234 0.26047,14.1063 -2.793,-1.9493 -5.36062,-4.75825 -7.84595,-7.88328 l -0.17954,-0.22589 -0.16383,0.23768 c -1.34886,1.96022 -3.1737,2.90552 -5.39642,3.12565 7.34006,-5.8974 14.74989,-18.26841 19.4379,-33.07433 2.33634,-7.37877 3.98942,-15.36213 4.60598,-23.44711 l 0.10843,0.053 c 3.0443,-6.23038 4.77102,-15.34989 4.44686,-29.0498 -1.1e-4,-0.005 1.2e-4,-0.009 0,-0.0141 l -0.42744,-0.005 c -0.20875,4.73607 -1.16167,9.56198 -3.29576,13.43018 -0.88418,-5.90762 -2.5017,-9.62908 -3.93182,-13.84151 l -0.0279,0.009 c -0.0216,-0.0657 -0.0422,-0.13164 -0.064,-0.19722 z m -24.17628,4.74859 c -0.39329,9.99756 -2.05241,19.68706 -5.9374,28.84983 0.25193,-1.37662 0.52588,-2.77561 0.78062,-4.16047 -1.13121,-1.24211 -2.2817,-2.34999 -3.48119,-3.35469 -2.21092,2.31922 -4.83133,4.49621 -9.07642,6.10791 0.93571,0.48096 1.73297,1.02558 2.48175,1.59268 l 0.22589,-0.28011 c 2.17789,1.75687 4.516,3.40828 6.60528,5.26324 -0.0688,0.12931 -0.13915,0.2583 -0.209,0.38737 -0.97566,-0.8705 -2.01122,-1.69973 -3.06594,-2.51828 0.81795,1.31679 1.5601,2.65455 2.23463,4.01118 -0.21885,0.37991 -0.44143,0.75881 -0.66945,1.13656 l -0.29386,0.48637 0.54176,-0.17208 c 0.3268,-0.10401 0.64889,-0.20905 0.96803,-0.31468 0.27597,0.59436 0.53905,1.19221 0.79045,1.79344 1.42321,-0.72294 2.78015,-1.71095 4.12275,-2.75636 -0.95935,2.14167 -2.0912,4.06774 -3.49181,5.65925 l -0.41094,0.46752 0.61131,-0.1159 c 2.81237,-0.53279 5.78066,-1.21822 8.22075,-2.95475 -2.38082,5.93712 -6.74152,10.60329 -11.38452,14.04854 0.0981,-0.42799 0.15941,-0.88049 0.1324,-1.39114 -2.37299,0.68519 -4.51741,0.70139 -7.68056,0.42704 0.95668,-0.82124 1.67081,-1.88483 2.3466,-2.98696 0.81336,-0.227 1.55517,-0.4629 2.25545,-0.70402 l -0.45769,-0.98374 0.22276,-0.10372 c -0.53178,0.22268 -0.99993,0.40119 -1.26307,0.47301 3.07972,-2.06039 3.85796,-3.33827 5.40585,-4.87784 -0.13162,-3.87524 -1.05103,-5.61325 -1.83547,-7.71906 -0.44375,4.97637 -2.09521,8.01334 -3.91728,9.96626 a 1.2068887,0.65373139 53.850647 0 0 -0.35712,-0.92285 1.2068887,0.65373139 53.850647 0 0 -0.70677,-0.59676 c 0.18546,-0.28781 0.3572,-0.59728 0.51112,-0.93188 l -0.35554,-3.02233 c -2.07144,5.26749 -8.42346,4.96807 -6.75614,-3.16494 l -2.38235,1.60015 c -0.0476,0.14786 -0.0909,0.29348 -0.13161,0.43765 -0.0627,-0.0452 -0.12531,-0.0922 -0.18779,-0.13907 -0.0477,-0.0362 -0.0955,-0.0722 -0.14301,-0.10961 -0.0638,-0.0497 -0.12749,-0.0993 -0.19093,-0.15165 -0.36689,-0.30308 -0.72881,-0.64294 -1.08824,-1.00574 0.55749,-3.14303 1.68967,-5.82648 3.56173,-7.91785 l 0.65216,0 a 1.1904856,1.6233894 44.865503 0 0 0.11315,1.40214 1.1904856,1.6233894 44.865503 0 0 0.41958,0.23533 1.1904856,1.6233894 44.865503 0 0 0.12572,0.0255 1.1904856,1.6233894 44.865503 0 0 0.26833,0.008 1.1904856,1.6233894 44.865503 0 0 0.28129,-0.0483 1.1904856,1.6233894 44.865503 0 0 0.0342,-0.011 1.1904856,1.6233894 44.865503 0 0 0.24947,-0.0923 1.1904856,1.6233894 44.865503 0 0 0.0416,-0.0197 0.65373139,0.75430545 0 0 0 -0.17443,0.51112 0.65373139,0.75430545 0 0 0 0.65373,0.75431 0.65373139,0.75430545 0 0 0 0.65373,-0.75431 0.65373139,0.75430545 0 0 0 -0.65373,-0.7543 0.65373139,0.75430545 0 0 0 -0.11079,0.011 1.1904856,1.6233894 44.865503 0 0 0.20037,-0.17679 1.1904856,1.6233894 44.865503 0 0 0.37911,-0.51426 1.1904856,1.6233894 44.865503 0 0 0,-4e-4 1.1904856,1.6233894 44.865503 0 0 0.0664,-0.13987 1.1904856,1.6233894 44.865503 0 0 0.0904,-0.92677 1.1904856,1.6233894 44.865503 0 0 -0.003,-0.011 1.1904856,1.6233894 44.865503 0 0 -0.23179,-0.39798 1.1904856,1.6233894 44.865503 0 0 -0.67652,-0.27304 1.1904856,1.6233894 44.865503 0 0 -0.0963,4e-4 1.1904856,1.6233894 44.865503 0 0 -1.21632,0.58341 1.1904856,1.6233894 44.865503 0 0 -0.41447,0.58812 l -0.65177,0 c 0.67931,-0.75882 1.45519,-1.44027 2.33756,-2.03662 l -1.75022,-0.0978 c 5.30747,-3.25498 9.89896,-6.64165 13.87647,-11.34208 l 0.0157,0 0,-4.1e-4 -0.0153,0 c 3.43327,-4.05738 6.40931,-9.09317 8.99037,-15.8742 z m 31.51936,0.13083 c -0.0951,10.82589 -1.61397,18.44883 -4.09014,23.88359 0.5138,-7.65423 0.0876,-15.38318 -1.58522,-22.76274 0.81782,2.49111 1.55463,5.21405 2.03309,8.71773 l 0.0825,0.6058 0.31312,-0.52527 c 1.72427,-2.89594 2.72906,-6.35305 3.24665,-9.91911 z m -99.02498,1.45321 c -0.346868,0.39467 -0.703208,0.78262 -1.067421,1.16525 l -0.339437,0 0,4e-4 0.339045,0 c -0.988158,1.03808 -2.038226,2.03335 -3.144512,2.98972 0.08404,-1.0827 0.211018,-2.08648 0.385011,-3.00701 1.318456,-0.34724 2.56872,-0.75514 3.827314,-1.14835 z m 11.998956,0.92953 c -4.125986,5.85171 -8.483205,8.92048 -12.918265,11.38648 -0.198363,0.11029 -0.39556,0.22101 -0.592052,0.32804 l 0.02161,0.0782 c -0.05201,0.0244 -0.102403,0.045 -0.15479,0.0703 -0.143135,0.0691 -0.287795,0.14175 -0.433725,0.21765 -0.0086,0.004 -0.0173,0.009 -0.02593,0.0134 -0.139211,0.0727 -0.279771,0.14918 -0.421547,0.22825 -0.01191,0.007 -0.02383,0.013 -0.03575,0.0197 -0.131412,0.0737 -0.264347,0.15094 -0.397973,0.23022 -0.02616,0.0155 -0.05194,0.0306 -0.07818,0.0464 -0.119925,0.0719 -0.2413,0.14704 -0.36301,0.22354 -0.03652,0.023 -0.07254,0.045 -0.109218,0.0684 -0.08713,0.0555 -0.175522,0.11436 -0.263615,0.17246 -0.03224,-0.23442 -0.06115,-0.46211 -0.09036,-0.69066 -0.01495,-0.11711 -0.03103,-0.23642 -0.04518,-0.35201 -0.02629,-0.21434 -0.04983,-0.42369 -0.07347,-0.63291 -0.01655,-0.14691 -0.03305,-0.29321 -0.04832,-0.43765 -0.02169,-0.20459 -0.04214,-0.40766 -0.06129,-0.60737 -0.01418,-0.14831 -0.02726,-0.29394 -0.04007,-0.43962 -0.01593,-0.18082 -0.0325,-0.36257 -0.04636,-0.53941 -0.02369,-0.30305 -0.0447,-0.60123 -0.06247,-0.89299 -0.0016,-0.025 -0.0025,-0.0489 -0.0039,-0.0739 0.105454,-0.0113 0.210861,-0.0219 0.316259,-0.0353 l 0.410939,-0.0527 -0.02396,-0.0259 c 5.442545,-0.83652 11.464682,-4.68097 15.540655,-8.30246 z m 13.005484,2.56581 c -0.83962,1.51383 -1.72281,2.87361 -2.635747,4.1035 -2.742576,1.72866 -5.426134,3.53403 -8.687085,4.58791 l 0.555515,1.78873 -0.408582,0.12689 -0.555515,-1.78833 c -0.850973,0.2545 -1.742966,0.45587 -2.684857,0.59205 0.793244,0.86312 1.608574,1.95846 2.444423,3.17319 -0.12294,0.0753 -0.245554,0.14871 -0.368117,0.22197 -0.902564,-1.30594 -1.788177,-2.46334 -2.616499,-3.32484 -0.224165,0.0258 -0.44999,0.0491 -0.680054,0.0672 0.02666,0.0358 0.05214,0.0735 0.07858,0.10961 0.04756,0.065 0.09456,0.13097 0.141433,0.19722 0.07962,0.1126 0.158348,0.227 0.236112,0.34298 0.0433,0.0645 0.08688,0.12853 0.129646,0.19407 0.07692,0.11792 0.152545,0.2382 0.227865,0.35908 0.09863,0.15815 0.196053,0.31899 0.292292,0.48166 0.04435,0.0751 0.08928,0.1488 0.133182,0.22472 0.002,0.004 0.0039,0.007 0.0059,0.0106 0.07666,0.13256 0.152412,0.26734 0.227862,0.4023 0.0267,0.0478 0.05358,0.0953 0.08015,0.1434 0.0881,0.15929 0.175204,0.32005 0.262041,0.48204 0.15831,0.29532 0.314793,0.59538 0.470657,0.89692 -0.04742,0.0266 -0.09528,0.0553 -0.142612,0.0817 l -0.561801,0.31273 0.637231,0.0856 c 8.690273,1.1703 16.110705,0.90189 20.802725,-0.98924 -0.26376,0.34117 -0.54866,0.67077 -0.84584,0.99357 -6.39688,2.66985 -13.388962,4.58642 -19.424548,2.97714 0.04084,0.22923 0.08805,0.45649 0.137503,0.67534 0.0038,0.0166 0.0076,0.033 0.01139,0.0495 0.04905,0.21374 0.100163,0.41988 0.15204,0.60777 -0.157594,-0.22928 -0.297364,-0.46693 -0.422725,-0.7103 -0.04177,-0.0811 -0.08199,-0.16254 -0.120611,-0.24476 -0.154485,-0.32889 -0.284632,-0.66579 -0.397189,-1.00417 l 0,-4e-4 c -0.05623,-0.16907 -0.108049,-0.33835 -0.15636,-0.50719 l 0,-4.1e-4 c -0.145004,-0.50677 -0.258289,-1.00895 -0.362618,-1.48268 0,0 -0.06652,-0.0223 -0.129646,-0.0432 0.623571,5.11672 -0.786165,9.06943 -2.287273,11.47448 l 0,4e-4 c 2.01e-4,0.002 0.001,0.004 0.0012,0.006 0.06434,0.48888 0.398445,0.935 0.572408,1.22811 0.01808,0.0303 0.03544,0.0608 0.0495,0.0876 0.0068,0.0131 0.01513,0.0278 0.02082,0.0401 0.0016,0.004 0.0028,0.007 0.0043,0.0102 0.0099,0.0223 0.01786,0.043 0.02318,0.0621 0.0018,0.006 0.0027,0.0125 0.0039,0.0185 0.003,0.015 0.004,0.0286 0.0031,0.0412 -4.02e-4,0.006 -4.02e-4,0.0117 -0.0016,0.0169 -0.0038,0.0158 -0.01054,0.0301 -0.02318,0.0409 -0.07007,0.0352 -0.143336,0.0652 -0.21765,0.0931 -0.01792,0.007 -0.03571,0.0133 -0.05382,0.0197 -0.0736,0.0256 -0.148346,0.0489 -0.224328,0.068 -0.0093,0.002 -0.01859,0.004 -0.02789,0.006 -0.0609,0.0146 -0.121922,0.0255 -0.183469,0.0361 -0.07316,0.0127 -0.145845,0.0221 -0.218828,0.0295 -0.03287,0.003 -0.06555,0.008 -0.09822,0.0106 -0.09361,0.007 -0.185913,0.009 -0.276187,0.007 -0.0526,-6.1e-4 -0.10201,-0.004 -0.152824,-0.007 -0.04028,-0.003 -0.08016,-0.005 -0.119039,-0.009 -0.0543,-0.006 -0.105762,-0.0121 -0.156755,-0.0204 -0.02981,-0.005 -0.05792,-0.0107 -0.08643,-0.0165 -0.05347,-0.0107 -0.105818,-0.0213 -0.154003,-0.035 -0.003,0.003 -0.0064,0.007 -0.0094,0.0102 l -0.06011,0.0625 -0.08722,0.003 c -4.801681,0.15356 -7.469803,-0.84627 -9.409961,-2.25309 l 0.250651,-0.34612 c 0.825433,0.59853 1.784749,1.11999 3.005042,1.5039 l -0.01885,-0.009 c -0.08587,-0.0696 -0.169741,-0.14442 -0.252222,-0.22354 -0.0254,-0.0244 -0.04958,-0.0518 -0.07464,-0.077 -0.05533,-0.0557 -0.110957,-0.1113 -0.164612,-0.17129 -0.03221,-0.036 -0.06309,-0.0752 -0.09468,-0.11275 -0.04622,-0.0549 -0.09265,-0.10924 -0.137505,-0.16736 -0.03188,-0.0413 -0.06232,-0.0856 -0.0935,-0.12847 -0.04105,-0.0565 -0.08239,-0.11243 -0.122182,-0.17169 -0.03497,-0.052 -0.06856,-0.10694 -0.102539,-0.16107 -0.03419,-0.0545 -0.0686,-0.10841 -0.101753,-0.165 -0.03461,-0.0591 -0.06789,-0.12061 -0.101358,-0.1819 -0.03147,-0.0577 -0.06307,-0.11518 -0.0935,-0.17483 -0.03131,-0.0613 -0.06135,-0.1248 -0.09154,-0.18818 -0.02961,-0.0622 -0.05911,-0.12441 -0.08761,-0.18858 -0.03178,-0.0715 -0.06233,-0.14495 -0.09272,-0.21883 -0.02351,-0.0572 -0.04688,-0.11459 -0.06954,-0.17325 -0.03271,-0.0846 -0.06418,-0.17101 -0.09508,-0.25851 -0.01746,-0.0496 -0.03498,-0.0992 -0.05186,-0.14968 -0.0319,-0.0953 -0.06258,-0.1922 -0.09232,-0.29072 -0.01603,-0.0532 -0.03176,-0.10693 -0.04714,-0.16108 -0.0279,-0.098 -0.05478,-0.19721 -0.08054,-0.29818 -0.01289,-0.0507 -0.02537,-0.10183 -0.03772,-0.15322 -0.02746,-0.11409 -0.05348,-0.22959 -0.07818,-0.3473 -0.0079,-0.0375 -0.01521,-0.0756 -0.02279,-0.11353 -0.02639,-0.13174 -0.05137,-0.26506 -0.07425,-0.40112 -0.0037,-0.0219 -0.007,-0.0441 -0.0106,-0.066 -0.02519,-0.1544 -0.04857,-0.31091 -0.06914,-0.47066 -0.02249,-0.17463 -0.04213,-0.35227 -0.05893,-0.53312 -0.06081,-0.65475 -0.08101,-1.35184 -0.06168,-2.0822 0.616623,0.47669 1.53656,0.9856 2.385492,1.25914 -0.525309,6.97068 3.819127,8.10372 6.474061,5.50722 a 0.80895134,0.47114745 50.620379 0 1 -0.09782,-0.85763 0.80895134,0.47114745 50.620379 0 1 0.182289,-0.0668 0.80895134,0.47114745 50.620379 0 1 0.523693,0.21961 c 0.510077,-0.69536 0.914934,-1.55924 1.145209,-2.57131 l -0.70834,-1.52511 a 2.9920783,4.3623999 7.4776807 0 1 -0.407405,0.78141 2.9920783,4.3623999 7.4776807 0 1 -0.468297,0.61051 2.9920783,4.3623999 7.4776807 0 1 -0.260078,0.25615 2.9920783,4.3623999 7.4776807 0 1 -0.274614,0.21962 2.9920783,4.3623999 7.4776807 0 1 -0.0071,0.004 l -4.03e-4,4e-4 c -2.183108,2.74758 -5.334138,-1.00381 -3.933389,-5.35085 l -1.986337,1.23203 c -0.05171,0.3262 -0.09101,0.63829 -0.124539,0.94367 -0.908697,-0.33169 -1.826813,-0.94938 -2.4071,-1.43318 0.160495,-2.46907 0.787835,-5.30042 2.031518,-8.33743 0.545415,-0.0333 1.08345,-0.0705 1.613113,-0.11236 a 1.4667799,1.4667799 0 0 0 -0.227862,0.78455 1.4667799,1.4667799 0 0 0 0.121789,0.58302 1.4667799,1.4667799 0 0 0 0.09311,0.17797 c 0.0051,0.008 0.01006,0.0168 0.01533,0.0251 a 1.4667799,1.4667799 0 0 0 0.2534,0.30054 c 0.0085,0.008 0.01728,0.0149 0.02593,0.0224 a 1.4667799,1.4667799 0 0 0 0.149683,0.11471 c 0.0014,0.001 0.0029,0.002 0.0043,0.003 a 1.4667799,1.4667799 0 0 0 0.170111,0.0955 c 0.01112,0.005 0.02252,0.01 0.03379,0.0149 a 1.4667799,1.4667799 0 0 0 0.154397,0.0593 c 0.0103,0.003 0.02027,0.007 0.03064,0.0102 a 1.4667799,1.4667799 0 0 0 0.188577,0.042 c 0.01042,0.002 0.02095,0.003 0.03143,0.004 a 1.4667799,1.4667799 0 0 0 0.19447,0.0145 1.4667799,1.4667799 0 0 0 0.199577,-0.0153 0.61338072,0.61338072 0 0 0 -0.0043,0.0688 0.61338072,0.61338072 0 0 0 0.01219,0.12179 0.61338072,0.61338072 0 0 0 4.02e-4,0.001 c 2.02e-4,10e-4 6.04e-4,0.002 8.05e-4,0.003 a 0.61338072,0.61338072 0 0 0 0.03497,0.11276 0.61338072,0.61338072 0 0 0 0.055,0.10136 c 8.04e-4,0.001 0.0016,0.002 0.0024,0.004 a 0.61338072,0.61338072 0 0 0 0.0715,0.0864 c 0.0016,0.002 0.0027,0.004 0.0043,0.005 a 0.61338072,0.61338072 0 0 0 0.0829,0.0684 c 0.0035,0.002 0.0067,0.005 0.01022,0.007 a 0.61338072,0.61338072 0 0 0 0.08879,0.0479 c 0.0065,0.003 0.01267,0.006 0.01925,0.009 a 0.61338072,0.61338072 0 0 0 0.09822,0.0303 c 0.0051,0.001 0.01014,0.003 0.01533,0.004 a 0.61338072,0.61338072 0 0 0 0.117466,0.0118 0.61338072,0.61338072 0 0 0 0.12179,-0.0122 0.61338072,0.61338072 0 0 0 0.002,-4e-4 c 8.05e-4,-1.6e-4 0.0016,-6e-4 0.0024,-8e-4 a 0.61338072,0.61338072 0 0 0 0.112751,-0.035 0.61338072,0.61338072 0 0 0 0.101361,-0.055 0.61338072,0.61338072 0 0 0 0.0028,-0.002 c 4.03e-4,-2e-4 4.03e-4,-6e-4 8.05e-4,-8e-4 a 0.61338072,0.61338072 0 0 0 0.08329,-0.0684 c 0.0031,-0.003 0.0064,-0.006 0.0094,-0.009 a 0.61338072,0.61338072 0 0 0 0.06718,-0.0817 c 0.0022,-0.003 0.0046,-0.006 0.0067,-0.009 a 0.61338072,0.61338072 0 0 0 0.0495,-0.0915 c 0.0023,-0.005 0.0049,-0.0101 0.0071,-0.0153 a 0.61338072,0.61338072 0 0 0 0.03064,-0.099 c 0.0012,-0.006 0.0028,-0.0112 0.0039,-0.0169 a 0.61338072,0.61338072 0 0 0 0.01179,-0.11668 0.61338072,0.61338072 0 0 0 -0.0051,-0.0754 c -8.05e-4,-0.007 -0.002,-0.0139 -0.0031,-0.0208 a 0.61338072,0.61338072 0 0 0 -0.01257,-0.0585 c -0.0014,-0.006 -0.0027,-0.0116 -0.0043,-0.0173 a 0.61338072,0.61338072 0 0 0 -0.02514,-0.0699 c -0.0018,-0.004 -0.0041,-0.008 -0.0059,-0.0118 a 0.61338072,0.61338072 0 0 0 -0.0275,-0.0534 c -0.0044,-0.008 -0.009,-0.015 -0.01376,-0.0224 a 0.61338072,0.61338072 0 0 0 -0.03025,-0.0428 c -0.0044,-0.006 -0.0084,-0.0117 -0.01297,-0.0173 a 0.61338072,0.61338072 0 0 0 -0.04832,-0.0523 c -0.0051,-0.005 -0.01084,-0.009 -0.01611,-0.0138 a 0.61338072,0.61338072 0 0 0 -0.04439,-0.0365 c -0.0054,-0.004 -0.01092,-0.008 -0.01649,-0.0118 a 0.61338072,0.61338072 0 0 0 -0.06404,-0.0393 c 0.0318,-0.0355 0.06158,-0.0723 0.08957,-0.1104 a 1.4667799,1.4667799 0 0 0 0.02475,-0.0369 c 0.01746,-0.0253 0.0349,-0.0507 0.05068,-0.077 a 1.4667799,1.4667799 0 0 0 0.03143,-0.0574 c 0.01217,-0.0225 0.0244,-0.0449 0.03536,-0.068 a 1.4667799,1.4667799 0 0 0 0.02436,-0.0558 c 0.01044,-0.0245 0.02078,-0.0492 0.02986,-0.0742 a 1.4667799,1.4667799 0 0 0 0.01885,-0.0566 c 0.0086,-0.0272 0.01655,-0.0544 0.02357,-0.0821 a 1.4667799,1.4667799 0 0 0 0.01179,-0.0519 c 0.0061,-0.0285 0.01128,-0.0572 0.01571,-0.086 a 1.4667799,1.4667799 0 0 0 0.0079,-0.0546 c 0.0033,-0.0287 0.0055,-0.0575 0.0071,-0.0864 a 1.4667799,1.4667799 0 0 0 0.0035,-0.0798 c -9e-6,-0.0481 -0.0025,-0.0953 -0.0071,-0.14222 a 1.4667799,1.4667799 0 0 0 -0.0031,-0.0232 c -0.0043,-0.0384 -0.01006,-0.0765 -0.01728,-0.11393 a 1.4667799,1.4667799 0 0 0 -0.0082,-0.0369 c -0.0074,-0.0334 -0.01553,-0.0665 -0.02514,-0.099 a 1.4667799,1.4667799 0 0 0 -0.01179,-0.0369 c -0.01068,-0.0329 -0.02247,-0.0652 -0.03536,-0.097 a 1.4667799,1.4667799 0 0 0 -0.01454,-0.0361 c -0.01404,-0.0322 -0.02935,-0.0634 -0.04557,-0.0943 a 1.4667799,1.4667799 0 0 0 -0.01533,-0.0299 c -0.02159,-0.0389 -0.04461,-0.0773 -0.06954,-0.11393 -4.02e-4,-6.1e-4 -0.001,-0.001 -0.0016,-0.002 a 1.4667799,1.4667799 0 0 0 -0.01571,-0.0216 c -0.01778,-0.0251 -0.03571,-0.05 -0.055,-0.0739 0.53061,-0.0675 1.152448,-0.17311 1.733331,-0.2593 -0.0201,-0.0106 -0.04112,-0.0201 -0.06129,-0.0306 4.435371,-0.59911 8.22824,-1.58881 11.394333,-3.08322 3.051152,-1.44016 5.518034,-3.35818 7.440124,-5.81365 z m 26.75741,3.55506 c -0.79241,3.97472 -2.26448,7.66891 -4.11489,11.09654 l -1.78637,-0.73898 c -4.15408,2.66737 -8.59785,5.21895 -16.48,6.3951 1.98472,-1.33532 3.58243,-2.57142 4.95799,-3.7786 6.65604,-2.11803 12.41796,-7.15729 17.42327,-12.97406 z M 79.0118,478.7187 c -0.04187,0.0884 -0.08274,0.17709 -0.122968,0.26597 0.04024,-0.0889 0.08109,-0.17755 0.122968,-0.26597 z m -0.202327,0.44158 c -0.01159,0.0264 -0.02235,0.053 -0.03379,0.0794 0.01142,-0.0264 0.02222,-0.053 0.03379,-0.0794 z m -10.071548,0.0263 c 0.229916,0.32172 0.444696,0.61429 0.652945,0.89377 0.05145,0.069 0.101871,0.13621 0.152039,0.20272 0.192509,0.25536 0.377982,0.49633 0.552371,0.7162 0.008,0.0101 0.01676,0.0218 0.02475,0.0318 0.197068,0.24781 0.381077,0.46972 0.556299,0.67455 0.01267,0.0148 0.02477,0.0286 0.03732,0.0432 0.171945,0.19979 0.335006,0.38193 0.487156,0.54255 -0.0022,0.36058 -0.0044,0.72168 -0.0043,1.08431 -10e-6,0.0297 4.02e-4,0.0594 4.02e-4,0.0892 4.02e-4,0.4152 0.0035,0.83085 0.0098,1.24539 0.001,0.0678 0.0023,0.1354 0.0035,0.20312 0.0075,0.40805 0.01881,0.81457 0.03536,1.21828 0.002,0.05 0.0033,0.1002 0.0055,0.15007 0.0084,0.18929 0.01814,0.378 0.02907,0.56573 0.0056,0.0961 0.01257,0.19122 0.01885,0.28679 0.01024,0.15493 0.01995,0.31006 0.03221,0.46359 l 0.04754,-0.0287 0.220792,0.36615 -0.227078,0.13711 c 0.02045,0.21303 0.04113,0.42586 0.06639,0.63527 -0.07812,-0.18324 -0.157346,-0.35798 -0.236506,-0.53273 l -1.164066,0.70205 c 0.03907,0.18599 0.07704,0.37029 0.118253,0.55984 -1.225616,-0.9487 -2.322633,-2.08439 -3.260406,-3.29302 -0.05524,-0.43283 -0.108712,-0.88072 -0.160683,-1.33967 -0.0035,-0.0308 -0.0071,-0.0594 -0.0106,-0.0904 -0.05482,-0.48822 -0.107775,-0.99159 -0.158717,-1.51215 0.210447,0.22994 0.425786,0.45643 0.643517,0.68084 0.03902,0.0402 0.07783,0.0803 0.117074,0.12022 0.225783,0.23009 0.454762,0.45664 0.68791,0.67809 0.0087,0.008 0.01762,0.0161 0.02632,0.0244 0.2379,0.22532 0.479639,0.44509 0.724841,0.65883 0.0053,0.005 0.01048,0.009 0.01571,0.0138 0.119655,0.10411 0.240502,0.20594 0.361831,0.30683 0.0148,0.0123 0.02956,0.0247 0.04439,0.0369 0.124276,0.10275 0.249211,0.20386 0.37519,0.3029 0.0012,0.001 0.0024,0.002 0.0035,0.003 0.08388,0.8071 0.216628,1.59626 0.379508,2.40631 l 1.074887,-0.64823 c -0.129774,-0.27308 -0.260394,-0.53644 -0.392082,-0.78967 -8.04e-4,-0.002 -0.0018,-0.003 -0.0028,-0.005 -8.05e-4,-0.002 -0.0016,-0.003 -0.0024,-0.005 -0.05358,-0.1029 -0.107962,-0.19669 -0.161862,-0.29622 l 0.623873,0.43215 -0.366938,-0.74134 c -0.876775,-1.77379 -1.537429,-4.18035 -1.980836,-7.1938 z m 71.569045,0.14261 c -1.41573,1.46962 -2.65885,2.99944 -4.03789,4.48183 1.38031,1.2144 2.34448,2.33615 3.18105,3.42973 0.51447,-2.8282 0.92864,-5.57955 0.85684,-7.91156 z m -61.787041,0.53626 c -0.01722,0.0445 -0.03462,0.089 -0.05146,0.13358 0.01684,-0.0446 0.03425,-0.0891 0.05146,-0.13358 z m 8.159465,0.32726 c 0.02181,0.0356 0.04277,0.0709 0.06404,0.10647 -0.01519,-0.026 -0.03005,-0.0521 -0.04597,-0.0782 -0.0058,-0.009 -0.01223,-0.0188 -0.01806,-0.0283 z m 0.221969,0.37755 c 0.01724,0.0306 0.03423,0.061 0.05107,0.0915 -0.0097,-0.0182 -0.01923,-0.0363 -0.02946,-0.0546 -0.0069,-0.0123 -0.0146,-0.0246 -0.02161,-0.0369 z m -8.676084,0.11471 c -0.01106,0.0335 -0.02135,0.0671 -0.03222,0.10058 0.01086,-0.0335 0.02115,-0.0671 0.03222,-0.10058 z m 8.87409,0.25105 c 0.01408,0.0271 0.02827,0.0543 0.04204,0.0813 -0.0065,-0.0129 -0.01257,-0.0255 -0.01925,-0.0385 -0.0073,-0.0141 -0.01535,-0.0286 -0.02279,-0.0428 z m 0.158718,0.31704 c 0.02112,0.0438 0.0422,0.0879 0.06247,0.13122 -0.0075,-0.0161 -0.014,-0.0314 -0.02161,-0.0475 -0.001,-0.002 -0.0018,-0.004 -0.0028,-0.006 -0.01209,-0.0255 -0.02512,-0.0517 -0.03811,-0.0778 z m -9.2536,0.15204 c -0.01283,0.0451 -0.02602,0.09 -0.0385,0.13515 0.01249,-0.0451 0.02566,-0.0901 0.0385,-0.13515 z m 9.420961,0.21097 c 0.01533,0.0347 0.03159,0.0698 0.04636,0.10411 -0.0037,-0.009 -0.0069,-0.0166 -0.0106,-0.0251 -0.01118,-0.0258 -0.02424,-0.0529 -0.03575,-0.079 z m 0.066,0.15165 c 0.03477,0.13155 0.04155,0.22181 0.03929,0.31782 l 0.151648,-0.0188 c -0.02415,-0.007 -0.06092,-0.0192 -0.07622,-0.022 -0.0356,-0.0903 -0.0749,-0.18345 -0.114717,-0.27697 z m -4.281078,0.34768 c -0.08459,-0.002 -0.168566,0.002 -0.25222,0.01 a 2.9920783,4.3623999 7.4776807 0 1 0.25222,-0.01 z m -0.256935,0.0106 c -0.09644,0.009 -0.191991,0.0265 -0.286792,0.0487 a 2.9920783,4.3623999 7.4776807 0 1 0.286792,-0.0487 z m -0.286792,0.0487 a 2.9920783,4.3623999 7.4776807 0 0 -0.01139,0.002 2.9920783,4.3623999 7.4776807 0 0 -0.05972,0.0153 c 0.02363,-0.006 0.04736,-0.0117 0.07111,-0.0173 z m -0.07111,0.0173 c -0.09656,0.0259 -0.192495,0.0561 -0.286793,0.0943 a 2.9920783,4.3623999 7.4776807 0 1 0.286793,-0.0943 z m 0.826201,-0.0597 a 2.9920783,4.3623999 7.4776807 0 1 0.293472,0.0605 c -0.09559,-0.0269 -0.193495,-0.0474 -0.293472,-0.0605 z m 0.293472,0.0605 a 2.9920783,4.3623999 7.4776807 0 1 0.264399,0.0959 c -0.08618,-0.0371 -0.173937,-0.0704 -0.264399,-0.0959 z m -5.927584,0.044 c -0.0092,0.039 -0.0174,0.078 -0.02632,0.11707 0.0089,-0.039 0.01716,-0.0781 0.02632,-0.11707 z m 6.48192,0.20193 c 0.0039,0.002 0.0075,0.005 0.01139,0.007 a 2.9920783,4.3623999 7.4776807 0 0 -0.0079,-0.005 2.9920783,4.3623999 7.4776807 0 0 -0.0035,-0.002 z m -2.317919,0.0271 c -0.06536,0.0387 -0.130138,0.0788 -0.193683,0.12336 a 2.9920783,4.3623999 7.4776807 0 1 0.193683,-0.12336 z m 2.562676,0.14693 c 0.0085,0.007 0.01744,0.013 0.02593,0.02 a 2.9920783,4.3623999 7.4776807 0 0 -0.0082,-0.007 2.9920783,4.3623999 7.4776807 0 0 -0.01768,-0.0126 z m 2.990899,0.0334 c 0.02489,0.25278 0.04395,0.50216 0.05893,0.74881 -0.01499,-0.24667 -0.03403,-0.49602 -0.05893,-0.74881 z m -5.845475,0.0169 c -0.05513,0.0419 -0.109935,0.0846 -0.163433,0.13082 a 2.9920783,4.3623999 7.4776807 0 1 0.163433,-0.13082 z m -0.2699,0.22825 c -0.04961,0.0465 -0.0986,0.094 -0.146539,0.14419 a 2.9920783,4.3623999 7.4776807 0 1 0.146539,-0.14419 z m -3.760527,0.088 c -0.0053,0.0272 -0.01215,0.0541 -0.01728,0.0813 -0.003,0.0161 -0.0053,0.0322 -0.0082,0.0483 0.0081,-0.0433 0.01718,-0.0864 0.02554,-0.12964 z m 3.510664,0.16893 c -0.04603,0.052 -0.09094,0.10574 -0.135147,0.16108 a 2.9920783,4.3623999 7.4776807 0 1 0.135147,-0.16108 z m 3.917674,0.0464 c 0.04423,0.0615 0.08859,0.12245 0.129646,0.18818 a 2.9920783,4.3623999 7.4776807 0 0 -0.129646,-0.18818 z m -4.147896,0.23729 c -0.04429,0.0596 -0.08713,0.12132 -0.129251,0.18426 a 2.9920783,4.3623999 7.4776807 0 1 0.129251,-0.18426 z m -3.372765,0.0617 c -0.0078,0.0473 -0.01726,0.0945 -0.02475,0.14182 -0.0018,0.011 -0.003,0.022 -0.0047,0.033 0.0091,-0.0584 0.01979,-0.11652 0.02947,-0.17483 z m 7.730845,0.031 c 0.0326,0.0576 0.06604,0.11408 0.09625,0.17443 a 2.9920783,4.3623999 7.4776807 0 0 -0.09625,-0.17443 z m -4.571405,0.22039 c -0.04259,0.0683 -0.08299,0.13897 -0.122968,0.21058 a 2.9920783,4.3623999 7.4776807 0 1 0.122968,-0.21058 z m 4.737979,0.10804 c 0.02817,0.0625 0.05685,0.12405 0.0825,0.18897 a 2.9920783,4.3623999 7.4776807 0 0 -0.0825,-0.18897 z m -28.066054,0.20822 c 0.11629,0.35526 0.234126,0.699 0.353188,1.03482 0.03385,0.0955 0.06847,0.18577 0.102537,0.27972 0.08538,0.23545 0.171,0.46935 0.257721,0.69537 0.04185,0.10905 0.08436,0.21368 0.126504,0.32058 0.07999,0.2029 0.160158,0.40459 0.241221,0.59991 0.04916,0.11843 0.09857,0.23316 0.148112,0.34887 0.07386,0.17254 0.148061,0.34372 0.222755,0.51033 0.05214,0.11628 0.104609,0.23031 0.157147,0.34376 0.07669,0.16567 0.153488,0.32893 0.231007,0.48873 0.05116,0.10542 0.102497,0.20979 0.154003,0.31272 0.08101,0.16195 0.162509,0.32024 0.244362,0.47616 0.04635,0.0883 0.09286,0.17685 0.139468,0.26322 0.09225,0.17099 0.185296,0.3371 0.278544,0.5009 0.03958,0.0695 0.07889,0.14038 0.118645,0.20862 0.101098,0.1736 0.203068,0.34152 0.305259,0.50719 0.03256,0.0528 0.06477,0.10753 0.09743,0.1595 0.134325,0.21383 0.269363,0.42206 0.405438,0.62309 0.28582,0.42226 0.575479,0.81639 0.868238,1.18725 0.140415,0.17787 0.281678,0.3498 0.423511,0.51701 0.02205,0.026 0.04431,0.0509 0.06639,0.0766 0.126732,0.14776 0.253718,0.29222 0.381476,0.43215 0.01444,0.0158 0.02915,0.031 0.04361,0.0468 0.135873,0.1478 0.272046,0.29173 0.408974,0.43137 0.0098,0.01 0.01965,0.0199 0.02946,0.0299 0.145193,0.1474 0.291011,0.29075 0.437262,0.4298 0.151664,0.14419 0.30384,0.28433 0.456512,0.42036 l 0.344152,4.18326 0.170505,0.10411 c -1.455964,8.46269 0.05178,18.29752 7.438944,27.84487 1.30801,1.59292 2.615946,3.13155 3.92396,4.66098 -0.513439,2.57303 -0.404922,5.58311 0.297793,9.0167 -5.0016,-3.43133 -6.190419,-9.63351 -7.894671,-14.68578 l -0.150861,-0.44708 -1.890871,3.26158 c -0.244256,-3.2983 -0.260986,-6.72253 -0.04557,-10.18508 l -0.427048,-0.0263 c -0.0055,0.088 -0.009,0.17566 -0.01414,0.26362 -2.74539,-3.85026 -5.565356,-9.09102 -5.745686,-16.96755 l -0.427439,0.01 c 0.171332,7.48358 2.710656,12.63722 5.313138,16.4584 -7.032126,-4.87224 -12.24661,-12.29546 -12.550543,-26.88824 0.03055,0.0678 0.06294,0.13216 0.0939,0.19918 0.06323,0.13692 0.126849,0.2731 0.191719,0.40701 0.05773,0.11917 0.116636,0.23631 0.175612,0.35319 0.06778,0.13431 0.135711,0.26855 0.205076,0.39994 0.06134,0.11619 0.124089,0.22976 0.186612,0.34376 0.06764,0.12331 0.134536,0.24767 0.203506,0.36851 0.06729,0.11791 0.136183,0.23281 0.204684,0.34847 0.06892,0.11636 0.136949,0.23429 0.207041,0.34847 0.06943,0.11313 0.140845,0.22286 0.211363,0.33394 0.144816,0.22809 0.29175,0.45208 0.440797,0.6722 0.06206,0.0917 0.123092,0.185 0.185826,0.2754 0.07375,0.10624 0.148917,0.20973 0.223542,0.31429 0.07706,0.108 0.153858,0.21662 0.231791,0.32294 0.07369,0.10051 0.148337,0.19908 0.222756,0.29818 0.07638,0.10175 0.152734,0.20372 0.229828,0.30408 0.07796,0.10147 0.156701,0.20157 0.235327,0.30173 0.07801,0.0994 0.155937,0.1988 0.234542,0.297 0.07804,0.0975 0.156362,0.19432 0.234935,0.29073 0.06262,0.0768 0.125652,0.15321 0.188576,0.22943 0.256814,0.31101 0.515991,0.61698 0.776699,0.9197 0.194251,0.2256 0.389506,0.44838 0.584979,0.67102 0.13442,0.15308 0.268016,0.3078 0.402689,0.46005 0.307292,0.34742 0.61488,0.69335 0.921274,1.04031 l 0.36851,-0.18936 c -1.034229,-4.50602 -2.255444,-8.13069 -2.202023,-17.15807 z m 23.135962,0.0192 c -0.04243,0.0812 -0.08204,0.16532 -0.121002,0.25026 a 2.9920783,4.3623999 7.4776807 0 1 0.121002,-0.25026 z m 5.071133,0.12533 c 0.02362,0.0671 0.0474,0.1338 0.06836,0.20311 a 2.9920783,4.3623999 7.4776807 0 0 -0.06836,-0.20311 z m -5.242422,0.23336 c -0.03979,0.0919 -0.07602,0.18702 -0.111575,0.28287 a 2.9920783,4.3623999 7.4776807 0 1 0.111575,-0.28287 z m 5.352817,0.12415 c 0.02137,0.0797 0.04229,0.15974 0.06011,0.242 a 2.9920783,4.3623999 7.4776807 0 0 -0.06011,-0.242 z m -8.318573,0.19604 c -4.03e-4,0.004 -0.0012,0.008 -0.0016,0.0126 -0.001,0.01 -0.0018,0.0194 -0.0028,0.0291 -0.0054,0.0547 -0.0092,0.10921 -0.01414,0.16383 0.0062,-0.0685 0.01157,-0.13692 0.01846,-0.20547 z m 2.814894,0.0656 c -0.03483,0.0996 -0.06582,0.20197 -0.09586,0.30526 a 2.9920783,4.3623999 7.4776807 0 1 0.09586,-0.30526 z m 5.590896,0.12296 c 0.01601,0.0849 0.03142,0.16982 0.04361,0.25694 a 2.9920783,4.3623999 7.4776807 0 0 -0.04361,-0.25694 z m 1.815833,0.26165 c -0.0067,0.19784 -0.01641,0.39351 -0.02907,0.58656 0.01267,-0.19313 0.02237,-0.38865 0.02907,-0.58656 z m -7.532054,0.0169 c -0.03145,0.11526 -0.05848,0.23356 -0.08368,0.35279 a 2.9920783,4.3623999 7.4776807 0 1 0.08368,-0.35279 z m -2.737107,0.0801 c -6.03e-4,0.008 -0.0014,0.016 -0.002,0.024 -0.0016,0.0221 -0.0032,0.0443 -0.0047,0.0664 -0.0034,0.0493 -0.0052,0.0985 -0.0082,0.14772 0.0049,-0.0793 0.0091,-0.15866 0.01493,-0.23808 z m 8.516187,0.0644 c 0.0091,0.0825 0.01794,0.16493 0.02357,0.24907 a 2.9920783,4.3623999 7.4776807 0 0 -0.02357,-0.24907 z m -5.877296,0.27029 c -0.02808,0.1399 -0.05213,0.28201 -0.07111,0.42665 a 2.9920783,4.3623999 7.4776807 0 1 0.07111,-0.42665 z m 5.908726,0.15675 c 0.0031,0.0825 0.0058,0.16489 0.0055,0.24869 a 2.9920783,4.3623999 7.4776807 0 0 -0.0055,-0.24869 z m -8.581404,0.0786 c -8.04e-4,0.0183 -0.0023,0.0367 -0.0031,0.055 -1.99e-4,0.005 -6.03e-4,0.009 -8.04e-4,0.0138 -0.0021,0.0488 -0.0026,0.0974 -0.0043,0.14614 0.0026,-0.0716 0.0049,-0.14325 0.0082,-0.2149 z m 8.581796,0.35986 a 2.9920783,4.3623999 7.4776807 0 1 -0.01138,0.24122 c 0.0059,-0.0811 0.0086,-0.16108 0.01138,-0.24122 z m -8.599867,0.1764 c -6.03e-4,0.0313 -0.0022,0.0626 -0.0028,0.0939 -6.4e-5,0.004 6.5e-5,0.008 0,0.0118 -8.04e-4,0.0454 6.7e-5,0.0906 -4.02e-4,0.13593 8.05e-4,-0.0805 0.0014,-0.16094 0.0031,-0.24161 z m 43.345848,0.011 c 0.47405,0.22437 0.92251,0.4297 1.3715,0.63527 -0.0805,0.12014 -0.16236,0.23891 -0.24358,0.35829 -0.003,-0.001 -0.006,-0.003 -0.009,-0.004 l 0,0.0173 c -0.009,0.0135 -0.0183,0.027 -0.0275,0.0405 l -3.9546,0.0353 -0.004,-0.42783 3.20147,-0.0283 c -0.17359,-0.0807 -0.33833,-0.15511 -0.5178,-0.24005 l 0.18308,-0.38658 z m -40.761959,0.0134 c -0.0059,0.0811 -0.0086,0.16108 -0.01138,0.24122 a 2.9920783,4.3623999 7.4776807 0 1 0.01138,-0.24122 z m 7.624378,0.28443 c -0.02248,0.19189 -0.04788,0.38075 -0.07582,0.5673 0.02793,-0.18654 0.05336,-0.37542 0.07582,-0.5673 z m -7.640879,0.14654 c -4.02e-4,0.0838 0.0024,0.16622 0.0055,0.24869 a 2.9920783,4.3623999 7.4776807 0 1 -0.0055,-0.24869 z m 0.01336,0.42666 c 0.0056,0.0841 0.01448,0.16661 0.02357,0.24907 a 2.9920783,4.3623999 7.4776807 0 1 -0.02357,-0.24907 z m 7.523804,0.17482 c -0.03323,0.20735 -0.06857,0.41236 -0.108038,0.61288 0.03946,-0.20039 0.07481,-0.40566 0.108038,-0.61288 z m -7.480982,0.24044 c 0.01227,0.0877 0.02747,0.17348 0.04361,0.2589 a 2.9920783,4.3623999 7.4776807 0 1 -0.04361,-0.2589 z m -2.603138,0.1984 c 0.0021,0.0429 0.0048,0.0856 0.0071,0.12846 -0.0023,-0.0429 -0.005,-0.0855 -0.0071,-0.12846 z m 2.673461,0.19997 c 0.01808,0.0835 0.03957,0.16459 0.06129,0.24554 a 2.9920783,4.3623999 7.4776807 0 1 -0.06129,-0.24554 z m 7.293977,0.0149 c -0.03939,0.19757 -0.08196,0.39104 -0.126896,0.58184 0.04495,-0.1908 0.08749,-0.38426 0.126896,-0.58184 z m 78.390011,0.0581 c -2.34667,10.39141 -6.48239,14.70001 -5.83172,16.81905 1.60391,-3.62583 4.76232,-6.42512 5.64118,-14.32984 0.0866,-0.77893 0.1519,-1.60541 0.19054,-2.48921 z m -48.2009,0.28523 c 1.28261,-0.005 2.41846,0.0575 3.44781,0.16932 -0.45467,0.63697 -0.91694,1.2628 -1.38604,1.87752 -1.66638,1.0135 -4.06761,1.93579 -5.60033,2.06609 1.67848,-0.6416 3.06946,-1.32181 4.06382,-2.01502 l -1.80169,-0.80067 0.17365,-0.3909 1.92034,0.85331 -0.0829,0.18583 c 0.68256,-0.50704 1.15266,-1.01985 1.35893,-1.52865 -0.72201,0.0901 -2.29345,0.0766 -3.04236,-0.4023 0.3244,-0.009 0.64061,-0.0133 0.94877,-0.0145 z m -37.380548,0.0393 c 0.0205,0.0678 0.04373,0.13311 0.06679,0.1988 a 2.9920783,4.3623999 7.4776807 0 1 -0.06679,-0.1988 z m -2.721786,0.20979 c 0.0031,0.0362 0.0054,0.0727 0.0087,0.10883 -0.0032,-0.0362 -0.0056,-0.0726 -0.0087,-0.10883 z m 9.754113,0.12219 c -0.04495,0.18416 -0.09181,0.36571 -0.141433,0.54333 0.04962,-0.17766 0.0965,-0.35913 0.141433,-0.54333 z m -6.904646,0.0373 c 0.02413,0.061 0.05105,0.1188 0.07739,0.17757 a 2.9920783,4.3623999 7.4776807 0 1 -0.07739,-0.17757 z m 65.206167,0.30211 0.62034,0 c -0.21764,0.47624 -0.42922,0.94939 -0.62741,1.4159 l -1.00495,0 c 0.23748,-0.27924 0.47829,-0.60086 0.65373,-0.82935 0.11616,-0.15128 0.242,-0.36091 0.35829,-0.58655 z m -65.053341,0.0405 c 0.02896,0.0578 0.06117,0.11171 0.09233,0.16697 a 2.9920783,4.3623999 7.4776807 0 1 -0.09233,-0.16697 z m 6.597423,0.21254 c -0.05336,0.18883 -0.110054,0.37308 -0.168148,0.55434 0.0581,-0.18133 0.114785,-0.36544 0.168148,-0.55434 z m -6.422597,0.10018 c 0.03801,0.0609 0.07947,0.11715 0.120218,0.17443 a 2.9920783,4.3623999 7.4776807 0 1 -0.120218,-0.17443 z m -3.089903,0.0251 c 0.0054,0.0438 0.01084,0.0875 0.01649,0.13122 -0.0057,-0.0437 -0.0111,-0.0874 -0.01649,-0.13122 z m -4.440972,0.4518 0.219219,0.36733 -1.43318,0.85488 -0.21922,-0.36733 1.433181,-0.85488 z m 7.944564,0.0589 c 0.30481,0.31655 0.662234,0.54399 1.059564,0.6557 a 2.9920783,4.3623999 7.4776807 0 1 -0.816772,-0.43255 2.9920783,4.3623999 7.4776807 0 1 -4.03e-4,0 2.9920783,4.3623999 7.4776807 0 1 -0.242399,-0.22315 z m 1.059564,0.6557 c 0.09559,0.0269 0.193494,0.0474 0.293471,0.0605 a 2.9920783,4.3623999 7.4776807 0 1 -0.293471,-0.0605 z m 4.737981,-0.60463 c -0.05398,0.16363 -0.109617,0.32444 -0.166969,0.48166 0.05732,-0.15719 0.113023,-0.31806 0.166969,-0.48166 z m -2.767751,0.19997 a 2.9920783,4.3623999 7.4776807 0 1 -0.234541,0.1489 c 0.07901,-0.0455 0.15738,-0.0943 0.234541,-0.1489 z m -6.411597,0.0943 c 0.0049,0.0301 0.0103,0.0599 0.01533,0.09 -0.005,-0.0301 -0.01042,-0.0599 -0.01533,-0.09 z m 6.087481,0.10293 a 2.9920783,4.3623999 7.4776807 0 1 -0.182683,0.088 c 0.06131,-0.0266 0.122147,-0.056 0.182683,-0.088 z m -0.263221,0.12297 a 2.9920783,4.3623999 7.4776807 0 1 -0.253793,0.0845 c 0.08499,-0.023 0.169689,-0.0513 0.253793,-0.0845 z m -31.496967,0.004 c 0.01912,0.0496 0.03999,0.0961 0.05932,0.14537 0.0098,0.0251 0.01878,0.0516 0.02868,0.0766 0.0751,16.10079 5.95142,23.97788 13.751145,29.00225 l 0.07504,-0.0794 c -0.378634,7.19026 0.234218,14.18942 1.842548,20.22207 -6.31665,-3.39921 -8.670584,-8.77601 -12.152568,-13.68984 l -0.474584,-0.66905 0.08722,0.81559 c 0.322801,3.02054 0.720992,5.8158 1.31807,8.04946 -1.047093,-1.33017 -2.17993,-3.41509 -3.22937,-6.09102 -1.255337,-3.20093 -2.392007,-7.18057 -3.147654,-11.51455 -1.473808,-8.45295 -1.492098,-18.25157 1.842155,-26.26751 z m 34.668194,0.006 c -0.06548,0.17777 -0.133136,0.35117 -0.202327,0.52055 0.0692,-0.16946 0.136833,-0.34268 0.202327,-0.52055 z m -3.501629,0.0919 a 2.9920783,4.3623999 7.4776807 0 1 -0.199969,0.0377 c 0.06679,-0.009 0.133381,-0.0221 0.199969,-0.0377 z m -0.279328,0.0479 a 2.9920783,4.3623999 7.4776807 0 1 -0.266757,0.0118 c 0.0888,0.002 0.177711,-0.003 0.266757,-0.0118 z m -5.074275,0.3964 c 0.0056,0.028 0.01082,0.0562 0.01649,0.0841 -0.0057,-0.0279 -0.01092,-0.0561 -0.01649,-0.0841 z m 8.618332,0.0672 c -0.06441,0.15513 -0.130248,0.3071 -0.19722,0.45494 0.06703,-0.14799 0.132764,-0.29965 0.19722,-0.45494 z m -0.215683,0.4958 c -0.03351,0.0734 -0.0681,0.14254 -0.102147,0.21411 0.03404,-0.0716 0.06863,-0.14069 0.102147,-0.21411 z m -8.235288,0.2039 c 0.01241,0.0524 0.02494,0.10459 0.03772,0.15675 -0.01277,-0.0521 -0.0253,-0.10439 -0.03772,-0.15675 z m -3.591202,0.18936 0.275794,0.32647 -1.131458,0.95546 -0.275794,-0.32648 1.131458,-0.95545 z m 11.513372,0.2479 c -0.0372,0.0722 -0.07437,0.14407 -0.111967,0.21411 0.0377,-0.0702 0.07466,-0.14173 0.111967,-0.21411 z m -0.746054,0.22472 a 0.80895134,0.47114745 50.620379 0 1 0.01219,0.0126 c -0.0041,-0.004 -0.008,-0.008 -0.01219,-0.0126 z m -6.964754,0.16147 c 0.0066,0.0236 0.01376,0.0468 0.02043,0.0703 -0.0067,-0.0236 -0.01384,-0.0467 -0.02043,-0.0703 z m 7.186331,0.13161 a 0.80895134,0.47114745 50.620379 0 1 0.02003,0.0369 c -0.0064,-0.0124 -0.01311,-0.0246 -0.02003,-0.0369 z m 0.189755,0.0947 c -0.02804,0.0484 -0.05554,0.0997 -0.08368,0.14693 0.02818,-0.0473 0.0556,-0.0985 0.08368,-0.14693 z m -0.12886,0.0291 a 0.80895134,0.47114745 50.620379 0 1 0.01022,0.0263 c -0.0034,-0.009 -0.0065,-0.0175 -0.01022,-0.0263 z m 0.03536,0.0994 a 0.80895134,0.47114745 50.620379 0 1 0.0071,0.0232 c 1.54e-4,-2e-4 2.01e-4,-6.1e-4 4.02e-4,-8.1e-4 l 0,-4e-4 c -0.002,-0.007 -0.0053,-0.0147 -0.0075,-0.022 z m -0.818735,0.32411 c 0.0038,0.003 0.0076,0.007 0.01138,0.0102 a 0.80895134,0.47114745 50.620379 0 1 -0.01138,-0.0102 z m -6.256022,0.0157 c 0.0075,0.0237 0.01402,0.0483 0.02161,0.0719 0.0054,0.0167 0.0111,0.0329 0.01649,0.0495 -0.01301,-0.0402 -0.02531,-0.081 -0.03811,-0.1214 z m 6.572279,0.18661 c 0.0058,0.002 0.01153,0.005 0.01728,0.007 a 0.80895134,0.47114745 50.620379 0 1 -0.01728,-0.007 z m 0.15479,0.0409 c 0.0034,4.1e-4 0.0069,0.002 0.01022,0.002 1.57e-4,-2e-4 2.01e-4,-6e-4 4.02e-4,-8e-4 a 0.80895134,0.47114745 50.620379 0 1 -0.0106,-0.001 z m -0.283257,0.42076 c -0.0384,0.0525 -0.07622,0.10185 -0.114325,0.15204 0.03818,-0.0502 0.07585,-0.0995 0.114325,-0.15204 z m -0.329616,0.42587 c -0.02874,0.0352 -0.05759,0.0711 -0.08604,0.1049 0.02851,-0.0338 0.05723,-0.0696 0.08604,-0.1049 z m 47.868538,1.95926 c -0.0408,0.29053 -0.084,0.57336 -0.12847,0.85213 0.0445,-0.27891 0.0877,-0.56146 0.12847,-0.85213 z m -0.16147,1.05288 c -0.0401,0.24406 -0.0813,0.48428 -0.12414,0.71934 0.0429,-0.23517 0.084,-0.47516 0.12414,-0.71934 z m -0.14025,0.80892 c -0.0494,0.26729 -0.10039,0.52842 -0.15322,0.78416 0.0528,-0.25553 0.1039,-0.51713 0.15322,-0.78416 z m -0.18661,0.9417 c -0.0436,0.20651 -0.0885,0.40955 -0.13436,0.60855 0.0458,-0.19913 0.0907,-0.40191 0.13436,-0.60855 z m -12.8342,0.52369 c -0.0369,0.12266 -0.0719,0.2448 -0.10489,0.36655 0.033,-0.12173 0.068,-0.24392 0.10489,-0.36655 z m -1.52393,1.04149 c 0.3367,0.3245 0.70547,0.61693 1.09374,0.88985 4.1e-4,2e-4 8.1e-4,6e-4 0.001,8e-4 0.15873,0.11155 0.3211,0.21951 0.48558,0.3253 0.003,0.002 0.005,0.003 0.008,0.005 -1.60221,7.01601 5.11118,9.29387 8.6258,5.35085 a 1.2068887,0.65373139 53.850647 0 0 0.20272,0.41487 1.2068887,0.65373139 53.850647 0 0 0.0798,0.11865 1.2068887,0.65373139 53.850647 0 0 0.9142,0.65609 c -1.12801,1.0782 -2.2846,1.78142 -3.2329,2.30023 0.79234,0.10259 1.54044,0.12383 2.2912,0.11511 l 0.13121,-0.002 0.66434,1.27329 -0.37951,0.19761 -0.54451,-1.04346 c -1.60537,0.0115 -3.25583,-0.11073 -5.35636,-0.93974 -2.15806,-0.85171 -4.78896,-2.43985 -8.37632,-5.36735 l 0.27029,-0.33119 c 1.02559,0.83694 1.96869,1.55902 2.84515,2.18749 -0.0821,-2.19008 -4e-4,-4.24916 0.27658,-6.15191 z m 13.78454,0.73309 c -0.0603,0.20582 -0.12143,0.40827 -0.18425,0.60463 0.0628,-0.19651 0.12393,-0.39864 0.18425,-0.60463 z m -0.19015,0.62231 c -0.0689,0.21472 -0.1392,0.42341 -0.21097,0.62701 0.0717,-0.2036 0.14212,-0.4123 0.21097,-0.62701 z m -12.56901,0.11078 c -0.0165,0.17559 -0.028,0.34884 -0.0361,0.52055 0.008,-0.17156 0.0197,-0.34513 0.0361,-0.52055 z m 7.2433,0.30762 a 0.52801382,0.70401842 45.276789 0 0 -0.53234,0.24633 0.52801382,0.70401842 45.276789 0 0 -0.12846,0.8702 0.52801382,0.70401842 45.276789 0 0 0.87177,-0.12022 0.52801382,0.70401842 45.276789 0 0 0.12847,-0.87059 0.52801382,0.70401842 45.276789 0 0 -0.33944,-0.12572 z m -13.21488,0.25811 a 0.87117832,0.69338684 0 0 1 0.87099,0.69342 0.87117832,0.69338684 0 0 1 -0.87099,0.69341 0.87117832,0.69338684 0 0 1 -0.87138,-0.69341 0.87117832,0.69338684 0 0 1 0.87138,-0.69342 z m 5.93269,0.003 c -0.007,0.1638 -0.01,0.32528 -0.009,0.48519 -2.1e-4,-0.15993 0.002,-0.32138 0.009,-0.48519 z m 12.36511,0.0361 c -0.0637,0.17842 -0.1286,0.35296 -0.19447,0.52291 0.0659,-0.17004 0.13071,-0.34439 0.19447,-0.52291 z m -12.37454,0.51859 c 0.001,0.15349 0.007,0.3046 0.0145,0.45415 -0.008,-0.14953 -0.0132,-0.30069 -0.0145,-0.45415 z m 0.0189,0.53941 c 0.009,0.14016 0.0208,0.2781 0.0354,0.41447 -0.0145,-0.13644 -0.0267,-0.27424 -0.0354,-0.41447 z m 0.0483,0.53312 c 0.0153,0.12736 0.0335,0.25262 0.0538,0.37636 -0.0202,-0.12364 -0.0386,-0.24911 -0.0538,-0.37636 z m -27.706187,0.13475 0.395224,0.16383 c -0.777247,1.87651 -1.50242,3.87509 -2.909575,4.90337 -0.23498,1.85307 -0.324782,3.49391 -0.243187,4.45041 l -0.425866,0.0365 c -0.08851,-1.03749 0.0065,-2.71487 0.252219,-4.62169 l 0.01219,-0.0947 0.07897,-0.0542 c 1.292165,-0.88867 2.042387,-2.85777 2.840038,-4.78355 z m 27.782017,0.37008 c 0.0212,0.11769 0.0442,0.23359 0.0699,0.34769 -0.0256,-0.11407 -0.0488,-0.23003 -0.0699,-0.34769 z m 0.10371,0.49069 c 0.0262,0.10694 0.0543,0.21239 0.0845,0.31587 -0.0301,-0.10347 -0.0583,-0.20893 -0.0845,-0.31587 z m 10.90639,0.12808 c -0.0872,0.15332 -0.17592,0.30122 -0.26518,0.44433 0.0892,-0.14313 0.17795,-0.29097 0.26518,-0.44433 z m -10.77635,0.33668 c 0.0306,0.097 0.0621,0.19312 0.0962,0.2868 -0.0341,-0.0938 -0.0657,-0.18966 -0.0962,-0.2868 z m 0.16029,0.4522 c 0.0331,0.0837 0.0662,0.16712 0.10215,0.24789 -0.0359,-0.0808 -0.0691,-0.16417 -0.10215,-0.24789 z m 0.18386,0.41997 c 0.0364,0.0752 0.0727,0.15043 0.11158,0.22276 -0.0388,-0.0723 -0.0753,-0.14758 -0.11158,-0.22276 z m 0.21058,0.39562 c 0.0376,0.0643 0.0746,0.12924 0.11433,0.19093 -0.0397,-0.0617 -0.0767,-0.12663 -0.11433,-0.19093 z m 0.23533,0.36576 c 0.0399,0.0566 0.0788,0.1144 0.12061,0.16854 -0.0417,-0.0542 -0.0807,-0.11191 -0.12061,-0.16854 z m 0.2534,0.32804 c 0.0425,0.0502 0.0835,0.10236 0.12768,0.15008 -0.0442,-0.0478 -0.0852,-0.0999 -0.12768,-0.15008 z m 16.48707,0.088 c -0.81898,0.47902 -1.66979,0.96682 -2.61217,1.47953 l 0.61916,0.64941 c 0.64523,-0.26565 1.28162,-0.53222 1.9329,-0.79712 0.043,-0.47846 0.06,-0.91773 0.0601,-1.33182 z m -16.15785,0.26165 c 0.027,0.0255 0.0526,0.0535 0.0801,0.0782 -0.0276,-0.0247 -0.0531,-0.0526 -0.0801,-0.0782 z m 13.67886,0.56847 c -0.58003,0.37198 -1.73793,0.92515 -2.71786,1.34282 l 0.47223,1.01439 c 0.8126,-0.28925 1.57234,-0.58534 2.30692,-0.88435 L 133.299,509.7352 c -0.0112,0.006 -0.021,0.0116 -0.0322,0.0177 0.008,-0.009 0.0144,-0.0188 0.0224,-0.0279 l -0.22747,-0.23848 0.30958,-0.29504 0.17601,0.18465 c 0.10268,-0.16377 0.19028,-0.33272 0.27265,-0.50326 z m -12.88487,0.0236 c 0.0787,0.047 0.15842,0.0934 0.24122,0.1375 -0.0828,-0.0441 -0.16255,-0.0905 -0.24122,-0.1375 z m 0.3579,0.19682 c 0.079,0.0398 0.15931,0.078 0.24161,0.11472 -0.0822,-0.0366 -0.1627,-0.075 -0.24161,-0.11472 z m 0.38069,0.17444 c 0.0808,0.0335 0.1632,0.0648 0.24672,0.0951 -0.0835,-0.0302 -0.16597,-0.0616 -0.24672,-0.0951 z m 0.38933,0.14575 c 0.10054,0.0334 0.20329,0.0634 0.30722,0.0915 -0.10396,-0.0281 -0.20665,-0.0582 -0.30722,-0.0915 z m 3.42187,0.004 c -0.0447,0.0152 -0.0894,0.0309 -0.13397,0.0448 0.0446,-0.0138 0.0893,-0.0296 0.13397,-0.0448 z m -0.45258,0.1324 c -0.0471,0.0115 -0.0941,0.0221 -0.14104,0.0322 0.047,-0.0101 0.0939,-0.0208 0.14104,-0.0322 z m -0.46633,0.0923 c -0.034,0.005 -0.0678,0.009 -0.10176,0.013 0.034,-0.004 0.0677,-0.008 0.10176,-0.013 z m -1.34479,0.0247 c 0.036,0.004 0.0718,0.008 0.10804,0.0114 -0.0363,-0.003 -0.072,-0.007 -0.10804,-0.0114 z m 0.96999,0.0161 c -0.036,0.003 -0.0722,0.006 -0.10804,0.008 0.0358,-0.002 0.072,-0.006 0.10804,-0.008 z m -0.5453,0.0134 c 0.0368,10e-4 0.0738,0.001 0.11079,0.002 -0.037,-2e-4 -0.074,-6.1e-4 -0.11079,-0.002 z m -30.660551,4.06578 0.21372,0.37048 -1.010456,0.58341 -0.21372,-0.37048 1.010456,-0.58341 z m 31.774721,0.98689 0.21765,0.36811 c -1.7857,1.05829 -3.81671,1.77552 -5.99398,2.28688 l -0.0974,-0.41604 c 2.14818,-0.50453 4.13753,-1.20999 5.87376,-2.23895 z m 5.02124,1.58482 -0.30251,0.51741 c -0.41004,0.70173 -0.69145,1.58132 -1.35814,2.22363 0.54452,0.0227 1.11492,-0.0588 1.66301,-0.2035 -0.3857,0.2232 -0.77007,0.44001 -1.1515,0.64665 -0.36515,0.0241 -0.73005,0.0141 -1.08549,-0.0499 l -0.55119,-0.099 0.47694,-0.29347 c 0.71058,-0.43715 1.01707,-1.21198 1.40489,-1.98634 -1.26207,0.43483 -2.5365,0.75062 -3.82849,0.62112 l 0.0424,-0.42547 c 1.357,0.13601 2.73305,-0.22213 4.12825,-0.74213 l 0.5618,-0.20901 z m -46.186672,3.91454 c 1.200434,3.03645 5.230312,5.32902 9.781614,6.30394 1.773217,0.37985 3.504545,0.71949 4.990988,0.76413 1.345202,0.0404 2.4738,-0.16222 3.27612,-0.75902 a 0.87468584,0.54058557 0 0 1 -0.10332,-0.25379 0.87468584,0.54058557 0 0 1 0.87452,-0.54059 0.87468584,0.54058557 0 0 1 0.87491,0.54059 0.87468584,0.54058557 0 0 1 -0.87491,0.54059 0.87468584,0.54058557 0 0 1 -0.37597,-0.0534 c -0.92404,0.76853 -2.217814,0.99714 -3.684316,0.95309 -1.541115,-0.0463 -3.289907,-0.39236 -5.067597,-0.77316 -4.633765,-0.99259 -8.797515,-3.29687 -10.08962,-6.56521 l 0.397581,-0.15714 z m 50.954122,1.80797 c -1.3042,3.42589 -3.06803,5.65422 -4.84641,7.90135 0.60554,-1.37809 1.07671,-2.88788 1.48228,-4.60323 l -0.20822,-0.0495 0.75195,0.0758 c 0.0591,-0.121 0.11812,-0.24199 0.17247,-0.36025 -0.35568,0.0974 -0.69957,0.17996 -1.03913,0.25732 l -0.0935,-0.022 c -0.004,0.0156 -0.008,0.03 -0.0114,0.0456 -0.14066,0.0315 -0.28287,0.0649 -0.42155,0.0939 -1.96385,0.60037 -4.27002,0.87445 -5.31667,0.76609 0.30256,-0.16552 0.59909,-0.3345 0.89141,-0.50562 1.35785,-0.97912 2.60981,-2.15263 3.80964,-3.42148 1.62402,0.004 3.32888,-0.05 4.82913,-0.17797 z M 76.994808,533.3265 c 1.806953,2.11 3.614225,4.22651 5.421179,6.46071 -1.306473,2.50803 -2.765576,4.44149 -4.316043,6.0419 0.75141,-5.05007 0.01141,-8.93881 -1.105136,-12.50261 z"
       id="path4261-3" />
    <path
       inkscape:connector-curvature="0"
       style="display:inline;fill:#cc0000;fill-rule:evenodd;stroke:none;stroke-width:1px;stroke-linecap:butt;stroke-linejoin:miter;stroke-opacity:1"
       d="m 83.28659,476.8573 c -0.583201,0.0864 -1.208502,0.1927 -1.741581,0.26047 0.203305,0.2517 0.325245,0.57213 0.325295,0.92088 -4.02e-4,0.36064 -0.133729,0.70847 -0.374403,0.97706 0.202594,0.10553 0.32976,0.3149 0.330008,0.54334 -6.5e-5,0.33867 -0.274596,0.6132 -0.613267,0.61326 -0.338824,1.5e-4 -0.613594,-0.27444 -0.613658,-0.61326 1.53e-4,-0.023 0.0016,-0.0459 0.0043,-0.0688 -0.0661,0.01 -0.13278,0.0148 -0.199577,0.0153 -0.585357,-2e-4 -1.114549,-0.34841 -1.346357,-0.88592 -1.260116,2.61654 -1.792503,5.46584 -1.794619,8.22704 0.219253,0.10978 0.441776,0.20908 0.66434,0.29033 0.03353,-0.30538 0.07283,-0.61747 0.124539,-0.94367 l 1.986337,-1.23203 c -1.400823,4.34728 1.750661,8.0989 3.933782,5.35046 -0.534931,0.3815 -1.119709,0.54493 -1.685402,0.47105 -1.638434,-0.21509 -2.71244,-2.32599 -2.398848,-4.7148 0.297942,-2.26996 1.748765,-3.99575 3.322872,-3.95264 0.07082,0.002 0.141321,0.008 0.211364,0.0169 1.638434,0.21509 2.712441,2.32599 2.398849,4.7148 -0.07368,0.55582 -0.220139,1.09658 -0.431368,1.59268 l 0.708337,1.5251 c -0.230275,1.01207 -0.635132,1.87596 -1.145209,2.57132 0.0611,0.0515 0.118864,0.11003 0.17129,0.17365 0.112749,0.13739 0.196004,0.29258 0.2369,0.44158 1.35436,-2.27092 2.609615,-5.89775 2.141127,-10.54927 0.01303,-0.45838 0.07087,-0.53288 -0.01139,-0.83995 -0.700193,-1.64498 -2.048706,-3.76582 -4.203682,-4.90495 z m -6.013228,10.64906 c 0.07441,2.5083 0.577327,4.9219 1.36207,6.9954 1.411525,0.35706 3.147439,0.54416 5.376784,0.47969 0.31425,-0.33396 0.657426,-0.76423 1.003383,-1.28311 -0.202971,-0.0213 -0.438789,-0.16975 -0.620337,-0.39051 -0.01772,-0.0218 -0.03477,-0.0441 -0.05107,-0.0668 -2.654934,2.59649 -6.99937,1.46345 -6.474061,-5.50722 -0.196624,-0.0634 -0.396719,-0.14203 -0.596766,-0.22747 z m 47.947508,3.48945 c -0.28995,0.23211 -0.56616,0.46814 -0.83563,0.70598 a 1.1904856,1.6233894 44.865503 0 1 -0.53312,1.59229 1.1904856,1.6233894 44.865503 0 1 -0.20037,0.17679 0.65373139,0.75430545 0 0 1 0.11079,-0.011 0.65373139,0.75430545 0 0 1 0.65373,0.75431 0.65373139,0.75430545 0 0 1 -0.65373,0.7543 0.65373139,0.75430545 0 0 1 -0.65373,-0.7543 0.65373139,0.75430545 0 0 1 0.17443,-0.51112 1.1904856,1.6233894 44.865503 0 1 -1.00063,0.1375 1.1904856,1.6233894 44.865503 0 1 -4e-4,0 c -2.04736,2.41223 -3.21092,4.96093 -3.66545,7.28023 0.17513,0.14493 0.35187,0.27848 0.52919,0.40622 0.0407,-0.14417 0.0841,-0.28979 0.13161,-0.43765 l 2.38235,-1.60015 c -1.6673,8.133 4.6847,8.43243 6.75614,3.16494 l 0.35554,3.02233 c -0.15404,0.33488 -0.32587,0.64465 -0.51151,0.93266 a 1.2068887,0.65373139 53.850647 0 1 0.45769,0.31155 c 1.51653,-2.00772 2.82307,-5.28765 3.54327,-10.41845 -2.00171,-2.15894 -3.99246,-4.32814 -7.04018,-5.50643 z m 0.37951,7.12701 a 2.6846517,3.9203024 26.466818 0 1 0.98924,0.19525 2.6846517,3.9203024 26.466818 0 1 0.65609,4.70577 2.6846517,3.9203024 26.466818 0 1 -4.15026,2.31281 2.6846517,3.9203024 26.466818 0 1 -0.65608,-4.70577 2.6846517,3.9203024 26.466818 0 1 3.16101,-2.50806 z m -7.09205,3.63795 c -0.44054,3.08123 0.38144,5.67696 2.01816,6.86929 1.68373,1.22655 4.7046,1.86525 7.33484,-0.72642 a 1.2068887,0.65373139 53.850647 0 1 -0.23179,-0.46162 c -3.51442,3.94419 -10.22891,1.66645 -8.62659,-5.35006 -0.16739,-0.10779 -0.33302,-0.2176 -0.49462,-0.33119 z"
       id="path4197-8-5" />
  </g>
</svg>
