<?xml version="1.0" encoding="UTF-8" standalone="no"?>
<!-- Created with Inkscape (http://www.inkscape.org/) -->

<svg
   xmlns:dc="http://purl.org/dc/elements/1.1/"
   xmlns:cc="http://creativecommons.org/ns#"
   xmlns:rdf="http://www.w3.org/1999/02/22-rdf-syntax-ns#"
   xmlns:svg="http://www.w3.org/2000/svg"
   xmlns="http://www.w3.org/2000/svg"
   xmlns:sodipodi="http://sodipodi.sourceforge.net/DTD/sodipodi-0.dtd"
   xmlns:inkscape="http://www.inkscape.org/namespaces/inkscape"
   sodipodi:docname="hanekawa-export2.svg"
   inkscape:version="0.91 r13725"
   version="1.1"
   id="svg5703"
   viewBox="0 0 246.04703 159.45203"
   height="45.000908mm"
   width="69.439941mm">
  <sodipodi:namedview
     fit-margin-bottom="0"
     fit-margin-right="0"
     fit-margin-left="0"
     fit-margin-top="0"
     inkscape:window-maximized="1"
     inkscape:window-y="-8"
     inkscape:window-x="1358"
     inkscape:window-height="1377"
     inkscape:window-width="2560"
     showgrid="false"
     inkscape:current-layer="layer1"
     inkscape:document-units="mm"
     inkscape:cy="71.70689"
     inkscape:cx="121.87052"
     inkscape:zoom="2"
     inkscape:pageshadow="2"
     inkscape:pageopacity="0.0"
     borderopacity="1.0"
     bordercolor="#666666"
     pagecolor="#ffffff"
     id="base" />
  <defs
     id="defs5705" />
  <metadata
     id="metadata5708">
    <rdf:RDF>
      <cc:Work
         rdf:about="">
        <dc:format>image/svg+xml</dc:format>
        <dc:type
           rdf:resource="http://purl.org/dc/dcmitype/StillImage" />
        <dc:title></dc:title>
      </cc:Work>
    </rdf:RDF>
  </metadata>
  <g
     inkscape:label="Layer 1"
     inkscape:groupmode="layer"
     id="layer1"
     transform="translate(-45.549311,-390.49832)">
    <path
       style="color:#000000;clip-rule:nonzero;display:inline;overflow:visible;visibility:visible;opacity:1;isolation:auto;mix-blend-mode:normal;color-interpolation:sRGB;color-interpolation-filters:linearRGB;solid-color:#000000;solid-opacity:1;fill:#ffcc00;fill-opacity:1;fill-rule:evenodd;stroke:none;stroke-width:2.12598419;stroke-linecap:butt;stroke-linejoin:miter;stroke-miterlimit:4;stroke-dasharray:none;stroke-dashoffset:0;stroke-opacity:1;color-rendering:auto;image-rendering:auto;shape-rendering:auto;text-rendering:auto;enable-background:accumulate"
       d="m 259.39568,390.49832 -0.003,0.003 -0.70527,0.23397 0.54252,1.675 0.51538,1.68179 0.48487,1.69197 0.45775,1.70214 0.43401,1.70891 0.40349,1.7191 0.37976,1.72246 0.35602,1.73266 0.32551,1.73943 0.30516,1.74622 0.52896,3.50939 0.43063,3.52634 0.33906,3.54668 0.24074,3.56025 0.1526,3.5738 0.0644,3.5772 -0.0238,3.58398 -0.1085,3.58397 -0.18989,3.58059 -0.26785,3.5772 -0.25432,2.6312 -10.00598,0 0.1085,-1.15624 0.13559,-2.23109 -0.39334,1.66146 -0.40687,1.60041 -0.0339,0.12551 -0.27804,0 0,0.007 0.27464,0 -0.38314,1.40715 -0.43063,1.48175 -0.89514,2.79732 -0.91548,2.57695 -0.91889,2.37009 -0.9121,2.17006 -0.88158,1.98357 -0.8409,1.80385 -1.47835,3.11608 -0.60355,1.32914 -0.49503,1.19353 -0.36621,1.0613 -0.13228,0.48488 -0.0915,0.45774 -0.0509,0.43061 -0.0104,0.40689 0.0373,0.37976 0.0814,0.35603 0.55269,-1.16641 0.60355,-1.14946 0.65102,-1.14266 0.68153,-1.15624 1.43088,-2.40739 0.72562,-1.2783 0.72221,-1.3529 0.70865,-1.44105 0.68154,-1.54277 0.64763,-1.65806 0.60355,-1.79368 0.55269,-1.93611 0.25091,-1.03077 0.23395,-1.07145 0.217,-1.11555 0.19666,-1.16301 0.17633,-1.21049 0.1559,-1.26134 0.0882,-0.92906 10.00598,0 -0.0915,0.92906 -0.26108,2.28194 -0.29161,2.27856 -0.32212,2.27178 -0.35262,2.2616 -0.37638,2.25483 -0.40687,2.24803 -0.43401,2.23448 -0.46115,2.22431 -0.48826,2.21413 -0.512,2.20057 -0.53572,2.187 -0.56286,2.17005 -0.58321,2.1565 -0.61032,2.13953 -0.63067,2.12598 -0.65442,2.10224 -0.8375,2.58372 -0.86802,2.54982 -0.90193,2.51929 -0.92906,2.48539 -0.95956,2.4481 -0.98332,2.41419 -1.01043,2.3701 -1.03416,2.33281 -1.05791,2.29211 -1.07824,2.24466 -1.10198,2.20057 -1.11894,2.15649 -1.13927,2.10223 -1.15623,2.05478 -1.16979,2.0039 -1.18676,1.94966 -1.2003,1.89203 -1.21388,1.83776 -1.22405,1.78012 -1.23422,1.71908 -1.24438,1.65468 -1.25118,1.59363 -1.25796,1.52921 -1.26134,1.46139 -1.26813,1.39359 -1.26812,1.32238 -1.27152,1.25455 -1.27151,1.17658 -1.27151,1.10538 -1.26813,1.02737 -1.26813,0.94941 -1.26134,0.8714 0.58998,-1.08841 0.55269,-1.16301 0.50861,-1.25118 0.46453,-1.35628 0.41028,-1.46479 0.35262,-1.59023 0.28482,-1.72587 0.21362,-1.87507 1.10876,-0.92906 1.07825,-0.95618 1.05112,-0.98329 1.02061,-1.01384 0.99346,-1.04433 0.96297,-1.07485 0.93583,-1.10538 0.90193,-1.13589 0.87142,-1.1698 0.84089,-1.2003 0.81038,-1.23084 0.77308,-1.26812 0.74596,-1.29863 0.70866,-1.33594 0.67474,-1.36646 0.64085,-1.40376 -0.67814,-0.29838 -0.88158,1.89542 -0.94262,1.83097 -1.00704,1.76656 -1.06807,1.70552 -1.12912,1.64112 -1.19013,1.58006 -1.24439,1.52582 -1.30542,1.46479 1.75978,-2.65493 1.75298,-2.77361 1.74622,-2.92617 0.86802,-1.53259 0.86464,-1.58347 0.86123,-1.63771 0.86125,-1.69537 0.85447,-1.75977 0.85106,-1.82759 0.84429,-1.89879 0.84429,-1.97678 0.8375,-2.05817 0.83071,-2.13954 -0.61371,-0.38993 -0.90192,0.9121 -0.90533,0.87141 -0.90193,0.83073 -0.90531,0.79342 -0.90193,0.75952 -0.90533,0.729 -1.80385,1.35967 -1.81064,1.25119 -1.80726,1.15622 -1.80724,1.07825 -1.81064,1.01043 1.15284,-1.12572 1.10537,-1.11893 1.05791,-1.11216 1.01043,-1.10537 0.96974,-1.10197 0.92566,-1.0952 1.74283,-2.17344 1.60381,-2.15311 1.48513,-2.13954 1.39019,-2.12259 1.30542,-2.1124 1.24778,-2.10224 1.20032,-2.09546 2.35315,-4.18074 1.18674,-2.08868 1.21726,-2.09208 1.26475,-2.09545 1.33932,-2.10225 -0.62388,-0.40687 -1.41054,2.22769 -1.33255,2.21413 -1.27492,2.20736 -1.2376,2.19717 -2.45487,4.38759 -1.26134,2.19717 -1.31559,2.20058 -1.39019,2.21413 -1.48854,2.2243 -1.60379,2.23787 -0.85446,1.1291 -0.89516,1.12911 -0.93244,1.13928 -0.97653,1.14268 -1.02399,1.14945 -1.07485,1.15622 -1.12572,1.16301 -1.17997,1.1698 -1.23761,1.17997 -1.29863,1.18674 0.41705,0.60694 1.97001,-1.03416 1.96999,-1.10199 1.97001,-1.18336 1.9734,-1.28168 1.97678,-1.39698 0.9867,-0.74594 0.98669,-0.77987 0.99009,-0.81717 0.98669,-0.85444 0.9867,-0.89516 0.9867,-0.93583 -0.91889,2.27855 -0.92566,2.18362 -0.92906,2.09207 -0.93583,2.00391 -0.93923,1.92253 -0.94601,1.84793 -0.946,1.77674 -0.9528,1.71231 -0.95617,1.65466 -0.95957,1.60042 -1.92931,3.0686 -1.93611,2.9194 -1.94626,2.82445 0.0339,0.0203 -0.95279,0.85785 -0.97312,0.83072 -0.99687,0.81377 -1.01722,0.78665 -1.04095,0.76631 -1.05791,0.74594 -1.08162,0.72561 -1.10199,0.70527 -1.12232,0.68154 -1.14268,0.66457 -1.16301,0.64425 -1.17997,0.62388 -2.41418,1.19014 -2.49217,1.11894 -2.5566,1.05112 -2.6278,0.97991 -2.69222,0.91548 -2.75326,0.85447 -2.8109,0.79682 -2.86853,0.73577 -2.92279,0.68494 -2.97365,0.63744 0.87818,-0.5052 0.85108,-0.52217 0.82055,-0.53913 0.79002,-0.55607 0.76293,-0.57642 0.73238,-0.59338 0.70527,-0.61373 0.67136,-0.63067 0.64423,-0.64761 0.61373,-0.66798 0.5798,-0.6883 0.55269,-0.70867 0.51878,-0.729 0.49165,-0.74596 0.45435,-0.7697 0.42724,-0.79002 0.43401,-0.84769 -0.89515,0.3323 -1.25117,0.43401 -1.30542,0.38655 -1.35628,0.33906 -1.40715,0.29499 -1.458,0.24414 -1.50209,0.19326 -1.54616,0.14582 -1.58346,0.095 -1.62416,0.0406 -1.65806,-0.0139 -1.69196,-0.0644 -1.72587,-0.12204 -1.7496,-0.17972 -1.77674,-0.23394 -1.80047,-0.29499 -1.8242,-0.35265 2.8855,-1.68517 2.64814,-1.62416 2.42097,-1.58008 2.20396,-1.54615 1.024,-0.76969 0.97312,-0.76291 0.92568,-0.76292 0.88158,-0.7629 0.83411,-0.76631 0.79004,-0.76967 0.74935,-0.77648 0.70527,-0.78325 0.77307,-0.91889 0.71883,-0.93583 0.67475,-0.94941 0.63068,-0.97312 1.50208,-1.95305 1.51904,-1.91915 1.51904,-1.94287 1.4919,-2.01747 0.72902,-1.05451 0.71544,-1.0952 0.69848,-1.14268 0.68153,-1.19353 0.65441,-1.25455 0.5086,-1.06809 -0.8409,0 -0.13559,0.28822 -0.48147,0.96635 -0.49844,0.92566 -0.51201,0.89516 -1.0545,1.69873 -1.0918,1.6072 -1.12572,1.53261 -1.14267,1.48852 -1.15285,1.46478 0.38316,-0.90871 0.3628,-0.93245 0.66798,-1.93608 0.60694,-2.048 0.54928,-2.16667 -0.35941,-0.0847 1.30542,0.12881 0.29839,-0.62388 -1.80386,0.44757 -0.16266,-0.0406 -0.0203,0.0814 -0.72899,0.16267 -1.30204,0.3628 -1.32578,0.31195 -1.3122,0.2543 -1.2749,0.19667 -1.19692,0.13906 -1.09181,0.0814 -0.94939,0.0238 -0.77987,-0.0406 1.54954,-0.8782 0.87481,-0.65101 0.86124,-0.68492 0.84429,-0.70866 0.82734,-0.73578 1.62414,-1.53939 1.58008,-1.62075 2.13615,-0.0139 2.13614,-0.0542 2.09885,-0.0983 2.01408,-0.14236 -0.43401,1.09182 -0.45097,1.04433 -0.32889,0.70867 0.84089,0 0.11874,-0.25091 0.60017,-1.39698 0.56963,-1.47834 0.20345,-0.5493 -0.5866,0.0542 -1.53261,0.12552 -1.60041,0.095 -1.6445,0.0679 -1.66821,0.0406 -3.30257,0.003 -3.10588,-0.095 2.25482,-0.42045 2.23787,-0.46791 2.22092,-0.5154 2.20057,-0.57302 2.18361,-0.63407 2.1565,-0.70527 2.12936,-0.77986 2.09884,-0.85785 2.07173,-0.94601 2.03782,-1.04094 1.00366,-0.55946 0.99685,-0.57982 0.9867,-0.61033 0.97652,-0.63745 0.96635,-0.66119 0.9562,-0.6951 0.946,-0.72221 0.93583,-0.75275 0.92228,-0.78325 0.9121,-0.81377 0.89854,-0.84767 0.88837,-0.88158 -2.1226,3.43478 -2.15649,3.3195 -2.18361,3.20083 -2.21414,3.09233 -2.24126,2.98721 -2.26839,2.88549 -2.29211,2.78378 -2.31585,2.69222 -2.33959,2.60068 -2.36333,2.51251 -2.38706,2.43114 -2.404,2.34977 -2.42437,2.27517 -2.4447,2.20734 -2.46165,2.13615 -2.47861,2.07511 0.33228,0.64425 1.41054,-0.41028 1.34272,-0.43742 2.57016,-0.91887 2.5566,-0.9155 1.32237,-0.4374 1.38341,-0.40687 1.458,-0.36961 1.55635,-0.3255 1.675,-0.27126 1.81403,-0.20683 1.97339,-0.13229 2.15311,-0.0542 2.35314,0.0406 2.57695,0.13558 -0.67475,1.0647 -0.69171,1.03416 -1.42071,1.99034 -1.46478,1.9022 -1.50208,1.83438 -1.53261,1.7835 -1.54616,1.75301 -3.11946,3.48564 0.55609,0.49165 3.21777,-3.59076 1.6072,-1.81403 1.59025,-1.85133 1.56311,-1.91236 1.52243,-1.99713 0.74257,-1.03416 0.729,-1.06468 0.71544,-1.0952 0.69848,-1.1291 0.30857,-0.512 -0.59677,-0.0474 -2.48539,-0.15937 -2.28873,-0.0679 -2.11242,0.0139 -1.94966,0.0882 -1.80385,0.15937 -1.66823,0.217 -1.55633,0.27126 -1.45462,0.31534 -1.36984,0.35264 -1.30543,0.38653 -1.24778,0.40689 -1.21388,0.42045 -2.37689,0.86462 -2.42096,0.83752 2.53287,-2.16328 2.5125,-2.23108 2.49557,-2.3023 2.47521,-2.37689 2.45489,-2.46166 2.43452,-2.54302 2.40741,-2.63118 2.38706,-2.72953 2.35992,-2.82446 2.33281,-2.92957 2.30569,-3.03469 2.27516,-3.14658 2.24805,-3.26187 2.21413,-3.38053 2.18361,-3.50599 2.14971,-3.63484 -0.60692,-0.42724 -0.9867,1.13928 -1.00365,1.08843 -1.02399,1.04095 -1.03757,0.99685 -1.0545,0.94941 -1.07147,0.90871 -1.08503,0.86462 -1.10199,0.82395 -1.11554,0.78326 -1.12911,0.74595 -1.14266,0.70867 -1.15624,0.67475 -1.16978,0.63745 -1.17997,0.60354 -1.19353,0.57303 -1.20709,0.54252 -1.21388,0.51199 -1.22743,0.48149 -1.23761,0.45434 -1.2444,0.43063 -2.52269,0.78665 -2.5532,0.69509 -2.58372,0.61712 -2.61424,0.54589 -2.63458,0.48827 -2.65492,0.43739 -0.52557,-0.0474 2.43453,-1.10876 2.50573,-1.24778 1.2783,-0.67477 1.28509,-0.71203 0.42384,-0.24414 -1.47836,0 -0.69848,0.39333 -0.47471,0.0174 -0.47468,-0.003 -0.47132,-0.0338 -0.46453,-0.0679 -0.95618,-0.17291 0.82733,-0.50859 0.43062,-0.31195 0.37638,-0.35603 0.32889,-0.40011 0.29161,-0.43739 0.26787,-0.46115 0.25091,-0.48147 0.49164,-1.00026 -0.82054,0.27126 -0.82734,0.24752 -0.82733,0.21361 -0.82733,0.17291 -0.83412,0.12881 -0.83411,0.0779 -0.83412,0.0174 -0.84089,-0.0509 0.0746,-0.73917 0.88497,0.0509 0.88837,-0.0238 0.88836,-0.0915 0.89514,-0.1526 0.89854,-0.20344 0.89855,-0.25091 0.73578,-0.23735 -12.69822,0 -1.21047,0.37975 -1.38002,0.38655 -1.40376,0.34924 -0.16961,-0.72221 1.3834,-0.34585 1.35969,-0.37976 1.32576,-0.41707 1.29863,-0.45774 1.26136,-0.50182 1.22743,-0.54592 1.19013,-0.59336 1.14945,-0.64425 0.37976,0.63746 -1.18336,0.66458 -1.22064,0.60693 -1.25457,0.55948 -1.29186,0.51199 -1.32238,0.46792 -0.11875,0.0373 12.70161,0 0.14583,-0.0476 0.90532,-0.3255 0.97653,-0.3628 -0.52557,0.89854 -0.50521,0.95956 -0.50522,1.01043 -0.28143,0.50182 -0.30855,0.48826 -0.35264,0.46454 -0.40349,0.43741 0.71544,-0.003 0.72561,-0.0644 0.72562,-0.11875 0.71882,-0.16614 -1.28507,0.72223 1.47496,0 0.86124,-0.49505 1.30203,-0.78325 1.30542,-0.81715 1.30203,-0.85447 1.30543,-0.88836 1.29525,-0.92228 1.29186,-0.96296 1.28168,-0.99687 1.26813,-1.03416 1.25117,-1.06807 1.23761,-1.10537 1.21387,-1.14607 1.19015,-1.17997 1.16641,-1.21726 1.13587,-1.25117 1.10876,-1.29186 1.07147,-1.32917 1.03757,-1.36645 0.99687,-1.40375 0.95617,-1.44105 0.90872,-1.48173 0.86802,-1.51566 0.81377,-1.55634 0.7629,-1.59362 0.70866,-1.63094 0.65101,-1.67162 0.47471,-1.28507 -1.0579,0.8714 -0.75953,0.58998 -0.78325,0.54592 -0.8036,0.5086 -0.82733,0.46792 -0.84429,0.43061 -0.86123,0.39672 -0.87481,0.3662 -0.89175,0.33568 -0.90193,0.30855 -0.9121,0.28481 -1.84455,0.50523 -1.86489,0.43739 -1.86828,0.38317 1.02061,-1.30204 0.96294,-1.36986 0.91212,-1.42748 0.86462,-1.48174 0.81377,-1.53939 0.77308,-1.59023 0.72561,-1.64112 0.68833,-1.68517 0.0339,-0.0847 0.729,-0.45436 0.75273,-0.51538 0.77648,-0.56965 0.79004,-0.62049 0.79681,-0.66796 0.80021,-0.71206 0.79681,-0.74935 0.78665,-0.78325 0.76631,-0.81377 0.74596,-0.8375 0.71882,-0.85785 0.67814,-0.87481 0.64084,-0.88498 0.58999,-0.89514 0.53573,-0.89854 0.0406,-0.0779 1.99713,0 0,-0.007 -1.99374,0 0.43062,-0.81037 -0.66457,-0.33229 -0.27466,0.52555 -0.35601,0.61711 -2.47523,0 0.43062,-0.61711 0.82733,-1.23082 0.79004,-1.22744 0.003,0 1.14605,-1.88185 1.05791,-1.86828 0.97991,-1.85131 0.89516,-1.84117 0.48824,-1.09181 4.95384,0 -0.33907,0.93585 -1.03418,2.70239 -1.03755,2.53964 -1.03077,2.35654 -0.99349,2.09546 -0.97312,1.87166 -0.48149,0.84429 -0.4713,0.78325 -0.46792,0.71206 -0.45774,0.64423 0.59675,0.44418 0.48149,-0.67813 0.49165,-0.74935 0.49166,-0.81377 0.49842,-0.87819 1.00704,-1.93271 1.01722,-2.15311 1.02399,-2.35315 1.024,-2.52947 1.02738,-2.68205 0.42045,-1.15962 3.41445,0 0,-0.007 -3.41107,0 0.59679,-1.65129 0.8714,-2.51251 0.85447,-2.57695 0.8375,-2.62779 0.82054,-2.66509 1.58346,-5.39463 1.49531,-5.38106 -0.27464,4.02139 -0.34924,3.94679 -0.43742,3.86202 -0.25429,1.89201 -0.27805,1.87168 -0.17631,1.13249 0.80698,-0.81377 0.51878,-0.55608 0.54252,-0.65441 0.57303,-0.75274 0.60015,-0.84767 0.62729,-0.94601 0.66118,-1.04433 1.40715,-2.3769 1.5326,-2.76342 1.66145,-3.14658 1.79708,-3.52974 1.93609,-3.90948 -0.66796,-0.32551 -1.75639,3.54668 -1.64112,3.2178 -1.52581,2.89905 -1.41392,2.57354 -1.30543,2.24804 -1.19692,1.9327 -1.09181,1.6072 -0.50521,0.68494 -0.48149,0.60692 0.30518,-2.14631 0.27803,-2.16667 0.25431,-2.19719 0.22718,-2.2209 0.19666,-2.25144 0.16614,-2.27855 0.13905,-2.31247 0.10503,-2.34298 -0.73238,-0.1085 -0.81039,3.06521 -0.85446,3.10927 -0.88835,3.13641 -0.92568,3.1364 -0.95277,3.11608 -0.97653,3.07198 -0.99348,3.00755 -1.00704,2.91602 -0.69171,1.8988 -4.95382,0 0.32889,-0.73241 0.74935,-1.81741 0.67815,-1.80387 0.61371,-1.79706 -0.77647,0.86462 -0.78325,0.93584 -0.78665,1.01382 -0.79342,1.08164 -0.81039,1.15622 -0.73579,1.09861 -0.82732,0 0,0.007 0.82055,0 -0.0814,0.12204 -1.70552,2.67188 -0.61711,1.4173 -0.64761,1.43767 -1.32917,2.8855 -1.08843,2.45825 -0.2543,0.61711 -2.07511,0 0.19326,-0.17969 0.38993,-0.43742 0.003,0 0.60694,-0.75273 0.52556,-0.6883 0.31194,-0.45776 0.31195,-0.55946 0.35603,-0.77308 0.13906,-0.37976 0.10503,-0.35943 0.0644,-0.32551 0.0104,-0.27464 -0.0441,-0.217 -0.0474,-0.0779 -0.0644,-0.0611 -0.10521,-0.0441 -0.12204,-0.003 -0.24076,0.0915 -0.27125,0.18989 -0.29838,0.27804 -0.31873,0.34584 -0.66458,0.82056 -0.66457,0.88158 -0.31195,0.48488 -0.31534,0.60355 -0.27125,0.65101 -0.1797,0.62727 -0.0441,0.32212 0.0104,0.27805 0.007,0.0174 -2.53964,0 0,0.007 2.53964,0 0.0679,0.19666 0.0611,0.0814 0.0814,0.0679 0.1085,0.0271 0.12882,-0.0271 0.14912,-0.0747 0.16267,-0.11874 0.16267,-0.1526 2.07851,0 -0.18989,0.46113 -0.41366,1.06808 -0.3628,1.04095 -0.31195,1.01381 0.38315,-0.6137 0.49843,-0.71545 0.67136,-0.85107 0.88499,-1.02738 0.26446,-0.37637 2.47522,0 -0.1831,0.31872 -0.61709,0.946 -0.67477,0.94262 -0.729,0.92906 -0.76969,0.91549 -0.80698,0.89516 -0.83073,0.86463 -0.84768,0.82733 -0.85446,0.79004 -0.85447,0.73917 -0.84427,0.68831 -0.82734,0.62728 -0.79681,0.56286 -0.76291,0.48826 -0.71544,0.41028 -0.66459,0.32551 0.0406,0.095 -1.08164,0.48149 -1.1291,0.47471 -2.39045,0.92904 -2.53285,0.89854 -2.64476,0.88158 1.11893,-1.9327 1.07147,-1.93949 1.03078,-1.95305 0.98329,-1.96322 0.94602,-1.96999 0.90193,-1.98018 0.86123,-1.99373 0.82395,-2.00053 0.77986,-2.0073 0.74596,-2.02086 0.70527,-2.02764 0.66796,-2.03442 0.63067,-2.04461 0.59677,-2.05138 0.56286,-2.06155 0.52557,-2.07172 0.49164,-2.07511 0.46113,-2.08528 0.42724,-2.09208 0.3967,-2.09885 0.36621,-2.10563 0.25431,-1.6072 -0.77987,0 -0.44758,2.74309 -0.58319,3.14319 -0.65442,3.12962 -0.72562,3.10929 -0.80359,3.09232 -0.88158,3.07199 -0.96297,3.05501 -1.04772,3.03469 -1.1291,3.01435 -1.22067,2.99061 1.35629,-7.22222 -1.48173,-1.57329 -1.49531,-1.49192 -0.36282,-0.33566 -0.85106,-0.79004 1.15284,0 0.0271,0.0271 0.6951,0.74596 0.0139,0.0174 1.25795,1.44444 1.13589,1.43766 0.62729,-3.6484 0.003,-0.0238 0.41705,0 0,-0.007 -0.41705,0 0.26787,-1.75978 0.22716,-1.753 0.1831,-1.7157 0.12552,-1.66483 0.0644,-1.61398 -0.0104,-1.54956 -1.79368,1.92932 -1.73604,1.95305 -1.7191,1.95643 -1.75978,1.94288 0.86464,0.78327 0.8036,0.76629 0.71544,0.72561 -1.15286,0 -0.30176,-0.28143 -1.54617,-1.34273 -1.47496,1.49531 -0.13906,0.12881 -3.50599,0 0,0.007 3.49922,0 -1.42411,1.32915 -0.82392,0.71882 -0.85787,0.70527 -0.89514,0.69511 -0.93244,0.68152 -0.97314,0.66798 -1.0172,0.65102 -1.0647,0.63405 -1.11553,0.61711 -1.1698,0.60017 -1.22743,0.57642 -1.28509,0.55946 -1.3495,0.53574 1.17657,0.64423 1.0986,0.68153 1.04095,0.70866 0.99347,0.72899 0.38993,-0.48486 2.87871,2.2616 2.91263,2.24127 2.88549,2.27515 1.41392,1.16641 1.37664,1.19353 -0.36282,0.67137 -1.28846,-1.12234 -1.31899,-1.09858 -2.71257,-2.14971 1.04095,1.71908 0.99008,1.73604 0.94603,1.74622 0.90192,1.75978 -1.16303,1.97339 -0.50859,0.84429 0.93922,-0.29837 1.68179,-0.54592 0.70188,1.55294 0.66796,1.55973 0.92228,-0.49164 0.9121,-0.52896 0.90194,-0.56624 0.89514,-0.59338 1.77335,-1.26813 1.75299,-1.33594 -0.63746,1.37663 -0.67136,1.33934 -0.69848,1.29863 -0.73579,1.25457 -0.76969,1.21388 -0.81037,1.16301 -0.84767,1.11554 -0.89178,1.06468 -0.71203,0.81039 1.06129,-0.20006 1.84114,-0.3628 1.85134,-0.40689 1.85132,-0.46454 1.83439,-0.54928 0.90531,-0.30856 0.89854,-0.33568 0.88496,-0.3628 0.87481,-0.39672 0.85785,-0.43061 0.84091,-0.46453 0.82733,-0.50523 0.80359,-0.54251 -0.81377,1.90559 -0.89175,1.85472 -0.96297,1.80385 -1.03077,1.753 -1.09182,1.70214 -1.15283,1.64787 -1.20709,1.60042 -1.25796,1.54956 -1.30541,1.49531 -1.34273,1.44782 -1.38342,1.39698 -1.4173,1.34611 -1.44444,1.29524 -1.46819,1.24779 -1.48852,1.19691 -1.50548,1.14607 0.11527,-0.56625 0.0814,-0.58997 0.0406,-0.61373 -0.007,-0.64763 -1.53261,0.39333 -1.51564,0.29159 -1.53261,0.20006 -1.57329,0.11198 -1.63431,0.0338 -1.72587,-0.0373 -1.83778,-0.0983 -1.98356,-0.15259 0.60355,-0.55269 0.56965,-0.59 0.53911,-0.62049 0.50861,-0.64762 0.48826,-0.66797 0.46791,-0.68831 0.89854,-1.41732 2.03104,-0.60356 1.88524,-0.62049 -0.79681,-1.70553 0.38653,-0.17971 -1.27152,0.50861 -0.91888,0.31195 0.95617,-0.65781 0.87143,-0.62388 0.67136,-0.52217 1.8954,0 -0.59677,0.28143 -1.31559,0.57981 0.82056,1.75977 2.05476,-0.75952 1.94966,-0.77646 -1.01042,-1.05791 -0.0542,0.0306 0.0373,-0.0509 -0.007,-0.007 1.02401,0 0.74934,0.78325 1.8988,-0.78325 1.53938,0 0,-0.007 -1.52244,0 1.43767,-0.59338 0.0814,-1.19691 0.0238,-1.11555 -2.18702,1.26474 -2.34636,1.30542 0.13228,0.13906 0.18649,0.19666 -1.02399,0 -0.18649,-0.19666 -0.19327,-0.20345 0.53573,-0.51199 0.30516,0.32212 0.25091,-0.43401 0.22379,-0.4408 -0.92227,0.53573 -1.17657,0.60016 -0.27804,0.13229 -0.41705,0.19666 -1.8988,0 0.8341,-0.64763 1.26474,-1.08842 1.08164,-1.02739 0.95279,-0.98329 0.89176,-0.96297 0.89514,-0.96296 0.95279,-0.9867 -0.0576,-1.21726 -0.0882,-1.13928 -0.11527,-1.06468 -0.13906,-0.99687 -0.16267,-0.93245 -0.18648,-0.88158 -0.20005,-0.83073 -0.217,-0.79002 -0.47132,-1.47496 -0.50861,-1.38342 -1.03755,-2.68883 -0.16961,1.58007 -0.21362,1.50548 -0.26108,1.42748 -0.29837,1.35969 -0.33909,1.28507 -0.37635,1.22066 -0.4069,1.15284 -0.43739,1.08841 -0.46792,1.02739 -0.49165,0.96974 -0.51539,0.90871 -0.53573,0.85785 -0.55269,0.8036 -0.56624,0.75273 -0.57982,0.70527 -0.58998,0.6578 -0.0474,-0.38314 -0.12205,-0.40349 -0.19327,-0.41369 -0.25768,-0.40349 -0.27805,-0.33906 -0.30516,-0.29161 -0.31874,-0.23395 -0.3255,-0.16961 0.46453,-0.77986 0.42383,-0.8375 -0.61711,-5.24883 -0.35941,0.83073 -0.3967,0.7697 -0.43401,0.71544 -0.46454,0.6544 -0.49505,0.59338 -0.51537,0.53572 -0.53913,0.47471 -0.55269,0.41026 -0.56624,0.35264 -0.57304,0.28482 -0.5798,0.22379 -0.57982,0.15937 -0.57304,0.0915 -0.56963,0.0271 -0.55947,-0.0406 -0.53911,-0.10503 -0.52557,-0.17632 -0.49844,-0.24414 -0.47468,-0.31193 -0.4408,-0.38316 -0.41028,-0.45774 -0.36959,-0.52555 -0.32551,-0.60017 -0.28143,-0.67136 -0.23056,-0.74595 -0.11874,-0.54591 5.8727,0 -0.003,0.095 0.0306,0.18989 0.0679,0.17291 0.11198,0.14912 0.14582,0.11198 0.16962,0.0712 0.18988,0.0339 0.20684,-0.007 0.21362,-0.0509 0.20683,-0.0882 0.20004,-0.12552 0.1831,-0.1526 0.1559,-0.1831 0.12552,-0.19666 0.0104,-0.0203 0.90872,0 0,-0.007 -0.90872,0 0.0814,-0.1831 0.0509,-0.21024 0.0104,-0.20683 -0.0306,-0.18987 -0.0712,-0.17291 -0.1085,-0.14236 -0.12204,-0.0983 -0.13906,-0.0679 -0.15937,-0.0406 -0.16961,-0.0139 -0.24074,0.0339 -0.24074,0.0847 -0.23056,0.13229 -0.21362,0.1797 -0.15937,0.18648 -0.12551,0.19668 -0.0882,0.20683 -0.0509,0.20683 -0.003,0.0983 -5.87611,0 -0.0576,-0.26787 -0.11874,-0.89854 -0.0104,-0.16944 -4.36724,0 -0.0339,0.16944 -0.13906,1.06808 -0.0271,0.43402 0.1052,0 0,0.007 -0.1052,0 -0.0339,0.57982 0.0139,0.96974 0.0814,0.92227 0.14913,0.86802 0.21362,0.82056 0.26787,0.76629 0.32551,0.71544 0.37976,0.66119 0.42384,0.61032 0.4713,0.55609 0.5086,0.50182 0.54931,0.45098 0.5798,0.39331 0.61032,0.33568 0.63746,0.28482 0.65781,0.22379 0.67813,0.16944 0.69171,0.11198 0.70527,0.0576 0.71205,-0.003 0.71542,-0.0644 0.71544,-0.11874 0.71545,-0.17972 0.70526,-0.24073 0.6951,-0.30178 0.68153,-0.3628 0.66119,-0.42384 0.64425,-0.48487 0.61709,-0.5459 0.58659,-0.61034 0.14913,0.36281 0.20345,0.35603 0.13905,0.20683 0.36959,0.43401 0.40011,0.34586 0.41366,0.24073 0.20345,0.0747 0.20004,0.0441 -0.73579,0.67136 -0.73578,0.6171 -0.73239,0.55947 -0.72223,0.512 -0.70526,0.46791 -0.68492,0.42384 -1.29863,0.74257 1.0206,0.10851 0.99685,0.0644 0.98331,0.0271 0.97653,0 0.23056,-0.003 1.15286,2.21075 -0.66119,0.34245 -0.94262,-1.81064 -1.05112,-0.007 -1.06469,-0.0373 -1.09181,-0.0847 -1.11893,-0.14235 -1.16301,-0.20683 -1.21049,-0.29161 -1.26813,-0.37976 -1.33254,-0.48486 -1.44445,-0.61372 -1.5326,-0.74935 -1.62754,-0.89514 -1.73604,-1.04773 -1.85132,-1.21726 -1.9768,-1.40037 -2.1124,-1.59363 -2.25821,-1.80047 0.46792,-0.57303 2.56676,2.03443 2.3735,1.76316 -0.0406,-1.4173 -0.0139,-1.39021 0.0174,-1.37323 0.0406,-1.34611 0.0238,-0.40689 -6.62545,0 -0.0271,0.22718 -0.0882,0.22717 -0.13906,0.20345 -0.18649,0.1797 -0.22377,0.14583 -0.2577,0.11197 -0.28143,0.0679 -0.30516,0.0271 -0.29839,-0.0238 -0.28143,-0.0679 -0.26109,-0.11197 -0.23056,-0.14913 -0.18649,-0.18308 -0.13905,-0.21024 -0.0882,-0.22377 -0.0271,-0.23397 0.0271,-0.23735 0.0882,-0.22378 0.13905,-0.20685 0.18649,-0.18308 0.23056,-0.1526 0.26109,-0.1085 0.28143,-0.0712 0.29839,-0.0203 0.30516,0.0238 0.28143,0.0679 0.2577,0.11198 0.22377,0.14912 0.18649,0.17631 0.13906,0.20345 0.0882,0.22718 0.0305,0.24412 0,0.007 6.62207,0 0.0509,-0.9121 0.10173,-1.30204 0.13558,-1.27491 0.16267,-1.25117 0.45097,0.41367 0.46451,0.39332 0.98332,0.73917 0.003,0 0.8409,0.56624 0.0139,0.007 -0.1831,0.94262 4.36724,0 -0.0441,-0.79343 0.0104,-1.05112 0.0779,-1.12572 0.1559,-1.20709 0.23056,-1.28168 -4.13666,2.77699 -0.22718,0.75952 -0.3255,-0.24074 -0.25091,-0.18989 -0.3289,-0.26447 -0.94941,-0.83411 -0.94261,-0.9121 0.19327,-1.01384 0.217,-0.99346 0.24414,-0.97653 0.26447,-0.95618 0.29161,-0.93244 0.31533,-0.9155 0.34247,-0.89514 0.36959,-0.87481 0.39331,-0.85106 0.42384,-0.83073 0.45097,-0.80699 0.47809,-0.78665 0.50521,-0.7629 0.53574,-0.73918 0.0441,-0.0576 1.96999,0 0,0.003 0.0509,0.30855 0.095,0.28483 0.14235,0.25768 0.18649,0.22718 0.1559,0.13558 0.17633,0.11528 0.18987,0.0915 0.20683,0.0679 0.217,0.0441 0.46453,0.0139 0.48827,-0.0847 0.0611,-0.0203 0.43401,-0.15937 0.0712,-0.0338 -0.12881,0.19327 -0.095,0.21701 -0.0576,0.23394 -0.0203,0.24414 0.0203,0.2543 0.0644,0.24753 0.10503,0.22379 0.14235,0.20004 0.17291,0.16267 0.19328,0.12204 0.2136,0.0712 0.22041,0.0271 0.22377,-0.0271 0.21024,-0.0712 0.19666,-0.12204 0.17291,-0.16267 0.14235,-0.20004 0.10521,-0.22379 0.0644,-0.24753 0.0203,-0.2543 -0.0238,-0.26448 -0.0644,-0.24751 -0.10503,-0.22041 -0.13906,-0.19327 -0.16614,-0.15937 -0.19326,-0.12204 -0.21362,-0.078 -0.23056,-0.0238 -0.18989,0.0174 0.34586,-0.30516 0.3662,-0.42724 0.0712,-0.11527 0.97314,0 0,-0.007 -0.96973,0 0.217,-0.34586 0.11528,-0.24074 0.14582,-0.42045 0.0746,-0.41366 0.003,-0.40011 -0.0644,-0.37637 -0.007,-0.0203 -0.15937,-0.37638 -0.24414,-0.31195 -0.24073,-0.19666 -0.27805,-0.14583 -0.31533,-0.095 -0.33907,-0.0373 -0.16614,0 -0.27466,0.0271 -0.27802,0.0576 -0.27465,0.0882 -0.27466,0.11527 -0.26785,0.14583 -0.2577,0.16961 -0.25091,0.19327 -0.23397,0.21701 -0.21362,0.23395 -0.19325,0.25093 -0.16961,0.26447 -0.14236,0.27125 -0.14235,0.34924 -0.0915,0.34586 -0.0441,0.33906 0,0.31195 -1.96322,0 0.5154,-0.65101 0.59336,-0.6951 0.9155,-0.96296 0.97991,-0.9121 1.04774,-0.85785 1.11554,-0.8036 -3.03807,-0.16961 3.39749,-2.13275 1.65465,-1.08164 1.62754,-1.09858 1.60043,-1.11555 1.56988,-1.13249 1.54279,-1.15963 1.51904,-1.18335 1.48852,-1.21388 1.46138,-1.24439 1.43767,-1.28169 1.40715,-1.32238 1.38679,-1.35967 1.35628,-1.40715 1.33255,-1.45461 1.30882,-1.50208 0.12552,-0.1526 3.20423,0 0,-0.007 -3.19744,0 0.97652,-1.18336 1.08841,-1.38342 1.07147,-1.42409 1.05451,-1.47156 1.03418,-1.52244 1.0172,-1.5665 1.00027,-1.62077 0.9833,-1.675 0.96635,-1.72926 0.946,-1.78691 0.93245,-1.84793 0.9121,-1.90558 0.89854,-1.9734 0.88158,-2.03441 0.86464,-2.10225 0.84767,-2.17344 -0.1559,3.24829 -0.20683,3.23474 -0.26448,3.22118 -0.32211,3.20761 -0.38655,3.19066 -0.44757,3.1771 -0.0679,0.41366 0.78325,0 0.0779,-0.50184 0.30516,-2.11918 0.27805,-2.12598 0.24752,-2.13275 0.22039,-2.13955 0.19666,-2.1463 0.16962,-2.15311 0.26108,-4.31977 0.16961,-4.34349 -0.72221,-0.13558 -0.89516,2.41419 -0.91548,2.32941 -0.93583,2.24465 -0.9528,2.17005 -0.96975,2.09546 -0.99347,2.01747 -1.01043,1.94966 -1.02739,1.88184 -1.05112,1.81404 -1.07147,1.74961 -1.0918,1.69196 -1.11216,1.63093 -1.13249,1.57667 -1.15283,1.52244 -1.17319,1.47156 -1.06129,1.26474 -1.94288,0 0.89514,-1.12232 0.46114,-0.64086 0.4035,-0.6137 0.53572,-0.89516 0.60017,-1.07485 0.61709,-1.16301 0.57644,-1.15623 0.47809,-1.05791 0.32889,-0.86802 0.0915,-0.33229 0.0306,-0.25091 -0.0339,-0.1559 -0.0441,-0.0406 -0.0611,-0.0104 -0.16944,0.0406 -0.20006,0.1118 -0.22718,0.17291 -0.25091,0.23058 -0.56286,0.61033 -0.62388,0.76969 -0.65781,0.88497 -0.66119,0.95279 -0.64761,0.97991 -0.60017,0.95619 -1.13249,1.85811 -0.55947,0.97652 -0.4374,0.8375 -2.482,0 0.30516,-0.60015 0.31195,-0.74257 0.0915,-0.33228 0.0238,-0.27126 -0.0203,-0.0983 -0.0509,-0.0712 -0.0746,-0.0406 -0.11181,-0.003 -0.23056,0.0746 -0.22039,0.15937 -0.21024,0.22041 -0.20344,0.26785 -0.39671,0.60694 -0.40349,0.5832 -0.17291,0.24753 -0.52895,0 0,0.007 0.52555,0 -0.0139,0.0174 -0.17291,0.2984 -0.14583,0.30854 -0.1085,0.30178 -0.0611,0.27804 -0.007,0.23734 0.0576,0.17971 0.0576,0.0611 0.0746,0.0406 0.17632,0.003 0.20006,-0.0882 0.2136,-0.16267 0.217,-0.22041 0.42725,-0.53911 0.35602,-0.56286 0.078,-0.12881 0.0139,-0.0238 2.482,0 -0.078,0.1526 -0.31194,0.66458 -0.27465,0.67136 -0.23058,0.67136 -0.1797,0.67475 0.18988,-0.095 0.25769,-0.1831 0.66798,-0.58998 0.81037,-0.83073 0.87481,-0.9833 0.12204,-0.1526 1.94288,0 -0.12882,0.1526 -1.40036,1.57668 -1.43088,1.52242 -1.458,1.46819 -1.49192,1.42071 -1.51904,1.37323 -1.54954,1.33255 -1.58008,1.29524 -1.61398,1.26136 -1.6411,1.2342 -1.6784,1.20371 -1.70891,1.18335 -1.73943,1.16642 -1.77674,1.14945 -1.80725,1.13928 -3.71961,2.25821 1.37324,-1.83778 1.3495,-1.87845 1.31899,-1.91574 1.28507,-1.95305 1.24778,-1.99036 1.20371,-2.03103 1.15624,-2.06832 1.09858,-2.10565 1.04434,-2.1463 0.97652,-2.18702 0.90871,-2.2243 0.83751,-2.26838 0.75613,-2.30568 0.67136,-2.34638 0.58321,-2.38706 0.49165,-2.42774 0.75613,-0.98669 0.75952,-1.05791 0.75952,-1.12572 0.74934,-1.18336 0.73239,-1.23421 0.70865,-1.2817 0.67477,-1.31559 0.64084,-1.3529 0.59336,-1.37323 0.53913,-1.39359 0.48147,-1.40375 0.41369,-1.40715 0.34245,-1.40374 0.2577,-1.39358 0.17291,-1.38003 0.0746,-1.35288 -0.74258,-0.0139 -0.0644,1.2037 -0.14912,1.23084 -0.22041,1.24778 -0.2916,1.26473 -0.35601,1.27153 -0.41707,1.2749 -0.46792,1.26812 -0.51538,1.26134 -0.55609,1.2444 -0.59336,1.22405 -0.6239,1.19691 -0.64763,1.16301 -0.66796,1.12572 -0.68153,1.08164 -0.68831,1.03078 -0.69171,0.97312 0.0174,-0.0847 -0.88496,1.04772 -2.15312,2.49218 -2.20395,2.42775 -2.25821,2.34637 -1.14946,1.14266 -1.16301,1.11555 -1.17656,1.09181 -1.19015,1.06128 -1.2037,1.03418 -1.21726,1.00703 -0.84768,0.67136 1.16301,0 0.83412,-0.67136 1.83776,-1.56989 1.80385,-1.63771 1.76995,-1.69535 1.73944,-1.74962 1.70891,-1.79707 1.67502,-1.83777 1.64449,-1.87845 -0.27126,1.28847 -0.29837,1.2783 -0.32551,1.26473 -0.34924,1.25456 -0.37299,1.241 -0.40011,1.23083 -0.86461,2.43114 -0.9528,2.38368 -1.03077,2.34296 -1.10538,2.29552 -1.17318,2.25482 -3.09911,-1.28509 -2.73969,1.72249 -1.40715,0.84767 -1.44105,0.83074 -0.29499,0.16266 0,5.49974 2.4786,-0.0238 -0.89852,-0.41706 0.31872,-0.67137 2.38027,1.10538 -0.42044,0.62049 -0.0174,-0.007 0,0.0306 -0.0474,0.0712 -3.79421,0.0339 0,1.79368 1.00704,0.0644 1.37663,0.12881 -1.19353,1.64451 -1.21387,1.61398 -1.13928,0.65101 -1.22405,0.6205 -1.28169,0.57642 -1.30203,0.52217 -1.29186,0.44757 -1.24778,0.36281 -1.1698,0.26109 -0.5493,0.0882 -0.51538,0.0576 2.08867,-0.84767 0.96975,-0.43063 0.91549,-0.43739 0.85785,-0.4408 0.80359,-0.44417 0.73918,-0.44759 0.68153,-0.45095 -3.12961,-1.39019 0.30177,-0.67815 3.33307,1.48175 -0.14236,0.3221 0.81716,-0.66119 0.35602,-0.33227 0.31534,-0.3323 0.27803,-0.33228 0.24075,-0.3323 0.19666,-0.33229 0.11527,-0.24412 0,-0.0814 -0.49503,0.0441 -0.63746,0.0238 -0.70865,-0.007 -0.74258,-0.0441 -0.74596,-0.0915 -0.71542,-0.14583 -0.64763,-0.20683 -0.28822,-0.12882 -0.26108,-0.14583 1.64788,-0.0271 1.62076,0.0174 1.536,0.0542 0.43739,0.0271 0,-1.7903 -3.06519,0.0271 -0.007,-0.74258 3.07198,-0.0271 0,-5.49635 -1.18675,0.64763 -1.53938,0.79681 -1.59702,0.76969 -1.66485,0.74258 -1.74281,0.71204 -1.8276,0.67815 -1.91575,0.64084 -2.01747,0.60354 -2.12598,0.55947 -2.24126,0.51199 -2.36671,0.46115 -2.49557,0.41028 2.46166,-1.70554 2.23786,-1.65466 2.04123,-1.61398 1.86487,-1.58346 1.08164,-0.35942 1.06809,-0.38993 1.06127,-0.41705 1.05113,-0.44418 1.04433,-0.47132 1.03418,-0.49844 1.02399,-0.52216 1.01721,-0.54929 2.00392,-1.1698 1.97338,-1.25795 1.9361,-1.34611 1.90559,-1.4275 1.02737,-0.82733 -1.1664,0 -0.37298,0.29499 -1.24438,0.93924 -1.26136,0.90531 -1.2749,0.86802 -1.28847,0.83073 -1.30203,0.79342 -1.3156,0.74935 -1.33255,0.70865 -1.34611,0.66458 -1.36307,0.62051 -1.37661,0.57302 -1.39021,0.52218 -1.40375,0.47469 -1.42409,0.42384 -1.43427,0.36958 -1.45122,0.31535 -1.46818,0.25769 -1.48174,0.20006 -1.4987,0.14582 -1.51226,0.0814 1.27491,-0.87481 1.22065,-0.90872 1.16641,-0.94262 1.10538,-0.97652 1.04094,-1.01382 0.97653,-1.0545 0.90531,-1.0952 0.83412,-1.1359 1.67162,-0.73917 1.61398,-0.79342 1.55973,-0.84091 1.51225,-0.89175 1.46479,-0.93922 1.42409,-0.9867 1.38342,-1.03756 1.34611,-1.08164 1.3122,-1.1257 1.28169,-1.17319 1.25795,-1.21728 1.23082,-1.25795 1.21049,-1.30203 1.19353,-1.34271 1.17998,-1.38342 1.16978,-1.42409 -0.57642,-0.46453 -1.17319,1.42409 -1.17997,1.38342 -1.19353,1.34272 -1.21047,1.29863 -1.22743,1.25457 -1.25457,1.21048 -1.2783,1.16641 -1.30881,1.11893 -1.34272,1.07485 -1.37663,1.02401 -1.41733,0.97652 -1.46138,0.92905 -1.50886,0.88158 -1.55635,0.83073 -1.61058,0.77648 -1.66823,0.729 0.0203,0.0509 -0.72562,0.32213 -0.75951,0.30516 -1.61058,0.56286 -1.72249,0.49505 -1.83777,0.43061 -1.94626,0.36281 -2.048,0.29838 -2.1497,0.23396 -2.24125,0.16961 -2.33282,0.10504 -2.41757,0.0406 -2.49896,-0.0238 -2.57354,-0.0847 -2.64815,-0.14913 -2.71596,-0.21022 -2.77699,-0.27464 -2.83802,-0.3323 1.28847,-0.75613 1.29864,-0.80021 1.30542,-0.84427 1.30882,-0.89177 1.3122,-0.94601 1.30882,-1.00364 1.30881,-1.0613 1.30542,-1.12572 1.29864,-1.19012 1.28847,-1.26474 1.2783,-1.33594 1.26135,-1.41392 1.24778,-1.49531 1.23082,-1.58008 1.2071,-1.66823 1.18675,-1.75977 0.34245,-0.5459 2.88549,0 -0.0238,0.0271 -0.35941,0.51878 -0.1797,0.34586 -0.0984,0.32889 -0.0104,0.1526 0.0174,0.13558 0.0542,0.12205 0.0915,0.1052 0.1085,0.0679 0.11858,0.0406 0.12551,0.0139 0.13559,-0.0139 0.28141,-0.0915 0.2916,-0.15937 0.29501,-0.20683 0.2882,-0.23058 0.5154,-0.44078 0.21021,-0.16961 0.56286,-0.46453 0.0915,-0.0814 2.09886,0 -0.0882,0.27464 -0.0139,0.14236 0.0139,0.12881 0.0441,0.1085 0.0746,0.0915 0.1118,0.0712 0.13905,0.0338 0.15937,0.003 0.1831,-0.0271 0.42046,-0.13558 0.48487,-0.23058 0.53573,-0.30517 0.23735,-0.15589 2.17684,0 0,-0.007 -2.16328,0 0.31533,-0.20683 1.17319,-0.85446 1.12572,-0.89514 0.95279,-0.80698 0.90871,-0.80362 0.89514,-0.8714 0.90193,-0.90532 1.00366,-1.0545 0.95956,-1.08165 0.42045,-0.51199 0.34924,-0.47132 0.26787,-0.41705 0.16614,-0.34585 0.0373,-0.14236 0.003,-0.11874 -0.0306,-0.095 -0.0679,-0.0644 -0.095,-0.0406 -0.11528,-0.0203 -0.26108,0.0238 -0.31534,0.0882 -0.36279,0.1526 -0.4069,0.21021 -0.9087,0.55269 -1.00027,0.6951 -1.03755,0.77986 -1.0206,0.81716 -1.79029,1.52244 -0.74258,0.67136 -0.75273,0.71204 -0.85785,0.85108 -0.8409,0.91548 -0.37636,0.45097 -0.33229,0.4374 -0.27126,0.41028 -0.19327,0.37297 -0.0139,0.0441 -2.09546,0 0.1797,-0.16266 0.24075,-0.2577 0.18987,-0.26447 0.10851,-0.2577 0.0174,-0.12881 -0.0104,-0.12552 -0.0406,-0.12204 -0.0746,-0.11875 -0.12205,-0.12551 -0.14235,-0.0814 -0.15607,-0.0441 -0.16944,-0.0104 -0.27466,0.0406 -0.2882,0.10173 -0.29839,0.14583 -0.29499,0.17971 -0.56286,0.42045 -0.46791,0.42044 -0.34924,0.38993 -2.8855,0 0.4747,-0.75611 0.81377,-1.3529 0.79681,-1.40377 0.78325,-1.458 0.76631,-1.50886 0.74935,-1.5665 0.7324,-1.62077 0.71544,-1.67839 0,-0.003 0.003,-0.007 -0.68153,-0.28821 -0.003,0.007 -0.68153,1.46138 -0.729,1.41054 -0.77987,1.3529 -0.82733,1.30203 -0.88159,1.24778 -0.93245,1.19692 -0.98668,1.14606 -1.03418,1.0952 -1.08841,1.04434 -1.14267,0.99687 -1.19353,0.9494 -1.24778,0.90532 -1.30203,0.85784 -1.35629,0.81039 -1.41053,0.76969 -1.46479,0.72562 -1.20031,0.54589 -1.23083,0.51538 -1.26812,0.49167 -1.30543,0.46791 -1.33933,0.44079 -1.37323,0.41706 -1.41054,0.38994 -1.44444,0.3662 -1.48174,0.34583 -1.51904,0.31874 -1.54955,0.29837 -1.59025,0.27466 -1.62415,0.2543 -1.66144,0.23056 -3.4314,0.40011 -0.45097,-0.13229 -0.46791,-0.0441 -0.35603,0.0238 -0.34585,0.0747 -0.33229,0.12205 -0.31534,0.16961 -2.60406,0.20004 -2.678662,0.15937 -0.03052,-0.0305 1.485132,-0.85107 1.48513,-0.88158 1.48174,-0.92227 1.47835,-0.96637 1.47157,-1.0172 1.47157,-1.07825 1.43427,-1.11553 -1.21049,0 -1.26812,0.96973 -1.42071,1.02061 -1.4241,0.96973 -1.43088,0.92228 -1.43427,0.88159 -1.43766,0.84428 -1.444442,0.81717 -1.027385,0.56963 0.03729,0.13558 -0.267864,0.12205 -0.752738,0.37976 -0.04408,0.0203 -0.732394,0.3967 -0.06104,0.0339 -0.691705,0.40008 -0.13562,0.0814 -0.630673,0.38655 -0.18988,0.11875 -0.457746,0.30177 -0.155966,-1.2003 -0.07798,-0.61034 -0.128849,-1.09858 -0.08477,-0.75952 -0.105118,-1.05451 -0.07121,-0.7629 -0.07798,-0.93585 -0.108503,-1.55295 -0.0068,-0.12881 0.549295,-0.0609 0.71205,-0.0915 -0.04069,-0.0441 0.888367,-0.14913 0.891756,-0.1831 0.898538,-0.21023 0.901928,-0.23395 1.81064,-0.55269 1.814029,-0.65101 1.81403,-0.73918 1.80386,-0.82055 1.7869,-0.89514 1.76995,-0.95958 1.73944,-1.01382 1.70552,-1.06468 1.66484,-1.10199 1.61737,-1.13589 1.56312,-1.16301 1.50547,-1.17318 1.43766,-1.18336 1.36646,-1.18336 -1.3495,1.85132 -1.35629,1.73945 -1.36645,1.6411 -1.37324,1.54276 -1.38002,1.45123 -1.39019,1.36646 -1.39697,1.28507 -1.40037,1.21049 -1.41053,1.14267 -0.13902,0.10503 1.21387,0 0.0203,-0.0174 1.458,-1.20709 1.45123,-1.28848 1.44444,-1.36645 1.43766,-1.45462 1.42749,-1.54954 1.42071,-1.65129 1.40714,-1.75639 1.40036,-1.86827 1.33594,-1.91574 2.69901,0 -0.73918,0.72221 -0.6544,0.72223 -0.5493,0.67474 -0.4374,0.61711 -0.32212,0.53234 -0.21022,0.4374 -0.0882,0.31874 0,0.1085 0.0305,0.0746 0.061,0.0104 0.12547,-0.0306 0.40688,-0.17291 0.57642,-0.30177 0.69171,-0.40011 0.75613,-0.4747 0.76969,-0.52556 0.72561,-0.54589 0.63406,-0.54252 0.56286,-0.5493 0.62389,-0.65102 0.0203,-0.0238 2.19379,0 0,-0.007 -2.187,0 0.61371,-0.67475 0.60016,-0.70188 0.50522,-0.6544 0.3628,-0.54931 0.1085,-0.22039 0.0543,-0.17631 -0.0102,-0.12204 -0.078,-0.0644 -0.17293,-0.0203 -0.20005,0.0271 -0.23057,0.0611 -0.54251,0.22718 -0.62389,0.33906 -0.67814,0.42723 -0.6951,0.48487 -0.6917,0.51879 -0.64763,0.52555 -0.57981,0.50522 -0.061,0.0509 -0.017,0.0174 -2.7024,0 0.0475,-0.0679 1.0206,-1.54617 -0.57303,-0.46452 -1.04095,1.00026 -1.10876,1.01043 -0.078,0.0679 -2.69562,0 0,0.007 2.68884,0 -1.29525,1.12911 -1.45462,1.2037 -1.52921,1.2003 -1.59363,1.18676 -1.64789,1.16301 -1.70213,1.1291 -1.73944,1.08842 -1.77673,1.03756 -1.80386,0.97652 -1.82081,0.90872 -1.83437,0.83071 -1.83776,0.74258 -1.83438,0.64761 -1.827592,0.53913 -0.905321,0.23056 -0.901928,0.19666 -0.895147,0.16961 -0.884974,0.13559 -0.71205,-0.7731 -0.02035,-0.5798 -0.02035,-0.70527 -0.01354,-0.82394 -0.0035,-0.59676 0,-0.88499 0.0035,-0.24073 0.0339,-1.25796 0.05425,-1.21388 1.739434,-1.51563 1.688572,-1.54956 1.637712,-1.59363 1.525821,-1.57668 1.702133,0 -0.53573,0.66458 -0.4374,0.6578 -0.145795,0.28141 -0.08137,0.23397 -0.01354,0.1831 0.02035,0.0679 0.04408,0.0509 0.05764,0.0712 0.0882,0.0271 0.12206,-0.0104 0.14579,-0.0441 0.36281,-0.17971 0.42383,-0.26447 0.92567,-0.65102 0.8375,-0.58659 0.32212,-0.24414 0.26109,-0.25768 5.56754,0 0,-0.007 -5.56076,0 0.0475,-0.0474 0.30177,-0.35941 0.27465,-0.38993 0.24074,-0.39672 0.18988,-0.38994 0.13564,-0.35941 0.0644,-0.31533 -0.0135,-0.24753 -0.0407,-0.095 -0.061,-0.0679 -0.0509,-0.0746 -0.0848,-0.0271 -0.21022,0.0373 -0.27804,0.13559 -0.3289,0.21022 -0.35602,0.26446 -0.72561,0.61035 -0.6205,0.56963 -0.42723,0.43401 -0.41706,0.46114 -0.0373,0.0474 -1.702153,0 0.04746,-0.0474 1.156243,-1.26474 1.11554,-1.29186 0.80021,-0.94939 -1.19014,0.35601 -3.794214,1.18336 -1.895407,0.5832 -1.925923,0.54931 0.0746,-0.33907 0.217005,-0.95279 0.105117,-0.43401 0.298383,-1.12572 0.135637,-0.47131 0.132234,-0.44079 0.366196,-1.16301 0.172927,-0.5154 0.362806,-1.03078 0.176317,-0.48147 0.386541,-1.01043 0.19327,-0.49505 0.213615,-0.52896 0.962961,-2.31584 -0.684923,-0.28822 -0.634062,1.51565 -0.227179,0.55948 -0.410276,1.02398 -0.271256,0.70527 -0.352634,0.95618 -0.281428,0.77987 -0.481481,1.47157 -0.450966,1.52242 -0.406885,1.59024 -0.359414,1.66484 -0.0035,0.0104 -0.02714,0.007 -0.04408,0.22718 -0.264474,1.50548 -0.145793,1.01722 0.759519,0 0.132234,-0.93245 0.210225,-1.22743 1.698746,-0.46792 1.664838,-0.49843 3.282214,-1.02739 -0.9155,1.0206 -0.935835,1.00366 -0.0035,0 -0.04746,0.0474 -1.552946,0 0,0.007 1.546165,0 -1.251173,1.28507 -1.346111,1.30882 -1.383409,1.28507 -1.424099,1.25795 0.125464,-1.3834 0.15258,-1.33255 0.04746,-0.33907 -0.759519,0 -0.07798,0.55267 -0.179707,1.65468 -0.132234,1.74283 -0.05087,0.86462 0.04069,-0.0339 -0.0035,0.0139 -0.03729,1.07826 -0.0035,0.1559 -0.01701,1.04773 0,0.28482 0,1.00704 0.01701,0.81716 0.0068,0.47132 -0.03391,-0.0373 0.04069,1.01043 0.05087,1.12572 0.02035,0.38315 0.0339,-0.003 0.125464,1.82082 0.162754,1.82758 0.01024,0.12882 0.196661,1.8242 0.02035,0.16961 0.227179,1.81741 0.03391,0.28143 0.250912,1.75639 0.06104,0.42045 0.267866,1.69197 0.09154,0.57642 0.315335,1.81402 0.08477,0.48826 0.454355,2.41758 -1.315594,-0.7663 -0.684925,-0.45096 -0.745955,-0.57642 -0.522169,-0.46114 -0.576422,-0.56286 -0.637452,-0.68492 -0.712049,-0.82395 -0.793427,-0.97991 -0.884974,-1.15283 -0.979915,-1.34273 -1.09181,-1.55294 -0.674751,0.2577 0.23735,1.69535 0.261085,1.62075 0.291601,1.54617 0.318726,1.47156 0.342462,1.40036 0.372979,1.33255 0.396712,1.26475 0.420448,1.19353 0.515388,1.28845 -1.634321,-1.3088 -0.796818,-0.68832 -0.786645,-0.71204 -0.76969,-0.7324 -0.752738,-0.75274 -0.729003,-0.77307 -0.712048,-0.79004 -0.01024,-0.0139 -0.274649,-2.02426 -0.244129,-2.0073 -0.213615,-1.99374 -0.176318,-1.9734 -0.142408,-1.95643 -0.105117,-1.93949 -0.06442,-1.91915 -0.02713,-1.89879 0.01701,-1.87845 0.06104,-1.85472 0.105117,-1.83438 0.149196,-1.81064 0.200051,-1.78689 0.247521,-1.76318 0.139023,-0.80359 2.678661,0 0,-0.007 -2.675269,0 0.159369,-0.92567 0.352635,-1.71231 1.034166,0.98669 1.071464,0.90195 0.217005,-0.1831 0.155966,-0.19328 0.105118,-0.19666 0.06781,-0.20006 0.05425,-0.41366 0.01701,-0.42045 -1.122326,-1.11553 -1.101979,-1.19694 0.311944,-1.10537 0.335681,-1.0952 0.362806,-1.08162 0.389932,-1.06809 0.413666,-1.0545 0.444183,-1.04095 0.471308,-1.02738 0.498435,-1.01383 -0.661189,-0.33907 -0.48148,0.97653 -0.454355,0.9867 -0.430621,0.99687 -0.406885,1.01381 -0.379759,1.0206 -0.356025,1.03417 -0.644235,2.10564 -0.654406,-0.83411 -0.637453,-0.8782 -0.623891,-0.93923 -0.603547,-0.99687 -0.583201,-1.0613 -0.562858,-1.13588 -0.539123,-1.21387 -0.515388,-1.29186 -2.34637,0.49165 0.735783,1.41732 0.756129,1.37323 0.776471,1.32916 0.800208,1.27831 0.827333,1.22403 0.851069,1.16641 0.881583,1.10876 0.908711,1.03756 -0.43401,2.04459 -0.213615,1.24101 -5.072502,0 0.01354,-0.17633 0.09833,-1.50546 0.05087,-1.2817 0.0035,-0.99347 -0.04746,-0.64763 -0.04408,-0.17631 -0.05764,-0.0644 -0.08137,0.0306 -0.105118,0.11528 -0.271257,0.46114 -0.33229,0.75952 -0.369587,1.02739 -0.389932,1.2749 -0.301773,1.17659 -1.970001,0 0,0.007 1.96661,0 -0.08137,0.31874 -0.362805,1.69873 -0.318727,1.88186 -0.240741,1.93608 -0.159369,1.85134 -0.08477,1.71569 -0.02035,1.52581 0.03052,1.28509 0.07798,0.99008 0.108503,0.63746 0.06104,0.17291 0.06781,0.0679 0.07798,-0.0203 0.08477,-0.0814 0.206834,-0.34586 0.244131,-0.58659 0.267867,-0.8375 0.288209,-1.08164 0.298382,-1.33255 0.298383,-1.58347 0.294992,-1.83437 0.172927,-1.28847 0.220398,-1.8242 0.179706,-1.77674 0.125464,-1.48852 5.069111,0 -0.142408,0.83074 -0.28482,2.1124 -0.217006,2.14632 -0.105117,1.42071 -0.07798,1.43426 -0.05425,1.44446 -0.02373,1.46138 0.02713,2.95331 0.122061,3.00078 0.213615,3.04147 0.298383,3.08555 0.379759,3.11945 0.454354,3.15675 0,0.0104 0.250914,2.38368 0.0035,0.0306 0.111888,0.91549 0.773081,0 -0.122062,-1.01722 -0.02035,-0.1559 -0.274647,-2.62779 1.115543,1.18335 0.203443,0.21022 1.19353,1.17657 0.04746,0.0406 1.257952,1.14607 0.02713,0.0238 0.627281,0.53234 0.07798,0.0644 0.651016,0.52555 0.0068,0.003 0.125464,1.04772 0.142408,0.96976 0.325508,0 0,0.007 -0.325508,0 0.01024,0.0644 0.37976,2.08869 1.868281,-1.12572 -0.511997,-1.0274 -0.579811,0 0,-0.007 0.57642,0 -0.166139,-0.33568 -0.0068,-0.007 -0.0035,-0.0104 -0.28143,-0.51538 1.085027,0.75273 -0.637452,-1.28847 -0.552687,-1.20709 -0.518778,-1.30882 -0.48148,-1.41054 -0.447574,-1.51225 -0.413666,-1.61058 -0.376369,-1.71231 -0.342463,-1.81402 -0.305163,-1.91238 1.132497,1.54956 0.264476,0.35264 0.95957,1.24438 0.04069,0.0542 0.966353,1.1732 0.06442,0.0746 0.847678,0.93923 -0.0068,1.88524 0,0.1526 0.01701,2.16326 0.0068,0.35265 0.06104,2.1158 0.01024,0.26108 0.04746,0.97991 0.03391,0.49844 0.0068,0.095 7.25951,0 0,-1.23761 0.891757,0.62388 1.027385,0.60015 1.105378,0.53575 0.55947,0.23056 0.55607,0.19666 -0.061,1.10199 -0.0135,1.04772 0.0339,0.98669 0.0746,0.93245 0.11529,0.87481 0.15597,0.81716 0.19327,0.7629 0.22718,0.70867 0.25769,0.6544 0.2916,0.60015 0.32212,0.54592 0.34585,0.49843 0.36959,0.44419 0.39332,0.39331 0.41367,0.34246 0.43062,0.295 0.44757,0.24751 0.46453,0.19668 0.47131,0.15259 0.48487,0.10174 0.49165,0.0576 0.49844,0.0139 0.50182,-0.0306 0.50183,-0.0779 0.50182,-0.11875 0.49844,-0.15936 0.49504,-0.20684 0.48826,-0.24414 0.48148,-0.28481 0.46792,-0.32551 0.45436,-0.3662 0.44079,-0.40349 -0.13902,-0.22039 -0.10851,-0.22039 -0.0746,-0.21362 -0.0407,-0.20684 -0.007,-0.19327 0.0305,-0.16961 0.0678,-0.14913 0.10172,-0.11527 0.1424,-0.0814 0.17293,-0.0339 0.21701,0.0174 0.22718,0.0712 0.23395,0.12205 0.23396,0.16944 0.32212,-0.46452 0.30516,-0.49505 0.28482,-0.51878 0.26109,-0.5459 0.24074,-0.57303 0.217,-0.59677 0.19327,-0.62049 0.16276,-0.64763 -1.23083,-2.64815 -0.3289,0.70189 -0.37637,0.6544 -0.38993,0.55607 -0.42384,0.50522 -0.45096,0.44419 -0.47809,0.37976 -0.0135,0.007 0,0.003 -0.35942,0.41367 -0.36619,0.34924 -0.37637,0.28821 -0.37976,0.22718 -0.37976,0.16944 -0.38315,0.11198 -0.38315,0.0576 -0.37976,0.003 -0.37637,-0.0474 -0.36959,-0.095 -0.35941,-0.14583 -0.35264,-0.1865 -0.34246,-0.23395 -0.3289,-0.27466 -0.31194,-0.31193 -0.29838,-0.35265 -0.27804,-0.38993 -0.2577,-0.42043 -0.23734,-0.45436 -0.21362,-0.48488 -0.18988,-0.51539 -0.15937,-0.53911 -0.13564,-0.56625 -0.10171,-0.58659 -0.0678,-0.61034 -0.0373,-0.62729 0,-0.64761 0.0373,-0.66119 0.078,-0.67475 0.11868,-0.68492 0.15937,-0.69511 0.20344,-0.70527 -3.44835,2.13955 -0.21362,1.63772 -0.59337,-0.23735 -0.5832,-0.27805 -0.57303,-0.30516 -0.556086,-0.32551 -1.017212,-0.68153 -0.85785,-0.66119 0.142407,-1.63772 0.223788,-1.69196 0.301773,-1.74282 0.389931,-1.79369 0.478091,-1.84115 0.569639,-1.88524 0.661199,-1.92252 0.75951,-1.95984 2.80073,-0.19327 -0.16954,0.31533 -0.12547,0.33568 -0.0746,0.35264 -0.0237,0.35603 0.0135,0.26108 0.0373,0.25769 0.0678,0.25092 0.0915,0.24413 0.16275,0.30856 0.0237,0.0441 0.20345,0.27464 0.23735,0.24752 0.0441,0.0373 0.26109,0.20006 0.007,0.007 0.29499,0.16267 0.061,0.0271 0.26787,0.10174 0.0509,0.0203 0.3289,0.0712 0.0543,0.007 0.33907,0.0271 0.34586,-0.0271 -0.007,0.11874 0.0203,0.21022 0,0.003 0,0.003 0.061,0.19665 0.0983,0.17632 0.003,0.007 0.12207,0.14913 0.0102,0.0104 0.14241,0.11875 0.017,0.0104 0.15597,0.0847 0.0339,0.0174 0.16954,0.0509 0.0271,0.007 0.20344,0.0203 0.21022,-0.0203 0.003,0 0.003,-0.003 0.19666,-0.0611 0.17632,-0.095 0.007,-0.003 0.14579,-0.11874 0.0135,-0.0174 0.11868,-0.14235 0.0102,-0.0139 0.0882,-0.15937 0.0102,-0.0271 0.0542,-0.17291 0.007,-0.0271 0.0203,-0.20345 -0.0102,-0.13229 -0.003,-0.0339 -0.0237,-0.10173 -0.007,-0.0306 -0.0441,-0.12205 -0.0102,-0.0203 -0.0475,-0.0915 -0.0237,-0.0406 -0.0509,-0.0747 -0.0237,-0.0271 -0.0848,-0.0915 -0.0271,-0.0238 -0.078,-0.0644 -0.0271,-0.0203 -0.11189,-0.0679 0.15597,-0.19327 0.0441,-0.0644 0.0848,-0.13228 0.0576,-0.0983 0.061,-0.11875 0.0407,-0.0983 0.0509,-0.12881 0.0339,-0.0983 0.0407,-0.14236 0.0204,-0.0882 0.0271,-0.14913 0.0135,-0.095 0.0135,-0.1526 0.007,-0.13558 -0.0136,-0.24753 -0.007,-0.0406 -0.0271,-0.19666 -0.017,-0.0644 -0.0407,-0.17291 -0.0203,-0.0644 -0.0644,-0.16944 -0.0237,-0.0611 -0.078,-0.16267 -0.0271,-0.0542 -0.12206,-0.19666 -0.003,-0.003 -0.0271,-0.0373 -0.0949,-0.12881 1.47157,-0.2136 1.53938,-0.23736 -0.1085,-0.0509 2.83463,-0.42384 2.73291,-0.48826 2.6278,-0.55607 2.52269,-0.62729 2.42097,-0.69848 1.16979,-0.37976 1.14606,-0.39672 1.11894,-0.41366 1.0952,-0.4374 1.06807,-0.45774 1.04434,-0.47471 0.9833,-0.47808 0.95618,-0.49844 0.93245,-0.51878 0.9121,-0.53573 0.88836,-0.55947 0.86125,-0.57642 0.84089,-0.60015 0.82055,-0.61711 0.79343,-0.64084 0.77308,-0.66119 0.74934,-0.68154 0.72562,-0.70188 0.70188,-0.72221 0.68153,-0.74596 0.66119,-0.76631 0.63406,-0.79004 -1.10537,1.92255 -1.13249,1.8242 -1.15963,1.73264 -1.17658,1.6445 -3.57041,2.25144 -1.80047,1.10535 -1.83437,1.0647 -1.87168,1.01043 -1.92931,0.93922 -0.99008,0.43741 -1.00704,0.41026 -1.02737,0.38655 -1.05112,0.35941 0.96295,3.10589 -0.70865,0.22041 -0.96296,-3.10591 -1.12233,0.31534 -1.14945,0.27466 -1.17996,0.24074 -1.21049,0.19666 1.04095,1.19691 1.05451,1.32917 1.06807,1.44444 1.08164,1.53938 -0.64084,0.38655 -1.16641,-1.64789 -1.15284,-1.52921 -1.12571,-1.38342 -1.0952,-1.21387 -1.18336,0.11874 0.13902,0.18989 0.24413,0.34245 0.41028,0.59338 0.22379,0.33907 0.39671,0.6239 0.50861,0.83411 0.23056,0.38994 0.0102,0.0203 0.39671,0.6985 0.13902,0.24752 0.45435,0.8375 0.81716,1.55633 -0.24751,0.14236 -0.97653,0.54251 1.10537,0.14913 2.8041,0.35264 2.74649,0.2916 2.68882,0.23395 2.62441,0.17291 2.55659,0.1118 2.48878,0.0509 2.41419,-0.0104 2.33619,-0.0712 2.25821,-0.13228 2.17006,-0.19666 2.0819,-0.2577 1.98695,-0.32551 1.89541,-0.38653 1.7903,-0.45097 1.69196,-0.51878 1.58008,-0.58319 -0.71206,0.87479 -0.75613,0.85108 -2.09207,0.85446 -2.11581,0.81377 -2.12936,0.76968 -2.14292,0.71884 -2.1497,0.65779 -2.1565,0.59338 -2.15649,0.52216 -2.1531,0.4408 -2.14632,0.35263 -2.13276,0.26108 -1.06129,0.0915 -1.0579,0.0644 -1.05112,0.0406 -1.04773,0.0104 -1.04095,-0.0174 -1.03417,-0.0476 -1.03077,-0.0779 -1.02061,-0.11197 -1.01382,-0.13906 -1.00365,-0.17631 -0.99687,-0.21022 -0.98669,-0.24414 0.23735,1.17318 0.0203,0.0847 0.26448,1.05789 -0.38654,-0.60692 -0.34585,-0.62728 -0.21023,-0.42384 -0.37298,-0.86802 -0.31872,-0.87481 0,-0.003 -0.27124,-0.8782 0,-0.003 -0.33908,-1.30542 -0.28821,-1.26812 -0.22719,-0.0747 0.16277,1.64111 0.0848,1.59364 0.0135,1.54615 -0.0576,1.49192 -0.11868,1.44444 -0.17631,1.39019 -0.23057,1.33594 -0.27804,1.28169 -0.32212,1.22743 -0.35941,1.17318 -0.39332,1.11555 -0.42384,1.05451 -0.4442,0.99687 -0.46451,0.93923 -0.4747,0.8748 -0.48826,0.81377 0.003,0.0104 0.061,0.31534 0.0983,0.30516 0.26448,0.57303 0.30177,0.512 0.26786,0.42724 0.0848,0.15259 0.0373,0.0712 0.007,0.0174 0.0407,0.10851 0.007,0.0306 0.007,0.0712 -0.003,0.0306 -0.0407,0.0712 -0.37976,0.15937 -0.0915,0.0339 -0.38993,0.11875 -0.0475,0.0104 -0.31873,0.0644 -0.37977,0.0509 -0.16953,0.0174 -0.48149,0.0139 -0.26448,-0.0139 -0.20683,-0.0139 -0.27126,-0.0373 -0.15258,-0.0271 -0.26447,-0.0609 -0.017,0.0174 -0.10512,0.1085 -0.15258,0.007 -1.51903,0.0271 -1.43765,-0.0203 -1.35629,-0.0611 -1.28169,-0.10173 -1.20709,-0.14235 -1.14267,-0.17972 -1.07146,-0.21362 -1.01382,-0.24752 -0.95618,-0.28142 -0.89854,-0.31195 -0.847686,-0.33568 -0.800207,-0.3662 -0.759519,-0.38655 -0.715441,-0.41026 -0.681532,-0.43062 -0.647626,-0.45097 0.437401,-0.60015 1.122326,0.75273 0.600156,0.35264 0.627281,0.33907 0.661187,0.32212 0.69848,0.30177 0.7324,0.28143 0.77308,0.26109 -0.0305,-0.0174 -0.4374,-0.38653 -0.13224,-0.13559 -0.28482,-0.29499 -0.16275,-0.19665 -0.24074,-0.29161 -0.16275,-0.22039 -0.21023,-0.29839 -0.179703,-0.28143 -0.176317,-0.28481 -0.176316,-0.31534 -0.162754,-0.30516 -0.159369,-0.32551 -0.149196,-0.32891 -0.162754,-0.37976 -0.118676,-0.30176 -0.166139,-0.44759 -0.09154,-0.26108 -0.159368,-0.50182 -0.08137,-0.28143 -0.139022,-0.51878 -0.06781,-0.26447 -0.135637,-0.60355 -0.03729,-0.19666 -0.128849,-0.6951 -0.02035,-0.11527 -0.118676,-0.81716 -0.101714,-0.92565 -0.06781,-0.86464 -0.04069,-0.89514 0,-0.61034 -7.25951,0 0.05087,0.70188 0.08137,-0.0474 0.38315,0.63405 -0.393322,0.23736 0.115291,1.10537 -0.410276,-0.92566 -2.020863,1.21726 0.203443,0.97312 -0.786645,-0.63405 -0.7663,-0.6578 -0.742566,-0.68831 -0.72222,-0.70865 -0.695096,-0.73241 -0.674752,-0.74934 -0.647625,-0.76631 -0.623891,-0.77985 -0.155966,-1.30203 -0.773081,0 0.162754,1.33594 0.288211,2.12936 0.0068,0.0474 0.305163,2.00053 0.322118,1.87167 0.02035,0.1085 0.325508,1.70214 0.02373,0.11527 0.02035,0.095 7.69013,0 2.339589,-1.39696 0.37976,0.63744 -1.271516,0.75952 0.606938,0 0,0.0104 -0.623891,0 -1.196922,0.71544 -0.38315,-0.63744 0.132235,-0.078 -7.669786,0 0.311947,1.47836 0.03729,0.16614 0.352634,1.49531 0.01701,0.0609 0.06442,0.24414 10.104315,0 1.359675,-1.14945 0.47809,0.56625 -1.963221,1.65806 -0.478089,-0.56625 0.593374,-0.50184 -10.094144,0 0.318728,1.22746 0.03052,0.10173 0.386541,1.3529 0.06104,0.20004 0.376369,1.21388 0.08137,0.24073 0.372977,1.10199 0.139022,0.38315 0.339072,0.92906 0.169542,0.43739 0.332291,0.84429 0.305163,0.73918 0.203442,0.48147 0.545904,1.24101 -1.468177,-0.96635 -0.05087,-0.0338 -2.807507,-1.8208 -1.027385,-0.69171 -1.023994,-0.71883 -1.017212,-0.75274 -1.013824,-0.8002 -1.000257,-0.85108 -0.993479,-0.91888 -0.983305,-0.99009 -0.973134,-1.07146 -0.95618,-1.1664 -0.946008,-1.26813 -0.929056,-1.38001 -0.91549,-1.49869 -0.898538,-1.63095 -0.878194,-1.76995 -0.857849,-1.91914 -0.840898,-2.07849 -0.851067,-2.34977 -0.830724,-2.53964 -0.33229,-1.47835 -0.311944,-1.49192 -0.28143,-1.51904 -0.250912,-1.53937 -0.217005,-1.5699 -0.179709,-1.59702 -0.139022,-1.62754 -0.09833,-1.66485 -0.04746,-1.69873 0,-1.74284 0.05087,-1.78012 0.108503,-1.82758 0.169542,-1.87507 0.227177,-1.92593 0.294992,-1.97678 0.362807,-2.03442 -0.729003,-0.13905 -0.352634,1.9666 -0.288211,1.91915 -0.227177,1.86828 -0.172927,1.82419 -0.115291,1.78013 -0.06104,1.73944 -0.01354,1.69874 0.03052,1.66144 0.07798,1.62754 0.118676,1.59364 0.155966,1.56312 0.19327,1.53259 0.227177,1.50548 0.257695,1.48175 0.281428,1.46138 0.308554,1.43767 -0.05764,0.007 -0.03391,2.98382 0.01701,2.77359 0.06442,2.57695 0.108503,2.39383 0.149195,2.22771 0.183099,2.07849 0.217005,1.93949 0.244132,1.82082 0.267866,1.71569 0.291601,1.62416 0.308554,1.55294 0.322118,1.4919 0.671361,2.86515 0.678142,2.8143 -1.630931,-1.85133 -0.406886,-0.47471 -1.268125,-1.47834 -0.176316,-0.21362 -0.630674,-0.76629 -0.152581,-0.18989 -0.644235,-0.81377 -0.149195,-0.18987 -0.640843,-0.8409 -0.135637,-0.18649 -0.634064,-0.87141 -0.132235,-0.19327 -0.617107,-0.89854 -0.125464,-0.18649 -0.613719,-0.95618 -0.105118,-0.16614 -0.627282,-1.04433 -0.06442,-0.10503 -0.610327,-1.0952 -0.0746,-0.13906 -0.634063,-1.23083 -0.627281,-1.33254 -0.684923,-1.63094 0,-0.0474 -0.02035,0 -0.345851,-0.90192 -0.101715,-0.26787 0.02373,-0.0611 -0.05764,-0.0238 -0.03052,-0.0882 -0.152581,-0.43062 -0.450965,-1.34271 -0.461136,-1.58346 -0.02035,-0.0679 -0.423838,-1.66822 -0.0035,-0.0174 -0.0068,-0.0174 -0.393322,-1.81064 -0.261085,-1.41054 -0.237348,-1.4614 -0.203444,-1.51565 -0.176316,-1.57329 -0.01701,-0.14913 -0.172927,-2.05816 -0.01354,-0.21022 -0.122062,-2.20398 0,-0.0271 -0.06442,-2.34636 -0.0035,-2.45828 0.0035,-0.28481 0.05764,-2.39385 0.01024,-0.35603 0.122061,-2.54641 0.01701,-0.25431 0.02373,-0.32889 0.111888,0 0.02035,0.72561 0.05087,0.68831 0.08137,0.64424 0.115291,0.59336 0.149195,0.54592 0.183099,0.49165 0.223786,0.43062 0.261086,0.36959 -0.03052,-0.34247 -0.0068,-0.41366 0.05087,-1.02061 0.128849,-1.25457 0.19327,-1.45799 1.118934,0 -0.122062,1.15283 -0.08477,1.23423 -0.04746,1.24778 0,1.19014 0.04069,1.06807 0.09154,0.88158 0.06442,0.34585 0.0746,0.27805 0.09154,0.19327 0.101715,0.1085 0.118676,-0.0882 0.115291,-0.17971 0.11529,-0.26109 0.108503,-0.33906 0.210224,-0.86802 0.183099,-1.06809 0.145793,-1.19691 0.101715,-1.26134 0.04746,-1.25796 -0.01701,-1.17997 2.451482,0 0,-0.003 -2.451482,0 -0.06104,-0.83412 -0.115291,-0.71882 -0.0746,-0.30178 -0.09156,-0.2577 -0.108502,-0.21022 -0.122061,-0.15936 -0.118676,0.0712 -0.111888,0.1526 -0.108503,0.23057 -0.09833,0.29837 -0.179708,0.77309 -0.149195,0.95618 -1.118934,0 0.362807,-2.35994 0.444182,-2.63458 0.979915,-5.75742 0.478091,-2.95671 0.420447,-2.90584 0.339072,-2.76682 0.125446,-1.30541 0.09494,-1.241 0,-0.24752 -0.403494,1.15283 -0.627281,2.0073 -0.769692,2.66511 -0.820552,3.12623 -0.403494,1.675 -0.38315,1.7157 -0.352634,1.73604 -0.308554,1.72928 -0.254304,1.69873 -0.19327,1.64451 -0.118676,1.5665 -0.03052,1.45801 -0.111888,0 0.166139,-2.39385 0.02035,-0.23396 0.247521,-2.74647 0.02373,-0.23057 0.318725,-2.87532 0.05764,-0.49844 0.379759,-2.92618 0.07121,-0.50182 0.457746,-3.12285 0.06104,-0.38653 0.559468,-3.41784 -0.732393,-0.12551 -0.57642,3.54668 -0.18649,1.20709 -0.111888,0.73579 -0.301774,2.11919 -0.01354,0.11527 -0.0068,0.0306 -0.284821,2.20735 -0.05764,0.48488 -0.18988,1.64788 -0.07121,0.62388 -0.176316,1.72587 -0.0339,0.34586 -0.0035,0.0238 -0.172928,1.96661 -0.03391,0.43401 -0.111888,1.55294 -0.0339,0.50861 -0.105118,1.84115 -0.08137,1.95304 -0.0035,0.13229 -0.04069,1.65127 -0.0068,0.34924 -0.01024,1.70553 0.02035,1.7496 0.0035,0.16614 0.04746,1.53938 0.0068,0.1797 0.08137,1.60381 0.115291,1.61398 0,0.0203 -0.861241,-1.22405 -0.793425,-1.25795 -0.729003,-1.28169 -0.661189,-1.30882 -0.600156,-1.32915 -0.542513,-1.3529 -0.481481,-1.36645 -0.430619,-1.3834 -0.376369,-1.3936 -0.328899,-1.40374 -0.28143,-1.40715 -0.233957,-1.41392 -0.193272,-1.41394 -0.155966,-1.41054 -0.115291,-1.40713 -0.08137,-1.40036 -0.05087,-1.39019 -0.01701,-1.37663 0.0068,-1.36307 0.0339,-1.34273 0.128849,-2.621 0.203443,-2.5193 0.250912,-2.38706 0.284819,-2.24126 0.579813,-3.95018 -0.732394,-0.11527 -0.600155,4.06885 -0.291602,2.31586 -0.261085,2.4786 -0.203442,2.61424 -0.125463,2.72274 -0.03052,1.40036 0,1.41392 0.03052,1.43429 0.06442,1.44444 0.09833,1.458 0.135637,1.4614 0.179708,1.46817 0.223786,1.47157 0.267867,1.46818 0.318727,1.4614 0.369586,1.458 0.423839,1.44444 0.484872,1.43426 0.542514,1.41733 0.606936,1.39697 0.671361,1.37663 0.739174,1.35288 0.81377,1.32238 0.884976,1.29186 0.95957,1.25796 0.01354,0.11197 0.152581,1.35629 0.02035,0.18308 0.200051,1.44784 0.01701,0.11527 0.196661,1.23084 0.06104,0.33907 0.18988,1.02739 0.05764,0.29499 0.240741,1.13589 0.128849,0.55269 0.152581,0.63744 0.139022,0.54251 0.149196,0.55948 0.501824,1.73604 0.508607,1.51904 0.0339,0.10173 0.03052,0.0882 -0.559466,1.34613 -0.525561,1.36305 -0.491652,1.38002 -0.457746,1.39697 -0.423838,1.41054 -0.389932,1.42071 -0.356025,1.43767 -0.325508,1.44782 -0.294992,1.458 -0.03052,0.16614 0.759518,0 0.169542,-0.87819 0.305166,-1.41394 0.332289,-1.40036 0.366195,-1.39019 0.393324,-1.37323 0.427229,-1.36307 0.461137,-1.34611 0.491653,-1.33255 0.525559,-1.31221 0.101715,0.25091 0.05087,0.13229 0.04069,2.58031 0.101714,2.49556 0.152581,2.41758 0.213613,2.3396 0.18649,1.59363 0.745957,0 -0.08816,-0.67815 -0.217005,-2.12936 -0.169542,-2.19719 -0.125447,-2.26498 -0.0746,-2.33959 0.162754,0.34585 0.332289,0.70527 0.305163,0.61371 0.356026,0.69511 0.325508,0.59677 0.352634,0.64084 0.356024,0.60353 0.359415,0.60356 0.366196,0.5798 0.766302,1.1698 0.322117,0.47809 0.386541,0.54251 0.403494,0.56286 0.386541,0.51878 0.400104,0.52555 0.406885,0.52557 0.406885,0.51538 0.410276,0.50523 0.325508,0.3967 1.349503,1.59704 1.013821,1.16639 0.701877,0.79681 1.597025,1.80726 0.640843,-0.32889 -1.366456,-5.75065 -0.657797,-2.98044 -0.305163,-1.57329 -0.291602,-1.64788 -0.264476,-1.73943 -0.24074,-1.84793 -0.213615,-1.97001 -0.176316,-2.11242 -0.142408,-2.26838 -0.101714,-2.43791 -0.05425,-2.62782 -0.0068,-2.83124 0.610328,1.7937 0.179708,0.48826 0.447573,1.20709 0.220396,0.55607 0.417058,1.04095 0.257694,0.60694 0.38654,0.88498 0.271257,0.59676 0.403494,0.84768 0.267867,0.54251 0.423839,0.82733 0.240741,0.45774 0.48487,0.86803 0.203443,0.36281 0.532342,0.88158 0.169542,0.27464 0.701877,1.08165 0.749346,1.06468 0.759519,0.99687 0.735783,0.89854 0.115291,0.13229 0.661188,0.75273 0.0746,0.0779 0.712048,0.74937 0.05087,0.0542 0.759519,0.74595 0.790035,0.72899 0.600156,7.26292 0.294991,0.17969 -0.223786,1.38342 -0.18988,1.40036 -0.159368,1.41054 -0.125464,1.42071 -0.09154,1.43426 -0.05764,1.44785 -0.02035,1.45799 0.01701,1.46479 0.05087,1.47835 0.09154,1.48513 0.132234,1.49531 0.169542,1.50207 0.213615,1.51227 0.254303,1.51563 0.298382,1.52583 0.339072,1.52921 0.376369,1.49531 38.806657,0 -0.017,-0.28822 -0.0135,-0.82394 0.0576,-1.8954 0.16614,-2.18023 0.27126,-2.39723 0.0204,-0.16614 0.13563,-0.095 0.41028,-0.30856 0.38993,-0.35263 0.36959,-0.38993 0.35263,-0.42724 0.33568,-0.45774 0.32212,-0.48827 0.60694,-1.05112 0.56624,-1.13928 0.53913,-1.19691 1.03755,-2.49218 0.68832,0.28483 -1.01721,2.45487 -0.53235,1.2003 -0.56624,1.15286 -0.6205,1.08502 -0.33229,0.512 -0.35264,0.48147 -0.37298,0.45775 -0.39332,0.42383 -0.42045,0.38994 -0.44418,0.35602 -0.25769,2.32943 -0.15937,2.1158 -0.0576,1.8242 0.0135,0.77986 0.017,0.30178 8.05971,0 0.62389,-0.35941 0.37298,0.64084 -1.753,1.01381 -0.37297,-0.64422 1.11893,-0.64425 -8.04954,0 0.0203,0.3662 -0.73917,0.0644 -0.0237,-0.43063 -38.80666,0 0.01024,0.0339 0.43401,1.53938 0.478091,1.54617 0.52895,1.54956 0.57642,1.55294 0.623892,1.55633 0.67475,1.55635 0.729003,1.55971 0.779863,1.56312 0.352634,0.66118 2.726131,-0.003 12.301494,0 12.033622,0.007 -0.24752,-0.40349 -0.28143,-0.50861 -0.25431,-0.51878 -0.22378,-0.52557 0.68831,-0.27126 0.21023,0.48826 0.23734,0.48488 0.26448,0.4747 0.2916,0.46453 0.66119,0.9087 0.75952,0.87481 0.84768,0.8375 0.93583,0.79683 1.01382,0.7629 1.08842,0.71883 1.15623,0.67815 1.22066,0.63744 1.2749,0.58999 1.32577,0.54252 1.37324,0.49503 1.41054,0.44759 1.44105,0.3967 1.47156,0.34247 2.28873,0.4747 2.2277,0.40688 1.08164,0.16614 1.05451,0.13228 1.02399,0.095 0.9867,0.0509 0.85785,0.007 0.82055,-0.0373 0.77986,-0.0814 0.73917,-0.13229 0.69509,-0.1831 0.64764,-0.23735 0.60015,-0.29499 0.54591,-0.35602 -0.13228,-0.21362 -0.0474,-0.22718 0.0339,-0.18987 0.0882,-0.17633 0.13905,-0.15937 0.18649,-0.13906 0.22379,-0.11527 0.2577,-0.0847 0.28482,-0.0542 0.30516,-0.0203 0.29839,0.0174 0.28481,0.0542 0.26109,0.0882 0.23056,0.11527 0.18989,0.14236 0.13906,0.16266 0.0847,0.17632 0.0306,0.1831 -0.0306,0.1831 -0.0847,0.17631 -0.13906,0.15937 -0.18989,0.14583 -0.23056,0.11527 -0.26109,0.0882 -0.28481,0.0509 -0.29839,0.0203 -0.33568,-0.0238 -0.31534,-0.0712 -0.30855,0.24073 -0.32212,0.21701 -0.68831,0.37637 -0.73919,0.29838 -0.78663,0.22379 -0.83412,0.16267 -0.87141,0.0983 -0.90532,0.0441 -0.94261,-0.007 -1.01722,-0.0542 -1.05112,-0.095 -1.07485,-0.13558 -1.10198,-0.16614 -2.25144,-0.41367 -2.2989,-0.47808 -1.49869,-0.34924 -1.47157,-0.40011 -1.44105,-0.45436 -1.40375,-0.50522 -1.35968,-0.55269 -1.3122,-0.60353 -1.25456,-0.65102 -1.19353,-0.6985 -1.12572,-0.74594 -1.04773,-0.79004 -0.97313,-0.83411 -0.88498,-0.8782 -0.79003,-0.92227 -0.35942,-0.47471 -0.33568,-0.48826 -0.0576,-0.0915 -27.057859,0 0.478091,0.89514 0.884974,1.56312 0.942617,1.55973 1.00026,1.56311 1.054511,1.55973 1.115543,1.55633 1.173185,1.55635 3.404273,4.08579 3.407662,4.00443 -0.155966,0.84767 -0.128849,0.86464 -0.105118,0.88158 -0.07798,0.89854 -0.08477,1.85134 0.01701,1.92253 0.11529,1.99374 0.217006,2.06155 0.308554,2.13274 0.410275,2.20058 -0.793425,-0.57303 -0.759519,-0.60016 -0.71883,-0.62388 -0.688315,-0.65101 -0.654407,-0.67137 -0.6205,-0.69509 -0.589984,-0.71544 -0.562856,-0.73579 -0.535733,-0.75275 -0.505216,-0.76967 -0.48487,-0.78327 -0.457746,-0.80019 -0.85446,-1.64112 -0.77308,-1.68179 -0.70866,-1.7123 -0.651016,-1.73944 -0.606937,-1.7496 -0.569639,-1.75301 -1.088418,-3.47886 -1.081636,-3.36698 -0.261084,-0.77646 -3.282208,5.66248 -0.142408,-2.15988 -0.101714,-2.17345 -0.06781,-2.19379 -0.02714,-2.20734 0.0068,-2.22093 0.04746,-2.23447 0.08477,-2.24125 0.118676,-2.25144 -0.739176,-0.0474 -0.02713,0.45775 -0.891757,-1.28169 -0.891755,-1.34273 -0.878195,-1.40374 -0.86124,-1.47158 -0.837506,-1.53938 -0.806987,-1.61058 -0.766302,-1.68858 -0.72222,-1.76656 -0.667971,-1.85132 -0.613717,-1.9327 -0.542513,-2.02088 -0.47131,-2.1158 -0.393322,-2.20735 -0.305163,-2.30569 -0.118676,-1.19012 -0.09494,-1.21728 -0.06781,-1.241 -0.04069,-1.26812 -0.742566,0.0174 0.101715,2.39044 0.19327,2.29552 0.278038,2.20734 0.356024,2.11919 0.43062,2.03444 0.498435,1.95305 0.556076,1.87506 0.613719,1.79707 0.664578,1.7191 0.705268,1.65127 0.742566,1.58008 0.776472,1.51225 0.803598,1.45122 0.820552,1.38681 0.837505,1.32915 0.844287,1.27151 -1.135888,-0.80698 -1.115544,-0.83412 -1.095198,-0.86123 -1.071465,-0.89516 -1.051119,-0.92227 -1.030775,-0.95957 -1.00026,-0.99348 -0.979915,-1.02739 -0.952791,-1.06807 -0.922273,-1.10537 -0.898537,-1.14607 -0.86463,-1.18674 -0.837505,-1.23422 -0.803599,-1.2749 -0.773083,-1.32576 -0.742564,-1.36986 -0.705268,-1.42071 -0.66797,-1.47494 -0.634062,-1.52245 -0.600156,-1.58005 -0.556077,-1.63095 -0.522169,-1.69196 -0.478089,-1.74622 -0.437403,-1.81062 -0.396712,-1.8683 -0.352633,-1.9327 -0.311947,-1.99713 -0.176316,-1.37663 -0.745957,0 0.07798,0.66119 0.318727,2.18702 0.369588,2.1124 0.420447,2.04122 0.467917,1.96999 0.518779,1.90218 0.562858,1.83778 0.610328,1.76995 0.651017,1.70891 0.698484,1.64788 0.735786,1.58687 0.779862,1.52921 0.817162,1.47156 0.857849,1.41732 0.891756,1.36646 0.929054,1.3122 0.962963,1.26473 0.996867,1.21726 1.027385,1.1698 1.057902,1.12572 1.088419,1.08502 1.115543,1.04095 1.142669,1.00364 1.169794,0.96636 1.19353,0.92906 1.217265,0.89854 1.237608,0.86123 1.261345,0.83412 0.128849,-0.13906 -0.101715,2.33621 -0.06442,2.32602 -0.02373,2.31585 0.02035,2.2989 0.05764,2.28873 0.09833,2.265 0.139023,2.24804 0.179708,2.22771 0.220396,2.20395 0.261085,2.17683 0.301773,2.14971 0.33907,2.12259 0.38315,2.08868 0.420449,2.05477 0.464527,2.02085 0.501826,1.98357 -1.007042,-0.56286 -0.969742,-0.5832 -0.932446,-0.60015 -0.895148,-0.6205 -0.864631,-0.63746 -0.830722,-0.65101 -0.800209,-0.66796 -0.773081,-0.68154 -0.742566,-0.69509 -0.71883,-0.70867 -1.366457,-1.458 -1.281687,-1.49531 -1.210483,-1.53598 -1.152842,-1.56652 -1.108762,-1.59023 -1.078244,-1.6106 -1.057903,-1.62075 -2.112411,-3.2517 -1.081636,-1.62075 -1.112153,-1.6106 -0.823943,-1.15962 0.15258,1.41732 0.447573,3.84846 0.247524,1.85472 0.271256,1.79368 0.288209,1.73266 0.318728,1.66144 0.342462,1.58347 0.372977,1.49869 -0.688314,-0.92906 -0.698486,-1.04434 -0.705268,-1.16301 -0.712048,-1.27491 -0.708658,-1.38679 -0.705268,-1.48853 -0.698487,-1.59364 -0.691703,-1.69535 -0.80699,-2.14632 -0.779863,-2.2616 -0.752738,-2.3735 -0.715439,-2.47521 -0.678142,-2.56676 -0.630672,-2.64816 -0.576422,-2.72613 -0.522169,-2.79055 -0.450963,-2.77699 -0.383151,-2.82446 -0.318726,-2.86514 -0.24074,-2.89229 -0.16614,-2.9194 -0.08137,-2.92957 0.01024,-2.93975 0.09833,-2.93974 0.200051,-2.92617 0.135637,-1.4614 0.162754,-1.45123 0.18988,-1.44783 0.220396,-1.44105 0.244131,-1.43088 0.105117,-0.53913 -0.759518,0 -0.23396,1.29526 -0.237348,1.47834 -0.203444,1.48514 -0.179706,1.48852 -0.149196,1.49869 -0.122061,1.49869 -0.09494,1.50209 -0.115291,3.01433 -0.01701,3.01434 0.0746,3.00756 0.162754,2.99061 0.244131,2.96348 0.322117,2.93636 0.393322,2.89227 0.457746,2.84482 0.525561,2.80749 0.583201,2.74309 0.634062,2.66849 0.681534,2.58371 0.72222,2.49218 0.756129,2.39045 0.790035,2.28196 0.81377,2.16665 0.834115,2.03782 0.847677,1.90558 0.85785,1.76316 0.864631,1.6106 0.864631,1.45461 0.861239,1.28846 0.85785,1.11555 0.42384,0.48826 0.420447,0.44418 0.613719,-0.37637 -0.413668,-1.41392 -0.376367,-1.52581 -0.345853,-1.63433 -0.315337,-1.72587 -0.291599,-1.80726 -0.264476,-1.87506 -0.484872,-3.91625 1.047728,1.5665 1.030776,1.58007 2.05138,3.17031 1.044339,1.58006 1.078244,1.56652 1.115545,1.54956 1.169795,1.52581 1.234217,1.49192 1.312204,1.458 1.396973,1.41392 0.739175,0.68832 0.762909,0.67475 0.793427,0.66457 0.820552,0.64425 0.851067,0.63406 0.888366,0.61372 0.918883,0.60015 0.952789,0.57981 0.993479,0.56286 1.030775,0.54251 0.749346,0.37976 -0.223786,-0.81037 -0.559468,-2.1158 -0.508605,-2.1599 -0.464527,-2.20396 -0.413668,-2.24465 -0.369586,-2.28194 -0.322118,-2.31585 -0.274647,-2.35315 -0.227179,-2.37689 2.990605,-5.15728 1.064684,3.38733 1.098589,3.50259 0.589984,1.76656 0.630672,1.76318 0.681532,1.7496 0.749348,1.72926 0.823941,1.69196 0.444185,0.82735 0.467917,0.81715 0.491653,0.8036 0.515387,0.79004 0.545904,0.76969 0.576421,0.75612 0.603547,0.7324 0.634062,0.71544 0.671361,0.69171 0.701877,0.67135 0.742565,0.64424 0.776473,0.6205 0.817161,0.59338 0.854458,0.56624 0.749347,0.4713 -0.18988,-0.86462 -0.437401,-2.18022 -0.335681,-2.10563 -0.233958,-2.03105 -0.139022,-1.95982 -0.04408,-1.88863 0.05087,-1.81742 0.142407,-1.74622 0.230569,-1.68179 0.817161,2.57016 0.376361,1.30882 0.34925,1.32915 0.31872,1.34951 0.28482,1.38002 0.24752,1.40374 0.20684,1.44106 0.15596,1.47834 0.10851,1.51566 0.0542,1.55973 -0.007,1.60381 -0.0678,1.65465 -0.0102,0.12552 0.70527,0 0.0407,-0.59 0.0475,-1.4919 0.003,-1.45123 -0.0475,-1.41732 -0.0915,-1.38002 -0.12884,-1.34949 -0.16955,-1.319 -0.20344,-1.29185 -0.23735,-1.26473 -0.26447,-1.24101 -0.2916,-1.22065 -0.31534,-1.20031 -0.6951,-2.34976 4.70631,5.53024 2.35315,2.8143 2.35315,2.87192 -0.86124,1.58686 -0.88836,1.49869 -0.90871,1.41392 -0.92906,1.33594 -0.9494,1.26134 -0.96974,1.19353 -0.9833,1.12911 -1.00365,1.07147 0.21361,-1.62076 0.15937,-1.57667 0.061,-0.93585 -0.70527,0 -0.12546,1.57669 -0.20684,1.76655 -0.28143,1.82421 -0.19327,1.12911 0.82056,-0.80021 1.10876,-1.12911 1.08842,-1.19353 1.07146,-1.26813 1.04773,-1.34949 1.02399,-1.43088 1.00026,-1.52244 0.97314,-1.61737 0.94939,-1.7157 1.59364,2.00392 1.59702,2.04799 1.59364,2.09884 1.59702,2.15309 0.61711,0.46794 0.68492,0.41366 0.75274,0.3628 0.81377,0.31534 0.87819,0.26108 0.93923,0.21362 1.00026,0.16267 1.0579,0.1118 1.11215,0.0679 1.16641,0.0174 1.22065,-0.0306 1.27152,-0.0747 1.31899,-0.12551 1.36645,-0.16961 1.41393,-0.21361 1.458,-0.2611 3.82811,-0.85444 3.68571,-0.90193 3.55345,-0.93923 3.42122,-0.97991 3.29918,-1.02061 3.17708,-1.05112 3.06521,-1.08843 2.95331,-1.12232 2.85159,-1.14945 2.75326,-1.17657 2.65831,-1.2037 2.57015,-1.22743 2.4854,-1.25119 2.40739,-1.26812 2.33621,-1.28846 2.26838,-1.30544 0.71204,-0.75273 -3.32627,1.88524 -3.31612,1.77672 -3.30593,1.66823 -3.29239,1.56652 -3.2822,1.46479 -3.26187,1.36984 -3.24829,1.2783 -3.22797,1.19013 -3.211,1.10877 -3.18727,1.02399 -3.16691,0.9528 -3.14319,0.87819 -3.11607,0.81037 -3.08893,0.74596 -3.0652,0.68832 -3.0313,0.63067 2.84481,-0.69171 2.74647,-0.69848 2.65493,-0.71205 2.56337,-0.71883 2.47521,-0.72561 2.38706,-0.73579 2.30231,-0.73917 2.2209,-0.74258 2.13955,-0.74934 2.06155,-0.75612 1.98356,-0.75275 1.90897,-0.75952 1.83777,-0.75611 1.76655,-0.75952 1.69875,-0.75952 1.63433,-0.75613 3.07198,-1.5021 2.83463,-1.48852 2.61085,-1.46478 2.40062,-1.43427 2.21413,-1.39698 2.03442,-1.35288 1.88185,-1.30543 1.73943,-1.24438 0.86464,-0.65102 0.83411,-0.67136 0.8036,-0.69171 0.77646,-0.70527 2.33281,-2.80072 2.265,-2.86176 -0.6544,1.80725 -0.35264,0.87141 -0.37298,0.84767 -0.39331,0.82733 -0.41707,0.81039 -0.4374,0.79004 -0.46114,0.77646 -1.06128,1.4614 0.0611,0.0441 -0.84768,1.1325 -0.91888,1.10876 -0.71883,0.79343 -0.75952,0.78663 -0.8036,0.77987 -0.85446,0.77986 -0.89852,0.77648 -0.9528,0.77987 -1.00365,0.77985 -1.0579,0.78665 -1.11554,0.79004 -1.17319,0.80021 -2.52608,1.63093 -2.78038,1.68856 -3.05163,1.75639 -0.84091,0.47132 0.93924,0.2136 1.83437,0.38655 1.81064,0.3255 1.7903,0.26447 1.76654,0.21024 1.73945,0.1526 1.70891,0.095 1.68179,0.0406 1.64789,-0.0139 1.61058,-0.0644 1.57669,-0.11875 1.53598,-0.16944 1.49192,-0.217 1.45123,-0.26787 1.40374,-0.31534 1.3529,-0.35941 1.30542,-0.4069 -0.48488,0.81039 -0.51537,0.78663 -0.55269,0.76631 -0.58659,0.74258 -0.6205,0.72221 -0.6578,0.70188 -0.69171,0.67813 -0.729,0.65781 -0.76291,0.63746 -0.79682,0.61711 -0.83412,0.59336 -0.87141,0.57303 -0.90871,0.55269 -0.94262,0.53572 -0.97991,0.51202 -1.01722,0.48826 0.2238,0.70186 2.87532,-0.56286 2.83124,-0.61032 2.78717,-0.6578 2.7363,-0.70527 2.69222,-0.75612 2.63458,-0.81377 2.58372,-0.86802 2.52608,-0.92906 2.46504,-0.99008 2.40741,-1.05451 2.3396,-1.11893 2.27515,-1.18676 2.20396,-1.26134 2.13615,-1.33255 1.03756,-0.69171 1.02401,-0.71544 1.00025,-0.73239 0.9833,-0.75273 -0.12205,1.01381 -0.14582,0.96974 -0.16267,0.92568 -0.1831,0.88158 -0.20345,0.84429 -0.217,0.80359 -0.48827,1.50548 -0.54589,1.37323 -0.59677,1.26474 -0.64424,1.1664 -0.68154,1.08843 0.49843,0.52555 0.85108,-0.52555 0.85106,-0.55948 0.85447,-0.59676 0.85446,-0.63067 0.81038,-0.0509 0.79343,-0.0847 0.77646,-0.11874 0.76292,-0.15937 0.74256,-0.19666 0.72223,-0.23397 0.70865,-0.27125 0.68492,-0.31195 0.66798,-0.35263 0.64423,-0.39332 0.62728,-0.43741 0.60354,-0.47809 0.57982,-0.52216 0.55946,-0.56286 0.53574,-0.61033 0.51199,-0.6544 1.6818,2.06494 1.70213,2.00391 1.72249,1.9293 1.75299,1.84116 0.88836,0.88158 0.89854,0.85785 0.90532,0.82394 0.9121,0.79683 0.92567,0.7629 0.93583,0.729 0.94939,0.69171 0.9562,0.6544 0.74934,0.49167 -0.17971,-0.87481 -0.40688,-2.1158 -0.33568,-2.01069 -0.26787,-1.91914 -0.20683,-1.8276 -0.14583,-1.74961 -0.095,-1.67161 -0.0476,-1.6072 -0.003,-1.54617 0.90531,-0.51199 0.90533,-0.54929 0.90193,-0.58321 0.90192,-0.62049 0.89854,-0.65781 0.89855,-0.69509 0.89854,-0.73238 0.89514,-0.7697 0.89175,-0.80359 0.89175,-0.84429 0.89177,-0.8782 0.88835,-0.91889 0.88837,-0.95279 0.88498,-0.99347 1.76995,-2.09207 1.75978,-2.24465 1.75639,-2.39385 1.753,-2.54302 1.74622,-2.69561 1.73943,-2.84142 1.73604,-2.9974 1.72926,-3.14657 1.72587,-3.29576 -0.29159,2.21413 -0.31874,2.15988 -0.34245,2.10563 -0.37299,2.05476 -0.39332,2.00053 -0.42045,1.94626 -0.44418,1.8988 -0.46453,1.85134 -0.48827,1.80046 -0.5052,1.75299 -0.52557,1.70552 -0.5459,1.66485 -0.56286,1.61737 -0.57642,1.57329 -0.59676,1.5326 -0.60694,1.49192 -0.62388,1.44782 -0.63408,1.41392 -0.64761,1.37325 -0.65442,1.33593 -1.34611,2.56338 -1.37323,2.42775 -1.40036,2.30229 -1.41394,2.18022 -1.42409,2.06494 -1.42409,1.96322 0.51538,0.52219 0.79003,-0.59677 0.81377,-0.66119 0.83074,-0.72561 0.84427,-0.78325 0.86125,-0.84429 0.87819,-0.90533 0.88497,-0.95956 0.89854,-1.02061 0.90872,-1.07146 0.91548,-1.12572 0.92227,-1.17996 0.92568,-1.23084 0.92904,-1.2783 0.93245,-1.32915 0.93583,-1.37663 0.92906,-1.42409 0.93245,-1.46819 0.92566,-1.51563 0.92227,-1.55295 0.9155,-1.59704 0.90531,-1.63771 0.89854,-1.67839 0.88497,-1.7157 0.87481,-1.74961 0.86123,-1.7869 0.84429,-1.82081 0.82736,-1.85472 0.81375,-1.88524 0.79004,-1.91574 0.76969,-1.94628 0.74596,-1.97339 0.72562,-2.00051 0.69171,-2.00392 0.66457,-2.02765 0.63746,-2.05137 0.60694,-2.07173 0.57641,-2.09545 0.54253,-2.1124 0.51199,-2.12938 0.47471,-2.14631 0.44078,-2.1599 0.4001,-2.17682 0.36282,-2.1904 0.31872,-2.20058 0.27804,-2.21074 0.23734,-2.22091 0.18989,-2.2277 0.14235,-2.23787 0.095,-2.24125 0.0441,-2.24805 -0.007,-2.24804 -0.0576,-2.25482 -0.1118,-2.25143 -0.16614,-2.25482 -0.22378,-2.25142 -0.28143,-2.24806 -0.34247,-2.24463 -0.40349,-2.24127 -0.46453,-2.23448 -0.53234,-2.2243 -0.59338,-2.21752 -0.66119,-2.20736 -0.729,-2.19717 -0.80019,-2.18702 0.55267,-3.06519 0.48828,-3.02113 0.42043,-2.97704 0.34924,-2.93296 0.27805,-2.88549 0.20683,-2.84142 0.13229,-2.79055 0.0542,-2.7397 -0.0238,-2.69222 -0.10174,-2.63797 -0.18648,-2.58712 -0.26787,-2.53286 -0.35265,-2.47521 -0.44078,-2.42097 -0.52895,-2.36332 -0.61711,-2.30569 -0.71206,0.20683 0.60355,2.25144 0.51879,2.31246 0.43062,2.3701 0.34586,2.42436 0.26785,2.47861 0.1831,2.53625 0.1052,2.58712 0.0271,2.63797 -0.0509,2.68882 -0.12204,2.74309 -0.19666,2.78716 -0.26787,2.83463 -0.33567,2.8855 -0.40689,2.92618 -0.46792,2.97366 -0.53572,3.01434 -0.3323,0.13229 0.20683,0.52895 -0.50861,2.5532 -0.5493,2.58712 -0.58997,2.61084 -0.63067,2.64137 -0.67475,2.66509 -0.70867,2.69222 -0.74935,2.71597 -0.78663,2.74308 -0.82056,2.76682 -0.85785,2.78715 -1.81741,5.64893 -1.94628,5.7303 -2.07172,5.81506 0.69849,0.25432 2.01407,-5.65232 1.8988,-5.57433 1.78014,-5.49635 1.65127,-5.41496 0.77308,-2.67187 0.74256,-2.65153 0.70188,-2.62781 0.67136,-2.60407 0.63067,-2.57693 0.58998,-2.5566 0.55609,-2.52608 0.51199,-2.50234 0.74256,2.13275 0.67815,2.14632 0.61371,2.1565 0.5493,2.16667 0.48488,2.17344 0.42722,2.18022 0.36959,2.187 0.30856,2.1904 0.25091,2.19719 0.20005,2.19717 0.14235,2.19719 0.0915,2.20057 0.0406,2.19718 -0.0104,2.19378 -0.0576,2.1938 -0.1052,2.187 -0.1526,2.18361 -0.19666,2.17346 -0.23735,2.16665 -0.28143,2.15988 -0.32211,2.14973 -0.35941,2.13613 -0.39672,2.12259 -0.43401,2.11242 -0.4713,2.09545 -0.50184,2.0819 -0.53573,2.06155 -0.56624,2.04459 -0.59338,2.02426 -0.62388,2.0073 -0.65102,1.98357 -0.67815,1.95982 -0.6544,1.82082 -0.67815,1.79368 -1.41054,3.52295 -1.47834,3.42122 -1.53598,3.30933 -1.58347,3.19745 -1.62415,3.06859 -1.65468,2.93975 -1.67839,2.80072 -1.68858,2.65493 -1.68858,2.49895 -1.68517,2.34298 -1.67162,2.17006 -1.64449,1.99712 -1.61059,1.81064 -1.5665,1.62414 -0.76631,0.73579 -0.75273,0.68832 1.36305,-1.98695 1.34952,-2.08869 1.33932,-2.19717 1.31899,-2.31248 1.28846,-2.43452 1.25457,-2.56337 1.21049,-2.69901 0.58998,-1.40375 0.57641,-1.44105 0.56286,-1.47835 0.54931,-1.51565 0.53234,-1.55635 0.51537,-1.59702 0.49844,-1.63771 0.48149,-1.67839 0.46451,-1.72248 0.4408,-1.76995 0.42384,-1.81064 0.40349,-1.85811 0.37976,-1.9022 0.35603,-1.95305 0.3323,-1.99712 0.30854,-2.05138 0.28143,-2.09884 0.2577,-2.14971 0.0542,0.003 0.43401,-5.54381 -0.73918,-0.0576 -0.37299,4.75716 -0.003,0 -1.75639,3.44836 -1.75977,3.2856 -1.76318,3.12623 -1.76995,2.96348 -1.77333,2.80751 -1.77674,2.64814 -1.7835,2.48539 -1.78353,2.33281 -1.79029,2.17344 -0.89514,1.02739 -0.89854,0.99008 -0.89515,0.94941 -0.89854,0.9121 -0.90193,0.8714 -0.89854,0.83412 -0.90193,0.79343 -0.90191,0.75951 -0.90195,0.71545 -0.90192,0.68153 -0.90532,0.64084 -0.90532,0.60354 -0.90532,0.56286 -0.90531,0.52895 0.0474,-1.32237 0.0712,-1.28508 0.20345,-2.48879 0.26449,-2.41079 0.29158,-2.3735 -0.73577,-0.095 -0.31195,2.53624 -0.27464,2.59729 -0.20006,2.69561 -0.0644,1.40376 -0.0339,1.44444 0,1.49531 0.0406,1.54954 0.0847,1.61059 0.12882,1.67501 0.18308,1.7496 0.23735,1.82422 0.29839,1.90897 0.3628,2.00051 -0.90531,-0.65102 -0.89516,-0.68832 -0.88837,-0.71542 -0.87817,-0.74937 -0.87143,-0.77646 -0.86462,-0.80698 -1.70554,-1.69197 -1.68517,-1.78352 -1.66145,-1.87166 -1.6411,-1.94628 -1.62415,-2.0039 -0.31195,-0.39333 -0.28482,0.41368 -0.44757,0.61709 -0.46791,0.57644 -0.48827,0.53572 -0.50522,0.49844 -0.52217,0.46113 -0.54251,0.42045 -0.56286,0.38655 -0.57642,0.34924 -0.59676,0.31195 -0.61373,0.28143 -0.63405,0.24412 -0.64764,0.21021 -0.66457,0.17972 -0.68492,0.14913 -0.6985,0.11527 -0.71544,0.0882 1.19693,-0.99348 1.19353,-1.05791 1.19353,-1.11894 1.19013,-1.18335 1.19014,-1.241 1.18676,-1.30203 1.17996,-1.36307 1.17318,-1.41731 1.1698,-1.47157 1.15962,-1.52921 1.15284,-1.58008 1.14607,-1.63092 1.13249,-1.6818 1.12572,-1.73265 1.10876,-1.78013 1.10198,-1.82758 1.08503,-1.87168 1.07147,-1.91574 1.05451,-1.95644 1.04095,-2.00053 1.0206,-2.0412 1.00704,-2.0785 0.9833,-2.1158 0.96635,-2.15311 0.946,-2.187 0.92568,-2.22092 0.90192,-2.25482 0.8782,-2.28535 0.85446,-2.31584 0.82733,-2.34298 0.8036,-2.3701 0.77646,-2.39724 0.74936,-2.41419 0.71545,-2.43793 0.6883,-2.45825 0.65781,-2.482 0.62726,-2.49895 0.59338,-2.51591 0.55948,-2.53625 0.52893,-2.54982 0.49167,-2.56337 0.45436,-2.58033 0.42043,-2.58711 0.37976,-2.60068 0.34247,-2.61085 0.30516,-2.61762 0.10521,-1.05112 0.67474,0 0,-0.007 -0.67474,0 0.15589,-1.56652 0.2238,-2.62779 0.18648,0.0915 0.96635,-2.08869 0.90532,-2.20734 0.85107,-2.33622 0.79343,-2.46504 0.729,-2.60068 0.66797,-2.73968 0.60354,-2.8855 0.41028,-2.32942 -0.76631,0 -0.14235,0.86464 -0.48148,2.50912 -0.52555,2.40062 -0.57644,2.2989 -0.61709,2.19719 -0.66119,2.09545 -0.70527,2.00052 -0.74596,1.90558 -0.78665,1.81403 0.14583,-2.49557 0.1085,-2.49217 0.0712,-2.49556 0.0271,-2.49557 -0.0104,-2.49556 -0.0576,-2.49216 -0.0983,-2.48879 -0.13906,-2.48199 -0.18649,-2.47861 -0.23058,-2.47183 -0.27803,-2.46505 -0.3255,-2.45487 -0.36959,-2.44469 -0.42045,-2.43454 -0.47132,-2.42097 -0.51876,-2.41079 0.52555,1.6445 0.50861,1.68857 0.48826,1.753 0.46453,1.82081 0.43401,1.90557 0.40688,2.00053 0.36958,2.10223 0.3323,2.22092 0.14235,1.05112 0.5459,-0.9121 0.54592,-0.95279 0.51876,-0.97653 0.48828,-0.99687 0.46113,-1.01381 0.4374,-1.03418 0.41028,-1.05112 0.38314,-1.06807 0.35603,-1.08164 0.33568,-1.0952 0.30856,-1.10536 0.54929,-2.24805 0.46453,-2.28533 0.37637,-2.31246 -0.0611,3.45851 -0.11527,3.33308 -0.17291,3.2076 -0.22718,3.08216 -0.27804,2.96347 -0.3323,2.84821 -0.38314,2.72951 -0.28822,1.74962 0.76969,0 0.12204,-0.69509 0.46792,-3.18051 0.40011,-3.33983 0.3221,-3.49922 0.25093,-3.66536 0.17631,-3.8315 0.0983,-4.00781 0.0174,-4.18414 -0.0644,-4.36723 0,-0.0271 -0.74256,-0.007 -0.0814,1.54277 -0.11528,1.54277 -0.14912,1.54277 -0.1797,1.53939 -0.21362,1.52921 -0.25431,1.52242 -0.2882,1.50887 -0.32551,1.4953 -0.3662,1.47496 -0.40349,1.45461 -0.44757,1.43427 -0.49167,1.40715 -0.53234,1.38002 -0.57642,1.34611 -0.62388,1.31561 -0.67136,1.27828 -0.30178,-1.87845 -0.33229,-1.79707 -0.35263,-1.72248 -0.37976,-1.65468 -0.39672,-1.59023 -0.41705,-1.53938 -0.43401,-1.48852 -0.44418,-1.44784 -0.92228,-2.79734 -0.9494,-2.71596 -0.95278,-2.68543 -0.94262,-2.71257 -0.0509,0.0174 -0.10851,-0.34245 z"
       id="path8485"
       inkscape:connector-curvature="0" />
    <path
       style="display:inline;fill:#cc0000;fill-rule:evenodd;stroke:none;stroke-width:1px;stroke-linecap:butt;stroke-linejoin:miter;stroke-opacity:1"
       d="m 111.06231,423.0593 -1.54616,0.23735 -1.47835,0.217 0.23735,0.34925 0.17632,0.38654 0.11189,0.41706 0.0407,0.44418 -0.0441,0.46452 -0.12546,0.44419 -0.20344,0.41366 -0.27804,0.37298 0.23735,0.16954 0.17971,0.22378 0.11528,0.26109 0.0407,0.2916 -0.0237,0.21361 -0.061,0.20006 -0.0983,0.1797 -0.12884,0.15937 -0.15937,0.12884 -0.1797,0.0983 -0.20006,0.061 -0.21361,0.0203 -0.21362,-0.0203 -0.20005,-0.061 -0.1831,-0.0983 -0.15597,-0.12884 -0.13224,-0.15937 -0.0983,-0.1797 -0.061,-0.20006 -0.0203,-0.21361 0.007,-0.12207 -0.34585,0.0271 -0.37637,-0.0271 -0.36281,-0.0814 -0.34246,-0.13224 -0.31873,-0.17971 -0.28821,-0.22039 -0.25769,-0.26448 -0.21701,-0.29838 -0.17632,-0.33229 -0.39332,0.85446 -0.36619,0.86463 -0.33907,0.8748 -0.30856,0.87819 -0.28143,0.88498 -0.25769,0.89176 -0.22718,0.89854 -0.20344,0.89853 -0.32551,1.80725 -0.23057,1.81403 -0.13563,1.81064 -0.0475,1.80386 0.57642,0.27125 0.57981,0.23057 0.21362,-1.63771 3.44835,-2.13954 -0.20344,0.70527 -0.15936,0.69509 -0.11868,0.68832 -0.078,0.67475 -0.0373,0.66119 0,0.64423 0.0373,0.63067 0.0678,0.60694 0.0712,0.4035 -3.3941,0 0.0509,-0.89515 -0.51538,-0.1831 -0.51878,-0.21022 0.0644,1.28847 -3.940002,0 0,0.007 3.940002,0 0.0169,0.3289 0.1492,1.6038 0.21361,1.57668 0.27465,1.54956 0.33229,1.51225 0.38654,1.47157 0.44079,1.42749 0.48487,1.37663 0.94601,0.22039 1.00365,0.18649 1.06129,0.15937 1.12572,0.12545 1.19014,0.0915 1.26134,0.0543 1.33594,0.017 1.41054,-0.0204 0.41705,-0.46792 0.43401,-0.52556 0.44419,-0.58659 0.44757,-0.64762 -0.27126,-0.0678 -0.28142,-0.14241 -0.27126,-0.20683 -0.25431,-0.26109 -0.0881,-0.11528 -0.4408,0.40349 -0.45435,0.36281 -0.46792,0.32551 -0.48148,0.28821 -0.48826,0.24413 -0.49505,0.20344 -0.49843,0.16276 -0.50182,0.11867 -0.50183,0.0746 -0.50182,0.0339 -0.49844,-0.0136 -0.49165,-0.0576 -0.48487,-0.10511 -0.47131,-0.14919 -0.46453,-0.20006 -0.44757,-0.24413 -0.43062,-0.29499 -0.41367,-0.34585 -0.39332,-0.39332 -0.36959,-0.44419 -0.34585,-0.49504 -0.32212,-0.5493 -0.2916,-0.60015 -0.25769,-0.65441 -0.22718,-0.70866 -0.19327,-0.76291 -0.15597,-0.81716 -0.11529,-0.8748 -0.0746,-0.92905 -0.0339,-0.99009 0.0136,-1.04434 0.0102,-0.20344 3.3941,0 0.0305,0.1797 0.13563,0.56625 0.15936,0.53913 0.18988,0.51199 0.21362,0.48488 0.23735,0.45774 0.25769,0.42045 0.27804,0.38993 0.29838,0.34924 0.31195,0.31534 0.32889,0.27465 0.34247,0.23057 0.35263,0.18988 0.36281,0.14241 0.36958,0.0983 0.37298,0.0475 0.37976,-0.007 0.38315,-0.0576 0.38315,-0.11189 0.38315,-0.16954 0.37637,-0.22717 0.37637,-0.28821 0.3662,-0.34925 0.35941,-0.41367 -0.34924,0.23057 -0.35942,0.19327 -0.3662,0.15937 -0.36619,0.12206 -0.36959,0.0848 -0.37298,0.0475 -0.36958,0.0102 -0.36959,-0.0305 -0.52217,-0.10851 -0.49843,-0.1797 -0.46792,-0.25092 -0.4408,-0.31533 -0.40688,-0.37298 -0.37637,-0.43401 -0.33907,-0.48148 -0.30177,-0.53573 -0.26448,-0.57642 -0.22039,-0.61711 -0.13902,-0.51878 3.69926,0 0,-0.007 -3.70265,0 -0.0339,-0.12546 -0.12885,-0.68492 -0.0848,-0.71205 -0.0305,-0.73918 0.017,-0.75273 0.0746,-0.77309 0.12206,-0.72561 0.16276,-0.70188 0.20683,-0.67475 0.24413,-0.64423 0.28143,-0.60694 0.31534,-0.56964 0.34585,-0.52895 0.37637,-0.48487 0.4001,-0.4374 0.42384,-0.38654 0.44757,-0.33568 0.46114,-0.27804 0.47809,-0.2204 0.49165,-0.15597 0.50183,-0.0882 0.51199,-0.0237 0.3662,0.0305 0.52217,0.10851 0.49504,0.1797 0.46792,0.25092 0.44079,0.31533 0.41028,0.37298 0.37298,0.43401 0.34246,0.48487 0.30177,0.53235 0.26109,0.57642 0.22039,0.61711 0.17632,0.65101 0.13224,0.68492 0.0814,0.71205 0.0339,0.73918 -0.0203,0.75613 -0.0746,0.76969 -0.11867,0.71883 -0.16615,0.70187 -0.21022,0.68493 -0.2543,0.6578 1.23082,2.64814 -0.16275,0.64762 -0.19327,0.6239 -0.21701,0.59676 -0.24074,0.56964 -0.26108,0.5459 -0.18988,0.34586 -3.01773,0 0,0.007 3.01434,0 -0.0915,0.16953 -0.30516,0.49165 -0.32212,0.46792 0.29499,0.30178 0.2543,0.37637 0.15937,0.38993 0.4374,-0.7663 0.43062,-0.82055 0.2916,-0.61033 66.65117,0 0.003,0.0102 0.007,0.34924 -0.0441,0.35603 -0.0949,0.3628 -0.1458,0.35942 -0.19327,0.35263 -0.23735,0.33568 -0.28482,0.31873 -0.34585,0.30516 0.18987,-0.017 0.22379,0.0237 0.21023,0.0746 0.19666,0.12207 0.17292,0.16275 0.14241,0.20005 0.10511,0.22379 0.0644,0.24413 0.0203,0.25769 -0.0237,0.26448 -0.0644,0.24413 -0.10511,0.22379 -0.13902,0.19327 -0.16614,0.15936 -0.19327,0.12207 -0.21362,0.0746 -0.23057,0.0271 -0.22717,-0.0271 -0.21362,-0.0746 -0.19327,-0.12207 -0.16614,-0.15936 -0.13902,-0.19327 -0.10511,-0.22379 -0.0678,-0.24413 -0.0203,-0.26448 0.0203,-0.24413 0.0576,-0.23396 0.0949,-0.21361 0.12885,-0.19666 -0.45096,0.1797 -0.44419,0.10173 -0.43401,0.0203 -0.40688,-0.061 -0.003,0 -0.64763,0.78664 -0.61372,0.79343 -0.57642,0.79342 -0.54251,0.80021 -0.50861,0.80021 -0.47809,0.8036 -0.44079,0.8002 -0.41028,0.80021 -0.37636,0.80021 -0.34586,0.79682 -0.31194,0.79003 -0.28143,0.78665 -0.25091,0.78325 -0.22379,0.77647 -0.18988,0.7663 -0.16276,0.75952 0.91889,0.70527 0.22718,-0.75952 4.13666,-2.77699 -0.23057,1.28169 -0.15597,1.20709 -0.078,1.12572 -0.0102,1.05112 0.0542,0.96974 0.11868,0.89854 0.17631,0.82055 0.0339,0.1085 0.62728,0 -0.007,-0.0237 -0.0983,-0.54252 -0.0542,-0.56625 -0.007,-0.58998 0.0407,-0.60355 0.0882,-0.6205 0.13901,-0.63067 0.18988,-0.63406 0.23735,-0.63745 0.28821,-0.63407 0.24414,-0.46113 0.26786,-0.4408 0.28143,-0.42383 0.30177,-0.39672 0.31873,-0.37637 0.3289,-0.35263 0.34246,-0.32551 0.35602,-0.29838 0.36281,-0.27126 0.37298,-0.24074 0.37637,-0.21361 0.38315,-0.17632 0.38654,-0.14919 0.38993,-0.11189 0.38654,-0.0746 0.38654,-0.0407 0.45775,0.003 0.44079,0.0577 0.42045,0.11189 0.4001,0.16614 0.41028,0.24414 0.36958,0.29838 0.32551,0.34924 0.27804,0.39671 0.23735,0.4374 0.19327,0.4747 0.1458,0.512 0.10172,0.54252 0.0542,0.56624 0.007,0.5866 -0.0407,0.60693 -0.0915,0.6205 -0.13902,0.63068 -0.18649,0.63406 -0.23735,0.63745 -0.28821,0.63067 -0.33229,0.61372 -0.3662,0.57303 -0.39332,0.53234 -0.41706,0.49165 -0.44079,0.44419 -0.46113,0.39671 -0.47131,0.34924 -0.48488,0.30178 -0.49165,0.24413 -0.49504,0.18988 -0.49843,0.13563 -0.49166,0.0746 -0.48487,0.0136 -0.4747,-0.0475 -0.46114,-0.11529 -0.44079,-0.17971 -0.41027,-0.24413 -0.36959,-0.29838 -0.32551,-0.34924 -0.23057,-0.32551 2.11581,0 0,-0.007 -2.12259,0 -0.0441,-0.0644 -0.23735,-0.4374 -0.18988,-0.47809 -0.13902,-0.47809 -0.62728,0 0.19327,0.63067 0.28143,0.67136 0.0848,0.15598 -5.46921,0 -0.0204,-0.23396 -0.0136,-0.96974 0.0136,-0.25431 0.003,-0.007 0.0441,-0.75952 0.13902,-1.06807 0.21701,-1.11894 -0.85785,-0.57303 -0.11868,0.99348 -0.0678,0.96974 -0.017,0.94601 0.0203,0.61033 0,0.007 0.0102,0.30177 0.0746,0.89176 0.0373,0.26448 -3.49582,0 0,0.007 3.49582,0 0.0848,0.58659 0.16614,0.82394 0.21023,0.79004 0.25091,0.74935 0.29499,0.71204 0.33229,0.66458 0.37298,0.6239 0.41028,0.57302 0.44418,0.52217 0.48148,0.47131 0.51878,0.41706 0.57303,0.38654 0.62389,0.35602 0.67136,0.31534 0.71205,0.27465 0.74595,0.22378 0.78326,0.16615 0.80699,0.10172 0.83411,0.0305 0.85107,-0.0475 0.86463,-0.13224 0.87819,-0.2204 0.88159,-0.32211 0.88497,-0.42384 0.88159,-0.53573 0.8748,-0.65441 0.43401,-0.37298 0.43062,-0.40688 -0.23056,-0.39672 -0.17293,-0.40349 -0.58659,0.61033 -0.61711,0.5459 -0.64085,0.48487 -0.66458,0.42384 -0.68153,0.36281 -0.69509,0.30177 -0.70527,0.23735 -0.71205,0.1831 -0.71883,0.11867 -0.71544,0.0644 -0.71205,0.003 -0.70188,-0.0542 -0.69509,-0.11529 -0.67475,-0.16954 -0.66119,-0.22378 -0.63746,-0.28482 -0.61032,-0.33568 -0.57981,-0.39332 -0.54591,-0.45097 -0.512,-0.50182 -0.4713,-0.55608 -0.42384,-0.61033 -0.37637,-0.66119 -0.3289,-0.71543 -0.26787,-0.7663 -0.21361,-0.82056 -0.14919,-0.86802 -0.061,-0.68153 5.4726,0 0.23735,0.4374 0.36959,0.52556 0.41027,0.45775 0.44079,0.38315 0.4747,0.31194 0.49844,0.24413 0.52556,0.17632 0.53912,0.10511 0.55947,0.0407 0.56964,-0.0271 0.57303,-0.0915 0.57981,-0.15937 0.57981,-0.22379 0.57303,-0.28481 0.56625,-0.35264 0.55268,-0.41027 0.53913,-0.4747 0.51538,-0.53574 0.49505,-0.59337 0.46453,-0.65441 0.43401,-0.71544 0.39671,-0.76969 0.35942,-0.83072 0.6171,5.24882 -0.42383,0.8375 -0.46453,0.77986 0.4001,0.2204 0.39332,0.32212 0.49166,-0.68153 0.47809,-0.7324 0.47131,-0.78664 0.45774,-0.84429 0.44418,-0.90193 0.43062,-0.95957 0.42045,-1.0206 0.40011,-1.08503 0.38654,-1.14606 0.36958,-1.21048 0.35264,-1.2783 0.33229,-1.34611 0.31194,-1.41732 0.2916,-1.48513 0.26787,-1.55972 0.24752,-1.63433 -1.30881,-1.40036 -1.32577,-1.3868 -1.36646,-1.34272 -0.70526,-0.65102 -0.72562,-0.63745 -0.74595,-0.61372 -0.76969,-0.58998 -0.79682,-0.56625 -0.82733,-0.53912 -0.48148,-0.28482 3.22456,0 0,-0.007 -3.23473,0 -0.3662,-0.21701 -0.89176,-0.47809 -0.93244,-0.44079 -0.96975,-0.4035 -1.45122,1.22744 0.0644,0.31195 -66.64778,0 0.12206,-0.2577 0.40011,-0.92905 0.37976,-0.97653 0.35602,-1.03077 0.3289,-1.08164 0.29499,-1.1291 0.2577,-1.17658 0.21361,-1.22405 0.17293,-1.2749 0.11867,-1.3156 0.0678,-1.36307 0.0102,-1.40714 -0.0509,-1.45122 -0.11868,-1.49191 0.0509,-0.83073 -0.003,-0.28821 -0.0678,-0.33907 -0.50861,-1.10537 -0.61711,-1.15284 -0.73239,-1.1698 -0.40688,-0.5832 -0.43741,-0.57642 -0.46452,-0.56625 -0.49844,-0.55268 -0.52556,-0.53574 -0.55947,-0.51199 -0.58998,-0.48827 -0.6205,-0.45774 -0.65102,-0.42723 -0.68492,-0.38993 z"
       id="path4197-8-5"
       inkscape:connector-curvature="0" />
  </g>
</svg>
