M48
;Layer_Color=9474304
;FILE_FORMAT=2:5
INCH,LZ
;TYPE=PLATED
T1F00S00C0.01968
T2F00S00C0.02800
T3F00S00C0.02953
T4F00S00C0.03150
T5F00S00C0.03937
T6F00S00C0.04331
T7F00S00C0.05906
T8F00S00C0.07087
;TYPE=NON_PLATED
T9F00S00C0.16535
%
T01
X007126Y0122047
X0117717Y0132677
X012874Y0134646
X0133858Y0129921
X0130709Y0117717
X0155512Y0115157
X0160433Y0115157
X0159449Y0108268
Y0103347
X016437
Y0108268
X0174213
Y0114173
X0150591Y0135827
X0146044Y0137979
X0146653Y0151575
X0141732Y0150591
X0152559Y0163386
X0163779Y0163779
X0081693Y0170276
X0083661Y0197835
Y0206693
X0058268Y0197244
X0055512Y0212205
X0057087Y0180315
X0009843Y0181102
Y019685
Y0212598
Y0230315
X0064961
X0083661Y0233268
Y022441
Y0215551
T02
X007874Y0076772
X0070866Y009252
X0072835Y0106299
X0113386Y0109843
Y0116929
Y0140945
X0115157Y0167323
X0121063Y017126
X0139764
X0146653
X015Y0202756
X0142913
X0135827
X018189Y0192913
X0182087Y0183071
X0179134Y0166339
X017126Y0145669
Y0122047
X0145669Y0104331
X0139764Y0103347
Y0109252
X0121063Y0095472
X0070866Y0177165
Y0192913
Y0208661
Y022441
X0120079Y0226378
Y0218504
X0127953Y0226378
X0135827
Y0218504
X0149606Y0225394
Y0231299
T03
X0149606Y0209646
Y0219488
T04
X0048228Y0050394
X0068307
X0149606Y0031496
Y0011811
X0040551Y0128937
Y0149016
T05
X008811Y0178976
X009811
X010811
X011811
Y0188976
X010811
X009811
X008811
X0154943Y019
Y018
Y017
X0165Y018
Y019
X0187008Y014689
Y013689
Y012689
Y011689
T06
X0192044Y0200787
Y0210787
Y0220787
T07
X0023622Y0056614
Y0071614
Y0086614
Y0101614
Y0116614
Y0158976
Y0173976
Y0188976
Y0203976
Y0218976
T08
X0161417Y0058898
Y0078898
T09
X0019685Y0019685
X0177165
X0019685Y0255906
X0177165
M30
