G04 Layer_Color=8388736*
%FSLAX25Y25*%
%MOIN*%
G70*
G01*
G75*
%ADD14R,0.03937X0.03937*%
G04:AMPARAMS|DCode=59|XSize=33.59mil|YSize=72.96mil|CornerRadius=5.92mil|HoleSize=0mil|Usage=FLASHONLY|Rotation=90.000|XOffset=0mil|YOffset=0mil|HoleType=Round|Shape=RoundedRectangle|*
%AMROUNDEDRECTD59*
21,1,0.03359,0.06112,0,0,90.0*
21,1,0.02175,0.07296,0,0,90.0*
1,1,0.01184,0.03056,0.01088*
1,1,0.01184,0.03056,-0.01088*
1,1,0.01184,-0.03056,-0.01088*
1,1,0.01184,-0.03056,0.01088*
%
%ADD59ROUNDEDRECTD59*%
%ADD60R,0.03556X0.04343*%
%ADD61R,0.04343X0.03556*%
%ADD62R,0.08280X0.05131*%
%ADD63C,0.08674*%
%ADD64O,0.02178X0.06706*%
%ADD65R,0.06312X0.06706*%
%ADD66R,0.06706X0.06312*%
%ADD67R,0.13202X0.07808*%
%ADD68R,0.07808X0.13202*%
%ADD69R,0.10642X0.10642*%
%ADD70C,0.10642*%
%ADD71R,0.10642X0.10642*%
%ADD72C,0.07099*%
%ADD73R,0.07099X0.07099*%
%ADD74C,0.00800*%
%ADD75R,0.07493X0.07493*%
%ADD76C,0.07493*%
%ADD77C,0.04934*%
%ADD78R,0.07099X0.07887*%
%ADD79C,0.07887*%
%ADD80O,0.07099X0.07887*%
%ADD81R,0.08674X0.08674*%
%ADD82C,0.05800*%
D14*
X124606Y78740D02*
D03*
X131299D02*
D03*
X95079D02*
D03*
X101772D02*
D03*
D59*
X83366Y155295D02*
D03*
Y150295D02*
D03*
Y145295D02*
D03*
Y140295D02*
D03*
Y135295D02*
D03*
Y130295D02*
D03*
Y125295D02*
D03*
Y120295D02*
D03*
X105610Y155295D02*
D03*
Y150295D02*
D03*
Y145295D02*
D03*
Y140295D02*
D03*
Y135295D02*
D03*
Y130295D02*
D03*
Y125295D02*
D03*
Y120295D02*
D03*
D60*
X111221Y163386D02*
D03*
X105315D02*
D03*
X70276Y99213D02*
D03*
X76181D02*
D03*
X187992Y175197D02*
D03*
X182087D02*
D03*
X71063Y112992D02*
D03*
X76968D02*
D03*
X71063Y84646D02*
D03*
X76968D02*
D03*
X146653Y110236D02*
D03*
X152559D02*
D03*
D61*
X137795Y89567D02*
D03*
Y95472D02*
D03*
X68898Y162402D02*
D03*
Y168307D02*
D03*
X145669Y89567D02*
D03*
Y95472D02*
D03*
X131890Y147638D02*
D03*
Y141732D02*
D03*
X53150Y162402D02*
D03*
Y168307D02*
D03*
X61024Y162402D02*
D03*
Y168307D02*
D03*
X76772Y162402D02*
D03*
Y168307D02*
D03*
X75590Y125787D02*
D03*
Y119882D02*
D03*
X118110Y154528D02*
D03*
Y148622D02*
D03*
X146653Y165354D02*
D03*
Y159449D02*
D03*
X157480Y160433D02*
D03*
Y154528D02*
D03*
D62*
X186696Y165899D02*
D03*
X172129D02*
D03*
Y156843D02*
D03*
X186696D02*
D03*
D63*
X120866Y114567D02*
D03*
X122047Y104724D02*
D03*
X125984Y156496D02*
D03*
X135827D02*
D03*
X124016Y125591D02*
D03*
X122835Y141339D02*
D03*
X23622Y218976D02*
D03*
Y203976D02*
D03*
Y188976D02*
D03*
Y173976D02*
D03*
Y71614D02*
D03*
Y86614D02*
D03*
Y101614D02*
D03*
Y116614D02*
D03*
X130709Y117717D02*
D03*
X117717Y132677D02*
D03*
D64*
X162402Y143701D02*
D03*
X159843D02*
D03*
X157283D02*
D03*
X154724D02*
D03*
X152165D02*
D03*
X149606D02*
D03*
X147047D02*
D03*
X144488D02*
D03*
X141929D02*
D03*
X139370D02*
D03*
X162402Y121653D02*
D03*
X159843D02*
D03*
X157283D02*
D03*
X154724D02*
D03*
X152165D02*
D03*
X149606D02*
D03*
X147047D02*
D03*
X144488D02*
D03*
X141929D02*
D03*
X139370D02*
D03*
D65*
X167323Y204724D02*
D03*
X175197D02*
D03*
D66*
X127953Y218504D02*
D03*
Y210630D02*
D03*
D67*
X53543Y132185D02*
D03*
Y145768D02*
D03*
D68*
X63484Y37008D02*
D03*
X49902D02*
D03*
D69*
X40551Y128937D02*
D03*
D70*
Y149016D02*
D03*
X48228Y50394D02*
D03*
X161417Y58898D02*
D03*
X149606Y31496D02*
D03*
Y11811D02*
D03*
D71*
X68307Y50394D02*
D03*
X161417Y78898D02*
D03*
D72*
X154943Y170000D02*
D03*
Y180000D02*
D03*
X187008Y136890D02*
D03*
Y126890D02*
D03*
Y146890D02*
D03*
X165000Y180000D02*
D03*
D73*
X154943Y190000D02*
D03*
X187008Y116890D02*
D03*
X165000Y190000D02*
D03*
D74*
X177165Y19685D02*
D03*
X19685D02*
D03*
Y255906D02*
D03*
X177165D02*
D03*
D75*
X192044Y220787D02*
D03*
D76*
Y210787D02*
D03*
Y200787D02*
D03*
D77*
X149606Y209646D02*
D03*
Y219488D02*
D03*
D78*
X88110Y188976D02*
D03*
D79*
Y178976D02*
D03*
X98110D02*
D03*
X108110Y188976D02*
D03*
Y178976D02*
D03*
X118110Y188976D02*
D03*
Y178976D02*
D03*
D80*
X98110Y188976D02*
D03*
D81*
X23622Y158976D02*
D03*
Y56614D02*
D03*
D82*
X78740Y76772D02*
D03*
X72835Y106299D02*
D03*
X70866Y92520D02*
D03*
Y177165D02*
D03*
Y192913D02*
D03*
Y208661D02*
D03*
Y224410D02*
D03*
X121063Y95472D02*
D03*
M02*
