G04 Layer_Color=8388736*
%FSLAX25Y25*%
%MOIN*%
G70*
G01*
G75*
%ADD19R,0.03937X0.03937*%
%ADD59C,0.08674*%
%ADD60R,0.03556X0.04343*%
%ADD61R,0.04343X0.03556*%
%ADD62R,0.07808X0.13202*%
%ADD63R,0.13202X0.07808*%
%ADD64R,0.06706X0.06312*%
%ADD65R,0.06312X0.06706*%
%ADD66O,0.02178X0.06706*%
%ADD67R,0.08280X0.05131*%
G04:AMPARAMS|DCode=68|XSize=33.59mil|YSize=72.96mil|CornerRadius=5.92mil|HoleSize=0mil|Usage=FLASHONLY|Rotation=90.000|XOffset=0mil|YOffset=0mil|HoleType=Round|Shape=RoundedRectangle|*
%AMROUNDEDRECTD68*
21,1,0.03359,0.06112,0,0,90.0*
21,1,0.02175,0.07296,0,0,90.0*
1,1,0.01184,0.03056,0.01088*
1,1,0.01184,0.03056,-0.01088*
1,1,0.01184,-0.03056,-0.01088*
1,1,0.01184,-0.03056,0.01088*
%
%ADD68ROUNDEDRECTD68*%
%ADD69C,0.10642*%
%ADD70R,0.08674X0.08674*%
%ADD71C,0.07887*%
%ADD72O,0.07099X0.07887*%
%ADD73R,0.07099X0.07887*%
%ADD74C,0.04934*%
%ADD75C,0.07493*%
%ADD76R,0.07493X0.07493*%
%ADD77R,0.07099X0.07099*%
%ADD78C,0.07099*%
%ADD79R,0.10642X0.10642*%
%ADD80C,0.00800*%
%ADD81R,0.10642X0.10642*%
%ADD82C,0.05800*%
D19*
X101772Y78740D02*
D03*
X95079D02*
D03*
X131299D02*
D03*
X124606D02*
D03*
D59*
X122835Y141339D02*
D03*
X124016Y125591D02*
D03*
X135827Y156496D02*
D03*
X125984D02*
D03*
X122047Y104724D02*
D03*
X120866Y114567D02*
D03*
X23622Y116614D02*
D03*
Y101614D02*
D03*
Y86614D02*
D03*
Y71614D02*
D03*
Y173976D02*
D03*
Y188976D02*
D03*
Y203976D02*
D03*
Y218976D02*
D03*
X117717Y132677D02*
D03*
X130709Y117717D02*
D03*
D60*
X152559Y110236D02*
D03*
X146653D02*
D03*
X76968Y84646D02*
D03*
X71063D02*
D03*
X76968Y112992D02*
D03*
X71063D02*
D03*
X182087Y175197D02*
D03*
X187992D02*
D03*
X76181Y99213D02*
D03*
X70276D02*
D03*
X105315Y163386D02*
D03*
X111221D02*
D03*
D61*
X157480Y154528D02*
D03*
Y160433D02*
D03*
X146653Y159449D02*
D03*
Y165354D02*
D03*
X118110Y148622D02*
D03*
Y154528D02*
D03*
X75590Y119882D02*
D03*
Y125787D02*
D03*
X76772Y168307D02*
D03*
Y162402D02*
D03*
X61024Y168307D02*
D03*
Y162402D02*
D03*
X53150Y168307D02*
D03*
Y162402D02*
D03*
X131890Y141732D02*
D03*
Y147638D02*
D03*
X145669Y95472D02*
D03*
Y89567D02*
D03*
X68898Y168307D02*
D03*
Y162402D02*
D03*
X137795Y95472D02*
D03*
Y89567D02*
D03*
D62*
X49902Y37008D02*
D03*
X63484D02*
D03*
D63*
X53543Y145768D02*
D03*
Y132185D02*
D03*
D64*
X127953Y210630D02*
D03*
Y218504D02*
D03*
D65*
X175197Y204724D02*
D03*
X167323D02*
D03*
D66*
X139370Y121653D02*
D03*
X141929D02*
D03*
X144488D02*
D03*
X147047D02*
D03*
X149606D02*
D03*
X152165D02*
D03*
X154724D02*
D03*
X157283D02*
D03*
X159843D02*
D03*
X162402D02*
D03*
X139370Y143701D02*
D03*
X141929D02*
D03*
X144488D02*
D03*
X147047D02*
D03*
X149606D02*
D03*
X152165D02*
D03*
X154724D02*
D03*
X157283D02*
D03*
X159843D02*
D03*
X162402D02*
D03*
D67*
X186696Y156843D02*
D03*
X172129D02*
D03*
Y165899D02*
D03*
X186696D02*
D03*
D68*
X105610Y120295D02*
D03*
Y125295D02*
D03*
Y130295D02*
D03*
Y135295D02*
D03*
Y140295D02*
D03*
Y145295D02*
D03*
Y150295D02*
D03*
Y155295D02*
D03*
X83366Y120295D02*
D03*
Y125295D02*
D03*
Y130295D02*
D03*
Y135295D02*
D03*
Y140295D02*
D03*
Y145295D02*
D03*
Y150295D02*
D03*
Y155295D02*
D03*
D69*
X149606Y11811D02*
D03*
Y31496D02*
D03*
X161417Y58898D02*
D03*
X48228Y50394D02*
D03*
X40551Y149016D02*
D03*
D70*
X23622Y56614D02*
D03*
Y158976D02*
D03*
D71*
X118110Y178976D02*
D03*
Y188976D02*
D03*
X108110Y178976D02*
D03*
Y188976D02*
D03*
X98110Y178976D02*
D03*
X88110D02*
D03*
D72*
X98110Y188976D02*
D03*
D73*
X88110D02*
D03*
D74*
X149606Y219488D02*
D03*
Y209646D02*
D03*
D75*
X192044Y200787D02*
D03*
Y210787D02*
D03*
D76*
Y220787D02*
D03*
D77*
X165000Y190000D02*
D03*
X187008Y116890D02*
D03*
X154943Y190000D02*
D03*
D78*
X165000Y180000D02*
D03*
X187008Y146890D02*
D03*
Y126890D02*
D03*
Y136890D02*
D03*
X154943Y180000D02*
D03*
Y170000D02*
D03*
D79*
X161417Y78898D02*
D03*
X68307Y50394D02*
D03*
D80*
X177165Y255906D02*
D03*
X19685D02*
D03*
Y19685D02*
D03*
X177165D02*
D03*
D81*
X40551Y128937D02*
D03*
D82*
X121063Y95472D02*
D03*
X70866Y224410D02*
D03*
Y208661D02*
D03*
Y192913D02*
D03*
Y177165D02*
D03*
Y92520D02*
D03*
X72835Y106299D02*
D03*
X78740Y76772D02*
D03*
M02*
