G04 Layer_Physical_Order=2*
G04 Layer_Color=16711680*
%FSLAX25Y25*%
%MOIN*%
G70*
G01*
G75*
%ADD22C,0.01968*%
%ADD23C,0.01378*%
%ADD24C,0.02756*%
%ADD26C,0.09842*%
%ADD27R,0.09842X0.09842*%
%ADD28R,0.09842X0.09842*%
%ADD29C,0.06299*%
%ADD30R,0.06299X0.06299*%
%ADD31R,0.06693X0.06693*%
%ADD32C,0.06693*%
%ADD33C,0.04134*%
%ADD34R,0.06299X0.07087*%
%ADD35C,0.07087*%
%ADD36O,0.06299X0.07087*%
%ADD38C,0.02756*%
%ADD39C,0.03937*%
%ADD40C,0.05000*%
%ADD41R,0.03543X0.03150*%
%ADD42C,0.09842*%
%ADD43C,0.07874*%
%ADD44C,0.01000*%
%ADD45C,0.03937*%
%ADD46O,0.14173X0.11024*%
%ADD47R,0.14173X0.11024*%
%ADD48O,0.13780X0.11024*%
%ADD49R,0.13780X0.11024*%
G36*
X1239Y246868D02*
X1268Y246823D01*
X1286Y246772D01*
X2576Y244538D01*
X2611Y244497D01*
X2635Y244449D01*
X4206Y242402D01*
X4247Y242366D01*
X4276Y242322D01*
X6101Y240497D01*
X6146Y240467D01*
X6181Y240427D01*
X8228Y238856D01*
X8277Y238832D01*
X8317Y238796D01*
X10552Y237506D01*
X10603Y237489D01*
X10648Y237459D01*
X13032Y236472D01*
X13084Y236461D01*
X13133Y236437D01*
X15625Y235770D01*
X15679Y235766D01*
X15730Y235749D01*
X18288Y235412D01*
X18342Y235415D01*
X18394Y235405D01*
X19685D01*
X85799D01*
Y193335D01*
X84961D01*
X84649Y193273D01*
X84384Y193096D01*
X84207Y192832D01*
X84145Y192520D01*
Y185433D01*
X84207Y185121D01*
X84384Y184856D01*
X84649Y184679D01*
X84961Y184617D01*
X85799D01*
Y183532D01*
X85817Y183438D01*
X85821Y183341D01*
X85848Y183283D01*
X85861Y183220D01*
X85897Y182945D01*
X85727Y182627D01*
X85712Y182611D01*
X85013Y182074D01*
X84316Y181167D01*
X83879Y180110D01*
X83729Y178976D01*
X83879Y177843D01*
X84316Y176786D01*
X85013Y175879D01*
X85712Y175342D01*
X85727Y175326D01*
X85897Y175008D01*
X85861Y174733D01*
X85848Y174670D01*
X85821Y174611D01*
X85817Y174515D01*
X85799Y174421D01*
Y171964D01*
X85822Y171847D01*
X85834Y171727D01*
X85853Y171692D01*
X85861Y171652D01*
X85927Y171552D01*
X85984Y171446D01*
X86015Y171421D01*
X86037Y171388D01*
X86196Y170856D01*
X86080Y170276D01*
Y165354D01*
X86196Y164773D01*
X86525Y164281D01*
X107734Y143072D01*
Y104331D01*
X107849Y103750D01*
X108178Y103257D01*
X117037Y94399D01*
X117037Y94399D01*
X117529Y94070D01*
X118110Y93954D01*
X118110Y93954D01*
X118120D01*
X118180Y93808D01*
X118709Y93119D01*
X119399Y92590D01*
X119781Y92431D01*
X119864Y92370D01*
X120131Y92026D01*
X120126Y91997D01*
X120078Y91833D01*
X120081Y91773D01*
X120069Y91713D01*
X120089Y91615D01*
X120094Y91515D01*
X120120Y91461D01*
X120131Y91401D01*
X120187Y91318D01*
X120230Y91228D01*
X120275Y91187D01*
X120308Y91137D01*
X123632Y87813D01*
X123897Y87636D01*
X124209Y87574D01*
X124209Y87574D01*
X187168D01*
Y68706D01*
X177357Y58895D01*
X169337D01*
X169334Y58898D01*
X169213Y60135D01*
X168852Y61325D01*
X168266Y62421D01*
X167477Y63382D01*
X166516Y64171D01*
X165419Y64757D01*
X164229Y65118D01*
X162992Y65240D01*
X159843D01*
X158605Y65118D01*
X157415Y64757D01*
X156319Y64171D01*
X155358Y63382D01*
X154569Y62421D01*
X153983Y61325D01*
X153622Y60135D01*
X153500Y58898D01*
X153622Y57660D01*
X153983Y56471D01*
X154569Y55374D01*
X155358Y54413D01*
X156319Y53624D01*
X157415Y53038D01*
X158605Y52677D01*
X159843Y52555D01*
X162992D01*
X164229Y52677D01*
X165419Y53038D01*
X165928Y53310D01*
X178513D01*
X179236Y53405D01*
X179910Y53684D01*
X180488Y54128D01*
X191935Y65575D01*
X192379Y66153D01*
X192658Y66827D01*
X192753Y67550D01*
Y87574D01*
X196850D01*
Y27039D01*
X196350Y26939D01*
X195612Y28723D01*
X195582Y28767D01*
X195565Y28818D01*
X194274Y31053D01*
X194239Y31093D01*
X194215Y31142D01*
X192644Y33189D01*
X192604Y33224D01*
X192574Y33269D01*
X190749Y35094D01*
X190705Y35124D01*
X190669Y35164D01*
X188622Y36735D01*
X188574Y36759D01*
X188533Y36794D01*
X186299Y38084D01*
X186248Y38102D01*
X186203Y38131D01*
X183819Y39119D01*
X183766Y39129D01*
X183718Y39153D01*
X181225Y39821D01*
X181172Y39825D01*
X181121Y39842D01*
X178562Y40179D01*
X178509Y40175D01*
X178456Y40186D01*
X175875D01*
X175822Y40175D01*
X175768Y40179D01*
X173210Y39842D01*
X173159Y39825D01*
X173105Y39821D01*
X170613Y39153D01*
X170565Y39129D01*
X170512Y39119D01*
X168128Y38131D01*
X168083Y38102D01*
X168032Y38084D01*
X165798Y36794D01*
X165757Y36759D01*
X165709Y36735D01*
X163662Y35164D01*
X163626Y35123D01*
X163582Y35094D01*
X161757Y33269D01*
X161727Y33224D01*
X161687Y33189D01*
X160116Y31141D01*
X160092Y31093D01*
X160056Y31053D01*
X158766Y28818D01*
X158749Y28767D01*
X158719Y28722D01*
X157731Y26338D01*
X157721Y26286D01*
X157697Y26237D01*
X157029Y23745D01*
X157026Y23691D01*
X157009Y23640D01*
X156672Y21082D01*
X156675Y21028D01*
X156665Y20976D01*
Y18395D01*
X156675Y18342D01*
X156672Y18288D01*
X157009Y15730D01*
X157026Y15679D01*
X157029Y15625D01*
X157697Y13133D01*
X157721Y13084D01*
X157731Y13032D01*
X158719Y10648D01*
X158749Y10603D01*
X158766Y10552D01*
X160056Y8317D01*
X160092Y8277D01*
X160116Y8229D01*
X161687Y6181D01*
X161727Y6146D01*
X161757Y6101D01*
X163582Y4276D01*
X163626Y4247D01*
X163662Y4206D01*
X165709Y2635D01*
X165757Y2612D01*
X165798Y2576D01*
X168032Y1286D01*
X168083Y1268D01*
X168128Y1239D01*
X169911Y500D01*
X169812Y0D01*
X27039D01*
X26939Y500D01*
X28723Y1239D01*
X28767Y1268D01*
X28818Y1286D01*
X31053Y2576D01*
X31093Y2611D01*
X31142Y2635D01*
X33189Y4206D01*
X33224Y4247D01*
X33269Y4276D01*
X35094Y6101D01*
X35124Y6146D01*
X35164Y6181D01*
X36735Y8228D01*
X36759Y8277D01*
X36794Y8317D01*
X38084Y10552D01*
X38102Y10603D01*
X38131Y10648D01*
X39119Y13032D01*
X39129Y13084D01*
X39153Y13133D01*
X39821Y15625D01*
X39825Y15679D01*
X39842Y15730D01*
X40179Y18288D01*
X40175Y18342D01*
X40186Y18394D01*
Y20976D01*
X40175Y21028D01*
X40179Y21082D01*
X39842Y23640D01*
X39825Y23691D01*
X39821Y23745D01*
X39153Y26237D01*
X39129Y26286D01*
X39119Y26338D01*
X38131Y28722D01*
X38102Y28767D01*
X38084Y28818D01*
X36794Y31053D01*
X36759Y31093D01*
X36735Y31141D01*
X35164Y33189D01*
X35123Y33224D01*
X35094Y33269D01*
X33269Y35094D01*
X33224Y35123D01*
X33189Y35164D01*
X31141Y36735D01*
X31093Y36759D01*
X31053Y36794D01*
X28818Y38084D01*
X28767Y38102D01*
X28722Y38131D01*
X26338Y39119D01*
X26286Y39129D01*
X26237Y39153D01*
X23745Y39821D01*
X23691Y39825D01*
X23640Y39842D01*
X21082Y40179D01*
X21028Y40175D01*
X20976Y40186D01*
X19685D01*
X19685Y40186D01*
X18395Y40186D01*
X18342Y40175D01*
X18288Y40179D01*
X15730Y39842D01*
X15679Y39825D01*
X15625Y39821D01*
X13133Y39153D01*
X13084Y39129D01*
X13032Y39119D01*
X10648Y38131D01*
X10603Y38102D01*
X10552Y38084D01*
X8317Y36794D01*
X8277Y36759D01*
X8229Y36735D01*
X6181Y35164D01*
X6146Y35123D01*
X6101Y35094D01*
X4276Y33269D01*
X4247Y33224D01*
X4206Y33189D01*
X2635Y31141D01*
X2612Y31093D01*
X2576Y31053D01*
X1286Y28818D01*
X1268Y28767D01*
X1239Y28722D01*
X500Y26939D01*
X0Y27039D01*
Y248552D01*
X500Y248651D01*
X1239Y246868D01*
D02*
G37*
G36*
X95293Y185766D02*
X96118Y185133D01*
X97079Y184735D01*
X98110Y184599D01*
X99141Y184735D01*
X100086Y185126D01*
X101628Y183584D01*
Y182270D01*
X101128Y182135D01*
X100301Y182770D01*
X99244Y183208D01*
X98110Y183357D01*
X96976Y183208D01*
X95920Y182770D01*
X95013Y182074D01*
X94316Y181167D01*
X93879Y180110D01*
X93730Y178976D01*
X93879Y177843D01*
X94316Y176786D01*
X95013Y175879D01*
X95920Y175182D01*
X96231Y175054D01*
X96131Y174554D01*
X90551D01*
X90044Y174453D01*
X89614Y174166D01*
X87154Y171705D01*
X87114Y171697D01*
X86614Y171964D01*
Y174421D01*
X87114Y174727D01*
X88110Y174596D01*
X89244Y174745D01*
X90301Y175182D01*
X91208Y175879D01*
X91904Y176786D01*
X92342Y177843D01*
X92491Y178976D01*
X92342Y180110D01*
X92063Y180782D01*
X94351Y183071D01*
X94351Y183071D01*
X94681Y183563D01*
X94796Y184144D01*
X94796Y184144D01*
Y185636D01*
X95270Y185797D01*
X95293Y185766D01*
D02*
G37*
G36*
X196850Y248552D02*
Y88389D01*
X192753D01*
Y101378D01*
X192658Y102101D01*
X192379Y102774D01*
X191935Y103352D01*
X191935Y103352D01*
X181926Y113361D01*
Y150418D01*
X191935Y160427D01*
X191935Y160427D01*
X192379Y161005D01*
X192658Y161679D01*
X192753Y162402D01*
Y196698D01*
X193127Y196748D01*
X194135Y197166D01*
X195001Y197830D01*
X195666Y198696D01*
X196084Y199705D01*
X196227Y200787D01*
X196084Y201870D01*
X195666Y202878D01*
X195001Y203745D01*
X194135Y204409D01*
X193127Y204827D01*
X192044Y204970D01*
X190962Y204827D01*
X189953Y204409D01*
X189087Y203745D01*
X188422Y202878D01*
X188005Y201870D01*
X187862Y200787D01*
X187892Y200556D01*
X187542Y200100D01*
X187263Y199426D01*
X187168Y198704D01*
Y163558D01*
X177159Y153549D01*
X176716Y152971D01*
X176437Y152297D01*
X176341Y151575D01*
Y112205D01*
X176437Y111482D01*
X176716Y110809D01*
X177159Y110230D01*
X187168Y100221D01*
Y88389D01*
X124209D01*
X120885Y91713D01*
X121150Y92155D01*
X121924Y92257D01*
X122727Y92590D01*
X123417Y93119D01*
X123946Y93808D01*
X124278Y94611D01*
X124391Y95472D01*
X124278Y96334D01*
X123946Y97137D01*
X123417Y97826D01*
X122727Y98355D01*
X121924Y98687D01*
X121063Y98801D01*
X120202Y98687D01*
X119399Y98355D01*
X118709Y97826D01*
X118590Y97671D01*
X118091Y97638D01*
X110770Y104959D01*
Y143701D01*
X110654Y144282D01*
X110326Y144774D01*
X89117Y165983D01*
Y169919D01*
X91100Y171903D01*
X101086D01*
X101593Y172004D01*
X102023Y172291D01*
X103891Y174159D01*
X104178Y174589D01*
X104279Y175096D01*
Y176013D01*
X104779Y176183D01*
X105013Y175879D01*
X105920Y175182D01*
X106976Y174745D01*
X108110Y174596D01*
X109244Y174745D01*
X110301Y175182D01*
X111208Y175879D01*
X111904Y176786D01*
X112342Y177843D01*
X112491Y178976D01*
X112342Y180110D01*
X111904Y181167D01*
X111208Y182074D01*
X110301Y182770D01*
X109244Y183208D01*
X108110Y183357D01*
X106976Y183208D01*
X105920Y182770D01*
X105013Y182074D01*
X104779Y181770D01*
X104279Y181939D01*
Y184133D01*
X104178Y184640D01*
X103891Y185070D01*
X101797Y187164D01*
X101958Y187552D01*
X102094Y188583D01*
Y189370D01*
X101958Y190401D01*
X101560Y191362D01*
X100927Y192187D01*
X100102Y192820D01*
X99141Y193218D01*
X98110Y193354D01*
X97079Y193218D01*
X96118Y192820D01*
X95293Y192187D01*
X95270Y192156D01*
X94796Y192317D01*
Y193043D01*
X99054Y197301D01*
X118466D01*
X124810Y190956D01*
X124619Y190495D01*
X122183D01*
X121904Y191167D01*
X121208Y192074D01*
X120301Y192770D01*
X119244Y193208D01*
X118110Y193357D01*
X116976Y193208D01*
X115920Y192770D01*
X115013Y192074D01*
X114316Y191167D01*
X113879Y190110D01*
X113730Y188976D01*
X113879Y187843D01*
X114316Y186786D01*
X115013Y185879D01*
X115920Y185182D01*
X116976Y184745D01*
X118110Y184596D01*
X119244Y184745D01*
X120301Y185182D01*
X121208Y185879D01*
X121904Y186786D01*
X122183Y187458D01*
X136182D01*
X140659Y182982D01*
X141151Y182652D01*
X141732Y182537D01*
X150259D01*
X151291Y181505D01*
X151095Y181031D01*
X150959Y180000D01*
X151095Y178969D01*
X151493Y178008D01*
X152126Y177183D01*
X152951Y176550D01*
X153912Y176152D01*
X154943Y176016D01*
X155974Y176152D01*
X156935Y176550D01*
X157760Y177183D01*
X158393Y178008D01*
X158791Y178969D01*
X158927Y180000D01*
X158791Y181031D01*
X158393Y181992D01*
X157760Y182817D01*
X156935Y183450D01*
X155974Y183848D01*
X154943Y183984D01*
X153912Y183848D01*
X153438Y183652D01*
X152297Y184793D01*
X152346Y185291D01*
X152450Y185360D01*
X153125Y186035D01*
X158093D01*
X158405Y186097D01*
X158669Y186274D01*
X158846Y186538D01*
X158908Y186850D01*
Y193150D01*
X158846Y193462D01*
X158669Y193726D01*
X158405Y193903D01*
X158093Y193965D01*
X151793D01*
X151481Y193903D01*
X151217Y193726D01*
X151040Y193462D01*
X150978Y193150D01*
Y188182D01*
X150747Y187951D01*
X143346D01*
X138870Y192428D01*
X138377Y192757D01*
X137796Y192873D01*
X127188D01*
X120168Y199892D01*
X119676Y200221D01*
X119095Y200337D01*
X98425D01*
X97844Y200221D01*
X97352Y199892D01*
X92204Y194745D01*
X91875Y194253D01*
X91760Y193672D01*
Y184773D01*
X89916Y182929D01*
X89244Y183208D01*
X88110Y183357D01*
X87114Y183226D01*
X86614Y183532D01*
Y235405D01*
X175875Y235405D01*
X178456D01*
X178508Y235415D01*
X178562Y235412D01*
X181121Y235749D01*
X181171Y235766D01*
X181225Y235770D01*
X183718Y236437D01*
X183766Y236461D01*
X183819Y236472D01*
X186203Y237459D01*
X186247Y237489D01*
X186298Y237506D01*
X188533Y238797D01*
X188574Y238832D01*
X188622Y238856D01*
X190669Y240427D01*
X190705Y240467D01*
X190749Y240497D01*
X192574Y242322D01*
X192604Y242366D01*
X192644Y242402D01*
X194215Y244449D01*
X194239Y244497D01*
X194274Y244538D01*
X195565Y246773D01*
X195582Y246824D01*
X195612Y246868D01*
X196350Y248651D01*
X196850Y248552D01*
D02*
G37*
%LPC*%
G36*
X45472Y134674D02*
X35630D01*
X35318Y134612D01*
X35053Y134435D01*
X34876Y134170D01*
X34814Y133858D01*
Y124016D01*
X34704Y123881D01*
X25118D01*
X23625Y123684D01*
X22233Y123108D01*
X22005Y122933D01*
X21007Y122835D01*
X19817Y122474D01*
X18721Y121888D01*
X17759Y121099D01*
X16971Y120138D01*
X16385Y119041D01*
X16024Y117851D01*
X15902Y116614D01*
X16024Y115377D01*
X16385Y114187D01*
X16971Y113091D01*
X17759Y112129D01*
X18721Y111341D01*
X19817Y110755D01*
X21007Y110394D01*
X22244Y110272D01*
X25000D01*
X26237Y110394D01*
X27427Y110755D01*
X28524Y111341D01*
X29485Y112129D01*
X29657Y112340D01*
X57087D01*
X58580Y112536D01*
X59972Y113113D01*
X61167Y114030D01*
X62084Y115225D01*
X62661Y116617D01*
X62857Y118110D01*
X62732Y119063D01*
X63184Y119461D01*
X63189Y119460D01*
X66732D01*
X67044Y119522D01*
X67309Y119699D01*
X67486Y119964D01*
X67538Y120228D01*
X68496D01*
X68906Y119694D01*
X69596Y119165D01*
X70398Y118832D01*
X71260Y118719D01*
X72121Y118832D01*
X72924Y119165D01*
X73613Y119694D01*
X74142Y120383D01*
X74475Y121186D01*
X74588Y122047D01*
X74475Y122909D01*
X74142Y123712D01*
X73613Y124401D01*
X72924Y124930D01*
X72121Y125262D01*
X71260Y125376D01*
X70398Y125262D01*
X69596Y124930D01*
X68906Y124401D01*
X68496Y123866D01*
X67400D01*
X67309Y124002D01*
X67044Y124179D01*
X66732Y124241D01*
X63189D01*
X62877Y124179D01*
X62612Y124002D01*
X62435Y123737D01*
X62373Y123425D01*
Y121440D01*
X61873Y121270D01*
X61167Y122191D01*
X59972Y123108D01*
X58580Y123684D01*
X57087Y123881D01*
X46399D01*
X46288Y124016D01*
Y133858D01*
X46226Y134170D01*
X46049Y134435D01*
X45785Y134612D01*
X45472Y134674D01*
D02*
G37*
G36*
X72835Y109628D02*
X71973Y109514D01*
X71170Y109182D01*
X70481Y108653D01*
X70071Y108118D01*
X67400D01*
X67309Y108254D01*
X67044Y108431D01*
X66732Y108493D01*
X63189D01*
X62877Y108431D01*
X62612Y108254D01*
X62435Y107989D01*
X62373Y107677D01*
Y105692D01*
X61873Y105522D01*
X61167Y106443D01*
X59972Y107360D01*
X58580Y107936D01*
X57087Y108133D01*
X55593Y107936D01*
X54262Y107385D01*
X27593D01*
X27427Y107474D01*
X26237Y107835D01*
X25000Y107957D01*
X22244D01*
X21007Y107835D01*
X19817Y107474D01*
X18721Y106888D01*
X17759Y106099D01*
X16971Y105138D01*
X16385Y104041D01*
X16024Y102851D01*
X15902Y101614D01*
X16024Y100377D01*
X16385Y99187D01*
X16971Y98090D01*
X17759Y97129D01*
X18721Y96341D01*
X19817Y95755D01*
X21007Y95394D01*
X22244Y95272D01*
X25000D01*
X26237Y95394D01*
X27427Y95755D01*
X27593Y95843D01*
X56339D01*
X57832Y96040D01*
X59224Y96617D01*
X60419Y97534D01*
X61167Y98282D01*
X62084Y99477D01*
X62661Y100869D01*
X62857Y102362D01*
X62732Y103315D01*
X63184Y103713D01*
X63189Y103712D01*
X66732D01*
X67044Y103774D01*
X67309Y103951D01*
X67486Y104215D01*
X67538Y104480D01*
X70071D01*
X70481Y103946D01*
X71170Y103417D01*
X71973Y103084D01*
X72835Y102971D01*
X73696Y103084D01*
X74499Y103417D01*
X75188Y103946D01*
X75717Y104635D01*
X76050Y105438D01*
X76163Y106299D01*
X76050Y107161D01*
X75717Y107963D01*
X75188Y108653D01*
X74499Y109182D01*
X73696Y109514D01*
X72835Y109628D01*
D02*
G37*
G36*
X73228Y56131D02*
X63386D01*
X63074Y56068D01*
X62809Y55892D01*
X62632Y55627D01*
X62570Y55315D01*
Y45472D01*
X62632Y45160D01*
X62809Y44896D01*
X63074Y44719D01*
X63386Y44657D01*
X73228D01*
X73541Y44719D01*
X73805Y44896D01*
X73982Y45160D01*
X74044Y45472D01*
Y55315D01*
X73982Y55627D01*
X73805Y55892D01*
X73541Y56068D01*
X73228Y56131D01*
D02*
G37*
G36*
X48228Y56164D02*
X46735Y55968D01*
X45343Y55391D01*
X44148Y54474D01*
X43231Y53279D01*
X42654Y51887D01*
X42458Y50394D01*
X42654Y48900D01*
X43231Y47508D01*
X44148Y46313D01*
X45343Y45396D01*
X46735Y44820D01*
X48228Y44623D01*
X49722Y44820D01*
X51114Y45396D01*
X52309Y46313D01*
X53226Y47508D01*
X53802Y48900D01*
X53999Y50394D01*
X53802Y51887D01*
X53226Y53279D01*
X52309Y54474D01*
X51114Y55391D01*
X49722Y55968D01*
X48228Y56164D01*
D02*
G37*
G36*
X149606Y37267D02*
X148113Y37070D01*
X146721Y36494D01*
X145526Y35577D01*
X144609Y34381D01*
X144032Y32990D01*
X143836Y31496D01*
X144032Y30002D01*
X144609Y28611D01*
X145526Y27416D01*
X146721Y26499D01*
X148113Y25922D01*
X149606Y25725D01*
X151100Y25922D01*
X152492Y26499D01*
X153687Y27416D01*
X154604Y28611D01*
X155180Y30002D01*
X155377Y31496D01*
X155180Y32990D01*
X154604Y34381D01*
X153687Y35577D01*
X152492Y36494D01*
X151100Y37070D01*
X149606Y37267D01*
D02*
G37*
G36*
X70866Y95848D02*
X70005Y95735D01*
X69202Y95402D01*
X68512Y94873D01*
X67984Y94184D01*
X67910Y94005D01*
X67611Y93806D01*
X67611Y93806D01*
X66550Y92745D01*
X63189D01*
X62877Y92683D01*
X62612Y92506D01*
X62435Y92241D01*
X62373Y91929D01*
Y89944D01*
X61873Y89774D01*
X61167Y90695D01*
X59972Y91612D01*
X58580Y92188D01*
X57087Y92385D01*
X27593D01*
X27427Y92474D01*
X26237Y92835D01*
X25000Y92957D01*
X22244D01*
X21007Y92835D01*
X19817Y92474D01*
X18721Y91888D01*
X17759Y91099D01*
X16971Y90138D01*
X16385Y89041D01*
X16024Y87852D01*
X15902Y86614D01*
X16024Y85377D01*
X16385Y84187D01*
X16971Y83091D01*
X17759Y82129D01*
X18721Y81341D01*
X19817Y80755D01*
X21007Y80394D01*
X22244Y80272D01*
X25000D01*
X26237Y80394D01*
X27427Y80755D01*
X27593Y80844D01*
X57087D01*
X58580Y81040D01*
X59972Y81617D01*
X61167Y82534D01*
X62084Y83729D01*
X62661Y85121D01*
X62857Y86614D01*
X62732Y87567D01*
X63184Y87965D01*
X63189Y87964D01*
X66732D01*
X67044Y88026D01*
X67309Y88203D01*
X67486Y88467D01*
X67542Y88749D01*
X68019Y89068D01*
X68854Y89904D01*
X69202Y89637D01*
X70005Y89305D01*
X70866Y89191D01*
X71728Y89305D01*
X72530Y89637D01*
X73220Y90166D01*
X73749Y90855D01*
X74081Y91658D01*
X74195Y92520D01*
X74081Y93381D01*
X73749Y94184D01*
X73220Y94873D01*
X72530Y95402D01*
X71728Y95735D01*
X70866Y95848D01*
D02*
G37*
G36*
X78740Y80100D02*
X77879Y79987D01*
X77076Y79654D01*
X76387Y79125D01*
X75858Y78436D01*
X75525Y77633D01*
X75412Y76772D01*
X75108Y76425D01*
X67499D01*
X67486Y76493D01*
X67309Y76758D01*
X67044Y76935D01*
X66732Y76997D01*
X63189D01*
X62877Y76935D01*
X62612Y76758D01*
X62435Y76493D01*
X62373Y76181D01*
Y74196D01*
X61873Y74026D01*
X61167Y74947D01*
X59972Y75864D01*
X58580Y76440D01*
X57087Y76637D01*
X28829D01*
X28524Y76888D01*
X27427Y77474D01*
X26237Y77835D01*
X25000Y77956D01*
X22244D01*
X21007Y77835D01*
X19817Y77474D01*
X18721Y76888D01*
X17759Y76099D01*
X16971Y75138D01*
X16385Y74041D01*
X16024Y72852D01*
X15902Y71614D01*
X16024Y70377D01*
X16385Y69187D01*
X16971Y68090D01*
X17759Y67129D01*
X18721Y66341D01*
X19817Y65755D01*
X21007Y65394D01*
X22244Y65272D01*
X23031D01*
X24370Y65096D01*
X57087D01*
X58580Y65292D01*
X59972Y65869D01*
X61167Y66786D01*
X62084Y67981D01*
X62661Y69373D01*
X62857Y70866D01*
X62732Y71819D01*
X63184Y72217D01*
X63189Y72216D01*
X66732D01*
X67044Y72278D01*
X67309Y72455D01*
X67486Y72719D01*
X67499Y72787D01*
X76575D01*
X76575Y72787D01*
X77271Y72926D01*
X77861Y73320D01*
X78072Y73531D01*
X78740Y73443D01*
X79602Y73557D01*
X80404Y73889D01*
X81094Y74418D01*
X81623Y75107D01*
X81955Y75910D01*
X82069Y76772D01*
X81955Y77633D01*
X81623Y78436D01*
X81094Y79125D01*
X80404Y79654D01*
X79602Y79987D01*
X78740Y80100D01*
D02*
G37*
G36*
X30512Y62942D02*
X16732D01*
X16420Y62880D01*
X16156Y62703D01*
X15979Y62438D01*
X15917Y62126D01*
Y51102D01*
X15979Y50790D01*
X16156Y50526D01*
X16420Y50349D01*
X16732Y50287D01*
X30512D01*
X30824Y50349D01*
X31089Y50526D01*
X31265Y50790D01*
X31328Y51102D01*
Y62126D01*
X31265Y62438D01*
X31089Y62703D01*
X30824Y62880D01*
X30512Y62942D01*
D02*
G37*
G36*
X25000Y210319D02*
X22244D01*
X21007Y210197D01*
X19817Y209836D01*
X18721Y209250D01*
X17759Y208461D01*
X16971Y207500D01*
X16385Y206403D01*
X16024Y205214D01*
X15902Y203976D01*
X16024Y202739D01*
X16385Y201549D01*
X16971Y200453D01*
X17759Y199492D01*
X18721Y198703D01*
X19817Y198117D01*
X21007Y197756D01*
X22244Y197634D01*
X25000D01*
X26237Y197756D01*
X27427Y198117D01*
X27593Y198206D01*
X53799D01*
X55292Y198402D01*
X56684Y198979D01*
X57879Y199896D01*
X58796Y201091D01*
X59373Y202483D01*
X59380Y202536D01*
X59435Y202573D01*
X59612Y202837D01*
X59674Y203150D01*
Y206299D01*
X59612Y206611D01*
X59435Y206876D01*
X59170Y207053D01*
X58858Y207115D01*
X58602D01*
X57879Y208057D01*
X56684Y208974D01*
X55292Y209550D01*
X53799Y209747D01*
X27593D01*
X27427Y209836D01*
X26237Y210197D01*
X25000Y210319D01*
D02*
G37*
G36*
X70866Y196242D02*
X70005Y196128D01*
X69202Y195796D01*
X68512Y195267D01*
X67984Y194578D01*
X67966Y194536D01*
X67499D01*
X67486Y194604D01*
X67309Y194868D01*
X67044Y195045D01*
X66732Y195107D01*
X63189D01*
X62877Y195045D01*
X62612Y194868D01*
X62435Y194604D01*
X62373Y194291D01*
Y192306D01*
X61873Y192136D01*
X61167Y193057D01*
X60620Y193604D01*
X59425Y194521D01*
X58033Y195098D01*
X56539Y195294D01*
X25249D01*
X25000Y195319D01*
X22244D01*
X21007Y195197D01*
X19817Y194836D01*
X18721Y194250D01*
X17759Y193461D01*
X16971Y192500D01*
X16385Y191403D01*
X16024Y190214D01*
X15902Y188976D01*
X16024Y187739D01*
X16385Y186549D01*
X16971Y185453D01*
X17759Y184492D01*
X18721Y183703D01*
X19817Y183117D01*
X21007Y182756D01*
X22244Y182634D01*
X25000D01*
X26237Y182756D01*
X27427Y183117D01*
X28524Y183703D01*
X28585Y183753D01*
X54747D01*
X55593Y183402D01*
X57087Y183206D01*
X58580Y183402D01*
X59972Y183979D01*
X61167Y184896D01*
X62084Y186091D01*
X62661Y187483D01*
X62857Y188976D01*
X62732Y189929D01*
X63184Y190327D01*
X63189Y190326D01*
X66732D01*
X67044Y190388D01*
X67309Y190565D01*
X67486Y190830D01*
X67499Y190897D01*
X68253D01*
X68512Y190560D01*
X69202Y190031D01*
X70005Y189698D01*
X70866Y189585D01*
X71728Y189698D01*
X72530Y190031D01*
X73220Y190560D01*
X73749Y191249D01*
X74081Y192052D01*
X74195Y192913D01*
X74081Y193775D01*
X73749Y194578D01*
X73220Y195267D01*
X72530Y195796D01*
X71728Y196128D01*
X70866Y196242D01*
D02*
G37*
G36*
Y227738D02*
X70005Y227625D01*
X69202Y227292D01*
X68512Y226763D01*
X67984Y226074D01*
X67966Y226032D01*
X67499D01*
X67486Y226099D01*
X67309Y226364D01*
X67044Y226541D01*
X66732Y226603D01*
X63189D01*
X62877Y226541D01*
X62612Y226364D01*
X62435Y226099D01*
X62373Y225787D01*
Y223802D01*
X61873Y223633D01*
X61167Y224553D01*
X59972Y225470D01*
X58580Y226046D01*
X57087Y226243D01*
X25118D01*
X23625Y226046D01*
X22233Y225470D01*
X22005Y225295D01*
X21007Y225197D01*
X19817Y224836D01*
X18721Y224250D01*
X17759Y223461D01*
X16971Y222500D01*
X16385Y221404D01*
X16024Y220214D01*
X15902Y218976D01*
X16024Y217739D01*
X16385Y216549D01*
X16971Y215453D01*
X17759Y214492D01*
X18721Y213703D01*
X19817Y213117D01*
X21007Y212756D01*
X22244Y212634D01*
X25000D01*
X26237Y212756D01*
X27427Y213117D01*
X28524Y213703D01*
X29485Y214492D01*
X29657Y214702D01*
X57087D01*
X58580Y214898D01*
X59972Y215475D01*
X61167Y216392D01*
X62084Y217587D01*
X62661Y218979D01*
X62857Y220472D01*
X62732Y221426D01*
X63184Y221823D01*
X63189Y221822D01*
X66732D01*
X67044Y221884D01*
X67309Y222061D01*
X67486Y222326D01*
X67499Y222393D01*
X68253D01*
X68512Y222056D01*
X69202Y221527D01*
X70005Y221194D01*
X70866Y221081D01*
X71728Y221194D01*
X72530Y221527D01*
X73220Y222056D01*
X73749Y222745D01*
X74081Y223548D01*
X74195Y224410D01*
X74081Y225271D01*
X73749Y226074D01*
X73220Y226763D01*
X72530Y227292D01*
X71728Y227625D01*
X70866Y227738D01*
D02*
G37*
G36*
Y211990D02*
X70005Y211877D01*
X69202Y211544D01*
X68512Y211015D01*
X67984Y210326D01*
X67966Y210284D01*
X67499D01*
X67486Y210351D01*
X67309Y210616D01*
X67044Y210793D01*
X66732Y210855D01*
X63189D01*
X62877Y210793D01*
X62612Y210616D01*
X62435Y210351D01*
X62373Y210039D01*
Y206890D01*
X62435Y206578D01*
X62612Y206313D01*
X62877Y206136D01*
X63189Y206074D01*
X66732D01*
X67044Y206136D01*
X67309Y206313D01*
X67486Y206578D01*
X67499Y206645D01*
X68253D01*
X68512Y206308D01*
X69202Y205779D01*
X70005Y205446D01*
X70866Y205333D01*
X71728Y205446D01*
X72530Y205779D01*
X73220Y206308D01*
X73749Y206997D01*
X74081Y207800D01*
X74195Y208661D01*
X74081Y209523D01*
X73749Y210326D01*
X73220Y211015D01*
X72530Y211544D01*
X71728Y211877D01*
X70866Y211990D01*
D02*
G37*
G36*
X30512Y165304D02*
X16732D01*
X16420Y165242D01*
X16156Y165065D01*
X15979Y164800D01*
X15917Y164488D01*
Y153465D01*
X15979Y153152D01*
X16156Y152888D01*
X16420Y152711D01*
X16732Y152649D01*
X30512D01*
X30824Y152711D01*
X31089Y152888D01*
X31265Y153152D01*
X31328Y153465D01*
Y164488D01*
X31265Y164800D01*
X31089Y165065D01*
X30824Y165242D01*
X30512Y165304D01*
D02*
G37*
G36*
X40551Y154786D02*
X39058Y154590D01*
X37666Y154013D01*
X36471Y153096D01*
X35554Y151901D01*
X34977Y150509D01*
X34780Y149016D01*
X34977Y147522D01*
X35554Y146130D01*
X36471Y144935D01*
X37666Y144018D01*
X39058Y143442D01*
X40551Y143245D01*
X42045Y143442D01*
X43437Y144018D01*
X44632Y144935D01*
X45549Y146130D01*
X46125Y147522D01*
X46322Y149016D01*
X46125Y150509D01*
X45549Y151901D01*
X44632Y153096D01*
X43437Y154013D01*
X42045Y154590D01*
X40551Y154786D01*
D02*
G37*
G36*
X25000Y180319D02*
X22244D01*
X21007Y180197D01*
X19817Y179836D01*
X18721Y179250D01*
X17759Y178461D01*
X16971Y177500D01*
X16385Y176403D01*
X16024Y175214D01*
X15902Y173976D01*
X16024Y172739D01*
X16385Y171549D01*
X16971Y170453D01*
X17759Y169492D01*
X18721Y168703D01*
X19817Y168117D01*
X21007Y167756D01*
X22244Y167634D01*
X25000D01*
X26237Y167756D01*
X27427Y168117D01*
X27943Y168393D01*
X50147D01*
X50506Y168440D01*
X50627Y168318D01*
X51617Y167559D01*
X52769Y167081D01*
X54006Y166919D01*
X56650D01*
X57887Y167081D01*
X59039Y167559D01*
X60028Y168318D01*
X60788Y169307D01*
X61265Y170460D01*
X61428Y171696D01*
X61265Y172933D01*
X60788Y174085D01*
X60028Y175075D01*
X59039Y175834D01*
X57887Y176312D01*
X56650Y176474D01*
X55985D01*
X54918Y177542D01*
X54550Y177824D01*
X54228Y178244D01*
X53033Y179161D01*
X51641Y179737D01*
X50147Y179934D01*
X27105D01*
X26237Y180197D01*
X25000Y180319D01*
D02*
G37*
G36*
X70866Y180494D02*
X70005Y180380D01*
X69202Y180048D01*
X68512Y179519D01*
X67984Y178830D01*
X67966Y178788D01*
X67499D01*
X67486Y178855D01*
X67309Y179120D01*
X67044Y179297D01*
X66732Y179359D01*
X63189D01*
X62877Y179297D01*
X62612Y179120D01*
X62435Y178855D01*
X62373Y178543D01*
Y175394D01*
X62435Y175082D01*
X62612Y174817D01*
X62877Y174640D01*
X63189Y174578D01*
X66732D01*
X67044Y174640D01*
X67309Y174817D01*
X67486Y175082D01*
X67499Y175149D01*
X68253D01*
X68512Y174812D01*
X69202Y174283D01*
X70005Y173950D01*
X70866Y173837D01*
X71728Y173950D01*
X72530Y174283D01*
X73220Y174812D01*
X73749Y175501D01*
X74081Y176304D01*
X74195Y177165D01*
X74081Y178027D01*
X73749Y178830D01*
X73220Y179519D01*
X72530Y180048D01*
X71728Y180380D01*
X70866Y180494D01*
D02*
G37*
G36*
X190157Y120855D02*
X183858D01*
X183546Y120793D01*
X183282Y120616D01*
X183105Y120352D01*
X183043Y120039D01*
Y113740D01*
X183105Y113428D01*
X183282Y113163D01*
X183546Y112987D01*
X183858Y112925D01*
X190157D01*
X190470Y112987D01*
X190734Y113163D01*
X190911Y113428D01*
X190973Y113740D01*
Y120039D01*
X190911Y120352D01*
X190734Y120616D01*
X190470Y120793D01*
X190157Y120855D01*
D02*
G37*
G36*
X133858Y132714D02*
X133135Y132618D01*
X132462Y132340D01*
X131884Y131896D01*
X131440Y131317D01*
X131161Y130644D01*
X131066Y129921D01*
X131161Y129199D01*
X131440Y128525D01*
X131884Y127947D01*
X132340Y127597D01*
Y121495D01*
X131279Y120434D01*
X130709Y120509D01*
X129986Y120414D01*
X129313Y120135D01*
X128734Y119691D01*
X128290Y119113D01*
X128011Y118439D01*
X127916Y117717D01*
X128011Y116994D01*
X128290Y116320D01*
X128734Y115742D01*
X129313Y115298D01*
X129986Y115019D01*
X130709Y114924D01*
X131431Y115019D01*
X132105Y115298D01*
X132683Y115742D01*
X133127Y116320D01*
X133406Y116994D01*
X133501Y117717D01*
X133426Y118287D01*
X134932Y119793D01*
X135261Y120285D01*
X135376Y120866D01*
Y127597D01*
X135833Y127947D01*
X136276Y128525D01*
X136556Y129199D01*
X136651Y129921D01*
X136556Y130644D01*
X136276Y131317D01*
X135833Y131896D01*
X135255Y132340D01*
X134581Y132618D01*
X133858Y132714D01*
D02*
G37*
G36*
X128740Y137438D02*
X128017Y137343D01*
X127344Y137064D01*
X126766Y136620D01*
X126322Y136042D01*
X126043Y135368D01*
X125948Y134646D01*
X125725Y134392D01*
X119890D01*
X119691Y134652D01*
X119113Y135096D01*
X118439Y135374D01*
X117717Y135470D01*
X116994Y135374D01*
X116320Y135096D01*
X115742Y134652D01*
X115298Y134073D01*
X115019Y133400D01*
X114924Y132677D01*
X115019Y131954D01*
X115298Y131281D01*
X115742Y130703D01*
X116320Y130259D01*
X116994Y129980D01*
X117717Y129885D01*
X118439Y129980D01*
X119113Y130259D01*
X119691Y130703D01*
X120135Y131281D01*
X120166Y131356D01*
X126969D01*
X127550Y131471D01*
X128042Y131800D01*
X128170Y131928D01*
X128740Y131853D01*
X129463Y131948D01*
X130136Y132227D01*
X130715Y132671D01*
X131158Y133249D01*
X131437Y133923D01*
X131533Y134646D01*
X131437Y135368D01*
X131158Y136042D01*
X130715Y136620D01*
X130136Y137064D01*
X129463Y137343D01*
X128740Y137438D01*
D02*
G37*
G36*
X187008Y140873D02*
X185977Y140738D01*
X185016Y140340D01*
X184191Y139707D01*
X183558Y138882D01*
X183160Y137921D01*
X183024Y136890D01*
X183160Y135859D01*
X183558Y134898D01*
X184191Y134073D01*
X185016Y133440D01*
X185977Y133042D01*
X187008Y132906D01*
X188039Y133042D01*
X189000Y133440D01*
X189825Y134073D01*
X190458Y134898D01*
X190856Y135859D01*
X190992Y136890D01*
X190856Y137921D01*
X190458Y138882D01*
X189825Y139707D01*
X189000Y140340D01*
X188039Y140738D01*
X187008Y140873D01*
D02*
G37*
G36*
Y130873D02*
X185977Y130738D01*
X185016Y130340D01*
X184191Y129707D01*
X183558Y128882D01*
X183160Y127921D01*
X183024Y126890D01*
X183160Y125859D01*
X183558Y124898D01*
X184191Y124073D01*
X185016Y123440D01*
X185977Y123042D01*
X187008Y122906D01*
X188039Y123042D01*
X189000Y123440D01*
X189825Y124073D01*
X190458Y124898D01*
X190856Y125859D01*
X190992Y126890D01*
X190856Y127921D01*
X190458Y128882D01*
X189825Y129707D01*
X189000Y130340D01*
X188039Y130738D01*
X187008Y130873D01*
D02*
G37*
G36*
X147828Y141282D02*
X147248Y141166D01*
X146755Y140837D01*
X146755Y140837D01*
X146615Y140697D01*
X146044Y140772D01*
X145322Y140677D01*
X144648Y140398D01*
X144070Y139954D01*
X143626Y139376D01*
X143347Y138702D01*
X143252Y137979D01*
X143347Y137257D01*
X143626Y136583D01*
X144070Y136005D01*
X144648Y135561D01*
X145322Y135282D01*
X146044Y135187D01*
X146767Y135282D01*
X147335Y135517D01*
X147680Y135396D01*
X147872Y135263D01*
X147893Y135104D01*
X148172Y134431D01*
X148616Y133852D01*
X149194Y133408D01*
X149868Y133130D01*
X150190Y133087D01*
X153291Y129986D01*
Y116811D01*
X153094Y116554D01*
X152815Y115880D01*
X152719Y115157D01*
X152815Y114435D01*
X153094Y113761D01*
X153537Y113183D01*
X154116Y112739D01*
X154789Y112460D01*
X155512Y112365D01*
X156235Y112460D01*
X156908Y112739D01*
X157486Y113183D01*
X157657Y113406D01*
X158287D01*
X158458Y113183D01*
X159037Y112739D01*
X159710Y112460D01*
X160433Y112365D01*
X161155Y112460D01*
X161829Y112739D01*
X162407Y113183D01*
X162851Y113761D01*
X163130Y114435D01*
X163225Y115157D01*
X163130Y115880D01*
X162851Y116553D01*
X162407Y117132D01*
X161829Y117576D01*
X161155Y117854D01*
X160573Y117931D01*
Y132283D01*
X160573Y132283D01*
X160458Y132864D01*
X160129Y133357D01*
X160129Y133357D01*
X152648Y140837D01*
X152156Y141166D01*
X151575Y141282D01*
X147828D01*
X147828Y141282D01*
D02*
G37*
G36*
X168150Y193965D02*
X161850D01*
X161538Y193903D01*
X161274Y193726D01*
X161097Y193462D01*
X161035Y193150D01*
Y186850D01*
X161097Y186538D01*
X161274Y186274D01*
X161538Y186097D01*
X161850Y186035D01*
X168150D01*
X168462Y186097D01*
X168726Y186274D01*
X168903Y186538D01*
X168965Y186850D01*
Y193150D01*
X168903Y193462D01*
X168726Y193726D01*
X168462Y193903D01*
X168150Y193965D01*
D02*
G37*
G36*
X192044Y214970D02*
X190962Y214827D01*
X189953Y214409D01*
X189087Y213745D01*
X188422Y212878D01*
X188005Y211870D01*
X187862Y210787D01*
X188005Y209705D01*
X188422Y208696D01*
X189087Y207830D01*
X189953Y207166D01*
X190962Y206748D01*
X192044Y206605D01*
X193127Y206748D01*
X194135Y207166D01*
X195001Y207830D01*
X195666Y208696D01*
X196084Y209705D01*
X196227Y210787D01*
X196084Y211870D01*
X195666Y212878D01*
X195001Y213745D01*
X194135Y214409D01*
X193127Y214827D01*
X192044Y214970D01*
D02*
G37*
G36*
X149606Y212537D02*
X148858Y212439D01*
X148161Y212150D01*
X147562Y211690D01*
X147102Y211091D01*
X146813Y210394D01*
X146715Y209646D01*
X146813Y208897D01*
X147102Y208200D01*
X147562Y207601D01*
X148161Y207141D01*
X148858Y206853D01*
X149606Y206754D01*
X150355Y206853D01*
X151052Y207141D01*
X151651Y207601D01*
X152111Y208200D01*
X152399Y208897D01*
X152498Y209646D01*
X152399Y210394D01*
X152111Y211091D01*
X151651Y211690D01*
X151052Y212150D01*
X150355Y212439D01*
X149606Y212537D01*
D02*
G37*
G36*
X163779Y166572D02*
X163057Y166477D01*
X162383Y166198D01*
X161805Y165754D01*
X161455Y165298D01*
X158268D01*
X157687Y165182D01*
X157194Y164853D01*
X157194Y164853D01*
X155841Y163500D01*
X155313Y163679D01*
X155256Y164109D01*
X154977Y164782D01*
X154534Y165360D01*
X153955Y165804D01*
X153282Y166083D01*
X152559Y166178D01*
X151836Y166083D01*
X151163Y165804D01*
X150584Y165360D01*
X150141Y164782D01*
X149862Y164109D01*
X149767Y163386D01*
X149842Y162815D01*
X145580Y158554D01*
X145251Y158061D01*
X145135Y157480D01*
Y153899D01*
X144679Y153549D01*
X144235Y152971D01*
X144162Y152794D01*
X144027Y152726D01*
X143569Y152671D01*
X143129Y153009D01*
X142455Y153288D01*
X141732Y153383D01*
X141010Y153288D01*
X140336Y153009D01*
X139758Y152565D01*
X139314Y151987D01*
X139035Y151313D01*
X138940Y150591D01*
X139035Y149868D01*
X139314Y149194D01*
X139758Y148616D01*
X140336Y148172D01*
X141010Y147893D01*
X141732Y147798D01*
X142303Y147873D01*
X143612Y146564D01*
X144104Y146235D01*
X144685Y146120D01*
X148622D01*
X149203Y146235D01*
X149696Y146564D01*
X151664Y148533D01*
X151993Y149025D01*
X152109Y149606D01*
Y155473D01*
X158897Y162261D01*
X161455D01*
X161805Y161805D01*
X162383Y161361D01*
X163057Y161082D01*
X163779Y160987D01*
X164502Y161082D01*
X165176Y161361D01*
X165754Y161805D01*
X166198Y162383D01*
X166477Y163057D01*
X166572Y163779D01*
X166477Y164502D01*
X166198Y165176D01*
X165754Y165754D01*
X165176Y166198D01*
X164502Y166477D01*
X163779Y166572D01*
D02*
G37*
G36*
X165000Y183984D02*
X163969Y183848D01*
X163008Y183450D01*
X162183Y182817D01*
X161550Y181992D01*
X161152Y181031D01*
X161016Y180000D01*
X161152Y178969D01*
X161550Y178008D01*
X162183Y177183D01*
X163008Y176550D01*
X163969Y176152D01*
X165000Y176016D01*
X166031Y176152D01*
X166992Y176550D01*
X167817Y177183D01*
X168450Y178008D01*
X168848Y178969D01*
X168984Y180000D01*
X168848Y181031D01*
X168450Y181992D01*
X167817Y182817D01*
X166992Y183450D01*
X166031Y183848D01*
X165000Y183984D01*
D02*
G37*
G36*
X118110Y183357D02*
X116976Y183208D01*
X115920Y182770D01*
X115013Y182074D01*
X114316Y181167D01*
X113879Y180110D01*
X113730Y178976D01*
X113879Y177843D01*
X114316Y176786D01*
X115013Y175879D01*
X115920Y175182D01*
X116976Y174745D01*
X118110Y174596D01*
X119244Y174745D01*
X120301Y175182D01*
X121208Y175879D01*
X121904Y176786D01*
X122342Y177843D01*
X122491Y178976D01*
X122342Y180110D01*
X121904Y181167D01*
X121208Y182074D01*
X120301Y182770D01*
X119244Y183208D01*
X118110Y183357D01*
D02*
G37*
%LPD*%
D22*
X76575Y74606D02*
X78740Y76772D01*
X64961Y74606D02*
X76575D01*
X64961Y106102D02*
X65158Y106299D01*
X72835D01*
X64961Y90354D02*
X66732D01*
X68898Y92520D01*
X70866D01*
X70669Y176969D02*
X70866Y177165D01*
X64961Y176969D02*
X70669D01*
X70669Y192717D02*
X70866Y192913D01*
X64961Y192717D02*
X70669D01*
Y208465D02*
X70866Y208661D01*
X64961Y208465D02*
X70669D01*
Y224213D02*
X70866Y224410D01*
X64961Y224213D02*
X70669D01*
X65158Y122047D02*
X71260D01*
X64961Y121850D02*
X65158Y122047D01*
D23*
X146044Y137979D02*
X147828Y139764D01*
X151575D01*
X150591Y149606D02*
Y156102D01*
X148622Y147638D02*
X150591Y149606D01*
X144685Y147638D02*
X148622D01*
X150591Y156102D02*
X158268Y163779D01*
X141732Y150591D02*
X144685Y147638D01*
X118110Y188976D02*
X136811D01*
X141732Y184055D01*
X150888D01*
X154943Y180000D01*
X137796Y191354D02*
X142717Y186433D01*
X151376D01*
X154943Y190000D01*
X126559Y191354D02*
X137796D01*
X87598Y165354D02*
X109252Y143701D01*
X87598Y165354D02*
Y170276D01*
X119095Y198819D02*
X126559Y191354D01*
X98425Y198819D02*
X119095D01*
X93278Y193672D02*
X98425Y198819D01*
X93278Y184144D02*
Y193672D01*
X88110Y178976D02*
X93278Y184144D01*
X158268Y163779D02*
X163779D01*
X146653Y151575D02*
Y157480D01*
X152559Y163386D01*
X118110Y95472D02*
X121063D01*
X109252Y104331D02*
Y143701D01*
Y104331D02*
X118110Y95472D01*
X117717Y132677D02*
Y132874D01*
Y133616D01*
X126969Y132874D02*
X128740Y134646D01*
X116975Y132874D02*
X117717Y133616D01*
X116975Y132874D02*
X117717D01*
X126969D01*
X116850Y133071D02*
X117556Y133776D01*
X130709Y117717D02*
X133858Y120866D01*
Y129921D01*
X159055Y116535D02*
X160433Y115157D01*
X159055Y116535D02*
Y132283D01*
X151575Y139764D02*
X159055Y132283D01*
D24*
X150591Y135827D02*
X155512Y130905D01*
Y115157D02*
Y130905D01*
D26*
X149606Y31496D02*
D03*
Y11811D02*
D03*
X40551Y149016D02*
D03*
X48228Y50394D02*
D03*
D27*
X40551Y128937D02*
D03*
D28*
X68307Y50394D02*
D03*
D29*
X154943Y170000D02*
D03*
Y180000D02*
D03*
X187008Y136890D02*
D03*
Y126890D02*
D03*
Y146890D02*
D03*
X165000Y180000D02*
D03*
D30*
X154943Y190000D02*
D03*
X187008Y116890D02*
D03*
X165000Y190000D02*
D03*
D31*
X192044Y220787D02*
D03*
D32*
Y210787D02*
D03*
Y200787D02*
D03*
D33*
X149606Y209646D02*
D03*
Y219488D02*
D03*
D34*
X88110Y188976D02*
D03*
D35*
Y178976D02*
D03*
X98110D02*
D03*
X108110Y188976D02*
D03*
Y178976D02*
D03*
X118110Y188976D02*
D03*
Y178976D02*
D03*
D36*
X98110Y188976D02*
D03*
D38*
X159449Y108268D02*
D03*
X174213Y114173D02*
D03*
Y108268D02*
D03*
X164370D02*
D03*
X159449Y103347D02*
D03*
X164370D02*
D03*
X55512Y212205D02*
D03*
X58268Y197244D02*
D03*
X57087Y180315D02*
D03*
X9843Y181102D02*
D03*
Y196850D02*
D03*
Y212598D02*
D03*
Y230315D02*
D03*
X64961D02*
D03*
X83661Y233268D02*
D03*
Y224410D02*
D03*
Y215551D02*
D03*
Y206693D02*
D03*
Y197835D02*
D03*
X81693Y170276D02*
D03*
D39*
X150591Y135827D02*
D03*
X160433Y115157D02*
D03*
X152559Y163386D02*
D03*
X163779Y163779D02*
D03*
X155512Y115157D02*
D03*
X146044Y137979D02*
D03*
X146653Y151575D02*
D03*
X141732Y150591D02*
D03*
X133858Y129921D02*
D03*
X130709Y117717D02*
D03*
X128740Y134646D02*
D03*
X117717Y132677D02*
D03*
D40*
X78740Y76772D02*
D03*
X72835Y106299D02*
D03*
X70866Y92520D02*
D03*
Y177165D02*
D03*
Y192913D02*
D03*
Y208661D02*
D03*
Y224410D02*
D03*
X121063Y95472D02*
D03*
X179134Y166339D02*
D03*
X171260Y145669D02*
D03*
X182087Y183071D02*
D03*
X146653Y171260D02*
D03*
X139764Y103347D02*
D03*
X171260Y122047D02*
D03*
X149606Y225394D02*
D03*
Y231299D02*
D03*
X135827Y218504D02*
D03*
Y226378D02*
D03*
X127953D02*
D03*
X120079D02*
D03*
Y218504D02*
D03*
X139764Y109252D02*
D03*
Y171260D02*
D03*
X115157Y167323D02*
D03*
X121063Y171260D02*
D03*
X113386Y140945D02*
D03*
X145669Y104331D02*
D03*
X113386Y116929D02*
D03*
Y109843D02*
D03*
X135827Y202756D02*
D03*
X181890Y192913D02*
D03*
X142913Y202756D02*
D03*
X150000D02*
D03*
X71260Y122047D02*
D03*
D41*
X57087Y220472D02*
D03*
X64961Y216732D02*
D03*
Y224213D02*
D03*
X57087Y204724D02*
D03*
X64961Y200984D02*
D03*
Y208465D02*
D03*
X57087Y188976D02*
D03*
X64961Y185236D02*
D03*
Y192717D02*
D03*
X57087Y173228D02*
D03*
X64961Y169488D02*
D03*
Y176969D02*
D03*
X57087Y118110D02*
D03*
X64961Y114370D02*
D03*
Y121850D02*
D03*
X57087Y102362D02*
D03*
X64961Y98622D02*
D03*
Y106102D02*
D03*
X57087Y86614D02*
D03*
X64961Y82874D02*
D03*
Y90354D02*
D03*
X57087Y70866D02*
D03*
X64961Y67126D02*
D03*
Y74606D02*
D03*
D42*
X23622Y101614D02*
X56339D01*
X57087Y102362D01*
X25118Y220472D02*
X57087D01*
X23622Y218976D02*
X25118Y220472D01*
X23622Y203976D02*
X53799D01*
X23622Y188976D02*
X24169Y189524D01*
X56539D01*
X57087Y188976D01*
X23622Y173976D02*
X23809Y174163D01*
X50147D01*
X25118Y118110D02*
X57087D01*
X23622Y116614D02*
X25118Y118110D01*
X23622Y86614D02*
X57087D01*
X24370Y70866D02*
X57087D01*
X23622Y71614D02*
X24370Y70866D01*
D43*
X50147Y174163D02*
X51539D01*
X54006Y171696D01*
X56650D01*
D44*
X87598Y170276D02*
X90551Y173228D01*
X101086D01*
X102954Y175096D02*
Y184133D01*
X101086Y173228D02*
X102954Y175096D01*
X98110Y188976D02*
X102954Y184133D01*
D45*
X189961Y198704D02*
X192044Y200787D01*
X189961Y162402D02*
Y198704D01*
X179134Y151575D02*
X189961Y162402D01*
X179134Y112205D02*
Y151575D01*
Y112205D02*
X189961Y101378D01*
X161417Y58898D02*
X164213Y56102D01*
X189961Y67550D02*
Y101378D01*
X178513Y56102D02*
X189961Y67550D01*
X164213Y56102D02*
X178513D01*
D46*
X161417Y58898D02*
D03*
D47*
Y78898D02*
D03*
D48*
X23622Y218976D02*
D03*
Y203976D02*
D03*
Y188976D02*
D03*
Y173976D02*
D03*
Y71614D02*
D03*
Y86614D02*
D03*
Y101614D02*
D03*
Y116614D02*
D03*
D49*
Y158976D02*
D03*
Y56614D02*
D03*
M02*
