G04 Layer_Color=1754623*
%FSLAX25Y25*%
%MOIN*%
G70*
G01*
G75*
%ADD44C,0.01000*%
%ADD50C,0.00984*%
%ADD53C,0.00787*%
%ADD88R,1.18110X0.39370*%
G36*
X66772Y147164D02*
X66849Y147156D01*
X66910Y147141D01*
X66956Y147126D01*
X66995Y147103D01*
X67018Y147087D01*
X67033Y147080D01*
X67041Y147072D01*
X67071Y147033D01*
X67094Y146980D01*
X67118Y146872D01*
X67125Y146818D01*
X67133Y146780D01*
Y146749D01*
Y146742D01*
X67125Y146665D01*
X67118Y146596D01*
X67102Y146542D01*
X67087Y146496D01*
X67071Y146465D01*
X67056Y146442D01*
X67041Y146434D01*
Y146427D01*
X67002Y146396D01*
X66948Y146381D01*
X66826Y146350D01*
X66772D01*
X66726Y146342D01*
X66680D01*
X66588Y146350D01*
X66511Y146358D01*
X66449Y146373D01*
X66403Y146388D01*
X66365Y146404D01*
X66342Y146411D01*
X66326Y146427D01*
X66319D01*
X66288Y146465D01*
X66257Y146519D01*
X66234Y146626D01*
X66227Y146680D01*
X66219Y146719D01*
Y146749D01*
Y146757D01*
X66227Y146834D01*
X66234Y146903D01*
X66250Y146964D01*
X66265Y147003D01*
X66288Y147041D01*
X66303Y147064D01*
X66311Y147072D01*
X66319Y147080D01*
X66357Y147110D01*
X66411Y147133D01*
X66534Y147164D01*
X66588D01*
X66634Y147172D01*
X66680D01*
X66772Y147164D01*
D02*
G37*
G36*
X79014D02*
X79091Y147156D01*
X79152Y147141D01*
X79198Y147126D01*
X79237Y147103D01*
X79260Y147087D01*
X79275Y147080D01*
X79283Y147072D01*
X79313Y147033D01*
X79336Y146980D01*
X79359Y146872D01*
X79367Y146818D01*
X79375Y146780D01*
Y146749D01*
Y146742D01*
X79367Y146665D01*
X79359Y146596D01*
X79344Y146542D01*
X79329Y146496D01*
X79313Y146465D01*
X79298Y146442D01*
X79283Y146434D01*
Y146427D01*
X79244Y146396D01*
X79190Y146381D01*
X79067Y146350D01*
X79014D01*
X78968Y146342D01*
X78922D01*
X78829Y146350D01*
X78753Y146358D01*
X78691Y146373D01*
X78645Y146388D01*
X78607Y146404D01*
X78584Y146411D01*
X78568Y146427D01*
X78561D01*
X78530Y146465D01*
X78499Y146519D01*
X78476Y146626D01*
X78469Y146680D01*
X78461Y146719D01*
Y146749D01*
Y146757D01*
X78469Y146834D01*
X78476Y146903D01*
X78491Y146964D01*
X78507Y147003D01*
X78530Y147041D01*
X78545Y147064D01*
X78553Y147072D01*
X78561Y147080D01*
X78599Y147110D01*
X78653Y147133D01*
X78776Y147164D01*
X78829D01*
X78875Y147172D01*
X78922D01*
X79014Y147164D01*
D02*
G37*
G36*
X62832Y134053D02*
X62924Y134045D01*
X63001Y134030D01*
X63070Y134015D01*
X63116Y134007D01*
X63147Y133992D01*
X63162D01*
X63254Y133961D01*
X63331Y133930D01*
X63408Y133892D01*
X63469Y133861D01*
X63523Y133830D01*
X63562Y133800D01*
X63585Y133784D01*
X63592Y133777D01*
X63654Y133723D01*
X63715Y133661D01*
X63769Y133592D01*
X63807Y133538D01*
X63838Y133485D01*
X63861Y133446D01*
X63876Y133416D01*
X63884Y133408D01*
X63923Y133324D01*
X63946Y133231D01*
X63969Y133147D01*
X63976Y133070D01*
X63984Y133001D01*
X63992Y132940D01*
Y132909D01*
Y132893D01*
Y132801D01*
X63984Y132717D01*
X63969Y132640D01*
X63953Y132579D01*
X63946Y132525D01*
X63930Y132486D01*
X63923Y132463D01*
Y132456D01*
X63861Y132325D01*
X63823Y132271D01*
X63792Y132225D01*
X63769Y132187D01*
X63746Y132156D01*
X63731Y132141D01*
X63723Y132133D01*
X63631Y132041D01*
X63539Y131972D01*
X63500Y131941D01*
X63469Y131918D01*
X63454Y131910D01*
X63446Y131903D01*
X63331Y131841D01*
X63231Y131788D01*
X63193Y131764D01*
X63162Y131749D01*
X63139Y131734D01*
X63131D01*
X63016Y131680D01*
X62916Y131634D01*
X62870Y131611D01*
X62840Y131603D01*
X62824Y131588D01*
X62817D01*
X62709Y131542D01*
X62617Y131496D01*
X62586Y131480D01*
X62563Y131465D01*
X62548Y131450D01*
X62540D01*
X62456Y131388D01*
X62394Y131334D01*
X62356Y131288D01*
X62340Y131281D01*
Y131273D01*
X62294Y131196D01*
X62271Y131119D01*
X62264Y131081D01*
Y131058D01*
Y131043D01*
Y131035D01*
X62271Y130950D01*
X62287Y130881D01*
X62302Y130827D01*
X62310Y130820D01*
Y130812D01*
X62348Y130751D01*
X62394Y130697D01*
X62425Y130666D01*
X62433Y130651D01*
X62440D01*
X62510Y130613D01*
X62579Y130582D01*
X62602Y130566D01*
X62625Y130559D01*
X62640Y130551D01*
X62648D01*
X62740Y130536D01*
X62824Y130528D01*
X62855Y130520D01*
X62993D01*
X63070Y130528D01*
X63139Y130536D01*
X63201Y130543D01*
X63247Y130551D01*
X63285Y130559D01*
X63308Y130566D01*
X63316D01*
X63439Y130605D01*
X63485Y130628D01*
X63531Y130643D01*
X63569Y130658D01*
X63592Y130674D01*
X63608Y130682D01*
X63615D01*
X63700Y130728D01*
X63761Y130766D01*
X63807Y130789D01*
X63815Y130797D01*
X63823D01*
X63876Y130827D01*
X63915Y130843D01*
X63938Y130851D01*
X63969D01*
X63984Y130843D01*
X63992Y130835D01*
X63999Y130827D01*
X64015Y130812D01*
X64030Y130789D01*
X64038Y130774D01*
Y130766D01*
X64046Y130735D01*
X64053Y130697D01*
X64061Y130674D01*
Y130658D01*
Y130605D01*
Y130559D01*
Y130513D01*
Y130505D01*
Y130497D01*
Y130405D01*
X64053Y130336D01*
X64046Y130298D01*
Y130282D01*
X64030Y130228D01*
X64015Y130190D01*
X63999Y130167D01*
X63992Y130159D01*
X63953Y130129D01*
X63907Y130098D01*
X63869Y130075D01*
X63854Y130067D01*
X63777Y130029D01*
X63700Y129998D01*
X63669Y129983D01*
X63646Y129975D01*
X63631Y129967D01*
X63623D01*
X63516Y129937D01*
X63416Y129914D01*
X63370Y129906D01*
X63339Y129898D01*
X63316Y129891D01*
X63308D01*
X63170Y129867D01*
X63101Y129860D01*
X63039D01*
X62993Y129852D01*
X62801D01*
X62694Y129867D01*
X62594Y129875D01*
X62510Y129891D01*
X62433Y129906D01*
X62379Y129914D01*
X62348Y129929D01*
X62333D01*
X62233Y129967D01*
X62141Y130006D01*
X62064Y130044D01*
X61987Y130082D01*
X61933Y130121D01*
X61895Y130152D01*
X61864Y130167D01*
X61857Y130175D01*
X61780Y130236D01*
X61718Y130305D01*
X61657Y130374D01*
X61611Y130436D01*
X61572Y130490D01*
X61550Y130536D01*
X61534Y130566D01*
X61526Y130574D01*
X61488Y130666D01*
X61457Y130766D01*
X61434Y130866D01*
X61419Y130950D01*
X61411Y131027D01*
X61404Y131089D01*
Y131127D01*
Y131142D01*
Y131235D01*
X61419Y131311D01*
X61427Y131380D01*
X61442Y131450D01*
X61457Y131496D01*
X61465Y131534D01*
X61480Y131557D01*
Y131565D01*
X61542Y131695D01*
X61580Y131749D01*
X61611Y131795D01*
X61634Y131826D01*
X61657Y131857D01*
X61672Y131872D01*
X61680Y131880D01*
X61772Y131972D01*
X61864Y132049D01*
X61903Y132072D01*
X61933Y132095D01*
X61957Y132102D01*
X61964Y132110D01*
X62079Y132179D01*
X62179Y132233D01*
X62225Y132248D01*
X62256Y132264D01*
X62279Y132279D01*
X62287D01*
X62402Y132333D01*
X62510Y132379D01*
X62548Y132402D01*
X62579Y132410D01*
X62602Y132425D01*
X62609D01*
X62717Y132479D01*
X62801Y132525D01*
X62840Y132540D01*
X62863Y132555D01*
X62878Y132571D01*
X62886D01*
X62970Y132632D01*
X63032Y132686D01*
X63070Y132732D01*
X63086Y132740D01*
Y132747D01*
X63124Y132824D01*
X63147Y132901D01*
Y132940D01*
X63155Y132963D01*
Y132978D01*
Y132986D01*
X63147Y133047D01*
X63139Y133101D01*
X63131Y133139D01*
X63124Y133154D01*
X63093Y133208D01*
X63062Y133254D01*
X63032Y133285D01*
X63024Y133293D01*
X62970Y133331D01*
X62916Y133362D01*
X62870Y133377D01*
X62863Y133385D01*
X62855D01*
X62778Y133408D01*
X62701Y133416D01*
X62663Y133423D01*
X62617D01*
X62494Y133416D01*
X62440Y133408D01*
X62394Y133400D01*
X62356Y133393D01*
X62325Y133385D01*
X62310Y133377D01*
X62302D01*
X62202Y133339D01*
X62118Y133308D01*
X62087Y133300D01*
X62064Y133285D01*
X62056Y133277D01*
X62049D01*
X61972Y133247D01*
X61918Y133216D01*
X61880Y133193D01*
X61864Y133185D01*
X61811Y133162D01*
X61780Y133154D01*
X61757Y133147D01*
X61749D01*
X61711Y133154D01*
X61703Y133162D01*
X61688Y133178D01*
X61680Y133193D01*
X61672Y133208D01*
Y133216D01*
X61665Y133254D01*
X61657Y133285D01*
X61649Y133316D01*
Y133324D01*
X61642Y133377D01*
Y133423D01*
Y133462D01*
Y133477D01*
Y133531D01*
Y133577D01*
X61649Y133608D01*
Y133615D01*
Y133654D01*
Y133685D01*
X61657Y133700D01*
Y133707D01*
X61672Y133754D01*
X61680Y133761D01*
Y133769D01*
X61688Y133784D01*
X61703Y133807D01*
X61711Y133815D01*
X61718Y133823D01*
X61749Y133846D01*
X61795Y133877D01*
X61834Y133892D01*
X61841Y133899D01*
X61849D01*
X61926Y133930D01*
X61995Y133961D01*
X62026Y133969D01*
X62049Y133976D01*
X62064Y133984D01*
X62072D01*
X62164Y134007D01*
X62248Y134030D01*
X62287Y134038D01*
X62318D01*
X62333Y134045D01*
X62340D01*
X62448Y134061D01*
X62540Y134069D01*
X62632D01*
X62832Y134053D01*
D02*
G37*
G36*
X105295Y147041D02*
X105364Y147033D01*
X105418D01*
X105471Y147026D01*
X105510Y147018D01*
X105533Y147010D01*
X105541D01*
X105671Y146980D01*
X105725Y146964D01*
X105779Y146949D01*
X105817Y146941D01*
X105848Y146926D01*
X105871Y146918D01*
X105878D01*
X105986Y146880D01*
X106063Y146841D01*
X106094Y146826D01*
X106116Y146811D01*
X106132Y146803D01*
X106140D01*
X106201Y146765D01*
X106247Y146734D01*
X106278Y146719D01*
X106286Y146711D01*
X106308Y146688D01*
X106324Y146665D01*
X106339Y146649D01*
Y146642D01*
X106355Y146603D01*
X106362Y146588D01*
Y146580D01*
X106370Y146527D01*
X106378Y146503D01*
Y146496D01*
Y146457D01*
Y146419D01*
Y146388D01*
Y146373D01*
Y146296D01*
X106370Y146242D01*
Y146204D01*
Y146189D01*
X106362Y146143D01*
Y146104D01*
X106355Y146081D01*
Y146073D01*
X106339Y146043D01*
X106332Y146027D01*
X106324Y146012D01*
X106286Y145997D01*
X106270D01*
X106239Y146004D01*
X106201Y146020D01*
X106170Y146035D01*
X106163Y146043D01*
X106101Y146081D01*
X106040Y146112D01*
X105994Y146135D01*
X105986Y146143D01*
X105978D01*
X105886Y146189D01*
X105809Y146219D01*
X105771Y146235D01*
X105748Y146242D01*
X105733Y146250D01*
X105725D01*
X105610Y146281D01*
X105502Y146296D01*
X105464Y146304D01*
X105395D01*
X105302Y146296D01*
X105226Y146281D01*
X105180Y146265D01*
X105172Y146258D01*
X105164D01*
X105095Y146227D01*
X105049Y146189D01*
X105011Y146166D01*
X105003Y146150D01*
X104957Y146097D01*
X104926Y146043D01*
X104911Y146004D01*
X104903Y145997D01*
Y145989D01*
X104880Y145920D01*
X104872Y145858D01*
X104865Y145805D01*
Y145797D01*
Y145789D01*
X104872Y145705D01*
X104880Y145628D01*
X104888Y145597D01*
Y145574D01*
X104895Y145559D01*
Y145551D01*
X104918Y145459D01*
X104957Y145367D01*
X104972Y145328D01*
X104980Y145298D01*
X104995Y145282D01*
Y145275D01*
X105057Y145159D01*
X105118Y145052D01*
X105149Y145014D01*
X105172Y144975D01*
X105187Y144952D01*
X105195Y144945D01*
X105249Y144875D01*
X105302Y144806D01*
X105364Y144737D01*
X105418Y144676D01*
X105464Y144622D01*
X105502Y144583D01*
X105533Y144553D01*
X105541Y144545D01*
X106247Y143785D01*
X106286Y143739D01*
X106316Y143700D01*
X106339Y143670D01*
X106347Y143662D01*
X106370Y143623D01*
X106393Y143585D01*
X106408Y143554D01*
X106416Y143547D01*
X106431Y143501D01*
X106439Y143462D01*
X106447Y143431D01*
Y143416D01*
X106454Y143362D01*
Y143301D01*
Y143255D01*
Y143247D01*
Y143239D01*
Y143170D01*
X106447Y143109D01*
Y143078D01*
Y143063D01*
X106431Y143017D01*
X106416Y142986D01*
X106408Y142963D01*
X106401Y142955D01*
X106378Y142932D01*
X106347Y142925D01*
X106324Y142909D01*
X106316D01*
X106278Y142902D01*
X103851D01*
X103813Y142909D01*
X103797Y142917D01*
X103782Y142932D01*
X103766Y142948D01*
X103759Y142963D01*
Y142971D01*
X103751Y143009D01*
X103743Y143040D01*
X103736Y143071D01*
Y143078D01*
X103728Y143132D01*
X103720Y143178D01*
Y143217D01*
Y143232D01*
Y143293D01*
X103728Y143347D01*
X103736Y143378D01*
Y143385D01*
X103743Y143424D01*
X103751Y143462D01*
X103759Y143478D01*
X103766Y143485D01*
X103782Y143516D01*
X103797Y143531D01*
X103805Y143547D01*
X103813D01*
X103828Y143562D01*
X103851Y143570D01*
X105471D01*
X104995Y144054D01*
X104865Y144184D01*
X104750Y144307D01*
X104657Y144415D01*
X104573Y144507D01*
X104504Y144576D01*
X104458Y144637D01*
X104427Y144668D01*
X104419Y144683D01*
X104342Y144783D01*
X104273Y144875D01*
X104219Y144960D01*
X104166Y145029D01*
X104135Y145090D01*
X104104Y145136D01*
X104089Y145167D01*
X104081Y145175D01*
X104035Y145259D01*
X104005Y145336D01*
X103974Y145405D01*
X103951Y145467D01*
X103935Y145520D01*
X103928Y145559D01*
X103920Y145582D01*
Y145590D01*
X103897Y145736D01*
X103889Y145797D01*
Y145858D01*
X103882Y145905D01*
Y145951D01*
Y145974D01*
Y145981D01*
Y146066D01*
X103897Y146143D01*
X103905Y146212D01*
X103920Y146273D01*
X103935Y146327D01*
X103951Y146365D01*
X103958Y146388D01*
X103966Y146396D01*
X103997Y146465D01*
X104035Y146534D01*
X104074Y146596D01*
X104112Y146642D01*
X104150Y146688D01*
X104181Y146719D01*
X104197Y146734D01*
X104204Y146742D01*
X104266Y146795D01*
X104327Y146841D01*
X104458Y146911D01*
X104511Y146934D01*
X104558Y146949D01*
X104588Y146964D01*
X104596D01*
X104688Y146995D01*
X104780Y147010D01*
X104872Y147026D01*
X104964Y147041D01*
X105034D01*
X105095Y147049D01*
X105149D01*
X105295Y147041D01*
D02*
G37*
G36*
X103129Y146987D02*
X103198D01*
X103221Y146980D01*
X103236D01*
X103298Y146972D01*
X103336Y146957D01*
X103359Y146949D01*
X103367Y146941D01*
X103390Y146911D01*
X103398Y146880D01*
Y146857D01*
Y146841D01*
X103390Y146788D01*
X103375Y146734D01*
X103359Y146688D01*
X103352Y146672D01*
Y146665D01*
X102138Y143055D01*
X102123Y143009D01*
X102115Y142994D01*
Y142986D01*
X102092Y142955D01*
X102077Y142948D01*
Y142940D01*
X102031Y142917D01*
X102015Y142909D01*
X102008D01*
X101969Y142902D01*
X101900D01*
X101854Y142894D01*
X101754D01*
X101678Y142886D01*
X101424D01*
X101347Y142894D01*
X101278D01*
X101209Y142902D01*
X101163D01*
X101132Y142909D01*
X101125D01*
X101086Y142925D01*
X101063Y142940D01*
X101055Y142948D01*
X101048Y142955D01*
X101009Y143017D01*
X101002Y143040D01*
Y143047D01*
X99788Y146657D01*
X99765Y146734D01*
X99750Y146788D01*
X99742Y146818D01*
Y146834D01*
X99734Y146880D01*
X99742Y146911D01*
X99750Y146926D01*
X99757Y146934D01*
X99788Y146957D01*
X99827Y146972D01*
X99857Y146980D01*
X99873D01*
X99942Y146987D01*
X100011Y146995D01*
X100264D01*
X100310Y146987D01*
X100326D01*
X100380Y146980D01*
X100426Y146972D01*
X100449Y146964D01*
X100456Y146957D01*
X100487Y146941D01*
X100510Y146926D01*
X100518Y146911D01*
X100525Y146903D01*
X100533Y146880D01*
X100549Y146849D01*
X100556Y146826D01*
Y146818D01*
X101524Y143700D01*
X102522Y146834D01*
X102538Y146872D01*
X102545Y146895D01*
X102553Y146911D01*
X102561Y146918D01*
X102576Y146941D01*
X102599Y146957D01*
X102614Y146964D01*
X102622D01*
X102661Y146972D01*
X102699Y146980D01*
X102730Y146987D01*
X102745D01*
X102814Y146995D01*
X103083D01*
X103129Y146987D01*
D02*
G37*
G36*
X114257Y147272D02*
X114296Y147264D01*
X114311D01*
X114365Y147256D01*
X114403Y147248D01*
X114426Y147241D01*
X114434D01*
X114465Y147225D01*
X114480Y147210D01*
X114495Y147202D01*
Y147195D01*
X114511Y147156D01*
Y147149D01*
Y147141D01*
Y143009D01*
X114503Y142971D01*
X114495Y142963D01*
Y142955D01*
X114480Y142940D01*
X114457Y142925D01*
X114442Y142917D01*
X114434D01*
X114395Y142909D01*
X114357Y142902D01*
X114326Y142894D01*
X114311D01*
X114250Y142886D01*
X114042D01*
X113981Y142894D01*
X113927D01*
X113873Y142902D01*
X113835Y142909D01*
X113812Y142917D01*
X113804D01*
X113774Y142932D01*
X113758Y142940D01*
X113743Y142955D01*
X113727Y142971D01*
X113720Y142994D01*
Y143001D01*
Y143009D01*
Y144868D01*
X113658Y144945D01*
X113604Y145006D01*
X113551Y145067D01*
X113505Y145113D01*
X113459Y145144D01*
X113428Y145167D01*
X113412Y145183D01*
X113405Y145190D01*
X113351Y145229D01*
X113290Y145259D01*
X113243Y145275D01*
X113190Y145290D01*
X113151Y145298D01*
X113121Y145305D01*
X113098D01*
X113013Y145298D01*
X112944Y145282D01*
X112906Y145267D01*
X112890Y145259D01*
X112829Y145221D01*
X112783Y145175D01*
X112752Y145144D01*
X112744Y145136D01*
Y145129D01*
X112706Y145060D01*
X112675Y144998D01*
X112660Y144952D01*
X112652Y144937D01*
Y144929D01*
X112645Y144883D01*
X112637Y144829D01*
X112621Y144722D01*
Y144676D01*
Y144637D01*
Y144614D01*
Y144607D01*
Y143009D01*
X112614Y142971D01*
X112606Y142963D01*
Y142955D01*
X112591Y142940D01*
X112568Y142925D01*
X112552Y142917D01*
X112545D01*
X112506Y142909D01*
X112468Y142902D01*
X112437Y142894D01*
X112422D01*
X112360Y142886D01*
X112153D01*
X112092Y142894D01*
X112038D01*
X111984Y142902D01*
X111946Y142909D01*
X111923Y142917D01*
X111915D01*
X111884Y142932D01*
X111869Y142940D01*
X111854Y142955D01*
X111838Y142971D01*
X111830Y142994D01*
Y143001D01*
Y143009D01*
Y144729D01*
Y144837D01*
X111838Y144945D01*
X111846Y145029D01*
X111854Y145106D01*
X111869Y145167D01*
X111876Y145213D01*
X111884Y145244D01*
Y145252D01*
X111907Y145336D01*
X111938Y145405D01*
X111961Y145474D01*
X111992Y145528D01*
X112022Y145574D01*
X112038Y145605D01*
X112053Y145628D01*
X112061Y145636D01*
X112161Y145751D01*
X112214Y145789D01*
X112268Y145828D01*
X112314Y145858D01*
X112353Y145881D01*
X112376Y145889D01*
X112383Y145897D01*
X112460Y145928D01*
X112537Y145958D01*
X112621Y145974D01*
X112698Y145981D01*
X112767Y145989D01*
X112821Y145997D01*
X112867D01*
X112952Y145989D01*
X113029Y145981D01*
X113105Y145966D01*
X113167Y145951D01*
X113228Y145928D01*
X113267Y145912D01*
X113297Y145905D01*
X113305Y145897D01*
X113382Y145858D01*
X113459Y145805D01*
X113528Y145759D01*
X113589Y145712D01*
X113643Y145666D01*
X113681Y145628D01*
X113712Y145605D01*
X113720Y145597D01*
Y147141D01*
Y147164D01*
X113727Y147179D01*
X113735Y147195D01*
X113743D01*
X113758Y147218D01*
X113781Y147233D01*
X113796Y147241D01*
X113804D01*
X113843Y147248D01*
X113881Y147256D01*
X113912Y147264D01*
X113927D01*
X113988Y147272D01*
X114050Y147279D01*
X114196D01*
X114257Y147272D01*
D02*
G37*
G36*
X108336Y146995D02*
X108413D01*
X108436Y146987D01*
X108490D01*
X108497Y146980D01*
X108505D01*
X108536Y146964D01*
X108543Y146957D01*
X109419Y146388D01*
X109465Y146358D01*
X109473Y146350D01*
X109480Y146342D01*
X109503Y146304D01*
X109511Y146289D01*
Y146281D01*
X109526Y146235D01*
Y146212D01*
Y146204D01*
Y146166D01*
Y146127D01*
Y146097D01*
Y146081D01*
Y145997D01*
X109519Y145943D01*
Y145905D01*
Y145889D01*
X109511Y145851D01*
X109503Y145820D01*
X109488Y145805D01*
Y145797D01*
X109465Y145782D01*
X109411D01*
X109373Y145789D01*
X109334Y145805D01*
X109304Y145820D01*
X109296Y145828D01*
X108635Y146189D01*
Y143539D01*
X109419D01*
X109434Y143531D01*
X109442Y143524D01*
X109450Y143516D01*
X109465Y143501D01*
X109480Y143485D01*
X109488Y143470D01*
Y143462D01*
X109496Y143431D01*
X109503Y143401D01*
X109511Y143370D01*
Y143362D01*
X109519Y143316D01*
Y143263D01*
Y143224D01*
Y143217D01*
Y143209D01*
Y143147D01*
X109511Y143101D01*
Y143071D01*
Y143063D01*
X109503Y143025D01*
X109496Y142994D01*
X109488Y142971D01*
Y142963D01*
X109465Y142932D01*
X109450Y142917D01*
X109419Y142902D01*
X107153D01*
X107115Y142909D01*
X107099Y142917D01*
X107069Y142948D01*
X107061Y142955D01*
Y142963D01*
X107053Y142994D01*
X107046Y143025D01*
X107038Y143055D01*
Y143063D01*
X107030Y143109D01*
X107023Y143163D01*
Y143193D01*
Y143209D01*
Y143270D01*
X107030Y143324D01*
X107038Y143355D01*
Y143362D01*
X107046Y143401D01*
X107053Y143439D01*
X107061Y143455D01*
Y143462D01*
X107077Y143485D01*
X107084Y143501D01*
X107092Y143516D01*
X107099D01*
X107115Y143531D01*
X107138Y143539D01*
X107814D01*
Y146903D01*
X107822Y146934D01*
X107829Y146941D01*
X107844Y146957D01*
X107860Y146964D01*
X107875Y146972D01*
X107883D01*
X107914Y146980D01*
X107952Y146987D01*
X107983Y146995D01*
X107998D01*
X108060Y147003D01*
X108298D01*
X108336Y146995D01*
D02*
G37*
G36*
X59522Y134007D02*
X59560D01*
X59622Y133999D01*
X59668Y133992D01*
X59699Y133984D01*
X59706D01*
X59745Y133969D01*
X59768Y133953D01*
X59783Y133938D01*
X59791Y133930D01*
X59806Y133907D01*
X59821Y133877D01*
X59829Y133853D01*
Y133846D01*
X61089Y130236D01*
X61112Y130167D01*
X61127Y130106D01*
X61135Y130075D01*
Y130060D01*
Y130013D01*
X61127Y129983D01*
X61119Y129960D01*
X61112Y129952D01*
X61081Y129937D01*
X61043Y129921D01*
X61019Y129914D01*
X61004D01*
X60935Y129906D01*
X60682D01*
X60612Y129914D01*
X60559D01*
X60505Y129921D01*
X60459Y129929D01*
X60436Y129937D01*
X60428D01*
X60397Y129952D01*
X60382Y129960D01*
X60367Y129975D01*
X60336Y130029D01*
X60328Y130044D01*
Y130052D01*
X60075Y130851D01*
X58531D01*
X58270Y130029D01*
X58247Y129983D01*
X58239Y129967D01*
Y129960D01*
X58216Y129944D01*
X58193Y129937D01*
X58178Y129929D01*
X58170D01*
X58132Y129921D01*
X58086D01*
X58055Y129914D01*
X58040D01*
X57963Y129906D01*
X57686D01*
X57610Y129914D01*
X57548D01*
X57487Y129921D01*
X57448Y129937D01*
X57433Y129944D01*
X57425Y129952D01*
X57402Y129983D01*
X57395Y130013D01*
Y130036D01*
Y130044D01*
X57402Y130106D01*
X57418Y130159D01*
X57433Y130213D01*
X57441Y130221D01*
Y130228D01*
X58700Y133838D01*
X58715Y133877D01*
X58731Y133907D01*
X58739Y133923D01*
X58746Y133930D01*
X58769Y133953D01*
X58800Y133969D01*
X58823Y133984D01*
X58831D01*
X58885Y133992D01*
X58938Y133999D01*
X58984Y134007D01*
X59007D01*
X59100Y134015D01*
X59491D01*
X59522Y134007D01*
D02*
G37*
G36*
X74890Y131803D02*
X74920Y131780D01*
X74943Y131757D01*
X74951Y131741D01*
X74959Y131711D01*
X74966Y131672D01*
X74974Y131596D01*
X74982Y131557D01*
Y131526D01*
Y131503D01*
Y131496D01*
Y131434D01*
X74974Y131380D01*
Y131334D01*
X74966Y131304D01*
X74959Y131273D01*
Y131258D01*
X74951Y131250D01*
Y131242D01*
X74920Y131204D01*
X74882Y131181D01*
X74851Y131173D01*
X73523D01*
X73476Y131181D01*
X73446Y131211D01*
X73423Y131235D01*
X73415Y131242D01*
X73400Y131273D01*
X73392Y131311D01*
X73384Y131396D01*
X73377Y131434D01*
Y131465D01*
Y131488D01*
Y131496D01*
Y131557D01*
X73384Y131603D01*
X73392Y131634D01*
Y131642D01*
X73400Y131688D01*
X73407Y131718D01*
X73415Y131734D01*
Y131741D01*
X73430Y131764D01*
X73446Y131780D01*
X73453Y131795D01*
X73461D01*
X73476Y131810D01*
X73500Y131818D01*
X74836D01*
X74890Y131803D01*
D02*
G37*
G36*
X69253Y134007D02*
X69329D01*
X69352Y133999D01*
X69368D01*
X69429Y133992D01*
X69468Y133976D01*
X69491Y133969D01*
X69498Y133961D01*
X69521Y133930D01*
Y133899D01*
Y133877D01*
Y133861D01*
X69498Y133807D01*
X69468Y133754D01*
X69445Y133707D01*
X69437Y133692D01*
Y133685D01*
X68323Y131465D01*
Y130036D01*
X68316Y129998D01*
X68308Y129983D01*
Y129975D01*
X68292Y129960D01*
X68269Y129944D01*
X68254Y129937D01*
X68246D01*
X68200Y129929D01*
X68162Y129921D01*
X68131Y129914D01*
X68116D01*
X68047Y129906D01*
X67832D01*
X67770Y129914D01*
X67716D01*
X67663Y129921D01*
X67617Y129929D01*
X67594Y129937D01*
X67586D01*
X67555Y129952D01*
X67532Y129960D01*
X67524Y129975D01*
X67517D01*
X67501Y129998D01*
X67494Y130021D01*
Y130029D01*
Y130036D01*
Y131465D01*
X66380Y133685D01*
X66350Y133761D01*
X66326Y133815D01*
X66311Y133853D01*
Y133861D01*
X66303Y133907D01*
X66311Y133938D01*
X66319Y133953D01*
X66326Y133961D01*
X66365Y133984D01*
X66411Y133992D01*
X66449Y133999D01*
X66465D01*
X66503Y134007D01*
X66549D01*
X66634Y134015D01*
X66902D01*
X66948Y134007D01*
X66964D01*
X67018Y133999D01*
X67056Y133992D01*
X67079Y133984D01*
X67087Y133976D01*
X67118Y133961D01*
X67141Y133946D01*
X67148Y133938D01*
X67156Y133930D01*
X67187Y133884D01*
X67194Y133861D01*
Y133853D01*
X67640Y132855D01*
X67686Y132747D01*
X67724Y132648D01*
X67739Y132609D01*
X67755Y132579D01*
X67763Y132555D01*
Y132548D01*
X67809Y132433D01*
X67847Y132325D01*
X67862Y132279D01*
X67878Y132248D01*
X67886Y132225D01*
Y132218D01*
X67893D01*
X67939Y132348D01*
X67962Y132402D01*
X67985Y132456D01*
X68001Y132494D01*
X68016Y132525D01*
X68024Y132548D01*
Y132555D01*
X68070Y132671D01*
X68108Y132771D01*
X68131Y132809D01*
X68139Y132840D01*
X68154Y132855D01*
Y132863D01*
X68600Y133861D01*
X68615Y133892D01*
X68638Y133915D01*
X68646Y133923D01*
X68654Y133930D01*
X68677Y133953D01*
X68700Y133969D01*
X68723Y133976D01*
X68730D01*
X68769Y133992D01*
X68815Y133999D01*
X68845Y134007D01*
X68861D01*
X68930Y134015D01*
X69206D01*
X69253Y134007D01*
D02*
G37*
G36*
X59061Y140021D02*
X59146Y140013D01*
X59215Y139998D01*
X59268Y139983D01*
X59315Y139975D01*
X59345Y139960D01*
X59353D01*
X59430Y139929D01*
X59499Y139898D01*
X59560Y139867D01*
X59614Y139829D01*
X59660Y139798D01*
X59691Y139775D01*
X59714Y139760D01*
X59722Y139752D01*
X59821Y139645D01*
X59898Y139545D01*
X59921Y139499D01*
X59944Y139460D01*
X59952Y139437D01*
X59960Y139430D01*
X59990Y139353D01*
X60006Y139284D01*
X60021Y139207D01*
X60036Y139138D01*
Y139076D01*
X60044Y139030D01*
Y139000D01*
Y138992D01*
Y138907D01*
X60036Y138838D01*
X60021Y138769D01*
X60014Y138715D01*
X59998Y138669D01*
X59990Y138639D01*
X59983Y138616D01*
Y138608D01*
X59929Y138500D01*
X59868Y138424D01*
X59844Y138393D01*
X59821Y138370D01*
X59814Y138355D01*
X59806Y138347D01*
X59898Y138255D01*
X59960Y138163D01*
X59990Y138124D01*
X60006Y138093D01*
X60014Y138078D01*
X60021Y138070D01*
X60052Y138009D01*
X60067Y137955D01*
X60098Y137848D01*
Y137802D01*
X60106Y137763D01*
Y137740D01*
Y137732D01*
X60098Y137625D01*
X60067Y137540D01*
X60059Y137502D01*
X60044Y137479D01*
X60036Y137464D01*
Y137456D01*
X59975Y137371D01*
X59906Y137310D01*
X59875Y137287D01*
X59852Y137272D01*
X59837Y137256D01*
X59829D01*
X59891Y137203D01*
X59944Y137156D01*
X59983Y137118D01*
X59998Y137110D01*
Y137103D01*
X60052Y137049D01*
X60090Y136995D01*
X60121Y136964D01*
X60129Y136949D01*
X60159Y136888D01*
X60182Y136826D01*
X60198Y136788D01*
X60206Y136780D01*
Y136772D01*
X60221Y136696D01*
X60229Y136634D01*
Y136588D01*
Y136580D01*
Y136573D01*
X60221Y136458D01*
X60206Y136404D01*
X60190Y136358D01*
X60182Y136319D01*
X60167Y136289D01*
X60159Y136273D01*
Y136266D01*
X60129Y136212D01*
X60090Y136166D01*
X60014Y136089D01*
X59975Y136058D01*
X59944Y136035D01*
X59929Y136027D01*
X59921Y136020D01*
X59860Y135981D01*
X59791Y135951D01*
X59653Y135905D01*
X59599Y135889D01*
X59545Y135874D01*
X59514Y135866D01*
X59507D01*
X59407Y135843D01*
X59307Y135828D01*
X59199Y135820D01*
X59107Y135812D01*
X59023Y135805D01*
X58892D01*
X58762Y135812D01*
X58639Y135820D01*
X58531Y135835D01*
X58431Y135851D01*
X58362Y135866D01*
X58301Y135874D01*
X58270Y135889D01*
X58255D01*
X58155Y135920D01*
X58063Y135958D01*
X57986Y135989D01*
X57917Y136027D01*
X57863Y136058D01*
X57825Y136081D01*
X57802Y136097D01*
X57794Y136104D01*
X57732Y136158D01*
X57671Y136212D01*
X57625Y136258D01*
X57587Y136312D01*
X57556Y136358D01*
X57533Y136388D01*
X57525Y136411D01*
X57517Y136419D01*
X57487Y136488D01*
X57464Y136557D01*
X57448Y136627D01*
X57433Y136688D01*
Y136734D01*
X57425Y136772D01*
Y136803D01*
Y136811D01*
X57433Y136941D01*
X57448Y136995D01*
X57456Y137049D01*
X57471Y137087D01*
X57487Y137118D01*
X57494Y137133D01*
Y137141D01*
X57556Y137241D01*
X57617Y137325D01*
X57648Y137356D01*
X57671Y137379D01*
X57686Y137387D01*
X57694Y137394D01*
X57794Y137464D01*
X57894Y137517D01*
X57940Y137533D01*
X57978Y137548D01*
X58001Y137556D01*
X58009D01*
X58155Y137594D01*
X58224Y137602D01*
X58285Y137617D01*
X58347D01*
X58393Y137625D01*
X58431D01*
X59115Y137656D01*
X59215Y137663D01*
X59284Y137686D01*
X59330Y137709D01*
X59338Y137717D01*
X59345D01*
X59391Y137771D01*
X59414Y137817D01*
X59422Y137855D01*
Y137871D01*
X59414Y137917D01*
X59407Y137955D01*
X59399Y137986D01*
X59391Y137994D01*
X59368Y138032D01*
X59345Y138063D01*
X59330Y138086D01*
X59322Y138093D01*
X59261Y138063D01*
X59199Y138040D01*
X59153Y138024D01*
X59138Y138017D01*
X59130D01*
X59038Y138001D01*
X58954Y137994D01*
X58923Y137986D01*
X58777D01*
X58685Y137994D01*
X58608Y138009D01*
X58531Y138017D01*
X58477Y138032D01*
X58431Y138040D01*
X58401Y138047D01*
X58393D01*
X58316Y138078D01*
X58247Y138109D01*
X58186Y138139D01*
X58132Y138170D01*
X58086Y138201D01*
X58055Y138224D01*
X58040Y138239D01*
X58032Y138247D01*
X57932Y138355D01*
X57855Y138454D01*
X57832Y138500D01*
X57809Y138539D01*
X57794Y138562D01*
Y138569D01*
X57763Y138646D01*
X57748Y138715D01*
X57732Y138792D01*
X57717Y138861D01*
Y138923D01*
X57709Y138969D01*
Y139000D01*
Y139007D01*
X57717Y139076D01*
X57725Y139138D01*
X57732Y139184D01*
X57740Y139192D01*
Y139199D01*
X57771Y139268D01*
X57802Y139322D01*
X57825Y139360D01*
X57840Y139376D01*
X57510D01*
X57479Y139384D01*
X57456Y139414D01*
X57441Y139437D01*
X57433Y139445D01*
X57418Y139476D01*
X57410Y139506D01*
X57402Y139583D01*
X57395Y139614D01*
Y139645D01*
Y139660D01*
Y139668D01*
Y139722D01*
X57402Y139775D01*
Y139814D01*
X57410Y139844D01*
X57418Y139883D01*
X57425Y139898D01*
X57448Y139944D01*
X57479Y139967D01*
X57502Y139975D01*
X58401D01*
X58485Y139990D01*
X58554Y140006D01*
X58585D01*
X58608Y140013D01*
X58631D01*
X58715Y140029D01*
X58800Y140036D01*
X58969D01*
X59061Y140021D01*
D02*
G37*
G36*
X65958Y131803D02*
X65988Y131780D01*
X66012Y131757D01*
X66019Y131741D01*
X66027Y131711D01*
X66035Y131672D01*
X66042Y131596D01*
X66050Y131557D01*
Y131526D01*
Y131503D01*
Y131496D01*
Y131434D01*
X66042Y131380D01*
Y131334D01*
X66035Y131304D01*
X66027Y131273D01*
Y131258D01*
X66019Y131250D01*
Y131242D01*
X65988Y131204D01*
X65950Y131181D01*
X65919Y131173D01*
X64591D01*
X64545Y131181D01*
X64514Y131211D01*
X64491Y131235D01*
X64483Y131242D01*
X64468Y131273D01*
X64460Y131311D01*
X64452Y131396D01*
X64445Y131434D01*
Y131465D01*
Y131488D01*
Y131496D01*
Y131557D01*
X64452Y131603D01*
X64460Y131634D01*
Y131642D01*
X64468Y131688D01*
X64476Y131718D01*
X64483Y131734D01*
Y131741D01*
X64499Y131764D01*
X64514Y131780D01*
X64522Y131795D01*
X64529D01*
X64545Y131810D01*
X64568Y131818D01*
X65904D01*
X65958Y131803D01*
D02*
G37*
G36*
X72578Y133984D02*
X72632Y133961D01*
X72662Y133938D01*
X72678Y133930D01*
X72716Y133877D01*
X72739Y133807D01*
Y133777D01*
X72747Y133754D01*
Y133738D01*
Y133730D01*
Y130182D01*
Y130129D01*
X72739Y130090D01*
X72708Y130021D01*
X72685Y129990D01*
X72678Y129975D01*
X72624Y129944D01*
X72570Y129929D01*
X72524Y129921D01*
X71334D01*
X71249Y129929D01*
X71180D01*
X71111Y129937D01*
X71057D01*
X71019Y129944D01*
X70981D01*
X70835Y129975D01*
X70773Y129990D01*
X70719Y130006D01*
X70673Y130013D01*
X70635Y130029D01*
X70612Y130036D01*
X70604D01*
X70481Y130090D01*
X70428Y130121D01*
X70374Y130144D01*
X70335Y130167D01*
X70305Y130182D01*
X70289Y130190D01*
X70282Y130198D01*
X70182Y130274D01*
X70097Y130351D01*
X70067Y130382D01*
X70043Y130405D01*
X70036Y130420D01*
X70028Y130428D01*
X69959Y130536D01*
X69905Y130635D01*
X69882Y130682D01*
X69867Y130712D01*
X69859Y130735D01*
Y130743D01*
X69821Y130881D01*
X69813Y130950D01*
X69806Y131012D01*
X69798Y131066D01*
Y131104D01*
Y131135D01*
Y131142D01*
X69806Y131288D01*
X69821Y131350D01*
X69828Y131404D01*
X69844Y131450D01*
X69859Y131480D01*
X69867Y131503D01*
Y131511D01*
X69921Y131626D01*
X69944Y131680D01*
X69974Y131718D01*
X69998Y131757D01*
X70021Y131780D01*
X70028Y131795D01*
X70036Y131803D01*
X70120Y131887D01*
X70205Y131949D01*
X70243Y131972D01*
X70274Y131987D01*
X70289Y132002D01*
X70297D01*
X70404Y132056D01*
X70512Y132095D01*
X70550Y132102D01*
X70581Y132110D01*
X70604Y132118D01*
X70612D01*
X70520Y132164D01*
X70443Y132202D01*
X70412Y132218D01*
X70389Y132233D01*
X70381Y132248D01*
X70374D01*
X70297Y132317D01*
X70243Y132379D01*
X70213Y132425D01*
X70197Y132433D01*
Y132440D01*
X70143Y132525D01*
X70113Y132602D01*
X70097Y132632D01*
X70090Y132655D01*
X70082Y132671D01*
Y132678D01*
X70059Y132778D01*
X70051Y132863D01*
X70043Y132901D01*
Y132932D01*
Y132947D01*
Y132955D01*
X70051Y133047D01*
X70059Y133139D01*
X70074Y133216D01*
X70090Y133277D01*
X70113Y133331D01*
X70128Y133377D01*
X70136Y133400D01*
X70143Y133408D01*
X70182Y133477D01*
X70220Y133546D01*
X70266Y133600D01*
X70312Y133646D01*
X70351Y133685D01*
X70381Y133707D01*
X70404Y133723D01*
X70412Y133730D01*
X70481Y133777D01*
X70558Y133815D01*
X70627Y133846D01*
X70696Y133877D01*
X70758Y133899D01*
X70804Y133915D01*
X70835Y133923D01*
X70850D01*
X70950Y133946D01*
X71057Y133961D01*
X71165Y133976D01*
X71265Y133984D01*
X71357Y133992D01*
X72509D01*
X72578Y133984D01*
D02*
G37*
G36*
X76602Y134053D02*
X76740Y134038D01*
X76871Y134015D01*
X76986Y133992D01*
X77086Y133961D01*
X77155Y133938D01*
X77201Y133923D01*
X77209Y133915D01*
X77217D01*
X77340Y133861D01*
X77455Y133792D01*
X77555Y133723D01*
X77639Y133654D01*
X77708Y133592D01*
X77762Y133546D01*
X77800Y133516D01*
X77808Y133500D01*
X77893Y133393D01*
X77969Y133277D01*
X78038Y133162D01*
X78092Y133055D01*
X78138Y132963D01*
X78169Y132886D01*
X78177Y132855D01*
X78184Y132832D01*
X78192Y132824D01*
Y132817D01*
X78238Y132663D01*
X78269Y132509D01*
X78299Y132356D01*
X78315Y132210D01*
X78323Y132087D01*
Y132033D01*
X78330Y131987D01*
Y131957D01*
Y131926D01*
Y131910D01*
Y131903D01*
X78323Y131718D01*
X78307Y131542D01*
X78292Y131396D01*
X78269Y131258D01*
X78246Y131150D01*
X78223Y131073D01*
X78215Y131043D01*
Y131019D01*
X78207Y131012D01*
Y131004D01*
X78154Y130866D01*
X78100Y130743D01*
X78038Y130628D01*
X77977Y130536D01*
X77931Y130459D01*
X77885Y130405D01*
X77854Y130374D01*
X77846Y130359D01*
X77754Y130267D01*
X77654Y130190D01*
X77562Y130129D01*
X77470Y130075D01*
X77393Y130029D01*
X77332Y129998D01*
X77293Y129983D01*
X77278Y129975D01*
X77148Y129937D01*
X77017Y129906D01*
X76886Y129883D01*
X76771Y129867D01*
X76671Y129860D01*
X76587Y129852D01*
X76518D01*
X76364Y129860D01*
X76295Y129867D01*
X76234Y129875D01*
X76187D01*
X76149Y129883D01*
X76126Y129891D01*
X76118D01*
X75988Y129914D01*
X75934Y129929D01*
X75888Y129944D01*
X75850Y129952D01*
X75819Y129960D01*
X75804Y129967D01*
X75796D01*
X75696Y130006D01*
X75619Y130044D01*
X75589Y130052D01*
X75565Y130067D01*
X75558Y130075D01*
X75550D01*
X75489Y130113D01*
X75450Y130144D01*
X75427Y130159D01*
X75419Y130167D01*
X75397Y130190D01*
X75381Y130213D01*
X75366Y130221D01*
Y130228D01*
X75350Y130274D01*
X75343Y130290D01*
Y130298D01*
X75335Y130359D01*
X75327Y130382D01*
Y130390D01*
X75320Y130436D01*
Y130482D01*
Y130513D01*
Y130528D01*
Y130605D01*
Y130658D01*
X75327Y130697D01*
Y130705D01*
X75335Y130751D01*
X75343Y130781D01*
X75350Y130805D01*
Y130812D01*
X75358Y130835D01*
X75366Y130851D01*
X75374Y130866D01*
X75381D01*
X75412Y130881D01*
X75427D01*
X75466Y130874D01*
X75504Y130858D01*
X75535Y130835D01*
X75550Y130827D01*
X75612Y130789D01*
X75665Y130751D01*
X75711Y130720D01*
X75727Y130712D01*
X75734D01*
X75827Y130666D01*
X75919Y130635D01*
X75957Y130620D01*
X75980Y130605D01*
X76003Y130597D01*
X76011D01*
X76142Y130574D01*
X76264Y130559D01*
X76318Y130551D01*
X76395D01*
X76564Y130566D01*
X76641Y130574D01*
X76702Y130589D01*
X76756Y130605D01*
X76794Y130613D01*
X76825Y130628D01*
X76833D01*
X76902Y130666D01*
X76963Y130705D01*
X77025Y130743D01*
X77071Y130789D01*
X77109Y130820D01*
X77140Y130851D01*
X77155Y130874D01*
X77163Y130881D01*
X77209Y130950D01*
X77247Y131027D01*
X77286Y131096D01*
X77316Y131165D01*
X77340Y131227D01*
X77355Y131273D01*
X77370Y131311D01*
Y131319D01*
X77393Y131419D01*
X77409Y131526D01*
X77424Y131634D01*
X77432Y131726D01*
Y131810D01*
X77439Y131880D01*
Y131926D01*
Y131933D01*
Y131941D01*
Y132064D01*
X77432Y132171D01*
X77416Y132271D01*
X77401Y132363D01*
X77393Y132433D01*
X77378Y132486D01*
X77370Y132517D01*
Y132533D01*
X77340Y132625D01*
X77309Y132709D01*
X77278Y132786D01*
X77247Y132855D01*
X77217Y132909D01*
X77194Y132947D01*
X77178Y132970D01*
X77171Y132978D01*
X77117Y133047D01*
X77063Y133101D01*
X77009Y133147D01*
X76963Y133193D01*
X76917Y133224D01*
X76879Y133247D01*
X76856Y133254D01*
X76848Y133262D01*
X76771Y133293D01*
X76702Y133324D01*
X76625Y133339D01*
X76564Y133346D01*
X76502Y133354D01*
X76456Y133362D01*
X76341D01*
X76264Y133354D01*
X76203Y133346D01*
X76149Y133331D01*
X76103Y133324D01*
X76072Y133308D01*
X76049Y133300D01*
X76042D01*
X75926Y133262D01*
X75842Y133216D01*
X75811Y133201D01*
X75788Y133193D01*
X75773Y133178D01*
X75765D01*
X75688Y133132D01*
X75627Y133101D01*
X75596Y133070D01*
X75581Y133062D01*
X75527Y133032D01*
X75489Y133016D01*
X75466Y133009D01*
X75458D01*
X75419Y133016D01*
X75404Y133024D01*
X75389Y133039D01*
X75374Y133055D01*
X75366Y133070D01*
Y133078D01*
X75358Y133116D01*
X75350Y133147D01*
X75343Y133178D01*
Y133185D01*
X75335Y133239D01*
Y133293D01*
Y133339D01*
Y133346D01*
Y133354D01*
Y133416D01*
Y133462D01*
X75343Y133493D01*
Y133500D01*
X75350Y133538D01*
Y133577D01*
X75358Y133592D01*
Y133600D01*
X75366Y133631D01*
X75374Y133654D01*
X75381Y133669D01*
Y133677D01*
X75397Y133700D01*
X75419Y133723D01*
X75435Y133738D01*
X75443Y133746D01*
X75481Y133784D01*
X75527Y133815D01*
X75573Y133838D01*
X75581Y133846D01*
X75589D01*
X75673Y133892D01*
X75750Y133923D01*
X75788Y133938D01*
X75811Y133946D01*
X75827Y133953D01*
X75834D01*
X75934Y133984D01*
X76026Y134007D01*
X76065Y134015D01*
X76095Y134022D01*
X76118Y134030D01*
X76126D01*
X76241Y134045D01*
X76341Y134061D01*
X76449D01*
X76602Y134053D01*
D02*
G37*
G36*
X80012D02*
X80150Y134038D01*
X80281Y134015D01*
X80396Y133992D01*
X80496Y133961D01*
X80565Y133938D01*
X80611Y133923D01*
X80619Y133915D01*
X80627D01*
X80749Y133861D01*
X80865Y133792D01*
X80964Y133723D01*
X81049Y133654D01*
X81118Y133592D01*
X81172Y133546D01*
X81210Y133516D01*
X81218Y133500D01*
X81302Y133393D01*
X81379Y133277D01*
X81448Y133162D01*
X81502Y133055D01*
X81548Y132963D01*
X81579Y132886D01*
X81587Y132855D01*
X81594Y132832D01*
X81602Y132824D01*
Y132817D01*
X81648Y132663D01*
X81679Y132509D01*
X81709Y132356D01*
X81725Y132210D01*
X81732Y132087D01*
Y132033D01*
X81740Y131987D01*
Y131957D01*
Y131926D01*
Y131910D01*
Y131903D01*
X81732Y131718D01*
X81717Y131542D01*
X81702Y131396D01*
X81679Y131258D01*
X81656Y131150D01*
X81633Y131073D01*
X81625Y131043D01*
Y131019D01*
X81617Y131012D01*
Y131004D01*
X81564Y130866D01*
X81510Y130743D01*
X81448Y130628D01*
X81387Y130536D01*
X81341Y130459D01*
X81295Y130405D01*
X81264Y130374D01*
X81256Y130359D01*
X81164Y130267D01*
X81064Y130190D01*
X80972Y130129D01*
X80880Y130075D01*
X80803Y130029D01*
X80742Y129998D01*
X80703Y129983D01*
X80688Y129975D01*
X80558Y129937D01*
X80427Y129906D01*
X80296Y129883D01*
X80181Y129867D01*
X80081Y129860D01*
X79997Y129852D01*
X79928D01*
X79774Y129860D01*
X79705Y129867D01*
X79643Y129875D01*
X79598D01*
X79559Y129883D01*
X79536Y129891D01*
X79528D01*
X79398Y129914D01*
X79344Y129929D01*
X79298Y129944D01*
X79260Y129952D01*
X79229Y129960D01*
X79214Y129967D01*
X79206D01*
X79106Y130006D01*
X79029Y130044D01*
X78998Y130052D01*
X78975Y130067D01*
X78968Y130075D01*
X78960D01*
X78899Y130113D01*
X78860Y130144D01*
X78837Y130159D01*
X78829Y130167D01*
X78806Y130190D01*
X78791Y130213D01*
X78776Y130221D01*
Y130228D01*
X78760Y130274D01*
X78753Y130290D01*
Y130298D01*
X78745Y130359D01*
X78737Y130382D01*
Y130390D01*
X78730Y130436D01*
Y130482D01*
Y130513D01*
Y130528D01*
Y130605D01*
Y130658D01*
X78737Y130697D01*
Y130705D01*
X78745Y130751D01*
X78753Y130781D01*
X78760Y130805D01*
Y130812D01*
X78768Y130835D01*
X78776Y130851D01*
X78783Y130866D01*
X78791D01*
X78822Y130881D01*
X78837D01*
X78875Y130874D01*
X78914Y130858D01*
X78945Y130835D01*
X78960Y130827D01*
X79022Y130789D01*
X79075Y130751D01*
X79121Y130720D01*
X79137Y130712D01*
X79144D01*
X79237Y130666D01*
X79329Y130635D01*
X79367Y130620D01*
X79390Y130605D01*
X79413Y130597D01*
X79421D01*
X79551Y130574D01*
X79674Y130559D01*
X79728Y130551D01*
X79805D01*
X79974Y130566D01*
X80051Y130574D01*
X80112Y130589D01*
X80166Y130605D01*
X80204Y130613D01*
X80235Y130628D01*
X80243D01*
X80312Y130666D01*
X80373Y130705D01*
X80435Y130743D01*
X80481Y130789D01*
X80519Y130820D01*
X80550Y130851D01*
X80565Y130874D01*
X80573Y130881D01*
X80619Y130950D01*
X80657Y131027D01*
X80696Y131096D01*
X80726Y131165D01*
X80749Y131227D01*
X80765Y131273D01*
X80780Y131311D01*
Y131319D01*
X80803Y131419D01*
X80819Y131526D01*
X80834Y131634D01*
X80842Y131726D01*
Y131810D01*
X80849Y131880D01*
Y131926D01*
Y131933D01*
Y131941D01*
Y132064D01*
X80842Y132171D01*
X80826Y132271D01*
X80811Y132363D01*
X80803Y132433D01*
X80788Y132486D01*
X80780Y132517D01*
Y132533D01*
X80749Y132625D01*
X80719Y132709D01*
X80688Y132786D01*
X80657Y132855D01*
X80627Y132909D01*
X80603Y132947D01*
X80588Y132970D01*
X80581Y132978D01*
X80527Y133047D01*
X80473Y133101D01*
X80419Y133147D01*
X80373Y133193D01*
X80327Y133224D01*
X80289Y133247D01*
X80266Y133254D01*
X80258Y133262D01*
X80181Y133293D01*
X80112Y133324D01*
X80035Y133339D01*
X79974Y133346D01*
X79912Y133354D01*
X79866Y133362D01*
X79751D01*
X79674Y133354D01*
X79613Y133346D01*
X79559Y133331D01*
X79513Y133324D01*
X79482Y133308D01*
X79459Y133300D01*
X79452D01*
X79336Y133262D01*
X79252Y133216D01*
X79221Y133201D01*
X79198Y133193D01*
X79183Y133178D01*
X79175D01*
X79098Y133132D01*
X79037Y133101D01*
X79006Y133070D01*
X78991Y133062D01*
X78937Y133032D01*
X78899Y133016D01*
X78875Y133009D01*
X78868D01*
X78829Y133016D01*
X78814Y133024D01*
X78799Y133039D01*
X78783Y133055D01*
X78776Y133070D01*
Y133078D01*
X78768Y133116D01*
X78760Y133147D01*
X78753Y133178D01*
Y133185D01*
X78745Y133239D01*
Y133293D01*
Y133339D01*
Y133346D01*
Y133354D01*
Y133416D01*
Y133462D01*
X78753Y133493D01*
Y133500D01*
X78760Y133538D01*
Y133577D01*
X78768Y133592D01*
Y133600D01*
X78776Y133631D01*
X78783Y133654D01*
X78791Y133669D01*
Y133677D01*
X78806Y133700D01*
X78829Y133723D01*
X78845Y133738D01*
X78852Y133746D01*
X78891Y133784D01*
X78937Y133815D01*
X78983Y133838D01*
X78991Y133846D01*
X78998D01*
X79083Y133892D01*
X79160Y133923D01*
X79198Y133938D01*
X79221Y133946D01*
X79237Y133953D01*
X79244D01*
X79344Y133984D01*
X79436Y134007D01*
X79475Y134015D01*
X79505Y134022D01*
X79528Y134030D01*
X79536D01*
X79651Y134045D01*
X79751Y134061D01*
X79859D01*
X80012Y134053D01*
D02*
G37*
G36*
X65612Y145935D02*
X65627D01*
X65681Y145928D01*
X65720Y145920D01*
X65743Y145912D01*
X65750D01*
X65797Y145889D01*
X65804Y145881D01*
X65812Y145874D01*
X65827Y145835D01*
Y145828D01*
Y145820D01*
Y145789D01*
Y145782D01*
Y145774D01*
Y145751D01*
X65820Y145728D01*
Y145705D01*
Y145697D01*
X65804Y145659D01*
X65797Y145628D01*
X65781Y145597D01*
Y145590D01*
X64936Y143055D01*
X64921Y143017D01*
X64913Y142986D01*
X64898Y142971D01*
Y142963D01*
X64875Y142940D01*
X64844Y142932D01*
X64821Y142917D01*
X64814D01*
X64760Y142909D01*
X64706Y142902D01*
X64660Y142894D01*
X64644D01*
X64552Y142886D01*
X64207D01*
X64168Y142894D01*
X64099D01*
X64030Y142902D01*
X63976Y142909D01*
X63938Y142917D01*
X63930D01*
X63892Y142932D01*
X63861Y142948D01*
X63854Y142955D01*
X63846Y142963D01*
X63807Y143025D01*
X63800Y143047D01*
Y143055D01*
X62955Y145590D01*
X62947Y145620D01*
Y145643D01*
X62940Y145659D01*
Y145666D01*
X62932Y145712D01*
X62924Y145720D01*
Y145728D01*
X62916Y145766D01*
Y145774D01*
Y145805D01*
Y145820D01*
X62924Y145858D01*
X62932Y145874D01*
X62947Y145889D01*
X62970Y145905D01*
X62986Y145912D01*
X62993D01*
X63024Y145920D01*
X63062Y145928D01*
X63093Y145935D01*
X63108D01*
X63170Y145943D01*
X63377D01*
X63439Y145935D01*
X63477Y145928D01*
X63493D01*
X63539Y145920D01*
X63577Y145912D01*
X63600Y145905D01*
X63608D01*
X63631Y145897D01*
X63654Y145881D01*
X63661Y145874D01*
X63669Y145866D01*
X63692Y145828D01*
X63700Y145812D01*
Y145805D01*
X64330Y143746D01*
X64345Y143662D01*
X64360Y143746D01*
X65005Y145805D01*
X65029Y145851D01*
X65036Y145858D01*
X65044Y145866D01*
X65059Y145889D01*
X65082Y145897D01*
X65098Y145905D01*
X65105D01*
X65144Y145912D01*
X65182Y145920D01*
X65213Y145928D01*
X65228D01*
X65290Y145935D01*
X65359Y145943D01*
X65574D01*
X65612Y145935D01*
D02*
G37*
G36*
X57848Y145989D02*
X57902Y145981D01*
X57947Y145974D01*
X57955Y145966D01*
X57963D01*
X58024Y145943D01*
X58086Y145912D01*
X58124Y145889D01*
X58132Y145881D01*
X58139D01*
X58201Y145835D01*
X58262Y145782D01*
X58309Y145736D01*
X58316Y145728D01*
X58324Y145720D01*
X58393Y145636D01*
X58462Y145559D01*
X58493Y145520D01*
X58508Y145490D01*
X58523Y145474D01*
X58531Y145467D01*
Y145812D01*
X58539Y145851D01*
X58547Y145866D01*
X58562Y145881D01*
X58577Y145897D01*
X58593Y145905D01*
X58600D01*
X58631Y145912D01*
X58662Y145920D01*
X58685Y145928D01*
X58700D01*
X58754Y145935D01*
X58800Y145943D01*
X58931D01*
X58984Y145935D01*
X59015Y145928D01*
X59030D01*
X59069Y145920D01*
X59100Y145912D01*
X59123Y145905D01*
X59130D01*
X59153Y145889D01*
X59169Y145881D01*
X59184Y145874D01*
Y145866D01*
X59199Y145828D01*
Y145820D01*
Y145812D01*
Y143009D01*
X59192Y142971D01*
X59184Y142963D01*
Y142955D01*
X59169Y142940D01*
X59146Y142925D01*
X59130Y142917D01*
X59123D01*
X59084Y142909D01*
X59046Y142902D01*
X59015Y142894D01*
X59000D01*
X58938Y142886D01*
X58731D01*
X58670Y142894D01*
X58616D01*
X58562Y142902D01*
X58523Y142909D01*
X58500Y142917D01*
X58493D01*
X58462Y142932D01*
X58447Y142940D01*
X58431Y142955D01*
X58416Y142971D01*
X58408Y142994D01*
Y143001D01*
Y143009D01*
Y144760D01*
X58347Y144852D01*
X58293Y144921D01*
X58262Y144967D01*
X58247Y144975D01*
Y144983D01*
X58193Y145052D01*
X58147Y145098D01*
X58117Y145129D01*
X58101Y145136D01*
X58047Y145175D01*
X58001Y145206D01*
X57971Y145213D01*
X57963Y145221D01*
X57909Y145236D01*
X57871Y145252D01*
X57786D01*
X57756Y145244D01*
X57732Y145236D01*
X57725D01*
X57694Y145229D01*
X57663Y145221D01*
X57648Y145213D01*
X57640D01*
X57610Y145206D01*
X57587Y145198D01*
X57571Y145190D01*
X57564D01*
X57525Y145183D01*
X57510D01*
X57471Y145190D01*
X57456Y145198D01*
X57441Y145213D01*
X57433Y145229D01*
X57425Y145244D01*
Y145252D01*
X57418Y145282D01*
X57410Y145321D01*
X57402Y145352D01*
Y145359D01*
X57395Y145421D01*
Y145482D01*
Y145536D01*
Y145544D01*
Y145551D01*
Y145628D01*
Y145682D01*
X57402Y145720D01*
Y145728D01*
Y145774D01*
Y145805D01*
X57410Y145820D01*
Y145828D01*
X57418Y145851D01*
Y145866D01*
X57425Y145881D01*
X57441Y145912D01*
X57448Y145920D01*
X57456D01*
X57471Y145928D01*
X57487Y145935D01*
X57502Y145943D01*
X57510D01*
X57533Y145951D01*
X57564Y145958D01*
X57587Y145966D01*
X57594D01*
X57633Y145974D01*
X57663Y145981D01*
X57686Y145989D01*
X57694D01*
X57725Y145997D01*
X57779D01*
X57848Y145989D01*
D02*
G37*
G36*
X66818Y145935D02*
X66856Y145928D01*
X66872D01*
X66926Y145920D01*
X66964Y145912D01*
X66987Y145905D01*
X66995D01*
X67025Y145889D01*
X67041Y145874D01*
X67056Y145866D01*
Y145858D01*
X67071Y145820D01*
Y145812D01*
Y145805D01*
Y143009D01*
X67064Y142971D01*
X67056Y142963D01*
Y142955D01*
X67041Y142940D01*
X67018Y142925D01*
X67002Y142917D01*
X66995D01*
X66956Y142909D01*
X66918Y142902D01*
X66887Y142894D01*
X66872D01*
X66810Y142886D01*
X66603D01*
X66541Y142894D01*
X66488D01*
X66434Y142902D01*
X66395Y142909D01*
X66373Y142917D01*
X66365D01*
X66334Y142932D01*
X66319Y142940D01*
X66303Y142955D01*
X66288Y142971D01*
X66280Y142994D01*
Y143001D01*
Y143009D01*
Y145805D01*
Y145828D01*
X66288Y145843D01*
X66296Y145858D01*
X66303D01*
X66319Y145881D01*
X66342Y145897D01*
X66357Y145905D01*
X66365D01*
X66403Y145912D01*
X66442Y145920D01*
X66472Y145928D01*
X66488D01*
X66549Y145935D01*
X66611Y145943D01*
X66756D01*
X66818Y145935D01*
D02*
G37*
G36*
X68008Y145989D02*
X68062Y145981D01*
X68108Y145974D01*
X68116Y145966D01*
X68124D01*
X68185Y145943D01*
X68246Y145912D01*
X68285Y145889D01*
X68292Y145881D01*
X68300D01*
X68362Y145835D01*
X68423Y145782D01*
X68469Y145736D01*
X68477Y145728D01*
X68484Y145720D01*
X68554Y145636D01*
X68623Y145559D01*
X68654Y145520D01*
X68669Y145490D01*
X68684Y145474D01*
X68692Y145467D01*
Y145812D01*
X68700Y145851D01*
X68707Y145866D01*
X68723Y145881D01*
X68738Y145897D01*
X68753Y145905D01*
X68761D01*
X68792Y145912D01*
X68822Y145920D01*
X68845Y145928D01*
X68861D01*
X68915Y145935D01*
X68961Y145943D01*
X69091D01*
X69145Y145935D01*
X69176Y145928D01*
X69191D01*
X69230Y145920D01*
X69260Y145912D01*
X69283Y145905D01*
X69291D01*
X69314Y145889D01*
X69329Y145881D01*
X69345Y145874D01*
Y145866D01*
X69360Y145828D01*
Y145820D01*
Y145812D01*
Y143009D01*
X69352Y142971D01*
X69345Y142963D01*
Y142955D01*
X69329Y142940D01*
X69306Y142925D01*
X69291Y142917D01*
X69283D01*
X69245Y142909D01*
X69206Y142902D01*
X69176Y142894D01*
X69160D01*
X69099Y142886D01*
X68892D01*
X68830Y142894D01*
X68776D01*
X68723Y142902D01*
X68684Y142909D01*
X68661Y142917D01*
X68654D01*
X68623Y142932D01*
X68607Y142940D01*
X68592Y142955D01*
X68577Y142971D01*
X68569Y142994D01*
Y143001D01*
Y143009D01*
Y144760D01*
X68507Y144852D01*
X68454Y144921D01*
X68423Y144967D01*
X68408Y144975D01*
Y144983D01*
X68354Y145052D01*
X68308Y145098D01*
X68277Y145129D01*
X68262Y145136D01*
X68208Y145175D01*
X68162Y145206D01*
X68131Y145213D01*
X68124Y145221D01*
X68070Y145236D01*
X68031Y145252D01*
X67947D01*
X67916Y145244D01*
X67893Y145236D01*
X67886D01*
X67855Y145229D01*
X67824Y145221D01*
X67809Y145213D01*
X67801D01*
X67770Y145206D01*
X67747Y145198D01*
X67732Y145190D01*
X67724D01*
X67686Y145183D01*
X67670D01*
X67632Y145190D01*
X67617Y145198D01*
X67601Y145213D01*
X67594Y145229D01*
X67586Y145244D01*
Y145252D01*
X67578Y145282D01*
X67571Y145321D01*
X67563Y145352D01*
Y145359D01*
X67555Y145421D01*
Y145482D01*
Y145536D01*
Y145544D01*
Y145551D01*
Y145628D01*
Y145682D01*
X67563Y145720D01*
Y145728D01*
Y145774D01*
Y145805D01*
X67571Y145820D01*
Y145828D01*
X67578Y145851D01*
Y145866D01*
X67586Y145881D01*
X67601Y145912D01*
X67609Y145920D01*
X67617D01*
X67632Y145928D01*
X67647Y145935D01*
X67663Y145943D01*
X67670D01*
X67694Y145951D01*
X67724Y145958D01*
X67747Y145966D01*
X67755D01*
X67793Y145974D01*
X67824Y145981D01*
X67847Y145989D01*
X67855D01*
X67886Y145997D01*
X67939D01*
X68008Y145989D01*
D02*
G37*
G36*
X119434Y147033D02*
X119534Y147026D01*
X119618Y147010D01*
X119695Y146995D01*
X119748Y146980D01*
X119779Y146972D01*
X119795Y146964D01*
X119887Y146934D01*
X119971Y146895D01*
X120040Y146857D01*
X120102Y146826D01*
X120156Y146795D01*
X120194Y146765D01*
X120217Y146749D01*
X120225Y146742D01*
X120286Y146688D01*
X120332Y146626D01*
X120378Y146565D01*
X120417Y146511D01*
X120440Y146465D01*
X120463Y146427D01*
X120470Y146404D01*
X120478Y146396D01*
X120509Y146319D01*
X120524Y146242D01*
X120539Y146166D01*
X120555Y146097D01*
Y146043D01*
X120563Y145989D01*
Y145958D01*
Y145951D01*
X120555Y145828D01*
X120547Y145774D01*
X120539Y145728D01*
X120532Y145689D01*
X120524Y145659D01*
X120517Y145643D01*
Y145636D01*
X120478Y145536D01*
X120432Y145444D01*
X120409Y145413D01*
X120394Y145390D01*
X120378Y145375D01*
Y145367D01*
X120309Y145282D01*
X120232Y145213D01*
X120209Y145183D01*
X120186Y145159D01*
X120171Y145152D01*
X120163Y145144D01*
X120063Y145075D01*
X119971Y145014D01*
X119933Y144991D01*
X119902Y144967D01*
X119879Y144960D01*
X119871Y144952D01*
X120010Y144875D01*
X120071Y144837D01*
X120125Y144806D01*
X120163Y144775D01*
X120194Y144760D01*
X120217Y144745D01*
X120225Y144737D01*
X120325Y144653D01*
X120409Y144568D01*
X120440Y144537D01*
X120455Y144514D01*
X120470Y144499D01*
X120478Y144491D01*
X120547Y144392D01*
X120593Y144299D01*
X120609Y144261D01*
X120624Y144230D01*
X120632Y144215D01*
Y144207D01*
X120655Y144092D01*
X120670Y143992D01*
X120678Y143946D01*
Y143915D01*
Y143892D01*
Y143885D01*
X120670Y143792D01*
X120662Y143708D01*
X120647Y143631D01*
X120632Y143562D01*
X120616Y143508D01*
X120609Y143470D01*
X120593Y143439D01*
Y143431D01*
X120555Y143362D01*
X120517Y143293D01*
X120470Y143239D01*
X120432Y143193D01*
X120394Y143155D01*
X120363Y143124D01*
X120340Y143109D01*
X120332Y143101D01*
X120263Y143055D01*
X120186Y143017D01*
X120117Y142978D01*
X120048Y142955D01*
X119987Y142932D01*
X119940Y142917D01*
X119902Y142902D01*
X119894D01*
X119795Y142879D01*
X119687Y142863D01*
X119587Y142848D01*
X119495Y142840D01*
X119411D01*
X119349Y142833D01*
X119157D01*
X119034Y142848D01*
X118919Y142856D01*
X118827Y142871D01*
X118750Y142886D01*
X118689Y142894D01*
X118658Y142909D01*
X118643D01*
X118543Y142940D01*
X118451Y142978D01*
X118374Y143017D01*
X118305Y143047D01*
X118251Y143078D01*
X118212Y143109D01*
X118190Y143124D01*
X118182Y143132D01*
X118113Y143193D01*
X118059Y143255D01*
X118005Y143316D01*
X117967Y143378D01*
X117936Y143424D01*
X117913Y143462D01*
X117905Y143493D01*
X117898Y143501D01*
X117867Y143585D01*
X117836Y143670D01*
X117821Y143754D01*
X117813Y143831D01*
X117806Y143892D01*
X117798Y143946D01*
Y143977D01*
Y143992D01*
X117806Y144115D01*
X117813Y144169D01*
X117829Y144223D01*
X117836Y144261D01*
X117851Y144292D01*
X117859Y144307D01*
Y144315D01*
X117905Y144422D01*
X117959Y144507D01*
X117982Y144545D01*
X118005Y144568D01*
X118013Y144583D01*
X118020Y144591D01*
X118105Y144683D01*
X118182Y144760D01*
X118220Y144791D01*
X118251Y144814D01*
X118266Y144829D01*
X118274Y144837D01*
X118389Y144921D01*
X118497Y144991D01*
X118543Y145014D01*
X118581Y145037D01*
X118604Y145044D01*
X118612Y145052D01*
X118497Y145121D01*
X118404Y145190D01*
X118366Y145213D01*
X118343Y145236D01*
X118328Y145244D01*
X118320Y145252D01*
X118228Y145336D01*
X118166Y145413D01*
X118136Y145444D01*
X118120Y145467D01*
X118105Y145482D01*
Y145490D01*
X118043Y145590D01*
X117998Y145674D01*
X117982Y145705D01*
X117974Y145736D01*
X117967Y145751D01*
Y145759D01*
X117936Y145858D01*
X117921Y145951D01*
X117913Y145989D01*
Y146020D01*
Y146035D01*
Y146043D01*
X117928Y146204D01*
X117936Y146273D01*
X117951Y146327D01*
X117967Y146381D01*
X117974Y146419D01*
X117990Y146442D01*
Y146450D01*
X118059Y146580D01*
X118097Y146634D01*
X118136Y146680D01*
X118166Y146711D01*
X118197Y146742D01*
X118212Y146757D01*
X118220Y146765D01*
X118282Y146811D01*
X118351Y146857D01*
X118474Y146918D01*
X118535Y146941D01*
X118581Y146957D01*
X118612Y146972D01*
X118620D01*
X118712Y146995D01*
X118812Y147018D01*
X118904Y147033D01*
X118996Y147041D01*
X119073Y147049D01*
X119318D01*
X119434Y147033D01*
D02*
G37*
G36*
X76157Y145989D02*
X76249Y145981D01*
X76287Y145974D01*
X76310Y145966D01*
X76326Y145958D01*
X76333D01*
X76426Y145928D01*
X76510Y145905D01*
X76541Y145889D01*
X76564Y145874D01*
X76579Y145866D01*
X76587D01*
X76679Y145812D01*
X76748Y145766D01*
X76779Y145743D01*
X76802Y145720D01*
X76817Y145712D01*
X76825Y145705D01*
X76910Y145628D01*
X76986Y145559D01*
X77017Y145528D01*
X77040Y145505D01*
X77055Y145490D01*
X77063Y145482D01*
Y145812D01*
Y145835D01*
X77071Y145851D01*
X77078Y145866D01*
X77086D01*
X77101Y145881D01*
X77117Y145897D01*
X77132Y145905D01*
X77140D01*
X77171Y145912D01*
X77201Y145920D01*
X77232Y145928D01*
X77240D01*
X77293Y145935D01*
X77340Y145943D01*
X77462D01*
X77516Y145935D01*
X77547Y145928D01*
X77562D01*
X77601Y145920D01*
X77631Y145912D01*
X77654Y145905D01*
X77662D01*
X77685Y145889D01*
X77701Y145881D01*
X77716Y145874D01*
Y145866D01*
X77731Y145828D01*
Y145820D01*
Y145812D01*
Y141895D01*
X77723Y141857D01*
X77716Y141849D01*
Y141842D01*
X77701Y141819D01*
X77678Y141811D01*
X77662Y141796D01*
X77654D01*
X77616Y141788D01*
X77578Y141780D01*
X77547Y141773D01*
X77531D01*
X77470Y141765D01*
X77409Y141757D01*
X77263D01*
X77201Y141765D01*
X77163Y141773D01*
X77148D01*
X77094Y141780D01*
X77055Y141788D01*
X77032Y141796D01*
X77025D01*
X76994Y141811D01*
X76979Y141826D01*
X76963Y141834D01*
Y141842D01*
X76948Y141857D01*
X76940Y141880D01*
Y141888D01*
Y141895D01*
Y143217D01*
X76871Y143147D01*
X76810Y143094D01*
X76763Y143055D01*
X76756Y143040D01*
X76748D01*
X76679Y142994D01*
X76618Y142955D01*
X76579Y142932D01*
X76572Y142925D01*
X76564D01*
X76487Y142902D01*
X76426Y142879D01*
X76380Y142871D01*
X76372Y142863D01*
X76364D01*
X76280Y142848D01*
X76211Y142840D01*
X76180Y142833D01*
X76134D01*
X76026Y142840D01*
X75926Y142848D01*
X75842Y142863D01*
X75765Y142886D01*
X75696Y142909D01*
X75650Y142925D01*
X75619Y142932D01*
X75612Y142940D01*
X75527Y142986D01*
X75450Y143040D01*
X75389Y143094D01*
X75335Y143147D01*
X75289Y143193D01*
X75258Y143232D01*
X75235Y143255D01*
X75227Y143263D01*
X75174Y143347D01*
X75120Y143431D01*
X75082Y143524D01*
X75051Y143600D01*
X75020Y143670D01*
X75005Y143731D01*
X74989Y143762D01*
Y143777D01*
X74959Y143892D01*
X74943Y144008D01*
X74928Y144123D01*
X74913Y144230D01*
Y144315D01*
X74905Y144392D01*
Y144438D01*
Y144445D01*
Y144453D01*
Y144568D01*
X74913Y144676D01*
X74928Y144775D01*
X74936Y144868D01*
X74951Y144937D01*
X74966Y144998D01*
X74974Y145029D01*
Y145044D01*
X74997Y145144D01*
X75028Y145244D01*
X75066Y145328D01*
X75097Y145398D01*
X75128Y145459D01*
X75151Y145497D01*
X75166Y145528D01*
X75174Y145536D01*
X75227Y145613D01*
X75289Y145682D01*
X75343Y145736D01*
X75404Y145789D01*
X75450Y145820D01*
X75489Y145851D01*
X75519Y145866D01*
X75527Y145874D01*
X75612Y145912D01*
X75696Y145943D01*
X75788Y145966D01*
X75865Y145981D01*
X75942Y145989D01*
X75995Y145997D01*
X76049D01*
X76157Y145989D01*
D02*
G37*
G36*
X70696Y147264D02*
X70735Y147256D01*
X70750D01*
X70796Y147248D01*
X70835Y147241D01*
X70858Y147233D01*
X70865D01*
X70896Y147218D01*
X70911Y147202D01*
X70927Y147195D01*
Y147187D01*
X70942Y147149D01*
Y147141D01*
Y147133D01*
Y145613D01*
X71011Y145682D01*
X71080Y145736D01*
X71149Y145789D01*
X71203Y145828D01*
X71257Y145858D01*
X71295Y145881D01*
X71318Y145889D01*
X71326Y145897D01*
X71403Y145928D01*
X71472Y145958D01*
X71549Y145974D01*
X71610Y145981D01*
X71672Y145989D01*
X71718Y145997D01*
X71756D01*
X71864Y145989D01*
X71964Y145981D01*
X72056Y145958D01*
X72132Y145943D01*
X72194Y145920D01*
X72248Y145897D01*
X72278Y145889D01*
X72286Y145881D01*
X72363Y145835D01*
X72440Y145782D01*
X72509Y145728D01*
X72563Y145674D01*
X72609Y145628D01*
X72639Y145590D01*
X72662Y145559D01*
X72670Y145551D01*
X72724Y145467D01*
X72770Y145382D01*
X72808Y145298D01*
X72839Y145221D01*
X72870Y145152D01*
X72885Y145098D01*
X72893Y145060D01*
X72900Y145044D01*
X72947Y144814D01*
X72962Y144699D01*
X72970Y144599D01*
Y144507D01*
X72977Y144438D01*
Y144392D01*
Y144384D01*
Y144376D01*
Y144261D01*
X72970Y144153D01*
X72954Y144046D01*
X72947Y143961D01*
X72931Y143885D01*
X72923Y143823D01*
X72916Y143792D01*
Y143777D01*
X72893Y143677D01*
X72862Y143585D01*
X72824Y143501D01*
X72793Y143431D01*
X72762Y143370D01*
X72739Y143324D01*
X72724Y143293D01*
X72716Y143286D01*
X72662Y143209D01*
X72601Y143147D01*
X72540Y143094D01*
X72486Y143040D01*
X72432Y143009D01*
X72394Y142978D01*
X72363Y142963D01*
X72355Y142955D01*
X72271Y142917D01*
X72179Y142886D01*
X72086Y142863D01*
X72002Y142848D01*
X71925Y142840D01*
X71864Y142833D01*
X71810D01*
X71702Y142840D01*
X71603Y142856D01*
X71518Y142871D01*
X71441Y142894D01*
X71372Y142917D01*
X71326Y142940D01*
X71295Y142948D01*
X71288Y142955D01*
X71196Y143009D01*
X71119Y143071D01*
X71034Y143124D01*
X70965Y143186D01*
X70911Y143239D01*
X70865Y143278D01*
X70835Y143309D01*
X70827Y143316D01*
Y143009D01*
X70819Y142963D01*
X70811Y142955D01*
Y142948D01*
X70796Y142932D01*
X70781Y142917D01*
X70766Y142909D01*
X70758D01*
X70727Y142902D01*
X70696D01*
X70666Y142894D01*
X70658D01*
X70604Y142886D01*
X70428D01*
X70374Y142894D01*
X70335D01*
X70289Y142902D01*
X70259D01*
X70243Y142909D01*
X70236D01*
X70213Y142925D01*
X70197Y142932D01*
X70182Y142948D01*
X70166Y142971D01*
X70159Y142986D01*
Y143001D01*
Y143009D01*
Y147133D01*
Y147156D01*
X70166Y147172D01*
X70174Y147187D01*
X70182D01*
X70197Y147210D01*
X70220Y147225D01*
X70236Y147233D01*
X70243D01*
X70282Y147241D01*
X70320Y147248D01*
X70351Y147256D01*
X70366D01*
X70428Y147264D01*
X70481Y147272D01*
X70635D01*
X70696Y147264D01*
D02*
G37*
G36*
X85611Y145989D02*
X85688Y145974D01*
X85764Y145966D01*
X85818Y145951D01*
X85864Y145935D01*
X85895Y145928D01*
X85903D01*
X86049Y145866D01*
X86110Y145835D01*
X86164Y145805D01*
X86202Y145782D01*
X86233Y145759D01*
X86256Y145743D01*
X86264Y145736D01*
X86364Y145643D01*
X86433Y145551D01*
X86456Y145513D01*
X86471Y145482D01*
X86486Y145459D01*
Y145451D01*
X86532Y145321D01*
X86548Y145259D01*
X86555Y145206D01*
Y145152D01*
X86563Y145113D01*
Y145090D01*
Y145083D01*
X86555Y144945D01*
X86548Y144883D01*
X86532Y144837D01*
X86525Y144791D01*
X86517Y144760D01*
X86510Y144745D01*
Y144737D01*
X86456Y144645D01*
X86410Y144568D01*
X86387Y144537D01*
X86371Y144514D01*
X86356Y144507D01*
Y144499D01*
X86279Y144430D01*
X86210Y144376D01*
X86179Y144361D01*
X86164Y144345D01*
X86149Y144330D01*
X86141D01*
X86049Y144284D01*
X85964Y144246D01*
X85934Y144230D01*
X85910Y144215D01*
X85895Y144207D01*
X85887D01*
X85795Y144169D01*
X85718Y144138D01*
X85688Y144123D01*
X85665Y144115D01*
X85649Y144107D01*
X85642D01*
X85557Y144077D01*
X85488Y144046D01*
X85442Y144023D01*
X85434Y144015D01*
X85427D01*
X85357Y143977D01*
X85311Y143938D01*
X85273Y143915D01*
X85265Y143900D01*
X85227Y143846D01*
X85211Y143792D01*
X85204Y143754D01*
Y143746D01*
Y143739D01*
X85211Y143677D01*
X85219Y143631D01*
X85235Y143600D01*
X85242Y143593D01*
X85273Y143547D01*
X85296Y143516D01*
X85327Y143493D01*
X85334Y143485D01*
X85381Y143462D01*
X85427Y143439D01*
X85465Y143431D01*
X85473Y143424D01*
X85480D01*
X85542Y143416D01*
X85603Y143409D01*
X85665D01*
X85787Y143416D01*
X85841Y143424D01*
X85887Y143431D01*
X85918D01*
X85949Y143439D01*
X85964Y143447D01*
X85972D01*
X86064Y143478D01*
X86141Y143501D01*
X86172Y143516D01*
X86195Y143524D01*
X86202Y143531D01*
X86210D01*
X86279Y143562D01*
X86333Y143593D01*
X86364Y143608D01*
X86379Y143616D01*
X86417Y143647D01*
X86448Y143654D01*
X86471Y143662D01*
X86479D01*
X86517Y143654D01*
X86525Y143647D01*
X86532D01*
X86540Y143639D01*
X86555Y143623D01*
X86563Y143608D01*
Y143600D01*
X86571Y143577D01*
Y143547D01*
X86579Y143524D01*
Y143516D01*
Y143470D01*
Y143424D01*
Y143385D01*
Y143378D01*
Y143370D01*
Y143278D01*
X86571Y143217D01*
X86563Y143178D01*
Y143163D01*
X86548Y143117D01*
X86532Y143086D01*
X86525Y143063D01*
X86517Y143055D01*
X86486Y143032D01*
X86448Y143009D01*
X86417Y142994D01*
X86402Y142986D01*
X86340Y142963D01*
X86279Y142940D01*
X86225Y142925D01*
X86218Y142917D01*
X86210D01*
X86118Y142894D01*
X86041Y142879D01*
X86003Y142871D01*
X85979D01*
X85964Y142863D01*
X85957D01*
X85849Y142848D01*
X85749Y142840D01*
X85711Y142833D01*
X85557D01*
X85473Y142840D01*
X85388Y142856D01*
X85319Y142863D01*
X85258Y142879D01*
X85211Y142886D01*
X85181Y142894D01*
X85173D01*
X85089Y142917D01*
X85012Y142948D01*
X84950Y142971D01*
X84889Y143001D01*
X84843Y143032D01*
X84812Y143047D01*
X84789Y143063D01*
X84781Y143071D01*
X84674Y143170D01*
X84597Y143270D01*
X84566Y143316D01*
X84543Y143347D01*
X84536Y143370D01*
X84528Y143378D01*
X84497Y143447D01*
X84474Y143524D01*
X84459Y143593D01*
X84443Y143662D01*
Y143716D01*
X84436Y143762D01*
Y143792D01*
Y143800D01*
X84443Y143931D01*
X84451Y143992D01*
X84467Y144038D01*
X84474Y144077D01*
X84490Y144107D01*
X84497Y144123D01*
Y144130D01*
X84551Y144223D01*
X84597Y144299D01*
X84620Y144330D01*
X84643Y144353D01*
X84651Y144361D01*
X84659Y144369D01*
X84735Y144445D01*
X84804Y144499D01*
X84835Y144514D01*
X84858Y144530D01*
X84874Y144545D01*
X84881D01*
X84974Y144591D01*
X85050Y144630D01*
X85089Y144645D01*
X85112Y144653D01*
X85127Y144660D01*
X85135D01*
X85227Y144699D01*
X85304Y144729D01*
X85334Y144745D01*
X85357Y144753D01*
X85373Y144760D01*
X85381D01*
X85465Y144791D01*
X85534Y144822D01*
X85588Y144845D01*
X85596Y144852D01*
X85603D01*
X85672Y144891D01*
X85718Y144929D01*
X85757Y144960D01*
X85764Y144967D01*
X85795Y145021D01*
X85811Y145075D01*
X85818Y145121D01*
Y145129D01*
Y145136D01*
X85811Y145183D01*
X85803Y145221D01*
X85795Y145244D01*
Y145252D01*
X85772Y145290D01*
X85749Y145321D01*
X85734Y145336D01*
X85726Y145344D01*
X85680Y145375D01*
X85642Y145398D01*
X85611Y145405D01*
X85596Y145413D01*
X85526Y145428D01*
X85465Y145436D01*
X85404D01*
X85296Y145428D01*
X85211Y145421D01*
X85181Y145413D01*
X85158Y145405D01*
X85142Y145398D01*
X85135D01*
X85050Y145375D01*
X84989Y145352D01*
X84943Y145336D01*
X84935Y145328D01*
X84927D01*
X84866Y145305D01*
X84820Y145282D01*
X84789Y145267D01*
X84781Y145259D01*
X84743Y145244D01*
X84712Y145236D01*
X84697Y145229D01*
X84689D01*
X84659Y145236D01*
X84651D01*
X84636Y145244D01*
X84628Y145259D01*
X84620Y145267D01*
Y145275D01*
X84605Y145336D01*
X84597Y145359D01*
Y145367D01*
X84589Y145413D01*
Y145459D01*
Y145490D01*
Y145505D01*
Y145551D01*
Y145590D01*
X84597Y145613D01*
Y145620D01*
X84605Y145659D01*
Y145682D01*
X84613Y145697D01*
Y145705D01*
X84620Y145743D01*
X84628Y145759D01*
X84659Y145797D01*
X84666Y145812D01*
X84674D01*
X84697Y145828D01*
X84735Y145851D01*
X84758Y145858D01*
X84774Y145866D01*
X84828Y145889D01*
X84881Y145912D01*
X84927Y145920D01*
X84935Y145928D01*
X84943D01*
X85019Y145951D01*
X85089Y145966D01*
X85119D01*
X85142Y145974D01*
X85166D01*
X85258Y145989D01*
X85334Y145997D01*
X85519D01*
X85611Y145989D01*
D02*
G37*
G36*
X79060Y145935D02*
X79098Y145928D01*
X79114D01*
X79167Y145920D01*
X79206Y145912D01*
X79229Y145905D01*
X79237D01*
X79267Y145889D01*
X79283Y145874D01*
X79298Y145866D01*
Y145858D01*
X79313Y145820D01*
Y145812D01*
Y145805D01*
Y143009D01*
X79306Y142971D01*
X79298Y142963D01*
Y142955D01*
X79283Y142940D01*
X79260Y142925D01*
X79244Y142917D01*
X79237D01*
X79198Y142909D01*
X79160Y142902D01*
X79129Y142894D01*
X79114D01*
X79052Y142886D01*
X78845D01*
X78783Y142894D01*
X78730D01*
X78676Y142902D01*
X78637Y142909D01*
X78614Y142917D01*
X78607D01*
X78576Y142932D01*
X78561Y142940D01*
X78545Y142955D01*
X78530Y142971D01*
X78522Y142994D01*
Y143001D01*
Y143009D01*
Y145805D01*
Y145828D01*
X78530Y145843D01*
X78538Y145858D01*
X78545D01*
X78561Y145881D01*
X78584Y145897D01*
X78599Y145905D01*
X78607D01*
X78645Y145912D01*
X78684Y145920D01*
X78714Y145928D01*
X78730D01*
X78791Y145935D01*
X78852Y145943D01*
X78998D01*
X79060Y145935D01*
D02*
G37*
G36*
X61304Y145989D02*
X61411Y145981D01*
X61519Y145958D01*
X61603Y145943D01*
X61680Y145920D01*
X61734Y145897D01*
X61765Y145889D01*
X61780Y145881D01*
X61880Y145835D01*
X61964Y145789D01*
X62041Y145736D01*
X62110Y145682D01*
X62164Y145636D01*
X62202Y145597D01*
X62225Y145567D01*
X62233Y145559D01*
X62294Y145474D01*
X62356Y145390D01*
X62402Y145305D01*
X62440Y145229D01*
X62479Y145159D01*
X62502Y145106D01*
X62510Y145067D01*
X62517Y145052D01*
X62548Y144937D01*
X62571Y144822D01*
X62586Y144706D01*
X62594Y144599D01*
X62602Y144514D01*
X62609Y144438D01*
Y144392D01*
Y144384D01*
Y144376D01*
X62602Y144238D01*
X62594Y144107D01*
X62579Y143984D01*
X62563Y143885D01*
X62548Y143808D01*
X62533Y143746D01*
X62517Y143708D01*
Y143693D01*
X62479Y143585D01*
X62433Y143493D01*
X62387Y143409D01*
X62340Y143339D01*
X62302Y143286D01*
X62271Y143247D01*
X62248Y143217D01*
X62241Y143209D01*
X62164Y143140D01*
X62087Y143086D01*
X62010Y143032D01*
X61933Y142994D01*
X61872Y142963D01*
X61818Y142940D01*
X61787Y142932D01*
X61772Y142925D01*
X61665Y142894D01*
X61550Y142871D01*
X61434Y142856D01*
X61334Y142848D01*
X61242Y142840D01*
X61173Y142833D01*
X61112D01*
X60966Y142840D01*
X60897D01*
X60835Y142848D01*
X60789Y142856D01*
X60751D01*
X60728Y142863D01*
X60720D01*
X60589Y142879D01*
X60536Y142894D01*
X60490Y142902D01*
X60451Y142909D01*
X60421D01*
X60405Y142917D01*
X60397D01*
X60298Y142948D01*
X60229Y142971D01*
X60182Y142986D01*
X60167Y142994D01*
X60113Y143017D01*
X60075Y143032D01*
X60059Y143047D01*
X60052D01*
X60029Y143078D01*
X60021Y143094D01*
X60006Y143132D01*
X59998Y143147D01*
Y143155D01*
X59990Y143209D01*
Y143232D01*
Y143239D01*
X59983Y143278D01*
Y143316D01*
Y143347D01*
Y143355D01*
Y143409D01*
Y143455D01*
X59990Y143478D01*
Y143485D01*
X59998Y143524D01*
X60006Y143547D01*
X60014Y143562D01*
Y143570D01*
X60021Y143593D01*
X60029Y143600D01*
X60036Y143608D01*
X60044D01*
X60075Y143623D01*
X60090D01*
X60129Y143616D01*
X60167Y143608D01*
X60198Y143600D01*
X60213Y143593D01*
X60275Y143570D01*
X60328Y143547D01*
X60374Y143531D01*
X60390Y143524D01*
X60397D01*
X60490Y143501D01*
X60582Y143478D01*
X60620Y143470D01*
X60643Y143462D01*
X60666Y143455D01*
X60674D01*
X60797Y143439D01*
X60912Y143431D01*
X61112D01*
X61181Y143439D01*
X61235Y143447D01*
X61288Y143455D01*
X61334Y143462D01*
X61365Y143470D01*
X61380Y143478D01*
X61388D01*
X61488Y143524D01*
X61565Y143577D01*
X61588Y143600D01*
X61611Y143616D01*
X61619Y143623D01*
X61626Y143631D01*
X61688Y143716D01*
X61726Y143800D01*
X61742Y143831D01*
X61757Y143862D01*
X61765Y143877D01*
Y143885D01*
X61787Y144000D01*
X61795Y144107D01*
X61803Y144146D01*
Y144184D01*
Y144207D01*
Y144215D01*
X60098D01*
X60021Y144223D01*
X59967Y144253D01*
X59929Y144276D01*
X59921Y144284D01*
X59883Y144345D01*
X59860Y144415D01*
X59852Y144445D01*
Y144468D01*
Y144484D01*
Y144491D01*
Y144622D01*
Y144729D01*
X59868Y144829D01*
X59875Y144921D01*
X59891Y145006D01*
X59906Y145075D01*
X59914Y145121D01*
X59929Y145159D01*
Y145167D01*
X59960Y145259D01*
X59998Y145344D01*
X60036Y145421D01*
X60075Y145482D01*
X60113Y145536D01*
X60144Y145574D01*
X60159Y145597D01*
X60167Y145605D01*
X60229Y145674D01*
X60298Y145728D01*
X60367Y145774D01*
X60436Y145820D01*
X60490Y145851D01*
X60536Y145874D01*
X60574Y145881D01*
X60582Y145889D01*
X60682Y145928D01*
X60782Y145951D01*
X60881Y145974D01*
X60974Y145981D01*
X61058Y145989D01*
X61119Y145997D01*
X61181D01*
X61304Y145989D01*
D02*
G37*
G36*
X116077Y145981D02*
X116185Y145974D01*
X116285Y145958D01*
X116369Y145943D01*
X116438Y145920D01*
X116492Y145905D01*
X116523Y145897D01*
X116538Y145889D01*
X116630Y145851D01*
X116715Y145797D01*
X116792Y145751D01*
X116853Y145705D01*
X116907Y145659D01*
X116953Y145620D01*
X116976Y145597D01*
X116984Y145590D01*
X117045Y145513D01*
X117107Y145428D01*
X117160Y145344D01*
X117199Y145259D01*
X117229Y145190D01*
X117253Y145136D01*
X117268Y145098D01*
X117276Y145083D01*
X117306Y144960D01*
X117329Y144837D01*
X117352Y144714D01*
X117360Y144607D01*
X117368Y144507D01*
X117375Y144422D01*
Y144392D01*
Y144369D01*
Y144361D01*
Y144353D01*
X117368Y144223D01*
X117360Y144100D01*
X117345Y143992D01*
X117329Y143892D01*
X117314Y143816D01*
X117306Y143762D01*
X117291Y143723D01*
Y143708D01*
X117253Y143608D01*
X117214Y143516D01*
X117176Y143431D01*
X117130Y143362D01*
X117099Y143301D01*
X117068Y143263D01*
X117045Y143232D01*
X117037Y143224D01*
X116968Y143155D01*
X116899Y143101D01*
X116830Y143047D01*
X116761Y143009D01*
X116707Y142971D01*
X116654Y142948D01*
X116623Y142940D01*
X116615Y142932D01*
X116515Y142902D01*
X116415Y142879D01*
X116323Y142856D01*
X116231Y142848D01*
X116154Y142840D01*
X116093Y142833D01*
X116039D01*
X115931Y142840D01*
X115847Y142848D01*
X115809Y142856D01*
X115786D01*
X115770Y142863D01*
X115763D01*
X115663Y142886D01*
X115586Y142902D01*
X115555Y142909D01*
X115532Y142917D01*
X115517Y142925D01*
X115509D01*
X115425Y142955D01*
X115356Y142978D01*
X115310Y143001D01*
X115302Y143009D01*
X115294D01*
X115233Y143047D01*
X115194Y143078D01*
X115179Y143094D01*
X115171Y143101D01*
X115148Y143124D01*
X115133Y143147D01*
X115125Y143155D01*
Y143163D01*
X115110Y143201D01*
X115102Y143217D01*
Y143224D01*
X115094Y143286D01*
X115087Y143309D01*
Y143316D01*
X115079Y143362D01*
Y143409D01*
Y143439D01*
Y143455D01*
Y143524D01*
Y143570D01*
X115087Y143608D01*
Y143616D01*
X115094Y143662D01*
X115102Y143693D01*
X115110Y143716D01*
Y143723D01*
X115118Y143754D01*
X115125Y143769D01*
X115133Y143785D01*
X115140D01*
X115156Y143800D01*
X115171Y143808D01*
X115187D01*
X115217Y143800D01*
X115248Y143785D01*
X115279Y143762D01*
X115286Y143754D01*
X115332Y143716D01*
X115379Y143685D01*
X115417Y143654D01*
X115425Y143647D01*
X115432D01*
X115501Y143600D01*
X115571Y143570D01*
X115594Y143554D01*
X115617Y143547D01*
X115632Y143539D01*
X115640D01*
X115732Y143516D01*
X115824Y143501D01*
X115862Y143493D01*
X115916D01*
X116031Y143501D01*
X116116Y143524D01*
X116154Y143531D01*
X116177Y143539D01*
X116193Y143547D01*
X116200D01*
X116285Y143600D01*
X116346Y143662D01*
X116392Y143708D01*
X116400Y143716D01*
X116408Y143723D01*
X116462Y143816D01*
X116492Y143908D01*
X116507Y143946D01*
X116515Y143977D01*
X116523Y144000D01*
Y144008D01*
X116546Y144146D01*
X116554Y144215D01*
Y144276D01*
X116561Y144330D01*
Y144369D01*
Y144399D01*
Y144407D01*
X116554Y144568D01*
X116538Y144714D01*
X116507Y144829D01*
X116477Y144929D01*
X116454Y145006D01*
X116423Y145060D01*
X116408Y145098D01*
X116400Y145106D01*
X116331Y145183D01*
X116262Y145244D01*
X116177Y145282D01*
X116108Y145313D01*
X116039Y145328D01*
X115985Y145344D01*
X115931D01*
X115824Y145336D01*
X115740Y145321D01*
X115709Y145313D01*
X115678Y145305D01*
X115670Y145298D01*
X115663D01*
X115586Y145259D01*
X115517Y145229D01*
X115478Y145206D01*
X115463Y145198D01*
X115409Y145159D01*
X115363Y145129D01*
X115332Y145106D01*
X115325Y145098D01*
X115279Y145075D01*
X115240Y145067D01*
X115217Y145060D01*
X115210D01*
X115171Y145067D01*
X115148Y145098D01*
X115133Y145121D01*
X115125Y145129D01*
X115118Y145159D01*
X115110Y145206D01*
X115094Y145290D01*
Y145328D01*
Y145359D01*
Y145382D01*
Y145390D01*
Y145444D01*
Y145482D01*
X115102Y145513D01*
Y145520D01*
Y145559D01*
Y145590D01*
X115110Y145605D01*
Y145613D01*
X115125Y145659D01*
X115133Y145666D01*
Y145674D01*
X115148Y145697D01*
X115164Y145720D01*
X115179Y145728D01*
X115187Y145736D01*
X115217Y145766D01*
X115256Y145789D01*
X115286Y145812D01*
X115294Y145820D01*
X115302D01*
X115371Y145851D01*
X115432Y145881D01*
X115478Y145897D01*
X115486Y145905D01*
X115494D01*
X115571Y145928D01*
X115640Y145951D01*
X115670Y145958D01*
X115693D01*
X115709Y145966D01*
X115717D01*
X115809Y145981D01*
X115885Y145989D01*
X115962D01*
X116077Y145981D01*
D02*
G37*
G36*
X83453Y146672D02*
X83491Y146665D01*
X83507D01*
X83560Y146657D01*
X83599Y146649D01*
X83622Y146642D01*
X83630D01*
X83660Y146626D01*
X83675Y146611D01*
X83691Y146603D01*
Y146596D01*
X83706Y146557D01*
Y146550D01*
Y146542D01*
Y145920D01*
X84067D01*
X84083Y145912D01*
X84090Y145905D01*
X84098Y145897D01*
X84113Y145881D01*
X84129Y145866D01*
X84136Y145851D01*
Y145843D01*
X84144Y145812D01*
X84152Y145782D01*
X84159Y145759D01*
Y145743D01*
X84167Y145697D01*
Y145651D01*
Y145613D01*
Y145605D01*
Y145597D01*
Y145536D01*
X84159Y145482D01*
Y145436D01*
X84152Y145405D01*
X84144Y145375D01*
Y145359D01*
X84136Y145352D01*
Y145344D01*
X84106Y145305D01*
X84075Y145282D01*
X84052Y145275D01*
X83706D01*
Y143839D01*
Y143746D01*
X83699Y143654D01*
X83691Y143577D01*
X83683Y143516D01*
X83675Y143462D01*
X83668Y143416D01*
X83660Y143393D01*
Y143385D01*
X83614Y143263D01*
X83583Y143209D01*
X83553Y143163D01*
X83530Y143124D01*
X83507Y143101D01*
X83499Y143086D01*
X83491Y143078D01*
X83399Y143001D01*
X83307Y142948D01*
X83268Y142925D01*
X83238Y142909D01*
X83215Y142902D01*
X83207D01*
X83069Y142863D01*
X83000Y142856D01*
X82931Y142848D01*
X82877Y142840D01*
X82731D01*
X82677Y142848D01*
X82639Y142856D01*
X82623D01*
X82562Y142863D01*
X82508Y142871D01*
X82477Y142879D01*
X82462D01*
X82408Y142894D01*
X82370Y142902D01*
X82339Y142917D01*
X82332D01*
X82293Y142932D01*
X82262Y142948D01*
X82255Y142963D01*
X82247D01*
X82224Y142994D01*
X82209Y143025D01*
X82201Y143055D01*
Y143063D01*
X82186Y143132D01*
X82178Y143201D01*
Y143232D01*
Y143255D01*
Y143270D01*
Y143278D01*
Y143339D01*
X82186Y143385D01*
X82193Y143416D01*
Y143424D01*
X82201Y143462D01*
Y143485D01*
X82209Y143501D01*
Y143508D01*
X82216Y143531D01*
X82224Y143547D01*
X82232Y143554D01*
X82239D01*
X82262Y143570D01*
X82270D01*
X82309Y143562D01*
X82316Y143554D01*
X82324D01*
X82362Y143539D01*
X82378Y143531D01*
X82385D01*
X82447Y143516D01*
X82470Y143508D01*
X82477D01*
X82516Y143501D01*
X82585D01*
X82654Y143508D01*
X82708Y143516D01*
X82754Y143531D01*
X82785Y143554D01*
X82815Y143577D01*
X82831Y143593D01*
X82846Y143600D01*
Y143608D01*
X82869Y143654D01*
X82885Y143708D01*
X82907Y143823D01*
Y143877D01*
X82915Y143915D01*
Y143946D01*
Y143954D01*
Y145275D01*
X82301D01*
X82262Y145282D01*
X82239Y145313D01*
X82224Y145336D01*
X82216Y145344D01*
X82201Y145375D01*
X82193Y145413D01*
X82186Y145497D01*
X82178Y145536D01*
Y145567D01*
Y145590D01*
Y145597D01*
Y145659D01*
X82186Y145705D01*
X82193Y145736D01*
Y145743D01*
X82201Y145789D01*
X82209Y145820D01*
X82216Y145835D01*
Y145843D01*
X82232Y145866D01*
X82239Y145881D01*
X82247Y145897D01*
X82255D01*
X82270Y145912D01*
X82293Y145920D01*
X82915D01*
Y146542D01*
Y146565D01*
X82923Y146580D01*
X82931Y146596D01*
X82938D01*
X82954Y146619D01*
X82977Y146634D01*
X82992Y146642D01*
X83000D01*
X83038Y146649D01*
X83077Y146657D01*
X83107Y146665D01*
X83123D01*
X83184Y146672D01*
X83245Y146680D01*
X83391D01*
X83453Y146672D01*
D02*
G37*
G36*
X97484Y146987D02*
X97530Y146980D01*
X97546D01*
X97599Y146972D01*
X97638Y146964D01*
X97661Y146957D01*
X97668D01*
X97699Y146941D01*
X97722Y146926D01*
X97730Y146918D01*
X97738Y146911D01*
X97753Y146872D01*
Y146864D01*
Y146857D01*
Y143163D01*
Y143109D01*
X97745Y143071D01*
X97715Y143001D01*
X97692Y142971D01*
X97684Y142955D01*
X97630Y142925D01*
X97576Y142909D01*
X97530Y142902D01*
X95649D01*
X95610Y142909D01*
X95595Y142917D01*
X95579Y142932D01*
X95564Y142955D01*
X95556Y142971D01*
Y142978D01*
X95549Y143017D01*
X95541Y143047D01*
X95534Y143078D01*
Y143086D01*
X95526Y143140D01*
X95518Y143193D01*
Y143232D01*
Y143239D01*
Y143247D01*
Y143309D01*
X95526Y143362D01*
X95534Y143393D01*
Y143401D01*
X95541Y143447D01*
X95549Y143478D01*
X95556Y143501D01*
Y143508D01*
X95572Y143531D01*
X95579Y143547D01*
X95587Y143562D01*
X95595D01*
X95610Y143577D01*
X95633Y143585D01*
X96924D01*
Y146857D01*
Y146880D01*
X96931Y146895D01*
X96939Y146911D01*
X96947D01*
X96970Y146934D01*
X96993Y146949D01*
X97008Y146957D01*
X97016D01*
X97054Y146964D01*
X97100Y146972D01*
X97131Y146980D01*
X97146D01*
X97208Y146987D01*
X97269Y146995D01*
X97423D01*
X97484Y146987D01*
D02*
G37*
G36*
X80250Y145989D02*
X80304Y145981D01*
X80350Y145974D01*
X80358Y145966D01*
X80366D01*
X80427Y145943D01*
X80488Y145912D01*
X80527Y145889D01*
X80534Y145881D01*
X80542D01*
X80603Y145835D01*
X80665Y145782D01*
X80711Y145736D01*
X80719Y145728D01*
X80726Y145720D01*
X80796Y145636D01*
X80865Y145559D01*
X80895Y145520D01*
X80911Y145490D01*
X80926Y145474D01*
X80934Y145467D01*
Y145812D01*
X80941Y145851D01*
X80949Y145866D01*
X80964Y145881D01*
X80980Y145897D01*
X80995Y145905D01*
X81003D01*
X81034Y145912D01*
X81064Y145920D01*
X81087Y145928D01*
X81103D01*
X81156Y145935D01*
X81203Y145943D01*
X81333D01*
X81387Y145935D01*
X81418Y145928D01*
X81433D01*
X81471Y145920D01*
X81502Y145912D01*
X81525Y145905D01*
X81533D01*
X81556Y145889D01*
X81571Y145881D01*
X81587Y145874D01*
Y145866D01*
X81602Y145828D01*
Y145820D01*
Y145812D01*
Y143009D01*
X81594Y142971D01*
X81587Y142963D01*
Y142955D01*
X81571Y142940D01*
X81548Y142925D01*
X81533Y142917D01*
X81525D01*
X81487Y142909D01*
X81448Y142902D01*
X81418Y142894D01*
X81402D01*
X81341Y142886D01*
X81134D01*
X81072Y142894D01*
X81018D01*
X80964Y142902D01*
X80926Y142909D01*
X80903Y142917D01*
X80895D01*
X80865Y142932D01*
X80849Y142940D01*
X80834Y142955D01*
X80819Y142971D01*
X80811Y142994D01*
Y143001D01*
Y143009D01*
Y144760D01*
X80749Y144852D01*
X80696Y144921D01*
X80665Y144967D01*
X80650Y144975D01*
Y144983D01*
X80596Y145052D01*
X80550Y145098D01*
X80519Y145129D01*
X80504Y145136D01*
X80450Y145175D01*
X80404Y145206D01*
X80373Y145213D01*
X80366Y145221D01*
X80312Y145236D01*
X80273Y145252D01*
X80189D01*
X80158Y145244D01*
X80135Y145236D01*
X80127D01*
X80097Y145229D01*
X80066Y145221D01*
X80051Y145213D01*
X80043D01*
X80012Y145206D01*
X79989Y145198D01*
X79974Y145190D01*
X79966D01*
X79928Y145183D01*
X79912D01*
X79874Y145190D01*
X79859Y145198D01*
X79843Y145213D01*
X79835Y145229D01*
X79828Y145244D01*
Y145252D01*
X79820Y145282D01*
X79813Y145321D01*
X79805Y145352D01*
Y145359D01*
X79797Y145421D01*
Y145482D01*
Y145536D01*
Y145544D01*
Y145551D01*
Y145628D01*
Y145682D01*
X79805Y145720D01*
Y145728D01*
Y145774D01*
Y145805D01*
X79813Y145820D01*
Y145828D01*
X79820Y145851D01*
Y145866D01*
X79828Y145881D01*
X79843Y145912D01*
X79851Y145920D01*
X79859D01*
X79874Y145928D01*
X79889Y145935D01*
X79905Y145943D01*
X79912D01*
X79935Y145951D01*
X79966Y145958D01*
X79989Y145966D01*
X79997D01*
X80035Y145974D01*
X80066Y145981D01*
X80089Y145989D01*
X80097D01*
X80127Y145997D01*
X80181D01*
X80250Y145989D01*
D02*
G37*
G36*
X91716Y146964D02*
X91770Y146941D01*
X91801Y146918D01*
X91816Y146911D01*
X91855Y146857D01*
X91878Y146788D01*
Y146757D01*
X91886Y146734D01*
Y146719D01*
Y146711D01*
Y143163D01*
Y143109D01*
X91878Y143071D01*
X91847Y143001D01*
X91824Y142971D01*
X91816Y142955D01*
X91763Y142925D01*
X91709Y142909D01*
X91663Y142902D01*
X90672D01*
X90480Y142909D01*
X90303Y142917D01*
X90142Y142940D01*
X90004Y142963D01*
X89896Y142978D01*
X89850Y142994D01*
X89812Y143001D01*
X89781Y143009D01*
X89758D01*
X89750Y143017D01*
X89743D01*
X89605Y143063D01*
X89474Y143124D01*
X89359Y143186D01*
X89267Y143247D01*
X89190Y143301D01*
X89128Y143347D01*
X89098Y143378D01*
X89082Y143385D01*
X88982Y143485D01*
X88898Y143593D01*
X88829Y143700D01*
X88767Y143800D01*
X88721Y143892D01*
X88683Y143969D01*
X88668Y144015D01*
X88660Y144023D01*
Y144031D01*
X88606Y144184D01*
X88568Y144353D01*
X88545Y144507D01*
X88522Y144660D01*
X88514Y144791D01*
Y144852D01*
X88506Y144898D01*
Y144937D01*
Y144967D01*
Y144983D01*
Y144991D01*
X88514Y145167D01*
X88529Y145328D01*
X88552Y145474D01*
X88575Y145597D01*
X88598Y145705D01*
X88621Y145782D01*
X88629Y145805D01*
X88637Y145828D01*
X88644Y145835D01*
Y145843D01*
X88698Y145974D01*
X88767Y146097D01*
X88829Y146196D01*
X88898Y146289D01*
X88952Y146358D01*
X88998Y146411D01*
X89029Y146450D01*
X89044Y146457D01*
X89144Y146550D01*
X89251Y146626D01*
X89359Y146688D01*
X89459Y146742D01*
X89543Y146788D01*
X89620Y146818D01*
X89666Y146834D01*
X89674Y146841D01*
X89681D01*
X89827Y146888D01*
X89981Y146918D01*
X90134Y146941D01*
X90280Y146957D01*
X90411Y146964D01*
X90465Y146972D01*
X91647D01*
X91716Y146964D01*
D02*
G37*
G36*
X94858D02*
X94911Y146941D01*
X94942Y146918D01*
X94958Y146911D01*
X94996Y146857D01*
X95019Y146788D01*
Y146757D01*
X95027Y146734D01*
Y146719D01*
Y146711D01*
Y143163D01*
Y143109D01*
X95019Y143071D01*
X94988Y143001D01*
X94965Y142971D01*
X94958Y142955D01*
X94904Y142925D01*
X94850Y142909D01*
X94804Y142902D01*
X92738D01*
X92707Y142909D01*
X92692Y142917D01*
X92677Y142932D01*
X92661Y142948D01*
X92654Y142963D01*
Y142971D01*
X92646Y143001D01*
X92638Y143032D01*
X92630Y143063D01*
Y143071D01*
X92623Y143124D01*
X92615Y143170D01*
Y143209D01*
Y143224D01*
Y143286D01*
X92623Y143332D01*
X92630Y143362D01*
Y143370D01*
X92638Y143409D01*
X92646Y143447D01*
X92654Y143462D01*
Y143470D01*
X92669Y143493D01*
X92677Y143508D01*
X92684Y143524D01*
X92692D01*
X92707Y143539D01*
X92723Y143547D01*
X94205D01*
Y144699D01*
X92976D01*
X92945Y144706D01*
X92930Y144714D01*
X92899Y144745D01*
X92892Y144753D01*
Y144760D01*
X92876Y144822D01*
X92869Y144845D01*
Y144852D01*
X92861Y144906D01*
X92853Y144952D01*
Y144991D01*
Y145006D01*
Y145067D01*
X92861Y145121D01*
X92869Y145152D01*
Y145159D01*
X92876Y145198D01*
X92884Y145229D01*
X92892Y145244D01*
Y145252D01*
X92907Y145275D01*
X92915Y145290D01*
X92922Y145305D01*
X92930D01*
X92945Y145321D01*
X92961Y145328D01*
X94205D01*
Y146327D01*
X92753D01*
X92715Y146335D01*
X92707Y146342D01*
X92692Y146358D01*
X92677Y146373D01*
X92669Y146388D01*
Y146396D01*
X92661Y146427D01*
X92654Y146457D01*
X92646Y146488D01*
Y146496D01*
X92638Y146542D01*
X92630Y146596D01*
Y146626D01*
Y146642D01*
Y146703D01*
X92638Y146757D01*
X92646Y146788D01*
Y146795D01*
X92654Y146834D01*
X92661Y146872D01*
X92669Y146888D01*
Y146895D01*
X92684Y146918D01*
X92692Y146934D01*
X92699Y146949D01*
X92707D01*
X92723Y146964D01*
X92738Y146972D01*
X94788D01*
X94858Y146964D01*
D02*
G37*
G36*
X65249Y151860D02*
X65402Y151844D01*
X65541Y151814D01*
X65633Y151768D01*
X65710Y151721D01*
X65756Y151691D01*
X65787Y151675D01*
X65802Y151660D01*
X65864Y151568D01*
X65910Y151460D01*
X65971Y151199D01*
X65986Y151076D01*
X66002Y150968D01*
Y150907D01*
Y150876D01*
X65986Y150676D01*
X65971Y150523D01*
X65940Y150384D01*
X65894Y150277D01*
X65864Y150200D01*
X65833Y150154D01*
X65817Y150123D01*
X65802Y150108D01*
X65710Y150046D01*
X65602Y150000D01*
X65372Y149954D01*
X65249Y149938D01*
X65156Y149923D01*
X65080D01*
X64895Y149938D01*
X64741Y149954D01*
X64603Y149985D01*
X64511Y150031D01*
X64434Y150062D01*
X64388Y150092D01*
X64357Y150108D01*
X64342Y150123D01*
X64280Y150215D01*
X64219Y150323D01*
X64173Y150584D01*
X64157Y150707D01*
X64142Y150815D01*
Y150876D01*
Y150907D01*
X64157Y151107D01*
X64173Y151260D01*
X64204Y151399D01*
X64234Y151506D01*
X64280Y151583D01*
X64311Y151629D01*
X64326Y151660D01*
X64342Y151675D01*
X64434Y151737D01*
X64542Y151798D01*
X64772Y151844D01*
X64895Y151860D01*
X64972Y151875D01*
X65064D01*
X65249Y151860D01*
D02*
G37*
G36*
X70275Y158284D02*
X70536Y158254D01*
X70782Y158208D01*
X70982Y158146D01*
X71135Y158085D01*
X71258Y158038D01*
X71335Y158008D01*
X71366Y157992D01*
X71566Y157869D01*
X71750Y157731D01*
X71919Y157593D01*
X72042Y157454D01*
X72150Y157332D01*
X72242Y157239D01*
X72288Y157178D01*
X72303Y157147D01*
X72426Y156932D01*
X72534Y156701D01*
X72626Y156471D01*
X72688Y156271D01*
X72749Y156071D01*
X72780Y155933D01*
X72795Y155871D01*
Y155825D01*
X72811Y155810D01*
Y155795D01*
X72857Y155487D01*
X72903Y155195D01*
X72934Y154903D01*
X72949Y154626D01*
Y154396D01*
X72964Y154288D01*
Y154211D01*
Y154135D01*
Y154088D01*
Y154058D01*
Y154042D01*
Y153689D01*
X72949Y153351D01*
X72918Y153059D01*
X72903Y152797D01*
X72872Y152582D01*
X72857Y152413D01*
Y152352D01*
X72841Y152305D01*
Y152290D01*
Y152275D01*
X72780Y151998D01*
X72719Y151752D01*
X72642Y151522D01*
X72565Y151337D01*
X72503Y151183D01*
X72442Y151060D01*
X72411Y150999D01*
X72396Y150968D01*
X72273Y150784D01*
X72119Y150615D01*
X71981Y150476D01*
X71842Y150354D01*
X71719Y150261D01*
X71627Y150200D01*
X71566Y150154D01*
X71535Y150138D01*
X71320Y150046D01*
X71089Y149985D01*
X70843Y149923D01*
X70628Y149892D01*
X70428Y149877D01*
X70275Y149862D01*
X70136D01*
X69844Y149877D01*
X69568Y149908D01*
X69322Y149954D01*
X69122Y150015D01*
X68968Y150062D01*
X68845Y150108D01*
X68768Y150138D01*
X68738Y150154D01*
X68538Y150277D01*
X68353Y150415D01*
X68200Y150553D01*
X68061Y150692D01*
X67954Y150815D01*
X67877Y150907D01*
X67831Y150968D01*
X67815Y150999D01*
X67693Y151214D01*
X67585Y151445D01*
X67493Y151660D01*
X67431Y151875D01*
X67370Y152060D01*
X67339Y152213D01*
X67324Y152259D01*
X67308Y152305D01*
Y152321D01*
Y152336D01*
X67247Y152644D01*
X67216Y152951D01*
X67185Y153243D01*
X67155Y153520D01*
Y153750D01*
X67139Y153858D01*
Y153935D01*
Y154012D01*
Y154058D01*
Y154088D01*
Y154104D01*
Y154457D01*
X67155Y154795D01*
X67185Y155087D01*
X67201Y155349D01*
X67231Y155564D01*
X67262Y155718D01*
Y155779D01*
X67277Y155825D01*
Y155841D01*
Y155856D01*
X67339Y156133D01*
X67400Y156394D01*
X67477Y156624D01*
X67539Y156809D01*
X67616Y156963D01*
X67677Y157086D01*
X67708Y157147D01*
X67723Y157178D01*
X67846Y157362D01*
X68000Y157531D01*
X68138Y157670D01*
X68277Y157793D01*
X68400Y157885D01*
X68507Y157962D01*
X68569Y157992D01*
X68599Y158008D01*
X68814Y158100D01*
X69045Y158177D01*
X69276Y158223D01*
X69491Y158269D01*
X69691Y158284D01*
X69844Y158300D01*
X69983D01*
X70275Y158284D01*
D02*
G37*
G36*
X103950Y158177D02*
X104042Y158161D01*
X104073D01*
X104181Y158146D01*
X104258Y158131D01*
X104304Y158115D01*
X104319D01*
X104381Y158085D01*
X104427Y158054D01*
X104442Y158038D01*
X104457Y158023D01*
X104488Y157946D01*
Y157931D01*
Y157915D01*
Y150523D01*
Y150415D01*
X104473Y150338D01*
X104411Y150200D01*
X104365Y150138D01*
X104350Y150108D01*
X104242Y150046D01*
X104135Y150015D01*
X104042Y150000D01*
X100277D01*
X100200Y150015D01*
X100169Y150031D01*
X100138Y150062D01*
X100108Y150108D01*
X100092Y150138D01*
Y150154D01*
X100077Y150231D01*
X100062Y150292D01*
X100046Y150354D01*
Y150369D01*
X100031Y150476D01*
X100016Y150584D01*
Y150661D01*
Y150676D01*
Y150692D01*
Y150815D01*
X100031Y150922D01*
X100046Y150984D01*
Y150999D01*
X100062Y151091D01*
X100077Y151153D01*
X100092Y151199D01*
Y151214D01*
X100123Y151260D01*
X100138Y151291D01*
X100154Y151322D01*
X100169D01*
X100200Y151353D01*
X100246Y151368D01*
X102828D01*
Y157915D01*
Y157962D01*
X102844Y157992D01*
X102859Y158023D01*
X102874D01*
X102920Y158069D01*
X102967Y158100D01*
X102997Y158115D01*
X103013D01*
X103090Y158131D01*
X103182Y158146D01*
X103243Y158161D01*
X103274D01*
X103397Y158177D01*
X103520Y158192D01*
X103827D01*
X103950Y158177D01*
D02*
G37*
G36*
X93130Y156025D02*
X93145Y156010D01*
X93161Y155994D01*
X93191Y155964D01*
X93222Y155933D01*
X93237Y155902D01*
Y155887D01*
X93253Y155825D01*
X93268Y155779D01*
X93283Y155718D01*
Y155702D01*
X93299Y155610D01*
Y155502D01*
Y155426D01*
Y155410D01*
Y155395D01*
Y155272D01*
X93283Y155180D01*
Y155087D01*
X93268Y155026D01*
X93253Y154964D01*
Y154934D01*
X93237Y154903D01*
X93176Y154826D01*
X93115Y154780D01*
X93053Y154765D01*
X91040D01*
X93145Y151522D01*
X93191Y151445D01*
X93237Y151383D01*
X93268Y151337D01*
X93283Y151322D01*
X93314Y151260D01*
X93345Y151199D01*
X93360Y151153D01*
Y151137D01*
X93376Y151030D01*
X93391Y150984D01*
Y150968D01*
Y150891D01*
Y150830D01*
Y150784D01*
Y150768D01*
Y150476D01*
X93376Y150307D01*
X93345Y150200D01*
X93330Y150123D01*
X93314Y150108D01*
X93237Y150046D01*
X93145Y150015D01*
X93084Y150000D01*
X89380D01*
X89303Y150015D01*
X89272D01*
X89226Y150046D01*
X89195Y150077D01*
X89180Y150108D01*
Y150123D01*
X89164Y150184D01*
X89149Y150246D01*
X89134Y150307D01*
Y150323D01*
X89118Y150430D01*
X89103Y150538D01*
Y150615D01*
Y150630D01*
Y150645D01*
Y150768D01*
X89118Y150876D01*
X89134Y150938D01*
Y150953D01*
X89149Y151030D01*
X89164Y151091D01*
X89180Y151122D01*
Y151137D01*
X89210Y151183D01*
X89241Y151214D01*
X89257Y151245D01*
X89272D01*
X89349Y151276D01*
X91578D01*
X89503Y154503D01*
X89456Y154565D01*
X89426Y154626D01*
X89395Y154673D01*
Y154688D01*
X89349Y154749D01*
X89333Y154811D01*
X89318Y154841D01*
Y154857D01*
X89303Y154918D01*
X89287Y154980D01*
X89272Y155026D01*
Y155041D01*
X89257Y155118D01*
Y155195D01*
Y155256D01*
Y155272D01*
Y155579D01*
Y155672D01*
X89272Y155733D01*
X89287Y155779D01*
Y155795D01*
X89303Y155856D01*
X89318Y155902D01*
X89333Y155917D01*
X89349Y155933D01*
X89380Y155979D01*
X89426Y155994D01*
X89441Y156010D01*
X89456D01*
X89549Y156040D01*
X93084D01*
X93130Y156025D01*
D02*
G37*
G36*
X77278Y141050D02*
X77355D01*
X77378Y141042D01*
X77432D01*
X77439Y141035D01*
X77447D01*
X77478Y141019D01*
X77486Y141012D01*
X78361Y140443D01*
X78407Y140413D01*
X78415Y140405D01*
X78422Y140397D01*
X78446Y140359D01*
X78453Y140344D01*
Y140336D01*
X78469Y140290D01*
Y140267D01*
Y140259D01*
Y140221D01*
Y140182D01*
Y140152D01*
Y140136D01*
Y140052D01*
X78461Y139998D01*
Y139960D01*
Y139944D01*
X78453Y139906D01*
X78446Y139875D01*
X78430Y139860D01*
Y139852D01*
X78407Y139837D01*
X78353D01*
X78315Y139844D01*
X78276Y139860D01*
X78246Y139875D01*
X78238Y139883D01*
X77578Y140244D01*
Y137594D01*
X78361D01*
X78376Y137586D01*
X78384Y137579D01*
X78392Y137571D01*
X78407Y137556D01*
X78422Y137540D01*
X78430Y137525D01*
Y137517D01*
X78438Y137487D01*
X78446Y137456D01*
X78453Y137425D01*
Y137417D01*
X78461Y137371D01*
Y137318D01*
Y137279D01*
Y137272D01*
Y137264D01*
Y137203D01*
X78453Y137156D01*
Y137126D01*
Y137118D01*
X78446Y137080D01*
X78438Y137049D01*
X78430Y137026D01*
Y137018D01*
X78407Y136987D01*
X78392Y136972D01*
X78361Y136957D01*
X76095D01*
X76057Y136964D01*
X76042Y136972D01*
X76011Y137003D01*
X76003Y137011D01*
Y137018D01*
X75995Y137049D01*
X75988Y137080D01*
X75980Y137110D01*
Y137118D01*
X75972Y137164D01*
X75965Y137218D01*
Y137249D01*
Y137264D01*
Y137325D01*
X75972Y137379D01*
X75980Y137410D01*
Y137417D01*
X75988Y137456D01*
X75995Y137494D01*
X76003Y137510D01*
Y137517D01*
X76019Y137540D01*
X76026Y137556D01*
X76034Y137571D01*
X76042D01*
X76057Y137586D01*
X76080Y137594D01*
X76756D01*
Y140958D01*
X76763Y140989D01*
X76771Y140996D01*
X76787Y141012D01*
X76802Y141019D01*
X76817Y141027D01*
X76825D01*
X76856Y141035D01*
X76894Y141042D01*
X76925Y141050D01*
X76940D01*
X77002Y141058D01*
X77240D01*
X77278Y141050D01*
D02*
G37*
G36*
X67893Y140044D02*
X67955D01*
X68008Y140036D01*
X68054Y140029D01*
X68093D01*
X68116Y140021D01*
X68124D01*
X68246Y139998D01*
X68300Y139983D01*
X68354Y139975D01*
X68392Y139960D01*
X68423Y139952D01*
X68438Y139944D01*
X68446D01*
X68546Y139906D01*
X68630Y139875D01*
X68661Y139867D01*
X68684Y139852D01*
X68700Y139844D01*
X68707D01*
X68776Y139806D01*
X68822Y139775D01*
X68853Y139752D01*
X68861Y139745D01*
X68884Y139706D01*
X68899Y139675D01*
X68915Y139645D01*
Y139637D01*
X68922Y139591D01*
X68930Y139537D01*
Y139499D01*
Y139491D01*
Y139483D01*
Y139437D01*
X68922Y139391D01*
Y139360D01*
Y139353D01*
X68915Y139307D01*
X68907Y139276D01*
X68899Y139253D01*
Y139245D01*
X68876Y139199D01*
X68861Y139192D01*
Y139184D01*
X68815Y139169D01*
X68792D01*
X68746Y139176D01*
X68707Y139192D01*
X68677Y139199D01*
X68661Y139207D01*
X68600Y139245D01*
X68531Y139276D01*
X68484Y139299D01*
X68469Y139307D01*
X68462D01*
X68369Y139345D01*
X68277Y139376D01*
X68239Y139391D01*
X68208Y139399D01*
X68193Y139407D01*
X68185D01*
X68062Y139437D01*
X67947Y139445D01*
X67901Y139453D01*
X67832D01*
X67724Y139445D01*
X67647Y139437D01*
X67617Y139430D01*
X67594Y139422D01*
X67586Y139414D01*
X67578D01*
X67509Y139384D01*
X67455Y139353D01*
X67417Y139330D01*
X67409Y139314D01*
X67371Y139261D01*
X67340Y139215D01*
X67333Y139169D01*
X67325Y139161D01*
Y139153D01*
X67309Y139076D01*
X67294Y139000D01*
Y138969D01*
Y138946D01*
Y138930D01*
Y138923D01*
Y138754D01*
X67709D01*
X67832Y138746D01*
X67947Y138739D01*
X68039Y138723D01*
X68124Y138715D01*
X68177Y138700D01*
X68216Y138692D01*
X68231D01*
X68331Y138669D01*
X68423Y138639D01*
X68507Y138616D01*
X68577Y138585D01*
X68630Y138554D01*
X68669Y138539D01*
X68700Y138523D01*
X68707Y138516D01*
X68769Y138470D01*
X68830Y138424D01*
X68876Y138370D01*
X68915Y138324D01*
X68953Y138278D01*
X68976Y138247D01*
X68984Y138224D01*
X68991Y138216D01*
X69022Y138147D01*
X69045Y138078D01*
X69060Y138009D01*
X69068Y137940D01*
X69076Y137878D01*
X69083Y137832D01*
Y137802D01*
Y137794D01*
Y137717D01*
X69076Y137640D01*
X69060Y137571D01*
X69045Y137517D01*
X69037Y137471D01*
X69022Y137433D01*
X69014Y137410D01*
Y137402D01*
X68945Y137287D01*
X68915Y137241D01*
X68876Y137195D01*
X68845Y137164D01*
X68822Y137141D01*
X68807Y137126D01*
X68799Y137118D01*
X68692Y137041D01*
X68584Y136987D01*
X68546Y136972D01*
X68507Y136957D01*
X68484Y136949D01*
X68477D01*
X68331Y136911D01*
X68262Y136903D01*
X68200Y136895D01*
X68139Y136888D01*
X68062D01*
X67962Y136895D01*
X67870Y136903D01*
X67786Y136918D01*
X67716Y136941D01*
X67655Y136957D01*
X67609Y136972D01*
X67578Y136980D01*
X67571Y136987D01*
X67486Y137033D01*
X67417Y137080D01*
X67348Y137126D01*
X67294Y137172D01*
X67240Y137218D01*
X67210Y137249D01*
X67187Y137272D01*
X67179Y137279D01*
Y137057D01*
X67171Y137026D01*
X67163Y137003D01*
X67156Y136987D01*
Y136980D01*
X67125Y136964D01*
X67094Y136957D01*
X67071Y136949D01*
X67064D01*
X67002Y136941D01*
X66764D01*
X66703Y136949D01*
X66657D01*
X66611Y136957D01*
X66580Y136964D01*
X66565Y136980D01*
X66557D01*
X66534Y137003D01*
X66526Y137033D01*
X66518Y137049D01*
Y137057D01*
Y138938D01*
Y139046D01*
X66534Y139138D01*
X66541Y139222D01*
X66557Y139299D01*
X66572Y139353D01*
X66580Y139399D01*
X66595Y139430D01*
Y139437D01*
X66626Y139514D01*
X66657Y139583D01*
X66695Y139645D01*
X66733Y139691D01*
X66764Y139729D01*
X66795Y139760D01*
X66810Y139775D01*
X66818Y139783D01*
X66879Y139829D01*
X66941Y139875D01*
X67064Y139937D01*
X67118Y139960D01*
X67163Y139975D01*
X67194Y139983D01*
X67202D01*
X67294Y140006D01*
X67386Y140021D01*
X67478Y140036D01*
X67571Y140044D01*
X67647Y140052D01*
X67763D01*
X67893Y140044D01*
D02*
G37*
G36*
X70189Y141219D02*
X70266Y141211D01*
X70328Y141196D01*
X70374Y141181D01*
X70412Y141158D01*
X70435Y141142D01*
X70451Y141135D01*
X70458Y141127D01*
X70489Y141089D01*
X70512Y141035D01*
X70535Y140927D01*
X70543Y140874D01*
X70550Y140835D01*
Y140804D01*
Y140797D01*
X70543Y140720D01*
X70535Y140651D01*
X70520Y140597D01*
X70504Y140551D01*
X70489Y140520D01*
X70474Y140497D01*
X70458Y140489D01*
Y140482D01*
X70420Y140451D01*
X70366Y140436D01*
X70243Y140405D01*
X70189D01*
X70143Y140397D01*
X70097D01*
X70005Y140405D01*
X69928Y140413D01*
X69867Y140428D01*
X69821Y140443D01*
X69782Y140459D01*
X69759Y140466D01*
X69744Y140482D01*
X69736D01*
X69706Y140520D01*
X69675Y140574D01*
X69652Y140682D01*
X69644Y140735D01*
X69636Y140774D01*
Y140804D01*
Y140812D01*
X69644Y140889D01*
X69652Y140958D01*
X69667Y141019D01*
X69683Y141058D01*
X69706Y141096D01*
X69721Y141119D01*
X69729Y141127D01*
X69736Y141135D01*
X69775Y141165D01*
X69828Y141188D01*
X69951Y141219D01*
X70005D01*
X70051Y141227D01*
X70097D01*
X70189Y141219D01*
D02*
G37*
G36*
X84029Y141096D02*
X84098Y141089D01*
X84152D01*
X84206Y141081D01*
X84244Y141073D01*
X84267Y141066D01*
X84275D01*
X84405Y141035D01*
X84459Y141019D01*
X84513Y141004D01*
X84551Y140996D01*
X84582Y140981D01*
X84605Y140973D01*
X84613D01*
X84720Y140935D01*
X84797Y140897D01*
X84828Y140881D01*
X84851Y140866D01*
X84866Y140858D01*
X84874D01*
X84935Y140820D01*
X84981Y140789D01*
X85012Y140774D01*
X85019Y140766D01*
X85043Y140743D01*
X85058Y140720D01*
X85073Y140705D01*
Y140697D01*
X85089Y140658D01*
X85096Y140643D01*
Y140635D01*
X85104Y140582D01*
X85112Y140559D01*
Y140551D01*
Y140513D01*
Y140474D01*
Y140443D01*
Y140428D01*
Y140351D01*
X85104Y140297D01*
Y140259D01*
Y140244D01*
X85096Y140198D01*
Y140159D01*
X85089Y140136D01*
Y140129D01*
X85073Y140098D01*
X85066Y140083D01*
X85058Y140067D01*
X85019Y140052D01*
X85004D01*
X84974Y140059D01*
X84935Y140075D01*
X84904Y140090D01*
X84897Y140098D01*
X84835Y140136D01*
X84774Y140167D01*
X84728Y140190D01*
X84720Y140198D01*
X84712D01*
X84620Y140244D01*
X84543Y140275D01*
X84505Y140290D01*
X84482Y140297D01*
X84467Y140305D01*
X84459D01*
X84344Y140336D01*
X84236Y140351D01*
X84198Y140359D01*
X84129D01*
X84036Y140351D01*
X83960Y140336D01*
X83914Y140321D01*
X83906Y140313D01*
X83898D01*
X83829Y140282D01*
X83783Y140244D01*
X83745Y140221D01*
X83737Y140205D01*
X83691Y140152D01*
X83660Y140098D01*
X83645Y140059D01*
X83637Y140052D01*
Y140044D01*
X83614Y139975D01*
X83606Y139913D01*
X83599Y139860D01*
Y139852D01*
Y139844D01*
X83606Y139760D01*
X83614Y139683D01*
X83622Y139652D01*
Y139629D01*
X83630Y139614D01*
Y139606D01*
X83653Y139514D01*
X83691Y139422D01*
X83706Y139384D01*
X83714Y139353D01*
X83729Y139338D01*
Y139330D01*
X83791Y139215D01*
X83852Y139107D01*
X83883Y139069D01*
X83906Y139030D01*
X83921Y139007D01*
X83929Y139000D01*
X83983Y138930D01*
X84036Y138861D01*
X84098Y138792D01*
X84152Y138731D01*
X84198Y138677D01*
X84236Y138639D01*
X84267Y138608D01*
X84275Y138600D01*
X84981Y137840D01*
X85019Y137794D01*
X85050Y137755D01*
X85073Y137725D01*
X85081Y137717D01*
X85104Y137679D01*
X85127Y137640D01*
X85142Y137610D01*
X85150Y137602D01*
X85166Y137556D01*
X85173Y137517D01*
X85181Y137487D01*
Y137471D01*
X85189Y137417D01*
Y137356D01*
Y137310D01*
Y137302D01*
Y137295D01*
Y137225D01*
X85181Y137164D01*
Y137133D01*
Y137118D01*
X85166Y137072D01*
X85150Y137041D01*
X85142Y137018D01*
X85135Y137011D01*
X85112Y136987D01*
X85081Y136980D01*
X85058Y136964D01*
X85050D01*
X85012Y136957D01*
X82585D01*
X82547Y136964D01*
X82531Y136972D01*
X82516Y136987D01*
X82500Y137003D01*
X82493Y137018D01*
Y137026D01*
X82485Y137064D01*
X82477Y137095D01*
X82470Y137126D01*
Y137133D01*
X82462Y137187D01*
X82454Y137233D01*
Y137272D01*
Y137287D01*
Y137348D01*
X82462Y137402D01*
X82470Y137433D01*
Y137441D01*
X82477Y137479D01*
X82485Y137517D01*
X82493Y137533D01*
X82500Y137540D01*
X82516Y137571D01*
X82531Y137586D01*
X82539Y137602D01*
X82547D01*
X82562Y137617D01*
X82585Y137625D01*
X84206D01*
X83729Y138109D01*
X83599Y138239D01*
X83483Y138362D01*
X83391Y138470D01*
X83307Y138562D01*
X83238Y138631D01*
X83192Y138692D01*
X83161Y138723D01*
X83153Y138739D01*
X83077Y138838D01*
X83007Y138930D01*
X82954Y139015D01*
X82900Y139084D01*
X82869Y139146D01*
X82838Y139192D01*
X82823Y139222D01*
X82815Y139230D01*
X82769Y139314D01*
X82739Y139391D01*
X82708Y139460D01*
X82685Y139522D01*
X82670Y139576D01*
X82662Y139614D01*
X82654Y139637D01*
Y139645D01*
X82631Y139791D01*
X82623Y139852D01*
Y139913D01*
X82616Y139960D01*
Y140006D01*
Y140029D01*
Y140036D01*
Y140121D01*
X82631Y140198D01*
X82639Y140267D01*
X82654Y140328D01*
X82670Y140382D01*
X82685Y140420D01*
X82692Y140443D01*
X82700Y140451D01*
X82731Y140520D01*
X82769Y140589D01*
X82808Y140651D01*
X82846Y140697D01*
X82885Y140743D01*
X82915Y140774D01*
X82931Y140789D01*
X82938Y140797D01*
X83000Y140850D01*
X83061Y140897D01*
X83192Y140966D01*
X83245Y140989D01*
X83292Y141004D01*
X83322Y141019D01*
X83330D01*
X83422Y141050D01*
X83514Y141066D01*
X83606Y141081D01*
X83699Y141096D01*
X83768D01*
X83829Y141104D01*
X83883D01*
X84029Y141096D01*
D02*
G37*
G36*
X177165Y37402D02*
D01*
X177165Y19685D01*
X194882Y19685D01*
X194882Y18524D01*
X194579Y16221D01*
X193978Y13978D01*
X193089Y11832D01*
X191928Y9821D01*
X190514Y7979D01*
X188872Y6336D01*
X187029Y4923D01*
X185018Y3761D01*
X182872Y2873D01*
X180629Y2272D01*
X178326Y1969D01*
X177165Y1969D01*
X177165D01*
X177165Y19685D01*
X159449D01*
X159449Y20846D01*
X159752Y23149D01*
X160353Y25392D01*
X161242Y27538D01*
X162403Y29549D01*
X163817Y31391D01*
X165459Y33034D01*
X167301Y34447D01*
X169313Y35609D01*
X171458Y36497D01*
X173702Y37099D01*
X176004Y37402D01*
X177165Y37402D01*
Y37402D01*
Y37402D01*
D02*
G37*
G36*
X19685D02*
D01*
X19685Y19685D01*
X37402Y19685D01*
X37402Y18524D01*
X37098Y16221D01*
X36497Y13978D01*
X35609Y11832D01*
X34447Y9821D01*
X33034Y7979D01*
X31391Y6336D01*
X29549Y4923D01*
X27538Y3761D01*
X25392Y2873D01*
X23149Y2272D01*
X20846Y1969D01*
X19685Y1969D01*
X19685D01*
X19685Y19685D01*
X1969D01*
X1969Y20846D01*
X2272Y23149D01*
X2873Y25392D01*
X3761Y27538D01*
X4923Y29549D01*
X6336Y31391D01*
X7979Y33034D01*
X9821Y34447D01*
X11832Y35609D01*
X13978Y36497D01*
X16221Y37099D01*
X18524Y37402D01*
X19685Y37402D01*
Y37402D01*
Y37402D01*
D02*
G37*
G36*
X177165Y273622D02*
D01*
X177165Y255906D01*
X194882Y255906D01*
X194882Y254744D01*
X194579Y252442D01*
X193978Y250199D01*
X193089Y248053D01*
X191928Y246042D01*
X190514Y244199D01*
X188872Y242557D01*
X187029Y241143D01*
X185018Y239982D01*
X182872Y239093D01*
X180629Y238492D01*
X178326Y238189D01*
X177165Y238189D01*
X177165D01*
X177165Y255906D01*
X159449D01*
X159449Y257067D01*
X159752Y259369D01*
X160353Y261613D01*
X161242Y263758D01*
X162403Y265769D01*
X163817Y267612D01*
X165459Y269254D01*
X167301Y270668D01*
X169313Y271829D01*
X171458Y272718D01*
X173702Y273319D01*
X176004Y273622D01*
X177165Y273622D01*
Y273622D01*
Y273622D01*
D02*
G37*
G36*
X19685D02*
D01*
X19685Y255906D01*
X37402Y255906D01*
X37402Y254744D01*
X37098Y252442D01*
X36497Y250199D01*
X35609Y248053D01*
X34447Y246042D01*
X33034Y244199D01*
X31391Y242557D01*
X29549Y241143D01*
X27538Y239982D01*
X25392Y239093D01*
X23149Y238492D01*
X20846Y238189D01*
X19685Y238189D01*
X19685D01*
X19685Y255906D01*
X1969D01*
X1969Y257067D01*
X2272Y259369D01*
X2873Y261613D01*
X3761Y263758D01*
X4923Y265769D01*
X6336Y267612D01*
X7979Y269254D01*
X9821Y270668D01*
X11832Y271829D01*
X13978Y272718D01*
X16221Y273319D01*
X18524Y273622D01*
X19685Y273622D01*
Y273622D01*
Y273622D01*
D02*
G37*
G36*
X99355Y156071D02*
X99401D01*
X99447Y156056D01*
X99478D01*
X99585Y156025D01*
X99662Y155994D01*
X99708Y155979D01*
X99724Y155964D01*
X99770Y155902D01*
X99785Y155856D01*
X99800Y155795D01*
Y155779D01*
X99785Y155672D01*
X99754Y155564D01*
X99739Y155472D01*
X99724Y155456D01*
Y155441D01*
X97787Y150277D01*
X97756Y150215D01*
X97725Y150154D01*
X97710Y150123D01*
X97695Y150108D01*
X97633Y150062D01*
X97587Y150031D01*
X97556Y150000D01*
X97541D01*
X98279Y148125D01*
X98309Y148048D01*
X98325Y147986D01*
Y147956D01*
Y147940D01*
X98309Y147894D01*
X98279Y147848D01*
X98263Y147833D01*
X98248Y147817D01*
X98187Y147787D01*
X98110Y147756D01*
X98048Y147741D01*
X98018D01*
X97895Y147725D01*
X97756Y147710D01*
X97449D01*
X97295Y147725D01*
X97172Y147741D01*
X97065Y147756D01*
X96988D01*
X96926Y147771D01*
X96895Y147787D01*
X96880D01*
X96788Y147817D01*
X96726Y147848D01*
X96665Y147894D01*
X96619Y147925D01*
X96573Y147986D01*
X96557Y148017D01*
X95896Y150000D01*
X94021Y155502D01*
X93990Y155610D01*
X93975Y155687D01*
Y155748D01*
Y155764D01*
X93990Y155841D01*
X94021Y155902D01*
X94052Y155933D01*
X94067Y155948D01*
X94144Y155994D01*
X94221Y156025D01*
X94298Y156056D01*
X94329D01*
X94467Y156071D01*
X94621Y156087D01*
X95005D01*
X95082Y156071D01*
X95205D01*
X95236Y156056D01*
X95266D01*
X95359Y156025D01*
X95420Y155994D01*
X95451Y155979D01*
X95466Y155964D01*
X95512Y155917D01*
X95527Y155841D01*
X95558Y155795D01*
Y155764D01*
X96757Y151921D01*
X96772D01*
X98110Y155687D01*
X98140Y155779D01*
X98171Y155841D01*
X98187Y155887D01*
X98202Y155902D01*
X98248Y155948D01*
X98294Y155979D01*
X98325Y156010D01*
X98340D01*
X98402Y156040D01*
X98479Y156056D01*
X98540Y156071D01*
X98571D01*
X98709Y156087D01*
X99201D01*
X99355Y156071D01*
D02*
G37*
G36*
X78866D02*
X78897D01*
X79005Y156056D01*
X79082Y156040D01*
X79128Y156025D01*
X79143D01*
X79235Y155979D01*
X79251Y155964D01*
X79266Y155948D01*
X79297Y155871D01*
Y155856D01*
Y155841D01*
Y155779D01*
Y155764D01*
Y155748D01*
Y155702D01*
X79282Y155656D01*
Y155610D01*
Y155595D01*
X79251Y155518D01*
X79235Y155456D01*
X79205Y155395D01*
Y155379D01*
X77514Y150307D01*
X77483Y150231D01*
X77468Y150169D01*
X77437Y150138D01*
Y150123D01*
X77391Y150077D01*
X77329Y150062D01*
X77283Y150031D01*
X77268D01*
X77160Y150015D01*
X77053Y150000D01*
X76961Y149985D01*
X76930D01*
X76745Y149969D01*
X76054D01*
X75977Y149985D01*
X75839D01*
X75700Y150000D01*
X75593Y150015D01*
X75516Y150031D01*
X75500D01*
X75424Y150062D01*
X75362Y150092D01*
X75347Y150108D01*
X75331Y150123D01*
X75254Y150246D01*
X75239Y150292D01*
Y150307D01*
X73549Y155379D01*
X73533Y155441D01*
Y155487D01*
X73518Y155518D01*
Y155533D01*
X73502Y155625D01*
X73487Y155641D01*
Y155656D01*
X73472Y155733D01*
Y155748D01*
Y155810D01*
Y155841D01*
X73487Y155917D01*
X73502Y155948D01*
X73533Y155979D01*
X73579Y156010D01*
X73610Y156025D01*
X73625D01*
X73687Y156040D01*
X73764Y156056D01*
X73825Y156071D01*
X73856D01*
X73979Y156087D01*
X74394D01*
X74517Y156071D01*
X74594Y156056D01*
X74624D01*
X74717Y156040D01*
X74793Y156025D01*
X74840Y156010D01*
X74855D01*
X74901Y155994D01*
X74947Y155964D01*
X74963Y155948D01*
X74978Y155933D01*
X75024Y155856D01*
X75039Y155825D01*
Y155810D01*
X76300Y151691D01*
X76330Y151522D01*
X76361Y151691D01*
X77652Y155810D01*
X77698Y155902D01*
X77714Y155917D01*
X77729Y155933D01*
X77760Y155979D01*
X77806Y155994D01*
X77837Y156010D01*
X77852D01*
X77929Y156025D01*
X78006Y156040D01*
X78067Y156056D01*
X78098D01*
X78221Y156071D01*
X78359Y156087D01*
X78790D01*
X78866Y156071D01*
D02*
G37*
G36*
X60023Y158192D02*
X60176D01*
X60223Y158177D01*
X60330D01*
X60346Y158161D01*
X60361D01*
X60422Y158131D01*
X60438Y158115D01*
X62190Y156978D01*
X62282Y156916D01*
X62298Y156901D01*
X62313Y156886D01*
X62359Y156809D01*
X62375Y156778D01*
Y156763D01*
X62405Y156671D01*
Y156624D01*
Y156609D01*
Y156532D01*
Y156455D01*
Y156394D01*
Y156363D01*
Y156194D01*
X62390Y156087D01*
Y156010D01*
Y155979D01*
X62375Y155902D01*
X62359Y155841D01*
X62328Y155810D01*
Y155795D01*
X62282Y155764D01*
X62175D01*
X62098Y155779D01*
X62021Y155810D01*
X61959Y155841D01*
X61944Y155856D01*
X60622Y156578D01*
Y151276D01*
X62190D01*
X62221Y151260D01*
X62236Y151245D01*
X62252Y151230D01*
X62282Y151199D01*
X62313Y151168D01*
X62328Y151137D01*
Y151122D01*
X62344Y151060D01*
X62359Y150999D01*
X62375Y150938D01*
Y150922D01*
X62390Y150830D01*
Y150722D01*
Y150645D01*
Y150630D01*
Y150615D01*
Y150492D01*
X62375Y150400D01*
Y150338D01*
Y150323D01*
X62359Y150246D01*
X62344Y150184D01*
X62328Y150138D01*
Y150123D01*
X62282Y150062D01*
X62252Y150031D01*
X62190Y150000D01*
X57656D01*
X57579Y150015D01*
X57548Y150031D01*
X57487Y150092D01*
X57471Y150108D01*
Y150123D01*
X57456Y150184D01*
X57441Y150246D01*
X57425Y150307D01*
Y150323D01*
X57410Y150415D01*
X57395Y150523D01*
Y150584D01*
Y150615D01*
Y150738D01*
X57410Y150845D01*
X57425Y150907D01*
Y150922D01*
X57441Y150999D01*
X57456Y151076D01*
X57471Y151107D01*
Y151122D01*
X57502Y151168D01*
X57517Y151199D01*
X57533Y151230D01*
X57548D01*
X57579Y151260D01*
X57625Y151276D01*
X58978D01*
Y158008D01*
X58993Y158069D01*
X59008Y158085D01*
X59039Y158115D01*
X59070Y158131D01*
X59101Y158146D01*
X59116D01*
X59178Y158161D01*
X59254Y158177D01*
X59316Y158192D01*
X59347D01*
X59469Y158208D01*
X59946D01*
X60023Y158192D01*
D02*
G37*
G36*
X85875Y156179D02*
X85998D01*
X86106Y156163D01*
X86198Y156148D01*
X86275D01*
X86321Y156133D01*
X86336D01*
X86582Y156087D01*
X86690Y156056D01*
X86797Y156040D01*
X86874Y156010D01*
X86936Y155994D01*
X86967Y155979D01*
X86982D01*
X87182Y155902D01*
X87351Y155841D01*
X87412Y155825D01*
X87458Y155795D01*
X87489Y155779D01*
X87504D01*
X87643Y155702D01*
X87735Y155641D01*
X87796Y155595D01*
X87812Y155579D01*
X87858Y155502D01*
X87889Y155441D01*
X87919Y155379D01*
Y155364D01*
X87935Y155272D01*
X87950Y155164D01*
Y155087D01*
Y155072D01*
Y155057D01*
Y154964D01*
X87935Y154872D01*
Y154811D01*
Y154795D01*
X87919Y154703D01*
X87904Y154642D01*
X87889Y154596D01*
Y154580D01*
X87843Y154488D01*
X87812Y154473D01*
Y154457D01*
X87720Y154427D01*
X87673D01*
X87581Y154442D01*
X87504Y154473D01*
X87443Y154488D01*
X87412Y154503D01*
X87289Y154580D01*
X87151Y154642D01*
X87059Y154688D01*
X87028Y154703D01*
X87013D01*
X86828Y154780D01*
X86644Y154841D01*
X86567Y154872D01*
X86505Y154888D01*
X86475Y154903D01*
X86459D01*
X86213Y154964D01*
X85983Y154980D01*
X85891Y154995D01*
X85752D01*
X85537Y154980D01*
X85383Y154964D01*
X85322Y154949D01*
X85276Y154934D01*
X85260Y154918D01*
X85245D01*
X85107Y154857D01*
X84999Y154795D01*
X84922Y154749D01*
X84907Y154719D01*
X84830Y154611D01*
X84769Y154519D01*
X84753Y154427D01*
X84738Y154411D01*
Y154396D01*
X84707Y154242D01*
X84676Y154088D01*
Y154027D01*
Y153981D01*
Y153950D01*
Y153935D01*
Y153597D01*
X85506D01*
X85752Y153581D01*
X85983Y153566D01*
X86167Y153535D01*
X86336Y153520D01*
X86444Y153489D01*
X86521Y153474D01*
X86551D01*
X86751Y153428D01*
X86936Y153366D01*
X87105Y153320D01*
X87243Y153258D01*
X87351Y153197D01*
X87428Y153166D01*
X87489Y153136D01*
X87504Y153120D01*
X87627Y153028D01*
X87750Y152936D01*
X87843Y152828D01*
X87919Y152736D01*
X87996Y152644D01*
X88042Y152582D01*
X88058Y152536D01*
X88073Y152521D01*
X88135Y152382D01*
X88181Y152244D01*
X88211Y152106D01*
X88227Y151967D01*
X88242Y151844D01*
X88257Y151752D01*
Y151691D01*
Y151675D01*
Y151522D01*
X88242Y151368D01*
X88211Y151230D01*
X88181Y151122D01*
X88165Y151030D01*
X88135Y150953D01*
X88119Y150907D01*
Y150891D01*
X87981Y150661D01*
X87919Y150569D01*
X87843Y150476D01*
X87781Y150415D01*
X87735Y150369D01*
X87704Y150338D01*
X87689Y150323D01*
X87474Y150169D01*
X87258Y150062D01*
X87182Y150031D01*
X87105Y150000D01*
X87059Y149985D01*
X87043D01*
X86751Y149908D01*
X86613Y149892D01*
X86490Y149877D01*
X86367Y149862D01*
X86213D01*
X86014Y149877D01*
X85829Y149892D01*
X85660Y149923D01*
X85522Y149969D01*
X85399Y150000D01*
X85307Y150031D01*
X85245Y150046D01*
X85230Y150062D01*
X85061Y150154D01*
X84922Y150246D01*
X84784Y150338D01*
X84676Y150430D01*
X84569Y150523D01*
X84507Y150584D01*
X84461Y150630D01*
X84446Y150645D01*
Y150200D01*
X84430Y150138D01*
X84415Y150092D01*
X84400Y150062D01*
Y150046D01*
X84338Y150015D01*
X84277Y150000D01*
X84231Y149985D01*
X84215D01*
X84092Y149969D01*
X83616D01*
X83493Y149985D01*
X83401D01*
X83308Y150000D01*
X83247Y150015D01*
X83216Y150046D01*
X83201D01*
X83155Y150092D01*
X83139Y150154D01*
X83124Y150184D01*
Y150200D01*
Y153965D01*
Y154181D01*
X83155Y154365D01*
X83170Y154534D01*
X83201Y154688D01*
X83232Y154795D01*
X83247Y154888D01*
X83278Y154949D01*
Y154964D01*
X83339Y155118D01*
X83401Y155256D01*
X83477Y155379D01*
X83554Y155472D01*
X83616Y155549D01*
X83677Y155610D01*
X83708Y155641D01*
X83723Y155656D01*
X83846Y155748D01*
X83969Y155841D01*
X84215Y155964D01*
X84323Y156010D01*
X84415Y156040D01*
X84477Y156056D01*
X84492D01*
X84676Y156102D01*
X84861Y156133D01*
X85045Y156163D01*
X85230Y156179D01*
X85383Y156194D01*
X85614D01*
X85875Y156179D01*
D02*
G37*
G36*
X64929Y140044D02*
X65005Y140029D01*
X65082Y140021D01*
X65136Y140006D01*
X65182Y139990D01*
X65213Y139983D01*
X65220D01*
X65366Y139921D01*
X65428Y139891D01*
X65482Y139860D01*
X65520Y139837D01*
X65551Y139814D01*
X65574Y139798D01*
X65582Y139791D01*
X65681Y139699D01*
X65750Y139606D01*
X65773Y139568D01*
X65789Y139537D01*
X65804Y139514D01*
Y139506D01*
X65850Y139376D01*
X65866Y139314D01*
X65873Y139261D01*
Y139207D01*
X65881Y139169D01*
Y139146D01*
Y139138D01*
X65873Y139000D01*
X65866Y138938D01*
X65850Y138892D01*
X65843Y138846D01*
X65835Y138815D01*
X65827Y138800D01*
Y138792D01*
X65773Y138700D01*
X65727Y138623D01*
X65704Y138593D01*
X65689Y138569D01*
X65674Y138562D01*
Y138554D01*
X65597Y138485D01*
X65528Y138431D01*
X65497Y138416D01*
X65482Y138400D01*
X65466Y138385D01*
X65459D01*
X65366Y138339D01*
X65282Y138301D01*
X65251Y138285D01*
X65228Y138270D01*
X65213Y138262D01*
X65205D01*
X65113Y138224D01*
X65036Y138193D01*
X65005Y138178D01*
X64982Y138170D01*
X64967Y138163D01*
X64959D01*
X64875Y138132D01*
X64806Y138101D01*
X64760Y138078D01*
X64752Y138070D01*
X64744D01*
X64675Y138032D01*
X64629Y137994D01*
X64591Y137970D01*
X64583Y137955D01*
X64545Y137901D01*
X64529Y137848D01*
X64522Y137809D01*
Y137802D01*
Y137794D01*
X64529Y137732D01*
X64537Y137686D01*
X64552Y137656D01*
X64560Y137648D01*
X64591Y137602D01*
X64614Y137571D01*
X64644Y137548D01*
X64652Y137540D01*
X64698Y137517D01*
X64744Y137494D01*
X64783Y137487D01*
X64790Y137479D01*
X64798D01*
X64859Y137471D01*
X64921Y137464D01*
X64982D01*
X65105Y137471D01*
X65159Y137479D01*
X65205Y137487D01*
X65236D01*
X65267Y137494D01*
X65282Y137502D01*
X65290D01*
X65382Y137533D01*
X65459Y137556D01*
X65489Y137571D01*
X65512Y137579D01*
X65520Y137586D01*
X65528D01*
X65597Y137617D01*
X65651Y137648D01*
X65681Y137663D01*
X65697Y137671D01*
X65735Y137702D01*
X65766Y137709D01*
X65789Y137717D01*
X65797D01*
X65835Y137709D01*
X65843Y137702D01*
X65850D01*
X65858Y137694D01*
X65873Y137679D01*
X65881Y137663D01*
Y137656D01*
X65889Y137633D01*
Y137602D01*
X65896Y137579D01*
Y137571D01*
Y137525D01*
Y137479D01*
Y137441D01*
Y137433D01*
Y137425D01*
Y137333D01*
X65889Y137272D01*
X65881Y137233D01*
Y137218D01*
X65866Y137172D01*
X65850Y137141D01*
X65843Y137118D01*
X65835Y137110D01*
X65804Y137087D01*
X65766Y137064D01*
X65735Y137049D01*
X65720Y137041D01*
X65658Y137018D01*
X65597Y136995D01*
X65543Y136980D01*
X65535Y136972D01*
X65528D01*
X65435Y136949D01*
X65359Y136934D01*
X65320Y136926D01*
X65297D01*
X65282Y136918D01*
X65274D01*
X65167Y136903D01*
X65067Y136895D01*
X65029Y136888D01*
X64875D01*
X64790Y136895D01*
X64706Y136911D01*
X64637Y136918D01*
X64575Y136934D01*
X64529Y136941D01*
X64499Y136949D01*
X64491D01*
X64406Y136972D01*
X64330Y137003D01*
X64268Y137026D01*
X64207Y137057D01*
X64161Y137087D01*
X64130Y137103D01*
X64107Y137118D01*
X64099Y137126D01*
X63992Y137225D01*
X63915Y137325D01*
X63884Y137371D01*
X63861Y137402D01*
X63854Y137425D01*
X63846Y137433D01*
X63815Y137502D01*
X63792Y137579D01*
X63777Y137648D01*
X63761Y137717D01*
Y137771D01*
X63754Y137817D01*
Y137848D01*
Y137855D01*
X63761Y137986D01*
X63769Y138047D01*
X63784Y138093D01*
X63792Y138132D01*
X63807Y138163D01*
X63815Y138178D01*
Y138186D01*
X63869Y138278D01*
X63915Y138355D01*
X63938Y138385D01*
X63961Y138408D01*
X63969Y138416D01*
X63976Y138424D01*
X64053Y138500D01*
X64122Y138554D01*
X64153Y138569D01*
X64176Y138585D01*
X64191Y138600D01*
X64199D01*
X64291Y138646D01*
X64368Y138685D01*
X64406Y138700D01*
X64429Y138708D01*
X64445Y138715D01*
X64452D01*
X64545Y138754D01*
X64622Y138785D01*
X64652Y138800D01*
X64675Y138808D01*
X64691Y138815D01*
X64698D01*
X64783Y138846D01*
X64852Y138877D01*
X64906Y138900D01*
X64913Y138907D01*
X64921D01*
X64990Y138946D01*
X65036Y138984D01*
X65075Y139015D01*
X65082Y139023D01*
X65113Y139076D01*
X65128Y139130D01*
X65136Y139176D01*
Y139184D01*
Y139192D01*
X65128Y139238D01*
X65121Y139276D01*
X65113Y139299D01*
Y139307D01*
X65090Y139345D01*
X65067Y139376D01*
X65052Y139391D01*
X65044Y139399D01*
X64998Y139430D01*
X64959Y139453D01*
X64929Y139460D01*
X64913Y139468D01*
X64844Y139483D01*
X64783Y139491D01*
X64721D01*
X64614Y139483D01*
X64529Y139476D01*
X64499Y139468D01*
X64476Y139460D01*
X64460Y139453D01*
X64452D01*
X64368Y139430D01*
X64307Y139407D01*
X64261Y139391D01*
X64253Y139384D01*
X64245D01*
X64184Y139360D01*
X64138Y139338D01*
X64107Y139322D01*
X64099Y139314D01*
X64061Y139299D01*
X64030Y139291D01*
X64015Y139284D01*
X64007D01*
X63976Y139291D01*
X63969D01*
X63953Y139299D01*
X63946Y139314D01*
X63938Y139322D01*
Y139330D01*
X63923Y139391D01*
X63915Y139414D01*
Y139422D01*
X63907Y139468D01*
Y139514D01*
Y139545D01*
Y139560D01*
Y139606D01*
Y139645D01*
X63915Y139668D01*
Y139675D01*
X63923Y139714D01*
Y139737D01*
X63930Y139752D01*
Y139760D01*
X63938Y139798D01*
X63946Y139814D01*
X63976Y139852D01*
X63984Y139867D01*
X63992D01*
X64015Y139883D01*
X64053Y139906D01*
X64076Y139913D01*
X64091Y139921D01*
X64145Y139944D01*
X64199Y139967D01*
X64245Y139975D01*
X64253Y139983D01*
X64261D01*
X64337Y140006D01*
X64406Y140021D01*
X64437D01*
X64460Y140029D01*
X64483D01*
X64575Y140044D01*
X64652Y140052D01*
X64837D01*
X64929Y140044D01*
D02*
G37*
G36*
X92431Y141427D02*
X92446D01*
X92484Y141419D01*
X92515Y141411D01*
X92538Y141403D01*
X92546D01*
X92592Y141388D01*
X92600Y141380D01*
X92607D01*
X92623Y141365D01*
Y141357D01*
X92738Y141112D01*
X92792Y141004D01*
X92830Y140897D01*
X92869Y140812D01*
X92892Y140751D01*
X92907Y140705D01*
X92915Y140697D01*
Y140689D01*
X92999Y140443D01*
X93037Y140336D01*
X93060Y140228D01*
X93091Y140144D01*
X93107Y140083D01*
X93114Y140036D01*
X93122Y140029D01*
Y140021D01*
X93176Y139775D01*
X93199Y139660D01*
X93222Y139552D01*
X93230Y139468D01*
X93245Y139399D01*
X93252Y139353D01*
Y139345D01*
Y139338D01*
X93268Y139207D01*
X93275Y139084D01*
X93283Y138969D01*
Y138861D01*
X93291Y138777D01*
Y138708D01*
Y138662D01*
Y138654D01*
Y138646D01*
Y138516D01*
X93283Y138385D01*
X93275Y138262D01*
X93268Y138155D01*
Y138070D01*
X93260Y138001D01*
X93252Y137955D01*
Y137947D01*
Y137940D01*
X93237Y137817D01*
X93214Y137694D01*
X93199Y137579D01*
X93176Y137479D01*
X93160Y137387D01*
X93145Y137325D01*
X93130Y137279D01*
Y137272D01*
Y137264D01*
X93099Y137141D01*
X93060Y137018D01*
X93030Y136903D01*
X92991Y136803D01*
X92968Y136719D01*
X92945Y136650D01*
X92930Y136611D01*
X92922Y136603D01*
Y136596D01*
X92876Y136473D01*
X92822Y136350D01*
X92776Y136242D01*
X92723Y136143D01*
X92684Y136058D01*
X92654Y135989D01*
X92630Y135951D01*
X92623Y135943D01*
Y135935D01*
X92607Y135912D01*
X92592Y135905D01*
X92554Y135881D01*
X92538Y135874D01*
X92531D01*
X92492Y135866D01*
X92462Y135859D01*
X92431Y135851D01*
X92423D01*
X92369Y135843D01*
X92185D01*
X92124Y135851D01*
X92093Y135859D01*
X92077D01*
X92031Y135874D01*
X91993Y135881D01*
X91978Y135897D01*
X91970D01*
X91947Y135920D01*
X91939Y135935D01*
X91931Y135951D01*
Y135958D01*
X91939Y136012D01*
X91947Y136035D01*
Y136043D01*
X92039Y136273D01*
X92116Y136504D01*
X92185Y136719D01*
X92246Y136911D01*
X92269Y136995D01*
X92285Y137072D01*
X92308Y137141D01*
X92323Y137203D01*
X92331Y137249D01*
X92339Y137279D01*
X92346Y137302D01*
Y137310D01*
X92392Y137556D01*
X92423Y137794D01*
X92446Y138017D01*
X92462Y138224D01*
X92469Y138316D01*
Y138393D01*
Y138470D01*
X92477Y138531D01*
Y138577D01*
Y138616D01*
Y138639D01*
Y138646D01*
X92469Y138900D01*
X92454Y139146D01*
X92438Y139376D01*
X92423Y139483D01*
X92408Y139576D01*
X92400Y139668D01*
X92385Y139745D01*
X92377Y139821D01*
X92369Y139875D01*
X92362Y139929D01*
X92354Y139960D01*
X92346Y139983D01*
Y139990D01*
X92292Y140236D01*
X92231Y140466D01*
X92162Y140682D01*
X92101Y140866D01*
X92070Y140950D01*
X92039Y141027D01*
X92016Y141096D01*
X91993Y141150D01*
X91970Y141196D01*
X91962Y141227D01*
X91947Y141250D01*
Y141258D01*
X91939Y141288D01*
Y141304D01*
Y141319D01*
Y141327D01*
X91947Y141350D01*
X91962Y141373D01*
X91978Y141380D01*
X91985Y141388D01*
X92016Y141403D01*
X92047Y141411D01*
X92077Y141419D01*
X92093D01*
X92154Y141427D01*
X92208Y141434D01*
X92400D01*
X92431Y141427D01*
D02*
G37*
G36*
X62018Y140044D02*
X62125Y140036D01*
X62233Y140013D01*
X62318Y139998D01*
X62394Y139975D01*
X62448Y139952D01*
X62479Y139944D01*
X62494Y139937D01*
X62594Y139891D01*
X62678Y139844D01*
X62755Y139791D01*
X62824Y139737D01*
X62878Y139691D01*
X62916Y139652D01*
X62940Y139622D01*
X62947Y139614D01*
X63009Y139530D01*
X63070Y139445D01*
X63116Y139360D01*
X63155Y139284D01*
X63193Y139215D01*
X63216Y139161D01*
X63224Y139122D01*
X63231Y139107D01*
X63262Y138992D01*
X63285Y138877D01*
X63301Y138761D01*
X63308Y138654D01*
X63316Y138569D01*
X63323Y138493D01*
Y138447D01*
Y138439D01*
Y138431D01*
X63316Y138293D01*
X63308Y138163D01*
X63293Y138040D01*
X63278Y137940D01*
X63262Y137863D01*
X63247Y137802D01*
X63231Y137763D01*
Y137748D01*
X63193Y137640D01*
X63147Y137548D01*
X63101Y137464D01*
X63055Y137394D01*
X63016Y137341D01*
X62986Y137302D01*
X62963Y137272D01*
X62955Y137264D01*
X62878Y137195D01*
X62801Y137141D01*
X62725Y137087D01*
X62648Y137049D01*
X62586Y137018D01*
X62533Y136995D01*
X62502Y136987D01*
X62486Y136980D01*
X62379Y136949D01*
X62264Y136926D01*
X62148Y136911D01*
X62049Y136903D01*
X61957Y136895D01*
X61887Y136888D01*
X61826D01*
X61680Y136895D01*
X61611D01*
X61550Y136903D01*
X61503Y136911D01*
X61465D01*
X61442Y136918D01*
X61434D01*
X61304Y136934D01*
X61250Y136949D01*
X61204Y136957D01*
X61165Y136964D01*
X61135D01*
X61119Y136972D01*
X61112D01*
X61012Y137003D01*
X60943Y137026D01*
X60897Y137041D01*
X60881Y137049D01*
X60827Y137072D01*
X60789Y137087D01*
X60774Y137103D01*
X60766D01*
X60743Y137133D01*
X60735Y137149D01*
X60720Y137187D01*
X60712Y137203D01*
Y137210D01*
X60705Y137264D01*
Y137287D01*
Y137295D01*
X60697Y137333D01*
Y137371D01*
Y137402D01*
Y137410D01*
Y137464D01*
Y137510D01*
X60705Y137533D01*
Y137540D01*
X60712Y137579D01*
X60720Y137602D01*
X60728Y137617D01*
Y137625D01*
X60735Y137648D01*
X60743Y137656D01*
X60751Y137663D01*
X60758D01*
X60789Y137679D01*
X60804D01*
X60843Y137671D01*
X60881Y137663D01*
X60912Y137656D01*
X60927Y137648D01*
X60989Y137625D01*
X61043Y137602D01*
X61089Y137586D01*
X61104Y137579D01*
X61112D01*
X61204Y137556D01*
X61296Y137533D01*
X61334Y137525D01*
X61357Y137517D01*
X61380Y137510D01*
X61388D01*
X61511Y137494D01*
X61626Y137487D01*
X61826D01*
X61895Y137494D01*
X61949Y137502D01*
X62003Y137510D01*
X62049Y137517D01*
X62079Y137525D01*
X62095Y137533D01*
X62102D01*
X62202Y137579D01*
X62279Y137633D01*
X62302Y137656D01*
X62325Y137671D01*
X62333Y137679D01*
X62340Y137686D01*
X62402Y137771D01*
X62440Y137855D01*
X62456Y137886D01*
X62471Y137917D01*
X62479Y137932D01*
Y137940D01*
X62502Y138055D01*
X62510Y138163D01*
X62517Y138201D01*
Y138239D01*
Y138262D01*
Y138270D01*
X60812D01*
X60735Y138278D01*
X60682Y138308D01*
X60643Y138331D01*
X60636Y138339D01*
X60597Y138400D01*
X60574Y138470D01*
X60566Y138500D01*
Y138523D01*
Y138539D01*
Y138547D01*
Y138677D01*
Y138785D01*
X60582Y138884D01*
X60589Y138977D01*
X60605Y139061D01*
X60620Y139130D01*
X60628Y139176D01*
X60643Y139215D01*
Y139222D01*
X60674Y139314D01*
X60712Y139399D01*
X60751Y139476D01*
X60789Y139537D01*
X60827Y139591D01*
X60858Y139629D01*
X60874Y139652D01*
X60881Y139660D01*
X60943Y139729D01*
X61012Y139783D01*
X61081Y139829D01*
X61150Y139875D01*
X61204Y139906D01*
X61250Y139929D01*
X61288Y139937D01*
X61296Y139944D01*
X61396Y139983D01*
X61496Y140006D01*
X61595Y140029D01*
X61688Y140036D01*
X61772Y140044D01*
X61834Y140052D01*
X61895D01*
X62018Y140044D01*
D02*
G37*
G36*
X80680Y141096D02*
X80811Y141081D01*
X80934Y141058D01*
X81034Y141027D01*
X81110Y140996D01*
X81172Y140973D01*
X81210Y140958D01*
X81226Y140950D01*
X81326Y140889D01*
X81418Y140820D01*
X81502Y140751D01*
X81564Y140682D01*
X81617Y140620D01*
X81663Y140574D01*
X81686Y140543D01*
X81694Y140528D01*
X81756Y140420D01*
X81809Y140305D01*
X81855Y140190D01*
X81886Y140090D01*
X81917Y139990D01*
X81932Y139921D01*
X81940Y139891D01*
Y139867D01*
X81947Y139860D01*
Y139852D01*
X81971Y139699D01*
X81994Y139552D01*
X82009Y139407D01*
X82017Y139268D01*
Y139153D01*
X82024Y139099D01*
Y139061D01*
Y139023D01*
Y139000D01*
Y138984D01*
Y138977D01*
Y138800D01*
X82017Y138631D01*
X82001Y138485D01*
X81994Y138355D01*
X81978Y138247D01*
X81971Y138163D01*
Y138132D01*
X81963Y138109D01*
Y138101D01*
Y138093D01*
X81932Y137955D01*
X81902Y137832D01*
X81863Y137717D01*
X81825Y137625D01*
X81794Y137548D01*
X81763Y137487D01*
X81748Y137456D01*
X81740Y137441D01*
X81679Y137348D01*
X81602Y137264D01*
X81533Y137195D01*
X81464Y137133D01*
X81402Y137087D01*
X81356Y137057D01*
X81326Y137033D01*
X81310Y137026D01*
X81203Y136980D01*
X81087Y136949D01*
X80964Y136918D01*
X80857Y136903D01*
X80757Y136895D01*
X80680Y136888D01*
X80611D01*
X80465Y136895D01*
X80327Y136911D01*
X80204Y136934D01*
X80104Y136964D01*
X80028Y136987D01*
X79966Y137011D01*
X79928Y137026D01*
X79912Y137033D01*
X79813Y137095D01*
X79720Y137164D01*
X79643Y137233D01*
X79574Y137302D01*
X79521Y137364D01*
X79482Y137410D01*
X79459Y137441D01*
X79452Y137456D01*
X79390Y137563D01*
X79336Y137679D01*
X79290Y137786D01*
X79260Y137894D01*
X79229Y137986D01*
X79214Y138063D01*
X79206Y138086D01*
X79198Y138109D01*
Y138116D01*
Y138124D01*
X79167Y138278D01*
X79152Y138431D01*
X79137Y138577D01*
X79121Y138715D01*
Y138831D01*
X79114Y138884D01*
Y138923D01*
Y138961D01*
Y138984D01*
Y139000D01*
Y139007D01*
Y139184D01*
X79121Y139353D01*
X79137Y139499D01*
X79144Y139629D01*
X79160Y139737D01*
X79175Y139814D01*
Y139844D01*
X79183Y139867D01*
Y139875D01*
Y139883D01*
X79214Y140021D01*
X79244Y140152D01*
X79283Y140267D01*
X79313Y140359D01*
X79352Y140436D01*
X79382Y140497D01*
X79398Y140528D01*
X79405Y140543D01*
X79467Y140635D01*
X79544Y140720D01*
X79613Y140789D01*
X79682Y140850D01*
X79743Y140897D01*
X79797Y140935D01*
X79828Y140950D01*
X79843Y140958D01*
X79951Y141004D01*
X80066Y141042D01*
X80181Y141066D01*
X80289Y141089D01*
X80388Y141096D01*
X80465Y141104D01*
X80534D01*
X80680Y141096D01*
D02*
G37*
G36*
X90096Y140036D02*
X90203Y140029D01*
X90303Y140013D01*
X90388Y139998D01*
X90457Y139975D01*
X90511Y139960D01*
X90541Y139952D01*
X90557Y139944D01*
X90649Y139906D01*
X90733Y139852D01*
X90810Y139806D01*
X90872Y139760D01*
X90926Y139714D01*
X90971Y139675D01*
X90995Y139652D01*
X91002Y139645D01*
X91064Y139568D01*
X91125Y139483D01*
X91179Y139399D01*
X91217Y139314D01*
X91248Y139245D01*
X91271Y139192D01*
X91286Y139153D01*
X91294Y139138D01*
X91325Y139015D01*
X91348Y138892D01*
X91371Y138769D01*
X91379Y138662D01*
X91386Y138562D01*
X91394Y138477D01*
Y138447D01*
Y138424D01*
Y138416D01*
Y138408D01*
X91386Y138278D01*
X91379Y138155D01*
X91363Y138047D01*
X91348Y137947D01*
X91333Y137871D01*
X91325Y137817D01*
X91309Y137778D01*
Y137763D01*
X91271Y137663D01*
X91233Y137571D01*
X91194Y137487D01*
X91148Y137417D01*
X91118Y137356D01*
X91087Y137318D01*
X91064Y137287D01*
X91056Y137279D01*
X90987Y137210D01*
X90918Y137156D01*
X90849Y137103D01*
X90780Y137064D01*
X90726Y137026D01*
X90672Y137003D01*
X90641Y136995D01*
X90634Y136987D01*
X90534Y136957D01*
X90434Y136934D01*
X90342Y136911D01*
X90250Y136903D01*
X90173Y136895D01*
X90111Y136888D01*
X90058D01*
X89950Y136895D01*
X89866Y136903D01*
X89827Y136911D01*
X89804D01*
X89789Y136918D01*
X89781D01*
X89681Y136941D01*
X89605Y136957D01*
X89574Y136964D01*
X89551Y136972D01*
X89535Y136980D01*
X89528D01*
X89443Y137011D01*
X89374Y137033D01*
X89328Y137057D01*
X89320Y137064D01*
X89313D01*
X89251Y137103D01*
X89213Y137133D01*
X89197Y137149D01*
X89190Y137156D01*
X89167Y137179D01*
X89151Y137203D01*
X89144Y137210D01*
Y137218D01*
X89128Y137256D01*
X89121Y137272D01*
Y137279D01*
X89113Y137341D01*
X89105Y137364D01*
Y137371D01*
X89098Y137417D01*
Y137464D01*
Y137494D01*
Y137510D01*
Y137579D01*
Y137625D01*
X89105Y137663D01*
Y137671D01*
X89113Y137717D01*
X89121Y137748D01*
X89128Y137771D01*
Y137778D01*
X89136Y137809D01*
X89144Y137824D01*
X89151Y137840D01*
X89159D01*
X89174Y137855D01*
X89190Y137863D01*
X89205D01*
X89236Y137855D01*
X89267Y137840D01*
X89297Y137817D01*
X89305Y137809D01*
X89351Y137771D01*
X89397Y137740D01*
X89435Y137709D01*
X89443Y137702D01*
X89451D01*
X89520Y137656D01*
X89589Y137625D01*
X89612Y137610D01*
X89635Y137602D01*
X89651Y137594D01*
X89658D01*
X89750Y137571D01*
X89843Y137556D01*
X89881Y137548D01*
X89935D01*
X90050Y137556D01*
X90134Y137579D01*
X90173Y137586D01*
X90196Y137594D01*
X90211Y137602D01*
X90219D01*
X90303Y137656D01*
X90365Y137717D01*
X90411Y137763D01*
X90419Y137771D01*
X90426Y137778D01*
X90480Y137871D01*
X90511Y137963D01*
X90526Y138001D01*
X90534Y138032D01*
X90541Y138055D01*
Y138063D01*
X90565Y138201D01*
X90572Y138270D01*
Y138331D01*
X90580Y138385D01*
Y138424D01*
Y138454D01*
Y138462D01*
X90572Y138623D01*
X90557Y138769D01*
X90526Y138884D01*
X90495Y138984D01*
X90472Y139061D01*
X90442Y139115D01*
X90426Y139153D01*
X90419Y139161D01*
X90350Y139238D01*
X90280Y139299D01*
X90196Y139338D01*
X90127Y139368D01*
X90058Y139384D01*
X90004Y139399D01*
X89950D01*
X89843Y139391D01*
X89758Y139376D01*
X89727Y139368D01*
X89697Y139360D01*
X89689Y139353D01*
X89681D01*
X89605Y139314D01*
X89535Y139284D01*
X89497Y139261D01*
X89482Y139253D01*
X89428Y139215D01*
X89382Y139184D01*
X89351Y139161D01*
X89343Y139153D01*
X89297Y139130D01*
X89259Y139122D01*
X89236Y139115D01*
X89228D01*
X89190Y139122D01*
X89167Y139153D01*
X89151Y139176D01*
X89144Y139184D01*
X89136Y139215D01*
X89128Y139261D01*
X89113Y139345D01*
Y139384D01*
Y139414D01*
Y139437D01*
Y139445D01*
Y139499D01*
Y139537D01*
X89121Y139568D01*
Y139576D01*
Y139614D01*
Y139645D01*
X89128Y139660D01*
Y139668D01*
X89144Y139714D01*
X89151Y139722D01*
Y139729D01*
X89167Y139752D01*
X89182Y139775D01*
X89197Y139783D01*
X89205Y139791D01*
X89236Y139821D01*
X89274Y139844D01*
X89305Y139867D01*
X89313Y139875D01*
X89320D01*
X89389Y139906D01*
X89451Y139937D01*
X89497Y139952D01*
X89505Y139960D01*
X89512D01*
X89589Y139983D01*
X89658Y140006D01*
X89689Y140013D01*
X89712D01*
X89727Y140021D01*
X89735D01*
X89827Y140036D01*
X89904Y140044D01*
X89981D01*
X90096Y140036D01*
D02*
G37*
G36*
X75327Y141019D02*
X75343Y141012D01*
X75350Y141004D01*
X75366Y140989D01*
X75381Y140966D01*
X75389Y140950D01*
Y140943D01*
X75397Y140904D01*
X75404Y140866D01*
X75412Y140843D01*
Y140827D01*
X75419Y140774D01*
Y140728D01*
Y140682D01*
Y140674D01*
Y140666D01*
Y140605D01*
X75412Y140543D01*
Y140497D01*
X75404Y140466D01*
X75397Y140436D01*
Y140413D01*
X75389Y140405D01*
Y140397D01*
X75374Y140367D01*
X75358Y140351D01*
X75327Y140321D01*
X75297Y140313D01*
X73576D01*
X75012Y137133D01*
X75028Y137095D01*
X75036Y137064D01*
X75043Y137049D01*
Y137041D01*
X75028Y137018D01*
X75012Y137003D01*
X74997Y136987D01*
X74989Y136980D01*
X74951Y136964D01*
X74905Y136957D01*
X74867Y136949D01*
X74851D01*
X74767Y136941D01*
X74498D01*
X74436Y136949D01*
X74383D01*
X74329Y136957D01*
X74283D01*
X74252Y136964D01*
X74244D01*
X74206Y136972D01*
X74183Y136980D01*
X74168Y136995D01*
X74160D01*
X74122Y137041D01*
X74106Y137057D01*
Y137064D01*
X72770Y140167D01*
X72755Y140213D01*
X72739Y140251D01*
X72732Y140275D01*
Y140282D01*
X72716Y140321D01*
X72708Y140359D01*
X72701Y140382D01*
Y140390D01*
X72693Y140436D01*
X72685Y140474D01*
X72678Y140505D01*
Y140513D01*
X72670Y140566D01*
Y140620D01*
Y140658D01*
Y140666D01*
Y140674D01*
Y140751D01*
X72678Y140812D01*
X72685Y140843D01*
Y140858D01*
X72693Y140904D01*
X72701Y140935D01*
X72708Y140958D01*
X72716Y140966D01*
X72732Y140989D01*
X72755Y141004D01*
X72770Y141012D01*
X72778D01*
X72839Y141027D01*
X75312D01*
X75327Y141019D01*
D02*
G37*
G36*
X70236Y139990D02*
X70274Y139983D01*
X70289D01*
X70343Y139975D01*
X70381Y139967D01*
X70404Y139960D01*
X70412D01*
X70443Y139944D01*
X70458Y139929D01*
X70474Y139921D01*
Y139913D01*
X70489Y139875D01*
Y139867D01*
Y139860D01*
Y136980D01*
Y136918D01*
Y136857D01*
X70497Y136811D01*
Y136780D01*
X70504Y136749D01*
Y136726D01*
X70512Y136719D01*
Y136711D01*
X70527Y136657D01*
X70543Y136611D01*
X70558Y136580D01*
X70566Y136573D01*
X70596Y136534D01*
X70627Y136511D01*
X70658Y136496D01*
X70666Y136488D01*
X70712Y136473D01*
X70758Y136465D01*
X70789Y136458D01*
X70850D01*
X70881Y136465D01*
X70904Y136473D01*
X70911D01*
X70942Y136480D01*
X70973D01*
X71004Y136473D01*
X71011Y136465D01*
X71027Y136427D01*
X71034Y136419D01*
Y136411D01*
X71050Y136350D01*
X71057Y136327D01*
Y136319D01*
X71065Y136273D01*
Y136227D01*
Y136189D01*
Y136181D01*
Y136173D01*
Y136120D01*
X71057Y136089D01*
Y136066D01*
Y136058D01*
Y136027D01*
X71050Y135997D01*
Y135981D01*
Y135974D01*
X71034Y135928D01*
X71027Y135920D01*
Y135912D01*
X71011Y135889D01*
X70996Y135881D01*
X70981Y135866D01*
X70973D01*
X70934Y135851D01*
X70896Y135835D01*
X70858Y135828D01*
X70842D01*
X70773Y135812D01*
X70696Y135805D01*
X70543D01*
X70466Y135820D01*
X70397Y135828D01*
X70335Y135843D01*
X70289Y135859D01*
X70251Y135866D01*
X70228Y135881D01*
X70220D01*
X70097Y135943D01*
X70051Y135981D01*
X70005Y136012D01*
X69974Y136050D01*
X69951Y136074D01*
X69936Y136089D01*
X69928Y136097D01*
X69851Y136212D01*
X69798Y136319D01*
X69782Y136373D01*
X69767Y136411D01*
X69759Y136434D01*
Y136442D01*
X69736Y136519D01*
X69721Y136611D01*
X69713Y136696D01*
X69706Y136780D01*
X69698Y136849D01*
Y136911D01*
Y136949D01*
Y136964D01*
Y139860D01*
Y139883D01*
X69706Y139898D01*
X69713Y139913D01*
X69721D01*
X69736Y139937D01*
X69759Y139952D01*
X69775Y139960D01*
X69782D01*
X69821Y139967D01*
X69859Y139975D01*
X69890Y139983D01*
X69905D01*
X69967Y139990D01*
X70028Y139998D01*
X70174D01*
X70236Y139990D01*
D02*
G37*
G36*
X88414Y141427D02*
X88453Y141419D01*
X88468D01*
X88514Y141411D01*
X88545Y141403D01*
X88568Y141396D01*
X88575Y141388D01*
X88598Y141373D01*
X88614Y141350D01*
X88621Y141334D01*
Y141327D01*
Y141304D01*
X88614Y141280D01*
X88606Y141265D01*
Y141258D01*
X88514Y141027D01*
X88429Y140804D01*
X88368Y140589D01*
X88307Y140397D01*
X88283Y140305D01*
X88261Y140228D01*
X88245Y140159D01*
X88230Y140105D01*
X88222Y140052D01*
X88214Y140021D01*
X88207Y139998D01*
Y139990D01*
X88161Y139745D01*
X88130Y139506D01*
X88099Y139276D01*
X88084Y139076D01*
X88076Y138984D01*
Y138900D01*
Y138823D01*
X88068Y138761D01*
Y138715D01*
Y138677D01*
Y138654D01*
Y138646D01*
X88076Y138393D01*
X88091Y138147D01*
X88115Y137924D01*
X88122Y137817D01*
X88138Y137725D01*
X88153Y137633D01*
X88161Y137556D01*
X88176Y137479D01*
X88184Y137425D01*
X88191Y137371D01*
X88199Y137341D01*
X88207Y137318D01*
Y137310D01*
X88261Y137072D01*
X88330Y136841D01*
X88391Y136627D01*
X88460Y136434D01*
X88491Y136350D01*
X88514Y136273D01*
X88545Y136204D01*
X88560Y136150D01*
X88583Y136104D01*
X88591Y136074D01*
X88606Y136050D01*
Y136043D01*
X88621Y136012D01*
X88629Y135981D01*
Y135966D01*
Y135958D01*
X88621Y135935D01*
X88614Y135912D01*
X88606Y135905D01*
X88598Y135897D01*
X88568Y135881D01*
X88529Y135866D01*
X88499Y135859D01*
X88491D01*
X88429Y135851D01*
X88368Y135843D01*
X88230D01*
X88176Y135851D01*
X88138D01*
X88099Y135859D01*
X88061Y135866D01*
X88046Y135874D01*
X88038D01*
X88007Y135881D01*
X87984Y135889D01*
X87976Y135905D01*
X87969D01*
X87938Y135928D01*
X87930Y135935D01*
X87869Y136058D01*
X87815Y136181D01*
X87761Y136289D01*
X87723Y136388D01*
X87685Y136473D01*
X87661Y136542D01*
X87646Y136580D01*
X87638Y136596D01*
X87554Y136841D01*
X87515Y136949D01*
X87485Y137057D01*
X87462Y137141D01*
X87446Y137203D01*
X87431Y137249D01*
Y137264D01*
X87400Y137387D01*
X87377Y137510D01*
X87354Y137625D01*
X87339Y137732D01*
X87323Y137817D01*
X87316Y137878D01*
X87308Y137924D01*
Y137940D01*
X87278Y138193D01*
X87270Y138316D01*
Y138424D01*
X87262Y138516D01*
Y138585D01*
Y138631D01*
Y138639D01*
Y138646D01*
X87270Y138907D01*
X87285Y139153D01*
X87316Y139391D01*
X87331Y139499D01*
X87347Y139599D01*
X87362Y139691D01*
X87377Y139768D01*
X87393Y139844D01*
X87408Y139906D01*
X87416Y139952D01*
X87423Y139990D01*
X87431Y140013D01*
Y140021D01*
X87500Y140275D01*
X87577Y140513D01*
X87661Y140743D01*
X87700Y140843D01*
X87738Y140943D01*
X87777Y141035D01*
X87815Y141112D01*
X87846Y141181D01*
X87869Y141242D01*
X87892Y141296D01*
X87907Y141327D01*
X87915Y141350D01*
X87923Y141357D01*
X87946Y141373D01*
X87953Y141380D01*
X87969Y141388D01*
X87992Y141396D01*
X88007Y141403D01*
X88015D01*
X88046Y141411D01*
X88076Y141419D01*
X88107Y141427D01*
X88115D01*
X88168Y141434D01*
X88353D01*
X88414Y141427D01*
D02*
G37*
%LPC*%
G36*
X59307Y133216D02*
X58731Y131488D01*
X59883D01*
X59307Y133216D01*
D02*
G37*
G36*
X59207Y137080D02*
X58646Y137057D01*
X58577D01*
X58516Y137041D01*
X58462Y137033D01*
X58416Y137018D01*
X58385Y137003D01*
X58362Y136995D01*
X58347Y136980D01*
X58339D01*
X58301Y136949D01*
X58270Y136918D01*
X58255Y136880D01*
X58239Y136849D01*
X58232Y136819D01*
X58224Y136788D01*
Y136772D01*
Y136765D01*
X58232Y136711D01*
X58239Y136665D01*
X58247Y136634D01*
X58255Y136619D01*
X58285Y136565D01*
X58316Y136519D01*
X58347Y136488D01*
X58362Y136480D01*
X58424Y136442D01*
X58493Y136411D01*
X58539Y136388D01*
X58554Y136381D01*
X58562D01*
X58654Y136358D01*
X58754Y136350D01*
X58800Y136342D01*
X58862D01*
X58961Y136350D01*
X59053Y136358D01*
X59130Y136373D01*
X59199Y136388D01*
X59246Y136404D01*
X59284Y136411D01*
X59307Y136427D01*
X59315D01*
X59368Y136465D01*
X59407Y136504D01*
X59430Y136542D01*
X59445Y136580D01*
X59461Y136611D01*
X59468Y136642D01*
Y136657D01*
Y136665D01*
Y136703D01*
X59461Y136734D01*
Y136757D01*
Y136765D01*
X59445Y136803D01*
X59438Y136834D01*
X59422Y136857D01*
Y136865D01*
X59399Y136903D01*
X59368Y136934D01*
X59353Y136957D01*
X59345Y136964D01*
X59299Y137003D01*
X59253Y137041D01*
X59222Y137072D01*
X59207Y137080D01*
D02*
G37*
G36*
X58908Y139491D02*
X58892D01*
X58808Y139483D01*
X58739Y139468D01*
X58677Y139453D01*
X58631Y139430D01*
X58593Y139399D01*
X58562Y139384D01*
X58547Y139368D01*
X58539Y139360D01*
X58493Y139307D01*
X58462Y139253D01*
X58439Y139192D01*
X58424Y139138D01*
X58416Y139084D01*
X58408Y139046D01*
Y139015D01*
Y139007D01*
X58416Y138938D01*
X58424Y138884D01*
X58431Y138846D01*
X58439Y138838D01*
Y138831D01*
X58470Y138769D01*
X58493Y138723D01*
X58523Y138692D01*
X58531Y138677D01*
X58577Y138631D01*
X58623Y138600D01*
X58662Y138577D01*
X58670Y138569D01*
X58677D01*
X58746Y138554D01*
X58808Y138547D01*
X58854Y138539D01*
X58877D01*
X58954Y138547D01*
X59023Y138562D01*
X59084Y138577D01*
X59138Y138600D01*
X59176Y138623D01*
X59207Y138646D01*
X59222Y138654D01*
X59230Y138662D01*
X59268Y138715D01*
X59299Y138769D01*
X59322Y138823D01*
X59338Y138877D01*
X59345Y138923D01*
X59353Y138961D01*
Y138992D01*
Y139000D01*
X59345Y139069D01*
X59338Y139130D01*
X59330Y139169D01*
Y139176D01*
Y139184D01*
X59307Y139245D01*
X59276Y139299D01*
X59253Y139330D01*
X59246Y139338D01*
X59199Y139384D01*
X59146Y139414D01*
X59115Y139437D01*
X59100Y139445D01*
X59030Y139476D01*
X58961Y139483D01*
X58908Y139491D01*
D02*
G37*
G36*
X71933Y133370D02*
X71518D01*
X71395Y133362D01*
X71342Y133354D01*
X71295D01*
X71265Y133346D01*
X71242Y133339D01*
X71226Y133331D01*
X71219D01*
X71142Y133300D01*
X71080Y133270D01*
X71042Y133247D01*
X71027Y133231D01*
X70973Y133178D01*
X70942Y133132D01*
X70919Y133085D01*
X70911Y133078D01*
Y133070D01*
X70888Y133001D01*
X70881Y132932D01*
X70873Y132901D01*
Y132878D01*
Y132863D01*
Y132855D01*
X70881Y132771D01*
X70888Y132701D01*
X70904Y132655D01*
X70911Y132648D01*
Y132640D01*
X70942Y132579D01*
X70973Y132525D01*
X71004Y132486D01*
X71019Y132471D01*
X71073Y132425D01*
X71134Y132387D01*
X71180Y132363D01*
X71188Y132356D01*
X71196D01*
X71234Y132341D01*
X71280Y132333D01*
X71372Y132325D01*
X71418Y132317D01*
X71933D01*
Y133370D01*
D02*
G37*
G36*
Y131711D02*
X71364D01*
X71295Y131703D01*
X71234Y131695D01*
X71180Y131688D01*
X71134Y131680D01*
X71103Y131672D01*
X71088Y131665D01*
X71080D01*
X70981Y131634D01*
X70911Y131596D01*
X70865Y131565D01*
X70850Y131549D01*
X70789Y131488D01*
X70742Y131427D01*
X70719Y131380D01*
X70712Y131365D01*
Y131357D01*
X70681Y131273D01*
X70666Y131196D01*
X70658Y131158D01*
Y131135D01*
Y131119D01*
Y131112D01*
X70666Y131012D01*
X70681Y130935D01*
X70696Y130904D01*
X70704Y130889D01*
X70712Y130874D01*
Y130866D01*
X70750Y130797D01*
X70796Y130735D01*
X70835Y130705D01*
X70842Y130689D01*
X70850D01*
X70919Y130643D01*
X70981Y130613D01*
X71027Y130589D01*
X71042Y130582D01*
X71050D01*
X71142Y130566D01*
X71242Y130559D01*
X71280Y130551D01*
X71933D01*
Y131711D01*
D02*
G37*
G36*
X119295Y146442D02*
X119249D01*
X119157Y146434D01*
X119080Y146427D01*
X119050Y146419D01*
X119027Y146411D01*
X119019Y146404D01*
X119011D01*
X118942Y146373D01*
X118896Y146350D01*
X118858Y146319D01*
X118850Y146311D01*
X118804Y146265D01*
X118773Y146219D01*
X118758Y146181D01*
X118750Y146173D01*
Y146166D01*
X118727Y146097D01*
X118719Y146035D01*
X118712Y145989D01*
Y145974D01*
Y145966D01*
X118719Y145897D01*
X118735Y145835D01*
X118750Y145782D01*
X118773Y145728D01*
X118804Y145689D01*
X118819Y145659D01*
X118835Y145636D01*
X118842Y145628D01*
X118896Y145574D01*
X118950Y145520D01*
X119065Y145428D01*
X119119Y145390D01*
X119157Y145359D01*
X119188Y145344D01*
X119195Y145336D01*
X119295Y145398D01*
X119380Y145444D01*
X119411Y145467D01*
X119434Y145474D01*
X119449Y145490D01*
X119457D01*
X119526Y145544D01*
X119587Y145590D01*
X119618Y145620D01*
X119633Y145636D01*
X119679Y145697D01*
X119710Y145743D01*
X119726Y145782D01*
X119733Y145797D01*
X119748Y145858D01*
X119756Y145920D01*
X119764Y145966D01*
Y145974D01*
Y145981D01*
X119756Y146058D01*
X119741Y146127D01*
X119726Y146181D01*
X119702Y146235D01*
X119679Y146265D01*
X119656Y146296D01*
X119649Y146311D01*
X119641Y146319D01*
X119587Y146358D01*
X119526Y146388D01*
X119457Y146411D01*
X119395Y146427D01*
X119342Y146434D01*
X119295Y146442D01*
D02*
G37*
G36*
Y144653D02*
X119288D01*
X119173Y144591D01*
X119119Y144568D01*
X119080Y144537D01*
X119042Y144522D01*
X119019Y144507D01*
X119003Y144491D01*
X118996D01*
X118911Y144438D01*
X118842Y144384D01*
X118804Y144345D01*
X118789Y144338D01*
Y144330D01*
X118735Y144269D01*
X118696Y144207D01*
X118673Y144161D01*
X118666Y144153D01*
Y144146D01*
X118635Y144077D01*
X118627Y144008D01*
X118620Y143977D01*
Y143954D01*
Y143938D01*
Y143931D01*
X118627Y143846D01*
X118643Y143777D01*
X118666Y143716D01*
X118696Y143662D01*
X118727Y143623D01*
X118750Y143593D01*
X118765Y143577D01*
X118773Y143570D01*
X118835Y143524D01*
X118911Y143493D01*
X118988Y143470D01*
X119057Y143455D01*
X119126Y143447D01*
X119180Y143439D01*
X119234D01*
X119342Y143447D01*
X119441Y143462D01*
X119526Y143478D01*
X119587Y143501D01*
X119641Y143524D01*
X119679Y143547D01*
X119702Y143554D01*
X119710Y143562D01*
X119764Y143616D01*
X119802Y143677D01*
X119825Y143739D01*
X119841Y143800D01*
X119856Y143854D01*
X119864Y143900D01*
Y143931D01*
Y143938D01*
X119856Y144023D01*
X119848Y144084D01*
X119841Y144130D01*
X119833Y144138D01*
Y144146D01*
X119802Y144215D01*
X119764Y144276D01*
X119733Y144315D01*
X119726Y144330D01*
X119664Y144392D01*
X119603Y144445D01*
X119556Y144476D01*
X119549Y144491D01*
X119541D01*
X119457Y144553D01*
X119372Y144607D01*
X119342Y144622D01*
X119311Y144637D01*
X119295Y144653D01*
D02*
G37*
G36*
X76333Y145321D02*
X76226D01*
X76172Y145305D01*
X76088Y145282D01*
X76057Y145267D01*
X76034Y145252D01*
X76026Y145244D01*
X76019Y145236D01*
X75950Y145175D01*
X75896Y145106D01*
X75873Y145075D01*
X75857Y145052D01*
X75850Y145037D01*
Y145029D01*
X75804Y144929D01*
X75780Y144837D01*
X75765Y144799D01*
Y144768D01*
X75757Y144745D01*
Y144737D01*
X75742Y144614D01*
X75727Y144507D01*
Y144461D01*
Y144430D01*
Y144407D01*
Y144399D01*
X75734Y144284D01*
X75742Y144176D01*
X75750Y144138D01*
X75757Y144107D01*
X75765Y144084D01*
Y144077D01*
X75796Y143961D01*
X75827Y143869D01*
X75842Y143839D01*
X75850Y143808D01*
X75865Y143792D01*
Y143785D01*
X75926Y143700D01*
X75980Y143639D01*
X76026Y143600D01*
X76042Y143585D01*
X76049D01*
X76134Y143539D01*
X76218Y143516D01*
X76257D01*
X76287Y143508D01*
X76310D01*
X76372Y143516D01*
X76426Y143524D01*
X76525Y143562D01*
X76572Y143585D01*
X76602Y143600D01*
X76618Y143608D01*
X76625Y143616D01*
X76679Y143662D01*
X76740Y143716D01*
X76840Y143823D01*
X76879Y143869D01*
X76910Y143908D01*
X76933Y143931D01*
X76940Y143938D01*
Y144868D01*
X76871Y144952D01*
X76817Y145021D01*
X76779Y145060D01*
X76763Y145075D01*
X76702Y145129D01*
X76648Y145175D01*
X76618Y145206D01*
X76602Y145213D01*
X76541Y145252D01*
X76487Y145275D01*
X76456Y145282D01*
X76441Y145290D01*
X76380Y145305D01*
X76333Y145321D01*
D02*
G37*
G36*
X71618Y145328D02*
X71595D01*
X71534Y145321D01*
X71472Y145313D01*
X71418Y145290D01*
X71372Y145275D01*
X71326Y145252D01*
X71295Y145229D01*
X71280Y145221D01*
X71272Y145213D01*
X71211Y145167D01*
X71157Y145113D01*
X71050Y145006D01*
X71004Y144960D01*
X70973Y144921D01*
X70950Y144891D01*
X70942Y144883D01*
Y143954D01*
X71019Y143862D01*
X71080Y143800D01*
X71119Y143754D01*
X71126Y143746D01*
X71134Y143739D01*
X71196Y143685D01*
X71249Y143639D01*
X71288Y143608D01*
X71295Y143600D01*
X71303D01*
X71357Y143570D01*
X71411Y143539D01*
X71441Y143531D01*
X71457Y143524D01*
X71510Y143508D01*
X71564Y143501D01*
X71610D01*
X71725Y143516D01*
X71772Y143524D01*
X71810Y143539D01*
X71841Y143554D01*
X71864Y143562D01*
X71879Y143577D01*
X71887D01*
X71956Y143639D01*
X72010Y143708D01*
X72025Y143739D01*
X72040Y143762D01*
X72056Y143777D01*
Y143785D01*
X72094Y143885D01*
X72125Y143984D01*
X72132Y144023D01*
X72140Y144054D01*
X72148Y144077D01*
Y144084D01*
X72163Y144207D01*
Y144269D01*
X72171Y144322D01*
Y144369D01*
Y144399D01*
Y144422D01*
Y144430D01*
X72163Y144545D01*
X72155Y144653D01*
X72148Y144691D01*
Y144722D01*
X72140Y144745D01*
Y144753D01*
X72110Y144868D01*
X72079Y144952D01*
X72063Y144991D01*
X72048Y145014D01*
X72040Y145029D01*
Y145037D01*
X71987Y145121D01*
X71925Y145190D01*
X71879Y145229D01*
X71871Y145244D01*
X71864D01*
X71818Y145275D01*
X71772Y145290D01*
X71687Y145321D01*
X71649D01*
X71618Y145328D01*
D02*
G37*
G36*
X61250Y145436D02*
X61196D01*
X61096Y145428D01*
X61004Y145405D01*
X60927Y145375D01*
X60866Y145344D01*
X60820Y145305D01*
X60789Y145275D01*
X60766Y145252D01*
X60758Y145244D01*
X60712Y145167D01*
X60674Y145083D01*
X60651Y144998D01*
X60636Y144914D01*
X60628Y144837D01*
X60620Y144775D01*
Y144737D01*
Y144729D01*
Y144722D01*
X61803D01*
X61795Y144829D01*
X61780Y144914D01*
Y144952D01*
X61772Y144975D01*
X61765Y144991D01*
Y144998D01*
X61726Y145090D01*
X61688Y145159D01*
X61657Y145206D01*
X61649Y145213D01*
Y145221D01*
X61588Y145290D01*
X61526Y145336D01*
X61480Y145367D01*
X61473Y145375D01*
X61465D01*
X61373Y145413D01*
X61288Y145428D01*
X61250Y145436D01*
D02*
G37*
G36*
X91064Y146327D02*
X90649D01*
X90511Y146319D01*
X90388Y146311D01*
X90288Y146296D01*
X90196Y146273D01*
X90127Y146250D01*
X90073Y146235D01*
X90042Y146227D01*
X90035Y146219D01*
X89950Y146181D01*
X89873Y146135D01*
X89812Y146089D01*
X89750Y146043D01*
X89712Y145997D01*
X89674Y145966D01*
X89658Y145943D01*
X89651Y145935D01*
X89597Y145866D01*
X89551Y145789D01*
X89512Y145712D01*
X89482Y145651D01*
X89459Y145590D01*
X89443Y145544D01*
X89428Y145505D01*
Y145497D01*
X89389Y145313D01*
X89374Y145221D01*
X89366Y145144D01*
X89359Y145067D01*
Y145014D01*
Y144983D01*
Y144967D01*
Y144837D01*
X89374Y144722D01*
X89382Y144614D01*
X89397Y144522D01*
X89412Y144453D01*
X89428Y144392D01*
X89435Y144361D01*
X89443Y144345D01*
X89474Y144253D01*
X89512Y144169D01*
X89551Y144092D01*
X89589Y144023D01*
X89620Y143969D01*
X89651Y143931D01*
X89666Y143908D01*
X89674Y143900D01*
X89735Y143839D01*
X89797Y143785D01*
X89866Y143739D01*
X89927Y143700D01*
X89981Y143677D01*
X90027Y143654D01*
X90058Y143647D01*
X90065Y143639D01*
X90158Y143608D01*
X90250Y143593D01*
X90350Y143577D01*
X90434Y143562D01*
X90511D01*
X90580Y143554D01*
X91064D01*
Y146327D01*
D02*
G37*
G36*
X70106Y156993D02*
X70044D01*
X69906Y156978D01*
X69783Y156963D01*
X69706Y156947D01*
X69675Y156932D01*
X69552Y156870D01*
X69445Y156809D01*
X69383Y156763D01*
X69352Y156732D01*
X69260Y156624D01*
X69183Y156517D01*
X69137Y156425D01*
X69122Y156394D01*
Y156378D01*
X69045Y156194D01*
X68999Y156010D01*
X68984Y155933D01*
X68968Y155871D01*
X68953Y155825D01*
Y155810D01*
X68907Y155549D01*
X68876Y155303D01*
Y155195D01*
X68861Y155118D01*
Y155057D01*
Y155041D01*
X68830Y154703D01*
Y154534D01*
X68814Y154380D01*
Y154242D01*
Y154119D01*
Y154058D01*
Y154027D01*
Y153689D01*
X68830Y153535D01*
Y153412D01*
Y153305D01*
X68845Y153228D01*
Y153166D01*
Y153151D01*
X68861Y152874D01*
X68876Y152751D01*
X68891Y152644D01*
X68907Y152551D01*
Y152490D01*
X68922Y152444D01*
Y152428D01*
X68968Y152213D01*
X69014Y152044D01*
X69045Y151967D01*
X69060Y151921D01*
X69076Y151891D01*
Y151875D01*
X69153Y151721D01*
X69230Y151599D01*
X69291Y151522D01*
X69322Y151491D01*
X69429Y151383D01*
X69537Y151322D01*
X69614Y151276D01*
X69629Y151260D01*
X69644D01*
X69783Y151214D01*
X69921Y151199D01*
X69983Y151183D01*
X70075D01*
X70290Y151199D01*
X70474Y151245D01*
X70536Y151276D01*
X70582Y151291D01*
X70613Y151306D01*
X70628D01*
X70705Y151368D01*
X70782Y151445D01*
X70905Y151599D01*
X70951Y151675D01*
X70982Y151721D01*
X71012Y151768D01*
Y151783D01*
X71058Y151921D01*
X71105Y152075D01*
X71151Y152213D01*
X71181Y152367D01*
X71197Y152490D01*
X71212Y152597D01*
X71228Y152659D01*
Y152690D01*
X71243Y152920D01*
X71258Y153151D01*
X71274Y153397D01*
Y153627D01*
X71289Y153827D01*
Y153996D01*
Y154058D01*
Y154104D01*
Y154119D01*
Y154135D01*
Y154396D01*
X71274Y154626D01*
Y154841D01*
X71258Y155011D01*
Y155164D01*
X71243Y155272D01*
Y155333D01*
Y155364D01*
X71212Y155564D01*
X71181Y155733D01*
X71151Y155887D01*
X71120Y156010D01*
X71089Y156117D01*
X71058Y156194D01*
X71043Y156240D01*
Y156256D01*
X70982Y156378D01*
X70920Y156501D01*
X70859Y156594D01*
X70797Y156671D01*
X70751Y156732D01*
X70705Y156778D01*
X70674Y156793D01*
X70659Y156809D01*
X70567Y156870D01*
X70459Y156916D01*
X70259Y156978D01*
X70167D01*
X70106Y156993D01*
D02*
G37*
G36*
X67716Y138255D02*
X67294D01*
Y137778D01*
X67348Y137717D01*
X67402Y137671D01*
X67448Y137625D01*
X67494Y137586D01*
X67532Y137563D01*
X67563Y137540D01*
X67578Y137533D01*
X67586Y137525D01*
X67694Y137479D01*
X67793Y137456D01*
X67832D01*
X67862Y137448D01*
X67893D01*
X67962Y137456D01*
X68024Y137464D01*
X68077Y137479D01*
X68116Y137502D01*
X68154Y137517D01*
X68177Y137533D01*
X68193Y137540D01*
X68200Y137548D01*
X68239Y137586D01*
X68262Y137633D01*
X68292Y137717D01*
X68300Y137755D01*
X68308Y137786D01*
Y137809D01*
Y137817D01*
X68300Y137894D01*
X68285Y137947D01*
X68277Y137986D01*
X68269Y138001D01*
X68231Y138055D01*
X68193Y138101D01*
X68162Y138132D01*
X68147Y138139D01*
X68077Y138178D01*
X68008Y138201D01*
X67978Y138208D01*
X67955Y138216D01*
X67939Y138224D01*
X67931D01*
X67824Y138239D01*
X67716Y138255D01*
D02*
G37*
G36*
X85522Y152597D02*
X84676D01*
Y151645D01*
X84784Y151522D01*
X84891Y151429D01*
X84984Y151337D01*
X85076Y151260D01*
X85153Y151214D01*
X85214Y151168D01*
X85245Y151153D01*
X85260Y151137D01*
X85476Y151045D01*
X85675Y150999D01*
X85752D01*
X85814Y150984D01*
X85875D01*
X86014Y150999D01*
X86137Y151014D01*
X86244Y151045D01*
X86321Y151091D01*
X86398Y151122D01*
X86444Y151153D01*
X86475Y151168D01*
X86490Y151183D01*
X86567Y151260D01*
X86613Y151353D01*
X86674Y151522D01*
X86690Y151599D01*
X86705Y151660D01*
Y151706D01*
Y151721D01*
X86690Y151875D01*
X86659Y151983D01*
X86644Y152060D01*
X86628Y152090D01*
X86551Y152198D01*
X86475Y152290D01*
X86413Y152352D01*
X86382Y152367D01*
X86244Y152444D01*
X86106Y152490D01*
X86044Y152505D01*
X85998Y152521D01*
X85967Y152536D01*
X85952D01*
X85737Y152567D01*
X85522Y152597D01*
D02*
G37*
G36*
X61964Y139491D02*
X61910D01*
X61811Y139483D01*
X61718Y139460D01*
X61642Y139430D01*
X61580Y139399D01*
X61534Y139360D01*
X61503Y139330D01*
X61480Y139307D01*
X61473Y139299D01*
X61427Y139222D01*
X61388Y139138D01*
X61365Y139053D01*
X61350Y138969D01*
X61342Y138892D01*
X61334Y138831D01*
Y138792D01*
Y138785D01*
Y138777D01*
X62517D01*
X62510Y138884D01*
X62494Y138969D01*
Y139007D01*
X62486Y139030D01*
X62479Y139046D01*
Y139053D01*
X62440Y139146D01*
X62402Y139215D01*
X62371Y139261D01*
X62363Y139268D01*
Y139276D01*
X62302Y139345D01*
X62241Y139391D01*
X62195Y139422D01*
X62187Y139430D01*
X62179D01*
X62087Y139468D01*
X62003Y139483D01*
X61964Y139491D01*
D02*
G37*
G36*
X80596Y140451D02*
X80565D01*
X80496Y140443D01*
X80435Y140436D01*
X80396Y140428D01*
X80381Y140420D01*
X80319Y140390D01*
X80266Y140359D01*
X80235Y140336D01*
X80220Y140321D01*
X80173Y140267D01*
X80135Y140213D01*
X80112Y140167D01*
X80104Y140152D01*
Y140144D01*
X80066Y140052D01*
X80043Y139960D01*
X80035Y139921D01*
X80028Y139891D01*
X80020Y139867D01*
Y139860D01*
X79997Y139729D01*
X79981Y139606D01*
Y139552D01*
X79974Y139514D01*
Y139483D01*
Y139476D01*
X79958Y139307D01*
Y139222D01*
X79951Y139146D01*
Y139076D01*
Y139015D01*
Y138984D01*
Y138969D01*
Y138800D01*
X79958Y138723D01*
Y138662D01*
Y138608D01*
X79966Y138569D01*
Y138539D01*
Y138531D01*
X79974Y138393D01*
X79981Y138331D01*
X79989Y138278D01*
X79997Y138232D01*
Y138201D01*
X80005Y138178D01*
Y138170D01*
X80028Y138063D01*
X80051Y137978D01*
X80066Y137940D01*
X80074Y137917D01*
X80081Y137901D01*
Y137894D01*
X80120Y137817D01*
X80158Y137755D01*
X80189Y137717D01*
X80204Y137702D01*
X80258Y137648D01*
X80312Y137617D01*
X80350Y137594D01*
X80358Y137586D01*
X80366D01*
X80435Y137563D01*
X80504Y137556D01*
X80534Y137548D01*
X80581D01*
X80688Y137556D01*
X80780Y137579D01*
X80811Y137594D01*
X80834Y137602D01*
X80849Y137610D01*
X80857D01*
X80895Y137640D01*
X80934Y137679D01*
X80995Y137755D01*
X81018Y137794D01*
X81034Y137817D01*
X81049Y137840D01*
Y137848D01*
X81072Y137917D01*
X81095Y137994D01*
X81118Y138063D01*
X81134Y138139D01*
X81141Y138201D01*
X81149Y138255D01*
X81156Y138285D01*
Y138301D01*
X81164Y138416D01*
X81172Y138531D01*
X81179Y138654D01*
Y138769D01*
X81187Y138869D01*
Y138953D01*
Y138984D01*
Y139007D01*
Y139015D01*
Y139023D01*
Y139153D01*
X81179Y139268D01*
Y139376D01*
X81172Y139460D01*
Y139537D01*
X81164Y139591D01*
Y139622D01*
Y139637D01*
X81149Y139737D01*
X81134Y139821D01*
X81118Y139898D01*
X81103Y139960D01*
X81087Y140013D01*
X81072Y140052D01*
X81064Y140075D01*
Y140083D01*
X81034Y140144D01*
X81003Y140205D01*
X80972Y140251D01*
X80941Y140290D01*
X80918Y140321D01*
X80895Y140344D01*
X80880Y140351D01*
X80872Y140359D01*
X80826Y140390D01*
X80773Y140413D01*
X80673Y140443D01*
X80627D01*
X80596Y140451D01*
D02*
G37*
%LPD*%
D44*
X194882Y19685D02*
G03*
X194882Y19685I-17717J0D01*
G01*
X37402D02*
G03*
X37402Y19685I-17717J0D01*
G01*
Y255906D02*
G03*
X37402Y255906I-17717J0D01*
G01*
X194882D02*
G03*
X194882Y255906I-17717J0D01*
G01*
X173917Y88898D02*
G03*
X173917Y88898I-2500J0D01*
G01*
X84241Y195787D02*
G03*
X84241Y195787I-2784J0D01*
G01*
X16563Y151575D02*
G03*
X16563Y151575I-2784J0D01*
G01*
Y49213D02*
G03*
X16563Y49213I-2784J0D01*
G01*
X108268Y228346D02*
Y233463D01*
X106562Y231757D01*
X104857Y233463D01*
Y228346D01*
X103151D02*
Y231757D01*
X101446Y233463D01*
X99740Y231757D01*
Y228346D01*
Y230905D01*
X103151D01*
X94624Y232610D02*
X95477Y233463D01*
X97182D01*
X98035Y232610D01*
Y229199D01*
X97182Y228346D01*
X95477D01*
X94624Y229199D01*
X85198Y172165D02*
Y168754D01*
Y170460D01*
X90315D01*
X85198Y167049D02*
X90315Y163638D01*
X85198D02*
X90315Y167049D01*
X100157Y172165D02*
X95041D01*
Y169607D01*
X95894Y168754D01*
X97599D01*
X98452Y169607D01*
Y172165D01*
X95041Y167049D02*
X100157D01*
Y164491D01*
X99305Y163638D01*
X95894D01*
X95041Y164491D01*
Y167049D01*
X110984Y172165D02*
X105868D01*
Y169607D01*
X106721Y168754D01*
X108426D01*
X109279Y169607D01*
Y172165D01*
Y170460D02*
X110984Y168754D01*
X106721Y163638D02*
X105868Y164491D01*
Y166196D01*
X106721Y167049D01*
X107573D01*
X108426Y166196D01*
Y164491D01*
X109279Y163638D01*
X110132D01*
X110984Y164491D01*
Y166196D01*
X110132Y167049D01*
X105868Y161932D02*
Y158521D01*
Y160227D01*
X110984D01*
X115710Y172165D02*
X119121D01*
X120827Y170460D01*
X119121Y168754D01*
X115710D01*
X116563Y163638D02*
X115710Y164491D01*
Y166196D01*
X116563Y167049D01*
X119974D01*
X120827Y166196D01*
Y164491D01*
X119974Y163638D01*
X116563Y158521D02*
X115710Y159374D01*
Y161080D01*
X116563Y161932D01*
X119974D01*
X120827Y161080D01*
Y159374D01*
X119974Y158521D01*
X120827Y203661D02*
X115710D01*
Y201103D01*
X116563Y200251D01*
X118269D01*
X119121Y201103D01*
Y203661D01*
Y201956D02*
X120827Y200251D01*
X115710Y198545D02*
X120827Y195134D01*
X115710D02*
X120827Y198545D01*
X106721Y215014D02*
X105868Y215867D01*
Y217572D01*
X106721Y218425D01*
X110132D01*
X110984Y217572D01*
Y215867D01*
X110132Y215014D01*
X108426D01*
Y216720D01*
X110984Y213309D02*
X105868D01*
Y210751D01*
X106721Y209898D01*
X108426D01*
X109279Y210751D01*
Y213309D01*
X105868Y208192D02*
Y206487D01*
Y207340D01*
X110984D01*
Y208192D01*
Y206487D01*
X105868Y201370D02*
Y203076D01*
X106721Y203929D01*
X110132D01*
X110984Y203076D01*
Y201370D01*
X110132Y200518D01*
X106721D01*
X105868Y201370D01*
X106721Y198812D02*
X105868Y197959D01*
Y196254D01*
X106721Y195401D01*
X110132D01*
X110984Y196254D01*
Y197959D01*
X110132Y198812D01*
X106721D01*
X95894Y215014D02*
X95041Y215867D01*
Y217572D01*
X95894Y218425D01*
X99305D01*
X100157Y217572D01*
Y215867D01*
X99305Y215014D01*
X97599D01*
Y216720D01*
X100157Y213309D02*
X95041D01*
Y210751D01*
X95894Y209898D01*
X97599D01*
X98452Y210751D01*
Y213309D01*
X95041Y208192D02*
Y206487D01*
Y207340D01*
X100157D01*
Y208192D01*
Y206487D01*
X95041Y201370D02*
Y203076D01*
X95894Y203929D01*
X99305D01*
X100157Y203076D01*
Y201370D01*
X99305Y200518D01*
X95894D01*
X95041Y201370D01*
X100157Y195401D02*
Y198812D01*
X96746Y195401D01*
X95894D01*
X95041Y196254D01*
Y197959D01*
X95894Y198812D01*
X87036Y206156D02*
X86183Y207009D01*
Y208714D01*
X87036Y209567D01*
X90447D01*
X91299Y208714D01*
Y207009D01*
X90447Y206156D01*
X88741D01*
Y207861D01*
X91299Y204450D02*
X86183D01*
X91299Y201040D01*
X86183D01*
Y199334D02*
X91299D01*
Y196776D01*
X90447Y195923D01*
X87036D01*
X86183Y196776D01*
Y199334D01*
D50*
X65453Y227953D02*
G03*
X65453Y227953I-492J0D01*
G01*
X65453Y212205D02*
G03*
X65453Y212205I-492J0D01*
G01*
Y196457D02*
G03*
X65453Y196457I-492J0D01*
G01*
Y180709D02*
G03*
X65453Y180709I-492J0D01*
G01*
X65453Y125591D02*
G03*
X65453Y125591I-492J0D01*
G01*
Y109843D02*
G03*
X65453Y109843I-492J0D01*
G01*
Y94095D02*
G03*
X65453Y94095I-492J0D01*
G01*
Y78347D02*
G03*
X65453Y78347I-492J0D01*
G01*
D53*
X58465Y214724D02*
Y217323D01*
Y214724D02*
X61673D01*
X58465Y223622D02*
Y226220D01*
X61673D01*
X58465Y198976D02*
Y201575D01*
Y198976D02*
X61673D01*
X58465Y207874D02*
Y210472D01*
X61673D01*
X58465Y183228D02*
Y185827D01*
Y183228D02*
X61673D01*
X58465Y192126D02*
Y194724D01*
X61673D01*
X58465Y167480D02*
Y170079D01*
Y167480D02*
X61673D01*
X58465Y176378D02*
Y178976D01*
X61673D01*
X58465Y112362D02*
Y114961D01*
Y112362D02*
X61673D01*
X58465Y121260D02*
Y123858D01*
X61673D01*
X58465Y96614D02*
Y99213D01*
Y96614D02*
X61673D01*
X58465Y105512D02*
Y108110D01*
X61673D01*
X58465Y80866D02*
Y83465D01*
Y80866D02*
X61673D01*
X58465Y89764D02*
Y92362D01*
X61673D01*
X58465Y65118D02*
Y67716D01*
Y65118D02*
X61673D01*
X58465Y74016D02*
Y76614D01*
X61673D01*
X50001Y69685D02*
Y72833D01*
X50788Y73620D01*
X52363D01*
X53150Y72833D01*
Y69685D01*
X52363Y68898D01*
X50788D01*
X51575Y70472D02*
X50001Y68898D01*
X50788D02*
X50001Y69685D01*
X48427Y68898D02*
X46852D01*
X47640D01*
Y73620D01*
X48427Y72833D01*
X50001Y85433D02*
Y88581D01*
X50788Y89369D01*
X52363D01*
X53150Y88581D01*
Y85433D01*
X52363Y84646D01*
X50788D01*
X51575Y86220D02*
X50001Y84646D01*
X50788D02*
X50001Y85433D01*
X45278Y84646D02*
X48427D01*
X45278Y87794D01*
Y88581D01*
X46065Y89369D01*
X47640D01*
X48427Y88581D01*
X50001Y101181D02*
Y104329D01*
X50788Y105117D01*
X52363D01*
X53150Y104329D01*
Y101181D01*
X52363Y100394D01*
X50788D01*
X51575Y101968D02*
X50001Y100394D01*
X50788D02*
X50001Y101181D01*
X48427Y104329D02*
X47640Y105117D01*
X46065D01*
X45278Y104329D01*
Y103542D01*
X46065Y102755D01*
X46852D01*
X46065D01*
X45278Y101968D01*
Y101181D01*
X46065Y100394D01*
X47640D01*
X48427Y101181D01*
X50001Y116929D02*
Y120078D01*
X50788Y120865D01*
X52363D01*
X53150Y120078D01*
Y116929D01*
X52363Y116142D01*
X50788D01*
X51575Y117716D02*
X50001Y116142D01*
X50788D02*
X50001Y116929D01*
X46065Y116142D02*
Y120865D01*
X48427Y118503D01*
X45278D01*
X50001Y187795D02*
Y190944D01*
X50788Y191731D01*
X52363D01*
X53150Y190944D01*
Y187795D01*
X52363Y187008D01*
X50788D01*
X51575Y188582D02*
X50001Y187008D01*
X50788D02*
X50001Y187795D01*
X48427Y191731D02*
X45278D01*
Y190944D01*
X48427Y187795D01*
Y187008D01*
X50001Y172047D02*
Y175196D01*
X50788Y175983D01*
X52363D01*
X53150Y175196D01*
Y172047D01*
X52363Y171260D01*
X50788D01*
X51575Y172834D02*
X50001Y171260D01*
X50788D02*
X50001Y172047D01*
X48427Y175196D02*
X47640Y175983D01*
X46065D01*
X45278Y175196D01*
Y174408D01*
X46065Y173621D01*
X45278Y172834D01*
Y172047D01*
X46065Y171260D01*
X47640D01*
X48427Y172047D01*
Y172834D01*
X47640Y173621D01*
X48427Y174408D01*
Y175196D01*
X47640Y173621D02*
X46065D01*
X50001Y203543D02*
Y206692D01*
X50788Y207479D01*
X52363D01*
X53150Y206692D01*
Y203543D01*
X52363Y202756D01*
X50788D01*
X51575Y204330D02*
X50001Y202756D01*
X50788D02*
X50001Y203543D01*
X45278Y207479D02*
X46852Y206692D01*
X48427Y205117D01*
Y203543D01*
X47640Y202756D01*
X46065D01*
X45278Y203543D01*
Y204330D01*
X46065Y205117D01*
X48427D01*
X50001Y219291D02*
Y222440D01*
X50788Y223227D01*
X52363D01*
X53150Y222440D01*
Y219291D01*
X52363Y218504D01*
X50788D01*
X51575Y220078D02*
X50001Y218504D01*
X50788D02*
X50001Y219291D01*
X45278Y223227D02*
X48427D01*
Y220865D01*
X46852Y221653D01*
X46065D01*
X45278Y220865D01*
Y219291D01*
X46065Y218504D01*
X47640D01*
X48427Y219291D01*
D88*
X98425Y255906D02*
D03*
M02*
