G04 Layer_Color=16711935*
%FSLAX25Y25*%
%MOIN*%
G70*
G01*
G75*
%ADD69C,0.10642*%
%ADD71C,0.07887*%
%ADD72O,0.07099X0.07887*%
%ADD73R,0.07099X0.07887*%
%ADD74C,0.04934*%
%ADD75C,0.07493*%
%ADD76R,0.07493X0.07493*%
%ADD77R,0.07099X0.07099*%
%ADD78C,0.07099*%
%ADD79R,0.10642X0.10642*%
%ADD80C,0.00800*%
%ADD81R,0.10642X0.10642*%
%ADD82C,0.05800*%
%ADD83R,0.04343X0.03950*%
%ADD84O,0.14579X0.11824*%
%ADD85R,0.14579X0.11824*%
%ADD86R,0.14973X0.11824*%
%ADD87O,0.14973X0.11824*%
D69*
X149606Y11811D02*
D03*
Y31496D02*
D03*
X48228Y50394D02*
D03*
X40551Y149016D02*
D03*
D71*
X118110Y178976D02*
D03*
Y188976D02*
D03*
X108110Y178976D02*
D03*
Y188976D02*
D03*
X98110Y178976D02*
D03*
X88110D02*
D03*
D72*
X98110Y188976D02*
D03*
D73*
X88110D02*
D03*
D74*
X149606Y219488D02*
D03*
Y209646D02*
D03*
D75*
X192044Y200787D02*
D03*
Y210787D02*
D03*
D76*
Y220787D02*
D03*
D77*
X165000Y190000D02*
D03*
X187008Y116890D02*
D03*
X154943Y190000D02*
D03*
D78*
X165000Y180000D02*
D03*
X187008Y146890D02*
D03*
Y126890D02*
D03*
Y136890D02*
D03*
X154943Y180000D02*
D03*
Y170000D02*
D03*
D79*
X68307Y50394D02*
D03*
D80*
X177165Y255906D02*
D03*
X19685D02*
D03*
Y19685D02*
D03*
X177165D02*
D03*
D81*
X40551Y128937D02*
D03*
D82*
X71260Y122047D02*
D03*
X70866Y224410D02*
D03*
Y208661D02*
D03*
Y192913D02*
D03*
Y177165D02*
D03*
Y92520D02*
D03*
X72835Y106299D02*
D03*
X78740Y76772D02*
D03*
D83*
X64961Y74606D02*
D03*
Y67126D02*
D03*
X57087Y70866D02*
D03*
X64961Y90354D02*
D03*
Y82874D02*
D03*
X57087Y86614D02*
D03*
X64961Y106102D02*
D03*
Y98622D02*
D03*
X57087Y102362D02*
D03*
X64961Y121850D02*
D03*
Y114370D02*
D03*
X57087Y118110D02*
D03*
X64961Y176969D02*
D03*
Y169488D02*
D03*
X57087Y173228D02*
D03*
X64961Y192717D02*
D03*
Y185236D02*
D03*
X57087Y188976D02*
D03*
X64961Y208465D02*
D03*
Y200984D02*
D03*
X57087Y204724D02*
D03*
X64961Y224213D02*
D03*
Y216732D02*
D03*
X57087Y220472D02*
D03*
D84*
X23622Y116614D02*
D03*
Y101614D02*
D03*
Y86614D02*
D03*
Y71614D02*
D03*
Y173976D02*
D03*
Y188976D02*
D03*
Y203976D02*
D03*
Y218976D02*
D03*
D85*
Y56614D02*
D03*
Y158976D02*
D03*
D86*
X161417Y78898D02*
D03*
D87*
Y58898D02*
D03*
M02*
