G04 Layer_Color=65535*
%FSLAX25Y25*%
%MOIN*%
G70*
G01*
G75*
%ADD44C,0.01000*%
%ADD50C,0.00984*%
%ADD51C,0.02362*%
%ADD52C,0.00800*%
%ADD53C,0.00787*%
%ADD54C,0.00591*%
%ADD55R,0.02300X0.00650*%
%ADD56R,0.01800X0.06700*%
%ADD57R,0.02560X0.00730*%
%ADD58R,0.98425X0.11811*%
G36*
X37667Y77673D02*
X37763Y77654D01*
X37897Y77596D01*
X38013Y77519D01*
X38109Y77385D01*
X38186Y77193D01*
X38205Y76943D01*
Y76904D01*
Y76789D01*
Y76597D01*
Y76347D01*
X38186Y76020D01*
X38166Y75617D01*
X38147Y75155D01*
X38128Y74617D01*
Y74598D01*
Y74540D01*
Y74463D01*
Y74348D01*
X38109Y74194D01*
Y74002D01*
Y73791D01*
Y73522D01*
X38089Y73252D01*
Y72926D01*
Y72580D01*
Y72195D01*
X38070Y71773D01*
Y71330D01*
Y70850D01*
Y70350D01*
Y68697D01*
X38589D01*
X38647Y68678D01*
X38743Y68659D01*
X38974Y68582D01*
X39089Y68524D01*
X39185Y68428D01*
X39204Y68409D01*
X39224Y68390D01*
X39281Y68332D01*
X39339Y68255D01*
X39435Y68063D01*
X39454Y67948D01*
X39473Y67813D01*
Y67794D01*
Y67756D01*
X39454Y67679D01*
X39435Y67583D01*
X39397Y67487D01*
X39358Y67390D01*
X39281Y67275D01*
X39185Y67179D01*
X39166Y67160D01*
X39147Y67141D01*
X39070Y67102D01*
X38993Y67064D01*
X38781Y66968D01*
X38666Y66948D01*
X38512Y66929D01*
X35649D01*
X35572Y66948D01*
X35360Y66968D01*
X35130Y67025D01*
X34880Y67121D01*
X34688Y67275D01*
X34591Y67371D01*
X34534Y67467D01*
X34495Y67602D01*
X34476Y67736D01*
Y67756D01*
Y67775D01*
X34495Y67890D01*
X34553Y68025D01*
X34668Y68198D01*
X34745Y68294D01*
X34841Y68371D01*
X34957Y68448D01*
X35091Y68524D01*
X35264Y68582D01*
X35456Y68621D01*
X35687Y68640D01*
X35937Y68659D01*
X36244D01*
Y74790D01*
X36225Y74771D01*
X36148Y74732D01*
X36033Y74656D01*
X35918Y74598D01*
X35649Y74444D01*
X35533Y74406D01*
X35456Y74387D01*
X35399D01*
X35322Y74406D01*
X35226Y74425D01*
X34995Y74502D01*
X34880Y74559D01*
X34764Y74656D01*
X34745Y74675D01*
X34726Y74713D01*
X34688Y74752D01*
X34630Y74828D01*
X34534Y75040D01*
X34515Y75155D01*
X34495Y75290D01*
Y75309D01*
Y75348D01*
X34515Y75424D01*
X34553Y75540D01*
X34611Y75655D01*
X34688Y75789D01*
X34803Y75924D01*
X34957Y76078D01*
X35726Y76635D01*
X36571Y77308D01*
X36590Y77327D01*
X36667Y77366D01*
X36763Y77423D01*
X36898Y77500D01*
X37052Y77577D01*
X37205Y77635D01*
X37398Y77673D01*
X37571Y77692D01*
X37590D01*
X37667Y77673D01*
D02*
G37*
G36*
X37417Y93248D02*
X37532Y93229D01*
X37821Y93190D01*
X38147Y93114D01*
X38513Y92998D01*
X38878Y92844D01*
X39243Y92633D01*
X39262D01*
X39301Y92595D01*
X39339Y92556D01*
X39416Y92499D01*
X39589Y92345D01*
X39800Y92133D01*
X40012Y91864D01*
X40185Y91538D01*
X40262Y91365D01*
X40319Y91172D01*
X40339Y90961D01*
X40358Y90750D01*
Y90730D01*
Y90692D01*
Y90634D01*
Y90557D01*
X40339Y90346D01*
X40300Y90058D01*
X40223Y89750D01*
X40127Y89423D01*
X39992Y89097D01*
X39819Y88770D01*
X39800Y88751D01*
X39743Y88655D01*
X39647Y88539D01*
X39493Y88366D01*
X39301Y88174D01*
X39070Y87943D01*
X38801Y87713D01*
X38474Y87482D01*
X38436Y87463D01*
X38320Y87386D01*
X38147Y87290D01*
X37936Y87155D01*
X37686Y86982D01*
X37398Y86809D01*
X36764Y86406D01*
X36744D01*
X36706Y86367D01*
X36648Y86329D01*
X36552Y86252D01*
X36341Y86079D01*
X36091Y85848D01*
X35841Y85560D01*
X35630Y85214D01*
X35533Y85041D01*
X35457Y84849D01*
X35399Y84657D01*
X35361Y84465D01*
X35437D01*
X35514Y84484D01*
X35630D01*
X35803Y84503D01*
X35995Y84522D01*
X36206Y84541D01*
X36475Y84561D01*
X36610D01*
X36706Y84580D01*
X36975D01*
X37282Y84599D01*
X37628Y84618D01*
X37974D01*
X38301Y84638D01*
X38666D01*
X38782Y84618D01*
X38935Y84599D01*
X39128Y84580D01*
X39320Y84522D01*
X39531Y84465D01*
X39743Y84368D01*
X39781Y84349D01*
X39858Y84311D01*
X39973Y84253D01*
X40108Y84157D01*
X40242Y84042D01*
X40358Y83907D01*
X40435Y83734D01*
X40473Y83561D01*
Y83542D01*
Y83504D01*
X40454Y83427D01*
X40435Y83350D01*
X40358Y83158D01*
X40300Y83042D01*
X40204Y82946D01*
X40185Y82927D01*
X40165Y82908D01*
X40089Y82850D01*
X40012Y82812D01*
X39800Y82696D01*
X39685Y82677D01*
X39531Y82658D01*
X39397D01*
X39224Y82677D01*
X38993Y82696D01*
X38974D01*
X38935Y82716D01*
X38878D01*
X38801Y82735D01*
X38628Y82754D01*
X38493D01*
X36456Y82773D01*
X36264D01*
X36149Y82754D01*
X36014D01*
X35860Y82735D01*
X35668Y82716D01*
X35572D01*
X35476Y82696D01*
X35361D01*
X35111Y82677D01*
X34976Y82658D01*
X34726D01*
X34630Y82677D01*
X34611D01*
X34553Y82696D01*
X34323D01*
X34207Y82716D01*
X34092Y82754D01*
X33938Y82831D01*
X33804Y82908D01*
X33688Y83042D01*
X33592Y83215D01*
Y83235D01*
X33573Y83273D01*
X33554Y83350D01*
X33535Y83446D01*
X33496Y83580D01*
X33477Y83754D01*
X33458Y83946D01*
Y84176D01*
Y84196D01*
Y84234D01*
Y84311D01*
Y84388D01*
X33477Y84503D01*
X33496Y84638D01*
X33535Y84926D01*
X33592Y85272D01*
X33688Y85637D01*
X33823Y86002D01*
X34015Y86348D01*
X34034Y86387D01*
X34092Y86463D01*
X34207Y86598D01*
X34361Y86752D01*
X34553Y86963D01*
X34803Y87175D01*
X35091Y87424D01*
X35437Y87674D01*
X35457D01*
X35476Y87694D01*
X35533Y87732D01*
X35591Y87790D01*
X35783Y87905D01*
X36033Y88059D01*
X36302Y88251D01*
X36629Y88462D01*
X36956Y88674D01*
X37302Y88904D01*
X37321Y88924D01*
X37340Y88943D01*
X37398Y88981D01*
X37475Y89039D01*
X37648Y89212D01*
X37859Y89423D01*
X38051Y89692D01*
X38224Y90000D01*
X38301Y90154D01*
X38359Y90327D01*
X38378Y90500D01*
X38397Y90692D01*
Y90711D01*
Y90730D01*
X38378Y90788D01*
X38340Y90865D01*
X38282Y90942D01*
X38205Y91019D01*
X38109Y91115D01*
X37955Y91211D01*
X37936Y91230D01*
X37878Y91249D01*
X37801Y91288D01*
X37686Y91345D01*
X37417Y91442D01*
X37263Y91461D01*
X37110Y91480D01*
X36975D01*
X36840Y91442D01*
X36648Y91403D01*
X36418Y91326D01*
X36149Y91211D01*
X35860Y91038D01*
X35553Y90826D01*
X35514Y90807D01*
X35418Y90730D01*
X35284Y90615D01*
X35111Y90500D01*
X34918Y90384D01*
X34745Y90269D01*
X34572Y90192D01*
X34438Y90173D01*
X34380D01*
X34303Y90192D01*
X34227D01*
X34015Y90250D01*
X33784Y90346D01*
X33765Y90365D01*
X33727Y90384D01*
X33688Y90442D01*
X33631Y90500D01*
X33515Y90692D01*
X33477Y90826D01*
X33458Y90961D01*
Y90980D01*
Y91038D01*
X33477Y91115D01*
X33496Y91211D01*
X33535Y91326D01*
X33592Y91442D01*
X33669Y91576D01*
X33784Y91691D01*
X33804D01*
X33823Y91730D01*
X33919Y91807D01*
X34092Y91941D01*
X34284Y92095D01*
X34515Y92268D01*
X34765Y92460D01*
X35015Y92614D01*
X35245Y92768D01*
X35264D01*
X35284Y92787D01*
X35399Y92844D01*
X35591Y92921D01*
X35822Y93018D01*
X36091Y93114D01*
X36418Y93190D01*
X36764Y93248D01*
X37110Y93267D01*
X37302D01*
X37417Y93248D01*
D02*
G37*
G36*
X36924Y106970D02*
X37059D01*
X37212Y106951D01*
X37558Y106912D01*
X37962Y106816D01*
X38385Y106701D01*
X38789Y106528D01*
X39173Y106297D01*
X39192D01*
X39211Y106259D01*
X39346Y106163D01*
X39500Y105990D01*
X39711Y105759D01*
X39903Y105452D01*
X40057Y105087D01*
X40192Y104664D01*
X40211Y104433D01*
X40230Y104183D01*
Y104145D01*
Y104049D01*
X40211Y103914D01*
X40192Y103741D01*
X40153Y103530D01*
X40095Y103299D01*
X40019Y103088D01*
X39922Y102876D01*
X39903Y102857D01*
X39865Y102780D01*
X39807Y102684D01*
X39711Y102569D01*
X39577Y102434D01*
X39442Y102300D01*
X39269Y102165D01*
X39058Y102031D01*
X39077D01*
X39115Y101992D01*
X39192Y101954D01*
X39269Y101877D01*
X39384Y101800D01*
X39500Y101684D01*
X39634Y101569D01*
X39769Y101415D01*
X39884Y101262D01*
X40019Y101069D01*
X40134Y100858D01*
X40249Y100627D01*
X40326Y100378D01*
X40403Y100109D01*
X40441Y99820D01*
X40461Y99493D01*
Y99474D01*
Y99436D01*
Y99359D01*
X40441Y99263D01*
X40422Y99147D01*
X40403Y98994D01*
X40326Y98667D01*
X40211Y98302D01*
X40019Y97898D01*
X39903Y97687D01*
X39750Y97495D01*
X39596Y97302D01*
X39404Y97110D01*
X39384Y97091D01*
X39365Y97072D01*
X39307Y97014D01*
X39211Y96956D01*
X39115Y96880D01*
X39000Y96803D01*
X38692Y96630D01*
X38327Y96438D01*
X37904Y96284D01*
X37424Y96168D01*
X37155Y96149D01*
X36886Y96130D01*
X36694D01*
X36482Y96149D01*
X36213Y96188D01*
X35906Y96245D01*
X35579Y96322D01*
X35233Y96418D01*
X34887Y96572D01*
X34868D01*
X34848Y96591D01*
X34714Y96668D01*
X34541Y96783D01*
X34330Y96956D01*
X34099Y97168D01*
X33868Y97418D01*
X33676Y97725D01*
X33503Y98071D01*
Y98090D01*
X33484Y98167D01*
X33465Y98263D01*
Y98379D01*
Y98398D01*
Y98436D01*
X33484Y98513D01*
X33503Y98609D01*
X33541Y98705D01*
X33599Y98801D01*
X33676Y98917D01*
X33772Y99013D01*
X33791Y99032D01*
X33830Y99051D01*
X33887Y99090D01*
X33964Y99147D01*
X34176Y99224D01*
X34291Y99244D01*
X34426Y99263D01*
X34502D01*
X34579Y99244D01*
X34675Y99224D01*
X34791Y99167D01*
X34906Y99109D01*
X35021Y99013D01*
X35118Y98898D01*
X35137Y98878D01*
X35194Y98801D01*
X35271Y98705D01*
X35348Y98590D01*
X35444Y98475D01*
X35521Y98379D01*
X35598Y98302D01*
X35636Y98263D01*
X35656Y98244D01*
X35713Y98206D01*
X35809Y98148D01*
X35944Y98090D01*
X36136Y98033D01*
X36348Y97975D01*
X36597Y97937D01*
X36886Y97917D01*
X37001D01*
X37116Y97937D01*
X37270Y97975D01*
X37462Y98014D01*
X37655Y98071D01*
X37847Y98167D01*
X38039Y98302D01*
X38058Y98321D01*
X38116Y98379D01*
X38193Y98456D01*
X38289Y98571D01*
X38385Y98705D01*
X38462Y98859D01*
X38519Y99051D01*
X38539Y99244D01*
Y99263D01*
Y99321D01*
X38519Y99397D01*
X38500Y99513D01*
X38462Y99647D01*
X38423Y99801D01*
X38346Y99974D01*
X38250Y100147D01*
X38135Y100320D01*
X37981Y100474D01*
X37789Y100647D01*
X37558Y100800D01*
X37309Y100935D01*
X37001Y101050D01*
X36636Y101146D01*
X36232Y101204D01*
X36194D01*
X36079Y101223D01*
X35925Y101281D01*
X35732Y101339D01*
X35540Y101454D01*
X35387Y101608D01*
X35271Y101800D01*
X35252Y101915D01*
X35233Y102050D01*
Y102069D01*
X35252Y102146D01*
X35271Y102242D01*
X35329Y102376D01*
X35425Y102511D01*
X35560Y102646D01*
X35752Y102780D01*
X36002Y102895D01*
X36040D01*
X36136Y102915D01*
X36271Y102953D01*
X36463Y102991D01*
X36694Y103049D01*
X36943Y103107D01*
X37481Y103222D01*
X37501D01*
X37558Y103241D01*
X37655Y103280D01*
X37751Y103337D01*
X37981Y103453D01*
X38097Y103530D01*
X38193Y103606D01*
X38212Y103626D01*
X38231Y103645D01*
X38308Y103760D01*
X38404Y103933D01*
X38423Y104049D01*
X38443Y104164D01*
Y104183D01*
Y104202D01*
X38423Y104318D01*
X38366Y104491D01*
X38250Y104683D01*
X38154Y104779D01*
X38058Y104875D01*
X37924Y104971D01*
X37770Y105048D01*
X37578Y105106D01*
X37366Y105163D01*
X37116Y105183D01*
X36828Y105202D01*
X36732D01*
X36617Y105183D01*
X36482Y105144D01*
X36309Y105106D01*
X36098Y105029D01*
X35867Y104913D01*
X35636Y104779D01*
X35617Y104760D01*
X35540Y104721D01*
X35425Y104644D01*
X35291Y104587D01*
X35002Y104433D01*
X34868Y104395D01*
X34771Y104375D01*
X34714D01*
X34637Y104395D01*
X34541Y104414D01*
X34310Y104491D01*
X34214Y104548D01*
X34099Y104644D01*
X34080Y104664D01*
X34060Y104702D01*
X34022Y104760D01*
X33964Y104837D01*
X33868Y105048D01*
X33849Y105163D01*
X33830Y105298D01*
Y105317D01*
X33849Y105394D01*
X33887Y105509D01*
X33983Y105663D01*
X34118Y105836D01*
X34214Y105932D01*
X34310Y106028D01*
X34445Y106144D01*
X34599Y106259D01*
X34771Y106355D01*
X34983Y106470D01*
X35002D01*
X35021Y106490D01*
X35079Y106528D01*
X35156Y106547D01*
X35348Y106643D01*
X35579Y106739D01*
X35848Y106816D01*
X36136Y106912D01*
X36405Y106970D01*
X36655Y106989D01*
X36809D01*
X36924Y106970D01*
D02*
G37*
G36*
X49533Y82384D02*
X49641D01*
X49937Y82276D01*
X50071Y82222D01*
X50233Y82114D01*
X50260Y82088D01*
X50313Y82034D01*
X50394Y81953D01*
X50475Y81845D01*
X50582Y81684D01*
X50663Y81523D01*
X50717Y81307D01*
X50744Y81065D01*
Y81038D01*
X50717Y80931D01*
X50690Y80769D01*
X50636Y80581D01*
X50529Y80365D01*
X50367Y80150D01*
X50125Y79935D01*
X49829Y79773D01*
X49802D01*
X49748Y79746D01*
X49614Y79666D01*
X49425Y79531D01*
X49372Y79450D01*
X49318Y79370D01*
X49291Y79343D01*
Y79289D01*
X49264Y79235D01*
Y79128D01*
X49237Y78993D01*
Y78831D01*
Y78616D01*
Y78562D01*
X49264Y78401D01*
X49345Y78159D01*
X49479Y77809D01*
X49587Y77621D01*
X49694Y77405D01*
X49856Y77163D01*
X50044Y76921D01*
X50260Y76652D01*
X50529Y76383D01*
X50798Y76087D01*
X51148Y75791D01*
X51175Y75764D01*
X51255Y75710D01*
X51417Y75575D01*
X51605Y75441D01*
X51820Y75279D01*
X52116Y75091D01*
X52412Y74903D01*
X52762Y74687D01*
X53112Y74472D01*
X53516Y74284D01*
X54350Y73934D01*
X54781Y73799D01*
X55211Y73692D01*
X55668Y73611D01*
X56099Y73584D01*
X56261D01*
X56476Y73611D01*
X56718Y73665D01*
X56987Y73746D01*
X57310Y73880D01*
X57606Y74041D01*
X57902Y74284D01*
X57929Y74311D01*
X58010Y74418D01*
X58144Y74553D01*
X58279Y74768D01*
X58413Y75010D01*
X58548Y75306D01*
X58629Y75629D01*
X58656Y75979D01*
Y76033D01*
Y76140D01*
X58629Y76329D01*
X58602Y76571D01*
X58548Y76867D01*
X58440Y77190D01*
X58333Y77540D01*
X58171Y77917D01*
Y77943D01*
X58117Y77997D01*
X58064Y78078D01*
X57983Y78240D01*
X57848Y78428D01*
X57687Y78670D01*
X57472Y78993D01*
X57202Y79370D01*
X57175Y79397D01*
X57122Y79504D01*
X57041Y79639D01*
X56933Y79800D01*
X56772Y80177D01*
X56718Y80365D01*
X56691Y80527D01*
Y80554D01*
Y80634D01*
X56718Y80715D01*
X56745Y80850D01*
X56799Y81011D01*
X56880Y81173D01*
X56987Y81334D01*
X57122Y81496D01*
X57149Y81523D01*
X57202Y81549D01*
X57283Y81630D01*
X57391Y81711D01*
X57687Y81845D01*
X57848Y81872D01*
X58037Y81899D01*
X58117D01*
X58225Y81872D01*
X58359Y81845D01*
X58521Y81765D01*
X58682Y81684D01*
X58871Y81549D01*
X59032Y81388D01*
X59059Y81361D01*
X59140Y81280D01*
X59248Y81119D01*
X59382Y80931D01*
X59544Y80688D01*
X59732Y80392D01*
X59947Y80069D01*
X60136Y79720D01*
X60351Y79316D01*
X60566Y78885D01*
X60916Y77970D01*
X61050Y77486D01*
X61158Y76975D01*
X61239Y76463D01*
X61266Y75952D01*
Y75925D01*
Y75845D01*
Y75737D01*
X61239Y75602D01*
X61212Y75414D01*
X61185Y75199D01*
X61077Y74687D01*
X60889Y74095D01*
X60755Y73799D01*
X60593Y73476D01*
X60432Y73180D01*
X60216Y72884D01*
X59974Y72588D01*
X59705Y72292D01*
X59678Y72265D01*
X59624Y72238D01*
X59544Y72158D01*
X59436Y72077D01*
X59275Y71969D01*
X59113Y71835D01*
X58898Y71700D01*
X58682Y71593D01*
X58144Y71324D01*
X57525Y71081D01*
X56853Y70920D01*
X56476Y70893D01*
X56099Y70866D01*
X55964D01*
X55776Y70893D01*
X55534Y70920D01*
X55238Y70947D01*
X54888Y71028D01*
X54511Y71108D01*
X54054Y71216D01*
X53597Y71377D01*
X53058Y71566D01*
X52520Y71781D01*
X51955Y72050D01*
X51363Y72373D01*
X50744Y72750D01*
X50125Y73207D01*
X49506Y73692D01*
X49479Y73719D01*
X49372Y73799D01*
X49237Y73934D01*
X49049Y74095D01*
X48833Y74338D01*
X48591Y74580D01*
X48322Y74876D01*
X48053Y75199D01*
X47784Y75575D01*
X47542Y75952D01*
X47300Y76356D01*
X47084Y76786D01*
X46896Y77217D01*
X46761Y77674D01*
X46654Y78132D01*
X46627Y78616D01*
Y78643D01*
Y78697D01*
Y78778D01*
Y78885D01*
X46654Y79128D01*
X46681Y79370D01*
Y79397D01*
Y79423D01*
X46707Y79585D01*
X46734Y79773D01*
X46761Y79989D01*
X46734Y80015D01*
X46681Y80069D01*
X46627Y80150D01*
X46546Y80285D01*
X46465Y80419D01*
X46385Y80608D01*
X46358Y80796D01*
X46331Y81011D01*
Y81065D01*
X46358Y81173D01*
X46385Y81334D01*
X46465Y81549D01*
X46600Y81738D01*
X46815Y81953D01*
X47084Y82114D01*
X47461Y82222D01*
X47488D01*
X47596Y82249D01*
X47784Y82276D01*
X47999Y82330D01*
X48268Y82357D01*
X48618Y82384D01*
X48968Y82411D01*
X49452D01*
X49533Y82384D01*
D02*
G37*
G36*
Y182777D02*
X49641D01*
X49937Y182670D01*
X50071Y182616D01*
X50233Y182508D01*
X50260Y182481D01*
X50313Y182428D01*
X50394Y182347D01*
X50475Y182239D01*
X50582Y182078D01*
X50663Y181916D01*
X50717Y181701D01*
X50744Y181459D01*
Y181432D01*
X50717Y181324D01*
X50690Y181163D01*
X50636Y180974D01*
X50529Y180759D01*
X50367Y180544D01*
X50125Y180329D01*
X49829Y180167D01*
X49802D01*
X49748Y180140D01*
X49614Y180059D01*
X49425Y179925D01*
X49372Y179844D01*
X49318Y179763D01*
X49291Y179736D01*
Y179683D01*
X49264Y179629D01*
Y179521D01*
X49237Y179387D01*
Y179225D01*
Y179010D01*
Y178956D01*
X49264Y178795D01*
X49345Y178552D01*
X49479Y178203D01*
X49587Y178014D01*
X49694Y177799D01*
X49856Y177557D01*
X50044Y177315D01*
X50260Y177046D01*
X50529Y176776D01*
X50798Y176480D01*
X51148Y176184D01*
X51175Y176157D01*
X51255Y176104D01*
X51417Y175969D01*
X51605Y175835D01*
X51820Y175673D01*
X52116Y175485D01*
X52412Y175296D01*
X52762Y175081D01*
X53112Y174866D01*
X53516Y174677D01*
X54350Y174328D01*
X54781Y174193D01*
X55211Y174085D01*
X55668Y174005D01*
X56099Y173978D01*
X56261D01*
X56476Y174005D01*
X56718Y174058D01*
X56987Y174139D01*
X57310Y174274D01*
X57606Y174435D01*
X57902Y174677D01*
X57929Y174704D01*
X58010Y174812D01*
X58144Y174946D01*
X58279Y175162D01*
X58413Y175404D01*
X58548Y175700D01*
X58629Y176023D01*
X58656Y176373D01*
Y176427D01*
Y176534D01*
X58629Y176723D01*
X58602Y176965D01*
X58548Y177261D01*
X58440Y177584D01*
X58333Y177934D01*
X58171Y178310D01*
Y178337D01*
X58117Y178391D01*
X58064Y178472D01*
X57983Y178633D01*
X57848Y178822D01*
X57687Y179064D01*
X57472Y179387D01*
X57202Y179763D01*
X57175Y179790D01*
X57122Y179898D01*
X57041Y180033D01*
X56933Y180194D01*
X56772Y180571D01*
X56718Y180759D01*
X56691Y180921D01*
Y180947D01*
Y181028D01*
X56718Y181109D01*
X56745Y181244D01*
X56799Y181405D01*
X56880Y181566D01*
X56987Y181728D01*
X57122Y181889D01*
X57149Y181916D01*
X57202Y181943D01*
X57283Y182024D01*
X57391Y182105D01*
X57687Y182239D01*
X57848Y182266D01*
X58037Y182293D01*
X58117D01*
X58225Y182266D01*
X58359Y182239D01*
X58521Y182158D01*
X58682Y182078D01*
X58871Y181943D01*
X59032Y181782D01*
X59059Y181755D01*
X59140Y181674D01*
X59248Y181513D01*
X59382Y181324D01*
X59544Y181082D01*
X59732Y180786D01*
X59947Y180463D01*
X60136Y180113D01*
X60351Y179710D01*
X60566Y179279D01*
X60916Y178364D01*
X61050Y177880D01*
X61158Y177368D01*
X61239Y176857D01*
X61266Y176346D01*
Y176319D01*
Y176238D01*
Y176130D01*
X61239Y175996D01*
X61212Y175808D01*
X61185Y175592D01*
X61077Y175081D01*
X60889Y174489D01*
X60755Y174193D01*
X60593Y173870D01*
X60432Y173574D01*
X60216Y173278D01*
X59974Y172982D01*
X59705Y172686D01*
X59678Y172659D01*
X59624Y172632D01*
X59544Y172552D01*
X59436Y172471D01*
X59275Y172363D01*
X59113Y172229D01*
X58898Y172094D01*
X58682Y171986D01*
X58144Y171717D01*
X57525Y171475D01*
X56853Y171314D01*
X56476Y171287D01*
X56099Y171260D01*
X55964D01*
X55776Y171287D01*
X55534Y171314D01*
X55238Y171341D01*
X54888Y171421D01*
X54511Y171502D01*
X54054Y171610D01*
X53597Y171771D01*
X53058Y171959D01*
X52520Y172175D01*
X51955Y172444D01*
X51363Y172767D01*
X50744Y173143D01*
X50125Y173601D01*
X49506Y174085D01*
X49479Y174112D01*
X49372Y174193D01*
X49237Y174328D01*
X49049Y174489D01*
X48833Y174731D01*
X48591Y174973D01*
X48322Y175269D01*
X48053Y175592D01*
X47784Y175969D01*
X47542Y176346D01*
X47300Y176750D01*
X47084Y177180D01*
X46896Y177611D01*
X46761Y178068D01*
X46654Y178525D01*
X46627Y179010D01*
Y179037D01*
Y179091D01*
Y179171D01*
Y179279D01*
X46654Y179521D01*
X46681Y179763D01*
Y179790D01*
Y179817D01*
X46707Y179979D01*
X46734Y180167D01*
X46761Y180382D01*
X46734Y180409D01*
X46681Y180463D01*
X46627Y180544D01*
X46546Y180678D01*
X46465Y180813D01*
X46385Y181001D01*
X46358Y181190D01*
X46331Y181405D01*
Y181459D01*
X46358Y181566D01*
X46385Y181728D01*
X46465Y181943D01*
X46600Y182132D01*
X46815Y182347D01*
X47084Y182508D01*
X47461Y182616D01*
X47488D01*
X47596Y182643D01*
X47784Y182670D01*
X47999Y182723D01*
X48268Y182750D01*
X48618Y182777D01*
X48968Y182804D01*
X49452D01*
X49533Y182777D01*
D02*
G37*
G36*
X59974Y107060D02*
X60109Y107033D01*
X60243Y106979D01*
X60378Y106925D01*
X60539Y106818D01*
X60674Y106683D01*
X60701Y106656D01*
X60728Y106630D01*
X60781Y106522D01*
X60835Y106414D01*
X60970Y106118D01*
X60997Y105957D01*
X61024Y105742D01*
Y101893D01*
Y101866D01*
Y101813D01*
Y101732D01*
X60997Y101624D01*
X60970Y101328D01*
X60889Y101005D01*
X60755Y100655D01*
X60539Y100386D01*
X60405Y100252D01*
X60270Y100171D01*
X60082Y100117D01*
X59893Y100090D01*
X59840D01*
X59678Y100117D01*
X59490Y100198D01*
X59248Y100359D01*
X59113Y100467D01*
X59005Y100602D01*
X58898Y100763D01*
X58790Y100952D01*
X58709Y101194D01*
X58656Y101463D01*
X58629Y101786D01*
X58602Y102136D01*
Y102163D01*
Y102270D01*
Y102405D01*
Y102566D01*
X50017D01*
X50044Y102539D01*
X50098Y102432D01*
X50206Y102270D01*
X50287Y102109D01*
X50502Y101732D01*
X50556Y101570D01*
X50582Y101463D01*
Y101436D01*
Y101382D01*
X50556Y101274D01*
X50529Y101140D01*
X50421Y100817D01*
X50340Y100655D01*
X50206Y100494D01*
X50179Y100467D01*
X50125Y100440D01*
X50071Y100386D01*
X49964Y100306D01*
X49668Y100171D01*
X49506Y100144D01*
X49318Y100117D01*
X49237D01*
X49129Y100144D01*
X48968Y100198D01*
X48807Y100279D01*
X48618Y100386D01*
X48430Y100548D01*
X48215Y100763D01*
X47434Y101839D01*
X46492Y103024D01*
X46465Y103050D01*
X46411Y103158D01*
X46331Y103293D01*
X46223Y103481D01*
X46115Y103696D01*
X46035Y103912D01*
X45981Y104181D01*
X45954Y104423D01*
Y104450D01*
X45981Y104558D01*
X46008Y104692D01*
X46089Y104880D01*
X46196Y105042D01*
X46385Y105176D01*
X46654Y105284D01*
X47003Y105311D01*
X47838D01*
X48295Y105284D01*
X48860Y105257D01*
X49506Y105230D01*
X50260Y105203D01*
X50636D01*
X50852Y105176D01*
X51793D01*
X52170Y105149D01*
X53650D01*
X54242Y105123D01*
X58548D01*
Y105742D01*
Y105768D01*
Y105849D01*
X58575Y105930D01*
X58602Y106064D01*
X58709Y106387D01*
X58790Y106549D01*
X58925Y106683D01*
X58951Y106710D01*
X58978Y106737D01*
X59059Y106818D01*
X59167Y106899D01*
X59436Y107033D01*
X59597Y107060D01*
X59786Y107087D01*
X59866D01*
X59974Y107060D01*
D02*
G37*
G36*
X47569Y97103D02*
X47596D01*
X47676Y97076D01*
X47838Y97050D01*
X47999Y97023D01*
X48403Y96942D01*
X48807Y96915D01*
X49129D01*
X49264Y96888D01*
X49452D01*
X49641Y96861D01*
X49721D01*
X49829Y96834D01*
X49964D01*
X50233Y96807D01*
X51175D01*
X51551Y96781D01*
X52036D01*
X52601Y96754D01*
X53247Y96727D01*
X53543D01*
X53866Y96700D01*
X54269D01*
X54700Y96673D01*
X55157D01*
X55588Y96646D01*
X56503D01*
X56799Y96673D01*
X57149D01*
X57579Y96700D01*
X58090Y96727D01*
X58144D01*
X58306Y96754D01*
X58575D01*
X58871Y96781D01*
X59221Y96807D01*
X59570D01*
X59893Y96834D01*
X60270D01*
X60378Y96807D01*
X60512Y96781D01*
X60647Y96727D01*
X60781Y96673D01*
X60943Y96565D01*
X61077Y96431D01*
X61104Y96404D01*
X61131Y96377D01*
X61185Y96296D01*
X61266Y96188D01*
X61400Y95892D01*
X61427Y95704D01*
X61454Y95516D01*
Y95489D01*
Y95408D01*
X61427Y95300D01*
X61400Y95166D01*
X61293Y94843D01*
X61212Y94682D01*
X61104Y94520D01*
X61077Y94493D01*
X61050Y94466D01*
X60970Y94385D01*
X60862Y94332D01*
X60593Y94170D01*
X60405Y94143D01*
X60216Y94116D01*
X59382D01*
X59032Y94090D01*
X58602D01*
X58117Y94063D01*
X57875D01*
X57633Y94036D01*
X56960D01*
X56610Y94009D01*
X55319D01*
X54996Y94036D01*
Y94009D01*
Y93955D01*
Y93874D01*
X55023Y93766D01*
Y93605D01*
X55050Y93444D01*
Y93228D01*
X55076Y92986D01*
X55157Y92448D01*
X55238Y91802D01*
X55346Y91075D01*
X55480Y90268D01*
Y90241D01*
X55507Y90188D01*
Y90080D01*
X55534Y89945D01*
X55561Y89784D01*
X55615Y89596D01*
X55642Y89353D01*
X55695Y89111D01*
X55803Y88546D01*
X55911Y87927D01*
X56018Y87254D01*
X56153Y86555D01*
X56422D01*
X56637Y86528D01*
X56933Y86501D01*
X57283D01*
X57714Y86447D01*
X58225Y86420D01*
X58440D01*
X58656Y86393D01*
X58951D01*
X59275Y86366D01*
X59624D01*
X59974Y86339D01*
X60378D01*
X60458Y86313D01*
X60566Y86286D01*
X60835Y86178D01*
X60970Y86097D01*
X61104Y85963D01*
X61131Y85936D01*
X61158Y85909D01*
X61212Y85801D01*
X61266Y85694D01*
X61400Y85397D01*
X61427Y85236D01*
X61454Y85021D01*
Y84994D01*
Y84940D01*
X61427Y84832D01*
X61400Y84698D01*
X61293Y84375D01*
X61212Y84240D01*
X61104Y84079D01*
X61077Y84052D01*
X61050Y84025D01*
X60970Y83971D01*
X60862Y83917D01*
X60593Y83783D01*
X60432Y83756D01*
X60243Y83729D01*
X59840D01*
X59517Y83756D01*
X59113D01*
X58629Y83783D01*
X58064Y83810D01*
X57391Y83864D01*
X57310D01*
X57202Y83891D01*
X56906D01*
X56745Y83917D01*
X56314Y83944D01*
X55857Y83971D01*
X55373Y83998D01*
X54942Y84025D01*
X53381D01*
X53112Y84052D01*
X51767D01*
X51336Y84079D01*
X50663D01*
X50502Y84106D01*
X50071D01*
X49533Y84133D01*
X48941D01*
X48322Y84160D01*
X47165D01*
X47057Y84187D01*
X46950Y84214D01*
X46654Y84321D01*
X46519Y84402D01*
X46385Y84509D01*
X46358Y84536D01*
X46331Y84590D01*
X46277Y84671D01*
X46196Y84779D01*
X46062Y85075D01*
X46035Y85236D01*
X46008Y85451D01*
Y85478D01*
Y85559D01*
X46035Y85640D01*
X46062Y85774D01*
X46169Y86097D01*
X46250Y86259D01*
X46385Y86393D01*
X46411Y86420D01*
X46438Y86447D01*
X46519Y86501D01*
X46627Y86582D01*
X46923Y86716D01*
X47111Y86743D01*
X47300Y86770D01*
X47838D01*
X48161Y86743D01*
X48537D01*
X48995Y86716D01*
X49506Y86689D01*
X49748D01*
X50017Y86662D01*
X50690D01*
X51040Y86635D01*
X52036D01*
X52197Y86608D01*
X52385D01*
X52628Y86582D01*
X52735D01*
X52843Y86555D01*
X53597D01*
X52924Y90268D01*
Y90295D01*
X52897Y90376D01*
Y90483D01*
X52870Y90645D01*
X52843Y90833D01*
X52789Y91049D01*
X52735Y91560D01*
X52655Y92152D01*
X52574Y92771D01*
X52520Y93417D01*
X52466Y94036D01*
X52224D01*
X52116Y94063D01*
X51336D01*
X51040Y94090D01*
X50717D01*
X50340Y94116D01*
X49479D01*
X48968Y94143D01*
X48833D01*
X48672Y94170D01*
X48457Y94224D01*
X48215Y94278D01*
X47918Y94359D01*
X47569Y94466D01*
X47219Y94601D01*
X47192D01*
X47165Y94628D01*
X47030Y94708D01*
X46842Y94816D01*
X46600Y94951D01*
X46385Y95139D01*
X46196Y95327D01*
X46062Y95569D01*
X46008Y95677D01*
Y95812D01*
Y95839D01*
Y95892D01*
X46035Y96000D01*
X46062Y96108D01*
X46142Y96404D01*
X46250Y96565D01*
X46358Y96727D01*
X46385Y96754D01*
X46411Y96807D01*
X46492Y96861D01*
X46600Y96942D01*
X46896Y97103D01*
X47084Y97130D01*
X47273Y97157D01*
X47380D01*
X47569Y97103D01*
D02*
G37*
G36*
X36924Y209332D02*
X37059D01*
X37212Y209313D01*
X37558Y209275D01*
X37962Y209178D01*
X38385Y209063D01*
X38789Y208890D01*
X39173Y208660D01*
X39192D01*
X39211Y208621D01*
X39346Y208525D01*
X39500Y208352D01*
X39711Y208121D01*
X39903Y207814D01*
X40057Y207449D01*
X40192Y207026D01*
X40211Y206795D01*
X40230Y206545D01*
Y206507D01*
Y206411D01*
X40211Y206276D01*
X40192Y206103D01*
X40153Y205892D01*
X40095Y205661D01*
X40019Y205450D01*
X39922Y205238D01*
X39903Y205219D01*
X39865Y205142D01*
X39807Y205046D01*
X39711Y204931D01*
X39577Y204796D01*
X39442Y204662D01*
X39269Y204527D01*
X39058Y204393D01*
X39077D01*
X39115Y204354D01*
X39192Y204316D01*
X39269Y204239D01*
X39384Y204162D01*
X39500Y204047D01*
X39634Y203931D01*
X39769Y203778D01*
X39884Y203624D01*
X40019Y203432D01*
X40134Y203220D01*
X40249Y202990D01*
X40326Y202740D01*
X40403Y202471D01*
X40441Y202182D01*
X40461Y201856D01*
Y201836D01*
Y201798D01*
Y201721D01*
X40441Y201625D01*
X40422Y201510D01*
X40403Y201356D01*
X40326Y201029D01*
X40211Y200664D01*
X40019Y200260D01*
X39903Y200049D01*
X39750Y199857D01*
X39596Y199665D01*
X39404Y199472D01*
X39384Y199453D01*
X39365Y199434D01*
X39307Y199376D01*
X39211Y199319D01*
X39115Y199242D01*
X39000Y199165D01*
X38692Y198992D01*
X38327Y198800D01*
X37904Y198646D01*
X37424Y198531D01*
X37155Y198511D01*
X36886Y198492D01*
X36694D01*
X36482Y198511D01*
X36213Y198550D01*
X35906Y198608D01*
X35579Y198684D01*
X35233Y198781D01*
X34887Y198934D01*
X34868D01*
X34848Y198953D01*
X34714Y199030D01*
X34541Y199146D01*
X34330Y199319D01*
X34099Y199530D01*
X33868Y199780D01*
X33676Y200087D01*
X33503Y200433D01*
Y200453D01*
X33484Y200530D01*
X33465Y200626D01*
Y200741D01*
Y200760D01*
Y200799D01*
X33484Y200875D01*
X33503Y200972D01*
X33541Y201068D01*
X33599Y201164D01*
X33676Y201279D01*
X33772Y201375D01*
X33791Y201394D01*
X33830Y201414D01*
X33887Y201452D01*
X33964Y201510D01*
X34176Y201587D01*
X34291Y201606D01*
X34426Y201625D01*
X34502D01*
X34579Y201606D01*
X34675Y201587D01*
X34791Y201529D01*
X34906Y201471D01*
X35021Y201375D01*
X35118Y201260D01*
X35137Y201241D01*
X35194Y201164D01*
X35271Y201068D01*
X35348Y200952D01*
X35444Y200837D01*
X35521Y200741D01*
X35598Y200664D01*
X35636Y200626D01*
X35656Y200606D01*
X35713Y200568D01*
X35809Y200510D01*
X35944Y200453D01*
X36136Y200395D01*
X36348Y200337D01*
X36597Y200299D01*
X36886Y200280D01*
X37001D01*
X37116Y200299D01*
X37270Y200337D01*
X37462Y200376D01*
X37655Y200433D01*
X37847Y200530D01*
X38039Y200664D01*
X38058Y200683D01*
X38116Y200741D01*
X38193Y200818D01*
X38289Y200933D01*
X38385Y201068D01*
X38462Y201221D01*
X38519Y201414D01*
X38539Y201606D01*
Y201625D01*
Y201683D01*
X38519Y201760D01*
X38500Y201875D01*
X38462Y202009D01*
X38423Y202163D01*
X38346Y202336D01*
X38250Y202509D01*
X38135Y202682D01*
X37981Y202836D01*
X37789Y203009D01*
X37558Y203163D01*
X37309Y203297D01*
X37001Y203413D01*
X36636Y203509D01*
X36232Y203566D01*
X36194D01*
X36079Y203586D01*
X35925Y203643D01*
X35732Y203701D01*
X35540Y203816D01*
X35387Y203970D01*
X35271Y204162D01*
X35252Y204277D01*
X35233Y204412D01*
Y204431D01*
X35252Y204508D01*
X35271Y204604D01*
X35329Y204739D01*
X35425Y204873D01*
X35560Y205008D01*
X35752Y205142D01*
X36002Y205258D01*
X36040D01*
X36136Y205277D01*
X36271Y205315D01*
X36463Y205354D01*
X36694Y205411D01*
X36943Y205469D01*
X37481Y205584D01*
X37501D01*
X37558Y205604D01*
X37655Y205642D01*
X37751Y205700D01*
X37981Y205815D01*
X38097Y205892D01*
X38193Y205969D01*
X38212Y205988D01*
X38231Y206007D01*
X38308Y206122D01*
X38404Y206295D01*
X38423Y206411D01*
X38443Y206526D01*
Y206545D01*
Y206565D01*
X38423Y206680D01*
X38366Y206853D01*
X38250Y207045D01*
X38154Y207141D01*
X38058Y207237D01*
X37924Y207333D01*
X37770Y207410D01*
X37578Y207468D01*
X37366Y207526D01*
X37116Y207545D01*
X36828Y207564D01*
X36732D01*
X36617Y207545D01*
X36482Y207506D01*
X36309Y207468D01*
X36098Y207391D01*
X35867Y207276D01*
X35636Y207141D01*
X35617Y207122D01*
X35540Y207084D01*
X35425Y207007D01*
X35291Y206949D01*
X35002Y206795D01*
X34868Y206757D01*
X34771Y206737D01*
X34714D01*
X34637Y206757D01*
X34541Y206776D01*
X34310Y206853D01*
X34214Y206910D01*
X34099Y207007D01*
X34080Y207026D01*
X34060Y207064D01*
X34022Y207122D01*
X33964Y207199D01*
X33868Y207410D01*
X33849Y207526D01*
X33830Y207660D01*
Y207679D01*
X33849Y207756D01*
X33887Y207872D01*
X33983Y208025D01*
X34118Y208198D01*
X34214Y208294D01*
X34310Y208390D01*
X34445Y208506D01*
X34599Y208621D01*
X34771Y208717D01*
X34983Y208833D01*
X35002D01*
X35021Y208852D01*
X35079Y208890D01*
X35156Y208909D01*
X35348Y209005D01*
X35579Y209102D01*
X35848Y209178D01*
X36136Y209275D01*
X36405Y209332D01*
X36655Y209351D01*
X36809D01*
X36924Y209332D01*
D02*
G37*
G36*
X37417Y195610D02*
X37532Y195591D01*
X37821Y195553D01*
X38147Y195476D01*
X38513Y195361D01*
X38878Y195207D01*
X39243Y194995D01*
X39262D01*
X39301Y194957D01*
X39339Y194919D01*
X39416Y194861D01*
X39589Y194707D01*
X39800Y194496D01*
X40012Y194227D01*
X40185Y193900D01*
X40262Y193727D01*
X40319Y193535D01*
X40339Y193323D01*
X40358Y193112D01*
Y193093D01*
Y193054D01*
Y192997D01*
Y192920D01*
X40339Y192708D01*
X40300Y192420D01*
X40223Y192112D01*
X40127Y191786D01*
X39992Y191459D01*
X39819Y191132D01*
X39800Y191113D01*
X39743Y191017D01*
X39647Y190902D01*
X39493Y190728D01*
X39301Y190536D01*
X39070Y190306D01*
X38801Y190075D01*
X38474Y189844D01*
X38436Y189825D01*
X38320Y189748D01*
X38147Y189652D01*
X37936Y189518D01*
X37686Y189345D01*
X37398Y189172D01*
X36764Y188768D01*
X36744D01*
X36706Y188730D01*
X36648Y188691D01*
X36552Y188614D01*
X36341Y188441D01*
X36091Y188211D01*
X35841Y187922D01*
X35630Y187576D01*
X35533Y187403D01*
X35457Y187211D01*
X35399Y187019D01*
X35361Y186827D01*
X35437D01*
X35514Y186846D01*
X35630D01*
X35803Y186865D01*
X35995Y186884D01*
X36206Y186904D01*
X36475Y186923D01*
X36610D01*
X36706Y186942D01*
X36975D01*
X37282Y186961D01*
X37628Y186981D01*
X37974D01*
X38301Y187000D01*
X38666D01*
X38782Y186981D01*
X38935Y186961D01*
X39128Y186942D01*
X39320Y186884D01*
X39531Y186827D01*
X39743Y186731D01*
X39781Y186712D01*
X39858Y186673D01*
X39973Y186615D01*
X40108Y186519D01*
X40242Y186404D01*
X40358Y186269D01*
X40435Y186097D01*
X40473Y185924D01*
Y185904D01*
Y185866D01*
X40454Y185789D01*
X40435Y185712D01*
X40358Y185520D01*
X40300Y185405D01*
X40204Y185308D01*
X40185Y185289D01*
X40165Y185270D01*
X40089Y185212D01*
X40012Y185174D01*
X39800Y185059D01*
X39685Y185039D01*
X39531Y185020D01*
X39397D01*
X39224Y185039D01*
X38993Y185059D01*
X38974D01*
X38935Y185078D01*
X38878D01*
X38801Y185097D01*
X38628Y185116D01*
X38493D01*
X36456Y185135D01*
X36264D01*
X36149Y185116D01*
X36014D01*
X35860Y185097D01*
X35668Y185078D01*
X35572D01*
X35476Y185059D01*
X35361D01*
X35111Y185039D01*
X34976Y185020D01*
X34726D01*
X34630Y185039D01*
X34611D01*
X34553Y185059D01*
X34323D01*
X34207Y185078D01*
X34092Y185116D01*
X33938Y185193D01*
X33804Y185270D01*
X33688Y185405D01*
X33592Y185577D01*
Y185597D01*
X33573Y185635D01*
X33554Y185712D01*
X33535Y185808D01*
X33496Y185943D01*
X33477Y186116D01*
X33458Y186308D01*
Y186539D01*
Y186558D01*
Y186596D01*
Y186673D01*
Y186750D01*
X33477Y186865D01*
X33496Y187000D01*
X33535Y187288D01*
X33592Y187634D01*
X33688Y187999D01*
X33823Y188364D01*
X34015Y188710D01*
X34034Y188749D01*
X34092Y188826D01*
X34207Y188960D01*
X34361Y189114D01*
X34553Y189325D01*
X34803Y189537D01*
X35091Y189787D01*
X35437Y190037D01*
X35457D01*
X35476Y190056D01*
X35533Y190094D01*
X35591Y190152D01*
X35783Y190267D01*
X36033Y190421D01*
X36302Y190613D01*
X36629Y190825D01*
X36956Y191036D01*
X37302Y191267D01*
X37321Y191286D01*
X37340Y191305D01*
X37398Y191343D01*
X37475Y191401D01*
X37648Y191574D01*
X37859Y191786D01*
X38051Y192055D01*
X38224Y192362D01*
X38301Y192516D01*
X38359Y192689D01*
X38378Y192862D01*
X38397Y193054D01*
Y193073D01*
Y193093D01*
X38378Y193150D01*
X38340Y193227D01*
X38282Y193304D01*
X38205Y193381D01*
X38109Y193477D01*
X37955Y193573D01*
X37936Y193592D01*
X37878Y193612D01*
X37801Y193650D01*
X37686Y193708D01*
X37417Y193804D01*
X37263Y193823D01*
X37110Y193842D01*
X36975D01*
X36840Y193804D01*
X36648Y193765D01*
X36418Y193688D01*
X36149Y193573D01*
X35860Y193400D01*
X35553Y193189D01*
X35514Y193169D01*
X35418Y193093D01*
X35284Y192977D01*
X35111Y192862D01*
X34918Y192747D01*
X34745Y192631D01*
X34572Y192554D01*
X34438Y192535D01*
X34380D01*
X34303Y192554D01*
X34227D01*
X34015Y192612D01*
X33784Y192708D01*
X33765Y192727D01*
X33727Y192747D01*
X33688Y192804D01*
X33631Y192862D01*
X33515Y193054D01*
X33477Y193189D01*
X33458Y193323D01*
Y193342D01*
Y193400D01*
X33477Y193477D01*
X33496Y193573D01*
X33535Y193688D01*
X33592Y193804D01*
X33669Y193938D01*
X33784Y194053D01*
X33804D01*
X33823Y194092D01*
X33919Y194169D01*
X34092Y194303D01*
X34284Y194457D01*
X34515Y194630D01*
X34765Y194822D01*
X35015Y194976D01*
X35245Y195130D01*
X35264D01*
X35284Y195149D01*
X35399Y195207D01*
X35591Y195284D01*
X35822Y195380D01*
X36091Y195476D01*
X36418Y195553D01*
X36764Y195610D01*
X37110Y195630D01*
X37302D01*
X37417Y195610D01*
D02*
G37*
G36*
X37667Y180035D02*
X37763Y180016D01*
X37897Y179958D01*
X38013Y179882D01*
X38109Y179747D01*
X38186Y179555D01*
X38205Y179305D01*
Y179267D01*
Y179151D01*
Y178959D01*
Y178709D01*
X38186Y178382D01*
X38166Y177979D01*
X38147Y177517D01*
X38128Y176979D01*
Y176960D01*
Y176902D01*
Y176826D01*
Y176710D01*
X38109Y176557D01*
Y176364D01*
Y176153D01*
Y175884D01*
X38089Y175615D01*
Y175288D01*
Y174942D01*
Y174558D01*
X38070Y174135D01*
Y173693D01*
Y173212D01*
Y172713D01*
Y171060D01*
X38589D01*
X38647Y171040D01*
X38743Y171021D01*
X38974Y170944D01*
X39089Y170887D01*
X39185Y170791D01*
X39204Y170771D01*
X39224Y170752D01*
X39281Y170694D01*
X39339Y170617D01*
X39435Y170425D01*
X39454Y170310D01*
X39473Y170176D01*
Y170156D01*
Y170118D01*
X39454Y170041D01*
X39435Y169945D01*
X39397Y169849D01*
X39358Y169753D01*
X39281Y169637D01*
X39185Y169541D01*
X39166Y169522D01*
X39147Y169503D01*
X39070Y169464D01*
X38993Y169426D01*
X38781Y169330D01*
X38666Y169311D01*
X38512Y169291D01*
X35649D01*
X35572Y169311D01*
X35360Y169330D01*
X35130Y169387D01*
X34880Y169483D01*
X34688Y169637D01*
X34591Y169733D01*
X34534Y169829D01*
X34495Y169964D01*
X34476Y170099D01*
Y170118D01*
Y170137D01*
X34495Y170252D01*
X34553Y170387D01*
X34668Y170560D01*
X34745Y170656D01*
X34841Y170733D01*
X34957Y170810D01*
X35091Y170887D01*
X35264Y170944D01*
X35456Y170983D01*
X35687Y171002D01*
X35937Y171021D01*
X36244D01*
Y177152D01*
X36225Y177133D01*
X36148Y177095D01*
X36033Y177018D01*
X35918Y176960D01*
X35649Y176806D01*
X35533Y176768D01*
X35456Y176749D01*
X35399D01*
X35322Y176768D01*
X35226Y176787D01*
X34995Y176864D01*
X34880Y176922D01*
X34764Y177018D01*
X34745Y177037D01*
X34726Y177075D01*
X34688Y177114D01*
X34630Y177191D01*
X34534Y177402D01*
X34515Y177517D01*
X34495Y177652D01*
Y177671D01*
Y177710D01*
X34515Y177787D01*
X34553Y177902D01*
X34611Y178017D01*
X34688Y178152D01*
X34803Y178286D01*
X34957Y178440D01*
X35726Y178997D01*
X36571Y179670D01*
X36590Y179689D01*
X36667Y179728D01*
X36763Y179786D01*
X36898Y179862D01*
X37052Y179939D01*
X37205Y179997D01*
X37398Y180035D01*
X37571Y180054D01*
X37590D01*
X37667Y180035D01*
D02*
G37*
G36*
X38719Y225311D02*
X38815D01*
X39046Y225234D01*
X39161Y225196D01*
X39276Y225119D01*
X39295Y225099D01*
X39334Y225080D01*
X39391Y225023D01*
X39468Y224946D01*
X39526Y224830D01*
X39584Y224715D01*
X39622Y224581D01*
X39641Y224408D01*
Y219237D01*
X39776D01*
X39930Y219218D01*
X40122Y219199D01*
X40314Y219180D01*
X40525Y219141D01*
X40698Y219103D01*
X40833Y219045D01*
X40852D01*
X40891Y219007D01*
X40948Y218949D01*
X41006Y218891D01*
X41064Y218776D01*
X41121Y218661D01*
X41160Y218507D01*
X41179Y218315D01*
Y218296D01*
Y218219D01*
X41160Y218123D01*
X41121Y218007D01*
X41044Y217873D01*
X40948Y217738D01*
X40814Y217623D01*
X40641Y217527D01*
X40622D01*
X40583Y217508D01*
X40487Y217488D01*
X40372Y217450D01*
X40237Y217431D01*
X40064Y217411D01*
X39641D01*
Y217392D01*
Y217373D01*
Y217315D01*
Y217238D01*
Y217027D01*
Y216777D01*
Y216451D01*
Y216085D01*
Y215682D01*
X39622Y215259D01*
Y215240D01*
Y215201D01*
X39603Y215124D01*
X39584Y215028D01*
X39526Y214836D01*
X39449Y214721D01*
X39372Y214625D01*
X39353D01*
X39334Y214586D01*
X39276Y214548D01*
X39199Y214509D01*
X39103Y214471D01*
X39007Y214432D01*
X38873Y214413D01*
X38719Y214394D01*
X38680D01*
X38565Y214413D01*
X38392Y214471D01*
X38200Y214567D01*
X38123Y214644D01*
X38027Y214721D01*
X37950Y214836D01*
X37873Y214971D01*
X37815Y215124D01*
X37758Y215317D01*
X37738Y215528D01*
Y215759D01*
Y217411D01*
X34759D01*
X34625Y217431D01*
X34452D01*
X34279Y217469D01*
X33875Y217527D01*
X33452Y217642D01*
X33279Y217700D01*
X33106Y217796D01*
X32972Y217892D01*
X32857Y218026D01*
X32780Y218161D01*
X32761Y218315D01*
Y218334D01*
Y218373D01*
X32780Y218449D01*
X32818Y218565D01*
X32857Y218680D01*
X32914Y218834D01*
X33010Y218987D01*
X33145Y219161D01*
X33164Y219180D01*
X33203Y219218D01*
X33260Y219295D01*
X33337Y219372D01*
X33549Y219603D01*
X33779Y219872D01*
X33798Y219891D01*
X33837Y219949D01*
X33895Y220045D01*
X33991Y220179D01*
X34106Y220333D01*
X34260Y220544D01*
X34433Y220775D01*
X34625Y221063D01*
X34855Y221371D01*
X35105Y221736D01*
X35375Y222120D01*
X35682Y222543D01*
X36028Y223005D01*
X36374Y223504D01*
X36758Y224023D01*
X37181Y224600D01*
X37200Y224638D01*
X37277Y224715D01*
X37393Y224830D01*
X37566Y224965D01*
X37758Y225099D01*
X37988Y225215D01*
X38258Y225292D01*
X38565Y225330D01*
X38642D01*
X38719Y225311D01*
D02*
G37*
G36*
Y122949D02*
X38815D01*
X39046Y122872D01*
X39161Y122833D01*
X39276Y122757D01*
X39295Y122737D01*
X39334Y122718D01*
X39391Y122660D01*
X39468Y122583D01*
X39526Y122468D01*
X39584Y122353D01*
X39622Y122218D01*
X39641Y122045D01*
Y116875D01*
X39776D01*
X39930Y116856D01*
X40122Y116837D01*
X40314Y116817D01*
X40525Y116779D01*
X40698Y116741D01*
X40833Y116683D01*
X40852D01*
X40891Y116645D01*
X40948Y116587D01*
X41006Y116529D01*
X41064Y116414D01*
X41121Y116299D01*
X41160Y116145D01*
X41179Y115953D01*
Y115933D01*
Y115857D01*
X41160Y115760D01*
X41121Y115645D01*
X41044Y115511D01*
X40948Y115376D01*
X40814Y115261D01*
X40641Y115165D01*
X40622D01*
X40583Y115145D01*
X40487Y115126D01*
X40372Y115088D01*
X40237Y115068D01*
X40064Y115049D01*
X39641D01*
Y115030D01*
Y115011D01*
Y114953D01*
Y114876D01*
Y114665D01*
Y114415D01*
Y114088D01*
Y113723D01*
Y113320D01*
X39622Y112897D01*
Y112877D01*
Y112839D01*
X39603Y112762D01*
X39584Y112666D01*
X39526Y112474D01*
X39449Y112358D01*
X39372Y112262D01*
X39353D01*
X39334Y112224D01*
X39276Y112186D01*
X39199Y112147D01*
X39103Y112109D01*
X39007Y112070D01*
X38873Y112051D01*
X38719Y112032D01*
X38680D01*
X38565Y112051D01*
X38392Y112109D01*
X38200Y112205D01*
X38123Y112282D01*
X38027Y112358D01*
X37950Y112474D01*
X37873Y112608D01*
X37815Y112762D01*
X37758Y112954D01*
X37738Y113166D01*
Y113396D01*
Y115049D01*
X34759D01*
X34625Y115068D01*
X34452D01*
X34279Y115107D01*
X33875Y115165D01*
X33452Y115280D01*
X33279Y115338D01*
X33106Y115434D01*
X32972Y115530D01*
X32857Y115664D01*
X32780Y115799D01*
X32761Y115953D01*
Y115972D01*
Y116010D01*
X32780Y116087D01*
X32818Y116202D01*
X32857Y116318D01*
X32914Y116472D01*
X33010Y116625D01*
X33145Y116798D01*
X33164Y116817D01*
X33203Y116856D01*
X33260Y116933D01*
X33337Y117010D01*
X33549Y117240D01*
X33779Y117509D01*
X33798Y117529D01*
X33837Y117586D01*
X33895Y117682D01*
X33991Y117817D01*
X34106Y117971D01*
X34260Y118182D01*
X34433Y118413D01*
X34625Y118701D01*
X34855Y119009D01*
X35105Y119374D01*
X35375Y119758D01*
X35682Y120181D01*
X36028Y120642D01*
X36374Y121142D01*
X36758Y121661D01*
X37181Y122238D01*
X37200Y122276D01*
X37277Y122353D01*
X37393Y122468D01*
X37566Y122603D01*
X37758Y122737D01*
X37988Y122853D01*
X38258Y122930D01*
X38565Y122968D01*
X38642D01*
X38719Y122949D01*
D02*
G37*
G36*
X37020Y61245D02*
X37154D01*
X37450Y61138D01*
X37612Y61057D01*
X37746Y60949D01*
X37773Y60922D01*
X37800Y60896D01*
X37934Y60734D01*
X38069Y60465D01*
X38096Y60304D01*
X38123Y60142D01*
Y60115D01*
Y60035D01*
X38096Y59900D01*
X38069Y59685D01*
Y59631D01*
Y59496D01*
X38042Y59335D01*
Y59200D01*
X38069Y58527D01*
X38204D01*
X38284Y58501D01*
X38715D01*
X38957Y58527D01*
X39038D01*
X39199Y58554D01*
X39764D01*
X39899Y58527D01*
X40195Y58501D01*
X40572Y58393D01*
X40949Y58258D01*
X41245Y58043D01*
X41379Y57909D01*
X41487Y57747D01*
X41541Y57559D01*
X41567Y57344D01*
Y57317D01*
Y57263D01*
X41541Y57182D01*
X41514Y57074D01*
X41433Y56805D01*
X41325Y56671D01*
X41217Y56536D01*
X41191Y56509D01*
X41164Y56482D01*
X41083Y56428D01*
X40975Y56348D01*
X40706Y56213D01*
X40518Y56186D01*
X40330Y56160D01*
X40114D01*
X39953Y56186D01*
X39926D01*
X39845Y56213D01*
X39737Y56240D01*
X39199D01*
X38849Y56213D01*
X38069D01*
Y56186D01*
Y56160D01*
Y56079D01*
Y55998D01*
Y55702D01*
Y55352D01*
Y55325D01*
Y55244D01*
Y55137D01*
Y55002D01*
X38042Y54706D01*
Y54599D01*
Y54518D01*
Y54491D01*
Y54437D01*
X38015Y54356D01*
X37988Y54249D01*
X37908Y53980D01*
X37800Y53845D01*
X37692Y53711D01*
X37665D01*
X37639Y53657D01*
X37558Y53630D01*
X37450Y53576D01*
X37181Y53468D01*
X36993Y53442D01*
X36804Y53415D01*
X36724D01*
X36616Y53442D01*
X36508Y53468D01*
X36212Y53549D01*
X36051Y53630D01*
X35916Y53737D01*
X35889Y53764D01*
X35862Y53791D01*
X35755Y53953D01*
X35620Y54222D01*
X35593Y54383D01*
X35566Y54545D01*
Y54599D01*
Y54706D01*
Y54787D01*
Y54895D01*
Y55029D01*
Y55191D01*
Y55379D01*
Y55621D01*
Y55890D01*
Y56213D01*
X35432D01*
X35297Y56186D01*
X35136D01*
X34705Y56160D01*
X34167D01*
X34033Y56186D01*
X33871D01*
X33494Y56267D01*
X33064Y56402D01*
X33037Y56428D01*
X32956Y56455D01*
X32849Y56536D01*
X32741Y56644D01*
X32633Y56778D01*
X32526Y56913D01*
X32445Y57101D01*
X32418Y57317D01*
Y57344D01*
Y57451D01*
X32445Y57559D01*
X32499Y57720D01*
X32552Y57882D01*
X32660Y58043D01*
X32822Y58178D01*
X33010Y58285D01*
X33037D01*
X33091Y58312D01*
X33171Y58339D01*
X33306Y58366D01*
X33468D01*
X33683Y58393D01*
X33952Y58420D01*
X34651D01*
X34840Y58447D01*
X35055D01*
X35566Y58474D01*
Y58501D01*
Y58554D01*
Y58662D01*
X35539Y58851D01*
Y58877D01*
Y58904D01*
Y59012D01*
Y59173D01*
Y59335D01*
Y59362D01*
Y59416D01*
Y59523D01*
X35566Y59631D01*
X35620Y59954D01*
X35701Y60304D01*
X35862Y60653D01*
X36078Y60976D01*
X36239Y61084D01*
X36401Y61192D01*
X36616Y61245D01*
X36831Y61272D01*
X36912D01*
X37020Y61245D01*
D02*
G37*
G36*
Y163608D02*
X37154D01*
X37450Y163500D01*
X37612Y163419D01*
X37746Y163312D01*
X37773Y163285D01*
X37800Y163258D01*
X37934Y163096D01*
X38069Y162827D01*
X38096Y162666D01*
X38123Y162504D01*
Y162477D01*
Y162397D01*
X38096Y162262D01*
X38069Y162047D01*
Y161993D01*
Y161858D01*
X38042Y161697D01*
Y161563D01*
X38069Y160890D01*
X38204D01*
X38284Y160863D01*
X38715D01*
X38957Y160890D01*
X39038D01*
X39199Y160917D01*
X39764D01*
X39899Y160890D01*
X40195Y160863D01*
X40572Y160755D01*
X40949Y160621D01*
X41245Y160405D01*
X41379Y160271D01*
X41487Y160109D01*
X41541Y159921D01*
X41567Y159706D01*
Y159679D01*
Y159625D01*
X41541Y159544D01*
X41514Y159437D01*
X41433Y159168D01*
X41325Y159033D01*
X41217Y158898D01*
X41191Y158871D01*
X41164Y158845D01*
X41083Y158791D01*
X40975Y158710D01*
X40706Y158575D01*
X40518Y158549D01*
X40330Y158522D01*
X40114D01*
X39953Y158549D01*
X39926D01*
X39845Y158575D01*
X39737Y158602D01*
X39199D01*
X38849Y158575D01*
X38069D01*
Y158549D01*
Y158522D01*
Y158441D01*
Y158360D01*
Y158064D01*
Y157714D01*
Y157687D01*
Y157607D01*
Y157499D01*
Y157364D01*
X38042Y157069D01*
Y156961D01*
Y156880D01*
Y156853D01*
Y156799D01*
X38015Y156719D01*
X37988Y156611D01*
X37908Y156342D01*
X37800Y156207D01*
X37692Y156073D01*
X37665D01*
X37639Y156019D01*
X37558Y155992D01*
X37450Y155938D01*
X37181Y155831D01*
X36993Y155804D01*
X36804Y155777D01*
X36724D01*
X36616Y155804D01*
X36508Y155831D01*
X36212Y155911D01*
X36051Y155992D01*
X35916Y156100D01*
X35889Y156127D01*
X35862Y156154D01*
X35755Y156315D01*
X35620Y156584D01*
X35593Y156746D01*
X35566Y156907D01*
Y156961D01*
Y157069D01*
Y157149D01*
Y157257D01*
Y157391D01*
Y157553D01*
Y157741D01*
Y157984D01*
Y158253D01*
Y158575D01*
X35432D01*
X35297Y158549D01*
X35136D01*
X34705Y158522D01*
X34167D01*
X34033Y158549D01*
X33871D01*
X33494Y158629D01*
X33064Y158764D01*
X33037Y158791D01*
X32956Y158818D01*
X32849Y158898D01*
X32741Y159006D01*
X32633Y159141D01*
X32526Y159275D01*
X32445Y159464D01*
X32418Y159679D01*
Y159706D01*
Y159813D01*
X32445Y159921D01*
X32499Y160082D01*
X32552Y160244D01*
X32660Y160405D01*
X32822Y160540D01*
X33010Y160648D01*
X33037D01*
X33091Y160675D01*
X33171Y160701D01*
X33306Y160728D01*
X33468D01*
X33683Y160755D01*
X33952Y160782D01*
X34651D01*
X34840Y160809D01*
X35055D01*
X35566Y160836D01*
Y160863D01*
Y160917D01*
Y161024D01*
X35539Y161213D01*
Y161240D01*
Y161267D01*
Y161374D01*
Y161536D01*
Y161697D01*
Y161724D01*
Y161778D01*
Y161885D01*
X35566Y161993D01*
X35620Y162316D01*
X35701Y162666D01*
X35862Y163016D01*
X36078Y163339D01*
X36239Y163446D01*
X36401Y163554D01*
X36616Y163608D01*
X36831Y163635D01*
X36912D01*
X37020Y163608D01*
D02*
G37*
G36*
X153137Y63721D02*
X153233Y63701D01*
X153349Y63663D01*
X153464Y63625D01*
X153579Y63548D01*
X153694Y63451D01*
X153714Y63432D01*
X153752Y63413D01*
X153791Y63355D01*
X153848Y63279D01*
X153964Y63067D01*
X153983Y62933D01*
X154002Y62798D01*
Y62779D01*
Y62740D01*
Y62702D01*
X153983Y62625D01*
X153925Y62433D01*
X153810Y62241D01*
X153791Y62221D01*
X153752Y62145D01*
X153675Y62029D01*
X153579Y61875D01*
X153464Y61683D01*
X153349Y61472D01*
X153233Y61222D01*
X153118Y60953D01*
X153099Y60934D01*
X153079Y60876D01*
X153041Y60761D01*
X152983Y60607D01*
X152945Y60492D01*
X152907Y60357D01*
X152849Y60203D01*
X152772Y60030D01*
X152695Y59819D01*
X152618Y59588D01*
Y59569D01*
X152580Y59511D01*
X152560Y59415D01*
X152503Y59281D01*
X152426Y59127D01*
X152349Y58916D01*
X152253Y58666D01*
X152157Y58397D01*
X152022Y58070D01*
X151888Y57724D01*
X151734Y57320D01*
X151561Y56897D01*
X151388Y56436D01*
X151196Y55917D01*
X150985Y55379D01*
X150754Y54803D01*
X150735Y54764D01*
X150696Y54668D01*
X150638Y54495D01*
X150542Y54284D01*
X150427Y54034D01*
X150293Y53745D01*
X149985Y53150D01*
X149966Y53130D01*
X149927Y53073D01*
X149850Y52977D01*
X149754Y52881D01*
X149639Y52765D01*
X149485Y52688D01*
X149312Y52612D01*
X149120Y52592D01*
X149082D01*
X149005Y52612D01*
X148890Y52631D01*
X148736Y52669D01*
X148563Y52765D01*
X148409Y52881D01*
X148255Y53034D01*
X148140Y53265D01*
Y53284D01*
X148101Y53361D01*
X148063Y53476D01*
X147986Y53630D01*
X147909Y53842D01*
X147813Y54091D01*
X147717Y54399D01*
X147583Y54745D01*
X147448Y55129D01*
X147313Y55552D01*
X147160Y56033D01*
X146987Y56551D01*
X146814Y57109D01*
X146641Y57724D01*
X146449Y58358D01*
X146256Y59050D01*
Y59069D01*
X146237Y59089D01*
X146218Y59204D01*
X146160Y59396D01*
X146083Y59627D01*
X146007Y59915D01*
X145910Y60223D01*
X145814Y60568D01*
X145699Y60914D01*
Y60934D01*
X145680Y60972D01*
X145661Y61030D01*
X145641Y61126D01*
X145584Y61357D01*
X145507Y61626D01*
X145430Y61914D01*
X145372Y62221D01*
X145334Y62490D01*
X145315Y62702D01*
Y62721D01*
Y62779D01*
X145334Y62856D01*
X145353Y62952D01*
X145391Y63048D01*
X145430Y63182D01*
X145507Y63279D01*
X145603Y63394D01*
X145622Y63413D01*
X145661Y63432D01*
X145718Y63471D01*
X145795Y63528D01*
X146007Y63605D01*
X146141Y63625D01*
X146276Y63644D01*
X146314D01*
X146391Y63625D01*
X146506Y63605D01*
X146641Y63567D01*
X146794Y63471D01*
X146948Y63355D01*
X147102Y63182D01*
X147217Y62952D01*
Y62933D01*
X147237Y62856D01*
X147275Y62721D01*
X147294Y62567D01*
X147352Y62394D01*
X147390Y62183D01*
X147486Y61760D01*
X147506Y61722D01*
X147525Y61626D01*
X147583Y61453D01*
X147659Y61203D01*
X147756Y60876D01*
X147852Y60492D01*
X147986Y60030D01*
X148140Y59511D01*
Y59492D01*
X148159Y59415D01*
X148198Y59319D01*
X148236Y59185D01*
X148275Y59012D01*
X148332Y58820D01*
X148390Y58589D01*
X148467Y58339D01*
X148620Y57801D01*
X148793Y57224D01*
X148986Y56609D01*
X149178Y56033D01*
X149197Y56071D01*
X149216Y56148D01*
X149274Y56283D01*
X149351Y56475D01*
X149428Y56686D01*
X149543Y56955D01*
X149658Y57244D01*
X149774Y57551D01*
X150023Y58205D01*
X150293Y58916D01*
X150562Y59588D01*
X150677Y59915D01*
X150792Y60223D01*
X150812Y60261D01*
X150850Y60357D01*
X150908Y60530D01*
X150985Y60722D01*
X151061Y60972D01*
X151157Y61260D01*
X151273Y61549D01*
X151388Y61856D01*
Y61875D01*
X151407Y61895D01*
X151465Y62029D01*
X151542Y62202D01*
X151657Y62414D01*
X151772Y62664D01*
X151926Y62913D01*
X152099Y63163D01*
X152272Y63375D01*
X152292Y63394D01*
X152330Y63432D01*
X152388Y63490D01*
X152484Y63567D01*
X152580Y63625D01*
X152714Y63682D01*
X152849Y63721D01*
X153003Y63740D01*
X153079D01*
X153137Y63721D01*
D02*
G37*
G36*
X132360Y63894D02*
X132456Y63874D01*
X132591Y63817D01*
X132706Y63740D01*
X132802Y63605D01*
X132879Y63413D01*
X132898Y63163D01*
Y63125D01*
Y63010D01*
Y62817D01*
Y62567D01*
X132879Y62241D01*
X132860Y61837D01*
X132841Y61376D01*
X132822Y60838D01*
Y60818D01*
Y60761D01*
Y60684D01*
Y60568D01*
X132802Y60415D01*
Y60223D01*
Y60011D01*
Y59742D01*
X132783Y59473D01*
Y59146D01*
Y58800D01*
Y58416D01*
X132764Y57993D01*
Y57551D01*
Y57070D01*
Y56571D01*
Y54918D01*
X133283D01*
X133341Y54899D01*
X133437Y54879D01*
X133667Y54803D01*
X133783Y54745D01*
X133879Y54649D01*
X133898Y54629D01*
X133917Y54610D01*
X133975Y54553D01*
X134032Y54476D01*
X134129Y54284D01*
X134148Y54168D01*
X134167Y54034D01*
Y54014D01*
Y53976D01*
X134148Y53899D01*
X134129Y53803D01*
X134090Y53707D01*
X134052Y53611D01*
X133975Y53496D01*
X133879Y53399D01*
X133860Y53380D01*
X133840Y53361D01*
X133763Y53323D01*
X133686Y53284D01*
X133475Y53188D01*
X133360Y53169D01*
X133206Y53150D01*
X130342D01*
X130265Y53169D01*
X130054Y53188D01*
X129823Y53246D01*
X129573Y53342D01*
X129381Y53496D01*
X129285Y53592D01*
X129227Y53688D01*
X129189Y53822D01*
X129170Y53957D01*
Y53976D01*
Y53995D01*
X129189Y54111D01*
X129247Y54245D01*
X129362Y54418D01*
X129439Y54514D01*
X129535Y54591D01*
X129650Y54668D01*
X129785Y54745D01*
X129958Y54803D01*
X130150Y54841D01*
X130381Y54860D01*
X130631Y54879D01*
X130938D01*
Y61011D01*
X130919Y60991D01*
X130842Y60953D01*
X130727Y60876D01*
X130611Y60818D01*
X130342Y60665D01*
X130227Y60626D01*
X130150Y60607D01*
X130092D01*
X130016Y60626D01*
X129919Y60645D01*
X129689Y60722D01*
X129573Y60780D01*
X129458Y60876D01*
X129439Y60895D01*
X129420Y60934D01*
X129381Y60972D01*
X129324Y61049D01*
X129227Y61260D01*
X129208Y61376D01*
X129189Y61510D01*
Y61529D01*
Y61568D01*
X129208Y61645D01*
X129247Y61760D01*
X129304Y61875D01*
X129381Y62010D01*
X129497Y62145D01*
X129650Y62298D01*
X130419Y62856D01*
X131265Y63528D01*
X131284Y63548D01*
X131361Y63586D01*
X131457Y63644D01*
X131591Y63721D01*
X131745Y63797D01*
X131899Y63855D01*
X132091Y63894D01*
X132264Y63913D01*
X132283D01*
X132360Y63894D01*
D02*
G37*
G36*
X19685Y273622D02*
D01*
X19685Y255906D01*
X37402Y255906D01*
X37402Y254744D01*
X37098Y252442D01*
X36497Y250199D01*
X35609Y248053D01*
X34447Y246042D01*
X33034Y244199D01*
X31391Y242557D01*
X29549Y241143D01*
X27538Y239982D01*
X25392Y239093D01*
X23149Y238492D01*
X20846Y238189D01*
X19685Y238189D01*
X19685D01*
X19685Y255906D01*
X1969D01*
X1969Y257067D01*
X2272Y259369D01*
X2873Y261613D01*
X3761Y263758D01*
X4923Y265769D01*
X6336Y267612D01*
X7979Y269254D01*
X9821Y270668D01*
X11832Y271829D01*
X13978Y272718D01*
X16221Y273319D01*
X18524Y273622D01*
X19685Y273622D01*
Y273622D01*
Y273622D01*
D02*
G37*
G36*
Y37402D02*
D01*
X19685Y19685D01*
X37402Y19685D01*
X37402Y18524D01*
X37098Y16221D01*
X36497Y13978D01*
X35609Y11832D01*
X34447Y9821D01*
X33034Y7979D01*
X31391Y6336D01*
X29549Y4923D01*
X27538Y3761D01*
X25392Y2873D01*
X23149Y2272D01*
X20846Y1969D01*
X19685Y1969D01*
X19685D01*
X19685Y19685D01*
X1969D01*
X1969Y20846D01*
X2272Y23149D01*
X2873Y25392D01*
X3761Y27538D01*
X4923Y29549D01*
X6336Y31391D01*
X7979Y33034D01*
X9821Y34447D01*
X11832Y35609D01*
X13978Y36497D01*
X16221Y37099D01*
X18524Y37402D01*
X19685Y37402D01*
Y37402D01*
Y37402D01*
D02*
G37*
G36*
X177165D02*
D01*
X177165Y19685D01*
X194882Y19685D01*
X194882Y18524D01*
X194579Y16221D01*
X193978Y13978D01*
X193089Y11832D01*
X191928Y9821D01*
X190514Y7979D01*
X188872Y6336D01*
X187029Y4923D01*
X185018Y3761D01*
X182872Y2873D01*
X180629Y2272D01*
X178326Y1969D01*
X177165Y1969D01*
X177165D01*
X177165Y19685D01*
X159449D01*
X159449Y20846D01*
X159752Y23149D01*
X160353Y25392D01*
X161242Y27538D01*
X162403Y29549D01*
X163817Y31391D01*
X165459Y33034D01*
X167301Y34447D01*
X169313Y35609D01*
X171458Y36497D01*
X173702Y37099D01*
X176004Y37402D01*
X177165Y37402D01*
Y37402D01*
Y37402D01*
D02*
G37*
G36*
X123365Y60338D02*
X123461D01*
X123673Y60261D01*
X123788Y60203D01*
X123884Y60127D01*
X123904Y60107D01*
X123923Y60088D01*
X124019Y59973D01*
X124115Y59781D01*
X124134Y59665D01*
X124153Y59550D01*
Y59531D01*
Y59473D01*
X124134Y59377D01*
X124115Y59223D01*
Y59185D01*
Y59089D01*
X124096Y58973D01*
Y58877D01*
X124115Y58397D01*
X124211D01*
X124269Y58377D01*
X124576D01*
X124749Y58397D01*
X124807D01*
X124922Y58416D01*
X125326D01*
X125422Y58397D01*
X125633Y58377D01*
X125902Y58301D01*
X126172Y58205D01*
X126383Y58051D01*
X126479Y57955D01*
X126556Y57839D01*
X126594Y57705D01*
X126613Y57551D01*
Y57532D01*
Y57493D01*
X126594Y57436D01*
X126575Y57359D01*
X126517Y57167D01*
X126441Y57070D01*
X126364Y56974D01*
X126345Y56955D01*
X126325Y56936D01*
X126268Y56897D01*
X126191Y56840D01*
X125998Y56744D01*
X125864Y56725D01*
X125729Y56705D01*
X125576D01*
X125460Y56725D01*
X125441D01*
X125383Y56744D01*
X125307Y56763D01*
X124922D01*
X124672Y56744D01*
X124115D01*
Y56725D01*
Y56705D01*
Y56648D01*
Y56590D01*
Y56379D01*
Y56129D01*
Y56109D01*
Y56052D01*
Y55975D01*
Y55879D01*
X124096Y55667D01*
Y55590D01*
Y55533D01*
Y55514D01*
Y55475D01*
X124076Y55418D01*
X124057Y55341D01*
X124000Y55149D01*
X123923Y55052D01*
X123846Y54956D01*
X123827D01*
X123807Y54918D01*
X123750Y54899D01*
X123673Y54860D01*
X123481Y54783D01*
X123346Y54764D01*
X123212Y54745D01*
X123154D01*
X123077Y54764D01*
X123000Y54783D01*
X122789Y54841D01*
X122673Y54899D01*
X122577Y54975D01*
X122558Y54995D01*
X122539Y55014D01*
X122462Y55129D01*
X122366Y55322D01*
X122347Y55437D01*
X122327Y55552D01*
Y55590D01*
Y55667D01*
Y55725D01*
Y55802D01*
Y55898D01*
Y56013D01*
Y56148D01*
Y56321D01*
Y56513D01*
Y56744D01*
X122231D01*
X122135Y56725D01*
X122020D01*
X121712Y56705D01*
X121328D01*
X121232Y56725D01*
X121117D01*
X120847Y56782D01*
X120540Y56878D01*
X120521Y56897D01*
X120463Y56917D01*
X120386Y56974D01*
X120309Y57051D01*
X120232Y57147D01*
X120156Y57244D01*
X120098Y57378D01*
X120079Y57532D01*
Y57551D01*
Y57628D01*
X120098Y57705D01*
X120136Y57820D01*
X120175Y57935D01*
X120252Y58051D01*
X120367Y58147D01*
X120502Y58224D01*
X120521D01*
X120559Y58243D01*
X120617Y58262D01*
X120713Y58281D01*
X120828D01*
X120982Y58301D01*
X121174Y58320D01*
X121674D01*
X121809Y58339D01*
X121962D01*
X122327Y58358D01*
Y58377D01*
Y58416D01*
Y58493D01*
X122308Y58627D01*
Y58647D01*
Y58666D01*
Y58743D01*
Y58858D01*
Y58973D01*
Y58992D01*
Y59031D01*
Y59108D01*
X122327Y59185D01*
X122366Y59415D01*
X122424Y59665D01*
X122539Y59915D01*
X122693Y60146D01*
X122808Y60223D01*
X122923Y60299D01*
X123077Y60338D01*
X123231Y60357D01*
X123289D01*
X123365Y60338D01*
D02*
G37*
G36*
X141009Y63721D02*
X141125Y63701D01*
X141413Y63663D01*
X141740Y63586D01*
X142105Y63471D01*
X142470Y63317D01*
X142835Y63106D01*
X142854D01*
X142893Y63067D01*
X142931Y63029D01*
X143008Y62971D01*
X143181Y62817D01*
X143393Y62606D01*
X143604Y62337D01*
X143777Y62010D01*
X143854Y61837D01*
X143912Y61645D01*
X143931Y61433D01*
X143950Y61222D01*
Y61203D01*
Y61164D01*
Y61107D01*
Y61030D01*
X143931Y60818D01*
X143892Y60530D01*
X143815Y60223D01*
X143719Y59896D01*
X143585Y59569D01*
X143412Y59242D01*
X143393Y59223D01*
X143335Y59127D01*
X143239Y59012D01*
X143085Y58839D01*
X142893Y58647D01*
X142662Y58416D01*
X142393Y58185D01*
X142066Y57955D01*
X142028Y57935D01*
X141913Y57859D01*
X141740Y57762D01*
X141528Y57628D01*
X141278Y57455D01*
X140990Y57282D01*
X140356Y56878D01*
X140337D01*
X140298Y56840D01*
X140241Y56801D01*
X140144Y56725D01*
X139933Y56551D01*
X139683Y56321D01*
X139433Y56033D01*
X139222Y55687D01*
X139126Y55514D01*
X139049Y55322D01*
X138991Y55129D01*
X138953Y54937D01*
X139030D01*
X139107Y54956D01*
X139222D01*
X139395Y54975D01*
X139587Y54995D01*
X139798Y55014D01*
X140068Y55033D01*
X140202D01*
X140298Y55052D01*
X140567D01*
X140875Y55072D01*
X141221Y55091D01*
X141567D01*
X141893Y55110D01*
X142259D01*
X142374Y55091D01*
X142528Y55072D01*
X142720Y55052D01*
X142912Y54995D01*
X143123Y54937D01*
X143335Y54841D01*
X143373Y54822D01*
X143450Y54783D01*
X143566Y54726D01*
X143700Y54629D01*
X143835Y54514D01*
X143950Y54380D01*
X144027Y54207D01*
X144065Y54034D01*
Y54014D01*
Y53976D01*
X144046Y53899D01*
X144027Y53822D01*
X143950Y53630D01*
X143892Y53515D01*
X143796Y53419D01*
X143777Y53399D01*
X143758Y53380D01*
X143681Y53323D01*
X143604Y53284D01*
X143393Y53169D01*
X143277Y53150D01*
X143123Y53130D01*
X142989D01*
X142816Y53150D01*
X142585Y53169D01*
X142566D01*
X142528Y53188D01*
X142470D01*
X142393Y53207D01*
X142220Y53227D01*
X142086D01*
X140048Y53246D01*
X139856D01*
X139741Y53227D01*
X139606D01*
X139453Y53207D01*
X139260Y53188D01*
X139164D01*
X139068Y53169D01*
X138953D01*
X138703Y53150D01*
X138568Y53130D01*
X138319D01*
X138222Y53150D01*
X138203D01*
X138145Y53169D01*
X137915D01*
X137800Y53188D01*
X137684Y53227D01*
X137531Y53303D01*
X137396Y53380D01*
X137281Y53515D01*
X137185Y53688D01*
Y53707D01*
X137165Y53745D01*
X137146Y53822D01*
X137127Y53918D01*
X137088Y54053D01*
X137069Y54226D01*
X137050Y54418D01*
Y54649D01*
Y54668D01*
Y54706D01*
Y54783D01*
Y54860D01*
X137069Y54975D01*
X137088Y55110D01*
X137127Y55398D01*
X137185Y55744D01*
X137281Y56109D01*
X137415Y56475D01*
X137607Y56821D01*
X137627Y56859D01*
X137684Y56936D01*
X137800Y57070D01*
X137953Y57224D01*
X138145Y57436D01*
X138395Y57647D01*
X138684Y57897D01*
X139030Y58147D01*
X139049D01*
X139068Y58166D01*
X139126Y58205D01*
X139183Y58262D01*
X139376Y58377D01*
X139626Y58531D01*
X139895Y58723D01*
X140221Y58935D01*
X140548Y59146D01*
X140894Y59377D01*
X140913Y59396D01*
X140932Y59415D01*
X140990Y59454D01*
X141067Y59511D01*
X141240Y59684D01*
X141451Y59896D01*
X141644Y60165D01*
X141817Y60472D01*
X141893Y60626D01*
X141951Y60799D01*
X141970Y60972D01*
X141990Y61164D01*
Y61184D01*
Y61203D01*
X141970Y61260D01*
X141932Y61337D01*
X141874Y61414D01*
X141797Y61491D01*
X141701Y61587D01*
X141548Y61683D01*
X141528Y61703D01*
X141471Y61722D01*
X141394Y61760D01*
X141278Y61818D01*
X141009Y61914D01*
X140856Y61933D01*
X140702Y61952D01*
X140567D01*
X140433Y61914D01*
X140241Y61875D01*
X140010Y61799D01*
X139741Y61683D01*
X139453Y61510D01*
X139145Y61299D01*
X139107Y61280D01*
X139010Y61203D01*
X138876Y61088D01*
X138703Y60972D01*
X138511Y60857D01*
X138338Y60742D01*
X138165Y60665D01*
X138030Y60645D01*
X137973D01*
X137896Y60665D01*
X137819D01*
X137607Y60722D01*
X137377Y60818D01*
X137357Y60838D01*
X137319Y60857D01*
X137281Y60914D01*
X137223Y60972D01*
X137108Y61164D01*
X137069Y61299D01*
X137050Y61433D01*
Y61453D01*
Y61510D01*
X137069Y61587D01*
X137088Y61683D01*
X137127Y61799D01*
X137185Y61914D01*
X137261Y62049D01*
X137377Y62164D01*
X137396D01*
X137415Y62202D01*
X137511Y62279D01*
X137684Y62414D01*
X137876Y62567D01*
X138107Y62740D01*
X138357Y62933D01*
X138607Y63086D01*
X138838Y63240D01*
X138857D01*
X138876Y63259D01*
X138991Y63317D01*
X139183Y63394D01*
X139414Y63490D01*
X139683Y63586D01*
X140010Y63663D01*
X140356Y63721D01*
X140702Y63740D01*
X140894D01*
X141009Y63721D01*
D02*
G37*
G36*
X149709Y83194D02*
X149778Y83171D01*
X149870Y83136D01*
X149986Y83090D01*
X150147Y83032D01*
X150331Y82940D01*
X150343D01*
X150355Y82929D01*
X150435Y82894D01*
X150539Y82848D01*
X150666Y82790D01*
X150793Y82721D01*
X150919Y82664D01*
X151023Y82617D01*
X151058Y82606D01*
X151093Y82594D01*
X151104D01*
X151150Y82571D01*
X151208Y82548D01*
X151300Y82525D01*
X151404Y82479D01*
X151519Y82433D01*
X151657Y82364D01*
X151807Y82294D01*
X152130Y82122D01*
X152476Y81914D01*
X152822Y81672D01*
X153156Y81384D01*
X153168Y81372D01*
X153202Y81337D01*
X153249Y81291D01*
X153318Y81211D01*
X153399Y81119D01*
X153479Y81015D01*
X153571Y80888D01*
X153675Y80749D01*
X153768Y80588D01*
X153860Y80427D01*
X153940Y80242D01*
X154021Y80058D01*
X154090Y79862D01*
X154136Y79654D01*
X154171Y79435D01*
X154183Y79216D01*
Y79204D01*
Y79181D01*
Y79147D01*
Y79089D01*
X154171Y79031D01*
X154159Y78951D01*
X154136Y78778D01*
X154090Y78570D01*
X154033Y78340D01*
X153940Y78098D01*
X153825Y77855D01*
Y77844D01*
X153814Y77832D01*
X153790Y77798D01*
X153756Y77752D01*
X153675Y77625D01*
X153571Y77475D01*
X153433Y77314D01*
X153272Y77129D01*
X153076Y76956D01*
X152857Y76795D01*
X152845D01*
X152822Y76772D01*
X152787Y76760D01*
X152730Y76726D01*
X152661Y76691D01*
X152580Y76656D01*
X152476Y76622D01*
X152361Y76576D01*
X152234Y76530D01*
X152084Y76495D01*
X151934Y76460D01*
X151761Y76426D01*
X151577Y76403D01*
X151369Y76380D01*
X151162Y76357D01*
X150816D01*
X150724Y76368D01*
X150620Y76380D01*
X150505Y76391D01*
X150366Y76414D01*
X150228Y76449D01*
X150205D01*
X150147Y76472D01*
X150066Y76495D01*
X149963Y76518D01*
X149836Y76564D01*
X149709Y76610D01*
X149594Y76668D01*
X149478Y76726D01*
X149444D01*
X149398Y76737D01*
X149340Y76749D01*
X149202Y76795D01*
X149144Y76841D01*
X149075Y76887D01*
X149063Y76898D01*
X149052Y76921D01*
X149029Y76956D01*
X148994Y77002D01*
X148936Y77118D01*
X148925Y77198D01*
X148913Y77279D01*
Y77302D01*
Y77360D01*
Y77452D01*
Y77590D01*
X148925Y77763D01*
Y77982D01*
X148936Y78236D01*
X148948Y78524D01*
Y78536D01*
Y78559D01*
Y78605D01*
X148959Y78663D01*
Y78732D01*
Y78812D01*
X148971Y78997D01*
X148983Y79193D01*
Y79400D01*
X148994Y79597D01*
Y79769D01*
Y79792D01*
Y79850D01*
Y79966D01*
Y80115D01*
Y80300D01*
X148983Y80542D01*
Y80819D01*
X148971Y81142D01*
Y81153D01*
Y81188D01*
Y81234D01*
Y81291D01*
Y81372D01*
Y81453D01*
Y81660D01*
X148959Y81879D01*
Y82110D01*
Y82329D01*
Y82525D01*
Y82537D01*
Y82560D01*
X148971Y82606D01*
X148983Y82664D01*
X149017Y82733D01*
X149052Y82813D01*
X149109Y82894D01*
X149179Y82975D01*
X149190Y82986D01*
X149213Y83009D01*
X149259Y83044D01*
X149317Y83090D01*
X149467Y83171D01*
X149548Y83194D01*
X149640Y83205D01*
X149674D01*
X149709Y83194D01*
D02*
G37*
G36*
X59974Y209230D02*
X60082Y209203D01*
X60351Y209095D01*
X60512Y209015D01*
X60647Y208880D01*
X60674Y208853D01*
X60701Y208826D01*
X60781Y208719D01*
X60835Y208611D01*
X60997Y208315D01*
X61024Y208154D01*
X61050Y207938D01*
Y207884D01*
Y207750D01*
X61024Y207508D01*
X60997Y207185D01*
Y207158D01*
X60970Y207104D01*
Y207023D01*
X60943Y206916D01*
X60916Y206673D01*
Y206485D01*
X60889Y203633D01*
Y203606D01*
Y203579D01*
Y203471D01*
Y203363D01*
X60916Y203202D01*
Y203014D01*
X60943Y202798D01*
X60970Y202529D01*
Y202502D01*
Y202395D01*
X60997Y202260D01*
Y202099D01*
X61024Y201749D01*
X61050Y201560D01*
Y201399D01*
Y201372D01*
Y201318D01*
Y201211D01*
X61024Y201076D01*
Y201049D01*
X60997Y200969D01*
Y200861D01*
Y200780D01*
Y200753D01*
Y200646D01*
X60970Y200484D01*
X60916Y200323D01*
X60808Y200107D01*
X60701Y199919D01*
X60512Y199758D01*
X60270Y199623D01*
X60243D01*
X60189Y199596D01*
X60082Y199569D01*
X59947Y199542D01*
X59759Y199488D01*
X59517Y199461D01*
X59248Y199435D01*
X58629D01*
X58467Y199461D01*
X58279Y199488D01*
X57875Y199542D01*
X57391Y199623D01*
X56880Y199758D01*
X56368Y199946D01*
X55884Y200215D01*
X55830Y200242D01*
X55722Y200323D01*
X55534Y200484D01*
X55319Y200699D01*
X55023Y200969D01*
X54727Y201318D01*
X54377Y201722D01*
X54027Y202206D01*
Y202233D01*
X54000Y202260D01*
X53946Y202341D01*
X53866Y202422D01*
X53704Y202691D01*
X53489Y203041D01*
X53220Y203417D01*
X52924Y203875D01*
X52628Y204332D01*
X52305Y204817D01*
X52278Y204843D01*
X52251Y204870D01*
X52197Y204951D01*
X52116Y205059D01*
X51874Y205301D01*
X51578Y205597D01*
X51201Y205866D01*
X50771Y206108D01*
X50556Y206216D01*
X50313Y206297D01*
X50071Y206324D01*
X49802Y206350D01*
X49748D01*
X49668Y206324D01*
X49560Y206270D01*
X49452Y206189D01*
X49345Y206081D01*
X49210Y205947D01*
X49076Y205732D01*
X49049Y205705D01*
X49022Y205624D01*
X48968Y205516D01*
X48887Y205355D01*
X48753Y204978D01*
X48726Y204763D01*
X48699Y204548D01*
Y204494D01*
Y204359D01*
X48753Y204171D01*
X48807Y203902D01*
X48914Y203579D01*
X49076Y203202D01*
X49318Y202798D01*
X49614Y202368D01*
X49641Y202314D01*
X49748Y202179D01*
X49910Y201991D01*
X50071Y201749D01*
X50233Y201480D01*
X50394Y201238D01*
X50502Y200995D01*
X50529Y200807D01*
Y200780D01*
Y200726D01*
X50502Y200619D01*
Y200511D01*
X50421Y200215D01*
X50287Y199892D01*
X50260Y199865D01*
X50233Y199811D01*
X50152Y199758D01*
X50071Y199677D01*
X49802Y199515D01*
X49614Y199461D01*
X49425Y199435D01*
X49318D01*
X49210Y199461D01*
X49076Y199488D01*
X48914Y199542D01*
X48753Y199623D01*
X48564Y199731D01*
X48403Y199892D01*
Y199919D01*
X48349Y199946D01*
X48241Y200080D01*
X48053Y200323D01*
X47838Y200592D01*
X47596Y200915D01*
X47326Y201265D01*
X47111Y201614D01*
X46896Y201937D01*
Y201964D01*
X46869Y201991D01*
X46788Y202152D01*
X46681Y202422D01*
X46546Y202745D01*
X46411Y203121D01*
X46304Y203579D01*
X46223Y204063D01*
X46196Y204548D01*
Y204574D01*
Y204628D01*
Y204709D01*
Y204817D01*
X46223Y204978D01*
X46250Y205139D01*
X46304Y205543D01*
X46411Y206001D01*
X46573Y206512D01*
X46788Y207023D01*
X47084Y207535D01*
Y207561D01*
X47138Y207615D01*
X47192Y207669D01*
X47273Y207777D01*
X47488Y208019D01*
X47784Y208315D01*
X48161Y208611D01*
X48618Y208853D01*
X48860Y208961D01*
X49129Y209042D01*
X49425Y209068D01*
X49721Y209095D01*
X49990D01*
X50287Y209068D01*
X50690Y209015D01*
X51121Y208907D01*
X51578Y208772D01*
X52036Y208584D01*
X52493Y208342D01*
X52520Y208315D01*
X52655Y208234D01*
X52816Y208100D01*
X53058Y207884D01*
X53327Y207615D01*
X53650Y207292D01*
X53973Y206916D01*
X54296Y206458D01*
X54323Y206404D01*
X54431Y206243D01*
X54565Y206001D01*
X54754Y205705D01*
X54996Y205355D01*
X55238Y204951D01*
X55803Y204063D01*
Y204036D01*
X55857Y203982D01*
X55911Y203902D01*
X56018Y203767D01*
X56261Y203471D01*
X56583Y203121D01*
X56987Y202771D01*
X57472Y202475D01*
X57714Y202341D01*
X57983Y202233D01*
X58252Y202152D01*
X58521Y202099D01*
Y202126D01*
Y202206D01*
X58494Y202314D01*
Y202475D01*
X58467Y202718D01*
X58440Y202987D01*
X58413Y203283D01*
X58386Y203660D01*
Y203686D01*
Y203740D01*
Y203848D01*
X58359Y203982D01*
Y204171D01*
Y204359D01*
X58333Y204790D01*
X58306Y205274D01*
Y205759D01*
X58279Y206216D01*
Y206404D01*
Y206593D01*
Y206620D01*
Y206727D01*
X58306Y206889D01*
X58333Y207104D01*
X58359Y207373D01*
X58440Y207642D01*
X58521Y207938D01*
X58656Y208234D01*
X58682Y208288D01*
X58736Y208396D01*
X58817Y208557D01*
X58951Y208746D01*
X59113Y208934D01*
X59301Y209095D01*
X59544Y209203D01*
X59786Y209257D01*
X59866D01*
X59974Y209230D01*
D02*
G37*
G36*
X47569Y197497D02*
X47596D01*
X47676Y197470D01*
X47838Y197443D01*
X47999Y197416D01*
X48403Y197336D01*
X48807Y197309D01*
X49129D01*
X49264Y197282D01*
X49452D01*
X49641Y197255D01*
X49721D01*
X49829Y197228D01*
X49964D01*
X50233Y197201D01*
X51175D01*
X51551Y197174D01*
X52036D01*
X52601Y197147D01*
X53247Y197120D01*
X53543D01*
X53866Y197093D01*
X54269D01*
X54700Y197066D01*
X55157D01*
X55588Y197040D01*
X56503D01*
X56799Y197066D01*
X57149D01*
X57579Y197093D01*
X58090Y197120D01*
X58144D01*
X58306Y197147D01*
X58575D01*
X58871Y197174D01*
X59221Y197201D01*
X59570D01*
X59893Y197228D01*
X60270D01*
X60378Y197201D01*
X60512Y197174D01*
X60647Y197120D01*
X60781Y197066D01*
X60943Y196959D01*
X61077Y196824D01*
X61104Y196797D01*
X61131Y196771D01*
X61185Y196690D01*
X61266Y196582D01*
X61400Y196286D01*
X61427Y196098D01*
X61454Y195909D01*
Y195882D01*
Y195802D01*
X61427Y195694D01*
X61400Y195560D01*
X61293Y195237D01*
X61212Y195075D01*
X61104Y194914D01*
X61077Y194887D01*
X61050Y194860D01*
X60970Y194779D01*
X60862Y194725D01*
X60593Y194564D01*
X60405Y194537D01*
X60216Y194510D01*
X59382D01*
X59032Y194483D01*
X58602D01*
X58117Y194456D01*
X57875D01*
X57633Y194429D01*
X56960D01*
X56610Y194402D01*
X55319D01*
X54996Y194429D01*
Y194402D01*
Y194349D01*
Y194268D01*
X55023Y194160D01*
Y193999D01*
X55050Y193837D01*
Y193622D01*
X55076Y193380D01*
X55157Y192842D01*
X55238Y192196D01*
X55346Y191469D01*
X55480Y190662D01*
Y190635D01*
X55507Y190581D01*
Y190474D01*
X55534Y190339D01*
X55561Y190178D01*
X55615Y189989D01*
X55642Y189747D01*
X55695Y189505D01*
X55803Y188940D01*
X55911Y188321D01*
X56018Y187648D01*
X56153Y186948D01*
X56422D01*
X56637Y186922D01*
X56933Y186895D01*
X57283D01*
X57714Y186841D01*
X58225Y186814D01*
X58440D01*
X58656Y186787D01*
X58951D01*
X59275Y186760D01*
X59624D01*
X59974Y186733D01*
X60378D01*
X60458Y186706D01*
X60566Y186679D01*
X60835Y186572D01*
X60970Y186491D01*
X61104Y186356D01*
X61131Y186329D01*
X61158Y186302D01*
X61212Y186195D01*
X61266Y186087D01*
X61400Y185791D01*
X61427Y185630D01*
X61454Y185415D01*
Y185388D01*
Y185334D01*
X61427Y185226D01*
X61400Y185092D01*
X61293Y184769D01*
X61212Y184634D01*
X61104Y184473D01*
X61077Y184446D01*
X61050Y184419D01*
X60970Y184365D01*
X60862Y184311D01*
X60593Y184177D01*
X60432Y184150D01*
X60243Y184123D01*
X59840D01*
X59517Y184150D01*
X59113D01*
X58629Y184177D01*
X58064Y184204D01*
X57391Y184257D01*
X57310D01*
X57202Y184284D01*
X56906D01*
X56745Y184311D01*
X56314Y184338D01*
X55857Y184365D01*
X55373Y184392D01*
X54942Y184419D01*
X53381D01*
X53112Y184446D01*
X51767D01*
X51336Y184473D01*
X50663D01*
X50502Y184500D01*
X50071D01*
X49533Y184527D01*
X48941D01*
X48322Y184553D01*
X47165D01*
X47057Y184580D01*
X46950Y184607D01*
X46654Y184715D01*
X46519Y184796D01*
X46385Y184903D01*
X46358Y184930D01*
X46331Y184984D01*
X46277Y185065D01*
X46196Y185172D01*
X46062Y185468D01*
X46035Y185630D01*
X46008Y185845D01*
Y185872D01*
Y185953D01*
X46035Y186033D01*
X46062Y186168D01*
X46169Y186491D01*
X46250Y186652D01*
X46385Y186787D01*
X46411Y186814D01*
X46438Y186841D01*
X46519Y186895D01*
X46627Y186975D01*
X46923Y187110D01*
X47111Y187137D01*
X47300Y187164D01*
X47838D01*
X48161Y187137D01*
X48537D01*
X48995Y187110D01*
X49506Y187083D01*
X49748D01*
X50017Y187056D01*
X50690D01*
X51040Y187029D01*
X52036D01*
X52197Y187002D01*
X52385D01*
X52628Y186975D01*
X52735D01*
X52843Y186948D01*
X53597D01*
X52924Y190662D01*
Y190689D01*
X52897Y190770D01*
Y190877D01*
X52870Y191039D01*
X52843Y191227D01*
X52789Y191442D01*
X52735Y191954D01*
X52655Y192546D01*
X52574Y193165D01*
X52520Y193810D01*
X52466Y194429D01*
X52224D01*
X52116Y194456D01*
X51336D01*
X51040Y194483D01*
X50717D01*
X50340Y194510D01*
X49479D01*
X48968Y194537D01*
X48833D01*
X48672Y194564D01*
X48457Y194618D01*
X48215Y194671D01*
X47918Y194752D01*
X47569Y194860D01*
X47219Y194994D01*
X47192D01*
X47165Y195021D01*
X47030Y195102D01*
X46842Y195210D01*
X46600Y195344D01*
X46385Y195533D01*
X46196Y195721D01*
X46062Y195963D01*
X46008Y196071D01*
Y196205D01*
Y196232D01*
Y196286D01*
X46035Y196394D01*
X46062Y196501D01*
X46142Y196797D01*
X46250Y196959D01*
X46358Y197120D01*
X46385Y197147D01*
X46411Y197201D01*
X46492Y197255D01*
X46600Y197336D01*
X46896Y197497D01*
X47084Y197524D01*
X47273Y197551D01*
X47380D01*
X47569Y197497D01*
D02*
G37*
G36*
X139078Y83263D02*
X139205Y83240D01*
X139355Y83205D01*
X139539Y83148D01*
X139759Y83079D01*
X140001Y82975D01*
X140012D01*
X140035Y82963D01*
X140081Y82940D01*
X140128Y82917D01*
X140266Y82848D01*
X140416Y82756D01*
X140566Y82640D01*
X140704Y82525D01*
X140750Y82456D01*
X140796Y82387D01*
X140819Y82318D01*
X140831Y82248D01*
Y82237D01*
Y82214D01*
X140819Y82168D01*
X140808Y82110D01*
X140785Y82052D01*
X140762Y81983D01*
X140716Y81914D01*
X140658Y81845D01*
X140646Y81833D01*
X140623Y81822D01*
X140589Y81787D01*
X140542Y81764D01*
X140416Y81695D01*
X140335Y81683D01*
X140243Y81672D01*
X140220D01*
X140185Y81683D01*
X140128Y81707D01*
X140047Y81730D01*
X139954Y81764D01*
X139839Y81822D01*
X139689Y81902D01*
X139666Y81914D01*
X139620Y81937D01*
X139539Y81983D01*
X139436Y82029D01*
X139309Y82064D01*
X139182Y82110D01*
X139055Y82133D01*
X138917Y82145D01*
X138905D01*
X138848Y82133D01*
X138767Y82099D01*
X138652Y82041D01*
X138582Y82006D01*
X138502Y81949D01*
X138421Y81879D01*
X138329Y81810D01*
X138236Y81707D01*
X138133Y81603D01*
X138029Y81476D01*
X137914Y81337D01*
X137902Y81326D01*
X137879Y81280D01*
X137833Y81222D01*
X137775Y81130D01*
X137695Y81026D01*
X137626Y80899D01*
X137533Y80749D01*
X137452Y80588D01*
X137372Y80404D01*
X137279Y80208D01*
X137210Y80000D01*
X137141Y79781D01*
X137072Y79550D01*
X137026Y79308D01*
X137003Y79066D01*
X136991Y78812D01*
Y78801D01*
Y78778D01*
Y78743D01*
Y78697D01*
X137003Y78582D01*
X137014Y78432D01*
X137037Y78282D01*
X137072Y78121D01*
X137118Y77982D01*
X137187Y77867D01*
X137199Y77855D01*
X137233Y77832D01*
X137291Y77786D01*
X137372Y77740D01*
X137487Y77694D01*
X137626Y77648D01*
X137810Y77625D01*
X138017Y77613D01*
X138075D01*
X138121Y77625D01*
X138248Y77636D01*
X138398Y77659D01*
X138571Y77706D01*
X138755Y77763D01*
X138940Y77855D01*
X139124Y77971D01*
X139136D01*
X139147Y77994D01*
X139205Y78040D01*
X139297Y78132D01*
X139413Y78247D01*
X139528Y78409D01*
X139655Y78593D01*
X139782Y78824D01*
X139885Y79078D01*
X139839D01*
X139793Y79066D01*
X139724D01*
X139643Y79055D01*
X139539Y79031D01*
X139436Y79020D01*
X139309Y78997D01*
X139055Y78951D01*
X138767Y78882D01*
X138490Y78789D01*
X138214Y78686D01*
X138190Y78674D01*
X138133Y78651D01*
X138052Y78628D01*
X137960Y78616D01*
X137914D01*
X137868Y78628D01*
X137810Y78640D01*
X137741Y78663D01*
X137672Y78697D01*
X137602Y78743D01*
X137533Y78812D01*
X137522Y78824D01*
X137510Y78847D01*
X137487Y78882D01*
X137464Y78928D01*
X137406Y79043D01*
X137395Y79112D01*
X137383Y79193D01*
Y79204D01*
Y79216D01*
X137395Y79251D01*
X137406Y79297D01*
X137429Y79343D01*
X137464Y79412D01*
X137510Y79470D01*
X137568Y79539D01*
X137648Y79620D01*
X137752Y79689D01*
X137868Y79758D01*
X138006Y79839D01*
X138179Y79908D01*
X138375Y79966D01*
X138605Y80035D01*
X138871Y80081D01*
X138882D01*
X138905Y80092D01*
X138951D01*
X139021Y80104D01*
X139101Y80115D01*
X139193Y80127D01*
X139309Y80138D01*
X139436Y80161D01*
X139574Y80173D01*
X139724Y80185D01*
X139885Y80196D01*
X140058Y80208D01*
X140439Y80219D01*
X140842Y80231D01*
X140888D01*
X140923Y80219D01*
X140981Y80208D01*
X141050Y80185D01*
X141119Y80161D01*
X141188Y80115D01*
X141257Y80058D01*
X141269Y80046D01*
X141280Y80035D01*
X141315Y80000D01*
X141350Y79954D01*
X141407Y79827D01*
X141419Y79746D01*
X141430Y79666D01*
Y79654D01*
Y79620D01*
X141419Y79562D01*
X141396Y79493D01*
X141373Y79424D01*
X141327Y79343D01*
X141257Y79262D01*
X141177Y79193D01*
Y79181D01*
X141165Y79135D01*
X141142Y79078D01*
X141119Y78985D01*
X141084Y78882D01*
X141038Y78766D01*
X140992Y78628D01*
X140923Y78490D01*
X140773Y78167D01*
X140681Y78005D01*
X140577Y77844D01*
X140462Y77683D01*
X140335Y77521D01*
X140185Y77360D01*
X140035Y77221D01*
X140024Y77210D01*
X140001Y77187D01*
X139954Y77152D01*
X139885Y77106D01*
X139805Y77048D01*
X139701Y76991D01*
X139585Y76921D01*
X139459Y76852D01*
X139320Y76783D01*
X139171Y76714D01*
X138997Y76656D01*
X138825Y76599D01*
X138640Y76553D01*
X138444Y76518D01*
X138236Y76495D01*
X138017Y76483D01*
X137914D01*
X137833Y76495D01*
X137752Y76507D01*
X137637Y76518D01*
X137406Y76553D01*
X137130Y76622D01*
X136864Y76726D01*
X136726Y76795D01*
X136599Y76875D01*
X136484Y76956D01*
X136369Y77060D01*
Y77071D01*
X136346Y77083D01*
X136323Y77118D01*
X136288Y77164D01*
X136242Y77233D01*
X136196Y77302D01*
X136150Y77394D01*
X136103Y77498D01*
X136046Y77613D01*
X136000Y77740D01*
X135954Y77878D01*
X135907Y78040D01*
X135873Y78213D01*
X135850Y78397D01*
X135838Y78593D01*
X135827Y78801D01*
Y78812D01*
Y78847D01*
Y78905D01*
X135838Y78985D01*
Y79078D01*
X135850Y79193D01*
X135873Y79331D01*
X135896Y79470D01*
X135919Y79631D01*
X135954Y79804D01*
X136046Y80173D01*
X136173Y80565D01*
X136253Y80773D01*
X136346Y80980D01*
X136357Y80992D01*
X136369Y81026D01*
X136403Y81084D01*
X136438Y81165D01*
X136495Y81257D01*
X136553Y81372D01*
X136622Y81487D01*
X136703Y81626D01*
X136899Y81914D01*
X137130Y82214D01*
X137395Y82502D01*
X137683Y82779D01*
X137695Y82790D01*
X137706Y82802D01*
X137741Y82825D01*
X137787Y82859D01*
X137902Y82940D01*
X138052Y83032D01*
X138236Y83113D01*
X138444Y83194D01*
X138675Y83252D01*
X138790Y83275D01*
X138986D01*
X139078Y83263D01*
D02*
G37*
G36*
X177165Y273622D02*
D01*
X177165Y255906D01*
X194882Y255906D01*
X194882Y254744D01*
X194579Y252442D01*
X193978Y250199D01*
X193089Y248053D01*
X191928Y246042D01*
X190514Y244199D01*
X188872Y242557D01*
X187029Y241143D01*
X185018Y239982D01*
X182872Y239093D01*
X180629Y238492D01*
X178326Y238189D01*
X177165Y238189D01*
X177165D01*
X177165Y255906D01*
X159449D01*
X159449Y257067D01*
X159752Y259369D01*
X160353Y261613D01*
X161242Y263758D01*
X162403Y265769D01*
X163817Y267612D01*
X165459Y269254D01*
X167301Y270668D01*
X169313Y271829D01*
X171458Y272718D01*
X173702Y273319D01*
X176004Y273622D01*
X177165Y273622D01*
Y273622D01*
Y273622D01*
D02*
G37*
G36*
X142537Y83182D02*
X142595Y83171D01*
X142687Y83125D01*
X142779Y83067D01*
X142895Y82975D01*
X143022Y82836D01*
X143091Y82756D01*
X143160Y82664D01*
X143171Y82652D01*
X143183Y82629D01*
X143206Y82594D01*
X143241Y82548D01*
X143287Y82479D01*
X143344Y82410D01*
X143413Y82318D01*
X143483Y82214D01*
X143644Y81995D01*
X143852Y81730D01*
X144071Y81430D01*
X144324Y81107D01*
X144590Y80773D01*
X144889Y80415D01*
X145189Y80046D01*
X145512Y79677D01*
X145835Y79320D01*
X146181Y78962D01*
X146515Y78616D01*
X146861Y78282D01*
Y78294D01*
Y78305D01*
Y78351D01*
Y78409D01*
Y78490D01*
Y78593D01*
Y78732D01*
Y78905D01*
Y78916D01*
Y78928D01*
Y78997D01*
Y79101D01*
Y79239D01*
Y79400D01*
Y79585D01*
Y79792D01*
Y80012D01*
X146850Y80473D01*
X146838Y80934D01*
Y81142D01*
X146826Y81337D01*
Y81511D01*
X146815Y81660D01*
Y81672D01*
Y81683D01*
Y81718D01*
Y81764D01*
X146803Y81822D01*
X146792Y81902D01*
X146780Y81995D01*
X146769Y82110D01*
Y82122D01*
Y82156D01*
X146757Y82214D01*
Y82271D01*
X146746Y82421D01*
X146734Y82490D01*
Y82560D01*
Y82571D01*
Y82583D01*
X146746Y82652D01*
X146769Y82744D01*
X146815Y82848D01*
X146884Y82952D01*
X146988Y83044D01*
X147057Y83079D01*
X147138Y83113D01*
X147230Y83125D01*
X147334Y83136D01*
X147368D01*
X147391Y83125D01*
X147438Y83102D01*
X147484Y83079D01*
X147541Y83021D01*
X147610Y82963D01*
X147668Y82871D01*
X147726Y82767D01*
X147795Y82629D01*
X147853Y82456D01*
X147899Y82260D01*
X147945Y82018D01*
X147979Y81741D01*
X147991Y81418D01*
X148002Y81234D01*
Y81049D01*
Y81038D01*
Y81003D01*
Y80945D01*
Y80865D01*
Y80749D01*
Y80680D01*
Y80600D01*
Y80496D01*
Y80392D01*
Y80369D01*
Y80300D01*
Y80196D01*
Y80058D01*
X147991Y79885D01*
Y79700D01*
Y79493D01*
Y79285D01*
X147979Y78835D01*
Y78616D01*
Y78409D01*
X147968Y78213D01*
Y78040D01*
Y77902D01*
Y77786D01*
Y77775D01*
Y77752D01*
Y77694D01*
X147956Y77625D01*
Y77533D01*
X147945Y77417D01*
X147922Y77290D01*
X147899Y77129D01*
Y77106D01*
X147876Y77048D01*
X147841Y76956D01*
X147795Y76864D01*
X147714Y76772D01*
X147610Y76679D01*
X147472Y76622D01*
X147391Y76610D01*
X147299Y76599D01*
X147253D01*
X147184Y76622D01*
X147115Y76645D01*
X147011Y76679D01*
X146896Y76737D01*
X146780Y76818D01*
X146642Y76921D01*
X146619Y76933D01*
X146573Y76991D01*
X146481Y77071D01*
X146365Y77187D01*
X146215Y77337D01*
X146031Y77510D01*
X145823Y77729D01*
X145593Y77971D01*
X145339Y78236D01*
X145062Y78536D01*
X144774Y78870D01*
X144463Y79228D01*
X144128Y79620D01*
X143782Y80035D01*
X143425Y80473D01*
X143056Y80945D01*
Y80934D01*
Y80899D01*
Y80842D01*
Y80773D01*
X143045Y80692D01*
Y80588D01*
Y80380D01*
X143033Y80150D01*
Y79942D01*
X143022Y79839D01*
Y79758D01*
Y79689D01*
Y79631D01*
Y79620D01*
Y79573D01*
Y79493D01*
Y79377D01*
Y79239D01*
Y79078D01*
X143033Y78870D01*
Y78640D01*
Y78628D01*
Y78616D01*
Y78582D01*
Y78536D01*
X143045Y78420D01*
Y78271D01*
Y78109D01*
X143056Y77948D01*
Y77798D01*
Y77659D01*
Y77648D01*
Y77602D01*
Y77544D01*
X143045Y77464D01*
X143033Y77371D01*
X143022Y77267D01*
X142987Y77048D01*
X142906Y76829D01*
X142860Y76726D01*
X142802Y76633D01*
X142733Y76553D01*
X142652Y76495D01*
X142560Y76449D01*
X142456Y76437D01*
X142410D01*
X142353Y76449D01*
X142284Y76460D01*
X142203Y76483D01*
X142122Y76518D01*
X142041Y76564D01*
X141972Y76633D01*
X141961Y76645D01*
X141949Y76656D01*
X141926Y76691D01*
X141903Y76737D01*
X141845Y76864D01*
X141834Y76945D01*
X141822Y77025D01*
Y77037D01*
Y77060D01*
Y77095D01*
Y77152D01*
X141834Y77221D01*
Y77302D01*
Y77406D01*
X141845Y77521D01*
Y77533D01*
Y77579D01*
X141857Y77636D01*
Y77706D01*
X141868Y77878D01*
Y77959D01*
Y78028D01*
Y78040D01*
Y78075D01*
Y78132D01*
Y78213D01*
Y78317D01*
Y78432D01*
X141880Y78582D01*
Y78755D01*
Y78766D01*
Y78778D01*
Y78835D01*
X141892Y78928D01*
Y79031D01*
X141903Y79274D01*
Y79389D01*
Y79493D01*
Y79504D01*
Y79539D01*
Y79597D01*
Y79689D01*
Y79792D01*
Y79931D01*
X141892Y80092D01*
Y80277D01*
Y80288D01*
Y80300D01*
Y80369D01*
Y80461D01*
Y80576D01*
X141880Y80703D01*
Y80830D01*
Y80957D01*
Y81061D01*
Y81072D01*
Y81107D01*
Y81165D01*
Y81245D01*
X141868Y81361D01*
X141857Y81487D01*
X141845Y81637D01*
X141834Y81810D01*
Y81822D01*
Y81833D01*
X141822Y81891D01*
Y81983D01*
X141811Y82087D01*
X141799Y82329D01*
X141788Y82444D01*
Y82548D01*
Y82560D01*
Y82594D01*
X141799Y82640D01*
X141811Y82698D01*
X141834Y82767D01*
X141880Y82848D01*
X141926Y82917D01*
X141995Y82998D01*
X142007Y83009D01*
X142030Y83032D01*
X142076Y83056D01*
X142134Y83102D01*
X142203Y83136D01*
X142284Y83159D01*
X142376Y83182D01*
X142480Y83194D01*
X142491D01*
X142537Y83182D01*
D02*
G37*
%LPC*%
G36*
X37738Y222313D02*
X37700Y222274D01*
X37662Y222217D01*
X37604Y222140D01*
X37527Y222024D01*
X37450Y221890D01*
X37335Y221736D01*
X37220Y221544D01*
X37085Y221352D01*
X36931Y221121D01*
X36758Y220852D01*
X36566Y220583D01*
X36374Y220275D01*
X36143Y219949D01*
X35913Y219603D01*
X35663Y219237D01*
X37738D01*
Y222313D01*
D02*
G37*
G36*
Y119950D02*
X37700Y119912D01*
X37662Y119854D01*
X37604Y119777D01*
X37527Y119662D01*
X37450Y119527D01*
X37335Y119374D01*
X37220Y119182D01*
X37085Y118989D01*
X36931Y118759D01*
X36758Y118490D01*
X36566Y118221D01*
X36374Y117913D01*
X36143Y117586D01*
X35913Y117240D01*
X35663Y116875D01*
X37738D01*
Y119950D01*
D02*
G37*
G36*
X150089Y81776D02*
Y77671D01*
X150101D01*
X150124Y77659D01*
X150147Y77636D01*
X150193Y77613D01*
X150308Y77567D01*
X150458Y77521D01*
X150470D01*
X150493Y77510D01*
X150539D01*
X150597Y77498D01*
X150666Y77486D01*
X150747D01*
X150919Y77475D01*
X151069D01*
X151139Y77486D01*
X151231D01*
X151415Y77510D01*
X151634Y77533D01*
X151842Y77579D01*
X152038Y77636D01*
X152130Y77671D01*
X152211Y77717D01*
X152222Y77729D01*
X152269Y77763D01*
X152338Y77809D01*
X152418Y77878D01*
X152522Y77971D01*
X152614Y78086D01*
X152707Y78213D01*
X152799Y78351D01*
X152811Y78374D01*
X152833Y78420D01*
X152868Y78501D01*
X152914Y78616D01*
X152949Y78743D01*
X152983Y78882D01*
X153006Y79043D01*
X153018Y79204D01*
Y79216D01*
Y79251D01*
X153006Y79308D01*
X152995Y79377D01*
X152983Y79470D01*
X152949Y79573D01*
X152914Y79689D01*
X152868Y79816D01*
X152799Y79942D01*
X152718Y80092D01*
X152626Y80242D01*
X152511Y80392D01*
X152372Y80542D01*
X152211Y80692D01*
X152026Y80842D01*
X151807Y80980D01*
X151784Y80992D01*
X151761Y81003D01*
X151727Y81026D01*
X151669Y81061D01*
X151611Y81084D01*
X151531Y81130D01*
X151438Y81176D01*
X151335Y81222D01*
X151208Y81291D01*
X151069Y81349D01*
X150908Y81418D01*
X150735Y81499D01*
X150539Y81591D01*
X150320Y81683D01*
X150089Y81776D01*
D02*
G37*
%LPD*%
D44*
X165601Y197795D02*
G03*
X165601Y197795I-2784J0D01*
G01*
X194882Y19685D02*
G03*
X194882Y19685I-17717J0D01*
G01*
X37402D02*
G03*
X37402Y19685I-17717J0D01*
G01*
Y255906D02*
G03*
X37402Y255906I-17717J0D01*
G01*
X194882D02*
G03*
X194882Y255906I-17717J0D01*
G01*
X173917Y88898D02*
G03*
X173917Y88898I-2500J0D01*
G01*
X181918Y109095D02*
G03*
X181918Y109095I-2784J0D01*
G01*
X175658Y197795D02*
G03*
X175658Y197795I-2784J0D01*
G01*
X81283Y198566D02*
G03*
X81457Y198571I174J-2778D01*
G01*
X16563Y151575D02*
G03*
X16563Y151575I-2784J0D01*
G01*
Y49213D02*
G03*
X16563Y49213I-2784J0D01*
G01*
X43307Y153543D02*
Y224410D01*
Y51181D02*
Y122047D01*
X149943Y175000D02*
Y195000D01*
X159943D01*
Y165000D02*
Y195000D01*
X149943Y165000D02*
X159943D01*
X149943D02*
Y185000D01*
X159943D01*
X178626Y158615D02*
X180200D01*
Y164127D01*
X178626D02*
X180200D01*
X178626Y158615D02*
Y164127D01*
X177051Y157434D02*
Y165308D01*
X181775Y157434D02*
Y165308D01*
X191224Y153891D02*
Y168851D01*
X167602D02*
X191224D01*
X167602Y153891D02*
Y168851D01*
Y153891D02*
X191224D01*
X181775Y161371D02*
X186500D01*
Y162552D01*
X171933Y161371D02*
X177051D01*
X171933Y160190D02*
Y161371D01*
X156417Y49213D02*
Y88583D01*
Y49213D02*
X206417D01*
Y88583D01*
X156417D02*
X206417D01*
X198819Y49213D02*
Y88583D01*
X156417Y68898D02*
X206417D01*
X192008Y111890D02*
Y131890D01*
X182008Y111890D02*
X192008D01*
X182008D02*
Y151890D01*
X192008D01*
Y121890D02*
Y151890D01*
X182008Y121890D02*
X192008D01*
X160000Y185000D02*
X170000D01*
X160000Y175000D02*
Y185000D01*
Y175000D02*
X170000D01*
Y195000D01*
X160000D02*
X170000D01*
X160000Y175000D02*
Y195000D01*
X73583Y252874D02*
X93268Y243032D01*
X112953D01*
X73583Y262717D02*
X112953Y243032D01*
Y272559D02*
X132638Y262717D01*
Y252874D02*
Y262717D01*
X93268Y272559D02*
X132638Y252874D01*
X73583Y272559D02*
X93268D01*
X73583D02*
X132638Y243032D01*
X73583D02*
X132638D01*
X73583Y174134D02*
X132638D01*
Y272559D01*
X73583D02*
X132638D01*
X73583Y174134D02*
Y272559D01*
X-7874Y151575D02*
X29528D01*
X-7874D02*
Y226378D01*
X29528Y151575D02*
Y226378D01*
X-7874D02*
X29528D01*
X-1969Y151575D02*
Y226378D01*
X-7874Y166476D02*
X29528D01*
X-7874Y64114D02*
X29528D01*
X-1969Y49213D02*
Y124016D01*
X-7874D02*
X29528D01*
Y49213D02*
Y124016D01*
X-7874Y49213D02*
Y124016D01*
Y49213D02*
X29528D01*
X116535Y145669D02*
X118898Y144488D01*
X124803Y112205D02*
X127953Y109449D01*
X109055Y114173D02*
X114173Y129528D01*
X110236Y107087D02*
X119291Y124016D01*
X70866Y1969D02*
Y41339D01*
X90551Y1969D02*
Y41339D01*
X51181D02*
X149606D01*
Y1969D02*
Y41339D01*
X51181Y1969D02*
X149606D01*
X51181D02*
Y41339D01*
X136614Y31496D02*
X141339D01*
X138976Y29134D02*
Y33858D01*
X166929Y113386D02*
Y118502D01*
X169487D01*
X170340Y117649D01*
Y115944D01*
X169487Y115091D01*
X166929D01*
X168635D02*
X170340Y113386D01*
X175457Y117649D02*
X174604Y118502D01*
X172898D01*
X172046Y117649D01*
Y116797D01*
X172898Y115944D01*
X174604D01*
X175457Y115091D01*
Y114239D01*
X174604Y113386D01*
X172898D01*
X172046Y114239D01*
X177162Y118502D02*
X180573D01*
X178867D01*
Y113386D01*
X174671Y128279D02*
X173818Y129132D01*
X172113D01*
X171260Y128279D01*
Y124869D01*
X172113Y124016D01*
X173818D01*
X174671Y124869D01*
X176376Y129132D02*
Y124016D01*
Y125721D01*
X179787Y129132D01*
X177229Y126574D01*
X179787Y124016D01*
X171653Y139368D02*
X173359D01*
X172506D01*
Y134252D01*
X171653D01*
X173359D01*
X178475Y139368D02*
X176770D01*
X175917Y138516D01*
Y135105D01*
X176770Y134252D01*
X178475D01*
X179328Y135105D01*
Y138516D01*
X178475Y139368D01*
X170340Y148752D02*
X169487Y149605D01*
X167782D01*
X166929Y148752D01*
Y145341D01*
X167782Y144488D01*
X169487D01*
X170340Y145341D01*
Y147046D01*
X168635D01*
X172046Y144488D02*
Y149605D01*
X175457Y144488D01*
Y149605D01*
X177162D02*
Y144488D01*
X179720D01*
X180573Y145341D01*
Y148752D01*
X179720Y149605D01*
X177162D01*
X139764Y192124D02*
X143175D01*
X141469D01*
Y187008D01*
X144880Y192124D02*
X148291Y187008D01*
Y192124D02*
X144880Y187008D01*
X139764Y177165D02*
Y182282D01*
X142322D01*
X143175Y181429D01*
Y179724D01*
X142322Y178871D01*
X139764D01*
X141469D02*
X143175Y177165D01*
X144880Y182282D02*
X148291Y177165D01*
Y182282D02*
X144880Y177165D01*
X172508Y181757D02*
X171655Y180905D01*
Y179199D01*
X172508Y178347D01*
X173361D01*
X174213Y179199D01*
Y180905D01*
X175066Y181757D01*
X175919D01*
X176772Y180905D01*
Y179199D01*
X175919Y178347D01*
X171655Y183463D02*
Y186874D01*
Y185168D01*
X176772D01*
Y188579D02*
X171655D01*
X173361Y190285D01*
X171655Y191990D01*
X176772D01*
X133860Y181757D02*
Y178347D01*
X138976D01*
Y181757D01*
X136418Y178347D02*
Y180052D01*
X134713Y186874D02*
X133860Y186021D01*
Y184316D01*
X134713Y183463D01*
X135565D01*
X136418Y184316D01*
Y186021D01*
X137271Y186874D01*
X138124D01*
X138976Y186021D01*
Y184316D01*
X138124Y183463D01*
X138976Y188579D02*
X133860D01*
Y191138D01*
X134713Y191990D01*
X136418D01*
X137271Y191138D01*
Y188579D01*
X148293Y173161D02*
X147440Y174014D01*
X145735D01*
X144882Y173161D01*
Y169750D01*
X145735Y168898D01*
X147440D01*
X148293Y169750D01*
Y171456D01*
X146587D01*
X66143Y243306D02*
Y240158D01*
X70866D01*
Y243306D01*
X68505Y240158D02*
Y241732D01*
X66930Y248029D02*
X66143Y247242D01*
Y245668D01*
X66930Y244880D01*
X67718D01*
X68505Y245668D01*
Y247242D01*
X69292Y248029D01*
X70079D01*
X70866Y247242D01*
Y245668D01*
X70079Y244880D01*
X70866Y249603D02*
X66143D01*
Y251965D01*
X66930Y252752D01*
X68505D01*
X69292Y251965D01*
Y249603D01*
X66930Y254326D02*
X66143Y255113D01*
Y256688D01*
X66930Y257475D01*
X67718D01*
X68505Y256688D01*
X69292Y257475D01*
X70079D01*
X70866Y256688D01*
Y255113D01*
X70079Y254326D01*
X69292D01*
X68505Y255113D01*
X67718Y254326D01*
X66930D01*
X68505Y255113D02*
Y256688D01*
X70866Y262198D02*
Y259049D01*
X67718Y262198D01*
X66930D01*
X66143Y261410D01*
Y259836D01*
X66930Y259049D01*
X66143Y266920D02*
X66930Y265346D01*
X68505Y263772D01*
X70079D01*
X70866Y264559D01*
Y266133D01*
X70079Y266920D01*
X69292D01*
X68505Y266133D01*
Y263772D01*
X66143Y271643D02*
X66930Y270069D01*
X68505Y268495D01*
X70079D01*
X70866Y269282D01*
Y270856D01*
X70079Y271643D01*
X69292D01*
X68505Y270856D01*
Y268495D01*
X135039Y112205D02*
Y115353D01*
X136614Y116928D01*
X138188Y115353D01*
Y112205D01*
Y114566D01*
X135039D01*
X139762Y112992D02*
X140549Y112205D01*
X142124D01*
X142911Y112992D01*
Y116140D01*
X142124Y116928D01*
X140549D01*
X139762Y116140D01*
Y115353D01*
X140549Y114566D01*
X142911D01*
X115354Y144882D02*
X110631D01*
Y147243D01*
X111419Y148030D01*
X112993D01*
X113780Y147243D01*
Y144882D01*
X115354Y149605D02*
X112206D01*
X110631Y151179D01*
X112206Y152753D01*
X115354D01*
X112993D01*
Y149605D01*
X110631Y154328D02*
Y157476D01*
X111419D01*
X114567Y154328D01*
X115354D01*
X96850Y108661D02*
Y111810D01*
X98425Y113384D01*
X99999Y111810D01*
Y108661D01*
Y111023D01*
X96850D01*
X101573Y108661D02*
X103148D01*
X102360D01*
Y113384D01*
X101573Y112597D01*
X105509D02*
X106296Y113384D01*
X107870D01*
X108658Y112597D01*
Y109449D01*
X107870Y108661D01*
X106296D01*
X105509Y109449D01*
Y112597D01*
X105512Y101181D02*
Y104330D01*
X107086Y105904D01*
X108660Y104330D01*
Y101181D01*
Y103542D01*
X105512D01*
X113383Y105904D02*
X110235D01*
Y103542D01*
X111809Y104330D01*
X112596D01*
X113383Y103542D01*
Y101968D01*
X112596Y101181D01*
X111022D01*
X110235Y101968D01*
D50*
X32776Y128937D02*
G03*
X32776Y128937I-492J0D01*
G01*
X68799Y42126D02*
G03*
X68799Y42126I-492J0D01*
G01*
X83858Y158740D02*
G03*
X83858Y158740I-492J0D01*
G01*
X165748Y143701D02*
G03*
X165748Y143701I-492J0D01*
G01*
X188206Y228701D02*
G03*
X188206Y228701I-492J0D01*
G01*
D51*
X93307Y153543D02*
G03*
X93307Y153543I-1181J0D01*
G01*
X161122Y135236D02*
G03*
X161122Y135236I-1181J0D01*
G01*
D52*
X134259Y80840D02*
G03*
X133409Y81690I-850J0D01*
G01*
Y75790D02*
G03*
X134259Y76640I0J850D01*
G01*
X122497Y81690D02*
G03*
X121647Y80840I0J-850D01*
G01*
Y76640D02*
G03*
X122497Y75790I850J0D01*
G01*
X104731Y80840D02*
G03*
X103881Y81690I-850J0D01*
G01*
Y75790D02*
G03*
X104731Y76640I0J850D01*
G01*
X92969Y81690D02*
G03*
X92119Y80840I0J-850D01*
G01*
Y76640D02*
G03*
X92969Y75790I850J0D01*
G01*
X134259Y76640D02*
Y80840D01*
X121647Y76640D02*
Y80840D01*
X122497Y81690D02*
X133409Y81690D01*
X122497Y75790D02*
X133409D01*
X104731Y76640D02*
Y80840D01*
X92119Y76640D02*
Y80840D01*
X92969Y81690D02*
X103881D01*
X92969Y75790D02*
X103881D01*
D53*
X162008Y214567D02*
G03*
X162008Y214567I-12402J0D01*
G01*
X34646Y115354D02*
Y162598D01*
Y115354D02*
X46457D01*
Y162598D01*
X34646D02*
X46457D01*
X34646Y44488D02*
X81890D01*
Y56299D01*
X34646D02*
X81890D01*
X34646Y44488D02*
Y56299D01*
X88189Y118110D02*
Y157480D01*
X100787Y118110D02*
Y157480D01*
X88189D02*
X100787D01*
X88189Y118110D02*
X100787D01*
X107480Y162008D02*
X109055D01*
X107480Y164764D02*
X109055D01*
X136417Y91732D02*
Y93307D01*
X139173Y91732D02*
Y93307D01*
X67520Y164567D02*
Y166142D01*
X70276Y164567D02*
Y166142D01*
X72441Y100591D02*
X74016D01*
X72441Y97835D02*
X74016D01*
X144291Y91732D02*
Y93307D01*
X147047Y91732D02*
Y93307D01*
X133268Y143898D02*
Y145473D01*
X130512Y143898D02*
Y145473D01*
X137894Y139173D02*
X163878D01*
X137894Y126181D02*
X163878D01*
Y139173D01*
X137894Y126181D02*
Y139173D01*
X184252Y173819D02*
X185827D01*
X184252Y176575D02*
X185827D01*
X171260Y202165D02*
Y207283D01*
X203265Y190315D02*
Y231260D01*
X185154Y190315D02*
X203265D01*
X185154D02*
Y231260D01*
Y231260D02*
X203265D01*
X201296Y190315D02*
Y231260D01*
X125394Y214567D02*
X130512D01*
X51772Y164567D02*
Y166142D01*
X54528Y164567D02*
Y166142D01*
X59646Y164567D02*
Y166142D01*
X62402Y164567D02*
Y166142D01*
X75394Y164567D02*
Y166142D01*
X78150Y164567D02*
Y166142D01*
X76968Y122047D02*
Y123622D01*
X74213Y122047D02*
Y123622D01*
X73228Y114370D02*
X74803D01*
X73228Y111614D02*
X74803D01*
X73228Y86024D02*
X74803D01*
X73228Y83268D02*
X74803D01*
X119488Y150787D02*
Y152362D01*
X116732Y150787D02*
Y152362D01*
X148031Y161614D02*
Y163189D01*
X145276Y161614D02*
Y163189D01*
X158858Y156693D02*
Y158268D01*
X156102Y156693D02*
Y158268D01*
X148819Y111614D02*
X150394D01*
X148819Y108858D02*
X150394D01*
X55905Y62203D02*
X52756D01*
Y59842D01*
X54330D01*
X52756D01*
Y57480D01*
X57479Y61416D02*
X58266Y62203D01*
X59840D01*
X60627Y61416D01*
Y60629D01*
X59840Y59842D01*
X59053D01*
X59840D01*
X60627Y59055D01*
Y58267D01*
X59840Y57480D01*
X58266D01*
X57479Y58267D01*
X28348Y138975D02*
Y135827D01*
X30709D01*
Y137401D01*
Y135827D01*
X33071D01*
Y142911D02*
X28348D01*
X30709Y140550D01*
Y143698D01*
X161023Y229526D02*
X160236Y230313D01*
X158661D01*
X157874Y229526D01*
Y226378D01*
X158661Y225590D01*
X160236D01*
X161023Y226378D01*
X162597Y230313D02*
X165745D01*
Y229526D01*
X162597Y226378D01*
Y225590D01*
X56692Y51573D02*
X53543D01*
Y49212D01*
X55118D01*
X53543D01*
Y46850D01*
X58266D02*
X59841D01*
X59053D01*
Y51573D01*
X58266Y50786D01*
X61025Y138582D02*
Y135433D01*
X63387D01*
Y137007D01*
Y135433D01*
X65748D01*
Y143305D02*
Y140156D01*
X62599Y143305D01*
X61812D01*
X61025Y142517D01*
Y140943D01*
X61812Y140156D01*
X149605Y75195D02*
X148031D01*
X148818D01*
Y71260D01*
X148031Y70472D01*
X147244D01*
X146457Y71260D01*
X151180Y70472D02*
X152754D01*
X151967D01*
Y75195D01*
X151180Y74408D01*
X24802Y130707D02*
X23228D01*
X24015D01*
Y126771D01*
X23228Y125984D01*
X22441D01*
X21654Y126771D01*
X28738Y125984D02*
Y130707D01*
X26376Y128346D01*
X29525D01*
X24802Y233069D02*
X23228D01*
X24015D01*
Y229134D01*
X23228Y228346D01*
X22441D01*
X21654Y229134D01*
X29525Y233069D02*
X26376D01*
Y230708D01*
X27951Y231495D01*
X28738D01*
X29525Y230708D01*
Y229134D01*
X28738Y228346D01*
X27164D01*
X26376Y229134D01*
X188584Y100393D02*
X187797Y99606D01*
Y98031D01*
X188584Y97244D01*
X189371D01*
X190158Y98031D01*
Y99606D01*
X190945Y100393D01*
X191733D01*
X192520Y99606D01*
Y98031D01*
X191733Y97244D01*
X187797Y101967D02*
X192520D01*
X190945Y103541D01*
X192520Y105116D01*
X187797D01*
Y106690D02*
X192520D01*
Y109051D01*
X191733Y109838D01*
X188584D01*
X187797Y109051D01*
Y106690D01*
X175591Y229920D02*
Y225984D01*
X176378Y225197D01*
X177952D01*
X178739Y225984D01*
Y229920D01*
X180313Y225197D02*
X181888D01*
X181101D01*
Y229920D01*
X180313Y229133D01*
X90551Y164172D02*
Y160236D01*
X91338Y159449D01*
X92913D01*
X93700Y160236D01*
Y164172D01*
X98423Y159449D02*
X95274D01*
X98423Y162597D01*
Y163385D01*
X97636Y164172D01*
X96061D01*
X95274Y163385D01*
X165356Y129134D02*
X169292D01*
X170079Y129921D01*
Y131495D01*
X169292Y132282D01*
X165356D01*
X166143Y133857D02*
X165356Y134644D01*
Y136218D01*
X166143Y137005D01*
X166930D01*
X167717Y136218D01*
Y135431D01*
Y136218D01*
X168504Y137005D01*
X169292D01*
X170079Y136218D01*
Y134644D01*
X169292Y133857D01*
X174408Y213385D02*
X173621Y214172D01*
X172047D01*
X171260Y213385D01*
Y210236D01*
X172047Y209449D01*
X173621D01*
X174408Y210236D01*
X175983Y209449D02*
X177557D01*
X176770D01*
Y214172D01*
X175983Y213385D01*
X152755Y106298D02*
X151968Y107085D01*
X150393D01*
X149606Y106298D01*
Y103149D01*
X150393Y102362D01*
X151968D01*
X152755Y103149D01*
X154329Y106298D02*
X155116Y107085D01*
X156691D01*
X157478Y106298D01*
Y105511D01*
X156691Y104724D01*
X155903D01*
X156691D01*
X157478Y103937D01*
Y103149D01*
X156691Y102362D01*
X155116D01*
X154329Y103149D01*
X139765Y162991D02*
X138978Y162204D01*
Y160630D01*
X139765Y159843D01*
X142914D01*
X143701Y160630D01*
Y162204D01*
X142914Y162991D01*
X143701Y166927D02*
X138978D01*
X141339Y164565D01*
Y167714D01*
X107323Y172511D02*
X106536Y173298D01*
X104962D01*
X104175Y172511D01*
Y169362D01*
X104962Y168575D01*
X106536D01*
X107323Y169362D01*
X112046Y173298D02*
X108898D01*
Y170936D01*
X110472Y171723D01*
X111259D01*
X112046Y170936D01*
Y169362D01*
X111259Y168575D01*
X109685D01*
X108898Y169362D01*
X118897Y211022D02*
X118110Y211809D01*
X116535D01*
X115748Y211022D01*
Y207874D01*
X116535Y207087D01*
X118110D01*
X118897Y207874D01*
X123619Y211809D02*
X122045Y211022D01*
X120471Y209448D01*
Y207874D01*
X121258Y207087D01*
X122832D01*
X123619Y207874D01*
Y208661D01*
X122832Y209448D01*
X120471D01*
X189369Y182676D02*
X188582Y183463D01*
X187008D01*
X186221Y182676D01*
Y179527D01*
X187008Y178740D01*
X188582D01*
X189369Y179527D01*
X190943Y182676D02*
X191730Y183463D01*
X193305D01*
X194092Y182676D01*
Y181889D01*
X193305Y181102D01*
X194092Y180315D01*
Y179527D01*
X193305Y178740D01*
X191730D01*
X190943Y179527D01*
Y180315D01*
X191730Y181102D01*
X190943Y181889D01*
Y182676D01*
X191730Y181102D02*
X193305D01*
X161812Y154723D02*
X161025Y153936D01*
Y152362D01*
X161812Y151575D01*
X164961D01*
X165748Y152362D01*
Y153936D01*
X164961Y154723D01*
Y156298D02*
X165748Y157085D01*
Y158659D01*
X164961Y159446D01*
X161812D01*
X161025Y158659D01*
Y157085D01*
X161812Y156298D01*
X162599D01*
X163387Y157085D01*
Y159446D01*
X123490Y150524D02*
X122834Y151180D01*
X121522D01*
X120866Y150524D01*
Y147900D01*
X121522Y147244D01*
X122834D01*
X123490Y147900D01*
X124802Y147244D02*
X126114D01*
X125458D01*
Y151180D01*
X124802Y150524D01*
X128082Y147244D02*
X129394D01*
X128738D01*
Y151180D01*
X128082Y150524D01*
X127165Y90158D02*
Y94880D01*
X129527D01*
X130314Y94093D01*
Y92519D01*
X129527Y91732D01*
X127165D01*
X128740D02*
X130314Y90158D01*
X131888D02*
X133463D01*
X132675D01*
Y94880D01*
X131888Y94093D01*
X148819Y89370D02*
Y94093D01*
X151180D01*
X151968Y93306D01*
Y91732D01*
X151180Y90944D01*
X148819D01*
X150393D02*
X151968Y89370D01*
X156690D02*
X153542D01*
X156690Y92519D01*
Y93306D01*
X155903Y94093D01*
X154329D01*
X153542Y93306D01*
X120866Y157480D02*
X116143D01*
Y159842D01*
X116930Y160629D01*
X118505D01*
X119292Y159842D01*
Y157480D01*
Y159055D02*
X120866Y160629D01*
X116930Y162203D02*
X116143Y162990D01*
Y164565D01*
X116930Y165352D01*
X117718D01*
X118505Y164565D01*
Y163777D01*
Y164565D01*
X119292Y165352D01*
X120079D01*
X120866Y164565D01*
Y162990D01*
X120079Y162203D01*
X135432Y48424D02*
X134645Y49211D01*
X133071D01*
X132283Y48424D01*
Y45275D01*
X133071Y44488D01*
X134645D01*
X135432Y45275D01*
X137006Y44488D02*
X138581D01*
X137794D01*
Y49211D01*
X137006Y48424D01*
X140942D02*
X141729Y49211D01*
X143304D01*
X144091Y48424D01*
Y45275D01*
X143304Y44488D01*
X141729D01*
X140942Y45275D01*
Y48424D01*
X172441Y175983D02*
Y175196D01*
X174015Y173621D01*
X175590Y175196D01*
Y175983D01*
X174015Y173621D02*
Y171260D01*
X177164D02*
X178738D01*
X177951D01*
Y175983D01*
X177164Y175196D01*
X80709Y82677D02*
Y87400D01*
X83070D01*
X83857Y86613D01*
Y85039D01*
X83070Y84251D01*
X80709D01*
X82283D02*
X83857Y82677D01*
X85431D02*
X87006D01*
X86219D01*
Y87400D01*
X85431Y86613D01*
X89367Y82677D02*
X90942D01*
X90154D01*
Y87400D01*
X89367Y86613D01*
X80709Y110236D02*
Y114959D01*
X83070D01*
X83857Y114172D01*
Y112598D01*
X83070Y111811D01*
X80709D01*
X82283D02*
X83857Y110236D01*
X88580Y114959D02*
X85431D01*
Y112598D01*
X87006Y113385D01*
X87793D01*
X88580Y112598D01*
Y111023D01*
X87793Y110236D01*
X86219D01*
X85431Y111023D01*
X80709Y96457D02*
Y101180D01*
X83070D01*
X83857Y100392D01*
Y98818D01*
X83070Y98031D01*
X80709D01*
X82283D02*
X83857Y96457D01*
X85431D02*
X87006D01*
X86219D01*
Y101180D01*
X85431Y100392D01*
X89367D02*
X90154Y101180D01*
X91729D01*
X92516Y100392D01*
Y97244D01*
X91729Y96457D01*
X90154D01*
X89367Y97244D01*
Y100392D01*
X77756Y128937D02*
X73033D01*
Y131298D01*
X73820Y132086D01*
X75394D01*
X76182Y131298D01*
Y128937D01*
Y130511D02*
X77756Y132086D01*
Y136021D02*
X73033D01*
X75394Y133660D01*
Y136809D01*
X55512Y150787D02*
X50789D01*
Y153149D01*
X51576Y153936D01*
X53150D01*
X53938Y153149D01*
Y150787D01*
Y152362D02*
X55512Y153936D01*
X50789Y158659D02*
X51576Y157085D01*
X53150Y155510D01*
X54725D01*
X55512Y156297D01*
Y157872D01*
X54725Y158659D01*
X53938D01*
X53150Y157872D01*
Y155510D01*
X63779Y150787D02*
X59057D01*
Y153149D01*
X59844Y153936D01*
X61418D01*
X62205Y153149D01*
Y150787D01*
Y152362D02*
X63779Y153936D01*
X59057Y155510D02*
Y158659D01*
X59844D01*
X62992Y155510D01*
X63779D01*
X71260Y150787D02*
X66537D01*
Y153149D01*
X67324Y153936D01*
X68898D01*
X69686Y153149D01*
Y150787D01*
Y152362D02*
X71260Y153936D01*
X67324Y155510D02*
X66537Y156297D01*
Y157872D01*
X67324Y158659D01*
X68111D01*
X68898Y157872D01*
X69686Y158659D01*
X70473D01*
X71260Y157872D01*
Y156297D01*
X70473Y155510D01*
X69686D01*
X68898Y156297D01*
X68111Y155510D01*
X67324D01*
X68898Y156297D02*
Y157872D01*
X79134Y150787D02*
X74411D01*
Y153149D01*
X75198Y153936D01*
X76772D01*
X77560Y153149D01*
Y150787D01*
Y152362D02*
X79134Y153936D01*
X78347Y155510D02*
X79134Y156297D01*
Y157872D01*
X78347Y158659D01*
X75198D01*
X74411Y157872D01*
Y156297D01*
X75198Y155510D01*
X75985D01*
X76772Y156297D01*
Y158659D01*
X137008Y161811D02*
X132285D01*
Y164172D01*
X133072Y164960D01*
X134646D01*
X135434Y164172D01*
Y161811D01*
X137008Y166534D02*
X133859D01*
X132285Y168108D01*
X133859Y169683D01*
X137008D01*
X134646D01*
Y166534D01*
X137008Y171257D02*
Y172831D01*
Y172044D01*
X132285D01*
X133072Y171257D01*
X126378Y97638D02*
Y102361D01*
X128739D01*
X129526Y101574D01*
Y99999D01*
X128739Y99212D01*
X126378D01*
X131101Y102361D02*
Y97638D01*
X133462D01*
X134249Y98425D01*
Y99212D01*
X133462Y99999D01*
X131101D01*
X133462D01*
X134249Y100786D01*
Y101574D01*
X133462Y102361D01*
X131101D01*
X135824Y97638D02*
X137398D01*
X136611D01*
Y102361D01*
X135824Y101574D01*
X127953Y105118D02*
Y109841D01*
X130314D01*
X131101Y109054D01*
Y107480D01*
X130314Y106692D01*
X127953D01*
X132676Y105118D02*
Y108267D01*
X134250Y109841D01*
X135824Y108267D01*
Y105118D01*
Y107480D01*
X132676D01*
X140547Y109841D02*
X138973Y109054D01*
X137399Y107480D01*
Y105905D01*
X138186Y105118D01*
X139760D01*
X140547Y105905D01*
Y106692D01*
X139760Y107480D01*
X137399D01*
X127953Y161811D02*
X123230D01*
Y164172D01*
X124017Y164960D01*
X125591D01*
X126379Y164172D01*
Y161811D01*
X127953Y166534D02*
X124804D01*
X123230Y168108D01*
X124804Y169683D01*
X127953D01*
X125591D01*
Y166534D01*
X127953Y173618D02*
X123230D01*
X125591Y171257D01*
Y174405D01*
D54*
X149558Y200787D02*
Y196852D01*
X151526Y198819D02*
X147590D01*
D55*
X133819Y81766D02*
D03*
X104292Y81766D02*
D03*
D56*
X134819Y78741D02*
D03*
X105292Y78741D02*
D03*
D57*
X133689Y75756D02*
D03*
X104162D02*
D03*
D58*
X100394Y7874D02*
D03*
M02*
