<?xml version="1.0" encoding="utf-8" standalone="no"?>
<!DOCTYPE svg PUBLIC "-//W3C//DTD SVG 1.1//EN"
  "http://www.w3.org/Graphics/SVG/1.1/DTD/svg11.dtd">
<!-- Created with matplotlib (http://matplotlib.org/) -->
<svg height="432pt" version="1.1" viewBox="0 0 504 432" width="504pt" xmlns="http://www.w3.org/2000/svg" xmlns:xlink="http://www.w3.org/1999/xlink">
 <defs>
  <style type="text/css">
*{stroke-linecap:butt;stroke-linejoin:round;}
  </style>
 </defs>
 <g id="figure_1">
  <g id="patch_1">
   <path d="M 0 432 
L 504 432 
L 504 0 
L 0 0 
z
" style="fill:#ffffff;"/>
  </g>
  <g id="axes_1">
   <g id="patch_2">
    <path d="M 50.078 127.373333 
L 490.68 127.373333 
L 490.68 26.16 
L 50.078 26.16 
z
" style="fill:#ffffff;"/>
   </g>
   <g id="matplotlib.axis_1">
    <g id="xtick_1">
     <g id="line2d_1">
      <path clip-path="url(#p999b623d59)" d="M 70.105303 127.373333 
L 70.105303 26.16 
" style="fill:none;stroke:#08bdf9;stroke-dasharray:2.2,2.2;stroke-dashoffset:0;stroke-width:0.8;"/>
     </g>
     <g id="line2d_2">
      <defs>
       <path d="M 0 0 
L 0 3.5 
" id="m2067debc1a" style="stroke:#01769d;stroke-width:0.8;"/>
      </defs>
      <g>
       <use style="fill:#01769d;stroke:#01769d;stroke-width:0.8;" x="70.105303" xlink:href="#m2067debc1a" y="127.373333"/>
      </g>
     </g>
    </g>
    <g id="xtick_2">
     <g id="line2d_3">
      <path clip-path="url(#p999b623d59)" d="M 150.21477 127.373333 
L 150.21477 26.16 
" style="fill:none;stroke:#08bdf9;stroke-dasharray:2.2,2.2;stroke-dashoffset:0;stroke-width:0.8;"/>
     </g>
     <g id="line2d_4">
      <g>
       <use style="fill:#01769d;stroke:#01769d;stroke-width:0.8;" x="150.21477" xlink:href="#m2067debc1a" y="127.373333"/>
      </g>
     </g>
    </g>
    <g id="xtick_3">
     <g id="line2d_5">
      <path clip-path="url(#p999b623d59)" d="M 230.324237 127.373333 
L 230.324237 26.16 
" style="fill:none;stroke:#08bdf9;stroke-dasharray:2.2,2.2;stroke-dashoffset:0;stroke-width:0.8;"/>
     </g>
     <g id="line2d_6">
      <g>
       <use style="fill:#01769d;stroke:#01769d;stroke-width:0.8;" x="230.324237" xlink:href="#m2067debc1a" y="127.373333"/>
      </g>
     </g>
    </g>
    <g id="xtick_4">
     <g id="line2d_7">
      <path clip-path="url(#p999b623d59)" d="M 310.433703 127.373333 
L 310.433703 26.16 
" style="fill:none;stroke:#08bdf9;stroke-dasharray:2.2,2.2;stroke-dashoffset:0;stroke-width:0.8;"/>
     </g>
     <g id="line2d_8">
      <g>
       <use style="fill:#01769d;stroke:#01769d;stroke-width:0.8;" x="310.433703" xlink:href="#m2067debc1a" y="127.373333"/>
      </g>
     </g>
    </g>
    <g id="xtick_5">
     <g id="line2d_9">
      <path clip-path="url(#p999b623d59)" d="M 390.54317 127.373333 
L 390.54317 26.16 
" style="fill:none;stroke:#08bdf9;stroke-dasharray:2.2,2.2;stroke-dashoffset:0;stroke-width:0.8;"/>
     </g>
     <g id="line2d_10">
      <g>
       <use style="fill:#01769d;stroke:#01769d;stroke-width:0.8;" x="390.54317" xlink:href="#m2067debc1a" y="127.373333"/>
      </g>
     </g>
    </g>
    <g id="xtick_6">
     <g id="line2d_11">
      <path clip-path="url(#p999b623d59)" d="M 470.652636 127.373333 
L 470.652636 26.16 
" style="fill:none;stroke:#08bdf9;stroke-dasharray:2.2,2.2;stroke-dashoffset:0;stroke-width:0.8;"/>
     </g>
     <g id="line2d_12">
      <g>
       <use style="fill:#01769d;stroke:#01769d;stroke-width:0.8;" x="470.652636" xlink:href="#m2067debc1a" y="127.373333"/>
      </g>
     </g>
    </g>
   </g>
   <g id="matplotlib.axis_2">
    <g id="ytick_1">
     <g id="line2d_13">
      <path clip-path="url(#p999b623d59)" d="M 50.078 122.772727 
L 490.68 122.772727 
" style="fill:none;stroke:#08bdf9;stroke-dasharray:2.2,2.2;stroke-dashoffset:0;stroke-width:0.8;"/>
     </g>
     <g id="line2d_14">
      <defs>
       <path d="M 0 0 
L -3.5 0 
" id="m40df414541" style="stroke:#01769d;stroke-width:0.8;"/>
      </defs>
      <g>
       <use style="fill:#01769d;stroke:#01769d;stroke-width:0.8;" x="50.078" xlink:href="#m40df414541" y="122.772727"/>
      </g>
     </g>
     <g id="text_1">
      <!-- 0 -->
      <defs>
       <path d="M 31.78125 66.40625 
Q 24.171875 66.40625 20.328125 58.90625 
Q 16.5 51.421875 16.5 36.375 
Q 16.5 21.390625 20.328125 13.890625 
Q 24.171875 6.390625 31.78125 6.390625 
Q 39.453125 6.390625 43.28125 13.890625 
Q 47.125 21.390625 47.125 36.375 
Q 47.125 51.421875 43.28125 58.90625 
Q 39.453125 66.40625 31.78125 66.40625 
M 31.78125 74.21875 
Q 44.046875 74.21875 50.515625 64.515625 
Q 56.984375 54.828125 56.984375 36.375 
Q 56.984375 17.96875 50.515625 8.265625 
Q 44.046875 -1.421875 31.78125 -1.421875 
Q 19.53125 -1.421875 13.0625 8.265625 
Q 6.59375 17.96875 6.59375 36.375 
Q 6.59375 54.828125 13.0625 64.515625 
Q 19.53125 74.21875 31.78125 74.21875 
" id="DejaVuSans-30"/>
      </defs>
      <g style="fill:#01769d;" transform="translate(36.7155 126.571946)scale(0.1 -0.1)">
       <use xlink:href="#DejaVuSans-30"/>
      </g>
     </g>
    </g>
    <g id="ytick_2">
     <g id="line2d_15">
      <path clip-path="url(#p999b623d59)" d="M 50.078 94.890266 
L 490.68 94.890266 
" style="fill:none;stroke:#08bdf9;stroke-dasharray:2.2,2.2;stroke-dashoffset:0;stroke-width:0.8;"/>
     </g>
     <g id="line2d_16">
      <g>
       <use style="fill:#01769d;stroke:#01769d;stroke-width:0.8;" x="50.078" xlink:href="#m40df414541" y="94.890266"/>
      </g>
     </g>
     <g id="text_2">
      <!-- 1 -->
      <defs>
       <path d="M 12.40625 8.296875 
L 28.515625 8.296875 
L 28.515625 63.921875 
L 10.984375 60.40625 
L 10.984375 69.390625 
L 28.421875 72.90625 
L 38.28125 72.90625 
L 38.28125 8.296875 
L 54.390625 8.296875 
L 54.390625 0 
L 12.40625 0 
z
" id="DejaVuSans-31"/>
      </defs>
      <g style="fill:#01769d;" transform="translate(36.7155 98.689485)scale(0.1 -0.1)">
       <use xlink:href="#DejaVuSans-31"/>
      </g>
     </g>
    </g>
    <g id="ytick_3">
     <g id="line2d_17">
      <path clip-path="url(#p999b623d59)" d="M 50.078 67.007805 
L 490.68 67.007805 
" style="fill:none;stroke:#08bdf9;stroke-dasharray:2.2,2.2;stroke-dashoffset:0;stroke-width:0.8;"/>
     </g>
     <g id="line2d_18">
      <g>
       <use style="fill:#01769d;stroke:#01769d;stroke-width:0.8;" x="50.078" xlink:href="#m40df414541" y="67.007805"/>
      </g>
     </g>
     <g id="text_3">
      <!-- 2 -->
      <defs>
       <path d="M 19.1875 8.296875 
L 53.609375 8.296875 
L 53.609375 0 
L 7.328125 0 
L 7.328125 8.296875 
Q 12.9375 14.109375 22.625 23.890625 
Q 32.328125 33.6875 34.8125 36.53125 
Q 39.546875 41.84375 41.421875 45.53125 
Q 43.3125 49.21875 43.3125 52.78125 
Q 43.3125 58.59375 39.234375 62.25 
Q 35.15625 65.921875 28.609375 65.921875 
Q 23.96875 65.921875 18.8125 64.3125 
Q 13.671875 62.703125 7.8125 59.421875 
L 7.8125 69.390625 
Q 13.765625 71.78125 18.9375 73 
Q 24.125 74.21875 28.421875 74.21875 
Q 39.75 74.21875 46.484375 68.546875 
Q 53.21875 62.890625 53.21875 53.421875 
Q 53.21875 48.921875 51.53125 44.890625 
Q 49.859375 40.875 45.40625 35.40625 
Q 44.1875 33.984375 37.640625 27.21875 
Q 31.109375 20.453125 19.1875 8.296875 
" id="DejaVuSans-32"/>
      </defs>
      <g style="fill:#01769d;" transform="translate(36.7155 70.807024)scale(0.1 -0.1)">
       <use xlink:href="#DejaVuSans-32"/>
      </g>
     </g>
    </g>
    <g id="ytick_4">
     <g id="line2d_19">
      <path clip-path="url(#p999b623d59)" d="M 50.078 39.125344 
L 490.68 39.125344 
" style="fill:none;stroke:#08bdf9;stroke-dasharray:2.2,2.2;stroke-dashoffset:0;stroke-width:0.8;"/>
     </g>
     <g id="line2d_20">
      <g>
       <use style="fill:#01769d;stroke:#01769d;stroke-width:0.8;" x="50.078" xlink:href="#m40df414541" y="39.125344"/>
      </g>
     </g>
     <g id="text_4">
      <!-- 3 -->
      <defs>
       <path d="M 40.578125 39.3125 
Q 47.65625 37.796875 51.625 33 
Q 55.609375 28.21875 55.609375 21.1875 
Q 55.609375 10.40625 48.1875 4.484375 
Q 40.765625 -1.421875 27.09375 -1.421875 
Q 22.515625 -1.421875 17.65625 -0.515625 
Q 12.796875 0.390625 7.625 2.203125 
L 7.625 11.71875 
Q 11.71875 9.328125 16.59375 8.109375 
Q 21.484375 6.890625 26.8125 6.890625 
Q 36.078125 6.890625 40.9375 10.546875 
Q 45.796875 14.203125 45.796875 21.1875 
Q 45.796875 27.640625 41.28125 31.265625 
Q 36.765625 34.90625 28.71875 34.90625 
L 20.21875 34.90625 
L 20.21875 43.015625 
L 29.109375 43.015625 
Q 36.375 43.015625 40.234375 45.921875 
Q 44.09375 48.828125 44.09375 54.296875 
Q 44.09375 59.90625 40.109375 62.90625 
Q 36.140625 65.921875 28.71875 65.921875 
Q 24.65625 65.921875 20.015625 65.03125 
Q 15.375 64.15625 9.8125 62.3125 
L 9.8125 71.09375 
Q 15.4375 72.65625 20.34375 73.4375 
Q 25.25 74.21875 29.59375 74.21875 
Q 40.828125 74.21875 47.359375 69.109375 
Q 53.90625 64.015625 53.90625 55.328125 
Q 53.90625 49.265625 50.4375 45.09375 
Q 46.96875 40.921875 40.578125 39.3125 
" id="DejaVuSans-33"/>
      </defs>
      <g style="fill:#01769d;" transform="translate(36.7155 42.924563)scale(0.1 -0.1)">
       <use xlink:href="#DejaVuSans-33"/>
      </g>
     </g>
    </g>
    <g id="text_5">
     <!-- $V_{ctrl}\;(V)$ -->
     <defs>
      <path d="M 20.609375 0 
L 7.8125 72.90625 
L 17.484375 72.90625 
L 28.078125 10.203125 
L 63.484375 72.90625 
L 74.21875 72.90625 
L 32.078125 0 
z
" id="DejaVuSans-Oblique-56"/>
      <path d="M 53.609375 52.59375 
L 51.8125 43.703125 
Q 48.578125 46.046875 44.9375 47.21875 
Q 41.3125 48.390625 37.40625 48.390625 
Q 33.109375 48.390625 29.21875 46.875 
Q 25.34375 45.359375 22.703125 42.578125 
Q 18.5 38.328125 16.203125 32.609375 
Q 13.921875 26.90625 13.921875 20.796875 
Q 13.921875 13.421875 17.609375 9.8125 
Q 21.296875 6.203125 28.8125 6.203125 
Q 32.515625 6.203125 36.6875 7.328125 
Q 40.875 8.453125 45.40625 10.6875 
L 43.703125 1.8125 
Q 39.796875 0.203125 35.671875 -0.609375 
Q 31.546875 -1.421875 27.203125 -1.421875 
Q 16.3125 -1.421875 10.453125 4.015625 
Q 4.59375 9.46875 4.59375 19.578125 
Q 4.59375 28.078125 7.640625 35.234375 
Q 10.6875 42.390625 16.703125 48.09375 
Q 20.796875 52 26.3125 54 
Q 31.84375 56 38.375 56 
Q 42.1875 56 45.9375 55.140625 
Q 49.703125 54.296875 53.609375 52.59375 
" id="DejaVuSans-Oblique-63"/>
      <path d="M 42.28125 54.6875 
L 40.921875 47.703125 
L 23 47.703125 
L 17.1875 18.015625 
Q 16.890625 16.359375 16.75 15.234375 
Q 16.609375 14.109375 16.609375 13.484375 
Q 16.609375 10.359375 18.484375 8.9375 
Q 20.359375 7.515625 24.515625 7.515625 
L 33.59375 7.515625 
L 32.078125 0 
L 23.484375 0 
Q 15.484375 0 11.546875 3.125 
Q 7.625 6.25 7.625 12.59375 
Q 7.625 13.71875 7.765625 15.0625 
Q 7.90625 16.40625 8.203125 18.015625 
L 14.015625 47.703125 
L 6.390625 47.703125 
L 7.8125 54.6875 
L 15.28125 54.6875 
L 18.3125 70.21875 
L 27.296875 70.21875 
L 24.3125 54.6875 
z
" id="DejaVuSans-Oblique-74"/>
      <path d="M 44.578125 46.390625 
Q 43.21875 47.125 41.453125 47.515625 
Q 39.703125 47.90625 37.703125 47.90625 
Q 30.515625 47.90625 25.140625 42.453125 
Q 19.78125 37.015625 18.015625 27.875 
L 12.5 0 
L 3.515625 0 
L 14.203125 54.6875 
L 23.1875 54.6875 
L 21.484375 46.1875 
Q 25.046875 50.921875 30 53.453125 
Q 34.96875 56 40.578125 56 
Q 42.046875 56 43.453125 55.828125 
Q 44.875 55.671875 46.296875 55.28125 
z
" id="DejaVuSans-Oblique-72"/>
      <path d="M 18.3125 75.984375 
L 27.296875 75.984375 
L 12.5 0 
L 3.515625 0 
z
" id="DejaVuSans-Oblique-6c"/>
      <path d="M 31 75.875 
Q 24.46875 64.65625 21.28125 53.65625 
Q 18.109375 42.671875 18.109375 31.390625 
Q 18.109375 20.125 21.3125 9.0625 
Q 24.515625 -2 31 -13.1875 
L 23.1875 -13.1875 
Q 15.875 -1.703125 12.234375 9.375 
Q 8.59375 20.453125 8.59375 31.390625 
Q 8.59375 42.28125 12.203125 53.3125 
Q 15.828125 64.359375 23.1875 75.875 
z
" id="DejaVuSans-28"/>
      <path d="M 8.015625 75.875 
L 15.828125 75.875 
Q 23.140625 64.359375 26.78125 53.3125 
Q 30.421875 42.28125 30.421875 31.390625 
Q 30.421875 20.453125 26.78125 9.375 
Q 23.140625 -1.703125 15.828125 -13.1875 
L 8.015625 -13.1875 
Q 14.5 -2 17.703125 9.0625 
Q 20.90625 20.125 20.90625 31.390625 
Q 20.90625 42.671875 17.703125 53.65625 
Q 14.5 64.65625 8.015625 75.875 
" id="DejaVuSans-29"/>
     </defs>
     <g style="fill:#01769d;" transform="translate(30.635813 94.716667)rotate(-90)scale(0.1 -0.1)">
      <use transform="translate(0 0.125)" xlink:href="#DejaVuSans-Oblique-56"/>
      <use transform="translate(68.408203 -16.28125)scale(0.7)" xlink:href="#DejaVuSans-Oblique-63"/>
      <use transform="translate(106.894531 -16.28125)scale(0.7)" xlink:href="#DejaVuSans-Oblique-74"/>
      <use transform="translate(134.34082 -16.28125)scale(0.7)" xlink:href="#DejaVuSans-Oblique-72"/>
      <use transform="translate(163.120117 -16.28125)scale(0.7)" xlink:href="#DejaVuSans-Oblique-6c"/>
      <use transform="translate(212.36187 0.125)" xlink:href="#DejaVuSans-28"/>
      <use transform="translate(251.375542 0.125)" xlink:href="#DejaVuSans-Oblique-56"/>
      <use transform="translate(319.783745 0.125)" xlink:href="#DejaVuSans-29"/>
     </g>
    </g>
   </g>
   <g id="line2d_21">
    <path clip-path="url(#p999b623d59)" d="M 70.105364 30.899433 
L 70.242671 122.772727 
L 150.254825 122.772727 
L 150.384796 30.760606 
L 230.324237 30.760606 
L 230.457959 122.772727 
L 310.473758 122.772727 
L 310.608563 30.760606 
L 390.54317 30.760606 
L 390.676905 122.772727 
L 470.652636 122.772727 
L 470.652636 122.772727 
" style="fill:none;stroke:#fe3ea0;stroke-linecap:square;stroke-width:1.5;"/>
   </g>
   <g id="patch_3">
    <path d="M 50.078 127.373333 
L 50.078 26.16 
" style="fill:none;stroke:#08bdf9;stroke-linecap:square;stroke-linejoin:miter;stroke-width:0.8;"/>
   </g>
   <g id="patch_4">
    <path d="M 50.078 127.373333 
L 490.68 127.373333 
" style="fill:none;stroke:#08bdf9;stroke-linecap:square;stroke-linejoin:miter;stroke-width:0.8;"/>
   </g>
   <g id="text_6">
    <!-- Control voltage -->
    <defs>
     <path d="M 49.796875 19.203125 
L 51.59375 20.5 
Q 55 22.5 56.40625 22.5 
Q 59.5 22.5 63.09375 16.90625 
Q 65.296875 13.40625 65.296875 11.296875 
Q 65.296875 9.203125 63.9375 7.796875 
Q 62.59375 6.40625 60.796875 5.296875 
Q 59 4.203125 57.34375 3.203125 
Q 55.703125 2.203125 50.59375 0.59375 
Q 45.5 -1 40.75 -1 
Q 36 -1 31.140625 0.25 
Q 26.296875 1.5 21.140625 4.453125 
Q 16 7.40625 11.890625 11.65625 
Q 7.796875 15.90625 5.140625 22.546875 
Q 2.5 29.203125 2.5 37 
Q 2.5 44.796875 5.09375 51.140625 
Q 7.703125 57.5 11.75 61.640625 
Q 15.796875 65.796875 21 68.59375 
Q 30.796875 74 40.703125 74 
Q 45.40625 74 50.25 72.546875 
Q 55.09375 71.09375 57.59375 69.59375 
L 60 68.203125 
Q 61.796875 67.09375 62.796875 66.40625 
Q 65.40625 64.296875 65.40625 61.640625 
Q 65.40625 59 63.296875 56.09375 
Q 59.40625 50.703125 56.296875 50.703125 
Q 54.5 50.703125 51.203125 52.90625 
Q 47 56.296875 40 56.296875 
Q 33.5 56.296875 27.203125 51.796875 
Q 24.203125 49.59375 22.203125 45.59375 
Q 20.203125 41.59375 20.203125 36.546875 
Q 20.203125 31.5 22.203125 27.5 
Q 24.203125 23.5 27.296875 21.203125 
Q 33.40625 16.796875 40 16.796875 
Q 43.09375 16.796875 45.84375 17.59375 
Q 48.59375 18.40625 49.796875 19.203125 
" id="FredokaOne-Regular-43"/>
     <path d="M 2.5 26.296875 
Q 2.5 38.296875 10.890625 46.09375 
Q 19.296875 53.90625 30.09375 53.90625 
Q 40.90625 53.90625 49.203125 46.15625 
Q 57.5 38.40625 57.5 26.40625 
Q 57.5 18.09375 53.203125 11.640625 
Q 48.90625 5.203125 42.75 2.140625 
Q 36.59375 -0.90625 30 -0.90625 
Q 23.40625 -0.90625 17.203125 2.34375 
Q 11 5.59375 6.75 11.9375 
Q 2.5 18.296875 2.5 26.296875 
z
M 20.203125 21.59375 
Q 26.59375 16.703125 29.890625 16.703125 
Q 33.203125 16.703125 36.5 19.203125 
Q 39.796875 21.703125 39.796875 26.59375 
Q 39.796875 31.5 36.6875 33.890625 
Q 33.59375 36.296875 30 36.296875 
Q 26.40625 36.296875 23.296875 33.796875 
Q 20.203125 31.296875 20.203125 26.4375 
Q 20.203125 21.59375 26.59375 16.703125 
" id="FredokaOne-Regular-6f"/>
     <path d="M 33.296875 52.703125 
Q 43.296875 52.703125 49.9375 45.046875 
Q 56.59375 37.40625 56.59375 26.40625 
L 56.59375 8.796875 
Q 56.59375 6.5 56.4375 5.34375 
Q 56.296875 4.203125 55.59375 2.796875 
Q 54.203125 0.09375 47.796875 0.09375 
Q 40.703125 0.09375 39.59375 3.796875 
Q 39 5.5 39 8.90625 
L 39 26.5 
Q 39 30.59375 36.640625 32.890625 
Q 34.296875 35.203125 30.34375 35.203125 
Q 26.40625 35.203125 23.953125 32.796875 
Q 21.5 30.40625 21.5 26.5 
L 21.5 8.796875 
Q 21.5 6.5 21.34375 5.34375 
Q 21.203125 4.203125 20.40625 2.796875 
Q 19.09375 0.09375 12.703125 0.09375 
Q 6.40625 0.09375 5 2.796875 
Q 4.296875 4.296875 4.140625 5.4375 
Q 4 6.59375 4 8.90625 
L 4 44.296875 
Q 4 46.5 4.140625 47.640625 
Q 4.296875 48.796875 5.09375 50.203125 
Q 6.5 52.703125 12.796875 52.703125 
Q 18.90625 52.703125 20.296875 50.40625 
Q 21.296875 48.703125 21.296875 46.296875 
Q 21.703125 47 23.09375 48.296875 
Q 24.5 49.59375 25.796875 50.40625 
Q 29.203125 52.703125 33.296875 52.703125 
" id="FredokaOne-Regular-6e"/>
     <path d="M 34.59375 35 
L 28.09375 35.40625 
L 28.09375 21.59375 
Q 28.09375 18.90625 28.9375 17.703125 
Q 29.796875 16.5 32.140625 16.5 
Q 34.5 16.5 35.75 16.34375 
Q 37 16.203125 38.40625 15.40625 
Q 40.703125 14.09375 40.703125 8.703125 
Q 40.703125 2.40625 37.90625 1 
Q 36.40625 0.296875 35.25 0.140625 
Q 34.09375 0 31.90625 0 
Q 21.5 0 16.09375 4.703125 
Q 10.703125 9.40625 10.703125 20.59375 
L 10.703125 35.40625 
Q 8.796875 35.09375 6.59375 35.09375 
Q 4.40625 35.09375 2.953125 36.796875 
Q 1.5 38.5 1.5 42.59375 
Q 1.5 46.703125 2 48.546875 
Q 2.5 50.40625 3.40625 51.203125 
Q 5 52.5 7.40625 52.5 
L 10.703125 52.09375 
L 10.703125 62.40625 
Q 10.703125 64.703125 10.84375 65.796875 
Q 11 66.90625 11.796875 68.203125 
Q 13.09375 70.703125 19.5 70.703125 
Q 26.296875 70.703125 27.59375 67 
Q 28.09375 65.40625 28.09375 61.90625 
L 28.09375 52.09375 
Q 32.5 52.5 34.75 52.5 
Q 37 52.5 38.140625 52.34375 
Q 39.296875 52.203125 40.796875 51.40625 
Q 43.40625 50.09375 43.40625 43.703125 
Q 43.40625 37.40625 40.703125 36 
Q 39.203125 35.296875 38.046875 35.140625 
Q 36.90625 35 34.59375 35 
" id="FredokaOne-Regular-74"/>
     <path d="M 37.90625 52.703125 
Q 41.703125 51.5 42.953125 50.046875 
Q 44.203125 48.59375 44.203125 45.390625 
Q 44.203125 42.203125 42.296875 38.390625 
Q 40.40625 34.59375 36.796875 34.59375 
Q 35 34.59375 33.34375 35.390625 
Q 31.703125 36.203125 29 36.203125 
Q 26.296875 36.203125 23.9375 34.296875 
Q 21.59375 32.40625 21.59375 29.703125 
L 21.59375 8.703125 
Q 21.59375 6.40625 21.4375 5.25 
Q 21.296875 4.09375 20.5 2.59375 
Q 19 0 12.703125 0 
Q 7.90625 0 5.796875 1.703125 
Q 4.203125 3.09375 4 6 
Q 4 7 4 8.90625 
L 4 44 
Q 4 46.296875 4.140625 47.4375 
Q 4.296875 48.59375 5 50 
Q 6.40625 52.703125 12.796875 52.703125 
Q 18.796875 52.703125 20.296875 50.40625 
Q 21.40625 48.796875 21.40625 47.09375 
Q 21.90625 47.796875 22.84375 48.796875 
Q 23.796875 49.796875 26.890625 51.5 
Q 30 53.203125 32.34375 53.203125 
Q 34.703125 53.203125 36.296875 52.953125 
Q 37.90625 52.703125 41.703125 51.5 
" id="FredokaOne-Regular-72"/>
     <path d="M 4 68.703125 
Q 4 71 4.140625 72.140625 
Q 4.296875 73.296875 5 74.796875 
Q 6.40625 77.5 12.796875 77.5 
Q 18.90625 77.5 20.40625 74.796875 
Q 21.203125 73.296875 21.34375 72.09375 
Q 21.5 70.90625 21.5 68.59375 
L 21.5 22.296875 
Q 21.5 18.703125 22.09375 17.75 
Q 22.703125 16.796875 24.75 16.796875 
Q 26.796875 16.796875 27.5 16.640625 
Q 28.203125 16.5 29.203125 15.796875 
Q 31.203125 14.5 31.203125 8.703125 
Q 31.203125 2.40625 29.203125 1 
Q 26.59375 -0.796875 16.796875 0.40625 
Q 9.09375 1.40625 6.796875 5.5 
Q 4 10.40625 4 21.09375 
z
" id="FredokaOne-Regular-6c"/>
     <path id="FredokaOne-Regular-20"/>
     <path d="M 57.09375 51.5 
Q 62.296875 48.40625 62.296875 44.90625 
Q 62.296875 42.90625 60.296875 39.40625 
L 39.59375 3.90625 
Q 38.59375 2.203125 36.390625 0.84375 
Q 34.203125 -0.5 32.046875 -0.5 
Q 29.90625 -0.5 27.953125 0.546875 
Q 26 1.59375 25.203125 2.703125 
L 24.296875 3.796875 
L 3.5 39.40625 
Q 1.5 42.703125 1.5 44.796875 
Q 1.5 48.40625 6.703125 51.5 
Q 10.5 53.703125 12.703125 53.703125 
Q 14.90625 53.703125 16.15625 52.34375 
Q 17.40625 51 18.796875 48.296875 
L 31.90625 23.09375 
L 45 48.296875 
Q 46.09375 50.203125 46.640625 51.046875 
Q 47.203125 51.90625 48.390625 52.75 
Q 49.59375 53.59375 51.59375 53.59375 
Q 53.59375 53.59375 57.09375 51.5 
" id="FredokaOne-Regular-76"/>
     <path d="M 38.203125 47.09375 
Q 38.796875 52.703125 46.09375 52.703125 
Q 50 52.703125 51.890625 52.09375 
Q 53.796875 51.5 54.546875 50 
Q 55.296875 48.5 55.4375 47.34375 
Q 55.59375 46.203125 55.59375 43.90625 
L 55.59375 8.90625 
Q 55.59375 6.59375 55.4375 5.4375 
Q 55.296875 4.296875 54.59375 2.796875 
Q 53.203125 0.203125 47.75 0.203125 
Q 42.296875 0.203125 40.4375 1.546875 
Q 38.59375 2.90625 38.296875 5.5 
Q 34.59375 0.203125 25.9375 0.203125 
Q 17.296875 0.203125 9.890625 8.09375 
Q 2.5 16 2.5 26.453125 
Q 2.5 36.90625 9.953125 44.75 
Q 17.40625 52.59375 26.296875 52.59375 
Q 29.703125 52.59375 32.5 51.390625 
Q 35.296875 50.203125 36.390625 49.140625 
Q 37.5 48.09375 38.203125 47.09375 
M 20 29.59375 
Q 20 23 22.59375 20.34375 
Q 25.203125 17.703125 28.890625 17.703125 
Q 32.59375 17.703125 35.046875 20.390625 
Q 37.5 23.09375 37.5 26.34375 
Q 37.5 29.59375 35.140625 32.390625 
Q 32.796875 35.203125 28.84375 35.203125 
Q 24.90625 35.203125 22.453125 32.390625 
Q 20 29.59375 20 23 
" id="FredokaOne-Regular-61"/>
     <path d="M 37.40625 6.59375 
Q 33.59375 1.59375 25.296875 1.59375 
Q 17 1.59375 9.75 9.25 
Q 2.5 16.90625 2.5 27.09375 
Q 2.5 37.296875 9.796875 45 
Q 17.09375 52.703125 25.796875 52.703125 
Q 29.203125 52.703125 32 51.453125 
Q 34.796875 50.203125 35.84375 49.140625 
Q 36.90625 48.09375 37.5 47.203125 
Q 37.796875 50 39.546875 51.453125 
Q 41.296875 52.90625 45.1875 52.90625 
Q 49.09375 52.90625 50.890625 52.296875 
Q 52.703125 51.703125 53.453125 50.25 
Q 54.203125 48.796875 54.34375 47.6875 
Q 54.5 46.59375 54.5 44.296875 
L 54.5 2.90625 
Q 54.5 -8.59375 46.5 -15.640625 
Q 38.5 -22.703125 28.5 -22.703125 
Q 20.90625 -22.703125 14 -19 
Q 7.09375 -15.296875 7.09375 -12.296875 
Q 7.09375 -8.40625 10.09375 -5.40625 
Q 12 -3.296875 13.046875 -2.5 
Q 14.09375 -1.703125 15.5 -1.703125 
Q 16.90625 -1.703125 18.40625 -2.90625 
Q 23.203125 -6.59375 28.796875 -6.59375 
Q 32.59375 -6.59375 35 -3.59375 
Q 37.40625 -0.59375 37.40625 3.59375 
z
M 19.59375 30.296875 
Q 19.59375 23.796875 22.140625 21.1875 
Q 24.703125 18.59375 28.34375 18.59375 
Q 32 18.59375 34.390625 21.25 
Q 36.796875 23.90625 36.796875 27.046875 
Q 36.796875 30.203125 34.5 32.953125 
Q 32.203125 35.703125 28.296875 35.703125 
Q 24.40625 35.703125 22 33 
Q 19.59375 30.296875 19.59375 23.796875 
" id="FredokaOne-Regular-67"/>
     <path d="M 54.796875 38.796875 
Q 54.796875 26.5 51.75 23.546875 
Q 48.703125 20.59375 45 20.59375 
L 21.296875 20.59375 
Q 21.296875 17.796875 24.59375 15.890625 
Q 27.90625 14 31.203125 14 
Q 37 14 40.296875 15.203125 
L 41.40625 15.59375 
Q 43.796875 16.703125 45.40625 16.703125 
Q 48.59375 16.703125 50.90625 12.203125 
Q 52.203125 9.5 52.203125 7.59375 
Q 52.203125 -1.296875 30.90625 -1.296875 
Q 23.5 -1.296875 17.75 1.25 
Q 12 3.796875 8.796875 8 
Q 2.5 16.09375 2.5 26.09375 
Q 2.5 38.703125 10.640625 46.25 
Q 18.796875 53.796875 31 53.796875 
Q 44.90625 53.796875 51.40625 44 
Q 54.796875 38.796875 54.796875 26.5 
M 33.703125 29.703125 
Q 37.5 29.703125 37.5 32.90625 
Q 37.5 35.203125 35.75 36.59375 
Q 34 38 30.75 38 
Q 27.5 38 24.296875 35.34375 
Q 21.09375 32.703125 21.09375 29.703125 
z
" id="FredokaOne-Regular-65"/>
    </defs>
    <g style="fill:#fe3ea0;" transform="translate(223.944625 20.16)scale(0.12 -0.12)">
     <use xlink:href="#FredokaOne-Regular-43"/>
     <use x="67.899994" xlink:href="#FredokaOne-Regular-6f"/>
     <use x="127.899979" xlink:href="#FredokaOne-Regular-6e"/>
     <use x="188.499969" xlink:href="#FredokaOne-Regular-74"/>
     <use x="233.399963" xlink:href="#FredokaOne-Regular-72"/>
     <use x="279.09996" xlink:href="#FredokaOne-Regular-6f"/>
     <use x="339.099945" xlink:href="#FredokaOne-Regular-6c"/>
     <use x="371.799942" xlink:href="#FredokaOne-Regular-20"/>
     <use x="397.09993" xlink:href="#FredokaOne-Regular-76"/>
     <use x="460.899918" xlink:href="#FredokaOne-Regular-6f"/>
     <use x="520.899902" xlink:href="#FredokaOne-Regular-6c"/>
     <use x="553.599899" xlink:href="#FredokaOne-Regular-74"/>
     <use x="598.499893" xlink:href="#FredokaOne-Regular-61"/>
     <use x="658.099884" xlink:href="#FredokaOne-Regular-67"/>
     <use x="716.599869" xlink:href="#FredokaOne-Regular-65"/>
    </g>
   </g>
  </g>
  <g id="axes_2">
   <g id="patch_5">
    <path d="M 50.078 257.266667 
L 490.68 257.266667 
L 490.68 156.053333 
L 50.078 156.053333 
z
" style="fill:#ffffff;"/>
   </g>
   <g id="matplotlib.axis_3">
    <g id="xtick_7">
     <g id="line2d_22">
      <path clip-path="url(#p76fded7fc8)" d="M 70.105303 257.266667 
L 70.105303 156.053333 
" style="fill:none;stroke:#08bdf9;stroke-dasharray:2.2,2.2;stroke-dashoffset:0;stroke-width:0.8;"/>
     </g>
     <g id="line2d_23">
      <g>
       <use style="fill:#01769d;stroke:#01769d;stroke-width:0.8;" x="70.105303" xlink:href="#m2067debc1a" y="257.266667"/>
      </g>
     </g>
    </g>
    <g id="xtick_8">
     <g id="line2d_24">
      <path clip-path="url(#p76fded7fc8)" d="M 150.21477 257.266667 
L 150.21477 156.053333 
" style="fill:none;stroke:#08bdf9;stroke-dasharray:2.2,2.2;stroke-dashoffset:0;stroke-width:0.8;"/>
     </g>
     <g id="line2d_25">
      <g>
       <use style="fill:#01769d;stroke:#01769d;stroke-width:0.8;" x="150.21477" xlink:href="#m2067debc1a" y="257.266667"/>
      </g>
     </g>
    </g>
    <g id="xtick_9">
     <g id="line2d_26">
      <path clip-path="url(#p76fded7fc8)" d="M 230.324237 257.266667 
L 230.324237 156.053333 
" style="fill:none;stroke:#08bdf9;stroke-dasharray:2.2,2.2;stroke-dashoffset:0;stroke-width:0.8;"/>
     </g>
     <g id="line2d_27">
      <g>
       <use style="fill:#01769d;stroke:#01769d;stroke-width:0.8;" x="230.324237" xlink:href="#m2067debc1a" y="257.266667"/>
      </g>
     </g>
    </g>
    <g id="xtick_10">
     <g id="line2d_28">
      <path clip-path="url(#p76fded7fc8)" d="M 310.433703 257.266667 
L 310.433703 156.053333 
" style="fill:none;stroke:#08bdf9;stroke-dasharray:2.2,2.2;stroke-dashoffset:0;stroke-width:0.8;"/>
     </g>
     <g id="line2d_29">
      <g>
       <use style="fill:#01769d;stroke:#01769d;stroke-width:0.8;" x="310.433703" xlink:href="#m2067debc1a" y="257.266667"/>
      </g>
     </g>
    </g>
    <g id="xtick_11">
     <g id="line2d_30">
      <path clip-path="url(#p76fded7fc8)" d="M 390.54317 257.266667 
L 390.54317 156.053333 
" style="fill:none;stroke:#08bdf9;stroke-dasharray:2.2,2.2;stroke-dashoffset:0;stroke-width:0.8;"/>
     </g>
     <g id="line2d_31">
      <g>
       <use style="fill:#01769d;stroke:#01769d;stroke-width:0.8;" x="390.54317" xlink:href="#m2067debc1a" y="257.266667"/>
      </g>
     </g>
    </g>
    <g id="xtick_12">
     <g id="line2d_32">
      <path clip-path="url(#p76fded7fc8)" d="M 470.652636 257.266667 
L 470.652636 156.053333 
" style="fill:none;stroke:#08bdf9;stroke-dasharray:2.2,2.2;stroke-dashoffset:0;stroke-width:0.8;"/>
     </g>
     <g id="line2d_33">
      <g>
       <use style="fill:#01769d;stroke:#01769d;stroke-width:0.8;" x="470.652636" xlink:href="#m2067debc1a" y="257.266667"/>
      </g>
     </g>
    </g>
   </g>
   <g id="matplotlib.axis_4">
    <g id="ytick_5">
     <g id="line2d_34">
      <path clip-path="url(#p76fded7fc8)" d="M 50.078 244.505911 
L 490.68 244.505911 
" style="fill:none;stroke:#08bdf9;stroke-dasharray:2.2,2.2;stroke-dashoffset:0;stroke-width:0.8;"/>
     </g>
     <g id="line2d_35">
      <g>
       <use style="fill:#01769d;stroke:#01769d;stroke-width:0.8;" x="50.078" xlink:href="#m40df414541" y="244.505911"/>
      </g>
     </g>
     <g id="text_7">
      <!-- 0.0 -->
      <defs>
       <path d="M 10.6875 12.40625 
L 21 12.40625 
L 21 0 
L 10.6875 0 
z
" id="DejaVuSans-2e"/>
      </defs>
      <g style="fill:#01769d;" transform="translate(27.174875 248.30513)scale(0.1 -0.1)">
       <use xlink:href="#DejaVuSans-30"/>
       <use x="63.623047" xlink:href="#DejaVuSans-2e"/>
       <use x="95.410156" xlink:href="#DejaVuSans-30"/>
      </g>
     </g>
    </g>
    <g id="ytick_6">
     <g id="line2d_36">
      <path clip-path="url(#p76fded7fc8)" d="M 50.078 224.113612 
L 490.68 224.113612 
" style="fill:none;stroke:#08bdf9;stroke-dasharray:2.2,2.2;stroke-dashoffset:0;stroke-width:0.8;"/>
     </g>
     <g id="line2d_37">
      <g>
       <use style="fill:#01769d;stroke:#01769d;stroke-width:0.8;" x="50.078" xlink:href="#m40df414541" y="224.113612"/>
      </g>
     </g>
     <g id="text_8">
      <!-- 0.1 -->
      <g style="fill:#01769d;" transform="translate(27.174875 227.912831)scale(0.1 -0.1)">
       <use xlink:href="#DejaVuSans-30"/>
       <use x="63.623047" xlink:href="#DejaVuSans-2e"/>
       <use x="95.410156" xlink:href="#DejaVuSans-31"/>
      </g>
     </g>
    </g>
    <g id="ytick_7">
     <g id="line2d_38">
      <path clip-path="url(#p76fded7fc8)" d="M 50.078 203.721313 
L 490.68 203.721313 
" style="fill:none;stroke:#08bdf9;stroke-dasharray:2.2,2.2;stroke-dashoffset:0;stroke-width:0.8;"/>
     </g>
     <g id="line2d_39">
      <g>
       <use style="fill:#01769d;stroke:#01769d;stroke-width:0.8;" x="50.078" xlink:href="#m40df414541" y="203.721313"/>
      </g>
     </g>
     <g id="text_9">
      <!-- 0.2 -->
      <g style="fill:#01769d;" transform="translate(27.174875 207.520531)scale(0.1 -0.1)">
       <use xlink:href="#DejaVuSans-30"/>
       <use x="63.623047" xlink:href="#DejaVuSans-2e"/>
       <use x="95.410156" xlink:href="#DejaVuSans-32"/>
      </g>
     </g>
    </g>
    <g id="ytick_8">
     <g id="line2d_40">
      <path clip-path="url(#p76fded7fc8)" d="M 50.078 183.329014 
L 490.68 183.329014 
" style="fill:none;stroke:#08bdf9;stroke-dasharray:2.2,2.2;stroke-dashoffset:0;stroke-width:0.8;"/>
     </g>
     <g id="line2d_41">
      <g>
       <use style="fill:#01769d;stroke:#01769d;stroke-width:0.8;" x="50.078" xlink:href="#m40df414541" y="183.329014"/>
      </g>
     </g>
     <g id="text_10">
      <!-- 0.3 -->
      <g style="fill:#01769d;" transform="translate(27.174875 187.128232)scale(0.1 -0.1)">
       <use xlink:href="#DejaVuSans-30"/>
       <use x="63.623047" xlink:href="#DejaVuSans-2e"/>
       <use x="95.410156" xlink:href="#DejaVuSans-33"/>
      </g>
     </g>
    </g>
    <g id="ytick_9">
     <g id="line2d_42">
      <path clip-path="url(#p76fded7fc8)" d="M 50.078 162.936715 
L 490.68 162.936715 
" style="fill:none;stroke:#08bdf9;stroke-dasharray:2.2,2.2;stroke-dashoffset:0;stroke-width:0.8;"/>
     </g>
     <g id="line2d_43">
      <g>
       <use style="fill:#01769d;stroke:#01769d;stroke-width:0.8;" x="50.078" xlink:href="#m40df414541" y="162.936715"/>
      </g>
     </g>
     <g id="text_11">
      <!-- 0.4 -->
      <defs>
       <path d="M 37.796875 64.3125 
L 12.890625 25.390625 
L 37.796875 25.390625 
z
M 35.203125 72.90625 
L 47.609375 72.90625 
L 47.609375 25.390625 
L 58.015625 25.390625 
L 58.015625 17.1875 
L 47.609375 17.1875 
L 47.609375 0 
L 37.796875 0 
L 37.796875 17.1875 
L 4.890625 17.1875 
L 4.890625 26.703125 
z
" id="DejaVuSans-34"/>
      </defs>
      <g style="fill:#01769d;" transform="translate(27.174875 166.735933)scale(0.1 -0.1)">
       <use xlink:href="#DejaVuSans-30"/>
       <use x="63.623047" xlink:href="#DejaVuSans-2e"/>
       <use x="95.410156" xlink:href="#DejaVuSans-34"/>
      </g>
     </g>
    </g>
    <g id="text_12">
     <!-- $I_{LED}\;(A)$ -->
     <defs>
      <path d="M 16.890625 72.90625 
L 26.8125 72.90625 
L 12.59375 0 
L 2.6875 0 
z
" id="DejaVuSans-Oblique-49"/>
      <path d="M 16.796875 72.90625 
L 26.703125 72.90625 
L 14.203125 8.203125 
L 49.703125 8.203125 
L 48.09375 0 
L 2.6875 0 
z
" id="DejaVuSans-Oblique-4c"/>
      <path d="M 16.890625 72.90625 
L 62.984375 72.90625 
L 61.375 64.59375 
L 25.09375 64.59375 
L 20.90625 43.015625 
L 55.71875 43.015625 
L 54.109375 34.71875 
L 19.28125 34.71875 
L 14.203125 8.296875 
L 51.3125 8.296875 
L 49.703125 0 
L 2.6875 0 
z
" id="DejaVuSans-Oblique-45"/>
      <path d="M 16.890625 72.90625 
L 38.09375 72.90625 
Q 54.984375 72.90625 63.59375 65.75 
Q 72.21875 58.59375 72.21875 44.484375 
Q 72.21875 35.15625 68.9375 26.53125 
Q 65.671875 17.921875 59.90625 12.015625 
Q 54.109375 5.953125 45.171875 2.96875 
Q 36.234375 0 24.03125 0 
L 2.6875 0 
z
M 25.203125 64.796875 
L 14.203125 8.109375 
L 27.09375 8.109375 
Q 43.65625 8.109375 52.734375 17.625 
Q 61.8125 27.15625 61.8125 44.484375 
Q 61.8125 54.984375 55.953125 59.890625 
Q 50.09375 64.796875 37.59375 64.796875 
z
" id="DejaVuSans-Oblique-44"/>
      <path d="M 36.8125 72.90625 
L 48 72.90625 
L 61.53125 0 
L 51.21875 0 
L 48.1875 18.703125 
L 15.375 18.703125 
L 5.078125 0 
L -5.328125 0 
z
M 40.375 63.1875 
L 19.921875 26.90625 
L 46.6875 26.90625 
z
" id="DejaVuSans-Oblique-41"/>
     </defs>
     <g style="fill:#01769d;" transform="translate(21.095187 223.81)rotate(-90)scale(0.1 -0.1)">
      <use transform="translate(0 0.125)" xlink:href="#DejaVuSans-Oblique-49"/>
      <use transform="translate(29.492188 -16.28125)scale(0.7)" xlink:href="#DejaVuSans-Oblique-4c"/>
      <use transform="translate(68.491211 -16.28125)scale(0.7)" xlink:href="#DejaVuSans-Oblique-45"/>
      <use transform="translate(112.719727 -16.28125)scale(0.7)" xlink:href="#DejaVuSans-Oblique-44"/>
      <use transform="translate(196.414604 0.125)" xlink:href="#DejaVuSans-28"/>
      <use transform="translate(235.428276 0.125)" xlink:href="#DejaVuSans-Oblique-41"/>
      <use transform="translate(303.836479 0.125)" xlink:href="#DejaVuSans-29"/>
     </g>
    </g>
   </g>
   <g id="line2d_44">
    <path clip-path="url(#p76fded7fc8)" d="M 70.105364 160.654347 
L 73.406672 160.758062 
L 74.182127 160.926503 
L 74.589426 161.172393 
L 75.111467 161.892588 
L 75.502627 162.733566 
L 76.284946 165.241738 
L 77.067265 168.954727 
L 77.849584 174.156231 
L 78.631903 181.472886 
L 79.414222 191.819388 
L 80.196541 206.04685 
L 81.249647 231.20068 
L 81.997582 248.411791 
L 82.335617 251.996506 
L 82.560635 252.661366 
L 82.807846 252.030008 
L 83.275251 248.168425 
L 84.091475 240.074067 
L 84.427158 238.371593 
L 84.590449 238.0819 
L 84.796261 238.144311 
L 85.122992 239.037084 
L 85.546367 241.281658 
L 86.53368 247.174176 
L 86.698746 247.589624 
L 86.946837 247.734295 
L 87.217779 247.374634 
L 87.626533 245.97353 
L 88.57326 242.174378 
L 88.732787 241.887882 
L 88.964912 241.744997 
L 89.228097 241.921984 
L 89.695982 242.962419 
L 90.659731 245.76807 
L 90.81231 245.96278 
L 91.037063 246.054789 
L 91.301333 245.920954 
L 91.743958 245.219611 
L 92.690966 243.304484 
L 93.073263 243.075665 
L 93.333463 243.152398 
L 93.820399 243.684108 
L 94.864923 245.141876 
L 95.296657 245.205738 
L 95.825192 244.860042 
L 96.903017 243.803781 
L 97.354316 243.751141 
L 97.909077 244.016357 
L 98.997703 244.779867 
L 99.421855 244.811578 
L 100.075991 244.569152 
L 100.970818 244.11838 
L 101.395063 244.072632 
L 102.122734 244.250846 
L 103.223202 244.615934 
L 103.93842 244.561333 
L 105.462837 244.244656 
L 106.490204 244.391794 
L 107.473771 244.527908 
L 108.821803 244.387714 
L 109.794991 244.341623 
L 112.750686 244.42527 
L 114.301561 244.403488 
L 116.818352 244.435838 
L 119.334053 244.449809 
L 125.398623 244.445009 
L 143.799822 244.464109 
L 150.593435 244.55795 
L 150.879385 244.708919 
L 151.077096 244.390395 
L 151.448857 242.673575 
L 152.070377 237.713438 
L 152.735443 230.873351 
L 153.411856 221.738133 
L 154.376033 205.127606 
L 155.084843 197.834362 
L 155.793779 192.339616 
L 156.967258 185.169378 
L 158.140736 179.680729 
L 159.314215 175.441803 
L 160.487693 172.157704 
L 161.661172 169.608524 
L 162.83465 167.62731 
L 164.008129 166.086162 
L 165.181607 164.886606 
L 166.355086 163.952516 
L 167.919724 163.019997 
L 169.484362 162.351394 
L 171.440159 161.774863 
L 173.787116 161.335328 
L 176.916392 161.004932 
L 181.219147 160.795054 
L 189.042337 160.681102 
L 213.964785 160.65449 
L 233.505523 160.744359 
L 234.531386 160.984274 
L 234.933322 161.294767 
L 235.150733 161.584909 
L 235.541892 162.317298 
L 236.324211 164.56349 
L 237.10653 167.984991 
L 237.888849 172.802713 
L 238.671169 179.559477 
L 239.453488 189.124321 
L 240.235807 202.40813 
L 241.018126 219.784979 
L 242.227878 248.548943 
L 242.571853 252.071645 
L 242.791799 252.666061 
L 243.035893 251.989456 
L 243.502625 248.098169 
L 244.325936 239.979259 
L 244.660672 238.343438 
L 244.822408 238.076704 
L 245.024539 238.157182 
L 245.345009 239.049025 
L 245.751938 241.192566 
L 246.750899 247.165625 
L 246.912041 247.579255 
L 247.160257 247.737346 
L 247.427239 247.399751 
L 247.836789 246.012951 
L 248.787874 242.185826 
L 248.945748 241.896981 
L 249.175418 241.745497 
L 249.437193 241.910485 
L 249.912637 242.954352 
L 250.872531 245.757465 
L 251.022262 245.95393 
L 251.244181 246.055174 
L 251.505716 245.934627 
L 251.957639 245.231898 
L 252.906735 243.309185 
L 253.285675 243.076212 
L 253.544657 243.148051 
L 254.037729 243.680764 
L 254.978606 245.062576 
L 255.318559 245.225553 
L 255.563 245.194625 
L 256.063641 244.840797 
L 257.135245 243.798287 
L 257.593585 243.755616 
L 258.15036 244.032672 
L 259.219611 244.781174 
L 259.644313 244.811073 
L 260.298643 244.567601 
L 261.192166 244.117969 
L 261.618766 244.072892 
L 262.350205 244.253914 
L 263.45004 244.616621 
L 264.165076 244.559974 
L 265.681078 244.244683 
L 266.709225 244.39164 
L 267.687473 244.52788 
L 269.022572 244.390267 
L 270.006772 244.341347 
L 272.947246 244.426995 
L 274.45635 244.400681 
L 277.174479 244.430807 
L 279.732844 244.452909 
L 289.937672 244.450694 
L 310.772649 244.526887 
L 311.09794 244.709118 
L 311.295838 244.39088 
L 311.667372 242.676158 
L 312.288591 237.720072 
L 312.95366 230.881536 
L 313.631103 221.732525 
L 314.592698 205.155891 
L 315.298266 197.881754 
L 316.005878 192.387518 
L 317.179357 185.205615 
L 318.352835 179.708646 
L 319.526314 175.463398 
L 320.699792 172.174467 
L 321.873271 169.621534 
L 323.046749 167.637425 
L 324.220228 166.094034 
L 325.393706 164.892744 
L 326.567185 163.957288 
L 328.131823 163.023423 
L 329.696461 162.353841 
L 331.652258 161.776495 
L 333.999215 161.336307 
L 337.128491 161.005441 
L 341.431246 160.795258 
L 349.254436 160.681143 
L 374.176884 160.65449 
L 393.750551 160.747173 
L 394.7648 160.991758 
L 395.183091 161.331229 
L 395.410744 161.647615 
L 395.801904 162.407371 
L 396.584223 164.713271 
L 397.366542 168.200334 
L 398.148861 173.103132 
L 398.93118 179.983677 
L 399.713499 189.722937 
L 400.495818 203.220784 
L 401.278137 220.795703 
L 402.43097 248.281284 
L 402.76728 251.918238 
L 402.983086 252.646957 
L 403.224384 252.124513 
L 403.698232 248.338236 
L 404.522356 240.149592 
L 404.835239 238.496761 
L 405.013872 238.128962 
L 405.224907 238.160029 
L 405.582565 239.13474 
L 406.001531 241.388181 
L 406.974354 247.180767 
L 407.13936 247.589824 
L 407.38885 247.727358 
L 407.660823 247.358471 
L 408.068594 245.954296 
L 409.013354 242.172734 
L 409.173563 241.88766 
L 409.406732 241.748623 
L 409.670494 241.930425 
L 410.135249 242.967996 
L 411.100587 245.770713 
L 411.254312 245.964304 
L 411.48024 246.052286 
L 411.74562 245.913096 
L 412.184447 245.213395 
L 413.130537 243.304063 
L 413.514201 243.077282 
L 413.774893 243.155921 
L 414.259346 243.686512 
L 415.165963 245.033702 
L 415.489971 245.217149 
L 415.734432 245.204748 
L 416.262522 244.860064 
L 417.338962 243.805443 
L 417.789166 243.751367 
L 418.343603 244.014382 
L 419.434987 244.779122 
L 419.858848 244.811206 
L 420.512936 244.569463 
L 421.408168 244.118919 
L 421.831767 244.07302 
L 422.55832 244.250173 
L 423.701609 244.619063 
L 424.419629 244.551699 
L 425.907152 244.244987 
L 426.934305 244.393104 
L 427.91329 244.527818 
L 429.261718 244.387564 
L 430.233309 244.341729 
L 433.191673 244.425104 
L 434.745961 244.4038 
L 437.257681 244.435814 
L 439.773429 244.44983 
L 446.102593 244.443574 
L 470.652636 244.467888 
L 470.652636 244.467888 
" style="fill:none;stroke:#fe3ea0;stroke-linecap:square;stroke-width:1.5;"/>
   </g>
   <g id="patch_6">
    <path d="M 50.078 257.266667 
L 50.078 156.053333 
" style="fill:none;stroke:#08bdf9;stroke-linecap:square;stroke-linejoin:miter;stroke-width:0.8;"/>
   </g>
   <g id="patch_7">
    <path d="M 50.078 257.266667 
L 490.68 257.266667 
" style="fill:none;stroke:#08bdf9;stroke-linecap:square;stroke-linejoin:miter;stroke-width:0.8;"/>
   </g>
   <g id="text_13">
    <!-- No dampening -->
    <defs>
     <path d="M 50.40625 68.5 
Q 52.296875 72 54.1875 72.59375 
Q 56.09375 73.203125 58.9375 73.203125 
Q 61.796875 73.203125 63.546875 72.703125 
Q 65.296875 72.203125 66.140625 71.5 
Q 67 70.796875 67.40625 69.40625 
Q 68 67.796875 68 64.296875 
L 68 8.796875 
Q 68 6.40625 67.84375 5.296875 
Q 67.703125 4.203125 66.90625 2.703125 
Q 65.5 0 59.09375 0 
Q 55.203125 0 53.703125 0.59375 
Q 52.203125 1.203125 51.203125 2.5 
Q 28.703125 32.5 21.59375 41.703125 
L 21.59375 8.796875 
Q 21.59375 6.40625 21.4375 5.296875 
Q 21.296875 4.203125 20.5 2.703125 
Q 19.09375 0 12.703125 0 
Q 6.5 0 5.09375 2.703125 
Q 4.296875 4.203125 4.140625 5.390625 
Q 4 6.59375 4 8.90625 
L 4 64.703125 
Q 4 68.5 4.953125 70.25 
Q 5.90625 72 7.796875 72.59375 
Q 9.703125 73.203125 12.703125 73.203125 
Q 15.703125 73.203125 17.453125 72.640625 
Q 19.203125 72.09375 19.90625 71.40625 
Q 20.296875 71.09375 22.203125 68.796875 
Q 43.296875 40.09375 50.40625 30.90625 
L 50.40625 64.703125 
Q 50.40625 68.5 52.296875 72 
" id="FredokaOne-Regular-4e"/>
     <path d="M 38.59375 73.203125 
Q 40.09375 76.09375 42 76.6875 
Q 43.90625 77.296875 47.046875 77.296875 
Q 50.203125 77.296875 52.09375 76.6875 
Q 54 76.09375 54.75 74.59375 
Q 55.5 73.09375 55.640625 71.9375 
Q 55.796875 70.796875 55.796875 68.5 
L 55.796875 8.796875 
Q 55.796875 6.5 55.640625 5.34375 
Q 55.5 4.203125 54.703125 2.796875 
Q 53.203125 0.09375 46.25 0.09375 
Q 39.296875 0.09375 38.5 5 
Q 34.296875 0.203125 26.796875 0.203125 
Q 17.796875 0.203125 10.390625 8.046875 
Q 3 15.90625 3 26.34375 
Q 3 36.796875 10.453125 44.6875 
Q 17.90625 52.59375 26.796875 52.59375 
Q 34.203125 52.59375 38.296875 47.59375 
L 38.296875 68.59375 
Q 38.296875 70.90625 38.4375 72.046875 
Q 38.59375 73.203125 40.09375 76.09375 
M 20.5 23 
Q 25.703125 17.59375 29.390625 17.59375 
Q 33.09375 17.59375 35.546875 20.296875 
Q 38 23 38 26.25 
Q 38 29.5 35.640625 32.296875 
Q 33.296875 35.09375 29.296875 35.09375 
Q 25.296875 35.09375 22.890625 32.34375 
Q 20.5 29.59375 20.5 26.296875 
Q 20.5 23 25.703125 17.59375 
" id="FredokaOne-Regular-64"/>
     <path d="M 21.203125 45.703125 
Q 25.90625 52.796875 32.5 52.796875 
Q 42.703125 52.796875 47.703125 44.09375 
Q 48.796875 45.59375 50.34375 47.25 
Q 51.90625 48.90625 55.296875 50.84375 
Q 58.703125 52.796875 62.296875 52.796875 
Q 70.296875 52.796875 75.6875 46.640625 
Q 81.09375 40.5 81.09375 26.296875 
L 81.09375 8.796875 
Q 81.09375 6.5 80.9375 5.34375 
Q 80.796875 4.203125 80 2.703125 
Q 78.703125 0 72.296875 0 
Q 66 0 64.59375 2.796875 
Q 63.90625 4.296875 63.75 5.4375 
Q 63.59375 6.59375 63.59375 8.90625 
L 63.59375 26.40625 
Q 63.59375 35.09375 57.40625 35.09375 
Q 53.90625 35.09375 52.65625 32.796875 
Q 51.40625 30.5 51.40625 26.296875 
L 51.40625 8.796875 
Q 51.40625 6.40625 51.25 5.296875 
Q 51.09375 4.203125 50.296875 2.703125 
Q 48.90625 0 42.5 0 
Q 36.203125 0 34.796875 2.796875 
Q 34.09375 4.296875 33.9375 5.4375 
Q 33.796875 6.59375 33.796875 8.90625 
L 33.796875 26.40625 
Q 33.796875 35.09375 27.59375 35.09375 
Q 21.59375 35.09375 21.59375 26.40625 
L 21.59375 8.703125 
Q 21.59375 6.40625 21.4375 5.25 
Q 21.296875 4.09375 20.5 2.59375 
Q 19 0 12.703125 0 
Q 6.40625 0 5 2.703125 
Q 4.296875 4.203125 4.140625 5.296875 
Q 4 6.40625 4 8.796875 
L 4 44 
Q 4 46.296875 4.140625 47.4375 
Q 4.296875 48.59375 5.09375 50 
Q 6.59375 52.703125 12.1875 52.703125 
Q 17.796875 52.703125 19.5 50.890625 
Q 21.203125 49.09375 21.203125 45.703125 
" id="FredokaOne-Regular-6d"/>
     <path d="M 4 -14.296875 
L 4 44.09375 
Q 4 46.40625 4.140625 47.5 
Q 4.296875 48.59375 5 50 
Q 6.40625 52.703125 11.703125 52.703125 
Q 17 52.703125 18.84375 51.34375 
Q 20.703125 50 21 47.40625 
Q 24.796875 52.59375 32.9375 52.59375 
Q 41.09375 52.59375 48.390625 44.890625 
Q 55.703125 37.203125 55.703125 27 
Q 55.703125 16.796875 48.453125 9.09375 
Q 41.203125 1.40625 33 1.40625 
Q 24.796875 1.40625 21.09375 6 
L 21.09375 -14.203125 
Q 21.09375 -16.5 20.9375 -17.59375 
Q 20.796875 -18.703125 20.046875 -20.140625 
Q 19.296875 -21.59375 17.5 -22.1875 
Q 15.703125 -22.796875 12.59375 -22.796875 
Q 9.5 -22.796875 7.640625 -22.1875 
Q 5.796875 -21.59375 5.046875 -20.1875 
Q 4.296875 -18.796875 4.140625 -17.6875 
Q 4 -16.59375 4 -14.296875 
M 26.09375 35.5 
Q 21.5 30.09375 21.5 26.890625 
Q 21.5 23.703125 23.84375 21.046875 
Q 26.203125 18.40625 29.84375 18.40625 
Q 33.5 18.40625 36.046875 21 
Q 38.59375 23.59375 38.59375 26.890625 
Q 38.59375 30.203125 36.1875 32.84375 
Q 33.796875 35.5 29.9375 35.5 
Q 26.09375 35.5 21.5 30.09375 
" id="FredokaOne-Regular-70"/>
     <path d="M 4 43.90625 
Q 4 46.203125 4.140625 47.34375 
Q 4.296875 48.5 5 50 
Q 6.40625 52.59375 12.796875 52.59375 
Q 17.59375 52.59375 19.59375 50.90625 
Q 21.296875 49.5 21.40625 46.59375 
Q 21.5 45.59375 21.5 43.703125 
L 21.5 8.703125 
Q 21.5 6.40625 21.34375 5.25 
Q 21.203125 4.09375 20.40625 2.59375 
Q 19.09375 0 12.703125 0 
Q 6.40625 0 5 2.703125 
Q 4.296875 4.203125 4.140625 5.296875 
Q 4 6.40625 4 8.796875 
z
M 21.203125 63.90625 
Q 19.703125 61 17.796875 60.390625 
Q 15.90625 59.796875 12.75 59.796875 
Q 9.59375 59.796875 7.6875 60.390625 
Q 5.796875 61 5.046875 62.5 
Q 4.296875 64 4.140625 65.140625 
Q 4 66.296875 4 68.59375 
Q 4 70.90625 4.140625 72.046875 
Q 4.296875 73.203125 5 74.59375 
Q 6.40625 77.296875 12.796875 77.296875 
Q 19.09375 77.296875 20.40625 74.59375 
Q 21.203125 73.09375 21.34375 71.9375 
Q 21.5 70.796875 21.5 68.5 
Q 21.5 66.203125 21.34375 65.046875 
Q 21.203125 63.90625 19.703125 61 
" id="FredokaOne-Regular-69"/>
    </defs>
    <g style="fill:#fe3ea0;" transform="translate(229.430875 150.053333)scale(0.12 -0.12)">
     <use xlink:href="#FredokaOne-Regular-4e"/>
     <use x="71.999985" xlink:href="#FredokaOne-Regular-6f"/>
     <use x="131.999969" xlink:href="#FredokaOne-Regular-20"/>
     <use x="157.299957" xlink:href="#FredokaOne-Regular-64"/>
     <use x="217.099945" xlink:href="#FredokaOne-Regular-61"/>
     <use x="276.699936" xlink:href="#FredokaOne-Regular-6d"/>
     <use x="361.799927" xlink:href="#FredokaOne-Regular-70"/>
     <use x="419.999924" xlink:href="#FredokaOne-Regular-65"/>
     <use x="477.299911" xlink:href="#FredokaOne-Regular-6e"/>
     <use x="537.899902" xlink:href="#FredokaOne-Regular-69"/>
     <use x="563.399887" xlink:href="#FredokaOne-Regular-6e"/>
     <use x="623.999878" xlink:href="#FredokaOne-Regular-67"/>
    </g>
   </g>
  </g>
  <g id="axes_3">
   <g id="patch_8">
    <path d="M 50.078 387.16 
L 490.68 387.16 
L 490.68 285.946667 
L 50.078 285.946667 
z
" style="fill:#ffffff;"/>
   </g>
   <g id="matplotlib.axis_5">
    <g id="xtick_13">
     <g id="line2d_45">
      <path clip-path="url(#p3e6f7fe3c7)" d="M 70.105303 387.16 
L 70.105303 285.946667 
" style="fill:none;stroke:#08bdf9;stroke-dasharray:2.2,2.2;stroke-dashoffset:0;stroke-width:0.8;"/>
     </g>
     <g id="line2d_46">
      <g>
       <use style="fill:#01769d;stroke:#01769d;stroke-width:0.8;" x="70.105303" xlink:href="#m2067debc1a" y="387.16"/>
      </g>
     </g>
     <g id="text_14">
      <!-- 0 -->
      <g style="fill:#01769d;" transform="translate(66.924053 401.758438)scale(0.1 -0.1)">
       <use xlink:href="#DejaVuSans-30"/>
      </g>
     </g>
    </g>
    <g id="xtick_14">
     <g id="line2d_47">
      <path clip-path="url(#p3e6f7fe3c7)" d="M 150.21477 387.16 
L 150.21477 285.946667 
" style="fill:none;stroke:#08bdf9;stroke-dasharray:2.2,2.2;stroke-dashoffset:0;stroke-width:0.8;"/>
     </g>
     <g id="line2d_48">
      <g>
       <use style="fill:#01769d;stroke:#01769d;stroke-width:0.8;" x="150.21477" xlink:href="#m2067debc1a" y="387.16"/>
      </g>
     </g>
     <g id="text_15">
      <!-- 2 -->
      <g style="fill:#01769d;" transform="translate(147.03352 401.758438)scale(0.1 -0.1)">
       <use xlink:href="#DejaVuSans-32"/>
      </g>
     </g>
    </g>
    <g id="xtick_15">
     <g id="line2d_49">
      <path clip-path="url(#p3e6f7fe3c7)" d="M 230.324237 387.16 
L 230.324237 285.946667 
" style="fill:none;stroke:#08bdf9;stroke-dasharray:2.2,2.2;stroke-dashoffset:0;stroke-width:0.8;"/>
     </g>
     <g id="line2d_50">
      <g>
       <use style="fill:#01769d;stroke:#01769d;stroke-width:0.8;" x="230.324237" xlink:href="#m2067debc1a" y="387.16"/>
      </g>
     </g>
     <g id="text_16">
      <!-- 4 -->
      <g style="fill:#01769d;" transform="translate(227.142987 401.758438)scale(0.1 -0.1)">
       <use xlink:href="#DejaVuSans-34"/>
      </g>
     </g>
    </g>
    <g id="xtick_16">
     <g id="line2d_51">
      <path clip-path="url(#p3e6f7fe3c7)" d="M 310.433703 387.16 
L 310.433703 285.946667 
" style="fill:none;stroke:#08bdf9;stroke-dasharray:2.2,2.2;stroke-dashoffset:0;stroke-width:0.8;"/>
     </g>
     <g id="line2d_52">
      <g>
       <use style="fill:#01769d;stroke:#01769d;stroke-width:0.8;" x="310.433703" xlink:href="#m2067debc1a" y="387.16"/>
      </g>
     </g>
     <g id="text_17">
      <!-- 6 -->
      <defs>
       <path d="M 33.015625 40.375 
Q 26.375 40.375 22.484375 35.828125 
Q 18.609375 31.296875 18.609375 23.390625 
Q 18.609375 15.53125 22.484375 10.953125 
Q 26.375 6.390625 33.015625 6.390625 
Q 39.65625 6.390625 43.53125 10.953125 
Q 47.40625 15.53125 47.40625 23.390625 
Q 47.40625 31.296875 43.53125 35.828125 
Q 39.65625 40.375 33.015625 40.375 
M 52.59375 71.296875 
L 52.59375 62.3125 
Q 48.875 64.0625 45.09375 64.984375 
Q 41.3125 65.921875 37.59375 65.921875 
Q 27.828125 65.921875 22.671875 59.328125 
Q 17.53125 52.734375 16.796875 39.40625 
Q 19.671875 43.65625 24.015625 45.921875 
Q 28.375 48.1875 33.59375 48.1875 
Q 44.578125 48.1875 50.953125 41.515625 
Q 57.328125 34.859375 57.328125 23.390625 
Q 57.328125 12.15625 50.6875 5.359375 
Q 44.046875 -1.421875 33.015625 -1.421875 
Q 20.359375 -1.421875 13.671875 8.265625 
Q 6.984375 17.96875 6.984375 36.375 
Q 6.984375 53.65625 15.1875 63.9375 
Q 23.390625 74.21875 37.203125 74.21875 
Q 40.921875 74.21875 44.703125 73.484375 
Q 48.484375 72.75 52.59375 71.296875 
" id="DejaVuSans-36"/>
      </defs>
      <g style="fill:#01769d;" transform="translate(307.252453 401.758438)scale(0.1 -0.1)">
       <use xlink:href="#DejaVuSans-36"/>
      </g>
     </g>
    </g>
    <g id="xtick_17">
     <g id="line2d_53">
      <path clip-path="url(#p3e6f7fe3c7)" d="M 390.54317 387.16 
L 390.54317 285.946667 
" style="fill:none;stroke:#08bdf9;stroke-dasharray:2.2,2.2;stroke-dashoffset:0;stroke-width:0.8;"/>
     </g>
     <g id="line2d_54">
      <g>
       <use style="fill:#01769d;stroke:#01769d;stroke-width:0.8;" x="390.54317" xlink:href="#m2067debc1a" y="387.16"/>
      </g>
     </g>
     <g id="text_18">
      <!-- 8 -->
      <defs>
       <path d="M 31.78125 34.625 
Q 24.75 34.625 20.71875 30.859375 
Q 16.703125 27.09375 16.703125 20.515625 
Q 16.703125 13.921875 20.71875 10.15625 
Q 24.75 6.390625 31.78125 6.390625 
Q 38.8125 6.390625 42.859375 10.171875 
Q 46.921875 13.96875 46.921875 20.515625 
Q 46.921875 27.09375 42.890625 30.859375 
Q 38.875 34.625 31.78125 34.625 
M 21.921875 38.8125 
Q 15.578125 40.375 12.03125 44.71875 
Q 8.5 49.078125 8.5 55.328125 
Q 8.5 64.0625 14.71875 69.140625 
Q 20.953125 74.21875 31.78125 74.21875 
Q 42.671875 74.21875 48.875 69.140625 
Q 55.078125 64.0625 55.078125 55.328125 
Q 55.078125 49.078125 51.53125 44.71875 
Q 48 40.375 41.703125 38.8125 
Q 48.828125 37.15625 52.796875 32.3125 
Q 56.78125 27.484375 56.78125 20.515625 
Q 56.78125 9.90625 50.3125 4.234375 
Q 43.84375 -1.421875 31.78125 -1.421875 
Q 19.734375 -1.421875 13.25 4.234375 
Q 6.78125 9.90625 6.78125 20.515625 
Q 6.78125 27.484375 10.78125 32.3125 
Q 14.796875 37.15625 21.921875 38.8125 
M 18.3125 54.390625 
Q 18.3125 48.734375 21.84375 45.5625 
Q 25.390625 42.390625 31.78125 42.390625 
Q 38.140625 42.390625 41.71875 45.5625 
Q 45.3125 48.734375 45.3125 54.390625 
Q 45.3125 60.0625 41.71875 63.234375 
Q 38.140625 66.40625 31.78125 66.40625 
Q 25.390625 66.40625 21.84375 63.234375 
Q 18.3125 60.0625 18.3125 54.390625 
" id="DejaVuSans-38"/>
      </defs>
      <g style="fill:#01769d;" transform="translate(387.36192 401.758438)scale(0.1 -0.1)">
       <use xlink:href="#DejaVuSans-38"/>
      </g>
     </g>
    </g>
    <g id="xtick_18">
     <g id="line2d_55">
      <path clip-path="url(#p3e6f7fe3c7)" d="M 470.652636 387.16 
L 470.652636 285.946667 
" style="fill:none;stroke:#08bdf9;stroke-dasharray:2.2,2.2;stroke-dashoffset:0;stroke-width:0.8;"/>
     </g>
     <g id="line2d_56">
      <g>
       <use style="fill:#01769d;stroke:#01769d;stroke-width:0.8;" x="470.652636" xlink:href="#m2067debc1a" y="387.16"/>
      </g>
     </g>
     <g id="text_19">
      <!-- 10 -->
      <g style="fill:#01769d;" transform="translate(464.290136 401.758438)scale(0.1 -0.1)">
       <use xlink:href="#DejaVuSans-31"/>
       <use x="63.623047" xlink:href="#DejaVuSans-30"/>
      </g>
     </g>
    </g>
    <g id="text_20">
     <!-- $t\;(\mu s)$ -->
     <defs>
      <path d="M -1.3125 -20.796875 
L 13.375 54.6875 
L 22.40625 54.6875 
L 15.765625 20.65625 
Q 15.578125 19.625 15.421875 18.359375 
Q 15.28125 17.09375 15.28125 15.828125 
Q 15.28125 11.28125 18.140625 8.828125 
Q 21 6.390625 26.3125 6.390625 
Q 33.546875 6.390625 37.984375 10.484375 
Q 42.4375 14.59375 44 22.796875 
L 50.203125 54.6875 
L 59.1875 54.6875 
L 51.03125 12.640625 
Q 50.828125 11.71875 50.75 11.03125 
Q 50.6875 10.359375 50.6875 9.8125 
Q 50.6875 8.296875 51.296875 7.59375 
Q 51.90625 6.890625 53.21875 6.890625 
Q 53.71875 6.890625 54.5625 7.125 
Q 55.421875 7.375 56.984375 8.015625 
L 55.609375 0.78125 
Q 53.46875 -0.296875 51.515625 -0.859375 
Q 49.5625 -1.421875 47.703125 -1.421875 
Q 44.484375 -1.421875 42.65625 0.625 
Q 40.828125 2.6875 40.828125 6.296875 
Q 38.09375 2.390625 34.296875 0.484375 
Q 30.515625 -1.421875 25.390625 -1.421875 
Q 20.84375 -1.421875 17.453125 0.671875 
Q 14.0625 2.78125 12.984375 6.203125 
L 7.71875 -20.796875 
z
" id="DejaVuSans-Oblique-3bc"/>
      <path d="M 50 53.078125 
L 48.296875 44.578125 
Q 44.734375 46.53125 40.765625 47.5 
Q 36.8125 48.484375 32.625 48.484375 
Q 25.53125 48.484375 21.453125 46.0625 
Q 17.390625 43.65625 17.390625 39.5 
Q 17.390625 34.671875 26.859375 32.078125 
Q 27.59375 31.890625 27.9375 31.78125 
L 30.8125 30.90625 
Q 39.796875 28.421875 42.796875 25.6875 
Q 45.796875 22.953125 45.796875 18.21875 
Q 45.796875 9.515625 38.890625 4.046875 
Q 31.984375 -1.421875 20.796875 -1.421875 
Q 16.453125 -1.421875 11.671875 -0.578125 
Q 6.890625 0.25 1.125 2 
L 2.875 11.28125 
Q 7.8125 8.734375 12.59375 7.421875 
Q 17.390625 6.109375 21.78125 6.109375 
Q 28.375 6.109375 32.5 8.9375 
Q 36.625 11.765625 36.625 16.109375 
Q 36.625 20.796875 25.78125 23.6875 
L 24.859375 23.921875 
L 21.78125 24.703125 
Q 14.9375 26.515625 11.765625 29.46875 
Q 8.59375 32.421875 8.59375 37.015625 
Q 8.59375 45.75 15.15625 50.875 
Q 21.734375 56 33.015625 56 
Q 37.453125 56 41.671875 55.265625 
Q 45.90625 54.546875 50 53.078125 
" id="DejaVuSans-Oblique-73"/>
     </defs>
     <g style="fill:#01769d;" transform="translate(257.329 415.438125)scale(0.1 -0.1)">
      <use transform="translate(0 0.125)" xlink:href="#DejaVuSans-Oblique-74"/>
      <use transform="translate(66.26812 0.125)" xlink:href="#DejaVuSans-28"/>
      <use transform="translate(105.281792 0.125)" xlink:href="#DejaVuSans-Oblique-3bc"/>
      <use transform="translate(168.904839 0.125)" xlink:href="#DejaVuSans-Oblique-73"/>
      <use transform="translate(221.004448 0.125)" xlink:href="#DejaVuSans-29"/>
     </g>
    </g>
   </g>
   <g id="matplotlib.axis_6">
    <g id="ytick_10">
     <g id="line2d_57">
      <path clip-path="url(#p3e6f7fe3c7)" d="M 50.078 381.754163 
L 490.68 381.754163 
" style="fill:none;stroke:#08bdf9;stroke-dasharray:2.2,2.2;stroke-dashoffset:0;stroke-width:0.8;"/>
     </g>
     <g id="line2d_58">
      <g>
       <use style="fill:#01769d;stroke:#01769d;stroke-width:0.8;" x="50.078" xlink:href="#m40df414541" y="381.754163"/>
      </g>
     </g>
     <g id="text_21">
      <!-- 0.0 -->
      <g style="fill:#01769d;" transform="translate(27.174875 385.553382)scale(0.1 -0.1)">
       <use xlink:href="#DejaVuSans-30"/>
       <use x="63.623047" xlink:href="#DejaVuSans-2e"/>
       <use x="95.410156" xlink:href="#DejaVuSans-30"/>
      </g>
     </g>
    </g>
    <g id="ytick_11">
     <g id="line2d_59">
      <path clip-path="url(#p3e6f7fe3c7)" d="M 50.078 359.5731 
L 490.68 359.5731 
" style="fill:none;stroke:#08bdf9;stroke-dasharray:2.2,2.2;stroke-dashoffset:0;stroke-width:0.8;"/>
     </g>
     <g id="line2d_60">
      <g>
       <use style="fill:#01769d;stroke:#01769d;stroke-width:0.8;" x="50.078" xlink:href="#m40df414541" y="359.5731"/>
      </g>
     </g>
     <g id="text_22">
      <!-- 0.1 -->
      <g style="fill:#01769d;" transform="translate(27.174875 363.372319)scale(0.1 -0.1)">
       <use xlink:href="#DejaVuSans-30"/>
       <use x="63.623047" xlink:href="#DejaVuSans-2e"/>
       <use x="95.410156" xlink:href="#DejaVuSans-31"/>
      </g>
     </g>
    </g>
    <g id="ytick_12">
     <g id="line2d_61">
      <path clip-path="url(#p3e6f7fe3c7)" d="M 50.078 337.392037 
L 490.68 337.392037 
" style="fill:none;stroke:#08bdf9;stroke-dasharray:2.2,2.2;stroke-dashoffset:0;stroke-width:0.8;"/>
     </g>
     <g id="line2d_62">
      <g>
       <use style="fill:#01769d;stroke:#01769d;stroke-width:0.8;" x="50.078" xlink:href="#m40df414541" y="337.392037"/>
      </g>
     </g>
     <g id="text_23">
      <!-- 0.2 -->
      <g style="fill:#01769d;" transform="translate(27.174875 341.191255)scale(0.1 -0.1)">
       <use xlink:href="#DejaVuSans-30"/>
       <use x="63.623047" xlink:href="#DejaVuSans-2e"/>
       <use x="95.410156" xlink:href="#DejaVuSans-32"/>
      </g>
     </g>
    </g>
    <g id="ytick_13">
     <g id="line2d_63">
      <path clip-path="url(#p3e6f7fe3c7)" d="M 50.078 315.210974 
L 490.68 315.210974 
" style="fill:none;stroke:#08bdf9;stroke-dasharray:2.2,2.2;stroke-dashoffset:0;stroke-width:0.8;"/>
     </g>
     <g id="line2d_64">
      <g>
       <use style="fill:#01769d;stroke:#01769d;stroke-width:0.8;" x="50.078" xlink:href="#m40df414541" y="315.210974"/>
      </g>
     </g>
     <g id="text_24">
      <!-- 0.3 -->
      <g style="fill:#01769d;" transform="translate(27.174875 319.010192)scale(0.1 -0.1)">
       <use xlink:href="#DejaVuSans-30"/>
       <use x="63.623047" xlink:href="#DejaVuSans-2e"/>
       <use x="95.410156" xlink:href="#DejaVuSans-33"/>
      </g>
     </g>
    </g>
    <g id="ytick_14">
     <g id="line2d_65">
      <path clip-path="url(#p3e6f7fe3c7)" d="M 50.078 293.02991 
L 490.68 293.02991 
" style="fill:none;stroke:#08bdf9;stroke-dasharray:2.2,2.2;stroke-dashoffset:0;stroke-width:0.8;"/>
     </g>
     <g id="line2d_66">
      <g>
       <use style="fill:#01769d;stroke:#01769d;stroke-width:0.8;" x="50.078" xlink:href="#m40df414541" y="293.02991"/>
      </g>
     </g>
     <g id="text_25">
      <!-- 0.4 -->
      <g style="fill:#01769d;" transform="translate(27.174875 296.829129)scale(0.1 -0.1)">
       <use xlink:href="#DejaVuSans-30"/>
       <use x="63.623047" xlink:href="#DejaVuSans-2e"/>
       <use x="95.410156" xlink:href="#DejaVuSans-34"/>
      </g>
     </g>
    </g>
    <g id="text_26">
     <!-- $I_{LED}\;(A)$ -->
     <g style="fill:#01769d;" transform="translate(21.095187 353.703333)rotate(-90)scale(0.1 -0.1)">
      <use transform="translate(0 0.125)" xlink:href="#DejaVuSans-Oblique-49"/>
      <use transform="translate(29.492188 -16.28125)scale(0.7)" xlink:href="#DejaVuSans-Oblique-4c"/>
      <use transform="translate(68.491211 -16.28125)scale(0.7)" xlink:href="#DejaVuSans-Oblique-45"/>
      <use transform="translate(112.719727 -16.28125)scale(0.7)" xlink:href="#DejaVuSans-Oblique-44"/>
      <use transform="translate(196.414604 0.125)" xlink:href="#DejaVuSans-28"/>
      <use transform="translate(235.428276 0.125)" xlink:href="#DejaVuSans-Oblique-41"/>
      <use transform="translate(303.836479 0.125)" xlink:href="#DejaVuSans-29"/>
     </g>
    </g>
   </g>
   <g id="line2d_67">
    <path clip-path="url(#p3e6f7fe3c7)" d="M 70.105364 290.547339 
L 79.880196 290.655161 
L 85.747588 290.902702 
L 88.876864 291.230782 
L 90.832662 291.664999 
L 92.00614 292.145951 
L 92.788459 292.646045 
L 93.961938 293.712 
L 95.135416 295.101999 
L 96.700054 297.353976 
L 98.655852 300.668891 
L 101.282209 305.807112 
L 103.461526 310.629985 
L 104.914404 314.129935 
L 107.261361 320.403583 
L 109.608318 327.663955 
L 111.564116 334.708505 
L 113.128754 341.132141 
L 115.084551 350.240994 
L 117.040349 360.472103 
L 120.169625 377.339404 
L 120.810699 380.03139 
L 121.371018 381.448465 
L 121.677191 381.742253 
L 121.962381 381.731234 
L 122.289116 381.414218 
L 123.06185 380.247831 
L 123.382713 379.992683 
L 123.709732 379.978843 
L 124.283536 380.503269 
L 125.104612 381.792569 
L 125.38086 382.035151 
L 125.66541 382.115341 
L 126.159145 381.853254 
L 127.357079 380.609482 
L 127.660449 380.580721 
L 128.237643 380.938219 
L 129.331916 382.033287 
L 129.835573 382.044521 
L 130.378333 381.650167 
L 131.218748 380.963408 
L 131.495645 380.897843 
L 131.817186 380.958578 
L 132.440086 381.381338 
L 133.006104 381.845872 
L 133.499685 382.024221 
L 133.918295 381.937743 
L 135.578552 381.116293 
L 136.281812 381.405267 
L 137.222026 381.922016 
L 137.827228 381.901569 
L 138.630474 381.490139 
L 139.290314 381.264895 
L 139.868854 381.338676 
L 141.598329 381.887427 
L 142.329837 381.643162 
L 143.099028 381.38572 
L 143.638769 381.396633 
L 145.758665 381.805969 
L 147.384261 381.452688 
L 148.34148 381.658758 
L 149.214945 381.81644 
L 150.067808 381.697148 
L 150.718091 381.622977 
L 151.024966 381.771632 
L 151.909102 382.455135 
L 152.127481 382.45875 
L 152.418515 382.268448 
L 152.653758 381.942532 
L 153.300453 380.36173 
L 154.082772 377.521808 
L 155.256251 372.034421 
L 156.03857 367.116649 
L 157.212048 358.555344 
L 158.385527 352.115738 
L 163.4706 326.462961 
L 166.475075 312.939655 
L 167.559418 308.72634 
L 168.732896 304.946886 
L 169.906375 301.927711 
L 171.079853 299.537901 
L 172.253332 297.652732 
L 173.42681 296.167644 
L 174.600289 294.99828 
L 176.164927 293.816296 
L 177.729565 292.956269 
L 179.294203 292.329832 
L 181.25 291.779298 
L 183.596957 291.348275 
L 186.726233 291.010901 
L 191.420147 290.76742 
L 198.852178 290.632049 
L 218.689553 290.565306 
L 239.266192 290.647797 
L 245.524745 290.904854 
L 248.654021 291.234908 
L 250.609818 291.672962 
L 251.783297 292.159415 
L 252.565616 292.664965 
L 253.739094 293.738507 
L 254.912573 295.134649 
L 256.477211 297.393059 
L 258.433008 300.714229 
L 261.059365 305.859304 
L 263.238682 310.688144 
L 264.69156 314.192375 
L 267.038517 320.474983 
L 269.385474 327.747555 
L 271.341272 334.805104 
L 272.90591 341.240629 
L 274.861707 350.364853 
L 276.817505 360.608286 
L 279.946781 377.455189 
L 280.593242 380.132165 
L 281.163174 381.509055 
L 281.456313 381.754747 
L 281.738543 381.717641 
L 282.049973 381.401713 
L 282.837842 380.221709 
L 283.163399 379.981352 
L 283.489331 379.989931 
L 284.058532 380.537284 
L 284.869691 381.805613 
L 285.166145 382.04951 
L 285.454283 382.111841 
L 285.932572 381.833346 
L 287.150893 380.596087 
L 287.45397 380.58998 
L 288.019573 380.967922 
L 288.82862 381.870783 
L 289.392031 382.090581 
L 289.857769 381.89052 
L 291.043343 380.937091 
L 291.320236 380.898666 
L 291.914649 381.14591 
L 293.013481 381.973262 
L 293.472241 382.005665 
L 294.016509 381.731384 
L 294.789016 381.212238 
L 295.332742 381.116554 
L 296.035401 381.405623 
L 296.975895 381.922067 
L 297.581069 381.901261 
L 298.38328 381.490351 
L 299.04388 381.264959 
L 299.622455 381.338934 
L 301.352397 381.887238 
L 302.083189 381.643088 
L 302.85208 381.38581 
L 303.391899 381.396688 
L 305.512242 381.805844 
L 307.140504 381.452924 
L 308.095071 381.658866 
L 308.970385 381.816431 
L 309.725612 381.720219 
L 310.836422 381.545304 
L 311.260138 381.797827 
L 312.162338 382.559394 
L 312.402237 382.523063 
L 312.751718 382.199988 
L 313.267944 381.155353 
L 314.050263 378.56981 
L 315.223742 373.364298 
L 316.006061 368.90444 
L 317.961858 355.4533 
L 321.873453 335.359054 
L 324.61157 322.183835 
L 327.214966 310.8614 
L 328.361412 306.769194 
L 329.534891 303.378108 
L 330.708369 300.684507 
L 331.881848 298.556766 
L 333.055326 296.8797 
L 334.228805 295.558951 
L 335.402283 294.519014 
L 336.966921 293.467676 
L 338.531559 292.702451 
L 340.487357 292.03072 
L 342.834314 291.505805 
L 345.572431 291.134827 
L 349.484026 290.853682 
L 355.351418 290.679272 
L 368.259682 290.584027 
L 397.529453 290.608892 
L 404.570324 290.832011 
L 408.09076 291.125023 
L 410.046557 291.460401 
L 411.611195 291.967371 
L 412.784674 292.665209 
L 413.958152 293.738862 
L 415.131631 295.135093 
L 416.696269 297.393591 
L 418.652066 300.71485 
L 421.278423 305.860014 
L 423.45774 310.68892 
L 424.910618 314.19324 
L 427.257575 320.475959 
L 429.604532 327.748686 
L 431.56033 334.806412 
L 433.124968 341.242115 
L 435.080765 350.366517 
L 437.036563 360.61012 
L 440.165839 377.456744 
L 440.812396 380.133581 
L 441.382455 381.509852 
L 441.675428 381.754902 
L 441.957621 381.717427 
L 442.268823 381.401531 
L 443.056909 380.221341 
L 443.382538 379.981201 
L 443.708452 379.990104 
L 444.277709 380.537978 
L 445.088734 381.805936 
L 445.385684 382.049839 
L 445.673896 382.111729 
L 446.151812 381.832859 
L 447.370604 380.595804 
L 447.67367 380.590229 
L 448.239018 380.968648 
L 449.047795 381.871091 
L 449.6121 382.090463 
L 450.077712 381.889677 
L 451.264087 380.936439 
L 451.541229 380.898802 
L 452.134504 381.146666 
L 453.23306 381.973502 
L 453.691788 382.005502 
L 454.235664 381.731122 
L 455.008645 381.211852 
L 455.552527 381.116671 
L 456.254637 381.405921 
L 457.19542 381.922213 
L 457.800492 381.901068 
L 458.601968 381.490408 
L 459.262541 381.26497 
L 459.841077 381.338878 
L 461.571101 381.887252 
L 462.301969 381.643095 
L 463.07088 381.385808 
L 463.610692 381.396687 
L 465.731004 381.805852 
L 467.359054 381.452908 
L 468.313833 381.658858 
L 469.188998 381.816429 
L 469.944199 381.720268 
L 470.652636 381.551674 
L 470.652636 381.551674 
" style="fill:none;stroke:#fe3ea0;stroke-linecap:square;stroke-width:1.5;"/>
   </g>
   <g id="patch_9">
    <path d="M 50.078 387.16 
L 50.078 285.946667 
" style="fill:none;stroke:#08bdf9;stroke-linecap:square;stroke-linejoin:miter;stroke-width:0.8;"/>
   </g>
   <g id="patch_10">
    <path d="M 50.078 387.16 
L 490.68 387.16 
" style="fill:none;stroke:#08bdf9;stroke-linecap:square;stroke-linejoin:miter;stroke-width:0.8;"/>
   </g>
   <g id="text_27">
    <!-- With dampening -->
    <defs>
     <path d="M 91.703125 72.90625 
Q 98.40625 70.5 98.40625 66.5 
Q 98.40625 65.203125 97.203125 61.59375 
L 78 6.09375 
Q 77.796875 5.40625 77.296875 4.40625 
Q 76.796875 3.40625 74.640625 1.75 
Q 72.5 0.09375 69.546875 0.09375 
Q 66.59375 0.09375 64.4375 1.75 
Q 62.296875 3.40625 61.59375 5 
L 49.90625 39.5 
Q 38.796875 6.703125 38.59375 6.09375 
Q 38.40625 5.5 37.703125 4.390625 
Q 37 3.296875 36.09375 2.40625 
Q 33.796875 0.09375 30.59375 0.09375 
Q 27.40625 0.09375 25.34375 1.59375 
Q 23.296875 3.09375 22.59375 4.59375 
L 21.90625 6.09375 
L 2.59375 61.59375 
Q 1.5 64.90625 1.5 66.5 
Q 1.5 70.5 8.203125 72.796875 
Q 11.09375 73.796875 13.4375 73.796875 
Q 15.796875 73.796875 17.046875 72.1875 
Q 18.296875 70.59375 19.296875 67.296875 
L 30.296875 33.90625 
L 41.203125 66.796875 
Q 42.59375 71 46.296875 72.59375 
Q 47.90625 73.296875 50.453125 73.296875 
Q 53 73.296875 55.203125 71.640625 
Q 57.40625 70 58 68.40625 
L 69.5 33.703125 
L 80.5 67.296875 
Q 81.296875 69.59375 81.796875 70.6875 
Q 82.296875 71.796875 83.640625 72.84375 
Q 85 73.90625 87 73.90625 
Q 89 73.90625 91.703125 72.90625 
" id="FredokaOne-Regular-57"/>
     <path d="M 33.203125 52.5 
Q 43.203125 52.5 49.84375 44.890625 
Q 56.5 37.296875 56.5 26.296875 
L 56.5 8.703125 
Q 56.5 6.40625 56.34375 5.25 
Q 56.203125 4.09375 55.40625 2.59375 
Q 54.09375 0 47.703125 0 
Q 41.59375 0 40.09375 2.59375 
Q 39.296875 4.09375 39.140625 5.296875 
Q 39 6.5 39 8.90625 
L 39 26.40625 
Q 39 30.5 36.703125 32.796875 
Q 34.40625 35.09375 30.84375 35.09375 
Q 27.296875 35.09375 24.59375 32.9375 
Q 21.90625 30.796875 21.5 28.09375 
L 21.5 8.703125 
Q 21.5 6.40625 21.34375 5.25 
Q 21.203125 4.09375 20.40625 2.59375 
Q 19.09375 0 12.703125 0 
Q 6.40625 0 5 2.703125 
Q 4.296875 4.203125 4.140625 5.296875 
Q 4 6.40625 4 8.796875 
L 4 68.59375 
Q 4 70.90625 4.140625 72.046875 
Q 4.296875 73.203125 5 74.59375 
Q 6.40625 77.296875 12.796875 77.296875 
Q 19.09375 77.296875 20.40625 74.59375 
Q 21.203125 73.09375 21.34375 71.9375 
Q 21.5 70.796875 21.5 68.5 
L 21.5 46.40625 
Q 26.5 52.5 33.203125 52.5 
" id="FredokaOne-Regular-68"/>
    </defs>
    <g style="fill:#fe3ea0;" transform="translate(223.502125 279.946667)scale(0.12 -0.12)">
     <use xlink:href="#FredokaOne-Regular-57"/>
     <use x="99.899994" xlink:href="#FredokaOne-Regular-69"/>
     <use x="125.399979" xlink:href="#FredokaOne-Regular-74"/>
     <use x="170.299973" xlink:href="#FredokaOne-Regular-68"/>
     <use x="230.799957" xlink:href="#FredokaOne-Regular-20"/>
     <use x="256.099945" xlink:href="#FredokaOne-Regular-64"/>
     <use x="315.899933" xlink:href="#FredokaOne-Regular-61"/>
     <use x="375.499924" xlink:href="#FredokaOne-Regular-6d"/>
     <use x="460.599915" xlink:href="#FredokaOne-Regular-70"/>
     <use x="518.799911" xlink:href="#FredokaOne-Regular-65"/>
     <use x="576.099899" xlink:href="#FredokaOne-Regular-6e"/>
     <use x="636.69989" xlink:href="#FredokaOne-Regular-69"/>
     <use x="662.199875" xlink:href="#FredokaOne-Regular-6e"/>
     <use x="722.799866" xlink:href="#FredokaOne-Regular-67"/>
    </g>
   </g>
  </g>
 </g>
 <defs>
  <clipPath id="p999b623d59">
   <rect height="101.213333" width="440.602" x="50.078" y="26.16"/>
  </clipPath>
  <clipPath id="p76fded7fc8">
   <rect height="101.213333" width="440.602" x="50.078" y="156.053333"/>
  </clipPath>
  <clipPath id="p3e6f7fe3c7">
   <rect height="101.213333" width="440.602" x="50.078" y="285.946667"/>
  </clipPath>
 </defs>
</svg>
