<?xml version="1.0" encoding="utf-8" standalone="no"?>
<!DOCTYPE svg PUBLIC "-//W3C//DTD SVG 1.1//EN"
  "http://www.w3.org/Graphics/SVG/1.1/DTD/svg11.dtd">
<!-- Created with matplotlib (http://matplotlib.org/) -->
<svg height="288pt" version="1.1" viewBox="0 0 432 288" width="432pt" xmlns="http://www.w3.org/2000/svg" xmlns:xlink="http://www.w3.org/1999/xlink">
 <defs>
  <style type="text/css">
*{stroke-linecap:butt;stroke-linejoin:round;}
  </style>
 </defs>
 <g id="figure_1">
  <g id="patch_1">
   <path d="M 0 288 
L 432 288 
L 432 0 
L 0 0 
z
" style="fill:#ffffff;"/>
  </g>
  <g id="axes_1">
   <g id="patch_2">
    <path d="M 42.086 120.32 
L 418.68 120.32 
L 418.68 26.16 
L 42.086 26.16 
z
" style="fill:#ffffff;"/>
   </g>
   <g id="matplotlib.axis_1">
    <g id="xtick_1">
     <g id="line2d_1">
      <path clip-path="url(#pffe7941796)" d="M 59.203858 120.32 
L 59.203858 26.16 
" style="fill:none;stroke:#08bdf9;stroke-dasharray:2.2,2.2;stroke-dashoffset:0;stroke-width:0.8;"/>
     </g>
     <g id="line2d_2">
      <defs>
       <path d="M 0 0 
L 0 3.5 
" id="m368118d4a5" style="stroke:#01769d;stroke-width:0.8;"/>
      </defs>
      <g>
       <use style="fill:#01769d;stroke:#01769d;stroke-width:0.8;" x="59.203858" xlink:href="#m368118d4a5" y="120.32"/>
      </g>
     </g>
    </g>
    <g id="xtick_2">
     <g id="line2d_3">
      <path clip-path="url(#pffe7941796)" d="M 127.675504 120.32 
L 127.675504 26.16 
" style="fill:none;stroke:#08bdf9;stroke-dasharray:2.2,2.2;stroke-dashoffset:0;stroke-width:0.8;"/>
     </g>
     <g id="line2d_4">
      <g>
       <use style="fill:#01769d;stroke:#01769d;stroke-width:0.8;" x="127.675504" xlink:href="#m368118d4a5" y="120.32"/>
      </g>
     </g>
    </g>
    <g id="xtick_3">
     <g id="line2d_5">
      <path clip-path="url(#pffe7941796)" d="M 196.147151 120.32 
L 196.147151 26.16 
" style="fill:none;stroke:#08bdf9;stroke-dasharray:2.2,2.2;stroke-dashoffset:0;stroke-width:0.8;"/>
     </g>
     <g id="line2d_6">
      <g>
       <use style="fill:#01769d;stroke:#01769d;stroke-width:0.8;" x="196.147151" xlink:href="#m368118d4a5" y="120.32"/>
      </g>
     </g>
    </g>
    <g id="xtick_4">
     <g id="line2d_7">
      <path clip-path="url(#pffe7941796)" d="M 264.618798 120.32 
L 264.618798 26.16 
" style="fill:none;stroke:#08bdf9;stroke-dasharray:2.2,2.2;stroke-dashoffset:0;stroke-width:0.8;"/>
     </g>
     <g id="line2d_8">
      <g>
       <use style="fill:#01769d;stroke:#01769d;stroke-width:0.8;" x="264.618798" xlink:href="#m368118d4a5" y="120.32"/>
      </g>
     </g>
    </g>
    <g id="xtick_5">
     <g id="line2d_9">
      <path clip-path="url(#pffe7941796)" d="M 333.090444 120.32 
L 333.090444 26.16 
" style="fill:none;stroke:#08bdf9;stroke-dasharray:2.2,2.2;stroke-dashoffset:0;stroke-width:0.8;"/>
     </g>
     <g id="line2d_10">
      <g>
       <use style="fill:#01769d;stroke:#01769d;stroke-width:0.8;" x="333.090444" xlink:href="#m368118d4a5" y="120.32"/>
      </g>
     </g>
    </g>
    <g id="xtick_6">
     <g id="line2d_11">
      <path clip-path="url(#pffe7941796)" d="M 401.562091 120.32 
L 401.562091 26.16 
" style="fill:none;stroke:#08bdf9;stroke-dasharray:2.2,2.2;stroke-dashoffset:0;stroke-width:0.8;"/>
     </g>
     <g id="line2d_12">
      <g>
       <use style="fill:#01769d;stroke:#01769d;stroke-width:0.8;" x="401.562091" xlink:href="#m368118d4a5" y="120.32"/>
      </g>
     </g>
    </g>
   </g>
   <g id="matplotlib.axis_2">
    <g id="ytick_1">
     <g id="line2d_13">
      <path clip-path="url(#pffe7941796)" d="M 42.086 89.55382 
L 418.68 89.55382 
" style="fill:none;stroke:#08bdf9;stroke-dasharray:2.2,2.2;stroke-dashoffset:0;stroke-width:0.8;"/>
     </g>
     <g id="line2d_14">
      <defs>
       <path d="M 0 0 
L -3.5 0 
" id="me614ab69d6" style="stroke:#01769d;stroke-width:0.8;"/>
      </defs>
      <g>
       <use style="fill:#01769d;stroke:#01769d;stroke-width:0.8;" x="42.086" xlink:href="#me614ab69d6" y="89.55382"/>
      </g>
     </g>
     <g id="text_1">
      <!-- 0 -->
      <defs>
       <path d="M 31.78125 66.40625 
Q 24.171875 66.40625 20.328125 58.90625 
Q 16.5 51.421875 16.5 36.375 
Q 16.5 21.390625 20.328125 13.890625 
Q 24.171875 6.390625 31.78125 6.390625 
Q 39.453125 6.390625 43.28125 13.890625 
Q 47.125 21.390625 47.125 36.375 
Q 47.125 51.421875 43.28125 58.90625 
Q 39.453125 66.40625 31.78125 66.40625 
M 31.78125 74.21875 
Q 44.046875 74.21875 50.515625 64.515625 
Q 56.984375 54.828125 56.984375 36.375 
Q 56.984375 17.96875 50.515625 8.265625 
Q 44.046875 -1.421875 31.78125 -1.421875 
Q 19.53125 -1.421875 13.0625 8.265625 
Q 6.59375 17.96875 6.59375 36.375 
Q 6.59375 54.828125 13.0625 64.515625 
Q 19.53125 74.21875 31.78125 74.21875 
" id="DejaVuSans-30"/>
      </defs>
      <g style="fill:#01769d;" transform="translate(28.7235 93.353039)scale(0.1 -0.1)">
       <use xlink:href="#DejaVuSans-30"/>
      </g>
     </g>
    </g>
    <g id="ytick_2">
     <g id="line2d_15">
      <path clip-path="url(#pffe7941796)" d="M 42.086 53.727262 
L 418.68 53.727262 
" style="fill:none;stroke:#08bdf9;stroke-dasharray:2.2,2.2;stroke-dashoffset:0;stroke-width:0.8;"/>
     </g>
     <g id="line2d_16">
      <g>
       <use style="fill:#01769d;stroke:#01769d;stroke-width:0.8;" x="42.086" xlink:href="#me614ab69d6" y="53.727262"/>
      </g>
     </g>
     <g id="text_2">
      <!-- 2 -->
      <defs>
       <path d="M 19.1875 8.296875 
L 53.609375 8.296875 
L 53.609375 0 
L 7.328125 0 
L 7.328125 8.296875 
Q 12.9375 14.109375 22.625 23.890625 
Q 32.328125 33.6875 34.8125 36.53125 
Q 39.546875 41.84375 41.421875 45.53125 
Q 43.3125 49.21875 43.3125 52.78125 
Q 43.3125 58.59375 39.234375 62.25 
Q 35.15625 65.921875 28.609375 65.921875 
Q 23.96875 65.921875 18.8125 64.3125 
Q 13.671875 62.703125 7.8125 59.421875 
L 7.8125 69.390625 
Q 13.765625 71.78125 18.9375 73 
Q 24.125 74.21875 28.421875 74.21875 
Q 39.75 74.21875 46.484375 68.546875 
Q 53.21875 62.890625 53.21875 53.421875 
Q 53.21875 48.921875 51.53125 44.890625 
Q 49.859375 40.875 45.40625 35.40625 
Q 44.1875 33.984375 37.640625 27.21875 
Q 31.109375 20.453125 19.1875 8.296875 
" id="DejaVuSans-32"/>
      </defs>
      <g style="fill:#01769d;" transform="translate(28.7235 57.526481)scale(0.1 -0.1)">
       <use xlink:href="#DejaVuSans-32"/>
      </g>
     </g>
    </g>
    <g id="text_3">
     <!-- $V_{gate}\;(V)$ -->
     <defs>
      <path d="M 20.609375 0 
L 7.8125 72.90625 
L 17.484375 72.90625 
L 28.078125 10.203125 
L 63.484375 72.90625 
L 74.21875 72.90625 
L 32.078125 0 
z
" id="DejaVuSans-Oblique-56"/>
      <path d="M 59.625 54.6875 
L 50.296875 6.78125 
Q 47.609375 -7.125 40.015625 -13.953125 
Q 32.421875 -20.796875 19.578125 -20.796875 
Q 14.84375 -20.796875 10.78125 -20.09375 
Q 6.734375 -19.390625 3.21875 -17.921875 
L 4.890625 -9.1875 
Q 8.203125 -11.328125 11.90625 -12.34375 
Q 15.625 -13.375 19.828125 -13.375 
Q 28.375 -13.375 33.859375 -8.703125 
Q 39.359375 -4.046875 41.109375 4.6875 
L 41.890625 8.796875 
Q 38.140625 4.5 33.15625 2.25 
Q 28.171875 0 22.40625 0 
Q 14.109375 0 9.34375 5.484375 
Q 4.59375 10.984375 4.59375 20.609375 
Q 4.59375 28.171875 7.46875 35.421875 
Q 10.359375 42.671875 15.578125 48.296875 
Q 19.046875 52 23.65625 54 
Q 28.265625 56 33.296875 56 
Q 38.8125 56 42.90625 53.4375 
Q 47.015625 50.875 49.03125 46.1875 
L 50.59375 54.6875 
z
M 46.09375 34.625 
Q 46.09375 41.265625 42.96875 44.875 
Q 39.84375 48.484375 34.078125 48.484375 
Q 30.515625 48.484375 27.296875 47.0625 
Q 24.078125 45.65625 21.78125 43.109375 
Q 18.0625 38.921875 15.984375 33.234375 
Q 13.921875 27.546875 13.921875 21.484375 
Q 13.921875 14.75 17.0625 11.125 
Q 20.21875 7.515625 26.125 7.515625 
Q 34.671875 7.515625 40.375 15.25 
Q 46.09375 23 46.09375 34.625 
" id="DejaVuSans-Oblique-67"/>
      <path d="M 53.71875 31.203125 
L 47.609375 0 
L 38.625 0 
L 40.28125 8.296875 
Q 36.328125 3.421875 31.265625 1 
Q 26.21875 -1.421875 20.015625 -1.421875 
Q 13.03125 -1.421875 8.5625 2.84375 
Q 4.109375 7.125 4.109375 13.8125 
Q 4.109375 23.390625 11.75 28.953125 
Q 19.390625 34.515625 32.8125 34.515625 
L 45.3125 34.515625 
L 45.796875 36.921875 
Q 45.90625 37.3125 45.953125 37.765625 
Q 46 38.234375 46 39.203125 
Q 46 43.5625 42.453125 45.96875 
Q 38.921875 48.390625 32.515625 48.390625 
Q 28.125 48.390625 23.5 47.265625 
Q 18.890625 46.140625 14.015625 43.890625 
L 15.578125 52.203125 
Q 20.65625 54.109375 25.515625 55.046875 
Q 30.375 56 34.90625 56 
Q 44.578125 56 49.625 51.796875 
Q 54.6875 47.609375 54.6875 39.59375 
Q 54.6875 37.984375 54.4375 35.8125 
Q 54.203125 33.640625 53.71875 31.203125 
M 44 27.484375 
L 35.015625 27.484375 
Q 23.96875 27.484375 18.671875 24.53125 
Q 13.375 21.578125 13.375 15.375 
Q 13.375 11.078125 16.078125 8.640625 
Q 18.796875 6.203125 23.578125 6.203125 
Q 30.90625 6.203125 36.375 11.453125 
Q 41.84375 16.703125 43.609375 25.484375 
z
" id="DejaVuSans-Oblique-61"/>
      <path d="M 42.28125 54.6875 
L 40.921875 47.703125 
L 23 47.703125 
L 17.1875 18.015625 
Q 16.890625 16.359375 16.75 15.234375 
Q 16.609375 14.109375 16.609375 13.484375 
Q 16.609375 10.359375 18.484375 8.9375 
Q 20.359375 7.515625 24.515625 7.515625 
L 33.59375 7.515625 
L 32.078125 0 
L 23.484375 0 
Q 15.484375 0 11.546875 3.125 
Q 7.625 6.25 7.625 12.59375 
Q 7.625 13.71875 7.765625 15.0625 
Q 7.90625 16.40625 8.203125 18.015625 
L 14.015625 47.703125 
L 6.390625 47.703125 
L 7.8125 54.6875 
L 15.28125 54.6875 
L 18.3125 70.21875 
L 27.296875 70.21875 
L 24.3125 54.6875 
z
" id="DejaVuSans-Oblique-74"/>
      <path d="M 48.09375 32.234375 
Q 48.25 33.015625 48.3125 33.84375 
Q 48.390625 34.671875 48.390625 35.5 
Q 48.390625 41.453125 44.890625 44.921875 
Q 41.40625 48.390625 35.40625 48.390625 
Q 28.71875 48.390625 23.578125 44.15625 
Q 18.453125 39.9375 15.828125 32.171875 
z
M 55.90625 25.203125 
L 14.109375 25.203125 
Q 13.8125 23.34375 13.71875 22.265625 
Q 13.625 21.1875 13.625 20.40625 
Q 13.625 13.625 17.796875 9.90625 
Q 21.96875 6.203125 29.59375 6.203125 
Q 35.453125 6.203125 40.671875 7.515625 
Q 45.90625 8.84375 50.390625 11.375 
L 48.6875 2.484375 
Q 43.84375 0.53125 38.6875 -0.4375 
Q 33.546875 -1.421875 28.21875 -1.421875 
Q 16.84375 -1.421875 10.71875 4.015625 
Q 4.59375 9.46875 4.59375 19.484375 
Q 4.59375 28.03125 7.640625 35.375 
Q 10.6875 42.71875 16.609375 48.484375 
Q 20.40625 52.09375 25.65625 54.046875 
Q 30.90625 56 36.8125 56 
Q 46.09375 56 51.578125 50.4375 
Q 57.078125 44.875 57.078125 35.5 
Q 57.078125 33.25 56.78125 30.6875 
Q 56.5 28.125 55.90625 25.203125 
" id="DejaVuSans-Oblique-65"/>
      <path d="M 31 75.875 
Q 24.46875 64.65625 21.28125 53.65625 
Q 18.109375 42.671875 18.109375 31.390625 
Q 18.109375 20.125 21.3125 9.0625 
Q 24.515625 -2 31 -13.1875 
L 23.1875 -13.1875 
Q 15.875 -1.703125 12.234375 9.375 
Q 8.59375 20.453125 8.59375 31.390625 
Q 8.59375 42.28125 12.203125 53.3125 
Q 15.828125 64.359375 23.1875 75.875 
z
" id="DejaVuSans-28"/>
      <path d="M 8.015625 75.875 
L 15.828125 75.875 
Q 23.140625 64.359375 26.78125 53.3125 
Q 30.421875 42.28125 30.421875 31.390625 
Q 30.421875 20.453125 26.78125 9.375 
Q 23.140625 -1.703125 15.828125 -13.1875 
L 8.015625 -13.1875 
Q 14.5 -2 17.703125 9.0625 
Q 20.90625 20.125 20.90625 31.390625 
Q 20.90625 42.671875 17.703125 53.65625 
Q 14.5 64.65625 8.015625 75.875 
" id="DejaVuSans-29"/>
     </defs>
     <g style="fill:#01769d;" transform="translate(21.6235 93.39)rotate(-90)scale(0.1 -0.1)">
      <use transform="translate(0 0.125)" xlink:href="#DejaVuSans-Oblique-56"/>
      <use transform="translate(68.408203 -16.28125)scale(0.7)" xlink:href="#DejaVuSans-Oblique-67"/>
      <use transform="translate(112.841797 -16.28125)scale(0.7)" xlink:href="#DejaVuSans-Oblique-61"/>
      <use transform="translate(155.737305 -16.28125)scale(0.7)" xlink:href="#DejaVuSans-Oblique-74"/>
      <use transform="translate(183.183594 -16.28125)scale(0.7)" xlink:href="#DejaVuSans-Oblique-65"/>
      <use transform="translate(256.043511 0.125)" xlink:href="#DejaVuSans-28"/>
      <use transform="translate(295.057183 0.125)" xlink:href="#DejaVuSans-Oblique-56"/>
      <use transform="translate(363.465386 0.125)" xlink:href="#DejaVuSans-29"/>
     </g>
    </g>
   </g>
   <g id="line2d_17">
    <path clip-path="url(#pffe7941796)" d="M 59.203909 30.44 
L 59.226984 30.522741 
L 59.296153 32.147924 
L 59.634489 38.463985 
L 60.353952 48.984991 
L 61.356955 60.239868 
L 62.299267 67.667233 
L 62.688425 69.408654 
L 62.864138 69.63472 
L 63.482756 69.694425 
L 65.154427 69.899962 
L 66.15743 70.174304 
L 66.826098 70.491601 
L 67.494767 71.026349 
L 67.829101 71.455372 
L 68.163435 72.146763 
L 68.497769 73.522938 
L 68.729218 75.675244 
L 69.037948 83.596924 
L 69.849754 113.408826 
L 70.061051 116.031939 
L 70.253844 115.61576 
L 70.595972 109.016562 
L 71.584688 75.09482 
L 71.760601 73.838746 
L 71.904685 73.9465 
L 72.183 75.213203 
L 72.563868 79.499908 
L 73.598754 98.576045 
L 73.830336 99.894825 
L 74.022764 99.728906 
L 74.300889 97.450884 
L 75.548607 82.019155 
L 75.778078 82.003984 
L 76.07273 83.647149 
L 77.320656 94.460246 
L 77.533365 94.515839 
L 77.822954 93.46582 
L 78.37527 89.315943 
L 78.83517 86.450113 
L 79.057571 85.837157 
L 79.296835 85.772812 
L 79.601587 86.569889 
L 80.138814 89.462269 
L 80.526763 91.275615 
L 80.735563 91.801722 
L 80.996268 92.013371 
L 81.187316 91.855082 
L 81.54443 90.833716 
L 82.28662 88.13742 
L 82.494298 87.762708 
L 82.769446 87.615904 
L 83.106941 87.973129 
L 83.639619 89.397274 
L 84.044829 90.37288 
L 84.261478 90.655493 
L 84.50109 90.769387 
L 84.820585 90.57112 
L 85.210966 89.888189 
L 85.742604 88.896847 
L 86.197748 88.541292 
L 86.569989 88.669155 
L 87.107656 89.364821 
L 87.698719 90.038918 
L 88.121903 90.131708 
L 88.518969 89.898812 
L 89.424862 89.094632 
L 89.88346 89.016636 
L 90.302979 89.19638 
L 91.361003 89.807848 
L 91.876715 89.767624 
L 93.384809 89.254466 
L 94.119053 89.456784 
L 94.870268 89.65958 
L 95.653976 89.580707 
L 96.724976 89.377982 
L 97.714767 89.497218 
L 98.742019 89.587346 
L 101.280952 89.509528 
L 102.633975 89.532954 
L 104.597188 89.501546 
L 106.770414 89.505384 
L 111.493786 89.512072 
L 120.52081 89.524307 
L 127.731352 89.441116 
L 127.773947 87.923516 
L 128.082285 70.182472 
L 128.126061 70.200529 
L 128.31646 70.245688 
L 128.73031 70.025086 
L 130.323629 68.576976 
L 130.530948 66.996595 
L 131.587571 56.474479 
L 132.444029 50.158919 
L 133.447031 44.664791 
L 134.450034 40.706118 
L 135.453036 37.850491 
L 136.456039 35.789568 
L 137.459042 34.301888 
L 138.462044 33.227915 
L 139.465047 32.452539 
L 140.802384 31.743191 
L 142.139721 31.283787 
L 143.811392 30.93 
L 146.151731 30.668878 
L 149.829408 30.509127 
L 157.853429 30.445034 
L 196.163361 30.472333 
L 196.21467 31.483538 
L 196.540983 37.855865 
L 197.194608 47.612153 
L 198.197611 59.252775 
L 199.16326 67.170569 
L 199.58156 69.281201 
L 199.743111 69.596027 
L 200.086657 69.67549 
L 201.944154 69.87105 
L 203.281491 70.245813 
L 203.950159 70.607984 
L 204.618828 71.237887 
L 204.953162 71.777839 
L 205.287496 72.830497 
L 205.62183 75.162158 
L 205.791636 77.893438 
L 206.209676 92.865306 
L 206.615508 108.852243 
L 207.012134 116.04 
L 207.204564 115.536798 
L 207.544528 108.874617 
L 208.539116 74.958297 
L 208.711882 73.821094 
L 208.850614 73.949368 
L 209.128144 75.206808 
L 209.494694 79.272675 
L 210.537336 98.528794 
L 210.765532 99.882285 
L 210.957186 99.765435 
L 211.239312 97.511248 
L 212.483492 82.048231 
L 212.717312 81.999434 
L 213.0147 83.632287 
L 214.251513 94.432344 
L 214.469225 94.522535 
L 214.763169 93.486202 
L 215.316832 89.334488 
L 215.77289 86.474993 
L 215.994249 85.850844 
L 216.237016 85.771578 
L 216.544016 86.566199 
L 217.100091 89.556404 
L 217.510449 91.40294 
L 217.719379 91.875958 
L 217.964721 92.013053 
L 218.14729 91.827581 
L 218.486372 90.840551 
L 219.243928 88.105493 
L 219.454973 87.743542 
L 219.73353 87.623551 
L 220.064896 88.002348 
L 220.70869 89.744744 
L 220.989219 90.373664 
L 221.207784 90.656947 
L 221.44858 90.768976 
L 221.767057 90.568002 
L 222.158266 89.881603 
L 222.692766 88.888383 
L 223.150638 88.541041 
L 223.52058 88.674599 
L 224.057816 89.373567 
L 224.650798 90.043753 
L 225.071797 90.130859 
L 225.466545 89.895753 
L 226.367564 89.095336 
L 226.826525 89.016538 
L 227.246348 89.195906 
L 228.299776 89.807103 
L 228.815774 89.769292 
L 230.324552 89.254321 
L 231.06168 89.456311 
L 231.797708 89.658175 
L 232.578147 89.585751 
L 233.579336 89.382515 
L 234.475103 89.461227 
L 235.67371 89.587995 
L 238.219524 89.508941 
L 239.585022 89.532567 
L 241.542575 89.501596 
L 243.714572 89.505405 
L 248.437643 89.512071 
L 257.464667 89.524315 
L 264.674643 89.441147 
L 264.717213 87.925091 
L 265.025426 70.182741 
L 265.069134 70.200242 
L 265.2594 70.245724 
L 265.673246 70.025355 
L 267.267091 68.575812 
L 267.474519 66.993711 
L 268.527527 56.502656 
L 269.381481 50.196555 
L 270.384483 44.691894 
L 271.387486 40.725661 
L 272.390488 37.864588 
L 273.393491 35.79976 
L 274.396494 34.309232 
L 275.399496 33.233218 
L 276.402499 32.456372 
L 277.739836 31.745681 
L 279.077173 31.285399 
L 280.748844 30.930931 
L 283.089183 30.669308 
L 286.76686 30.509253 
L 294.790881 30.445052 
L 333.107157 30.475235 
L 333.158631 31.501756 
L 333.490673 37.962162 
L 334.160206 47.914368 
L 335.163208 59.470242 
L 336.12366 67.280449 
L 336.535659 69.311098 
L 336.698782 69.605611 
L 337.056306 69.676726 
L 338.922558 69.877445 
L 340.259895 70.260789 
L 340.928563 70.632597 
L 341.597232 71.284103 
L 341.931566 71.852402 
L 342.2659 73.026459 
L 342.600234 75.694771 
L 342.920918 83.406413 
L 343.723164 113.072862 
L 343.929408 115.85234 
L 344.125571 115.668586 
L 344.475309 109.238776 
L 345.639307 73.920914 
L 345.804697 73.999892 
L 346.093061 75.369339 
L 346.456958 79.596726 
L 347.488886 98.588646 
L 347.721348 99.884892 
L 347.913657 99.696333 
L 348.189947 97.412418 
L 349.439066 82.017858 
L 349.666734 82.016396 
L 349.96025 83.661503 
L 351.21273 94.464305 
L 351.423401 94.505975 
L 351.711181 93.452024 
L 352.262915 89.308678 
L 352.724383 86.444215 
L 352.947203 85.836686 
L 353.185048 85.778382 
L 353.488889 86.576205 
L 354.136187 90.067074 
L 354.413125 91.272306 
L 354.622071 91.79851 
L 354.882471 92.010397 
L 355.073444 91.852923 
L 355.43095 90.832381 
L 356.171146 88.144232 
L 356.378306 87.768105 
L 356.652938 87.617398 
L 356.991336 87.970603 
L 357.52303 89.388289 
L 357.930991 90.370963 
L 358.147318 90.653407 
L 358.386615 90.767836 
L 358.706384 90.570718 
L 359.096522 89.88975 
L 359.627332 88.900214 
L 360.081716 88.542656 
L 360.454626 88.668638 
L 360.815204 89.104577 
L 361.431826 89.919597 
L 361.860375 90.138421 
L 362.289468 89.994971 
L 363.548795 89.017728 
L 363.952938 89.067927 
L 364.633588 89.519057 
L 365.031659 89.748764 
L 365.493745 89.821566 
L 366.032822 89.650108 
L 367.01464 89.260783 
L 367.719506 89.350712 
L 368.759053 89.659556 
L 369.54323 89.580077 
L 370.62115 89.377827 
L 371.603771 89.497601 
L 372.630337 89.587215 
L 375.168829 89.509613 
L 376.508164 89.533724 
L 378.460939 89.500381 
L 380.57853 89.507619 
L 384.973871 89.508479 
L 400.687579 89.527219 
L 401.562091 89.527375 
L 401.562091 89.527375 
" style="fill:none;stroke:#fe3ea0;stroke-linecap:square;stroke-width:1.5;"/>
   </g>
   <g id="patch_3">
    <path d="M 42.086 120.32 
L 42.086 26.16 
" style="fill:none;stroke:#08bdf9;stroke-linecap:square;stroke-linejoin:miter;stroke-width:0.8;"/>
   </g>
   <g id="patch_4">
    <path d="M 42.086 120.32 
L 418.68 120.32 
" style="fill:none;stroke:#08bdf9;stroke-linecap:square;stroke-linejoin:miter;stroke-width:0.8;"/>
   </g>
   <g id="text_4">
    <!-- No dampening -->
    <defs>
     <path d="M 50.40625 68.5 
Q 52.296875 72 54.1875 72.59375 
Q 56.09375 73.203125 58.9375 73.203125 
Q 61.796875 73.203125 63.546875 72.703125 
Q 65.296875 72.203125 66.140625 71.5 
Q 67 70.796875 67.40625 69.40625 
Q 68 67.796875 68 64.296875 
L 68 8.796875 
Q 68 6.40625 67.84375 5.296875 
Q 67.703125 4.203125 66.90625 2.703125 
Q 65.5 0 59.09375 0 
Q 55.203125 0 53.703125 0.59375 
Q 52.203125 1.203125 51.203125 2.5 
Q 28.703125 32.5 21.59375 41.703125 
L 21.59375 8.796875 
Q 21.59375 6.40625 21.4375 5.296875 
Q 21.296875 4.203125 20.5 2.703125 
Q 19.09375 0 12.703125 0 
Q 6.5 0 5.09375 2.703125 
Q 4.296875 4.203125 4.140625 5.390625 
Q 4 6.59375 4 8.90625 
L 4 64.703125 
Q 4 68.5 4.953125 70.25 
Q 5.90625 72 7.796875 72.59375 
Q 9.703125 73.203125 12.703125 73.203125 
Q 15.703125 73.203125 17.453125 72.640625 
Q 19.203125 72.09375 19.90625 71.40625 
Q 20.296875 71.09375 22.203125 68.796875 
Q 43.296875 40.09375 50.40625 30.90625 
L 50.40625 64.703125 
Q 50.40625 68.5 52.296875 72 
" id="FredokaOne-Regular-4e"/>
     <path d="M 2.5 26.296875 
Q 2.5 38.296875 10.890625 46.09375 
Q 19.296875 53.90625 30.09375 53.90625 
Q 40.90625 53.90625 49.203125 46.15625 
Q 57.5 38.40625 57.5 26.40625 
Q 57.5 18.09375 53.203125 11.640625 
Q 48.90625 5.203125 42.75 2.140625 
Q 36.59375 -0.90625 30 -0.90625 
Q 23.40625 -0.90625 17.203125 2.34375 
Q 11 5.59375 6.75 11.9375 
Q 2.5 18.296875 2.5 26.296875 
z
M 20.203125 21.59375 
Q 26.59375 16.703125 29.890625 16.703125 
Q 33.203125 16.703125 36.5 19.203125 
Q 39.796875 21.703125 39.796875 26.59375 
Q 39.796875 31.5 36.6875 33.890625 
Q 33.59375 36.296875 30 36.296875 
Q 26.40625 36.296875 23.296875 33.796875 
Q 20.203125 31.296875 20.203125 26.4375 
Q 20.203125 21.59375 26.59375 16.703125 
" id="FredokaOne-Regular-6f"/>
     <path id="FredokaOne-Regular-20"/>
     <path d="M 38.59375 73.203125 
Q 40.09375 76.09375 42 76.6875 
Q 43.90625 77.296875 47.046875 77.296875 
Q 50.203125 77.296875 52.09375 76.6875 
Q 54 76.09375 54.75 74.59375 
Q 55.5 73.09375 55.640625 71.9375 
Q 55.796875 70.796875 55.796875 68.5 
L 55.796875 8.796875 
Q 55.796875 6.5 55.640625 5.34375 
Q 55.5 4.203125 54.703125 2.796875 
Q 53.203125 0.09375 46.25 0.09375 
Q 39.296875 0.09375 38.5 5 
Q 34.296875 0.203125 26.796875 0.203125 
Q 17.796875 0.203125 10.390625 8.046875 
Q 3 15.90625 3 26.34375 
Q 3 36.796875 10.453125 44.6875 
Q 17.90625 52.59375 26.796875 52.59375 
Q 34.203125 52.59375 38.296875 47.59375 
L 38.296875 68.59375 
Q 38.296875 70.90625 38.4375 72.046875 
Q 38.59375 73.203125 40.09375 76.09375 
M 20.5 23 
Q 25.703125 17.59375 29.390625 17.59375 
Q 33.09375 17.59375 35.546875 20.296875 
Q 38 23 38 26.25 
Q 38 29.5 35.640625 32.296875 
Q 33.296875 35.09375 29.296875 35.09375 
Q 25.296875 35.09375 22.890625 32.34375 
Q 20.5 29.59375 20.5 26.296875 
Q 20.5 23 25.703125 17.59375 
" id="FredokaOne-Regular-64"/>
     <path d="M 38.203125 47.09375 
Q 38.796875 52.703125 46.09375 52.703125 
Q 50 52.703125 51.890625 52.09375 
Q 53.796875 51.5 54.546875 50 
Q 55.296875 48.5 55.4375 47.34375 
Q 55.59375 46.203125 55.59375 43.90625 
L 55.59375 8.90625 
Q 55.59375 6.59375 55.4375 5.4375 
Q 55.296875 4.296875 54.59375 2.796875 
Q 53.203125 0.203125 47.75 0.203125 
Q 42.296875 0.203125 40.4375 1.546875 
Q 38.59375 2.90625 38.296875 5.5 
Q 34.59375 0.203125 25.9375 0.203125 
Q 17.296875 0.203125 9.890625 8.09375 
Q 2.5 16 2.5 26.453125 
Q 2.5 36.90625 9.953125 44.75 
Q 17.40625 52.59375 26.296875 52.59375 
Q 29.703125 52.59375 32.5 51.390625 
Q 35.296875 50.203125 36.390625 49.140625 
Q 37.5 48.09375 38.203125 47.09375 
M 20 29.59375 
Q 20 23 22.59375 20.34375 
Q 25.203125 17.703125 28.890625 17.703125 
Q 32.59375 17.703125 35.046875 20.390625 
Q 37.5 23.09375 37.5 26.34375 
Q 37.5 29.59375 35.140625 32.390625 
Q 32.796875 35.203125 28.84375 35.203125 
Q 24.90625 35.203125 22.453125 32.390625 
Q 20 29.59375 20 23 
" id="FredokaOne-Regular-61"/>
     <path d="M 21.203125 45.703125 
Q 25.90625 52.796875 32.5 52.796875 
Q 42.703125 52.796875 47.703125 44.09375 
Q 48.796875 45.59375 50.34375 47.25 
Q 51.90625 48.90625 55.296875 50.84375 
Q 58.703125 52.796875 62.296875 52.796875 
Q 70.296875 52.796875 75.6875 46.640625 
Q 81.09375 40.5 81.09375 26.296875 
L 81.09375 8.796875 
Q 81.09375 6.5 80.9375 5.34375 
Q 80.796875 4.203125 80 2.703125 
Q 78.703125 0 72.296875 0 
Q 66 0 64.59375 2.796875 
Q 63.90625 4.296875 63.75 5.4375 
Q 63.59375 6.59375 63.59375 8.90625 
L 63.59375 26.40625 
Q 63.59375 35.09375 57.40625 35.09375 
Q 53.90625 35.09375 52.65625 32.796875 
Q 51.40625 30.5 51.40625 26.296875 
L 51.40625 8.796875 
Q 51.40625 6.40625 51.25 5.296875 
Q 51.09375 4.203125 50.296875 2.703125 
Q 48.90625 0 42.5 0 
Q 36.203125 0 34.796875 2.796875 
Q 34.09375 4.296875 33.9375 5.4375 
Q 33.796875 6.59375 33.796875 8.90625 
L 33.796875 26.40625 
Q 33.796875 35.09375 27.59375 35.09375 
Q 21.59375 35.09375 21.59375 26.40625 
L 21.59375 8.703125 
Q 21.59375 6.40625 21.4375 5.25 
Q 21.296875 4.09375 20.5 2.59375 
Q 19 0 12.703125 0 
Q 6.40625 0 5 2.703125 
Q 4.296875 4.203125 4.140625 5.296875 
Q 4 6.40625 4 8.796875 
L 4 44 
Q 4 46.296875 4.140625 47.4375 
Q 4.296875 48.59375 5.09375 50 
Q 6.59375 52.703125 12.1875 52.703125 
Q 17.796875 52.703125 19.5 50.890625 
Q 21.203125 49.09375 21.203125 45.703125 
" id="FredokaOne-Regular-6d"/>
     <path d="M 4 -14.296875 
L 4 44.09375 
Q 4 46.40625 4.140625 47.5 
Q 4.296875 48.59375 5 50 
Q 6.40625 52.703125 11.703125 52.703125 
Q 17 52.703125 18.84375 51.34375 
Q 20.703125 50 21 47.40625 
Q 24.796875 52.59375 32.9375 52.59375 
Q 41.09375 52.59375 48.390625 44.890625 
Q 55.703125 37.203125 55.703125 27 
Q 55.703125 16.796875 48.453125 9.09375 
Q 41.203125 1.40625 33 1.40625 
Q 24.796875 1.40625 21.09375 6 
L 21.09375 -14.203125 
Q 21.09375 -16.5 20.9375 -17.59375 
Q 20.796875 -18.703125 20.046875 -20.140625 
Q 19.296875 -21.59375 17.5 -22.1875 
Q 15.703125 -22.796875 12.59375 -22.796875 
Q 9.5 -22.796875 7.640625 -22.1875 
Q 5.796875 -21.59375 5.046875 -20.1875 
Q 4.296875 -18.796875 4.140625 -17.6875 
Q 4 -16.59375 4 -14.296875 
M 26.09375 35.5 
Q 21.5 30.09375 21.5 26.890625 
Q 21.5 23.703125 23.84375 21.046875 
Q 26.203125 18.40625 29.84375 18.40625 
Q 33.5 18.40625 36.046875 21 
Q 38.59375 23.59375 38.59375 26.890625 
Q 38.59375 30.203125 36.1875 32.84375 
Q 33.796875 35.5 29.9375 35.5 
Q 26.09375 35.5 21.5 30.09375 
" id="FredokaOne-Regular-70"/>
     <path d="M 54.796875 38.796875 
Q 54.796875 26.5 51.75 23.546875 
Q 48.703125 20.59375 45 20.59375 
L 21.296875 20.59375 
Q 21.296875 17.796875 24.59375 15.890625 
Q 27.90625 14 31.203125 14 
Q 37 14 40.296875 15.203125 
L 41.40625 15.59375 
Q 43.796875 16.703125 45.40625 16.703125 
Q 48.59375 16.703125 50.90625 12.203125 
Q 52.203125 9.5 52.203125 7.59375 
Q 52.203125 -1.296875 30.90625 -1.296875 
Q 23.5 -1.296875 17.75 1.25 
Q 12 3.796875 8.796875 8 
Q 2.5 16.09375 2.5 26.09375 
Q 2.5 38.703125 10.640625 46.25 
Q 18.796875 53.796875 31 53.796875 
Q 44.90625 53.796875 51.40625 44 
Q 54.796875 38.796875 54.796875 26.5 
M 33.703125 29.703125 
Q 37.5 29.703125 37.5 32.90625 
Q 37.5 35.203125 35.75 36.59375 
Q 34 38 30.75 38 
Q 27.5 38 24.296875 35.34375 
Q 21.09375 32.703125 21.09375 29.703125 
z
" id="FredokaOne-Regular-65"/>
     <path d="M 33.296875 52.703125 
Q 43.296875 52.703125 49.9375 45.046875 
Q 56.59375 37.40625 56.59375 26.40625 
L 56.59375 8.796875 
Q 56.59375 6.5 56.4375 5.34375 
Q 56.296875 4.203125 55.59375 2.796875 
Q 54.203125 0.09375 47.796875 0.09375 
Q 40.703125 0.09375 39.59375 3.796875 
Q 39 5.5 39 8.90625 
L 39 26.5 
Q 39 30.59375 36.640625 32.890625 
Q 34.296875 35.203125 30.34375 35.203125 
Q 26.40625 35.203125 23.953125 32.796875 
Q 21.5 30.40625 21.5 26.5 
L 21.5 8.796875 
Q 21.5 6.5 21.34375 5.34375 
Q 21.203125 4.203125 20.40625 2.796875 
Q 19.09375 0.09375 12.703125 0.09375 
Q 6.40625 0.09375 5 2.796875 
Q 4.296875 4.296875 4.140625 5.4375 
Q 4 6.59375 4 8.90625 
L 4 44.296875 
Q 4 46.5 4.140625 47.640625 
Q 4.296875 48.796875 5.09375 50.203125 
Q 6.5 52.703125 12.796875 52.703125 
Q 18.90625 52.703125 20.296875 50.40625 
Q 21.296875 48.703125 21.296875 46.296875 
Q 21.703125 47 23.09375 48.296875 
Q 24.5 49.59375 25.796875 50.40625 
Q 29.203125 52.703125 33.296875 52.703125 
" id="FredokaOne-Regular-6e"/>
     <path d="M 4 43.90625 
Q 4 46.203125 4.140625 47.34375 
Q 4.296875 48.5 5 50 
Q 6.40625 52.59375 12.796875 52.59375 
Q 17.59375 52.59375 19.59375 50.90625 
Q 21.296875 49.5 21.40625 46.59375 
Q 21.5 45.59375 21.5 43.703125 
L 21.5 8.703125 
Q 21.5 6.40625 21.34375 5.25 
Q 21.203125 4.09375 20.40625 2.59375 
Q 19.09375 0 12.703125 0 
Q 6.40625 0 5 2.703125 
Q 4.296875 4.203125 4.140625 5.296875 
Q 4 6.40625 4 8.796875 
z
M 21.203125 63.90625 
Q 19.703125 61 17.796875 60.390625 
Q 15.90625 59.796875 12.75 59.796875 
Q 9.59375 59.796875 7.6875 60.390625 
Q 5.796875 61 5.046875 62.5 
Q 4.296875 64 4.140625 65.140625 
Q 4 66.296875 4 68.59375 
Q 4 70.90625 4.140625 72.046875 
Q 4.296875 73.203125 5 74.59375 
Q 6.40625 77.296875 12.796875 77.296875 
Q 19.09375 77.296875 20.40625 74.59375 
Q 21.203125 73.09375 21.34375 71.9375 
Q 21.5 70.796875 21.5 68.5 
Q 21.5 66.203125 21.34375 65.046875 
Q 21.203125 63.90625 19.703125 61 
" id="FredokaOne-Regular-69"/>
     <path d="M 37.40625 6.59375 
Q 33.59375 1.59375 25.296875 1.59375 
Q 17 1.59375 9.75 9.25 
Q 2.5 16.90625 2.5 27.09375 
Q 2.5 37.296875 9.796875 45 
Q 17.09375 52.703125 25.796875 52.703125 
Q 29.203125 52.703125 32 51.453125 
Q 34.796875 50.203125 35.84375 49.140625 
Q 36.90625 48.09375 37.5 47.203125 
Q 37.796875 50 39.546875 51.453125 
Q 41.296875 52.90625 45.1875 52.90625 
Q 49.09375 52.90625 50.890625 52.296875 
Q 52.703125 51.703125 53.453125 50.25 
Q 54.203125 48.796875 54.34375 47.6875 
Q 54.5 46.59375 54.5 44.296875 
L 54.5 2.90625 
Q 54.5 -8.59375 46.5 -15.640625 
Q 38.5 -22.703125 28.5 -22.703125 
Q 20.90625 -22.703125 14 -19 
Q 7.09375 -15.296875 7.09375 -12.296875 
Q 7.09375 -8.40625 10.09375 -5.40625 
Q 12 -3.296875 13.046875 -2.5 
Q 14.09375 -1.703125 15.5 -1.703125 
Q 16.90625 -1.703125 18.40625 -2.90625 
Q 23.203125 -6.59375 28.796875 -6.59375 
Q 32.59375 -6.59375 35 -3.59375 
Q 37.40625 -0.59375 37.40625 3.59375 
z
M 19.59375 30.296875 
Q 19.59375 23.796875 22.140625 21.1875 
Q 24.703125 18.59375 28.34375 18.59375 
Q 32 18.59375 34.390625 21.25 
Q 36.796875 23.90625 36.796875 27.046875 
Q 36.796875 30.203125 34.5 32.953125 
Q 32.203125 35.703125 28.296875 35.703125 
Q 24.40625 35.703125 22 33 
Q 19.59375 30.296875 19.59375 23.796875 
" id="FredokaOne-Regular-67"/>
    </defs>
    <g style="fill:#fe3ea0;" transform="translate(189.434875 20.16)scale(0.12 -0.12)">
     <use xlink:href="#FredokaOne-Regular-4e"/>
     <use x="71.999985" xlink:href="#FredokaOne-Regular-6f"/>
     <use x="131.999969" xlink:href="#FredokaOne-Regular-20"/>
     <use x="157.299957" xlink:href="#FredokaOne-Regular-64"/>
     <use x="217.099945" xlink:href="#FredokaOne-Regular-61"/>
     <use x="276.699936" xlink:href="#FredokaOne-Regular-6d"/>
     <use x="361.799927" xlink:href="#FredokaOne-Regular-70"/>
     <use x="419.999924" xlink:href="#FredokaOne-Regular-65"/>
     <use x="477.299911" xlink:href="#FredokaOne-Regular-6e"/>
     <use x="537.899902" xlink:href="#FredokaOne-Regular-69"/>
     <use x="563.399887" xlink:href="#FredokaOne-Regular-6e"/>
     <use x="623.999878" xlink:href="#FredokaOne-Regular-67"/>
    </g>
   </g>
  </g>
  <g id="axes_2">
   <g id="patch_5">
    <path d="M 42.086 243.16 
L 418.68 243.16 
L 418.68 149 
L 42.086 149 
z
" style="fill:#ffffff;"/>
   </g>
   <g id="matplotlib.axis_3">
    <g id="xtick_7">
     <g id="line2d_18">
      <path clip-path="url(#p5947393e86)" d="M 59.203858 243.16 
L 59.203858 149 
" style="fill:none;stroke:#08bdf9;stroke-dasharray:2.2,2.2;stroke-dashoffset:0;stroke-width:0.8;"/>
     </g>
     <g id="line2d_19">
      <g>
       <use style="fill:#01769d;stroke:#01769d;stroke-width:0.8;" x="59.203858" xlink:href="#m368118d4a5" y="243.16"/>
      </g>
     </g>
     <g id="text_5">
      <!-- 0 -->
      <g style="fill:#01769d;" transform="translate(56.022608 257.758438)scale(0.1 -0.1)">
       <use xlink:href="#DejaVuSans-30"/>
      </g>
     </g>
    </g>
    <g id="xtick_8">
     <g id="line2d_20">
      <path clip-path="url(#p5947393e86)" d="M 127.675504 243.16 
L 127.675504 149 
" style="fill:none;stroke:#08bdf9;stroke-dasharray:2.2,2.2;stroke-dashoffset:0;stroke-width:0.8;"/>
     </g>
     <g id="line2d_21">
      <g>
       <use style="fill:#01769d;stroke:#01769d;stroke-width:0.8;" x="127.675504" xlink:href="#m368118d4a5" y="243.16"/>
      </g>
     </g>
     <g id="text_6">
      <!-- 2 -->
      <g style="fill:#01769d;" transform="translate(124.494254 257.758438)scale(0.1 -0.1)">
       <use xlink:href="#DejaVuSans-32"/>
      </g>
     </g>
    </g>
    <g id="xtick_9">
     <g id="line2d_22">
      <path clip-path="url(#p5947393e86)" d="M 196.147151 243.16 
L 196.147151 149 
" style="fill:none;stroke:#08bdf9;stroke-dasharray:2.2,2.2;stroke-dashoffset:0;stroke-width:0.8;"/>
     </g>
     <g id="line2d_23">
      <g>
       <use style="fill:#01769d;stroke:#01769d;stroke-width:0.8;" x="196.147151" xlink:href="#m368118d4a5" y="243.16"/>
      </g>
     </g>
     <g id="text_7">
      <!-- 4 -->
      <defs>
       <path d="M 37.796875 64.3125 
L 12.890625 25.390625 
L 37.796875 25.390625 
z
M 35.203125 72.90625 
L 47.609375 72.90625 
L 47.609375 25.390625 
L 58.015625 25.390625 
L 58.015625 17.1875 
L 47.609375 17.1875 
L 47.609375 0 
L 37.796875 0 
L 37.796875 17.1875 
L 4.890625 17.1875 
L 4.890625 26.703125 
z
" id="DejaVuSans-34"/>
      </defs>
      <g style="fill:#01769d;" transform="translate(192.965901 257.758438)scale(0.1 -0.1)">
       <use xlink:href="#DejaVuSans-34"/>
      </g>
     </g>
    </g>
    <g id="xtick_10">
     <g id="line2d_24">
      <path clip-path="url(#p5947393e86)" d="M 264.618798 243.16 
L 264.618798 149 
" style="fill:none;stroke:#08bdf9;stroke-dasharray:2.2,2.2;stroke-dashoffset:0;stroke-width:0.8;"/>
     </g>
     <g id="line2d_25">
      <g>
       <use style="fill:#01769d;stroke:#01769d;stroke-width:0.8;" x="264.618798" xlink:href="#m368118d4a5" y="243.16"/>
      </g>
     </g>
     <g id="text_8">
      <!-- 6 -->
      <defs>
       <path d="M 33.015625 40.375 
Q 26.375 40.375 22.484375 35.828125 
Q 18.609375 31.296875 18.609375 23.390625 
Q 18.609375 15.53125 22.484375 10.953125 
Q 26.375 6.390625 33.015625 6.390625 
Q 39.65625 6.390625 43.53125 10.953125 
Q 47.40625 15.53125 47.40625 23.390625 
Q 47.40625 31.296875 43.53125 35.828125 
Q 39.65625 40.375 33.015625 40.375 
M 52.59375 71.296875 
L 52.59375 62.3125 
Q 48.875 64.0625 45.09375 64.984375 
Q 41.3125 65.921875 37.59375 65.921875 
Q 27.828125 65.921875 22.671875 59.328125 
Q 17.53125 52.734375 16.796875 39.40625 
Q 19.671875 43.65625 24.015625 45.921875 
Q 28.375 48.1875 33.59375 48.1875 
Q 44.578125 48.1875 50.953125 41.515625 
Q 57.328125 34.859375 57.328125 23.390625 
Q 57.328125 12.15625 50.6875 5.359375 
Q 44.046875 -1.421875 33.015625 -1.421875 
Q 20.359375 -1.421875 13.671875 8.265625 
Q 6.984375 17.96875 6.984375 36.375 
Q 6.984375 53.65625 15.1875 63.9375 
Q 23.390625 74.21875 37.203125 74.21875 
Q 40.921875 74.21875 44.703125 73.484375 
Q 48.484375 72.75 52.59375 71.296875 
" id="DejaVuSans-36"/>
      </defs>
      <g style="fill:#01769d;" transform="translate(261.437548 257.758438)scale(0.1 -0.1)">
       <use xlink:href="#DejaVuSans-36"/>
      </g>
     </g>
    </g>
    <g id="xtick_11">
     <g id="line2d_26">
      <path clip-path="url(#p5947393e86)" d="M 333.090444 243.16 
L 333.090444 149 
" style="fill:none;stroke:#08bdf9;stroke-dasharray:2.2,2.2;stroke-dashoffset:0;stroke-width:0.8;"/>
     </g>
     <g id="line2d_27">
      <g>
       <use style="fill:#01769d;stroke:#01769d;stroke-width:0.8;" x="333.090444" xlink:href="#m368118d4a5" y="243.16"/>
      </g>
     </g>
     <g id="text_9">
      <!-- 8 -->
      <defs>
       <path d="M 31.78125 34.625 
Q 24.75 34.625 20.71875 30.859375 
Q 16.703125 27.09375 16.703125 20.515625 
Q 16.703125 13.921875 20.71875 10.15625 
Q 24.75 6.390625 31.78125 6.390625 
Q 38.8125 6.390625 42.859375 10.171875 
Q 46.921875 13.96875 46.921875 20.515625 
Q 46.921875 27.09375 42.890625 30.859375 
Q 38.875 34.625 31.78125 34.625 
M 21.921875 38.8125 
Q 15.578125 40.375 12.03125 44.71875 
Q 8.5 49.078125 8.5 55.328125 
Q 8.5 64.0625 14.71875 69.140625 
Q 20.953125 74.21875 31.78125 74.21875 
Q 42.671875 74.21875 48.875 69.140625 
Q 55.078125 64.0625 55.078125 55.328125 
Q 55.078125 49.078125 51.53125 44.71875 
Q 48 40.375 41.703125 38.8125 
Q 48.828125 37.15625 52.796875 32.3125 
Q 56.78125 27.484375 56.78125 20.515625 
Q 56.78125 9.90625 50.3125 4.234375 
Q 43.84375 -1.421875 31.78125 -1.421875 
Q 19.734375 -1.421875 13.25 4.234375 
Q 6.78125 9.90625 6.78125 20.515625 
Q 6.78125 27.484375 10.78125 32.3125 
Q 14.796875 37.15625 21.921875 38.8125 
M 18.3125 54.390625 
Q 18.3125 48.734375 21.84375 45.5625 
Q 25.390625 42.390625 31.78125 42.390625 
Q 38.140625 42.390625 41.71875 45.5625 
Q 45.3125 48.734375 45.3125 54.390625 
Q 45.3125 60.0625 41.71875 63.234375 
Q 38.140625 66.40625 31.78125 66.40625 
Q 25.390625 66.40625 21.84375 63.234375 
Q 18.3125 60.0625 18.3125 54.390625 
" id="DejaVuSans-38"/>
      </defs>
      <g style="fill:#01769d;" transform="translate(329.909194 257.758438)scale(0.1 -0.1)">
       <use xlink:href="#DejaVuSans-38"/>
      </g>
     </g>
    </g>
    <g id="xtick_12">
     <g id="line2d_28">
      <path clip-path="url(#p5947393e86)" d="M 401.562091 243.16 
L 401.562091 149 
" style="fill:none;stroke:#08bdf9;stroke-dasharray:2.2,2.2;stroke-dashoffset:0;stroke-width:0.8;"/>
     </g>
     <g id="line2d_29">
      <g>
       <use style="fill:#01769d;stroke:#01769d;stroke-width:0.8;" x="401.562091" xlink:href="#m368118d4a5" y="243.16"/>
      </g>
     </g>
     <g id="text_10">
      <!-- 10 -->
      <defs>
       <path d="M 12.40625 8.296875 
L 28.515625 8.296875 
L 28.515625 63.921875 
L 10.984375 60.40625 
L 10.984375 69.390625 
L 28.421875 72.90625 
L 38.28125 72.90625 
L 38.28125 8.296875 
L 54.390625 8.296875 
L 54.390625 0 
L 12.40625 0 
z
" id="DejaVuSans-31"/>
      </defs>
      <g style="fill:#01769d;" transform="translate(395.199591 257.758438)scale(0.1 -0.1)">
       <use xlink:href="#DejaVuSans-31"/>
       <use x="63.623047" xlink:href="#DejaVuSans-30"/>
      </g>
     </g>
    </g>
    <g id="text_11">
     <!-- $t\;(\mu s)$ -->
     <defs>
      <path d="M -1.3125 -20.796875 
L 13.375 54.6875 
L 22.40625 54.6875 
L 15.765625 20.65625 
Q 15.578125 19.625 15.421875 18.359375 
Q 15.28125 17.09375 15.28125 15.828125 
Q 15.28125 11.28125 18.140625 8.828125 
Q 21 6.390625 26.3125 6.390625 
Q 33.546875 6.390625 37.984375 10.484375 
Q 42.4375 14.59375 44 22.796875 
L 50.203125 54.6875 
L 59.1875 54.6875 
L 51.03125 12.640625 
Q 50.828125 11.71875 50.75 11.03125 
Q 50.6875 10.359375 50.6875 9.8125 
Q 50.6875 8.296875 51.296875 7.59375 
Q 51.90625 6.890625 53.21875 6.890625 
Q 53.71875 6.890625 54.5625 7.125 
Q 55.421875 7.375 56.984375 8.015625 
L 55.609375 0.78125 
Q 53.46875 -0.296875 51.515625 -0.859375 
Q 49.5625 -1.421875 47.703125 -1.421875 
Q 44.484375 -1.421875 42.65625 0.625 
Q 40.828125 2.6875 40.828125 6.296875 
Q 38.09375 2.390625 34.296875 0.484375 
Q 30.515625 -1.421875 25.390625 -1.421875 
Q 20.84375 -1.421875 17.453125 0.671875 
Q 14.0625 2.78125 12.984375 6.203125 
L 7.71875 -20.796875 
z
" id="DejaVuSans-Oblique-3bc"/>
      <path d="M 50 53.078125 
L 48.296875 44.578125 
Q 44.734375 46.53125 40.765625 47.5 
Q 36.8125 48.484375 32.625 48.484375 
Q 25.53125 48.484375 21.453125 46.0625 
Q 17.390625 43.65625 17.390625 39.5 
Q 17.390625 34.671875 26.859375 32.078125 
Q 27.59375 31.890625 27.9375 31.78125 
L 30.8125 30.90625 
Q 39.796875 28.421875 42.796875 25.6875 
Q 45.796875 22.953125 45.796875 18.21875 
Q 45.796875 9.515625 38.890625 4.046875 
Q 31.984375 -1.421875 20.796875 -1.421875 
Q 16.453125 -1.421875 11.671875 -0.578125 
Q 6.890625 0.25 1.125 2 
L 2.875 11.28125 
Q 7.8125 8.734375 12.59375 7.421875 
Q 17.390625 6.109375 21.78125 6.109375 
Q 28.375 6.109375 32.5 8.9375 
Q 36.625 11.765625 36.625 16.109375 
Q 36.625 20.796875 25.78125 23.6875 
L 24.859375 23.921875 
L 21.78125 24.703125 
Q 14.9375 26.515625 11.765625 29.46875 
Q 8.59375 32.421875 8.59375 37.015625 
Q 8.59375 45.75 15.15625 50.875 
Q 21.734375 56 33.015625 56 
Q 37.453125 56 41.671875 55.265625 
Q 45.90625 54.546875 50 53.078125 
" id="DejaVuSans-Oblique-73"/>
     </defs>
     <g style="fill:#01769d;" transform="translate(217.333 271.438125)scale(0.1 -0.1)">
      <use transform="translate(0 0.125)" xlink:href="#DejaVuSans-Oblique-74"/>
      <use transform="translate(66.26812 0.125)" xlink:href="#DejaVuSans-28"/>
      <use transform="translate(105.281792 0.125)" xlink:href="#DejaVuSans-Oblique-3bc"/>
      <use transform="translate(168.904839 0.125)" xlink:href="#DejaVuSans-Oblique-73"/>
      <use transform="translate(221.004448 0.125)" xlink:href="#DejaVuSans-29"/>
     </g>
    </g>
   </g>
   <g id="matplotlib.axis_4">
    <g id="ytick_3">
     <g id="line2d_30">
      <path clip-path="url(#p5947393e86)" d="M 42.086 238.727119 
L 418.68 238.727119 
" style="fill:none;stroke:#08bdf9;stroke-dasharray:2.2,2.2;stroke-dashoffset:0;stroke-width:0.8;"/>
     </g>
     <g id="line2d_31">
      <g>
       <use style="fill:#01769d;stroke:#01769d;stroke-width:0.8;" x="42.086" xlink:href="#me614ab69d6" y="238.727119"/>
      </g>
     </g>
     <g id="text_12">
      <!-- 0 -->
      <g style="fill:#01769d;" transform="translate(28.7235 242.526337)scale(0.1 -0.1)">
       <use xlink:href="#DejaVuSans-30"/>
      </g>
     </g>
    </g>
    <g id="ytick_4">
     <g id="line2d_32">
      <path clip-path="url(#p5947393e86)" d="M 42.086 212.834052 
L 418.68 212.834052 
" style="fill:none;stroke:#08bdf9;stroke-dasharray:2.2,2.2;stroke-dashoffset:0;stroke-width:0.8;"/>
     </g>
     <g id="line2d_33">
      <g>
       <use style="fill:#01769d;stroke:#01769d;stroke-width:0.8;" x="42.086" xlink:href="#me614ab69d6" y="212.834052"/>
      </g>
     </g>
     <g id="text_13">
      <!-- 1 -->
      <g style="fill:#01769d;" transform="translate(28.7235 216.633271)scale(0.1 -0.1)">
       <use xlink:href="#DejaVuSans-31"/>
      </g>
     </g>
    </g>
    <g id="ytick_5">
     <g id="line2d_34">
      <path clip-path="url(#p5947393e86)" d="M 42.086 186.940986 
L 418.68 186.940986 
" style="fill:none;stroke:#08bdf9;stroke-dasharray:2.2,2.2;stroke-dashoffset:0;stroke-width:0.8;"/>
     </g>
     <g id="line2d_35">
      <g>
       <use style="fill:#01769d;stroke:#01769d;stroke-width:0.8;" x="42.086" xlink:href="#me614ab69d6" y="186.940986"/>
      </g>
     </g>
     <g id="text_14">
      <!-- 2 -->
      <g style="fill:#01769d;" transform="translate(28.7235 190.740205)scale(0.1 -0.1)">
       <use xlink:href="#DejaVuSans-32"/>
      </g>
     </g>
    </g>
    <g id="ytick_6">
     <g id="line2d_36">
      <path clip-path="url(#p5947393e86)" d="M 42.086 161.04792 
L 418.68 161.04792 
" style="fill:none;stroke:#08bdf9;stroke-dasharray:2.2,2.2;stroke-dashoffset:0;stroke-width:0.8;"/>
     </g>
     <g id="line2d_37">
      <g>
       <use style="fill:#01769d;stroke:#01769d;stroke-width:0.8;" x="42.086" xlink:href="#me614ab69d6" y="161.04792"/>
      </g>
     </g>
     <g id="text_15">
      <!-- 3 -->
      <defs>
       <path d="M 40.578125 39.3125 
Q 47.65625 37.796875 51.625 33 
Q 55.609375 28.21875 55.609375 21.1875 
Q 55.609375 10.40625 48.1875 4.484375 
Q 40.765625 -1.421875 27.09375 -1.421875 
Q 22.515625 -1.421875 17.65625 -0.515625 
Q 12.796875 0.390625 7.625 2.203125 
L 7.625 11.71875 
Q 11.71875 9.328125 16.59375 8.109375 
Q 21.484375 6.890625 26.8125 6.890625 
Q 36.078125 6.890625 40.9375 10.546875 
Q 45.796875 14.203125 45.796875 21.1875 
Q 45.796875 27.640625 41.28125 31.265625 
Q 36.765625 34.90625 28.71875 34.90625 
L 20.21875 34.90625 
L 20.21875 43.015625 
L 29.109375 43.015625 
Q 36.375 43.015625 40.234375 45.921875 
Q 44.09375 48.828125 44.09375 54.296875 
Q 44.09375 59.90625 40.109375 62.90625 
Q 36.140625 65.921875 28.71875 65.921875 
Q 24.65625 65.921875 20.015625 65.03125 
Q 15.375 64.15625 9.8125 62.3125 
L 9.8125 71.09375 
Q 15.4375 72.65625 20.34375 73.4375 
Q 25.25 74.21875 29.59375 74.21875 
Q 40.828125 74.21875 47.359375 69.109375 
Q 53.90625 64.015625 53.90625 55.328125 
Q 53.90625 49.265625 50.4375 45.09375 
Q 46.96875 40.921875 40.578125 39.3125 
" id="DejaVuSans-33"/>
      </defs>
      <g style="fill:#01769d;" transform="translate(28.7235 164.847139)scale(0.1 -0.1)">
       <use xlink:href="#DejaVuSans-33"/>
      </g>
     </g>
    </g>
    <g id="text_16">
     <!-- $V_{gate}\;(V)$ -->
     <g style="fill:#01769d;" transform="translate(21.6235 216.23)rotate(-90)scale(0.1 -0.1)">
      <use transform="translate(0 0.125)" xlink:href="#DejaVuSans-Oblique-56"/>
      <use transform="translate(68.408203 -16.28125)scale(0.7)" xlink:href="#DejaVuSans-Oblique-67"/>
      <use transform="translate(112.841797 -16.28125)scale(0.7)" xlink:href="#DejaVuSans-Oblique-61"/>
      <use transform="translate(155.737305 -16.28125)scale(0.7)" xlink:href="#DejaVuSans-Oblique-74"/>
      <use transform="translate(183.183594 -16.28125)scale(0.7)" xlink:href="#DejaVuSans-Oblique-65"/>
      <use transform="translate(256.043511 0.125)" xlink:href="#DejaVuSans-28"/>
      <use transform="translate(295.057183 0.125)" xlink:href="#DejaVuSans-Oblique-56"/>
      <use transform="translate(363.465386 0.125)" xlink:href="#DejaVuSans-29"/>
     </g>
    </g>
   </g>
   <g id="line2d_38">
    <path clip-path="url(#p5947393e86)" d="M 59.203909 153.28 
L 59.228199 153.37974 
L 59.497615 155.096502 
L 61.206362 163.325474 
L 62.878033 170.598163 
L 64.884039 178.406683 
L 67.224378 186.394228 
L 69.230384 192.389146 
L 71.236389 197.675242 
L 73.242394 202.284414 
L 74.914065 205.564108 
L 76.251402 207.688893 
L 76.92007 208.485648 
L 77.588739 208.975312 
L 78.257407 209.092271 
L 82.603752 209.297733 
L 88.335196 209.778671 
L 91.96511 210.242933 
L 94.639784 210.753234 
L 96.980123 211.432875 
L 98.651794 212.17541 
L 99.654797 212.819475 
L 100.657799 213.77323 
L 101.326468 214.806079 
L 101.660802 215.615566 
L 101.995136 216.878078 
L 102.543079 220.766282 
L 103.700099 233.423486 
L 103.934246 233.818904 
L 104.06151 233.512998 
L 104.467196 230.906372 
L 105.020958 226.340272 
L 105.329414 224.753843 
L 105.511404 224.429752 
L 105.634516 224.593766 
L 105.859235 225.666798 
L 106.449315 230.967383 
L 106.921606 234.873733 
L 107.233247 236.112553 
L 107.356575 236.147736 
L 107.477183 235.936615 
L 107.870425 234.115235 
L 108.397739 230.894212 
L 108.891082 229.346006 
L 109.018528 229.417365 
L 109.243735 230.134411 
L 109.594575 232.233409 
L 110.256874 236.569046 
L 110.606402 237.673185 
L 110.720785 237.729573 
L 110.828772 237.617113 
L 111.190493 236.457323 
L 111.95061 233.103158 
L 112.227887 232.526441 
L 112.383187 232.485564 
L 112.620427 232.976566 
L 112.966809 234.458455 
L 113.746483 238.034853 
L 114.041144 238.488129 
L 114.17416 238.439577 
L 114.307847 238.232539 
L 114.700985 237.034349 
L 115.432886 234.66685 
L 115.766643 234.415928 
L 115.992953 234.759845 
L 116.341844 235.856069 
L 117.08755 238.431167 
L 117.396965 238.80915 
L 117.640895 238.654161 
L 117.937897 238.030951 
L 118.832581 235.793965 
L 119.142413 235.645064 
L 119.359548 235.892734 
L 119.713226 236.722578 
L 120.538466 238.746136 
L 120.794981 238.88 
L 121.082511 238.661575 
L 121.593495 237.630074 
L 122.054825 236.741743 
L 122.482477 236.440932 
L 122.717994 236.625074 
L 123.063628 237.227117 
L 123.866756 238.734207 
L 124.122021 238.863724 
L 124.382597 238.749926 
L 124.828348 238.114736 
L 125.501171 237.121685 
L 125.838082 236.983629 
L 126.074354 237.124413 
L 126.419285 237.577922 
L 127.232175 238.720314 
L 127.586269 238.802291 
L 127.731954 238.637874 
L 127.840098 235.916696 
L 128.368 223.901531 
L 128.739521 218.238531 
L 129.123694 216.007152 
L 130.032162 214.624871 
L 130.647252 213.552396 
L 131.315921 212.691666 
L 132.318923 211.848536 
L 133.321926 211.342068 
L 135.9966 210.380607 
L 138.336939 209.737811 
L 141.011613 209.092012 
L 141.281397 208.786629 
L 141.860896 207.539775 
L 143.503429 202.871617 
L 145.843768 196.382168 
L 147.849774 191.441719 
L 149.855779 187.062399 
L 151.861784 183.186388 
L 153.867789 179.756333 
L 155.873795 176.72063 
L 157.8798 174.033577 
L 160.220139 171.285883 
L 162.560479 168.902245 
L 164.900818 166.834269 
L 167.241158 165.040087 
L 169.915832 163.278556 
L 172.590505 161.780901 
L 175.265179 160.507557 
L 177.939853 159.424942 
L 180.948861 158.399603 
L 184.578775 157.388764 
L 188.638547 156.490844 
L 193.41475 155.681815 
L 196.165726 155.364211 
L 196.538164 157.575271 
L 198.106392 164.935065 
L 200.112397 173.391662 
L 202.118402 180.880533 
L 204.458742 188.540116 
L 206.464747 194.284545 
L 208.470752 199.337292 
L 210.142423 203.028555 
L 211.814094 206.181658 
L 212.817097 207.717712 
L 213.485766 208.506803 
L 214.154434 208.984038 
L 214.823102 209.092841 
L 219.169447 209.299105 
L 224.900891 209.780949 
L 228.530805 210.246299 
L 231.205479 210.758205 
L 233.545818 211.440617 
L 235.217489 212.187114 
L 236.220492 212.835717 
L 237.223495 213.799234 
L 237.892163 214.849336 
L 238.226497 215.679131 
L 238.560831 216.982536 
L 239.113379 221.048053 
L 240.256984 233.479767 
L 240.358484 233.781263 
L 240.48873 233.802467 
L 240.619579 233.45841 
L 241.031897 230.733831 
L 241.588741 226.191024 
L 241.900828 224.686808 
L 242.075252 224.437994 
L 242.192771 224.635369 
L 242.407912 225.691127 
L 243.021958 231.232606 
L 243.494548 235.039998 
L 243.789007 236.126209 
L 243.915888 236.13232 
L 244.042344 235.881134 
L 244.445189 233.935166 
L 244.977421 230.724983 
L 245.279354 229.590294 
L 245.460857 229.341384 
L 245.580075 229.447165 
L 245.79385 230.153148 
L 246.15237 232.315742 
L 246.835283 236.719871 
L 247.172174 237.693413 
L 247.292741 237.715181 
L 247.407171 237.559563 
L 247.787355 236.233564 
L 248.564987 232.894635 
L 248.79008 232.492599 
L 248.929904 232.483826 
L 249.16482 232.975264 
L 249.51136 234.456075 
L 250.292144 238.035873 
L 250.586594 238.487764 
L 250.71971 238.438705 
L 250.853517 238.231094 
L 251.246876 237.031593 
L 251.979076 234.665677 
L 252.312194 234.416982 
L 252.538225 234.760777 
L 252.887237 235.85732 
L 253.633317 238.432187 
L 253.9425 238.808857 
L 254.186743 238.653033 
L 254.483417 238.029832 
L 255.378142 235.794177 
L 255.687977 235.645833 
L 255.904838 235.893371 
L 256.258701 236.723616 
L 257.084108 238.74643 
L 257.34062 238.87968 
L 257.628162 238.66077 
L 258.138587 237.630412 
L 258.599984 236.742133 
L 259.028011 236.441454 
L 259.26332 236.625554 
L 259.609007 237.227646 
L 260.412296 238.734337 
L 260.667552 238.863467 
L 260.928508 238.74906 
L 261.375567 238.111242 
L 262.049389 237.119309 
L 262.384523 236.984173 
L 262.619908 237.124935 
L 262.964984 237.578779 
L 263.778609 238.72099 
L 264.013573 238.808139 
L 264.270454 238.724715 
L 264.669756 238.26317 
L 264.750388 236.305477 
L 265.325173 223.186859 
L 265.70181 217.91756 
L 265.893207 216.626317 
L 266.301355 215.822902 
L 266.829673 214.976271 
L 267.709965 213.390401 
L 268.378634 212.569632 
L 269.381637 211.772644 
L 270.718973 211.158693 
L 273.393647 210.242364 
L 275.733987 209.633074 
L 277.739992 209.196827 
L 278.074326 208.982407 
L 278.342478 208.600769 
L 278.96218 207.143533 
L 284.622756 191.855878 
L 286.628762 187.429096 
L 288.634767 183.51088 
L 290.640772 180.043513 
L 292.646777 176.974797 
L 294.652783 174.258588 
L 296.993122 171.481065 
L 299.333462 169.07156 
L 301.673801 166.981161 
L 303.679806 165.411135 
L 306.35448 163.594011 
L 309.029154 162.049101 
L 311.703828 160.735598 
L 315.04717 159.366813 
L 318.056178 158.351157 
L 321.686092 157.349898 
L 325.745864 156.460471 
L 330.522067 155.659081 
L 333.109026 155.365143 
L 333.481526 157.576514 
L 335.049792 164.936333 
L 337.055797 173.392776 
L 339.061802 180.881543 
L 341.402142 188.54097 
L 343.408147 194.285321 
L 345.414152 199.337991 
L 347.085823 203.029125 
L 348.757495 206.18215 
L 349.760497 207.7181 
L 350.429166 208.507088 
L 351.097834 208.984142 
L 351.766502 209.092841 
L 356.112847 209.299131 
L 361.844291 209.780975 
L 365.474205 210.246325 
L 368.148879 210.758283 
L 370.489218 211.440721 
L 372.160889 212.187269 
L 373.163892 212.835935 
L 374.166895 213.799587 
L 374.835563 214.849923 
L 375.169897 215.680001 
L 375.504231 216.983965 
L 376.05686 221.052118 
L 377.200285 233.480588 
L 377.301707 233.781447 
L 377.431992 233.802219 
L 377.562891 233.457608 
L 377.975304 230.731335 
L 378.532195 226.188909 
L 378.844337 224.686054 
L 379.018754 224.43831 
L 379.136189 224.636311 
L 379.351116 225.691607 
L 379.965769 231.239082 
L 380.438353 235.043908 
L 380.732396 236.126548 
L 380.859363 236.131947 
L 380.985948 235.879806 
L 381.389016 233.930938 
L 381.92137 230.721112 
L 382.223418 229.588314 
L 382.404588 229.341361 
L 382.523607 229.447901 
L 382.737104 230.153562 
L 383.09587 232.318095 
L 383.779461 236.724436 
L 384.115947 237.694011 
L 384.236699 237.714592 
L 384.351531 237.557237 
L 384.732298 236.225567 
L 385.510052 232.889478 
L 385.734161 232.491685 
L 385.873595 232.48429 
L 386.108115 232.975647 
L 386.454745 234.457199 
L 387.235888 238.037486 
L 387.530077 238.487894 
L 387.663303 238.438267 
L 387.797239 238.229961 
L 388.190764 237.028916 
L 388.923227 234.663898 
L 389.255746 234.417238 
L 389.481496 234.760982 
L 389.830631 235.858144 
L 390.577028 238.433403 
L 390.88581 238.809018 
L 391.129963 238.653027 
L 391.426521 238.030043 
L 392.32117 235.794382 
L 392.631116 235.645818 
L 392.848004 235.893358 
L 393.201846 236.723537 
L 394.027243 238.746393 
L 394.283755 238.879698 
L 394.571295 238.660838 
L 395.081766 237.630407 
L 395.543158 236.742136 
L 395.971153 236.441442 
L 396.206484 236.625543 
L 396.552165 237.227617 
L 397.355444 238.734318 
L 397.610699 238.86348 
L 397.871621 238.749126 
L 398.31858 238.111527 
L 398.992323 237.119518 
L 399.327599 236.984152 
L 399.563055 237.124914 
L 399.908119 237.578722 
L 400.721692 238.720935 
L 400.956571 238.80815 
L 401.213257 238.724979 
L 401.562091 238.378301 
L 401.562091 238.378301 
" style="fill:none;stroke:#fe3ea0;stroke-linecap:square;stroke-width:1.5;"/>
   </g>
   <g id="patch_6">
    <path d="M 42.086 243.16 
L 42.086 149 
" style="fill:none;stroke:#08bdf9;stroke-linecap:square;stroke-linejoin:miter;stroke-width:0.8;"/>
   </g>
   <g id="patch_7">
    <path d="M 42.086 243.16 
L 418.68 243.16 
" style="fill:none;stroke:#08bdf9;stroke-linecap:square;stroke-linejoin:miter;stroke-width:0.8;"/>
   </g>
   <g id="text_17">
    <!-- With dampening -->
    <defs>
     <path d="M 91.703125 72.90625 
Q 98.40625 70.5 98.40625 66.5 
Q 98.40625 65.203125 97.203125 61.59375 
L 78 6.09375 
Q 77.796875 5.40625 77.296875 4.40625 
Q 76.796875 3.40625 74.640625 1.75 
Q 72.5 0.09375 69.546875 0.09375 
Q 66.59375 0.09375 64.4375 1.75 
Q 62.296875 3.40625 61.59375 5 
L 49.90625 39.5 
Q 38.796875 6.703125 38.59375 6.09375 
Q 38.40625 5.5 37.703125 4.390625 
Q 37 3.296875 36.09375 2.40625 
Q 33.796875 0.09375 30.59375 0.09375 
Q 27.40625 0.09375 25.34375 1.59375 
Q 23.296875 3.09375 22.59375 4.59375 
L 21.90625 6.09375 
L 2.59375 61.59375 
Q 1.5 64.90625 1.5 66.5 
Q 1.5 70.5 8.203125 72.796875 
Q 11.09375 73.796875 13.4375 73.796875 
Q 15.796875 73.796875 17.046875 72.1875 
Q 18.296875 70.59375 19.296875 67.296875 
L 30.296875 33.90625 
L 41.203125 66.796875 
Q 42.59375 71 46.296875 72.59375 
Q 47.90625 73.296875 50.453125 73.296875 
Q 53 73.296875 55.203125 71.640625 
Q 57.40625 70 58 68.40625 
L 69.5 33.703125 
L 80.5 67.296875 
Q 81.296875 69.59375 81.796875 70.6875 
Q 82.296875 71.796875 83.640625 72.84375 
Q 85 73.90625 87 73.90625 
Q 89 73.90625 91.703125 72.90625 
" id="FredokaOne-Regular-57"/>
     <path d="M 34.59375 35 
L 28.09375 35.40625 
L 28.09375 21.59375 
Q 28.09375 18.90625 28.9375 17.703125 
Q 29.796875 16.5 32.140625 16.5 
Q 34.5 16.5 35.75 16.34375 
Q 37 16.203125 38.40625 15.40625 
Q 40.703125 14.09375 40.703125 8.703125 
Q 40.703125 2.40625 37.90625 1 
Q 36.40625 0.296875 35.25 0.140625 
Q 34.09375 0 31.90625 0 
Q 21.5 0 16.09375 4.703125 
Q 10.703125 9.40625 10.703125 20.59375 
L 10.703125 35.40625 
Q 8.796875 35.09375 6.59375 35.09375 
Q 4.40625 35.09375 2.953125 36.796875 
Q 1.5 38.5 1.5 42.59375 
Q 1.5 46.703125 2 48.546875 
Q 2.5 50.40625 3.40625 51.203125 
Q 5 52.5 7.40625 52.5 
L 10.703125 52.09375 
L 10.703125 62.40625 
Q 10.703125 64.703125 10.84375 65.796875 
Q 11 66.90625 11.796875 68.203125 
Q 13.09375 70.703125 19.5 70.703125 
Q 26.296875 70.703125 27.59375 67 
Q 28.09375 65.40625 28.09375 61.90625 
L 28.09375 52.09375 
Q 32.5 52.5 34.75 52.5 
Q 37 52.5 38.140625 52.34375 
Q 39.296875 52.203125 40.796875 51.40625 
Q 43.40625 50.09375 43.40625 43.703125 
Q 43.40625 37.40625 40.703125 36 
Q 39.203125 35.296875 38.046875 35.140625 
Q 36.90625 35 34.59375 35 
" id="FredokaOne-Regular-74"/>
     <path d="M 33.203125 52.5 
Q 43.203125 52.5 49.84375 44.890625 
Q 56.5 37.296875 56.5 26.296875 
L 56.5 8.703125 
Q 56.5 6.40625 56.34375 5.25 
Q 56.203125 4.09375 55.40625 2.59375 
Q 54.09375 0 47.703125 0 
Q 41.59375 0 40.09375 2.59375 
Q 39.296875 4.09375 39.140625 5.296875 
Q 39 6.5 39 8.90625 
L 39 26.40625 
Q 39 30.5 36.703125 32.796875 
Q 34.40625 35.09375 30.84375 35.09375 
Q 27.296875 35.09375 24.59375 32.9375 
Q 21.90625 30.796875 21.5 28.09375 
L 21.5 8.703125 
Q 21.5 6.40625 21.34375 5.25 
Q 21.203125 4.09375 20.40625 2.59375 
Q 19.09375 0 12.703125 0 
Q 6.40625 0 5 2.703125 
Q 4.296875 4.203125 4.140625 5.296875 
Q 4 6.40625 4 8.796875 
L 4 68.59375 
Q 4 70.90625 4.140625 72.046875 
Q 4.296875 73.203125 5 74.59375 
Q 6.40625 77.296875 12.796875 77.296875 
Q 19.09375 77.296875 20.40625 74.59375 
Q 21.203125 73.09375 21.34375 71.9375 
Q 21.5 70.796875 21.5 68.5 
L 21.5 46.40625 
Q 26.5 52.5 33.203125 52.5 
" id="FredokaOne-Regular-68"/>
    </defs>
    <g style="fill:#fe3ea0;" transform="translate(183.506125 143)scale(0.12 -0.12)">
     <use xlink:href="#FredokaOne-Regular-57"/>
     <use x="99.899994" xlink:href="#FredokaOne-Regular-69"/>
     <use x="125.399979" xlink:href="#FredokaOne-Regular-74"/>
     <use x="170.299973" xlink:href="#FredokaOne-Regular-68"/>
     <use x="230.799957" xlink:href="#FredokaOne-Regular-20"/>
     <use x="256.099945" xlink:href="#FredokaOne-Regular-64"/>
     <use x="315.899933" xlink:href="#FredokaOne-Regular-61"/>
     <use x="375.499924" xlink:href="#FredokaOne-Regular-6d"/>
     <use x="460.599915" xlink:href="#FredokaOne-Regular-70"/>
     <use x="518.799911" xlink:href="#FredokaOne-Regular-65"/>
     <use x="576.099899" xlink:href="#FredokaOne-Regular-6e"/>
     <use x="636.69989" xlink:href="#FredokaOne-Regular-69"/>
     <use x="662.199875" xlink:href="#FredokaOne-Regular-6e"/>
     <use x="722.799866" xlink:href="#FredokaOne-Regular-67"/>
    </g>
   </g>
  </g>
 </g>
 <defs>
  <clipPath id="pffe7941796">
   <rect height="94.16" width="376.594" x="42.086" y="26.16"/>
  </clipPath>
  <clipPath id="p5947393e86">
   <rect height="94.16" width="376.594" x="42.086" y="149"/>
  </clipPath>
 </defs>
</svg>
