<?xml version="1.0" encoding="utf-8" standalone="no"?>
<!DOCTYPE svg PUBLIC "-//W3C//DTD SVG 1.1//EN"
  "http://www.w3.org/Graphics/SVG/1.1/DTD/svg11.dtd">
<!-- Created with matplotlib (http://matplotlib.org/) -->
<svg height="345pt" version="1.1" viewBox="0 0 460 345" width="460pt" xmlns="http://www.w3.org/2000/svg" xmlns:xlink="http://www.w3.org/1999/xlink">
 <defs>
  <style type="text/css">
*{stroke-linecap:butt;stroke-linejoin:round;}
  </style>
 </defs>
 <g id="figure_1">
  <g id="patch_1">
   <path d="M 0 345.6 
L 460.8 345.6 
L 460.8 0 
L 0 0 
z
" style="fill:#ffffff;"/>
  </g>
  <g id="axes_1">
   <g id="patch_2">
    <path d="M 59.906 148.04 
L 447.48 148.04 
L 447.48 14.76 
L 59.906 14.76 
z
" style="fill:#ffffff;"/>
   </g>
   <g id="matplotlib.axis_1">
    <g id="xtick_1">
     <g id="line2d_1">
      <path clip-path="url(#p8741a3ea9b)" d="M 77.299193 148.04 
L 77.299193 14.76 
" style="fill:none;stroke:#08bdf9;stroke-dasharray:2.2,2.2;stroke-dashoffset:0;stroke-width:0.8;"/>
     </g>
     <g id="line2d_2">
      <defs>
       <path d="M 0 0 
L 0 3.5 
" id="m1b7bff1125" style="stroke:#01769d;stroke-width:0.8;"/>
      </defs>
      <g>
       <use style="fill:#01769d;stroke:#01769d;stroke-width:0.8;" x="77.299193" xlink:href="#m1b7bff1125" y="148.04"/>
      </g>
     </g>
    </g>
    <g id="xtick_2">
     <g id="line2d_3">
      <path clip-path="url(#p8741a3ea9b)" d="M 121.379888 148.04 
L 121.379888 14.76 
" style="fill:none;stroke:#08bdf9;stroke-dasharray:2.2,2.2;stroke-dashoffset:0;stroke-width:0.8;"/>
     </g>
     <g id="line2d_4">
      <g>
       <use style="fill:#01769d;stroke:#01769d;stroke-width:0.8;" x="121.379888" xlink:href="#m1b7bff1125" y="148.04"/>
      </g>
     </g>
    </g>
    <g id="xtick_3">
     <g id="line2d_5">
      <path clip-path="url(#p8741a3ea9b)" d="M 165.460583 148.04 
L 165.460583 14.76 
" style="fill:none;stroke:#08bdf9;stroke-dasharray:2.2,2.2;stroke-dashoffset:0;stroke-width:0.8;"/>
     </g>
     <g id="line2d_6">
      <g>
       <use style="fill:#01769d;stroke:#01769d;stroke-width:0.8;" x="165.460583" xlink:href="#m1b7bff1125" y="148.04"/>
      </g>
     </g>
    </g>
    <g id="xtick_4">
     <g id="line2d_7">
      <path clip-path="url(#p8741a3ea9b)" d="M 209.541278 148.04 
L 209.541278 14.76 
" style="fill:none;stroke:#08bdf9;stroke-dasharray:2.2,2.2;stroke-dashoffset:0;stroke-width:0.8;"/>
     </g>
     <g id="line2d_8">
      <g>
       <use style="fill:#01769d;stroke:#01769d;stroke-width:0.8;" x="209.541278" xlink:href="#m1b7bff1125" y="148.04"/>
      </g>
     </g>
    </g>
    <g id="xtick_5">
     <g id="line2d_9">
      <path clip-path="url(#p8741a3ea9b)" d="M 253.621973 148.04 
L 253.621973 14.76 
" style="fill:none;stroke:#08bdf9;stroke-dasharray:2.2,2.2;stroke-dashoffset:0;stroke-width:0.8;"/>
     </g>
     <g id="line2d_10">
      <g>
       <use style="fill:#01769d;stroke:#01769d;stroke-width:0.8;" x="253.621973" xlink:href="#m1b7bff1125" y="148.04"/>
      </g>
     </g>
    </g>
    <g id="xtick_6">
     <g id="line2d_11">
      <path clip-path="url(#p8741a3ea9b)" d="M 297.702668 148.04 
L 297.702668 14.76 
" style="fill:none;stroke:#08bdf9;stroke-dasharray:2.2,2.2;stroke-dashoffset:0;stroke-width:0.8;"/>
     </g>
     <g id="line2d_12">
      <g>
       <use style="fill:#01769d;stroke:#01769d;stroke-width:0.8;" x="297.702668" xlink:href="#m1b7bff1125" y="148.04"/>
      </g>
     </g>
    </g>
    <g id="xtick_7">
     <g id="line2d_13">
      <path clip-path="url(#p8741a3ea9b)" d="M 341.783362 148.04 
L 341.783362 14.76 
" style="fill:none;stroke:#08bdf9;stroke-dasharray:2.2,2.2;stroke-dashoffset:0;stroke-width:0.8;"/>
     </g>
     <g id="line2d_14">
      <g>
       <use style="fill:#01769d;stroke:#01769d;stroke-width:0.8;" x="341.783362" xlink:href="#m1b7bff1125" y="148.04"/>
      </g>
     </g>
    </g>
    <g id="xtick_8">
     <g id="line2d_15">
      <path clip-path="url(#p8741a3ea9b)" d="M 385.864057 148.04 
L 385.864057 14.76 
" style="fill:none;stroke:#08bdf9;stroke-dasharray:2.2,2.2;stroke-dashoffset:0;stroke-width:0.8;"/>
     </g>
     <g id="line2d_16">
      <g>
       <use style="fill:#01769d;stroke:#01769d;stroke-width:0.8;" x="385.864057" xlink:href="#m1b7bff1125" y="148.04"/>
      </g>
     </g>
    </g>
    <g id="xtick_9">
     <g id="line2d_17">
      <path clip-path="url(#p8741a3ea9b)" d="M 429.944752 148.04 
L 429.944752 14.76 
" style="fill:none;stroke:#08bdf9;stroke-dasharray:2.2,2.2;stroke-dashoffset:0;stroke-width:0.8;"/>
     </g>
     <g id="line2d_18">
      <g>
       <use style="fill:#01769d;stroke:#01769d;stroke-width:0.8;" x="429.944752" xlink:href="#m1b7bff1125" y="148.04"/>
      </g>
     </g>
    </g>
   </g>
   <g id="matplotlib.axis_2">
    <g id="ytick_1">
     <g id="line2d_19">
      <path clip-path="url(#p8741a3ea9b)" d="M 59.906 148.04 
L 447.48 148.04 
" style="fill:none;stroke:#08bdf9;stroke-dasharray:2.2,2.2;stroke-dashoffset:0;stroke-width:0.8;"/>
     </g>
     <g id="line2d_20">
      <defs>
       <path d="M 0 0 
L -3.5 0 
" id="m21d20507da" style="stroke:#01769d;stroke-width:0.8;"/>
      </defs>
      <g>
       <use style="fill:#01769d;stroke:#01769d;stroke-width:0.8;" x="59.906" xlink:href="#m21d20507da" y="148.04"/>
      </g>
     </g>
     <g id="text_1">
      <!-- −0.1 -->
      <defs>
       <path d="M 10.59375 35.5 
L 73.1875 35.5 
L 73.1875 27.203125 
L 10.59375 27.203125 
z
" id="DejaVuSans-2212"/>
       <path d="M 31.78125 66.40625 
Q 24.171875 66.40625 20.328125 58.90625 
Q 16.5 51.421875 16.5 36.375 
Q 16.5 21.390625 20.328125 13.890625 
Q 24.171875 6.390625 31.78125 6.390625 
Q 39.453125 6.390625 43.28125 13.890625 
Q 47.125 21.390625 47.125 36.375 
Q 47.125 51.421875 43.28125 58.90625 
Q 39.453125 66.40625 31.78125 66.40625 
M 31.78125 74.21875 
Q 44.046875 74.21875 50.515625 64.515625 
Q 56.984375 54.828125 56.984375 36.375 
Q 56.984375 17.96875 50.515625 8.265625 
Q 44.046875 -1.421875 31.78125 -1.421875 
Q 19.53125 -1.421875 13.0625 8.265625 
Q 6.59375 17.96875 6.59375 36.375 
Q 6.59375 54.828125 13.0625 64.515625 
Q 19.53125 74.21875 31.78125 74.21875 
" id="DejaVuSans-30"/>
       <path d="M 10.6875 12.40625 
L 21 12.40625 
L 21 0 
L 10.6875 0 
z
" id="DejaVuSans-2e"/>
       <path d="M 12.40625 8.296875 
L 28.515625 8.296875 
L 28.515625 63.921875 
L 10.984375 60.40625 
L 10.984375 69.390625 
L 28.421875 72.90625 
L 38.28125 72.90625 
L 38.28125 8.296875 
L 54.390625 8.296875 
L 54.390625 0 
L 12.40625 0 
z
" id="DejaVuSans-31"/>
      </defs>
      <g style="fill:#01769d;" transform="translate(28.623188 151.839219)scale(0.1 -0.1)">
       <use xlink:href="#DejaVuSans-2212"/>
       <use x="83.789062" xlink:href="#DejaVuSans-30"/>
       <use x="147.412109" xlink:href="#DejaVuSans-2e"/>
       <use x="179.199219" xlink:href="#DejaVuSans-31"/>
      </g>
     </g>
    </g>
    <g id="ytick_2">
     <g id="line2d_21">
      <path clip-path="url(#p8741a3ea9b)" d="M 59.906 121.384 
L 447.48 121.384 
" style="fill:none;stroke:#08bdf9;stroke-dasharray:2.2,2.2;stroke-dashoffset:0;stroke-width:0.8;"/>
     </g>
     <g id="line2d_22">
      <g>
       <use style="fill:#01769d;stroke:#01769d;stroke-width:0.8;" x="59.906" xlink:href="#m21d20507da" y="121.384"/>
      </g>
     </g>
     <g id="text_2">
      <!-- 0.0 -->
      <g style="fill:#01769d;" transform="translate(37.002875 125.183219)scale(0.1 -0.1)">
       <use xlink:href="#DejaVuSans-30"/>
       <use x="63.623047" xlink:href="#DejaVuSans-2e"/>
       <use x="95.410156" xlink:href="#DejaVuSans-30"/>
      </g>
     </g>
    </g>
    <g id="ytick_3">
     <g id="line2d_23">
      <path clip-path="url(#p8741a3ea9b)" d="M 59.906 94.728 
L 447.48 94.728 
" style="fill:none;stroke:#08bdf9;stroke-dasharray:2.2,2.2;stroke-dashoffset:0;stroke-width:0.8;"/>
     </g>
     <g id="line2d_24">
      <g>
       <use style="fill:#01769d;stroke:#01769d;stroke-width:0.8;" x="59.906" xlink:href="#m21d20507da" y="94.728"/>
      </g>
     </g>
     <g id="text_3">
      <!-- 0.1 -->
      <g style="fill:#01769d;" transform="translate(37.002875 98.527219)scale(0.1 -0.1)">
       <use xlink:href="#DejaVuSans-30"/>
       <use x="63.623047" xlink:href="#DejaVuSans-2e"/>
       <use x="95.410156" xlink:href="#DejaVuSans-31"/>
      </g>
     </g>
    </g>
    <g id="ytick_4">
     <g id="line2d_25">
      <path clip-path="url(#p8741a3ea9b)" d="M 59.906 68.072 
L 447.48 68.072 
" style="fill:none;stroke:#08bdf9;stroke-dasharray:2.2,2.2;stroke-dashoffset:0;stroke-width:0.8;"/>
     </g>
     <g id="line2d_26">
      <g>
       <use style="fill:#01769d;stroke:#01769d;stroke-width:0.8;" x="59.906" xlink:href="#m21d20507da" y="68.072"/>
      </g>
     </g>
     <g id="text_4">
      <!-- 0.2 -->
      <defs>
       <path d="M 19.1875 8.296875 
L 53.609375 8.296875 
L 53.609375 0 
L 7.328125 0 
L 7.328125 8.296875 
Q 12.9375 14.109375 22.625 23.890625 
Q 32.328125 33.6875 34.8125 36.53125 
Q 39.546875 41.84375 41.421875 45.53125 
Q 43.3125 49.21875 43.3125 52.78125 
Q 43.3125 58.59375 39.234375 62.25 
Q 35.15625 65.921875 28.609375 65.921875 
Q 23.96875 65.921875 18.8125 64.3125 
Q 13.671875 62.703125 7.8125 59.421875 
L 7.8125 69.390625 
Q 13.765625 71.78125 18.9375 73 
Q 24.125 74.21875 28.421875 74.21875 
Q 39.75 74.21875 46.484375 68.546875 
Q 53.21875 62.890625 53.21875 53.421875 
Q 53.21875 48.921875 51.53125 44.890625 
Q 49.859375 40.875 45.40625 35.40625 
Q 44.1875 33.984375 37.640625 27.21875 
Q 31.109375 20.453125 19.1875 8.296875 
" id="DejaVuSans-32"/>
      </defs>
      <g style="fill:#01769d;" transform="translate(37.002875 71.871219)scale(0.1 -0.1)">
       <use xlink:href="#DejaVuSans-30"/>
       <use x="63.623047" xlink:href="#DejaVuSans-2e"/>
       <use x="95.410156" xlink:href="#DejaVuSans-32"/>
      </g>
     </g>
    </g>
    <g id="ytick_5">
     <g id="line2d_27">
      <path clip-path="url(#p8741a3ea9b)" d="M 59.906 41.416 
L 447.48 41.416 
" style="fill:none;stroke:#08bdf9;stroke-dasharray:2.2,2.2;stroke-dashoffset:0;stroke-width:0.8;"/>
     </g>
     <g id="line2d_28">
      <g>
       <use style="fill:#01769d;stroke:#01769d;stroke-width:0.8;" x="59.906" xlink:href="#m21d20507da" y="41.416"/>
      </g>
     </g>
     <g id="text_5">
      <!-- 0.3 -->
      <defs>
       <path d="M 40.578125 39.3125 
Q 47.65625 37.796875 51.625 33 
Q 55.609375 28.21875 55.609375 21.1875 
Q 55.609375 10.40625 48.1875 4.484375 
Q 40.765625 -1.421875 27.09375 -1.421875 
Q 22.515625 -1.421875 17.65625 -0.515625 
Q 12.796875 0.390625 7.625 2.203125 
L 7.625 11.71875 
Q 11.71875 9.328125 16.59375 8.109375 
Q 21.484375 6.890625 26.8125 6.890625 
Q 36.078125 6.890625 40.9375 10.546875 
Q 45.796875 14.203125 45.796875 21.1875 
Q 45.796875 27.640625 41.28125 31.265625 
Q 36.765625 34.90625 28.71875 34.90625 
L 20.21875 34.90625 
L 20.21875 43.015625 
L 29.109375 43.015625 
Q 36.375 43.015625 40.234375 45.921875 
Q 44.09375 48.828125 44.09375 54.296875 
Q 44.09375 59.90625 40.109375 62.90625 
Q 36.140625 65.921875 28.71875 65.921875 
Q 24.65625 65.921875 20.015625 65.03125 
Q 15.375 64.15625 9.8125 62.3125 
L 9.8125 71.09375 
Q 15.4375 72.65625 20.34375 73.4375 
Q 25.25 74.21875 29.59375 74.21875 
Q 40.828125 74.21875 47.359375 69.109375 
Q 53.90625 64.015625 53.90625 55.328125 
Q 53.90625 49.265625 50.4375 45.09375 
Q 46.96875 40.921875 40.578125 39.3125 
" id="DejaVuSans-33"/>
      </defs>
      <g style="fill:#01769d;" transform="translate(37.002875 45.215219)scale(0.1 -0.1)">
       <use xlink:href="#DejaVuSans-30"/>
       <use x="63.623047" xlink:href="#DejaVuSans-2e"/>
       <use x="95.410156" xlink:href="#DejaVuSans-33"/>
      </g>
     </g>
    </g>
    <g id="ytick_6">
     <g id="line2d_29">
      <path clip-path="url(#p8741a3ea9b)" d="M 59.906 14.76 
L 447.48 14.76 
" style="fill:none;stroke:#08bdf9;stroke-dasharray:2.2,2.2;stroke-dashoffset:0;stroke-width:0.8;"/>
     </g>
     <g id="line2d_30">
      <g>
       <use style="fill:#01769d;stroke:#01769d;stroke-width:0.8;" x="59.906" xlink:href="#m21d20507da" y="14.76"/>
      </g>
     </g>
     <g id="text_6">
      <!-- 0.4 -->
      <defs>
       <path d="M 37.796875 64.3125 
L 12.890625 25.390625 
L 37.796875 25.390625 
z
M 35.203125 72.90625 
L 47.609375 72.90625 
L 47.609375 25.390625 
L 58.015625 25.390625 
L 58.015625 17.1875 
L 47.609375 17.1875 
L 47.609375 0 
L 37.796875 0 
L 37.796875 17.1875 
L 4.890625 17.1875 
L 4.890625 26.703125 
z
" id="DejaVuSans-34"/>
      </defs>
      <g style="fill:#01769d;" transform="translate(37.002875 18.559219)scale(0.1 -0.1)">
       <use xlink:href="#DejaVuSans-30"/>
       <use x="63.623047" xlink:href="#DejaVuSans-2e"/>
       <use x="95.410156" xlink:href="#DejaVuSans-34"/>
      </g>
     </g>
    </g>
    <g id="text_7">
     <!-- $V_{gate}\;(A)$ -->
     <defs>
      <path d="M 20.609375 0 
L 7.8125 72.90625 
L 17.484375 72.90625 
L 28.078125 10.203125 
L 63.484375 72.90625 
L 74.21875 72.90625 
L 32.078125 0 
z
" id="DejaVuSans-Oblique-56"/>
      <path d="M 59.625 54.6875 
L 50.296875 6.78125 
Q 47.609375 -7.125 40.015625 -13.953125 
Q 32.421875 -20.796875 19.578125 -20.796875 
Q 14.84375 -20.796875 10.78125 -20.09375 
Q 6.734375 -19.390625 3.21875 -17.921875 
L 4.890625 -9.1875 
Q 8.203125 -11.328125 11.90625 -12.34375 
Q 15.625 -13.375 19.828125 -13.375 
Q 28.375 -13.375 33.859375 -8.703125 
Q 39.359375 -4.046875 41.109375 4.6875 
L 41.890625 8.796875 
Q 38.140625 4.5 33.15625 2.25 
Q 28.171875 0 22.40625 0 
Q 14.109375 0 9.34375 5.484375 
Q 4.59375 10.984375 4.59375 20.609375 
Q 4.59375 28.171875 7.46875 35.421875 
Q 10.359375 42.671875 15.578125 48.296875 
Q 19.046875 52 23.65625 54 
Q 28.265625 56 33.296875 56 
Q 38.8125 56 42.90625 53.4375 
Q 47.015625 50.875 49.03125 46.1875 
L 50.59375 54.6875 
z
M 46.09375 34.625 
Q 46.09375 41.265625 42.96875 44.875 
Q 39.84375 48.484375 34.078125 48.484375 
Q 30.515625 48.484375 27.296875 47.0625 
Q 24.078125 45.65625 21.78125 43.109375 
Q 18.0625 38.921875 15.984375 33.234375 
Q 13.921875 27.546875 13.921875 21.484375 
Q 13.921875 14.75 17.0625 11.125 
Q 20.21875 7.515625 26.125 7.515625 
Q 34.671875 7.515625 40.375 15.25 
Q 46.09375 23 46.09375 34.625 
" id="DejaVuSans-Oblique-67"/>
      <path d="M 53.71875 31.203125 
L 47.609375 0 
L 38.625 0 
L 40.28125 8.296875 
Q 36.328125 3.421875 31.265625 1 
Q 26.21875 -1.421875 20.015625 -1.421875 
Q 13.03125 -1.421875 8.5625 2.84375 
Q 4.109375 7.125 4.109375 13.8125 
Q 4.109375 23.390625 11.75 28.953125 
Q 19.390625 34.515625 32.8125 34.515625 
L 45.3125 34.515625 
L 45.796875 36.921875 
Q 45.90625 37.3125 45.953125 37.765625 
Q 46 38.234375 46 39.203125 
Q 46 43.5625 42.453125 45.96875 
Q 38.921875 48.390625 32.515625 48.390625 
Q 28.125 48.390625 23.5 47.265625 
Q 18.890625 46.140625 14.015625 43.890625 
L 15.578125 52.203125 
Q 20.65625 54.109375 25.515625 55.046875 
Q 30.375 56 34.90625 56 
Q 44.578125 56 49.625 51.796875 
Q 54.6875 47.609375 54.6875 39.59375 
Q 54.6875 37.984375 54.4375 35.8125 
Q 54.203125 33.640625 53.71875 31.203125 
M 44 27.484375 
L 35.015625 27.484375 
Q 23.96875 27.484375 18.671875 24.53125 
Q 13.375 21.578125 13.375 15.375 
Q 13.375 11.078125 16.078125 8.640625 
Q 18.796875 6.203125 23.578125 6.203125 
Q 30.90625 6.203125 36.375 11.453125 
Q 41.84375 16.703125 43.609375 25.484375 
z
" id="DejaVuSans-Oblique-61"/>
      <path d="M 42.28125 54.6875 
L 40.921875 47.703125 
L 23 47.703125 
L 17.1875 18.015625 
Q 16.890625 16.359375 16.75 15.234375 
Q 16.609375 14.109375 16.609375 13.484375 
Q 16.609375 10.359375 18.484375 8.9375 
Q 20.359375 7.515625 24.515625 7.515625 
L 33.59375 7.515625 
L 32.078125 0 
L 23.484375 0 
Q 15.484375 0 11.546875 3.125 
Q 7.625 6.25 7.625 12.59375 
Q 7.625 13.71875 7.765625 15.0625 
Q 7.90625 16.40625 8.203125 18.015625 
L 14.015625 47.703125 
L 6.390625 47.703125 
L 7.8125 54.6875 
L 15.28125 54.6875 
L 18.3125 70.21875 
L 27.296875 70.21875 
L 24.3125 54.6875 
z
" id="DejaVuSans-Oblique-74"/>
      <path d="M 48.09375 32.234375 
Q 48.25 33.015625 48.3125 33.84375 
Q 48.390625 34.671875 48.390625 35.5 
Q 48.390625 41.453125 44.890625 44.921875 
Q 41.40625 48.390625 35.40625 48.390625 
Q 28.71875 48.390625 23.578125 44.15625 
Q 18.453125 39.9375 15.828125 32.171875 
z
M 55.90625 25.203125 
L 14.109375 25.203125 
Q 13.8125 23.34375 13.71875 22.265625 
Q 13.625 21.1875 13.625 20.40625 
Q 13.625 13.625 17.796875 9.90625 
Q 21.96875 6.203125 29.59375 6.203125 
Q 35.453125 6.203125 40.671875 7.515625 
Q 45.90625 8.84375 50.390625 11.375 
L 48.6875 2.484375 
Q 43.84375 0.53125 38.6875 -0.4375 
Q 33.546875 -1.421875 28.21875 -1.421875 
Q 16.84375 -1.421875 10.71875 4.015625 
Q 4.59375 9.46875 4.59375 19.484375 
Q 4.59375 28.03125 7.640625 35.375 
Q 10.6875 42.71875 16.609375 48.484375 
Q 20.40625 52.09375 25.65625 54.046875 
Q 30.90625 56 36.8125 56 
Q 46.09375 56 51.578125 50.4375 
Q 57.078125 44.875 57.078125 35.5 
Q 57.078125 33.25 56.78125 30.6875 
Q 56.5 28.125 55.90625 25.203125 
" id="DejaVuSans-Oblique-65"/>
      <path d="M 31 75.875 
Q 24.46875 64.65625 21.28125 53.65625 
Q 18.109375 42.671875 18.109375 31.390625 
Q 18.109375 20.125 21.3125 9.0625 
Q 24.515625 -2 31 -13.1875 
L 23.1875 -13.1875 
Q 15.875 -1.703125 12.234375 9.375 
Q 8.59375 20.453125 8.59375 31.390625 
Q 8.59375 42.28125 12.203125 53.3125 
Q 15.828125 64.359375 23.1875 75.875 
z
" id="DejaVuSans-28"/>
      <path d="M 36.8125 72.90625 
L 48 72.90625 
L 61.53125 0 
L 51.21875 0 
L 48.1875 18.703125 
L 15.375 18.703125 
L 5.078125 0 
L -5.328125 0 
z
M 40.375 63.1875 
L 19.921875 26.90625 
L 46.6875 26.90625 
z
" id="DejaVuSans-Oblique-41"/>
      <path d="M 8.015625 75.875 
L 15.828125 75.875 
Q 23.140625 64.359375 26.78125 53.3125 
Q 30.421875 42.28125 30.421875 31.390625 
Q 30.421875 20.453125 26.78125 9.375 
Q 23.140625 -1.703125 15.828125 -13.1875 
L 8.015625 -13.1875 
Q 14.5 -2 17.703125 9.0625 
Q 20.90625 20.125 20.90625 31.390625 
Q 20.90625 42.671875 17.703125 53.65625 
Q 14.5 64.65625 8.015625 75.875 
" id="DejaVuSans-29"/>
     </defs>
     <g style="fill:#01769d;" transform="translate(21.523188 101.55)rotate(-90)scale(0.1 -0.1)">
      <use transform="translate(0 0.125)" xlink:href="#DejaVuSans-Oblique-56"/>
      <use transform="translate(68.408203 -16.28125)scale(0.7)" xlink:href="#DejaVuSans-Oblique-67"/>
      <use transform="translate(112.841797 -16.28125)scale(0.7)" xlink:href="#DejaVuSans-Oblique-61"/>
      <use transform="translate(155.737305 -16.28125)scale(0.7)" xlink:href="#DejaVuSans-Oblique-74"/>
      <use transform="translate(183.183594 -16.28125)scale(0.7)" xlink:href="#DejaVuSans-Oblique-65"/>
      <use transform="translate(256.043511 0.125)" xlink:href="#DejaVuSans-28"/>
      <use transform="translate(295.057183 0.125)" xlink:href="#DejaVuSans-Oblique-41"/>
      <use transform="translate(363.465386 0.125)" xlink:href="#DejaVuSans-29"/>
     </g>
    </g>
   </g>
   <g id="line2d_31">
    <path clip-path="url(#p8741a3ea9b)" d="M 77.523 121.327656 
L 81.138995 121.381587 
L 91.801041 121.27744 
L 97.225032 121.351082 
L 108.675682 121.311053 
L 115.064173 121.316603 
L 123.501494 121.304066 
L 133.144146 121.301847 
L 152.42945 121.308806 
L 166.984533 121.409753 
L 168.414574 121.588111 
L 168.683729 121.508082 
L 169.036645 121.268368 
L 169.639311 120.56404 
L 170.241976 119.532488 
L 171.447308 116.564057 
L 172.652639 112.765665 
L 174.460637 106.080649 
L 175.665968 100.288857 
L 178.076631 86.440969 
L 179.281963 81.47397 
L 181.08996 75.154046 
L 186.451248 57.470242 
L 187.798123 53.521876 
L 189.60612 48.972416 
L 191.414118 45.243642 
L 193.222115 42.211042 
L 195.030112 39.748321 
L 196.838109 37.748747 
L 198.646107 36.124917 
L 201.05677 34.423598 
L 203.467433 33.133341 
L 205.878096 32.154213 
L 208.288759 31.410724 
L 211.904753 30.616348 
L 215.520748 30.089332 
L 220.342074 29.650548 
L 226.368731 29.349682 
L 236.011383 29.140832 
L 254.43619 29.039433 
L 267.077998 29.118228 
L 274.309987 29.348242 
L 277.925981 29.672086 
L 279.733979 30.019147 
L 280.93931 30.418614 
L 282.144642 31.009658 
L 283.349973 31.791798 
L 285.15797 33.284614 
L 286.363302 34.46782 
L 288.773965 37.225064 
L 289.979296 38.780068 
L 291.787294 41.31652 
L 294.800622 46.076642 
L 297.211285 50.394887 
L 299.621948 55.246706 
L 302.032611 60.756341 
L 304.443274 67.085461 
L 306.251272 72.474532 
L 308.059269 78.484153 
L 309.867266 85.149113 
L 312.277929 95.015514 
L 317.701921 118.302239 
L 318.907252 122.007132 
L 319.509918 123.361158 
L 320.112584 124.345199 
L 320.71525 124.95527 
L 321.317915 125.206095 
L 321.920581 125.128288 
L 322.523247 124.764842 
L 323.125913 124.167526 
L 324.331244 122.50313 
L 326.694629 118.982221 
L 327.892224 117.82109 
L 328.49489 117.502929 
L 329.097555 117.376409 
L 329.700221 117.440306 
L 330.302887 117.683694 
L 330.905553 118.08773 
L 332.110884 119.268716 
L 334.918261 122.458647 
L 336.123593 123.271481 
L 336.726259 123.454522 
L 337.328924 123.482093 
L 337.93159 123.361621 
L 339.136922 122.746316 
L 340.853413 121.361692 
L 342.544249 120.021313 
L 343.74958 119.393256 
L 344.935063 119.17394 
L 346.140394 119.369207 
L 347.345726 119.914916 
L 351.349183 122.260563 
L 352.554514 122.529924 
L 353.731966 122.468033 
L 354.937297 122.118698 
L 357.138461 121.092036 
L 358.946458 120.351923 
L 360.015225 120.117703 
L 361.220556 120.0883 
L 362.425888 120.290757 
L 364.233885 120.891229 
L 366.61402 121.723104 
L 367.819352 121.959696 
L 368.991956 122.009077 
L 370.197287 121.876914 
L 372.005284 121.43955 
L 374.98721 120.697154 
L 376.78149 120.572094 
L 378.589487 120.755731 
L 383.971008 121.701875 
L 385.578501 121.671493 
L 387.989164 121.346056 
L 391.002493 120.91817 
L 392.81049 120.865841 
L 395.221153 121.064973 
L 399.439813 121.521541 
L 401.723033 121.499749 
L 409.557688 121.065794 
L 417.995009 121.400878 
L 425.226998 121.155869 
L 429.863 121.350289 
L 429.863 121.350289 
" style="fill:none;stroke:#fe3ea0;stroke-linecap:square;stroke-width:1.5;"/>
   </g>
   <g id="patch_3">
    <path d="M 59.906 148.04 
L 59.906 14.76 
" style="fill:none;stroke:#08bdf9;stroke-linecap:square;stroke-linejoin:miter;stroke-width:0.8;"/>
   </g>
   <g id="patch_4">
    <path d="M 59.906 148.04 
L 447.48 148.04 
" style="fill:none;stroke:#08bdf9;stroke-linecap:square;stroke-linejoin:miter;stroke-width:0.8;"/>
   </g>
  </g>
  <g id="axes_2">
   <g id="patch_5">
    <path d="M 59.906 300.76 
L 447.48 300.76 
L 447.48 167.48 
L 59.906 167.48 
z
" style="fill:#ffffff;"/>
   </g>
   <g id="matplotlib.axis_3">
    <g id="xtick_10">
     <g id="line2d_32">
      <path clip-path="url(#pb7c64354ed)" d="M 77.299193 300.76 
L 77.299193 167.48 
" style="fill:none;stroke:#08bdf9;stroke-dasharray:2.2,2.2;stroke-dashoffset:0;stroke-width:0.8;"/>
     </g>
     <g id="line2d_33">
      <g>
       <use style="fill:#01769d;stroke:#01769d;stroke-width:0.8;" x="77.299193" xlink:href="#m1b7bff1125" y="300.76"/>
      </g>
     </g>
     <g id="text_8">
      <!-- 0.0 -->
      <g style="fill:#01769d;" transform="translate(69.34763 315.358437)scale(0.1 -0.1)">
       <use xlink:href="#DejaVuSans-30"/>
       <use x="63.623047" xlink:href="#DejaVuSans-2e"/>
       <use x="95.410156" xlink:href="#DejaVuSans-30"/>
      </g>
     </g>
    </g>
    <g id="xtick_11">
     <g id="line2d_34">
      <path clip-path="url(#pb7c64354ed)" d="M 121.379888 300.76 
L 121.379888 167.48 
" style="fill:none;stroke:#08bdf9;stroke-dasharray:2.2,2.2;stroke-dashoffset:0;stroke-width:0.8;"/>
     </g>
     <g id="line2d_35">
      <g>
       <use style="fill:#01769d;stroke:#01769d;stroke-width:0.8;" x="121.379888" xlink:href="#m1b7bff1125" y="300.76"/>
      </g>
     </g>
     <g id="text_9">
      <!-- 0.5 -->
      <defs>
       <path d="M 10.796875 72.90625 
L 49.515625 72.90625 
L 49.515625 64.59375 
L 19.828125 64.59375 
L 19.828125 46.734375 
Q 21.96875 47.46875 24.109375 47.828125 
Q 26.265625 48.1875 28.421875 48.1875 
Q 40.625 48.1875 47.75 41.5 
Q 54.890625 34.8125 54.890625 23.390625 
Q 54.890625 11.625 47.5625 5.09375 
Q 40.234375 -1.421875 26.90625 -1.421875 
Q 22.3125 -1.421875 17.546875 -0.640625 
Q 12.796875 0.140625 7.71875 1.703125 
L 7.71875 11.625 
Q 12.109375 9.234375 16.796875 8.0625 
Q 21.484375 6.890625 26.703125 6.890625 
Q 35.15625 6.890625 40.078125 11.328125 
Q 45.015625 15.765625 45.015625 23.390625 
Q 45.015625 31 40.078125 35.4375 
Q 35.15625 39.890625 26.703125 39.890625 
Q 22.75 39.890625 18.8125 39.015625 
Q 14.890625 38.140625 10.796875 36.28125 
z
" id="DejaVuSans-35"/>
      </defs>
      <g style="fill:#01769d;" transform="translate(113.428325 315.358437)scale(0.1 -0.1)">
       <use xlink:href="#DejaVuSans-30"/>
       <use x="63.623047" xlink:href="#DejaVuSans-2e"/>
       <use x="95.410156" xlink:href="#DejaVuSans-35"/>
      </g>
     </g>
    </g>
    <g id="xtick_12">
     <g id="line2d_36">
      <path clip-path="url(#pb7c64354ed)" d="M 165.460583 300.76 
L 165.460583 167.48 
" style="fill:none;stroke:#08bdf9;stroke-dasharray:2.2,2.2;stroke-dashoffset:0;stroke-width:0.8;"/>
     </g>
     <g id="line2d_37">
      <g>
       <use style="fill:#01769d;stroke:#01769d;stroke-width:0.8;" x="165.460583" xlink:href="#m1b7bff1125" y="300.76"/>
      </g>
     </g>
     <g id="text_10">
      <!-- 1.0 -->
      <g style="fill:#01769d;" transform="translate(157.50902 315.358437)scale(0.1 -0.1)">
       <use xlink:href="#DejaVuSans-31"/>
       <use x="63.623047" xlink:href="#DejaVuSans-2e"/>
       <use x="95.410156" xlink:href="#DejaVuSans-30"/>
      </g>
     </g>
    </g>
    <g id="xtick_13">
     <g id="line2d_38">
      <path clip-path="url(#pb7c64354ed)" d="M 209.541278 300.76 
L 209.541278 167.48 
" style="fill:none;stroke:#08bdf9;stroke-dasharray:2.2,2.2;stroke-dashoffset:0;stroke-width:0.8;"/>
     </g>
     <g id="line2d_39">
      <g>
       <use style="fill:#01769d;stroke:#01769d;stroke-width:0.8;" x="209.541278" xlink:href="#m1b7bff1125" y="300.76"/>
      </g>
     </g>
     <g id="text_11">
      <!-- 1.5 -->
      <g style="fill:#01769d;" transform="translate(201.589715 315.358437)scale(0.1 -0.1)">
       <use xlink:href="#DejaVuSans-31"/>
       <use x="63.623047" xlink:href="#DejaVuSans-2e"/>
       <use x="95.410156" xlink:href="#DejaVuSans-35"/>
      </g>
     </g>
    </g>
    <g id="xtick_14">
     <g id="line2d_40">
      <path clip-path="url(#pb7c64354ed)" d="M 253.621973 300.76 
L 253.621973 167.48 
" style="fill:none;stroke:#08bdf9;stroke-dasharray:2.2,2.2;stroke-dashoffset:0;stroke-width:0.8;"/>
     </g>
     <g id="line2d_41">
      <g>
       <use style="fill:#01769d;stroke:#01769d;stroke-width:0.8;" x="253.621973" xlink:href="#m1b7bff1125" y="300.76"/>
      </g>
     </g>
     <g id="text_12">
      <!-- 2.0 -->
      <g style="fill:#01769d;" transform="translate(245.67041 315.358437)scale(0.1 -0.1)">
       <use xlink:href="#DejaVuSans-32"/>
       <use x="63.623047" xlink:href="#DejaVuSans-2e"/>
       <use x="95.410156" xlink:href="#DejaVuSans-30"/>
      </g>
     </g>
    </g>
    <g id="xtick_15">
     <g id="line2d_42">
      <path clip-path="url(#pb7c64354ed)" d="M 297.702668 300.76 
L 297.702668 167.48 
" style="fill:none;stroke:#08bdf9;stroke-dasharray:2.2,2.2;stroke-dashoffset:0;stroke-width:0.8;"/>
     </g>
     <g id="line2d_43">
      <g>
       <use style="fill:#01769d;stroke:#01769d;stroke-width:0.8;" x="297.702668" xlink:href="#m1b7bff1125" y="300.76"/>
      </g>
     </g>
     <g id="text_13">
      <!-- 2.5 -->
      <g style="fill:#01769d;" transform="translate(289.751105 315.358437)scale(0.1 -0.1)">
       <use xlink:href="#DejaVuSans-32"/>
       <use x="63.623047" xlink:href="#DejaVuSans-2e"/>
       <use x="95.410156" xlink:href="#DejaVuSans-35"/>
      </g>
     </g>
    </g>
    <g id="xtick_16">
     <g id="line2d_44">
      <path clip-path="url(#pb7c64354ed)" d="M 341.783362 300.76 
L 341.783362 167.48 
" style="fill:none;stroke:#08bdf9;stroke-dasharray:2.2,2.2;stroke-dashoffset:0;stroke-width:0.8;"/>
     </g>
     <g id="line2d_45">
      <g>
       <use style="fill:#01769d;stroke:#01769d;stroke-width:0.8;" x="341.783362" xlink:href="#m1b7bff1125" y="300.76"/>
      </g>
     </g>
     <g id="text_14">
      <!-- 3.0 -->
      <g style="fill:#01769d;" transform="translate(333.8318 315.358437)scale(0.1 -0.1)">
       <use xlink:href="#DejaVuSans-33"/>
       <use x="63.623047" xlink:href="#DejaVuSans-2e"/>
       <use x="95.410156" xlink:href="#DejaVuSans-30"/>
      </g>
     </g>
    </g>
    <g id="xtick_17">
     <g id="line2d_46">
      <path clip-path="url(#pb7c64354ed)" d="M 385.864057 300.76 
L 385.864057 167.48 
" style="fill:none;stroke:#08bdf9;stroke-dasharray:2.2,2.2;stroke-dashoffset:0;stroke-width:0.8;"/>
     </g>
     <g id="line2d_47">
      <g>
       <use style="fill:#01769d;stroke:#01769d;stroke-width:0.8;" x="385.864057" xlink:href="#m1b7bff1125" y="300.76"/>
      </g>
     </g>
     <g id="text_15">
      <!-- 3.5 -->
      <g style="fill:#01769d;" transform="translate(377.912495 315.358437)scale(0.1 -0.1)">
       <use xlink:href="#DejaVuSans-33"/>
       <use x="63.623047" xlink:href="#DejaVuSans-2e"/>
       <use x="95.410156" xlink:href="#DejaVuSans-35"/>
      </g>
     </g>
    </g>
    <g id="xtick_18">
     <g id="line2d_48">
      <path clip-path="url(#pb7c64354ed)" d="M 429.944752 300.76 
L 429.944752 167.48 
" style="fill:none;stroke:#08bdf9;stroke-dasharray:2.2,2.2;stroke-dashoffset:0;stroke-width:0.8;"/>
     </g>
     <g id="line2d_49">
      <g>
       <use style="fill:#01769d;stroke:#01769d;stroke-width:0.8;" x="429.944752" xlink:href="#m1b7bff1125" y="300.76"/>
      </g>
     </g>
     <g id="text_16">
      <!-- 4.0 -->
      <g style="fill:#01769d;" transform="translate(421.99319 315.358437)scale(0.1 -0.1)">
       <use xlink:href="#DejaVuSans-34"/>
       <use x="63.623047" xlink:href="#DejaVuSans-2e"/>
       <use x="95.410156" xlink:href="#DejaVuSans-30"/>
      </g>
     </g>
    </g>
    <g id="text_17">
     <!-- $t\;(\mu s)$ -->
     <defs>
      <path d="M -1.3125 -20.796875 
L 13.375 54.6875 
L 22.40625 54.6875 
L 15.765625 20.65625 
Q 15.578125 19.625 15.421875 18.359375 
Q 15.28125 17.09375 15.28125 15.828125 
Q 15.28125 11.28125 18.140625 8.828125 
Q 21 6.390625 26.3125 6.390625 
Q 33.546875 6.390625 37.984375 10.484375 
Q 42.4375 14.59375 44 22.796875 
L 50.203125 54.6875 
L 59.1875 54.6875 
L 51.03125 12.640625 
Q 50.828125 11.71875 50.75 11.03125 
Q 50.6875 10.359375 50.6875 9.8125 
Q 50.6875 8.296875 51.296875 7.59375 
Q 51.90625 6.890625 53.21875 6.890625 
Q 53.71875 6.890625 54.5625 7.125 
Q 55.421875 7.375 56.984375 8.015625 
L 55.609375 0.78125 
Q 53.46875 -0.296875 51.515625 -0.859375 
Q 49.5625 -1.421875 47.703125 -1.421875 
Q 44.484375 -1.421875 42.65625 0.625 
Q 40.828125 2.6875 40.828125 6.296875 
Q 38.09375 2.390625 34.296875 0.484375 
Q 30.515625 -1.421875 25.390625 -1.421875 
Q 20.84375 -1.421875 17.453125 0.671875 
Q 14.0625 2.78125 12.984375 6.203125 
L 7.71875 -20.796875 
z
" id="DejaVuSans-Oblique-3bc"/>
      <path d="M 50 53.078125 
L 48.296875 44.578125 
Q 44.734375 46.53125 40.765625 47.5 
Q 36.8125 48.484375 32.625 48.484375 
Q 25.53125 48.484375 21.453125 46.0625 
Q 17.390625 43.65625 17.390625 39.5 
Q 17.390625 34.671875 26.859375 32.078125 
Q 27.59375 31.890625 27.9375 31.78125 
L 30.8125 30.90625 
Q 39.796875 28.421875 42.796875 25.6875 
Q 45.796875 22.953125 45.796875 18.21875 
Q 45.796875 9.515625 38.890625 4.046875 
Q 31.984375 -1.421875 20.796875 -1.421875 
Q 16.453125 -1.421875 11.671875 -0.578125 
Q 6.890625 0.25 1.125 2 
L 2.875 11.28125 
Q 7.8125 8.734375 12.59375 7.421875 
Q 17.390625 6.109375 21.78125 6.109375 
Q 28.375 6.109375 32.5 8.9375 
Q 36.625 11.765625 36.625 16.109375 
Q 36.625 20.796875 25.78125 23.6875 
L 24.859375 23.921875 
L 21.78125 24.703125 
Q 14.9375 26.515625 11.765625 29.46875 
Q 8.59375 32.421875 8.59375 37.015625 
Q 8.59375 45.75 15.15625 50.875 
Q 21.734375 56 33.015625 56 
Q 37.453125 56 41.671875 55.265625 
Q 45.90625 54.546875 50 53.078125 
" id="DejaVuSans-Oblique-73"/>
     </defs>
     <g style="fill:#01769d;" transform="translate(240.643 329.038125)scale(0.1 -0.1)">
      <use transform="translate(0 0.125)" xlink:href="#DejaVuSans-Oblique-74"/>
      <use transform="translate(66.26812 0.125)" xlink:href="#DejaVuSans-28"/>
      <use transform="translate(105.281792 0.125)" xlink:href="#DejaVuSans-Oblique-3bc"/>
      <use transform="translate(168.904839 0.125)" xlink:href="#DejaVuSans-Oblique-73"/>
      <use transform="translate(221.004448 0.125)" xlink:href="#DejaVuSans-29"/>
     </g>
    </g>
   </g>
   <g id="matplotlib.axis_4">
    <g id="ytick_7">
     <g id="line2d_50">
      <path clip-path="url(#pb7c64354ed)" d="M 59.906 292.43 
L 447.48 292.43 
" style="fill:none;stroke:#08bdf9;stroke-dasharray:2.2,2.2;stroke-dashoffset:0;stroke-width:0.8;"/>
     </g>
     <g id="line2d_51">
      <g>
       <use style="fill:#01769d;stroke:#01769d;stroke-width:0.8;" x="59.906" xlink:href="#m21d20507da" y="292.43"/>
      </g>
     </g>
     <g id="text_18">
      <!-- 0 -->
      <g style="fill:#01769d;" transform="translate(46.5435 296.229219)scale(0.1 -0.1)">
       <use xlink:href="#DejaVuSans-30"/>
      </g>
     </g>
    </g>
    <g id="ytick_8">
     <g id="line2d_52">
      <path clip-path="url(#pb7c64354ed)" d="M 59.906 259.11 
L 447.48 259.11 
" style="fill:none;stroke:#08bdf9;stroke-dasharray:2.2,2.2;stroke-dashoffset:0;stroke-width:0.8;"/>
     </g>
     <g id="line2d_53">
      <g>
       <use style="fill:#01769d;stroke:#01769d;stroke-width:0.8;" x="59.906" xlink:href="#m21d20507da" y="259.11"/>
      </g>
     </g>
     <g id="text_19">
      <!-- 2 -->
      <g style="fill:#01769d;" transform="translate(46.5435 262.909219)scale(0.1 -0.1)">
       <use xlink:href="#DejaVuSans-32"/>
      </g>
     </g>
    </g>
    <g id="ytick_9">
     <g id="line2d_54">
      <path clip-path="url(#pb7c64354ed)" d="M 59.906 225.79 
L 447.48 225.79 
" style="fill:none;stroke:#08bdf9;stroke-dasharray:2.2,2.2;stroke-dashoffset:0;stroke-width:0.8;"/>
     </g>
     <g id="line2d_55">
      <g>
       <use style="fill:#01769d;stroke:#01769d;stroke-width:0.8;" x="59.906" xlink:href="#m21d20507da" y="225.79"/>
      </g>
     </g>
     <g id="text_20">
      <!-- 4 -->
      <g style="fill:#01769d;" transform="translate(46.5435 229.589219)scale(0.1 -0.1)">
       <use xlink:href="#DejaVuSans-34"/>
      </g>
     </g>
    </g>
    <g id="ytick_10">
     <g id="line2d_56">
      <path clip-path="url(#pb7c64354ed)" d="M 59.906 192.47 
L 447.48 192.47 
" style="fill:none;stroke:#08bdf9;stroke-dasharray:2.2,2.2;stroke-dashoffset:0;stroke-width:0.8;"/>
     </g>
     <g id="line2d_57">
      <g>
       <use style="fill:#01769d;stroke:#01769d;stroke-width:0.8;" x="59.906" xlink:href="#m21d20507da" y="192.47"/>
      </g>
     </g>
     <g id="text_21">
      <!-- 6 -->
      <defs>
       <path d="M 33.015625 40.375 
Q 26.375 40.375 22.484375 35.828125 
Q 18.609375 31.296875 18.609375 23.390625 
Q 18.609375 15.53125 22.484375 10.953125 
Q 26.375 6.390625 33.015625 6.390625 
Q 39.65625 6.390625 43.53125 10.953125 
Q 47.40625 15.53125 47.40625 23.390625 
Q 47.40625 31.296875 43.53125 35.828125 
Q 39.65625 40.375 33.015625 40.375 
M 52.59375 71.296875 
L 52.59375 62.3125 
Q 48.875 64.0625 45.09375 64.984375 
Q 41.3125 65.921875 37.59375 65.921875 
Q 27.828125 65.921875 22.671875 59.328125 
Q 17.53125 52.734375 16.796875 39.40625 
Q 19.671875 43.65625 24.015625 45.921875 
Q 28.375 48.1875 33.59375 48.1875 
Q 44.578125 48.1875 50.953125 41.515625 
Q 57.328125 34.859375 57.328125 23.390625 
Q 57.328125 12.15625 50.6875 5.359375 
Q 44.046875 -1.421875 33.015625 -1.421875 
Q 20.359375 -1.421875 13.671875 8.265625 
Q 6.984375 17.96875 6.984375 36.375 
Q 6.984375 53.65625 15.1875 63.9375 
Q 23.390625 74.21875 37.203125 74.21875 
Q 40.921875 74.21875 44.703125 73.484375 
Q 48.484375 72.75 52.59375 71.296875 
" id="DejaVuSans-36"/>
      </defs>
      <g style="fill:#01769d;" transform="translate(46.5435 196.269219)scale(0.1 -0.1)">
       <use xlink:href="#DejaVuSans-36"/>
      </g>
     </g>
    </g>
    <g id="text_22">
     <!-- $I_{LED}\;(A)$ -->
     <defs>
      <path d="M 16.890625 72.90625 
L 26.8125 72.90625 
L 12.59375 0 
L 2.6875 0 
z
" id="DejaVuSans-Oblique-49"/>
      <path d="M 16.796875 72.90625 
L 26.703125 72.90625 
L 14.203125 8.203125 
L 49.703125 8.203125 
L 48.09375 0 
L 2.6875 0 
z
" id="DejaVuSans-Oblique-4c"/>
      <path d="M 16.890625 72.90625 
L 62.984375 72.90625 
L 61.375 64.59375 
L 25.09375 64.59375 
L 20.90625 43.015625 
L 55.71875 43.015625 
L 54.109375 34.71875 
L 19.28125 34.71875 
L 14.203125 8.296875 
L 51.3125 8.296875 
L 49.703125 0 
L 2.6875 0 
z
" id="DejaVuSans-Oblique-45"/>
      <path d="M 16.890625 72.90625 
L 38.09375 72.90625 
Q 54.984375 72.90625 63.59375 65.75 
Q 72.21875 58.59375 72.21875 44.484375 
Q 72.21875 35.15625 68.9375 26.53125 
Q 65.671875 17.921875 59.90625 12.015625 
Q 54.109375 5.953125 45.171875 2.96875 
Q 36.234375 0 24.03125 0 
L 2.6875 0 
z
M 25.203125 64.796875 
L 14.203125 8.109375 
L 27.09375 8.109375 
Q 43.65625 8.109375 52.734375 17.625 
Q 61.8125 27.15625 61.8125 44.484375 
Q 61.8125 54.984375 55.953125 59.890625 
Q 50.09375 64.796875 37.59375 64.796875 
z
" id="DejaVuSans-Oblique-44"/>
     </defs>
     <g style="fill:#01769d;" transform="translate(40.463813 251.27)rotate(-90)scale(0.1 -0.1)">
      <use transform="translate(0 0.125)" xlink:href="#DejaVuSans-Oblique-49"/>
      <use transform="translate(29.492188 -16.28125)scale(0.7)" xlink:href="#DejaVuSans-Oblique-4c"/>
      <use transform="translate(68.491211 -16.28125)scale(0.7)" xlink:href="#DejaVuSans-Oblique-45"/>
      <use transform="translate(112.719727 -16.28125)scale(0.7)" xlink:href="#DejaVuSans-Oblique-44"/>
      <use transform="translate(196.414604 0.125)" xlink:href="#DejaVuSans-28"/>
      <use transform="translate(235.428276 0.125)" xlink:href="#DejaVuSans-Oblique-41"/>
      <use transform="translate(303.836479 0.125)" xlink:href="#DejaVuSans-29"/>
     </g>
    </g>
   </g>
   <g id="line2d_58">
    <path clip-path="url(#pb7c64354ed)" d="M 77.523 215.692207 
L 84.569051 215.925914 
L 88.185046 215.585917 
L 91.801041 215.315791 
L 94.814369 215.336167 
L 99.635695 215.406688 
L 103.25169 215.199055 
L 108.073016 214.937859 
L 121.693496 214.651124 
L 126.514822 214.563359 
L 133.746811 214.450638 
L 142.184132 214.219463 
L 151.224118 214.046166 
L 160.264104 213.873402 
L 165.658313 213.714182 
L 166.984533 211.920966 
L 167.370469 211.640462 
L 167.593777 211.754916 
L 167.790596 212.309128 
L 168.175316 215.099861 
L 170.241976 235.796729 
L 171.447308 245.463994 
L 172.652639 253.382175 
L 173.857971 259.844556 
L 175.063302 265.148833 
L 176.268634 269.573163 
L 177.473965 273.349652 
L 179.281963 278.177657 
L 181.08996 282.363607 
L 184.103289 288.561969 
L 185.30862 290.651672 
L 185.683377 291.055564 
L 186.451248 291.482262 
L 187.798123 291.805653 
L 190.208786 292.024467 
L 195.030112 292.160994 
L 208.288759 292.253292 
L 256.230014 292.288043 
L 268.885995 292.084934 
L 273.707321 291.807987 
L 276.117984 291.477149 
L 277.925981 290.979084 
L 279.131313 290.355267 
L 280.336644 289.298556 
L 285.15797 284.210274 
L 288.773965 280.126287 
L 291.787294 276.413967 
L 294.800622 272.250075 
L 297.211285 268.431137 
L 299.621948 263.998577 
L 302.032611 258.763455 
L 304.443274 252.554157 
L 306.251272 247.192419 
L 308.059269 241.225024 
L 310.469932 232.44677 
L 314.688592 216.662569 
L 315.291258 214.853276 
L 315.893924 213.397042 
L 316.496589 212.436677 
L 317.099255 212.104326 
L 317.701921 212.474262 
L 318.304587 213.534954 
L 318.907252 215.198138 
L 320.112584 219.764978 
L 321.920581 227.292382 
L 322.523247 229.377364 
L 323.125913 231.050395 
L 323.728578 232.231389 
L 324.331244 232.87135 
L 324.93391 232.963763 
L 325.489297 232.556692 
L 326.091963 231.62195 
L 326.694629 230.261211 
L 327.892224 226.628365 
L 330.302887 218.668283 
L 330.905553 217.163252 
L 331.508218 216.012946 
L 332.110884 215.260947 
L 332.71355 214.906472 
L 333.198671 214.927164 
L 333.71293 215.254649 
L 334.315596 215.956552 
L 334.918261 216.937709 
L 336.123593 219.47646 
L 337.93159 223.466396 
L 338.534256 224.529938 
L 339.136922 225.357123 
L 339.739587 225.908086 
L 340.342253 226.171564 
L 340.853413 226.158086 
L 341.338917 225.927062 
L 341.941583 225.391193 
L 342.544249 224.630847 
L 343.74958 222.59886 
L 346.140394 218.230542 
L 346.74306 217.396992 
L 347.345726 216.759614 
L 347.948391 216.34298 
L 348.551057 216.148408 
L 349.049161 216.161919 
L 349.541185 216.337899 
L 350.143851 216.731258 
L 351.349183 217.953652 
L 354.334631 221.52609 
L 354.937297 221.996984 
L 355.539963 222.311125 
L 356.142629 222.461299 
L 356.653515 222.452969 
L 357.138461 222.319739 
L 357.741127 222.010346 
L 358.946458 221.022141 
L 362.425888 217.432311 
L 363.631219 216.748168 
L 364.233885 216.601394 
L 364.836551 216.586749 
L 366.011354 216.914985 
L 367.216686 217.618137 
L 370.197287 219.648374 
L 371.402619 220.079185 
L 372.60795 220.117187 
L 373.781879 219.779005 
L 374.98721 219.138512 
L 377.986821 217.24337 
L 379.192153 216.761846 
L 380.397484 216.581985 
L 381.560345 216.695822 
L 382.765676 217.053946 
L 386.181167 218.363339 
L 387.386498 218.573554 
L 388.59183 218.547981 
L 389.797161 218.297482 
L 391.605158 217.638545 
L 394.015821 216.728943 
L 395.221153 216.456152 
L 396.426484 216.366021 
L 397.631816 216.452836 
L 399.439813 216.811976 
L 402.325699 217.401857 
L 404.133696 217.46065 
L 405.941694 217.214565 
L 411.365685 216.083801 
L 413.173683 216.066658 
L 415.584346 216.322622 
L 418.597674 216.623801 
L 420.405672 216.591981 
L 422.816335 216.293533 
L 426.432329 215.769876 
L 428.717208 215.679396 
L 429.863 215.717397 
L 429.863 215.717397 
" style="fill:none;stroke:#fe3ea0;stroke-linecap:square;stroke-width:1.5;"/>
   </g>
   <g id="patch_6">
    <path d="M 59.906 300.76 
L 59.906 167.48 
" style="fill:none;stroke:#08bdf9;stroke-linecap:square;stroke-linejoin:miter;stroke-width:0.8;"/>
   </g>
   <g id="patch_7">
    <path d="M 59.906 300.76 
L 447.48 300.76 
" style="fill:none;stroke:#08bdf9;stroke-linecap:square;stroke-linejoin:miter;stroke-width:0.8;"/>
   </g>
  </g>
 </g>
 <defs>
  <clipPath id="p8741a3ea9b">
   <rect height="133.28" width="387.574" x="59.906" y="14.76"/>
  </clipPath>
  <clipPath id="pb7c64354ed">
   <rect height="133.28" width="387.574" x="59.906" y="167.48"/>
  </clipPath>
 </defs>
</svg>
