<?xml version="1.0" encoding="utf-8" standalone="no"?>
<!DOCTYPE svg PUBLIC "-//W3C//DTD SVG 1.1//EN"
  "http://www.w3.org/Graphics/SVG/1.1/DTD/svg11.dtd">
<!-- Created with matplotlib (http://matplotlib.org/) -->
<svg height="345pt" version="1.1" viewBox="0 0 460 345" width="460pt" xmlns="http://www.w3.org/2000/svg" xmlns:xlink="http://www.w3.org/1999/xlink">
 <defs>
  <style type="text/css">
*{stroke-linecap:butt;stroke-linejoin:round;}
  </style>
 </defs>
 <g id="figure_1">
  <g id="patch_1">
   <path d="M 0 345.6 
L 460.8 345.6 
L 460.8 0 
L 0 0 
z
" style="fill:#ffffff;"/>
  </g>
  <g id="axes_1">
   <g id="patch_2">
    <path d="M 59.906 148.04 
L 447.48 148.04 
L 447.48 14.76 
L 59.906 14.76 
z
" style="fill:#ffffff;"/>
   </g>
   <g id="matplotlib.axis_1">
    <g id="xtick_1">
     <g id="line2d_1">
      <path clip-path="url(#p8f76f333f0)" d="M 76.929129 148.04 
L 76.929129 14.76 
" style="fill:none;stroke:#08bdf9;stroke-dasharray:2.2,2.2;stroke-dashoffset:0;stroke-width:0.8;"/>
     </g>
     <g id="line2d_2">
      <defs>
       <path d="M 0 0 
L 0 3.5 
" id="md88e215ea2" style="stroke:#01769d;stroke-width:0.8;"/>
      </defs>
      <g>
       <use style="fill:#01769d;stroke:#01769d;stroke-width:0.8;" x="76.929129" xlink:href="#md88e215ea2" y="148.04"/>
      </g>
     </g>
    </g>
    <g id="xtick_2">
     <g id="line2d_3">
      <path clip-path="url(#p8f76f333f0)" d="M 121.047281 148.04 
L 121.047281 14.76 
" style="fill:none;stroke:#08bdf9;stroke-dasharray:2.2,2.2;stroke-dashoffset:0;stroke-width:0.8;"/>
     </g>
     <g id="line2d_4">
      <g>
       <use style="fill:#01769d;stroke:#01769d;stroke-width:0.8;" x="121.047281" xlink:href="#md88e215ea2" y="148.04"/>
      </g>
     </g>
    </g>
    <g id="xtick_3">
     <g id="line2d_5">
      <path clip-path="url(#p8f76f333f0)" d="M 165.165433 148.04 
L 165.165433 14.76 
" style="fill:none;stroke:#08bdf9;stroke-dasharray:2.2,2.2;stroke-dashoffset:0;stroke-width:0.8;"/>
     </g>
     <g id="line2d_6">
      <g>
       <use style="fill:#01769d;stroke:#01769d;stroke-width:0.8;" x="165.165433" xlink:href="#md88e215ea2" y="148.04"/>
      </g>
     </g>
    </g>
    <g id="xtick_4">
     <g id="line2d_7">
      <path clip-path="url(#p8f76f333f0)" d="M 209.283586 148.04 
L 209.283586 14.76 
" style="fill:none;stroke:#08bdf9;stroke-dasharray:2.2,2.2;stroke-dashoffset:0;stroke-width:0.8;"/>
     </g>
     <g id="line2d_8">
      <g>
       <use style="fill:#01769d;stroke:#01769d;stroke-width:0.8;" x="209.283586" xlink:href="#md88e215ea2" y="148.04"/>
      </g>
     </g>
    </g>
    <g id="xtick_5">
     <g id="line2d_9">
      <path clip-path="url(#p8f76f333f0)" d="M 253.401738 148.04 
L 253.401738 14.76 
" style="fill:none;stroke:#08bdf9;stroke-dasharray:2.2,2.2;stroke-dashoffset:0;stroke-width:0.8;"/>
     </g>
     <g id="line2d_10">
      <g>
       <use style="fill:#01769d;stroke:#01769d;stroke-width:0.8;" x="253.401738" xlink:href="#md88e215ea2" y="148.04"/>
      </g>
     </g>
    </g>
    <g id="xtick_6">
     <g id="line2d_11">
      <path clip-path="url(#p8f76f333f0)" d="M 297.51989 148.04 
L 297.51989 14.76 
" style="fill:none;stroke:#08bdf9;stroke-dasharray:2.2,2.2;stroke-dashoffset:0;stroke-width:0.8;"/>
     </g>
     <g id="line2d_12">
      <g>
       <use style="fill:#01769d;stroke:#01769d;stroke-width:0.8;" x="297.51989" xlink:href="#md88e215ea2" y="148.04"/>
      </g>
     </g>
    </g>
    <g id="xtick_7">
     <g id="line2d_13">
      <path clip-path="url(#p8f76f333f0)" d="M 341.638042 148.04 
L 341.638042 14.76 
" style="fill:none;stroke:#08bdf9;stroke-dasharray:2.2,2.2;stroke-dashoffset:0;stroke-width:0.8;"/>
     </g>
     <g id="line2d_14">
      <g>
       <use style="fill:#01769d;stroke:#01769d;stroke-width:0.8;" x="341.638042" xlink:href="#md88e215ea2" y="148.04"/>
      </g>
     </g>
    </g>
    <g id="xtick_8">
     <g id="line2d_15">
      <path clip-path="url(#p8f76f333f0)" d="M 385.756194 148.04 
L 385.756194 14.76 
" style="fill:none;stroke:#08bdf9;stroke-dasharray:2.2,2.2;stroke-dashoffset:0;stroke-width:0.8;"/>
     </g>
     <g id="line2d_16">
      <g>
       <use style="fill:#01769d;stroke:#01769d;stroke-width:0.8;" x="385.756194" xlink:href="#md88e215ea2" y="148.04"/>
      </g>
     </g>
    </g>
    <g id="xtick_9">
     <g id="line2d_17">
      <path clip-path="url(#p8f76f333f0)" d="M 429.874346 148.04 
L 429.874346 14.76 
" style="fill:none;stroke:#08bdf9;stroke-dasharray:2.2,2.2;stroke-dashoffset:0;stroke-width:0.8;"/>
     </g>
     <g id="line2d_18">
      <g>
       <use style="fill:#01769d;stroke:#01769d;stroke-width:0.8;" x="429.874346" xlink:href="#md88e215ea2" y="148.04"/>
      </g>
     </g>
    </g>
   </g>
   <g id="matplotlib.axis_2">
    <g id="ytick_1">
     <g id="line2d_19">
      <path clip-path="url(#p8f76f333f0)" d="M 59.906 148.04 
L 447.48 148.04 
" style="fill:none;stroke:#08bdf9;stroke-dasharray:2.2,2.2;stroke-dashoffset:0;stroke-width:0.8;"/>
     </g>
     <g id="line2d_20">
      <defs>
       <path d="M 0 0 
L -3.5 0 
" id="m49dbdc804c" style="stroke:#01769d;stroke-width:0.8;"/>
      </defs>
      <g>
       <use style="fill:#01769d;stroke:#01769d;stroke-width:0.8;" x="59.906" xlink:href="#m49dbdc804c" y="148.04"/>
      </g>
     </g>
     <g id="text_1">
      <!-- −0.1 -->
      <defs>
       <path d="M 10.59375 35.5 
L 73.1875 35.5 
L 73.1875 27.203125 
L 10.59375 27.203125 
z
" id="DejaVuSans-2212"/>
       <path d="M 31.78125 66.40625 
Q 24.171875 66.40625 20.328125 58.90625 
Q 16.5 51.421875 16.5 36.375 
Q 16.5 21.390625 20.328125 13.890625 
Q 24.171875 6.390625 31.78125 6.390625 
Q 39.453125 6.390625 43.28125 13.890625 
Q 47.125 21.390625 47.125 36.375 
Q 47.125 51.421875 43.28125 58.90625 
Q 39.453125 66.40625 31.78125 66.40625 
M 31.78125 74.21875 
Q 44.046875 74.21875 50.515625 64.515625 
Q 56.984375 54.828125 56.984375 36.375 
Q 56.984375 17.96875 50.515625 8.265625 
Q 44.046875 -1.421875 31.78125 -1.421875 
Q 19.53125 -1.421875 13.0625 8.265625 
Q 6.59375 17.96875 6.59375 36.375 
Q 6.59375 54.828125 13.0625 64.515625 
Q 19.53125 74.21875 31.78125 74.21875 
" id="DejaVuSans-30"/>
       <path d="M 10.6875 12.40625 
L 21 12.40625 
L 21 0 
L 10.6875 0 
z
" id="DejaVuSans-2e"/>
       <path d="M 12.40625 8.296875 
L 28.515625 8.296875 
L 28.515625 63.921875 
L 10.984375 60.40625 
L 10.984375 69.390625 
L 28.421875 72.90625 
L 38.28125 72.90625 
L 38.28125 8.296875 
L 54.390625 8.296875 
L 54.390625 0 
L 12.40625 0 
z
" id="DejaVuSans-31"/>
      </defs>
      <g style="fill:#01769d;" transform="translate(28.623188 151.839219)scale(0.1 -0.1)">
       <use xlink:href="#DejaVuSans-2212"/>
       <use x="83.789062" xlink:href="#DejaVuSans-30"/>
       <use x="147.412109" xlink:href="#DejaVuSans-2e"/>
       <use x="179.199219" xlink:href="#DejaVuSans-31"/>
      </g>
     </g>
    </g>
    <g id="ytick_2">
     <g id="line2d_21">
      <path clip-path="url(#p8f76f333f0)" d="M 59.906 121.384 
L 447.48 121.384 
" style="fill:none;stroke:#08bdf9;stroke-dasharray:2.2,2.2;stroke-dashoffset:0;stroke-width:0.8;"/>
     </g>
     <g id="line2d_22">
      <g>
       <use style="fill:#01769d;stroke:#01769d;stroke-width:0.8;" x="59.906" xlink:href="#m49dbdc804c" y="121.384"/>
      </g>
     </g>
     <g id="text_2">
      <!-- 0.0 -->
      <g style="fill:#01769d;" transform="translate(37.002875 125.183219)scale(0.1 -0.1)">
       <use xlink:href="#DejaVuSans-30"/>
       <use x="63.623047" xlink:href="#DejaVuSans-2e"/>
       <use x="95.410156" xlink:href="#DejaVuSans-30"/>
      </g>
     </g>
    </g>
    <g id="ytick_3">
     <g id="line2d_23">
      <path clip-path="url(#p8f76f333f0)" d="M 59.906 94.728 
L 447.48 94.728 
" style="fill:none;stroke:#08bdf9;stroke-dasharray:2.2,2.2;stroke-dashoffset:0;stroke-width:0.8;"/>
     </g>
     <g id="line2d_24">
      <g>
       <use style="fill:#01769d;stroke:#01769d;stroke-width:0.8;" x="59.906" xlink:href="#m49dbdc804c" y="94.728"/>
      </g>
     </g>
     <g id="text_3">
      <!-- 0.1 -->
      <g style="fill:#01769d;" transform="translate(37.002875 98.527219)scale(0.1 -0.1)">
       <use xlink:href="#DejaVuSans-30"/>
       <use x="63.623047" xlink:href="#DejaVuSans-2e"/>
       <use x="95.410156" xlink:href="#DejaVuSans-31"/>
      </g>
     </g>
    </g>
    <g id="ytick_4">
     <g id="line2d_25">
      <path clip-path="url(#p8f76f333f0)" d="M 59.906 68.072 
L 447.48 68.072 
" style="fill:none;stroke:#08bdf9;stroke-dasharray:2.2,2.2;stroke-dashoffset:0;stroke-width:0.8;"/>
     </g>
     <g id="line2d_26">
      <g>
       <use style="fill:#01769d;stroke:#01769d;stroke-width:0.8;" x="59.906" xlink:href="#m49dbdc804c" y="68.072"/>
      </g>
     </g>
     <g id="text_4">
      <!-- 0.2 -->
      <defs>
       <path d="M 19.1875 8.296875 
L 53.609375 8.296875 
L 53.609375 0 
L 7.328125 0 
L 7.328125 8.296875 
Q 12.9375 14.109375 22.625 23.890625 
Q 32.328125 33.6875 34.8125 36.53125 
Q 39.546875 41.84375 41.421875 45.53125 
Q 43.3125 49.21875 43.3125 52.78125 
Q 43.3125 58.59375 39.234375 62.25 
Q 35.15625 65.921875 28.609375 65.921875 
Q 23.96875 65.921875 18.8125 64.3125 
Q 13.671875 62.703125 7.8125 59.421875 
L 7.8125 69.390625 
Q 13.765625 71.78125 18.9375 73 
Q 24.125 74.21875 28.421875 74.21875 
Q 39.75 74.21875 46.484375 68.546875 
Q 53.21875 62.890625 53.21875 53.421875 
Q 53.21875 48.921875 51.53125 44.890625 
Q 49.859375 40.875 45.40625 35.40625 
Q 44.1875 33.984375 37.640625 27.21875 
Q 31.109375 20.453125 19.1875 8.296875 
" id="DejaVuSans-32"/>
      </defs>
      <g style="fill:#01769d;" transform="translate(37.002875 71.871219)scale(0.1 -0.1)">
       <use xlink:href="#DejaVuSans-30"/>
       <use x="63.623047" xlink:href="#DejaVuSans-2e"/>
       <use x="95.410156" xlink:href="#DejaVuSans-32"/>
      </g>
     </g>
    </g>
    <g id="ytick_5">
     <g id="line2d_27">
      <path clip-path="url(#p8f76f333f0)" d="M 59.906 41.416 
L 447.48 41.416 
" style="fill:none;stroke:#08bdf9;stroke-dasharray:2.2,2.2;stroke-dashoffset:0;stroke-width:0.8;"/>
     </g>
     <g id="line2d_28">
      <g>
       <use style="fill:#01769d;stroke:#01769d;stroke-width:0.8;" x="59.906" xlink:href="#m49dbdc804c" y="41.416"/>
      </g>
     </g>
     <g id="text_5">
      <!-- 0.3 -->
      <defs>
       <path d="M 40.578125 39.3125 
Q 47.65625 37.796875 51.625 33 
Q 55.609375 28.21875 55.609375 21.1875 
Q 55.609375 10.40625 48.1875 4.484375 
Q 40.765625 -1.421875 27.09375 -1.421875 
Q 22.515625 -1.421875 17.65625 -0.515625 
Q 12.796875 0.390625 7.625 2.203125 
L 7.625 11.71875 
Q 11.71875 9.328125 16.59375 8.109375 
Q 21.484375 6.890625 26.8125 6.890625 
Q 36.078125 6.890625 40.9375 10.546875 
Q 45.796875 14.203125 45.796875 21.1875 
Q 45.796875 27.640625 41.28125 31.265625 
Q 36.765625 34.90625 28.71875 34.90625 
L 20.21875 34.90625 
L 20.21875 43.015625 
L 29.109375 43.015625 
Q 36.375 43.015625 40.234375 45.921875 
Q 44.09375 48.828125 44.09375 54.296875 
Q 44.09375 59.90625 40.109375 62.90625 
Q 36.140625 65.921875 28.71875 65.921875 
Q 24.65625 65.921875 20.015625 65.03125 
Q 15.375 64.15625 9.8125 62.3125 
L 9.8125 71.09375 
Q 15.4375 72.65625 20.34375 73.4375 
Q 25.25 74.21875 29.59375 74.21875 
Q 40.828125 74.21875 47.359375 69.109375 
Q 53.90625 64.015625 53.90625 55.328125 
Q 53.90625 49.265625 50.4375 45.09375 
Q 46.96875 40.921875 40.578125 39.3125 
" id="DejaVuSans-33"/>
      </defs>
      <g style="fill:#01769d;" transform="translate(37.002875 45.215219)scale(0.1 -0.1)">
       <use xlink:href="#DejaVuSans-30"/>
       <use x="63.623047" xlink:href="#DejaVuSans-2e"/>
       <use x="95.410156" xlink:href="#DejaVuSans-33"/>
      </g>
     </g>
    </g>
    <g id="ytick_6">
     <g id="line2d_29">
      <path clip-path="url(#p8f76f333f0)" d="M 59.906 14.76 
L 447.48 14.76 
" style="fill:none;stroke:#08bdf9;stroke-dasharray:2.2,2.2;stroke-dashoffset:0;stroke-width:0.8;"/>
     </g>
     <g id="line2d_30">
      <g>
       <use style="fill:#01769d;stroke:#01769d;stroke-width:0.8;" x="59.906" xlink:href="#m49dbdc804c" y="14.76"/>
      </g>
     </g>
     <g id="text_6">
      <!-- 0.4 -->
      <defs>
       <path d="M 37.796875 64.3125 
L 12.890625 25.390625 
L 37.796875 25.390625 
z
M 35.203125 72.90625 
L 47.609375 72.90625 
L 47.609375 25.390625 
L 58.015625 25.390625 
L 58.015625 17.1875 
L 47.609375 17.1875 
L 47.609375 0 
L 37.796875 0 
L 37.796875 17.1875 
L 4.890625 17.1875 
L 4.890625 26.703125 
z
" id="DejaVuSans-34"/>
      </defs>
      <g style="fill:#01769d;" transform="translate(37.002875 18.559219)scale(0.1 -0.1)">
       <use xlink:href="#DejaVuSans-30"/>
       <use x="63.623047" xlink:href="#DejaVuSans-2e"/>
       <use x="95.410156" xlink:href="#DejaVuSans-34"/>
      </g>
     </g>
    </g>
    <g id="text_7">
     <!-- $V_{gate}\;(A)$ -->
     <defs>
      <path d="M 20.609375 0 
L 7.8125 72.90625 
L 17.484375 72.90625 
L 28.078125 10.203125 
L 63.484375 72.90625 
L 74.21875 72.90625 
L 32.078125 0 
z
" id="DejaVuSans-Oblique-56"/>
      <path d="M 59.625 54.6875 
L 50.296875 6.78125 
Q 47.609375 -7.125 40.015625 -13.953125 
Q 32.421875 -20.796875 19.578125 -20.796875 
Q 14.84375 -20.796875 10.78125 -20.09375 
Q 6.734375 -19.390625 3.21875 -17.921875 
L 4.890625 -9.1875 
Q 8.203125 -11.328125 11.90625 -12.34375 
Q 15.625 -13.375 19.828125 -13.375 
Q 28.375 -13.375 33.859375 -8.703125 
Q 39.359375 -4.046875 41.109375 4.6875 
L 41.890625 8.796875 
Q 38.140625 4.5 33.15625 2.25 
Q 28.171875 0 22.40625 0 
Q 14.109375 0 9.34375 5.484375 
Q 4.59375 10.984375 4.59375 20.609375 
Q 4.59375 28.171875 7.46875 35.421875 
Q 10.359375 42.671875 15.578125 48.296875 
Q 19.046875 52 23.65625 54 
Q 28.265625 56 33.296875 56 
Q 38.8125 56 42.90625 53.4375 
Q 47.015625 50.875 49.03125 46.1875 
L 50.59375 54.6875 
z
M 46.09375 34.625 
Q 46.09375 41.265625 42.96875 44.875 
Q 39.84375 48.484375 34.078125 48.484375 
Q 30.515625 48.484375 27.296875 47.0625 
Q 24.078125 45.65625 21.78125 43.109375 
Q 18.0625 38.921875 15.984375 33.234375 
Q 13.921875 27.546875 13.921875 21.484375 
Q 13.921875 14.75 17.0625 11.125 
Q 20.21875 7.515625 26.125 7.515625 
Q 34.671875 7.515625 40.375 15.25 
Q 46.09375 23 46.09375 34.625 
" id="DejaVuSans-Oblique-67"/>
      <path d="M 53.71875 31.203125 
L 47.609375 0 
L 38.625 0 
L 40.28125 8.296875 
Q 36.328125 3.421875 31.265625 1 
Q 26.21875 -1.421875 20.015625 -1.421875 
Q 13.03125 -1.421875 8.5625 2.84375 
Q 4.109375 7.125 4.109375 13.8125 
Q 4.109375 23.390625 11.75 28.953125 
Q 19.390625 34.515625 32.8125 34.515625 
L 45.3125 34.515625 
L 45.796875 36.921875 
Q 45.90625 37.3125 45.953125 37.765625 
Q 46 38.234375 46 39.203125 
Q 46 43.5625 42.453125 45.96875 
Q 38.921875 48.390625 32.515625 48.390625 
Q 28.125 48.390625 23.5 47.265625 
Q 18.890625 46.140625 14.015625 43.890625 
L 15.578125 52.203125 
Q 20.65625 54.109375 25.515625 55.046875 
Q 30.375 56 34.90625 56 
Q 44.578125 56 49.625 51.796875 
Q 54.6875 47.609375 54.6875 39.59375 
Q 54.6875 37.984375 54.4375 35.8125 
Q 54.203125 33.640625 53.71875 31.203125 
M 44 27.484375 
L 35.015625 27.484375 
Q 23.96875 27.484375 18.671875 24.53125 
Q 13.375 21.578125 13.375 15.375 
Q 13.375 11.078125 16.078125 8.640625 
Q 18.796875 6.203125 23.578125 6.203125 
Q 30.90625 6.203125 36.375 11.453125 
Q 41.84375 16.703125 43.609375 25.484375 
z
" id="DejaVuSans-Oblique-61"/>
      <path d="M 42.28125 54.6875 
L 40.921875 47.703125 
L 23 47.703125 
L 17.1875 18.015625 
Q 16.890625 16.359375 16.75 15.234375 
Q 16.609375 14.109375 16.609375 13.484375 
Q 16.609375 10.359375 18.484375 8.9375 
Q 20.359375 7.515625 24.515625 7.515625 
L 33.59375 7.515625 
L 32.078125 0 
L 23.484375 0 
Q 15.484375 0 11.546875 3.125 
Q 7.625 6.25 7.625 12.59375 
Q 7.625 13.71875 7.765625 15.0625 
Q 7.90625 16.40625 8.203125 18.015625 
L 14.015625 47.703125 
L 6.390625 47.703125 
L 7.8125 54.6875 
L 15.28125 54.6875 
L 18.3125 70.21875 
L 27.296875 70.21875 
L 24.3125 54.6875 
z
" id="DejaVuSans-Oblique-74"/>
      <path d="M 48.09375 32.234375 
Q 48.25 33.015625 48.3125 33.84375 
Q 48.390625 34.671875 48.390625 35.5 
Q 48.390625 41.453125 44.890625 44.921875 
Q 41.40625 48.390625 35.40625 48.390625 
Q 28.71875 48.390625 23.578125 44.15625 
Q 18.453125 39.9375 15.828125 32.171875 
z
M 55.90625 25.203125 
L 14.109375 25.203125 
Q 13.8125 23.34375 13.71875 22.265625 
Q 13.625 21.1875 13.625 20.40625 
Q 13.625 13.625 17.796875 9.90625 
Q 21.96875 6.203125 29.59375 6.203125 
Q 35.453125 6.203125 40.671875 7.515625 
Q 45.90625 8.84375 50.390625 11.375 
L 48.6875 2.484375 
Q 43.84375 0.53125 38.6875 -0.4375 
Q 33.546875 -1.421875 28.21875 -1.421875 
Q 16.84375 -1.421875 10.71875 4.015625 
Q 4.59375 9.46875 4.59375 19.484375 
Q 4.59375 28.03125 7.640625 35.375 
Q 10.6875 42.71875 16.609375 48.484375 
Q 20.40625 52.09375 25.65625 54.046875 
Q 30.90625 56 36.8125 56 
Q 46.09375 56 51.578125 50.4375 
Q 57.078125 44.875 57.078125 35.5 
Q 57.078125 33.25 56.78125 30.6875 
Q 56.5 28.125 55.90625 25.203125 
" id="DejaVuSans-Oblique-65"/>
      <path d="M 31 75.875 
Q 24.46875 64.65625 21.28125 53.65625 
Q 18.109375 42.671875 18.109375 31.390625 
Q 18.109375 20.125 21.3125 9.0625 
Q 24.515625 -2 31 -13.1875 
L 23.1875 -13.1875 
Q 15.875 -1.703125 12.234375 9.375 
Q 8.59375 20.453125 8.59375 31.390625 
Q 8.59375 42.28125 12.203125 53.3125 
Q 15.828125 64.359375 23.1875 75.875 
z
" id="DejaVuSans-28"/>
      <path d="M 36.8125 72.90625 
L 48 72.90625 
L 61.53125 0 
L 51.21875 0 
L 48.1875 18.703125 
L 15.375 18.703125 
L 5.078125 0 
L -5.328125 0 
z
M 40.375 63.1875 
L 19.921875 26.90625 
L 46.6875 26.90625 
z
" id="DejaVuSans-Oblique-41"/>
      <path d="M 8.015625 75.875 
L 15.828125 75.875 
Q 23.140625 64.359375 26.78125 53.3125 
Q 30.421875 42.28125 30.421875 31.390625 
Q 30.421875 20.453125 26.78125 9.375 
Q 23.140625 -1.703125 15.828125 -13.1875 
L 8.015625 -13.1875 
Q 14.5 -2 17.703125 9.0625 
Q 20.90625 20.125 20.90625 31.390625 
Q 20.90625 42.671875 17.703125 53.65625 
Q 14.5 64.65625 8.015625 75.875 
" id="DejaVuSans-29"/>
     </defs>
     <g style="fill:#01769d;" transform="translate(21.523188 101.55)rotate(-90)scale(0.1 -0.1)">
      <use transform="translate(0 0.125)" xlink:href="#DejaVuSans-Oblique-56"/>
      <use transform="translate(68.408203 -16.28125)scale(0.7)" xlink:href="#DejaVuSans-Oblique-67"/>
      <use transform="translate(112.841797 -16.28125)scale(0.7)" xlink:href="#DejaVuSans-Oblique-61"/>
      <use transform="translate(155.737305 -16.28125)scale(0.7)" xlink:href="#DejaVuSans-Oblique-74"/>
      <use transform="translate(183.183594 -16.28125)scale(0.7)" xlink:href="#DejaVuSans-Oblique-65"/>
      <use transform="translate(256.043511 0.125)" xlink:href="#DejaVuSans-28"/>
      <use transform="translate(295.057183 0.125)" xlink:href="#DejaVuSans-Oblique-41"/>
      <use transform="translate(363.465386 0.125)" xlink:href="#DejaVuSans-29"/>
     </g>
    </g>
   </g>
   <g id="line2d_31">
    <path clip-path="url(#p8f76f333f0)" d="M 77.523 121.450343 
L 82.789926 121.297152 
L 86.9535 121.275139 
L 95.944664 121.377495 
L 103.785977 121.316443 
L 112.560413 121.357254 
L 121.004903 121.342663 
L 130.579921 121.338481 
L 148.966578 121.338547 
L 166.359493 121.444185 
L 166.691515 121.445527 
L 166.848319 121.372513 
L 167.161927 121.04939 
L 167.581831 120.268796 
L 168.136076 118.682854 
L 168.739253 116.377795 
L 169.945609 110.507899 
L 171.151965 103.733372 
L 172.358321 95.479574 
L 173.680216 82.625909 
L 174.445286 75.563909 
L 175.322619 69.624605 
L 176.311969 64.553994 
L 177.467231 59.776866 
L 178.673587 55.61869 
L 179.879942 52.070483 
L 181.086298 49.013653 
L 182.292654 46.37143 
L 184.102187 43.057663 
L 185.911721 40.383453 
L 187.721255 38.222638 
L 189.530788 36.47507 
L 191.340322 35.06081 
L 193.149855 33.915641 
L 194.959389 32.988039 
L 197.3721 32.019014 
L 199.784812 31.286693 
L 203.403879 30.509191 
L 207.022946 29.997902 
L 211.848369 29.577271 
L 217.880148 29.294557 
L 227.530994 29.105913 
L 245.626329 29.025145 
L 261.00405 29.098929 
L 263.416761 29.264356 
L 264.49403 29.456332 
L 265.49632 29.855799 
L 266.610836 30.716975 
L 267.817191 32.164315 
L 269.023547 34.145389 
L 270.229903 36.650254 
L 271.436259 39.697088 
L 272.642614 43.346587 
L 273.84897 47.713933 
L 275.055326 52.972122 
L 276.261681 59.335869 
L 277.468037 67.022367 
L 278.674393 76.189738 
L 279.880749 86.845901 
L 283.499816 121.512454 
L 284.102994 125.835669 
L 284.706172 129.245436 
L 285.309349 131.6674 
L 285.912527 133.10121 
L 286.515705 133.606147 
L 287.118883 133.280192 
L 287.722061 132.243081 
L 288.325239 130.62696 
L 289.531594 126.220611 
L 291.90358 116.741298 
L 293.049947 113.503537 
L 293.653125 112.463111 
L 294.256303 111.918076 
L 294.859481 111.892771 
L 295.462658 112.370703 
L 296.065836 113.306643 
L 296.669014 114.632134 
L 297.87537 118.109036 
L 299.674809 123.87278 
L 300.881165 126.857511 
L 301.484343 127.804807 
L 302.087521 128.324361 
L 302.690699 128.408682 
L 303.293876 128.079036 
L 303.897054 127.379777 
L 304.500232 126.372537 
L 305.706588 123.734635 
L 307.516122 119.435878 
L 308.629912 117.329148 
L 309.120575 116.672317 
L 309.723753 116.125667 
L 310.326931 115.867088 
L 310.930109 115.913064 
L 311.533287 116.250953 
L 312.136464 116.852523 
L 313.34282 118.669489 
L 316.251456 123.854543 
L 316.854634 124.606958 
L 317.457812 125.141456 
L 318.060989 125.436141 
L 318.664167 125.484836 
L 319.267345 125.296426 
L 319.870523 124.893089 
L 321.076879 123.581982 
L 324.092768 119.495665 
L 325.127018 118.56641 
L 325.730196 118.253738 
L 326.333373 118.113874 
L 326.936551 118.154415 
L 327.539729 118.36689 
L 328.746085 119.229459 
L 330.461754 121.048464 
L 331.625941 122.290768 
L 332.832297 123.272537 
L 333.435475 123.583387 
L 334.038653 123.754852 
L 334.641831 123.783097 
L 335.245009 123.672703 
L 336.451364 123.091484 
L 337.65772 122.178234 
L 340.070431 120.243099 
L 341.145127 119.678216 
L 342.351482 119.426996 
L 343.557838 119.595173 
L 344.764194 120.119965 
L 348.809797 122.485082 
L 350.014217 122.767611 
L 351.220573 122.71862 
L 352.426929 122.374649 
L 354.236462 121.529057 
L 356.045996 120.686018 
L 357.211601 120.331141 
L 358.417957 120.20227 
L 359.624312 120.322285 
L 360.830668 120.648515 
L 364.888421 122.041214 
L 366.094777 122.191157 
L 367.301132 122.144655 
L 369.110666 121.772035 
L 372.693389 120.812378 
L 374.502923 120.663434 
L 376.312456 120.838874 
L 381.687573 121.830291 
L 383.497107 121.800338 
L 385.909818 121.452471 
L 388.801435 121.011162 
L 390.610969 120.938822 
L 393.02368 121.12767 
L 397.687583 121.633425 
L 400.100294 121.574524 
L 406.562091 121.101569 
L 409.57798 121.261141 
L 413.764784 121.518095 
L 416.780673 121.445026 
L 422.804194 121.201696 
L 427.629617 121.393616 
L 429.863 121.449373 
L 429.863 121.449373 
" style="fill:none;stroke:#fe3ea0;stroke-linecap:square;stroke-width:1.5;"/>
   </g>
   <g id="patch_3">
    <path d="M 59.906 148.04 
L 59.906 14.76 
" style="fill:none;stroke:#08bdf9;stroke-linecap:square;stroke-linejoin:miter;stroke-width:0.8;"/>
   </g>
   <g id="patch_4">
    <path d="M 59.906 148.04 
L 447.48 148.04 
" style="fill:none;stroke:#08bdf9;stroke-linecap:square;stroke-linejoin:miter;stroke-width:0.8;"/>
   </g>
  </g>
  <g id="axes_2">
   <g id="patch_5">
    <path d="M 59.906 300.76 
L 447.48 300.76 
L 447.48 167.48 
L 59.906 167.48 
z
" style="fill:#ffffff;"/>
   </g>
   <g id="matplotlib.axis_3">
    <g id="xtick_10">
     <g id="line2d_32">
      <path clip-path="url(#p5ecb7fb25e)" d="M 76.929129 300.76 
L 76.929129 167.48 
" style="fill:none;stroke:#08bdf9;stroke-dasharray:2.2,2.2;stroke-dashoffset:0;stroke-width:0.8;"/>
     </g>
     <g id="line2d_33">
      <g>
       <use style="fill:#01769d;stroke:#01769d;stroke-width:0.8;" x="76.929129" xlink:href="#md88e215ea2" y="300.76"/>
      </g>
     </g>
     <g id="text_8">
      <!-- 0.0 -->
      <g style="fill:#01769d;" transform="translate(68.977567 315.358437)scale(0.1 -0.1)">
       <use xlink:href="#DejaVuSans-30"/>
       <use x="63.623047" xlink:href="#DejaVuSans-2e"/>
       <use x="95.410156" xlink:href="#DejaVuSans-30"/>
      </g>
     </g>
    </g>
    <g id="xtick_11">
     <g id="line2d_34">
      <path clip-path="url(#p5ecb7fb25e)" d="M 121.047281 300.76 
L 121.047281 167.48 
" style="fill:none;stroke:#08bdf9;stroke-dasharray:2.2,2.2;stroke-dashoffset:0;stroke-width:0.8;"/>
     </g>
     <g id="line2d_35">
      <g>
       <use style="fill:#01769d;stroke:#01769d;stroke-width:0.8;" x="121.047281" xlink:href="#md88e215ea2" y="300.76"/>
      </g>
     </g>
     <g id="text_9">
      <!-- 0.5 -->
      <defs>
       <path d="M 10.796875 72.90625 
L 49.515625 72.90625 
L 49.515625 64.59375 
L 19.828125 64.59375 
L 19.828125 46.734375 
Q 21.96875 47.46875 24.109375 47.828125 
Q 26.265625 48.1875 28.421875 48.1875 
Q 40.625 48.1875 47.75 41.5 
Q 54.890625 34.8125 54.890625 23.390625 
Q 54.890625 11.625 47.5625 5.09375 
Q 40.234375 -1.421875 26.90625 -1.421875 
Q 22.3125 -1.421875 17.546875 -0.640625 
Q 12.796875 0.140625 7.71875 1.703125 
L 7.71875 11.625 
Q 12.109375 9.234375 16.796875 8.0625 
Q 21.484375 6.890625 26.703125 6.890625 
Q 35.15625 6.890625 40.078125 11.328125 
Q 45.015625 15.765625 45.015625 23.390625 
Q 45.015625 31 40.078125 35.4375 
Q 35.15625 39.890625 26.703125 39.890625 
Q 22.75 39.890625 18.8125 39.015625 
Q 14.890625 38.140625 10.796875 36.28125 
z
" id="DejaVuSans-35"/>
      </defs>
      <g style="fill:#01769d;" transform="translate(113.095719 315.358437)scale(0.1 -0.1)">
       <use xlink:href="#DejaVuSans-30"/>
       <use x="63.623047" xlink:href="#DejaVuSans-2e"/>
       <use x="95.410156" xlink:href="#DejaVuSans-35"/>
      </g>
     </g>
    </g>
    <g id="xtick_12">
     <g id="line2d_36">
      <path clip-path="url(#p5ecb7fb25e)" d="M 165.165433 300.76 
L 165.165433 167.48 
" style="fill:none;stroke:#08bdf9;stroke-dasharray:2.2,2.2;stroke-dashoffset:0;stroke-width:0.8;"/>
     </g>
     <g id="line2d_37">
      <g>
       <use style="fill:#01769d;stroke:#01769d;stroke-width:0.8;" x="165.165433" xlink:href="#md88e215ea2" y="300.76"/>
      </g>
     </g>
     <g id="text_10">
      <!-- 1.0 -->
      <g style="fill:#01769d;" transform="translate(157.213871 315.358437)scale(0.1 -0.1)">
       <use xlink:href="#DejaVuSans-31"/>
       <use x="63.623047" xlink:href="#DejaVuSans-2e"/>
       <use x="95.410156" xlink:href="#DejaVuSans-30"/>
      </g>
     </g>
    </g>
    <g id="xtick_13">
     <g id="line2d_38">
      <path clip-path="url(#p5ecb7fb25e)" d="M 209.283586 300.76 
L 209.283586 167.48 
" style="fill:none;stroke:#08bdf9;stroke-dasharray:2.2,2.2;stroke-dashoffset:0;stroke-width:0.8;"/>
     </g>
     <g id="line2d_39">
      <g>
       <use style="fill:#01769d;stroke:#01769d;stroke-width:0.8;" x="209.283586" xlink:href="#md88e215ea2" y="300.76"/>
      </g>
     </g>
     <g id="text_11">
      <!-- 1.5 -->
      <g style="fill:#01769d;" transform="translate(201.332023 315.358437)scale(0.1 -0.1)">
       <use xlink:href="#DejaVuSans-31"/>
       <use x="63.623047" xlink:href="#DejaVuSans-2e"/>
       <use x="95.410156" xlink:href="#DejaVuSans-35"/>
      </g>
     </g>
    </g>
    <g id="xtick_14">
     <g id="line2d_40">
      <path clip-path="url(#p5ecb7fb25e)" d="M 253.401738 300.76 
L 253.401738 167.48 
" style="fill:none;stroke:#08bdf9;stroke-dasharray:2.2,2.2;stroke-dashoffset:0;stroke-width:0.8;"/>
     </g>
     <g id="line2d_41">
      <g>
       <use style="fill:#01769d;stroke:#01769d;stroke-width:0.8;" x="253.401738" xlink:href="#md88e215ea2" y="300.76"/>
      </g>
     </g>
     <g id="text_12">
      <!-- 2.0 -->
      <g style="fill:#01769d;" transform="translate(245.450175 315.358437)scale(0.1 -0.1)">
       <use xlink:href="#DejaVuSans-32"/>
       <use x="63.623047" xlink:href="#DejaVuSans-2e"/>
       <use x="95.410156" xlink:href="#DejaVuSans-30"/>
      </g>
     </g>
    </g>
    <g id="xtick_15">
     <g id="line2d_42">
      <path clip-path="url(#p5ecb7fb25e)" d="M 297.51989 300.76 
L 297.51989 167.48 
" style="fill:none;stroke:#08bdf9;stroke-dasharray:2.2,2.2;stroke-dashoffset:0;stroke-width:0.8;"/>
     </g>
     <g id="line2d_43">
      <g>
       <use style="fill:#01769d;stroke:#01769d;stroke-width:0.8;" x="297.51989" xlink:href="#md88e215ea2" y="300.76"/>
      </g>
     </g>
     <g id="text_13">
      <!-- 2.5 -->
      <g style="fill:#01769d;" transform="translate(289.568327 315.358437)scale(0.1 -0.1)">
       <use xlink:href="#DejaVuSans-32"/>
       <use x="63.623047" xlink:href="#DejaVuSans-2e"/>
       <use x="95.410156" xlink:href="#DejaVuSans-35"/>
      </g>
     </g>
    </g>
    <g id="xtick_16">
     <g id="line2d_44">
      <path clip-path="url(#p5ecb7fb25e)" d="M 341.638042 300.76 
L 341.638042 167.48 
" style="fill:none;stroke:#08bdf9;stroke-dasharray:2.2,2.2;stroke-dashoffset:0;stroke-width:0.8;"/>
     </g>
     <g id="line2d_45">
      <g>
       <use style="fill:#01769d;stroke:#01769d;stroke-width:0.8;" x="341.638042" xlink:href="#md88e215ea2" y="300.76"/>
      </g>
     </g>
     <g id="text_14">
      <!-- 3.0 -->
      <g style="fill:#01769d;" transform="translate(333.68648 315.358437)scale(0.1 -0.1)">
       <use xlink:href="#DejaVuSans-33"/>
       <use x="63.623047" xlink:href="#DejaVuSans-2e"/>
       <use x="95.410156" xlink:href="#DejaVuSans-30"/>
      </g>
     </g>
    </g>
    <g id="xtick_17">
     <g id="line2d_46">
      <path clip-path="url(#p5ecb7fb25e)" d="M 385.756194 300.76 
L 385.756194 167.48 
" style="fill:none;stroke:#08bdf9;stroke-dasharray:2.2,2.2;stroke-dashoffset:0;stroke-width:0.8;"/>
     </g>
     <g id="line2d_47">
      <g>
       <use style="fill:#01769d;stroke:#01769d;stroke-width:0.8;" x="385.756194" xlink:href="#md88e215ea2" y="300.76"/>
      </g>
     </g>
     <g id="text_15">
      <!-- 3.5 -->
      <g style="fill:#01769d;" transform="translate(377.804632 315.358437)scale(0.1 -0.1)">
       <use xlink:href="#DejaVuSans-33"/>
       <use x="63.623047" xlink:href="#DejaVuSans-2e"/>
       <use x="95.410156" xlink:href="#DejaVuSans-35"/>
      </g>
     </g>
    </g>
    <g id="xtick_18">
     <g id="line2d_48">
      <path clip-path="url(#p5ecb7fb25e)" d="M 429.874346 300.76 
L 429.874346 167.48 
" style="fill:none;stroke:#08bdf9;stroke-dasharray:2.2,2.2;stroke-dashoffset:0;stroke-width:0.8;"/>
     </g>
     <g id="line2d_49">
      <g>
       <use style="fill:#01769d;stroke:#01769d;stroke-width:0.8;" x="429.874346" xlink:href="#md88e215ea2" y="300.76"/>
      </g>
     </g>
     <g id="text_16">
      <!-- 4.0 -->
      <g style="fill:#01769d;" transform="translate(421.922784 315.358437)scale(0.1 -0.1)">
       <use xlink:href="#DejaVuSans-34"/>
       <use x="63.623047" xlink:href="#DejaVuSans-2e"/>
       <use x="95.410156" xlink:href="#DejaVuSans-30"/>
      </g>
     </g>
    </g>
    <g id="text_17">
     <!-- $t\;(\mu s)$ -->
     <defs>
      <path d="M -1.3125 -20.796875 
L 13.375 54.6875 
L 22.40625 54.6875 
L 15.765625 20.65625 
Q 15.578125 19.625 15.421875 18.359375 
Q 15.28125 17.09375 15.28125 15.828125 
Q 15.28125 11.28125 18.140625 8.828125 
Q 21 6.390625 26.3125 6.390625 
Q 33.546875 6.390625 37.984375 10.484375 
Q 42.4375 14.59375 44 22.796875 
L 50.203125 54.6875 
L 59.1875 54.6875 
L 51.03125 12.640625 
Q 50.828125 11.71875 50.75 11.03125 
Q 50.6875 10.359375 50.6875 9.8125 
Q 50.6875 8.296875 51.296875 7.59375 
Q 51.90625 6.890625 53.21875 6.890625 
Q 53.71875 6.890625 54.5625 7.125 
Q 55.421875 7.375 56.984375 8.015625 
L 55.609375 0.78125 
Q 53.46875 -0.296875 51.515625 -0.859375 
Q 49.5625 -1.421875 47.703125 -1.421875 
Q 44.484375 -1.421875 42.65625 0.625 
Q 40.828125 2.6875 40.828125 6.296875 
Q 38.09375 2.390625 34.296875 0.484375 
Q 30.515625 -1.421875 25.390625 -1.421875 
Q 20.84375 -1.421875 17.453125 0.671875 
Q 14.0625 2.78125 12.984375 6.203125 
L 7.71875 -20.796875 
z
" id="DejaVuSans-Oblique-3bc"/>
      <path d="M 50 53.078125 
L 48.296875 44.578125 
Q 44.734375 46.53125 40.765625 47.5 
Q 36.8125 48.484375 32.625 48.484375 
Q 25.53125 48.484375 21.453125 46.0625 
Q 17.390625 43.65625 17.390625 39.5 
Q 17.390625 34.671875 26.859375 32.078125 
Q 27.59375 31.890625 27.9375 31.78125 
L 30.8125 30.90625 
Q 39.796875 28.421875 42.796875 25.6875 
Q 45.796875 22.953125 45.796875 18.21875 
Q 45.796875 9.515625 38.890625 4.046875 
Q 31.984375 -1.421875 20.796875 -1.421875 
Q 16.453125 -1.421875 11.671875 -0.578125 
Q 6.890625 0.25 1.125 2 
L 2.875 11.28125 
Q 7.8125 8.734375 12.59375 7.421875 
Q 17.390625 6.109375 21.78125 6.109375 
Q 28.375 6.109375 32.5 8.9375 
Q 36.625 11.765625 36.625 16.109375 
Q 36.625 20.796875 25.78125 23.6875 
L 24.859375 23.921875 
L 21.78125 24.703125 
Q 14.9375 26.515625 11.765625 29.46875 
Q 8.59375 32.421875 8.59375 37.015625 
Q 8.59375 45.75 15.15625 50.875 
Q 21.734375 56 33.015625 56 
Q 37.453125 56 41.671875 55.265625 
Q 45.90625 54.546875 50 53.078125 
" id="DejaVuSans-Oblique-73"/>
     </defs>
     <g style="fill:#01769d;" transform="translate(240.643 329.038125)scale(0.1 -0.1)">
      <use transform="translate(0 0.125)" xlink:href="#DejaVuSans-Oblique-74"/>
      <use transform="translate(66.26812 0.125)" xlink:href="#DejaVuSans-28"/>
      <use transform="translate(105.281792 0.125)" xlink:href="#DejaVuSans-Oblique-3bc"/>
      <use transform="translate(168.904839 0.125)" xlink:href="#DejaVuSans-Oblique-73"/>
      <use transform="translate(221.004448 0.125)" xlink:href="#DejaVuSans-29"/>
     </g>
    </g>
   </g>
   <g id="matplotlib.axis_4">
    <g id="ytick_7">
     <g id="line2d_50">
      <path clip-path="url(#p5ecb7fb25e)" d="M 59.906 292.43 
L 447.48 292.43 
" style="fill:none;stroke:#08bdf9;stroke-dasharray:2.2,2.2;stroke-dashoffset:0;stroke-width:0.8;"/>
     </g>
     <g id="line2d_51">
      <g>
       <use style="fill:#01769d;stroke:#01769d;stroke-width:0.8;" x="59.906" xlink:href="#m49dbdc804c" y="292.43"/>
      </g>
     </g>
     <g id="text_18">
      <!-- 0 -->
      <g style="fill:#01769d;" transform="translate(46.5435 296.229219)scale(0.1 -0.1)">
       <use xlink:href="#DejaVuSans-30"/>
      </g>
     </g>
    </g>
    <g id="ytick_8">
     <g id="line2d_52">
      <path clip-path="url(#p5ecb7fb25e)" d="M 59.906 259.11 
L 447.48 259.11 
" style="fill:none;stroke:#08bdf9;stroke-dasharray:2.2,2.2;stroke-dashoffset:0;stroke-width:0.8;"/>
     </g>
     <g id="line2d_53">
      <g>
       <use style="fill:#01769d;stroke:#01769d;stroke-width:0.8;" x="59.906" xlink:href="#m49dbdc804c" y="259.11"/>
      </g>
     </g>
     <g id="text_19">
      <!-- 2 -->
      <g style="fill:#01769d;" transform="translate(46.5435 262.909219)scale(0.1 -0.1)">
       <use xlink:href="#DejaVuSans-32"/>
      </g>
     </g>
    </g>
    <g id="ytick_9">
     <g id="line2d_54">
      <path clip-path="url(#p5ecb7fb25e)" d="M 59.906 225.79 
L 447.48 225.79 
" style="fill:none;stroke:#08bdf9;stroke-dasharray:2.2,2.2;stroke-dashoffset:0;stroke-width:0.8;"/>
     </g>
     <g id="line2d_55">
      <g>
       <use style="fill:#01769d;stroke:#01769d;stroke-width:0.8;" x="59.906" xlink:href="#m49dbdc804c" y="225.79"/>
      </g>
     </g>
     <g id="text_20">
      <!-- 4 -->
      <g style="fill:#01769d;" transform="translate(46.5435 229.589219)scale(0.1 -0.1)">
       <use xlink:href="#DejaVuSans-34"/>
      </g>
     </g>
    </g>
    <g id="ytick_10">
     <g id="line2d_56">
      <path clip-path="url(#p5ecb7fb25e)" d="M 59.906 192.47 
L 447.48 192.47 
" style="fill:none;stroke:#08bdf9;stroke-dasharray:2.2,2.2;stroke-dashoffset:0;stroke-width:0.8;"/>
     </g>
     <g id="line2d_57">
      <g>
       <use style="fill:#01769d;stroke:#01769d;stroke-width:0.8;" x="59.906" xlink:href="#m49dbdc804c" y="192.47"/>
      </g>
     </g>
     <g id="text_21">
      <!-- 6 -->
      <defs>
       <path d="M 33.015625 40.375 
Q 26.375 40.375 22.484375 35.828125 
Q 18.609375 31.296875 18.609375 23.390625 
Q 18.609375 15.53125 22.484375 10.953125 
Q 26.375 6.390625 33.015625 6.390625 
Q 39.65625 6.390625 43.53125 10.953125 
Q 47.40625 15.53125 47.40625 23.390625 
Q 47.40625 31.296875 43.53125 35.828125 
Q 39.65625 40.375 33.015625 40.375 
M 52.59375 71.296875 
L 52.59375 62.3125 
Q 48.875 64.0625 45.09375 64.984375 
Q 41.3125 65.921875 37.59375 65.921875 
Q 27.828125 65.921875 22.671875 59.328125 
Q 17.53125 52.734375 16.796875 39.40625 
Q 19.671875 43.65625 24.015625 45.921875 
Q 28.375 48.1875 33.59375 48.1875 
Q 44.578125 48.1875 50.953125 41.515625 
Q 57.328125 34.859375 57.328125 23.390625 
Q 57.328125 12.15625 50.6875 5.359375 
Q 44.046875 -1.421875 33.015625 -1.421875 
Q 20.359375 -1.421875 13.671875 8.265625 
Q 6.984375 17.96875 6.984375 36.375 
Q 6.984375 53.65625 15.1875 63.9375 
Q 23.390625 74.21875 37.203125 74.21875 
Q 40.921875 74.21875 44.703125 73.484375 
Q 48.484375 72.75 52.59375 71.296875 
" id="DejaVuSans-36"/>
      </defs>
      <g style="fill:#01769d;" transform="translate(46.5435 196.269219)scale(0.1 -0.1)">
       <use xlink:href="#DejaVuSans-36"/>
      </g>
     </g>
    </g>
    <g id="text_22">
     <!-- $I_{LED}\;(A)$ -->
     <defs>
      <path d="M 16.890625 72.90625 
L 26.8125 72.90625 
L 12.59375 0 
L 2.6875 0 
z
" id="DejaVuSans-Oblique-49"/>
      <path d="M 16.796875 72.90625 
L 26.703125 72.90625 
L 14.203125 8.203125 
L 49.703125 8.203125 
L 48.09375 0 
L 2.6875 0 
z
" id="DejaVuSans-Oblique-4c"/>
      <path d="M 16.890625 72.90625 
L 62.984375 72.90625 
L 61.375 64.59375 
L 25.09375 64.59375 
L 20.90625 43.015625 
L 55.71875 43.015625 
L 54.109375 34.71875 
L 19.28125 34.71875 
L 14.203125 8.296875 
L 51.3125 8.296875 
L 49.703125 0 
L 2.6875 0 
z
" id="DejaVuSans-Oblique-45"/>
      <path d="M 16.890625 72.90625 
L 38.09375 72.90625 
Q 54.984375 72.90625 63.59375 65.75 
Q 72.21875 58.59375 72.21875 44.484375 
Q 72.21875 35.15625 68.9375 26.53125 
Q 65.671875 17.921875 59.90625 12.015625 
Q 54.109375 5.953125 45.171875 2.96875 
Q 36.234375 0 24.03125 0 
L 2.6875 0 
z
M 25.203125 64.796875 
L 14.203125 8.109375 
L 27.09375 8.109375 
Q 43.65625 8.109375 52.734375 17.625 
Q 61.8125 27.15625 61.8125 44.484375 
Q 61.8125 54.984375 55.953125 59.890625 
Q 50.09375 64.796875 37.59375 64.796875 
z
" id="DejaVuSans-Oblique-44"/>
     </defs>
     <g style="fill:#01769d;" transform="translate(40.463813 251.27)rotate(-90)scale(0.1 -0.1)">
      <use transform="translate(0 0.125)" xlink:href="#DejaVuSans-Oblique-49"/>
      <use transform="translate(29.492188 -16.28125)scale(0.7)" xlink:href="#DejaVuSans-Oblique-4c"/>
      <use transform="translate(68.491211 -16.28125)scale(0.7)" xlink:href="#DejaVuSans-Oblique-45"/>
      <use transform="translate(112.719727 -16.28125)scale(0.7)" xlink:href="#DejaVuSans-Oblique-44"/>
      <use transform="translate(196.414604 0.125)" xlink:href="#DejaVuSans-28"/>
      <use transform="translate(235.428276 0.125)" xlink:href="#DejaVuSans-Oblique-41"/>
      <use transform="translate(303.836479 0.125)" xlink:href="#DejaVuSans-29"/>
     </g>
    </g>
   </g>
   <g id="line2d_58">
    <path clip-path="url(#p5ecb7fb25e)" d="M 77.523 212.335651 
L 80.538889 212.492105 
L 83.334432 212.371836 
L 88.763033 211.978027 
L 91.722419 212.02939 
L 97.15102 212.187526 
L 101.373265 211.985924 
L 105.59551 211.840449 
L 117.989014 211.770493 
L 122.814437 211.690792 
L 131.786277 211.656122 
L 140.020136 211.528157 
L 148.966578 211.443491 
L 158.617424 211.351161 
L 165.327148 211.221896 
L 165.491477 210.633148 
L 166.090299 208.936861 
L 166.188242 209.078037 
L 166.359493 210.918368 
L 166.848319 222.920532 
L 167.581831 239.406185 
L 168.136076 249.408499 
L 168.739253 258.215141 
L 169.342431 265.146534 
L 170.548787 275.132055 
L 171.755143 282.426251 
L 172.961498 288.553981 
L 173.680216 291.313357 
L 174.147851 291.778876 
L 174.698452 291.976215 
L 175.728716 292.123338 
L 178.673587 292.236974 
L 189.530788 292.293167 
L 255.575449 292.281831 
L 259.797694 292.113182 
L 261.607228 291.89784 
L 262.813583 291.55285 
L 263.416761 291.209825 
L 264.019939 290.614651 
L 264.49403 289.816954 
L 266.007658 286.038191 
L 268.420369 279.333063 
L 270.229903 273.494094 
L 271.436259 268.88009 
L 272.642614 263.344822 
L 273.84897 256.51942 
L 275.055326 248.061471 
L 276.261681 237.774171 
L 277.468037 225.714464 
L 281.087104 187.438097 
L 281.690282 184.070311 
L 282.29346 182.743725 
L 282.896638 183.516683 
L 283.499816 186.22225 
L 284.102994 190.572443 
L 285.309349 202.74174 
L 287.722061 229.475858 
L 288.325239 234.450784 
L 288.928417 238.18494 
L 289.531594 240.529552 
L 290.134772 241.418596 
L 290.73795 240.888591 
L 291.300402 239.151687 
L 291.90358 236.104922 
L 293.049947 227.818988 
L 295.462658 207.002235 
L 296.065836 202.745505 
L 296.669014 199.347031 
L 297.272192 196.963202 
L 297.87537 195.687279 
L 298.478548 195.541504 
L 299.071631 196.471365 
L 299.674809 198.409657 
L 300.277987 201.189078 
L 301.484343 208.484025 
L 303.293876 220.314758 
L 303.897054 223.607507 
L 304.500232 226.275306 
L 305.10341 228.196837 
L 305.706588 229.29713 
L 306.309766 229.549262 
L 306.912944 228.973226 
L 307.516122 227.632713 
L 308.119299 225.64769 
L 309.120575 221.220795 
L 311.533287 209.17145 
L 312.136464 206.778308 
L 312.739642 204.901359 
L 313.34282 203.62477 
L 313.945998 202.975863 
L 314.474924 202.959286 
L 315.0451 203.51498 
L 315.648278 204.653825 
L 316.251456 206.277475 
L 317.457812 210.542835 
L 319.267345 217.480375 
L 320.473701 220.988821 
L 321.076879 222.123084 
L 321.680057 222.77434 
L 322.283235 222.925513 
L 322.886412 222.587415 
L 323.48959 221.797131 
L 324.092768 220.623751 
L 325.127018 217.914268 
L 327.539729 210.815709 
L 328.142907 209.419268 
L 328.746085 208.33037 
L 329.349263 207.597147 
L 329.952441 207.231093 
L 330.461754 207.231127 
L 331.022764 207.558612 
L 331.625941 208.23021 
L 332.229119 209.185711 
L 333.435475 211.69654 
L 335.245009 215.782988 
L 336.451364 217.849594 
L 337.054542 218.516577 
L 337.65772 218.897725 
L 338.260898 218.982657 
L 338.864076 218.777656 
L 339.467254 218.304629 
L 340.612722 216.811743 
L 344.161016 210.898476 
L 344.764194 210.266062 
L 345.367372 209.84583 
L 345.97055 209.640912 
L 346.45247 209.647143 
L 347.000264 209.839599 
L 347.603442 210.236474 
L 348.809797 211.496153 
L 351.823751 215.360657 
L 352.426929 215.905205 
L 353.030106 216.296316 
L 353.633284 216.517794 
L 354.236462 216.563409 
L 354.83964 216.436876 
L 355.442818 216.15124 
L 356.649174 215.195673 
L 360.22749 211.662087 
L 361.433846 211.070773 
L 362.566242 210.992838 
L 363.682065 211.370353 
L 364.888421 212.138463 
L 367.90431 214.400208 
L 369.110666 214.915268 
L 370.317022 215.029872 
L 371.487033 214.755182 
L 372.693389 214.162936 
L 376.312456 212.037953 
L 377.518812 211.709185 
L 378.725168 211.698322 
L 379.917733 211.976144 
L 381.687573 212.726078 
L 383.497107 213.536187 
L 384.703463 213.901607 
L 385.909818 214.038736 
L 387.088793 213.936943 
L 388.801435 213.451121 
L 392.420502 212.182745 
L 393.626858 212.002234 
L 394.833214 212.01173 
L 396.531833 212.299848 
L 400.703472 213.285104 
L 402.513006 213.3357 
L 404.245299 213.100178 
L 408.974802 212.144111 
L 410.784336 212.099045 
L 413.161606 212.362057 
L 416.780673 212.8358 
L 418.581949 212.84443 
L 420.99466 212.593114 
L 424.613727 212.127317 
L 427.026439 212.076671 
L 429.863 212.281506 
L 429.863 212.281506 
" style="fill:none;stroke:#fe3ea0;stroke-linecap:square;stroke-width:1.5;"/>
   </g>
   <g id="patch_6">
    <path d="M 59.906 300.76 
L 59.906 167.48 
" style="fill:none;stroke:#08bdf9;stroke-linecap:square;stroke-linejoin:miter;stroke-width:0.8;"/>
   </g>
   <g id="patch_7">
    <path d="M 59.906 300.76 
L 447.48 300.76 
" style="fill:none;stroke:#08bdf9;stroke-linecap:square;stroke-linejoin:miter;stroke-width:0.8;"/>
   </g>
  </g>
 </g>
 <defs>
  <clipPath id="p8f76f333f0">
   <rect height="133.28" width="387.574" x="59.906" y="14.76"/>
  </clipPath>
  <clipPath id="p5ecb7fb25e">
   <rect height="133.28" width="387.574" x="59.906" y="167.48"/>
  </clipPath>
 </defs>
</svg>
