<?xml version="1.0" encoding="utf-8" standalone="no"?>
<!DOCTYPE svg PUBLIC "-//W3C//DTD SVG 1.1//EN"
  "http://www.w3.org/Graphics/SVG/1.1/DTD/svg11.dtd">
<!-- Created with matplotlib (http://matplotlib.org/) -->
<svg height="345pt" version="1.1" viewBox="0 0 460 345" width="460pt" xmlns="http://www.w3.org/2000/svg" xmlns:xlink="http://www.w3.org/1999/xlink">
 <defs>
  <style type="text/css">
*{stroke-linecap:butt;stroke-linejoin:round;}
  </style>
 </defs>
 <g id="figure_1">
  <g id="patch_1">
   <path d="M 0 345.6 
L 460.8 345.6 
L 460.8 0 
L 0 0 
z
" style="fill:#ffffff;"/>
  </g>
  <g id="axes_1">
   <g id="patch_2">
    <path d="M 59.906 148.04 
L 447.48 148.04 
L 447.48 14.76 
L 59.906 14.76 
z
" style="fill:#ffffff;"/>
   </g>
   <g id="matplotlib.axis_1">
    <g id="xtick_1">
     <g id="line2d_1">
      <path clip-path="url(#pd91fca6433)" d="M 77.431 148.04 
L 77.431 14.76 
" style="fill:none;stroke:#08bdf9;stroke-dasharray:2.2,2.2;stroke-dashoffset:0;stroke-width:0.8;"/>
     </g>
     <g id="line2d_2">
      <defs>
       <path d="M 0 0 
L 0 3.5 
" id="ma3d4688e71" style="stroke:#01769d;stroke-width:0.8;"/>
      </defs>
      <g>
       <use style="fill:#01769d;stroke:#01769d;stroke-width:0.8;" x="77.431" xlink:href="#ma3d4688e71" y="148.04"/>
      </g>
     </g>
    </g>
    <g id="xtick_2">
     <g id="line2d_3">
      <path clip-path="url(#pd91fca6433)" d="M 121.485473 148.04 
L 121.485473 14.76 
" style="fill:none;stroke:#08bdf9;stroke-dasharray:2.2,2.2;stroke-dashoffset:0;stroke-width:0.8;"/>
     </g>
     <g id="line2d_4">
      <g>
       <use style="fill:#01769d;stroke:#01769d;stroke-width:0.8;" x="121.485473" xlink:href="#ma3d4688e71" y="148.04"/>
      </g>
     </g>
    </g>
    <g id="xtick_3">
     <g id="line2d_5">
      <path clip-path="url(#pd91fca6433)" d="M 165.539946 148.04 
L 165.539946 14.76 
" style="fill:none;stroke:#08bdf9;stroke-dasharray:2.2,2.2;stroke-dashoffset:0;stroke-width:0.8;"/>
     </g>
     <g id="line2d_6">
      <g>
       <use style="fill:#01769d;stroke:#01769d;stroke-width:0.8;" x="165.539946" xlink:href="#ma3d4688e71" y="148.04"/>
      </g>
     </g>
    </g>
    <g id="xtick_4">
     <g id="line2d_7">
      <path clip-path="url(#pd91fca6433)" d="M 209.594419 148.04 
L 209.594419 14.76 
" style="fill:none;stroke:#08bdf9;stroke-dasharray:2.2,2.2;stroke-dashoffset:0;stroke-width:0.8;"/>
     </g>
     <g id="line2d_8">
      <g>
       <use style="fill:#01769d;stroke:#01769d;stroke-width:0.8;" x="209.594419" xlink:href="#ma3d4688e71" y="148.04"/>
      </g>
     </g>
    </g>
    <g id="xtick_5">
     <g id="line2d_9">
      <path clip-path="url(#pd91fca6433)" d="M 253.648892 148.04 
L 253.648892 14.76 
" style="fill:none;stroke:#08bdf9;stroke-dasharray:2.2,2.2;stroke-dashoffset:0;stroke-width:0.8;"/>
     </g>
     <g id="line2d_10">
      <g>
       <use style="fill:#01769d;stroke:#01769d;stroke-width:0.8;" x="253.648892" xlink:href="#ma3d4688e71" y="148.04"/>
      </g>
     </g>
    </g>
    <g id="xtick_6">
     <g id="line2d_11">
      <path clip-path="url(#pd91fca6433)" d="M 297.703365 148.04 
L 297.703365 14.76 
" style="fill:none;stroke:#08bdf9;stroke-dasharray:2.2,2.2;stroke-dashoffset:0;stroke-width:0.8;"/>
     </g>
     <g id="line2d_12">
      <g>
       <use style="fill:#01769d;stroke:#01769d;stroke-width:0.8;" x="297.703365" xlink:href="#ma3d4688e71" y="148.04"/>
      </g>
     </g>
    </g>
    <g id="xtick_7">
     <g id="line2d_13">
      <path clip-path="url(#pd91fca6433)" d="M 341.757838 148.04 
L 341.757838 14.76 
" style="fill:none;stroke:#08bdf9;stroke-dasharray:2.2,2.2;stroke-dashoffset:0;stroke-width:0.8;"/>
     </g>
     <g id="line2d_14">
      <g>
       <use style="fill:#01769d;stroke:#01769d;stroke-width:0.8;" x="341.757838" xlink:href="#ma3d4688e71" y="148.04"/>
      </g>
     </g>
    </g>
    <g id="xtick_8">
     <g id="line2d_15">
      <path clip-path="url(#pd91fca6433)" d="M 385.812311 148.04 
L 385.812311 14.76 
" style="fill:none;stroke:#08bdf9;stroke-dasharray:2.2,2.2;stroke-dashoffset:0;stroke-width:0.8;"/>
     </g>
     <g id="line2d_16">
      <g>
       <use style="fill:#01769d;stroke:#01769d;stroke-width:0.8;" x="385.812311" xlink:href="#ma3d4688e71" y="148.04"/>
      </g>
     </g>
    </g>
    <g id="xtick_9">
     <g id="line2d_17">
      <path clip-path="url(#pd91fca6433)" d="M 429.866784 148.04 
L 429.866784 14.76 
" style="fill:none;stroke:#08bdf9;stroke-dasharray:2.2,2.2;stroke-dashoffset:0;stroke-width:0.8;"/>
     </g>
     <g id="line2d_18">
      <g>
       <use style="fill:#01769d;stroke:#01769d;stroke-width:0.8;" x="429.866784" xlink:href="#ma3d4688e71" y="148.04"/>
      </g>
     </g>
    </g>
   </g>
   <g id="matplotlib.axis_2">
    <g id="ytick_1">
     <g id="line2d_19">
      <path clip-path="url(#pd91fca6433)" d="M 59.906 148.04 
L 447.48 148.04 
" style="fill:none;stroke:#08bdf9;stroke-dasharray:2.2,2.2;stroke-dashoffset:0;stroke-width:0.8;"/>
     </g>
     <g id="line2d_20">
      <defs>
       <path d="M 0 0 
L -3.5 0 
" id="m0a3baca114" style="stroke:#01769d;stroke-width:0.8;"/>
      </defs>
      <g>
       <use style="fill:#01769d;stroke:#01769d;stroke-width:0.8;" x="59.906" xlink:href="#m0a3baca114" y="148.04"/>
      </g>
     </g>
     <g id="text_1">
      <!-- −0.1 -->
      <defs>
       <path d="M 10.59375 35.5 
L 73.1875 35.5 
L 73.1875 27.203125 
L 10.59375 27.203125 
z
" id="DejaVuSans-2212"/>
       <path d="M 31.78125 66.40625 
Q 24.171875 66.40625 20.328125 58.90625 
Q 16.5 51.421875 16.5 36.375 
Q 16.5 21.390625 20.328125 13.890625 
Q 24.171875 6.390625 31.78125 6.390625 
Q 39.453125 6.390625 43.28125 13.890625 
Q 47.125 21.390625 47.125 36.375 
Q 47.125 51.421875 43.28125 58.90625 
Q 39.453125 66.40625 31.78125 66.40625 
M 31.78125 74.21875 
Q 44.046875 74.21875 50.515625 64.515625 
Q 56.984375 54.828125 56.984375 36.375 
Q 56.984375 17.96875 50.515625 8.265625 
Q 44.046875 -1.421875 31.78125 -1.421875 
Q 19.53125 -1.421875 13.0625 8.265625 
Q 6.59375 17.96875 6.59375 36.375 
Q 6.59375 54.828125 13.0625 64.515625 
Q 19.53125 74.21875 31.78125 74.21875 
" id="DejaVuSans-30"/>
       <path d="M 10.6875 12.40625 
L 21 12.40625 
L 21 0 
L 10.6875 0 
z
" id="DejaVuSans-2e"/>
       <path d="M 12.40625 8.296875 
L 28.515625 8.296875 
L 28.515625 63.921875 
L 10.984375 60.40625 
L 10.984375 69.390625 
L 28.421875 72.90625 
L 38.28125 72.90625 
L 38.28125 8.296875 
L 54.390625 8.296875 
L 54.390625 0 
L 12.40625 0 
z
" id="DejaVuSans-31"/>
      </defs>
      <g style="fill:#01769d;" transform="translate(28.623188 151.839219)scale(0.1 -0.1)">
       <use xlink:href="#DejaVuSans-2212"/>
       <use x="83.789062" xlink:href="#DejaVuSans-30"/>
       <use x="147.412109" xlink:href="#DejaVuSans-2e"/>
       <use x="179.199219" xlink:href="#DejaVuSans-31"/>
      </g>
     </g>
    </g>
    <g id="ytick_2">
     <g id="line2d_21">
      <path clip-path="url(#pd91fca6433)" d="M 59.906 121.384 
L 447.48 121.384 
" style="fill:none;stroke:#08bdf9;stroke-dasharray:2.2,2.2;stroke-dashoffset:0;stroke-width:0.8;"/>
     </g>
     <g id="line2d_22">
      <g>
       <use style="fill:#01769d;stroke:#01769d;stroke-width:0.8;" x="59.906" xlink:href="#m0a3baca114" y="121.384"/>
      </g>
     </g>
     <g id="text_2">
      <!-- 0.0 -->
      <g style="fill:#01769d;" transform="translate(37.002875 125.183219)scale(0.1 -0.1)">
       <use xlink:href="#DejaVuSans-30"/>
       <use x="63.623047" xlink:href="#DejaVuSans-2e"/>
       <use x="95.410156" xlink:href="#DejaVuSans-30"/>
      </g>
     </g>
    </g>
    <g id="ytick_3">
     <g id="line2d_23">
      <path clip-path="url(#pd91fca6433)" d="M 59.906 94.728 
L 447.48 94.728 
" style="fill:none;stroke:#08bdf9;stroke-dasharray:2.2,2.2;stroke-dashoffset:0;stroke-width:0.8;"/>
     </g>
     <g id="line2d_24">
      <g>
       <use style="fill:#01769d;stroke:#01769d;stroke-width:0.8;" x="59.906" xlink:href="#m0a3baca114" y="94.728"/>
      </g>
     </g>
     <g id="text_3">
      <!-- 0.1 -->
      <g style="fill:#01769d;" transform="translate(37.002875 98.527219)scale(0.1 -0.1)">
       <use xlink:href="#DejaVuSans-30"/>
       <use x="63.623047" xlink:href="#DejaVuSans-2e"/>
       <use x="95.410156" xlink:href="#DejaVuSans-31"/>
      </g>
     </g>
    </g>
    <g id="ytick_4">
     <g id="line2d_25">
      <path clip-path="url(#pd91fca6433)" d="M 59.906 68.072 
L 447.48 68.072 
" style="fill:none;stroke:#08bdf9;stroke-dasharray:2.2,2.2;stroke-dashoffset:0;stroke-width:0.8;"/>
     </g>
     <g id="line2d_26">
      <g>
       <use style="fill:#01769d;stroke:#01769d;stroke-width:0.8;" x="59.906" xlink:href="#m0a3baca114" y="68.072"/>
      </g>
     </g>
     <g id="text_4">
      <!-- 0.2 -->
      <defs>
       <path d="M 19.1875 8.296875 
L 53.609375 8.296875 
L 53.609375 0 
L 7.328125 0 
L 7.328125 8.296875 
Q 12.9375 14.109375 22.625 23.890625 
Q 32.328125 33.6875 34.8125 36.53125 
Q 39.546875 41.84375 41.421875 45.53125 
Q 43.3125 49.21875 43.3125 52.78125 
Q 43.3125 58.59375 39.234375 62.25 
Q 35.15625 65.921875 28.609375 65.921875 
Q 23.96875 65.921875 18.8125 64.3125 
Q 13.671875 62.703125 7.8125 59.421875 
L 7.8125 69.390625 
Q 13.765625 71.78125 18.9375 73 
Q 24.125 74.21875 28.421875 74.21875 
Q 39.75 74.21875 46.484375 68.546875 
Q 53.21875 62.890625 53.21875 53.421875 
Q 53.21875 48.921875 51.53125 44.890625 
Q 49.859375 40.875 45.40625 35.40625 
Q 44.1875 33.984375 37.640625 27.21875 
Q 31.109375 20.453125 19.1875 8.296875 
" id="DejaVuSans-32"/>
      </defs>
      <g style="fill:#01769d;" transform="translate(37.002875 71.871219)scale(0.1 -0.1)">
       <use xlink:href="#DejaVuSans-30"/>
       <use x="63.623047" xlink:href="#DejaVuSans-2e"/>
       <use x="95.410156" xlink:href="#DejaVuSans-32"/>
      </g>
     </g>
    </g>
    <g id="ytick_5">
     <g id="line2d_27">
      <path clip-path="url(#pd91fca6433)" d="M 59.906 41.416 
L 447.48 41.416 
" style="fill:none;stroke:#08bdf9;stroke-dasharray:2.2,2.2;stroke-dashoffset:0;stroke-width:0.8;"/>
     </g>
     <g id="line2d_28">
      <g>
       <use style="fill:#01769d;stroke:#01769d;stroke-width:0.8;" x="59.906" xlink:href="#m0a3baca114" y="41.416"/>
      </g>
     </g>
     <g id="text_5">
      <!-- 0.3 -->
      <defs>
       <path d="M 40.578125 39.3125 
Q 47.65625 37.796875 51.625 33 
Q 55.609375 28.21875 55.609375 21.1875 
Q 55.609375 10.40625 48.1875 4.484375 
Q 40.765625 -1.421875 27.09375 -1.421875 
Q 22.515625 -1.421875 17.65625 -0.515625 
Q 12.796875 0.390625 7.625 2.203125 
L 7.625 11.71875 
Q 11.71875 9.328125 16.59375 8.109375 
Q 21.484375 6.890625 26.8125 6.890625 
Q 36.078125 6.890625 40.9375 10.546875 
Q 45.796875 14.203125 45.796875 21.1875 
Q 45.796875 27.640625 41.28125 31.265625 
Q 36.765625 34.90625 28.71875 34.90625 
L 20.21875 34.90625 
L 20.21875 43.015625 
L 29.109375 43.015625 
Q 36.375 43.015625 40.234375 45.921875 
Q 44.09375 48.828125 44.09375 54.296875 
Q 44.09375 59.90625 40.109375 62.90625 
Q 36.140625 65.921875 28.71875 65.921875 
Q 24.65625 65.921875 20.015625 65.03125 
Q 15.375 64.15625 9.8125 62.3125 
L 9.8125 71.09375 
Q 15.4375 72.65625 20.34375 73.4375 
Q 25.25 74.21875 29.59375 74.21875 
Q 40.828125 74.21875 47.359375 69.109375 
Q 53.90625 64.015625 53.90625 55.328125 
Q 53.90625 49.265625 50.4375 45.09375 
Q 46.96875 40.921875 40.578125 39.3125 
" id="DejaVuSans-33"/>
      </defs>
      <g style="fill:#01769d;" transform="translate(37.002875 45.215219)scale(0.1 -0.1)">
       <use xlink:href="#DejaVuSans-30"/>
       <use x="63.623047" xlink:href="#DejaVuSans-2e"/>
       <use x="95.410156" xlink:href="#DejaVuSans-33"/>
      </g>
     </g>
    </g>
    <g id="ytick_6">
     <g id="line2d_29">
      <path clip-path="url(#pd91fca6433)" d="M 59.906 14.76 
L 447.48 14.76 
" style="fill:none;stroke:#08bdf9;stroke-dasharray:2.2,2.2;stroke-dashoffset:0;stroke-width:0.8;"/>
     </g>
     <g id="line2d_30">
      <g>
       <use style="fill:#01769d;stroke:#01769d;stroke-width:0.8;" x="59.906" xlink:href="#m0a3baca114" y="14.76"/>
      </g>
     </g>
     <g id="text_6">
      <!-- 0.4 -->
      <defs>
       <path d="M 37.796875 64.3125 
L 12.890625 25.390625 
L 37.796875 25.390625 
z
M 35.203125 72.90625 
L 47.609375 72.90625 
L 47.609375 25.390625 
L 58.015625 25.390625 
L 58.015625 17.1875 
L 47.609375 17.1875 
L 47.609375 0 
L 37.796875 0 
L 37.796875 17.1875 
L 4.890625 17.1875 
L 4.890625 26.703125 
z
" id="DejaVuSans-34"/>
      </defs>
      <g style="fill:#01769d;" transform="translate(37.002875 18.559219)scale(0.1 -0.1)">
       <use xlink:href="#DejaVuSans-30"/>
       <use x="63.623047" xlink:href="#DejaVuSans-2e"/>
       <use x="95.410156" xlink:href="#DejaVuSans-34"/>
      </g>
     </g>
    </g>
    <g id="text_7">
     <!-- $V_{gate}\;(A)$ -->
     <defs>
      <path d="M 20.609375 0 
L 7.8125 72.90625 
L 17.484375 72.90625 
L 28.078125 10.203125 
L 63.484375 72.90625 
L 74.21875 72.90625 
L 32.078125 0 
z
" id="DejaVuSans-Oblique-56"/>
      <path d="M 59.625 54.6875 
L 50.296875 6.78125 
Q 47.609375 -7.125 40.015625 -13.953125 
Q 32.421875 -20.796875 19.578125 -20.796875 
Q 14.84375 -20.796875 10.78125 -20.09375 
Q 6.734375 -19.390625 3.21875 -17.921875 
L 4.890625 -9.1875 
Q 8.203125 -11.328125 11.90625 -12.34375 
Q 15.625 -13.375 19.828125 -13.375 
Q 28.375 -13.375 33.859375 -8.703125 
Q 39.359375 -4.046875 41.109375 4.6875 
L 41.890625 8.796875 
Q 38.140625 4.5 33.15625 2.25 
Q 28.171875 0 22.40625 0 
Q 14.109375 0 9.34375 5.484375 
Q 4.59375 10.984375 4.59375 20.609375 
Q 4.59375 28.171875 7.46875 35.421875 
Q 10.359375 42.671875 15.578125 48.296875 
Q 19.046875 52 23.65625 54 
Q 28.265625 56 33.296875 56 
Q 38.8125 56 42.90625 53.4375 
Q 47.015625 50.875 49.03125 46.1875 
L 50.59375 54.6875 
z
M 46.09375 34.625 
Q 46.09375 41.265625 42.96875 44.875 
Q 39.84375 48.484375 34.078125 48.484375 
Q 30.515625 48.484375 27.296875 47.0625 
Q 24.078125 45.65625 21.78125 43.109375 
Q 18.0625 38.921875 15.984375 33.234375 
Q 13.921875 27.546875 13.921875 21.484375 
Q 13.921875 14.75 17.0625 11.125 
Q 20.21875 7.515625 26.125 7.515625 
Q 34.671875 7.515625 40.375 15.25 
Q 46.09375 23 46.09375 34.625 
" id="DejaVuSans-Oblique-67"/>
      <path d="M 53.71875 31.203125 
L 47.609375 0 
L 38.625 0 
L 40.28125 8.296875 
Q 36.328125 3.421875 31.265625 1 
Q 26.21875 -1.421875 20.015625 -1.421875 
Q 13.03125 -1.421875 8.5625 2.84375 
Q 4.109375 7.125 4.109375 13.8125 
Q 4.109375 23.390625 11.75 28.953125 
Q 19.390625 34.515625 32.8125 34.515625 
L 45.3125 34.515625 
L 45.796875 36.921875 
Q 45.90625 37.3125 45.953125 37.765625 
Q 46 38.234375 46 39.203125 
Q 46 43.5625 42.453125 45.96875 
Q 38.921875 48.390625 32.515625 48.390625 
Q 28.125 48.390625 23.5 47.265625 
Q 18.890625 46.140625 14.015625 43.890625 
L 15.578125 52.203125 
Q 20.65625 54.109375 25.515625 55.046875 
Q 30.375 56 34.90625 56 
Q 44.578125 56 49.625 51.796875 
Q 54.6875 47.609375 54.6875 39.59375 
Q 54.6875 37.984375 54.4375 35.8125 
Q 54.203125 33.640625 53.71875 31.203125 
M 44 27.484375 
L 35.015625 27.484375 
Q 23.96875 27.484375 18.671875 24.53125 
Q 13.375 21.578125 13.375 15.375 
Q 13.375 11.078125 16.078125 8.640625 
Q 18.796875 6.203125 23.578125 6.203125 
Q 30.90625 6.203125 36.375 11.453125 
Q 41.84375 16.703125 43.609375 25.484375 
z
" id="DejaVuSans-Oblique-61"/>
      <path d="M 42.28125 54.6875 
L 40.921875 47.703125 
L 23 47.703125 
L 17.1875 18.015625 
Q 16.890625 16.359375 16.75 15.234375 
Q 16.609375 14.109375 16.609375 13.484375 
Q 16.609375 10.359375 18.484375 8.9375 
Q 20.359375 7.515625 24.515625 7.515625 
L 33.59375 7.515625 
L 32.078125 0 
L 23.484375 0 
Q 15.484375 0 11.546875 3.125 
Q 7.625 6.25 7.625 12.59375 
Q 7.625 13.71875 7.765625 15.0625 
Q 7.90625 16.40625 8.203125 18.015625 
L 14.015625 47.703125 
L 6.390625 47.703125 
L 7.8125 54.6875 
L 15.28125 54.6875 
L 18.3125 70.21875 
L 27.296875 70.21875 
L 24.3125 54.6875 
z
" id="DejaVuSans-Oblique-74"/>
      <path d="M 48.09375 32.234375 
Q 48.25 33.015625 48.3125 33.84375 
Q 48.390625 34.671875 48.390625 35.5 
Q 48.390625 41.453125 44.890625 44.921875 
Q 41.40625 48.390625 35.40625 48.390625 
Q 28.71875 48.390625 23.578125 44.15625 
Q 18.453125 39.9375 15.828125 32.171875 
z
M 55.90625 25.203125 
L 14.109375 25.203125 
Q 13.8125 23.34375 13.71875 22.265625 
Q 13.625 21.1875 13.625 20.40625 
Q 13.625 13.625 17.796875 9.90625 
Q 21.96875 6.203125 29.59375 6.203125 
Q 35.453125 6.203125 40.671875 7.515625 
Q 45.90625 8.84375 50.390625 11.375 
L 48.6875 2.484375 
Q 43.84375 0.53125 38.6875 -0.4375 
Q 33.546875 -1.421875 28.21875 -1.421875 
Q 16.84375 -1.421875 10.71875 4.015625 
Q 4.59375 9.46875 4.59375 19.484375 
Q 4.59375 28.03125 7.640625 35.375 
Q 10.6875 42.71875 16.609375 48.484375 
Q 20.40625 52.09375 25.65625 54.046875 
Q 30.90625 56 36.8125 56 
Q 46.09375 56 51.578125 50.4375 
Q 57.078125 44.875 57.078125 35.5 
Q 57.078125 33.25 56.78125 30.6875 
Q 56.5 28.125 55.90625 25.203125 
" id="DejaVuSans-Oblique-65"/>
      <path d="M 31 75.875 
Q 24.46875 64.65625 21.28125 53.65625 
Q 18.109375 42.671875 18.109375 31.390625 
Q 18.109375 20.125 21.3125 9.0625 
Q 24.515625 -2 31 -13.1875 
L 23.1875 -13.1875 
Q 15.875 -1.703125 12.234375 9.375 
Q 8.59375 20.453125 8.59375 31.390625 
Q 8.59375 42.28125 12.203125 53.3125 
Q 15.828125 64.359375 23.1875 75.875 
z
" id="DejaVuSans-28"/>
      <path d="M 36.8125 72.90625 
L 48 72.90625 
L 61.53125 0 
L 51.21875 0 
L 48.1875 18.703125 
L 15.375 18.703125 
L 5.078125 0 
L -5.328125 0 
z
M 40.375 63.1875 
L 19.921875 26.90625 
L 46.6875 26.90625 
z
" id="DejaVuSans-Oblique-41"/>
      <path d="M 8.015625 75.875 
L 15.828125 75.875 
Q 23.140625 64.359375 26.78125 53.3125 
Q 30.421875 42.28125 30.421875 31.390625 
Q 30.421875 20.453125 26.78125 9.375 
Q 23.140625 -1.703125 15.828125 -13.1875 
L 8.015625 -13.1875 
Q 14.5 -2 17.703125 9.0625 
Q 20.90625 20.125 20.90625 31.390625 
Q 20.90625 42.671875 17.703125 53.65625 
Q 14.5 64.65625 8.015625 75.875 
" id="DejaVuSans-29"/>
     </defs>
     <g style="fill:#01769d;" transform="translate(21.523188 101.55)rotate(-90)scale(0.1 -0.1)">
      <use transform="translate(0 0.125)" xlink:href="#DejaVuSans-Oblique-56"/>
      <use transform="translate(68.408203 -16.28125)scale(0.7)" xlink:href="#DejaVuSans-Oblique-67"/>
      <use transform="translate(112.841797 -16.28125)scale(0.7)" xlink:href="#DejaVuSans-Oblique-61"/>
      <use transform="translate(155.737305 -16.28125)scale(0.7)" xlink:href="#DejaVuSans-Oblique-74"/>
      <use transform="translate(183.183594 -16.28125)scale(0.7)" xlink:href="#DejaVuSans-Oblique-65"/>
      <use transform="translate(256.043511 0.125)" xlink:href="#DejaVuSans-28"/>
      <use transform="translate(295.057183 0.125)" xlink:href="#DejaVuSans-Oblique-41"/>
      <use transform="translate(363.465386 0.125)" xlink:href="#DejaVuSans-29"/>
     </g>
    </g>
   </g>
   <g id="line2d_31">
    <path clip-path="url(#pd91fca6433)" d="M 77.523 121.405747 
L 90.71815 121.351851 
L 96.087965 121.334491 
L 103.315652 121.29193 
L 112.006089 121.331139 
L 121.040698 121.32565 
L 131.222416 121.311182 
L 166.066958 121.334451 
L 168.022704 121.379921 
L 168.498656 120.872083 
L 169.063016 119.874871 
L 169.665324 118.355817 
L 170.869938 114.211867 
L 172.074553 109.145596 
L 173.279167 103.382614 
L 173.881474 99.935343 
L 175.086089 91.199465 
L 176.290703 82.424603 
L 177.495318 75.856965 
L 179.714706 66.091006 
L 181.340882 59.811919 
L 183.117986 54.045853 
L 184.3226 50.757062 
L 185.527215 47.904977 
L 187.334137 44.321024 
L 189.141058 41.42437 
L 190.94798 39.081014 
L 192.754902 37.183667 
L 194.561824 35.646522 
L 196.368745 34.400461 
L 197.57336 33.703593 
L 199.982589 32.57018 
L 202.391818 31.712203 
L 204.801047 31.06241 
L 208.41489 30.370527 
L 212.028734 29.913696 
L 216.847192 29.535794 
L 224.074879 29.24615 
L 234.916409 29.084428 
L 258.137577 29.027944 
L 266.569879 29.17999 
L 270.183722 29.447429 
L 271.990644 29.818481 
L 273.195259 30.335634 
L 274.399873 31.158878 
L 275.604488 32.283255 
L 276.809102 33.684667 
L 278.616024 36.26041 
L 280.422946 39.366527 
L 282.229867 42.996221 
L 284.036789 47.18921 
L 285.843711 52.040575 
L 287.650633 57.704016 
L 289.457554 64.379291 
L 291.264476 72.275731 
L 293.071398 81.54994 
L 294.87832 92.208262 
L 299.09447 118.873083 
L 300.299085 124.341571 
L 300.901392 126.246508 
L 301.503699 127.548515 
L 302.106007 128.25528 
L 302.708314 128.404972 
L 303.310621 128.058508 
L 303.912928 127.292196 
L 304.515235 126.191945 
L 305.71985 123.356129 
L 307.470887 118.99362 
L 308.675501 116.718947 
L 309.277808 115.973141 
L 309.880116 115.530377 
L 310.482423 115.400365 
L 311.08473 115.575524 
L 311.687037 116.033013 
L 312.289345 116.737894 
L 313.493959 118.706991 
L 315.903188 123.226807 
L 316.505495 124.094014 
L 317.107803 124.744868 
L 317.71011 125.1494 
L 318.312417 125.296173 
L 318.914724 125.191231 
L 319.517032 124.855675 
L 320.119339 124.322568 
L 321.323953 122.836546 
L 323.733182 119.552641 
L 324.801064 118.537326 
L 325.333873 118.231174 
L 325.93618 118.047031 
L 326.538487 118.036505 
L 327.140795 118.198147 
L 327.743102 118.51667 
L 328.947716 119.526102 
L 331.959253 122.628357 
L 333.046007 123.335354 
L 333.594394 123.518376 
L 334.196701 123.587373 
L 334.799009 123.520467 
L 336.003623 123.018069 
L 337.208238 122.164788 
L 339.617467 120.27714 
L 340.713818 119.683881 
L 341.808697 119.421387 
L 343.013311 119.51539 
L 344.217926 119.968571 
L 346.024848 121.040508 
L 347.831769 122.080163 
L 348.930927 122.484771 
L 350.087572 122.623211 
L 351.292187 122.464593 
L 352.496801 122.053254 
L 356.110645 120.482856 
L 357.263035 120.234589 
L 358.46765 120.211315 
L 359.672264 120.412547 
L 361.479186 120.997788 
L 363.775511 121.777896 
L 365.409901 122.056096 
L 366.614516 122.042401 
L 368.421437 121.723802 
L 372.637588 120.719388 
L 374.44451 120.665421 
L 376.251432 120.898956 
L 380.816921 121.720592 
L 382.588844 121.731712 
L 384.998073 121.438997 
L 388.438522 120.962476 
L 390.245443 120.925207 
L 392.654672 121.12985 
L 396.850974 121.558553 
L 399.232862 121.520274 
L 406.460549 121.090835 
L 410.486624 121.35273 
L 413.49816 121.46766 
L 417.023577 121.338766 
L 421.526683 121.173981 
L 425.742834 121.312889 
L 429.863 121.405762 
L 429.863 121.405762 
" style="fill:none;stroke:#fe3ea0;stroke-linecap:square;stroke-width:1.5;"/>
   </g>
   <g id="patch_3">
    <path d="M 59.906 148.04 
L 59.906 14.76 
" style="fill:none;stroke:#08bdf9;stroke-linecap:square;stroke-linejoin:miter;stroke-width:0.8;"/>
   </g>
   <g id="patch_4">
    <path d="M 59.906 148.04 
L 447.48 148.04 
" style="fill:none;stroke:#08bdf9;stroke-linecap:square;stroke-linejoin:miter;stroke-width:0.8;"/>
   </g>
  </g>
  <g id="axes_2">
   <g id="patch_5">
    <path d="M 59.906 300.76 
L 447.48 300.76 
L 447.48 167.48 
L 59.906 167.48 
z
" style="fill:#ffffff;"/>
   </g>
   <g id="matplotlib.axis_3">
    <g id="xtick_10">
     <g id="line2d_32">
      <path clip-path="url(#p17de413c00)" d="M 77.431 300.76 
L 77.431 167.48 
" style="fill:none;stroke:#08bdf9;stroke-dasharray:2.2,2.2;stroke-dashoffset:0;stroke-width:0.8;"/>
     </g>
     <g id="line2d_33">
      <g>
       <use style="fill:#01769d;stroke:#01769d;stroke-width:0.8;" x="77.431" xlink:href="#ma3d4688e71" y="300.76"/>
      </g>
     </g>
     <g id="text_8">
      <!-- 0.0 -->
      <g style="fill:#01769d;" transform="translate(69.479437 315.358437)scale(0.1 -0.1)">
       <use xlink:href="#DejaVuSans-30"/>
       <use x="63.623047" xlink:href="#DejaVuSans-2e"/>
       <use x="95.410156" xlink:href="#DejaVuSans-30"/>
      </g>
     </g>
    </g>
    <g id="xtick_11">
     <g id="line2d_34">
      <path clip-path="url(#p17de413c00)" d="M 121.485473 300.76 
L 121.485473 167.48 
" style="fill:none;stroke:#08bdf9;stroke-dasharray:2.2,2.2;stroke-dashoffset:0;stroke-width:0.8;"/>
     </g>
     <g id="line2d_35">
      <g>
       <use style="fill:#01769d;stroke:#01769d;stroke-width:0.8;" x="121.485473" xlink:href="#ma3d4688e71" y="300.76"/>
      </g>
     </g>
     <g id="text_9">
      <!-- 0.5 -->
      <defs>
       <path d="M 10.796875 72.90625 
L 49.515625 72.90625 
L 49.515625 64.59375 
L 19.828125 64.59375 
L 19.828125 46.734375 
Q 21.96875 47.46875 24.109375 47.828125 
Q 26.265625 48.1875 28.421875 48.1875 
Q 40.625 48.1875 47.75 41.5 
Q 54.890625 34.8125 54.890625 23.390625 
Q 54.890625 11.625 47.5625 5.09375 
Q 40.234375 -1.421875 26.90625 -1.421875 
Q 22.3125 -1.421875 17.546875 -0.640625 
Q 12.796875 0.140625 7.71875 1.703125 
L 7.71875 11.625 
Q 12.109375 9.234375 16.796875 8.0625 
Q 21.484375 6.890625 26.703125 6.890625 
Q 35.15625 6.890625 40.078125 11.328125 
Q 45.015625 15.765625 45.015625 23.390625 
Q 45.015625 31 40.078125 35.4375 
Q 35.15625 39.890625 26.703125 39.890625 
Q 22.75 39.890625 18.8125 39.015625 
Q 14.890625 38.140625 10.796875 36.28125 
z
" id="DejaVuSans-35"/>
      </defs>
      <g style="fill:#01769d;" transform="translate(113.53391 315.358437)scale(0.1 -0.1)">
       <use xlink:href="#DejaVuSans-30"/>
       <use x="63.623047" xlink:href="#DejaVuSans-2e"/>
       <use x="95.410156" xlink:href="#DejaVuSans-35"/>
      </g>
     </g>
    </g>
    <g id="xtick_12">
     <g id="line2d_36">
      <path clip-path="url(#p17de413c00)" d="M 165.539946 300.76 
L 165.539946 167.48 
" style="fill:none;stroke:#08bdf9;stroke-dasharray:2.2,2.2;stroke-dashoffset:0;stroke-width:0.8;"/>
     </g>
     <g id="line2d_37">
      <g>
       <use style="fill:#01769d;stroke:#01769d;stroke-width:0.8;" x="165.539946" xlink:href="#ma3d4688e71" y="300.76"/>
      </g>
     </g>
     <g id="text_10">
      <!-- 1.0 -->
      <g style="fill:#01769d;" transform="translate(157.588383 315.358437)scale(0.1 -0.1)">
       <use xlink:href="#DejaVuSans-31"/>
       <use x="63.623047" xlink:href="#DejaVuSans-2e"/>
       <use x="95.410156" xlink:href="#DejaVuSans-30"/>
      </g>
     </g>
    </g>
    <g id="xtick_13">
     <g id="line2d_38">
      <path clip-path="url(#p17de413c00)" d="M 209.594419 300.76 
L 209.594419 167.48 
" style="fill:none;stroke:#08bdf9;stroke-dasharray:2.2,2.2;stroke-dashoffset:0;stroke-width:0.8;"/>
     </g>
     <g id="line2d_39">
      <g>
       <use style="fill:#01769d;stroke:#01769d;stroke-width:0.8;" x="209.594419" xlink:href="#ma3d4688e71" y="300.76"/>
      </g>
     </g>
     <g id="text_11">
      <!-- 1.5 -->
      <g style="fill:#01769d;" transform="translate(201.642856 315.358437)scale(0.1 -0.1)">
       <use xlink:href="#DejaVuSans-31"/>
       <use x="63.623047" xlink:href="#DejaVuSans-2e"/>
       <use x="95.410156" xlink:href="#DejaVuSans-35"/>
      </g>
     </g>
    </g>
    <g id="xtick_14">
     <g id="line2d_40">
      <path clip-path="url(#p17de413c00)" d="M 253.648892 300.76 
L 253.648892 167.48 
" style="fill:none;stroke:#08bdf9;stroke-dasharray:2.2,2.2;stroke-dashoffset:0;stroke-width:0.8;"/>
     </g>
     <g id="line2d_41">
      <g>
       <use style="fill:#01769d;stroke:#01769d;stroke-width:0.8;" x="253.648892" xlink:href="#ma3d4688e71" y="300.76"/>
      </g>
     </g>
     <g id="text_12">
      <!-- 2.0 -->
      <g style="fill:#01769d;" transform="translate(245.697329 315.358437)scale(0.1 -0.1)">
       <use xlink:href="#DejaVuSans-32"/>
       <use x="63.623047" xlink:href="#DejaVuSans-2e"/>
       <use x="95.410156" xlink:href="#DejaVuSans-30"/>
      </g>
     </g>
    </g>
    <g id="xtick_15">
     <g id="line2d_42">
      <path clip-path="url(#p17de413c00)" d="M 297.703365 300.76 
L 297.703365 167.48 
" style="fill:none;stroke:#08bdf9;stroke-dasharray:2.2,2.2;stroke-dashoffset:0;stroke-width:0.8;"/>
     </g>
     <g id="line2d_43">
      <g>
       <use style="fill:#01769d;stroke:#01769d;stroke-width:0.8;" x="297.703365" xlink:href="#ma3d4688e71" y="300.76"/>
      </g>
     </g>
     <g id="text_13">
      <!-- 2.5 -->
      <g style="fill:#01769d;" transform="translate(289.751802 315.358437)scale(0.1 -0.1)">
       <use xlink:href="#DejaVuSans-32"/>
       <use x="63.623047" xlink:href="#DejaVuSans-2e"/>
       <use x="95.410156" xlink:href="#DejaVuSans-35"/>
      </g>
     </g>
    </g>
    <g id="xtick_16">
     <g id="line2d_44">
      <path clip-path="url(#p17de413c00)" d="M 341.757838 300.76 
L 341.757838 167.48 
" style="fill:none;stroke:#08bdf9;stroke-dasharray:2.2,2.2;stroke-dashoffset:0;stroke-width:0.8;"/>
     </g>
     <g id="line2d_45">
      <g>
       <use style="fill:#01769d;stroke:#01769d;stroke-width:0.8;" x="341.757838" xlink:href="#ma3d4688e71" y="300.76"/>
      </g>
     </g>
     <g id="text_14">
      <!-- 3.0 -->
      <g style="fill:#01769d;" transform="translate(333.806275 315.358437)scale(0.1 -0.1)">
       <use xlink:href="#DejaVuSans-33"/>
       <use x="63.623047" xlink:href="#DejaVuSans-2e"/>
       <use x="95.410156" xlink:href="#DejaVuSans-30"/>
      </g>
     </g>
    </g>
    <g id="xtick_17">
     <g id="line2d_46">
      <path clip-path="url(#p17de413c00)" d="M 385.812311 300.76 
L 385.812311 167.48 
" style="fill:none;stroke:#08bdf9;stroke-dasharray:2.2,2.2;stroke-dashoffset:0;stroke-width:0.8;"/>
     </g>
     <g id="line2d_47">
      <g>
       <use style="fill:#01769d;stroke:#01769d;stroke-width:0.8;" x="385.812311" xlink:href="#ma3d4688e71" y="300.76"/>
      </g>
     </g>
     <g id="text_15">
      <!-- 3.5 -->
      <g style="fill:#01769d;" transform="translate(377.860748 315.358437)scale(0.1 -0.1)">
       <use xlink:href="#DejaVuSans-33"/>
       <use x="63.623047" xlink:href="#DejaVuSans-2e"/>
       <use x="95.410156" xlink:href="#DejaVuSans-35"/>
      </g>
     </g>
    </g>
    <g id="xtick_18">
     <g id="line2d_48">
      <path clip-path="url(#p17de413c00)" d="M 429.866784 300.76 
L 429.866784 167.48 
" style="fill:none;stroke:#08bdf9;stroke-dasharray:2.2,2.2;stroke-dashoffset:0;stroke-width:0.8;"/>
     </g>
     <g id="line2d_49">
      <g>
       <use style="fill:#01769d;stroke:#01769d;stroke-width:0.8;" x="429.866784" xlink:href="#ma3d4688e71" y="300.76"/>
      </g>
     </g>
     <g id="text_16">
      <!-- 4.0 -->
      <g style="fill:#01769d;" transform="translate(421.915221 315.358437)scale(0.1 -0.1)">
       <use xlink:href="#DejaVuSans-34"/>
       <use x="63.623047" xlink:href="#DejaVuSans-2e"/>
       <use x="95.410156" xlink:href="#DejaVuSans-30"/>
      </g>
     </g>
    </g>
    <g id="text_17">
     <!-- $t\;(\mu s)$ -->
     <defs>
      <path d="M -1.3125 -20.796875 
L 13.375 54.6875 
L 22.40625 54.6875 
L 15.765625 20.65625 
Q 15.578125 19.625 15.421875 18.359375 
Q 15.28125 17.09375 15.28125 15.828125 
Q 15.28125 11.28125 18.140625 8.828125 
Q 21 6.390625 26.3125 6.390625 
Q 33.546875 6.390625 37.984375 10.484375 
Q 42.4375 14.59375 44 22.796875 
L 50.203125 54.6875 
L 59.1875 54.6875 
L 51.03125 12.640625 
Q 50.828125 11.71875 50.75 11.03125 
Q 50.6875 10.359375 50.6875 9.8125 
Q 50.6875 8.296875 51.296875 7.59375 
Q 51.90625 6.890625 53.21875 6.890625 
Q 53.71875 6.890625 54.5625 7.125 
Q 55.421875 7.375 56.984375 8.015625 
L 55.609375 0.78125 
Q 53.46875 -0.296875 51.515625 -0.859375 
Q 49.5625 -1.421875 47.703125 -1.421875 
Q 44.484375 -1.421875 42.65625 0.625 
Q 40.828125 2.6875 40.828125 6.296875 
Q 38.09375 2.390625 34.296875 0.484375 
Q 30.515625 -1.421875 25.390625 -1.421875 
Q 20.84375 -1.421875 17.453125 0.671875 
Q 14.0625 2.78125 12.984375 6.203125 
L 7.71875 -20.796875 
z
" id="DejaVuSans-Oblique-3bc"/>
      <path d="M 50 53.078125 
L 48.296875 44.578125 
Q 44.734375 46.53125 40.765625 47.5 
Q 36.8125 48.484375 32.625 48.484375 
Q 25.53125 48.484375 21.453125 46.0625 
Q 17.390625 43.65625 17.390625 39.5 
Q 17.390625 34.671875 26.859375 32.078125 
Q 27.59375 31.890625 27.9375 31.78125 
L 30.8125 30.90625 
Q 39.796875 28.421875 42.796875 25.6875 
Q 45.796875 22.953125 45.796875 18.21875 
Q 45.796875 9.515625 38.890625 4.046875 
Q 31.984375 -1.421875 20.796875 -1.421875 
Q 16.453125 -1.421875 11.671875 -0.578125 
Q 6.890625 0.25 1.125 2 
L 2.875 11.28125 
Q 7.8125 8.734375 12.59375 7.421875 
Q 17.390625 6.109375 21.78125 6.109375 
Q 28.375 6.109375 32.5 8.9375 
Q 36.625 11.765625 36.625 16.109375 
Q 36.625 20.796875 25.78125 23.6875 
L 24.859375 23.921875 
L 21.78125 24.703125 
Q 14.9375 26.515625 11.765625 29.46875 
Q 8.59375 32.421875 8.59375 37.015625 
Q 8.59375 45.75 15.15625 50.875 
Q 21.734375 56 33.015625 56 
Q 37.453125 56 41.671875 55.265625 
Q 45.90625 54.546875 50 53.078125 
" id="DejaVuSans-Oblique-73"/>
     </defs>
     <g style="fill:#01769d;" transform="translate(240.643 329.038125)scale(0.1 -0.1)">
      <use transform="translate(0 0.125)" xlink:href="#DejaVuSans-Oblique-74"/>
      <use transform="translate(66.26812 0.125)" xlink:href="#DejaVuSans-28"/>
      <use transform="translate(105.281792 0.125)" xlink:href="#DejaVuSans-Oblique-3bc"/>
      <use transform="translate(168.904839 0.125)" xlink:href="#DejaVuSans-Oblique-73"/>
      <use transform="translate(221.004448 0.125)" xlink:href="#DejaVuSans-29"/>
     </g>
    </g>
   </g>
   <g id="matplotlib.axis_4">
    <g id="ytick_7">
     <g id="line2d_50">
      <path clip-path="url(#p17de413c00)" d="M 59.906 292.43 
L 447.48 292.43 
" style="fill:none;stroke:#08bdf9;stroke-dasharray:2.2,2.2;stroke-dashoffset:0;stroke-width:0.8;"/>
     </g>
     <g id="line2d_51">
      <g>
       <use style="fill:#01769d;stroke:#01769d;stroke-width:0.8;" x="59.906" xlink:href="#m0a3baca114" y="292.43"/>
      </g>
     </g>
     <g id="text_18">
      <!-- 0 -->
      <g style="fill:#01769d;" transform="translate(46.5435 296.229219)scale(0.1 -0.1)">
       <use xlink:href="#DejaVuSans-30"/>
      </g>
     </g>
    </g>
    <g id="ytick_8">
     <g id="line2d_52">
      <path clip-path="url(#p17de413c00)" d="M 59.906 259.11 
L 447.48 259.11 
" style="fill:none;stroke:#08bdf9;stroke-dasharray:2.2,2.2;stroke-dashoffset:0;stroke-width:0.8;"/>
     </g>
     <g id="line2d_53">
      <g>
       <use style="fill:#01769d;stroke:#01769d;stroke-width:0.8;" x="59.906" xlink:href="#m0a3baca114" y="259.11"/>
      </g>
     </g>
     <g id="text_19">
      <!-- 2 -->
      <g style="fill:#01769d;" transform="translate(46.5435 262.909219)scale(0.1 -0.1)">
       <use xlink:href="#DejaVuSans-32"/>
      </g>
     </g>
    </g>
    <g id="ytick_9">
     <g id="line2d_54">
      <path clip-path="url(#p17de413c00)" d="M 59.906 225.79 
L 447.48 225.79 
" style="fill:none;stroke:#08bdf9;stroke-dasharray:2.2,2.2;stroke-dashoffset:0;stroke-width:0.8;"/>
     </g>
     <g id="line2d_55">
      <g>
       <use style="fill:#01769d;stroke:#01769d;stroke-width:0.8;" x="59.906" xlink:href="#m0a3baca114" y="225.79"/>
      </g>
     </g>
     <g id="text_20">
      <!-- 4 -->
      <g style="fill:#01769d;" transform="translate(46.5435 229.589219)scale(0.1 -0.1)">
       <use xlink:href="#DejaVuSans-34"/>
      </g>
     </g>
    </g>
    <g id="ytick_10">
     <g id="line2d_56">
      <path clip-path="url(#p17de413c00)" d="M 59.906 192.47 
L 447.48 192.47 
" style="fill:none;stroke:#08bdf9;stroke-dasharray:2.2,2.2;stroke-dashoffset:0;stroke-width:0.8;"/>
     </g>
     <g id="line2d_57">
      <g>
       <use style="fill:#01769d;stroke:#01769d;stroke-width:0.8;" x="59.906" xlink:href="#m0a3baca114" y="192.47"/>
      </g>
     </g>
     <g id="text_21">
      <!-- 6 -->
      <defs>
       <path d="M 33.015625 40.375 
Q 26.375 40.375 22.484375 35.828125 
Q 18.609375 31.296875 18.609375 23.390625 
Q 18.609375 15.53125 22.484375 10.953125 
Q 26.375 6.390625 33.015625 6.390625 
Q 39.65625 6.390625 43.53125 10.953125 
Q 47.40625 15.53125 47.40625 23.390625 
Q 47.40625 31.296875 43.53125 35.828125 
Q 39.65625 40.375 33.015625 40.375 
M 52.59375 71.296875 
L 52.59375 62.3125 
Q 48.875 64.0625 45.09375 64.984375 
Q 41.3125 65.921875 37.59375 65.921875 
Q 27.828125 65.921875 22.671875 59.328125 
Q 17.53125 52.734375 16.796875 39.40625 
Q 19.671875 43.65625 24.015625 45.921875 
Q 28.375 48.1875 33.59375 48.1875 
Q 44.578125 48.1875 50.953125 41.515625 
Q 57.328125 34.859375 57.328125 23.390625 
Q 57.328125 12.15625 50.6875 5.359375 
Q 44.046875 -1.421875 33.015625 -1.421875 
Q 20.359375 -1.421875 13.671875 8.265625 
Q 6.984375 17.96875 6.984375 36.375 
Q 6.984375 53.65625 15.1875 63.9375 
Q 23.390625 74.21875 37.203125 74.21875 
Q 40.921875 74.21875 44.703125 73.484375 
Q 48.484375 72.75 52.59375 71.296875 
" id="DejaVuSans-36"/>
      </defs>
      <g style="fill:#01769d;" transform="translate(46.5435 196.269219)scale(0.1 -0.1)">
       <use xlink:href="#DejaVuSans-36"/>
      </g>
     </g>
    </g>
    <g id="text_22">
     <!-- $I_{LED}\;(A)$ -->
     <defs>
      <path d="M 16.890625 72.90625 
L 26.8125 72.90625 
L 12.59375 0 
L 2.6875 0 
z
" id="DejaVuSans-Oblique-49"/>
      <path d="M 16.796875 72.90625 
L 26.703125 72.90625 
L 14.203125 8.203125 
L 49.703125 8.203125 
L 48.09375 0 
L 2.6875 0 
z
" id="DejaVuSans-Oblique-4c"/>
      <path d="M 16.890625 72.90625 
L 62.984375 72.90625 
L 61.375 64.59375 
L 25.09375 64.59375 
L 20.90625 43.015625 
L 55.71875 43.015625 
L 54.109375 34.71875 
L 19.28125 34.71875 
L 14.203125 8.296875 
L 51.3125 8.296875 
L 49.703125 0 
L 2.6875 0 
z
" id="DejaVuSans-Oblique-45"/>
      <path d="M 16.890625 72.90625 
L 38.09375 72.90625 
Q 54.984375 72.90625 63.59375 65.75 
Q 72.21875 58.59375 72.21875 44.484375 
Q 72.21875 35.15625 68.9375 26.53125 
Q 65.671875 17.921875 59.90625 12.015625 
Q 54.109375 5.953125 45.171875 2.96875 
Q 36.234375 0 24.03125 0 
L 2.6875 0 
z
M 25.203125 64.796875 
L 14.203125 8.109375 
L 27.09375 8.109375 
Q 43.65625 8.109375 52.734375 17.625 
Q 61.8125 27.15625 61.8125 44.484375 
Q 61.8125 54.984375 55.953125 59.890625 
Q 50.09375 64.796875 37.59375 64.796875 
z
" id="DejaVuSans-Oblique-44"/>
     </defs>
     <g style="fill:#01769d;" transform="translate(40.463813 251.27)rotate(-90)scale(0.1 -0.1)">
      <use transform="translate(0 0.125)" xlink:href="#DejaVuSans-Oblique-49"/>
      <use transform="translate(29.492188 -16.28125)scale(0.7)" xlink:href="#DejaVuSans-Oblique-4c"/>
      <use transform="translate(68.491211 -16.28125)scale(0.7)" xlink:href="#DejaVuSans-Oblique-45"/>
      <use transform="translate(112.719727 -16.28125)scale(0.7)" xlink:href="#DejaVuSans-Oblique-44"/>
      <use transform="translate(196.414604 0.125)" xlink:href="#DejaVuSans-28"/>
      <use transform="translate(235.428276 0.125)" xlink:href="#DejaVuSans-Oblique-41"/>
      <use transform="translate(303.836479 0.125)" xlink:href="#DejaVuSans-29"/>
     </g>
    </g>
   </g>
   <g id="line2d_58">
    <path clip-path="url(#p17de413c00)" d="M 77.523 214.74402 
L 80.534536 214.828153 
L 83.495235 214.644027 
L 88.313693 214.270576 
L 91.320457 214.28597 
L 96.690272 214.3779 
L 100.906423 214.150091 
L 105.122574 213.976577 
L 117.426854 213.80238 
L 122.847619 213.688659 
L 131.222416 213.583734 
L 139.05241 213.409338 
L 148.689326 213.25345 
L 158.326242 213.111407 
L 165.724397 212.911004 
L 167.0024 210.760281 
L 167.162345 211.226911 
L 167.433826 213.815325 
L 169.063016 237.667547 
L 170.267631 251.088577 
L 171.472245 261.025833 
L 172.67686 268.383739 
L 173.881474 274.077227 
L 175.086089 278.787777 
L 176.893011 284.846598 
L 178.699932 290.195329 
L 179.253883 291.210389 
L 179.714706 291.554314 
L 180.411813 291.809602 
L 181.913371 292.033438 
L 184.924908 292.169984 
L 193.959516 292.258556 
L 232.50718 292.301905 
L 261.149114 292.20426 
L 265.967572 291.990207 
L 268.376801 291.690306 
L 269.581415 291.377799 
L 270.78603 290.772615 
L 271.388337 290.228063 
L 272.592951 288.556623 
L 276.206795 282.76327 
L 278.616024 278.552881 
L 280.422946 275.075861 
L 282.229867 271.174772 
L 284.036789 266.6498 
L 285.241404 263.161295 
L 286.446018 259.198898 
L 287.650633 254.685021 
L 288.855247 249.558872 
L 290.662169 240.661382 
L 292.469091 230.396407 
L 296.685241 205.210069 
L 297.287549 202.864441 
L 297.889856 201.494056 
L 298.492163 201.297334 
L 299.09447 202.314027 
L 299.696778 204.437994 
L 300.299085 207.474896 
L 301.503699 215.317058 
L 303.310621 227.63801 
L 303.912928 230.952101 
L 304.515235 233.566438 
L 305.117543 235.364802 
L 305.71985 236.281035 
L 306.322157 236.319453 
L 306.868579 235.586696 
L 307.470887 234.006562 
L 308.073194 231.767658 
L 309.277808 225.867003 
L 311.08473 216.155339 
L 312.289345 211.133698 
L 312.891652 209.458802 
L 313.493959 208.440909 
L 314.096266 208.105127 
L 314.698574 208.436627 
L 315.300881 209.383299 
L 315.903188 210.860657 
L 317.107803 214.947372 
L 318.914724 221.872384 
L 320.119339 225.495285 
L 320.721646 226.706916 
L 321.323953 227.440823 
L 321.926261 227.673929 
L 322.528568 227.411734 
L 323.130875 226.686658 
L 323.733182 225.555294 
L 324.801064 222.807827 
L 327.140795 215.80198 
L 327.743102 214.330586 
L 328.345409 213.15309 
L 328.947716 212.321356 
L 329.550024 211.865755 
L 330.152331 211.794234 
L 330.754638 212.092764 
L 331.356945 212.727111 
L 331.959253 213.645526 
L 333.046007 215.800947 
L 334.799009 219.637562 
L 336.003623 221.698221 
L 336.60593 222.383713 
L 337.208238 222.794249 
L 337.810545 222.916367 
L 338.412852 222.753149 
L 339.015159 222.323354 
L 339.617467 221.659769 
L 340.713818 220.008913 
L 343.013311 216.00933 
L 344.217926 214.468447 
L 344.820233 213.982442 
L 345.42254 213.713599 
L 346.024848 213.666651 
L 346.627155 213.833684 
L 347.229462 214.195056 
L 348.434077 215.371203 
L 351.292187 218.836849 
L 352.496801 219.754115 
L 353.099109 219.980525 
L 353.701416 220.038701 
L 354.303723 219.930611 
L 354.90603 219.667433 
L 356.110645 218.760013 
L 359.672264 215.301247 
L 360.876879 214.676181 
L 362.003479 214.544683 
L 363.173203 214.871103 
L 364.377818 215.564092 
L 367.216823 217.543783 
L 368.421437 218.05243 
L 369.626052 218.186976 
L 370.830666 217.937609 
L 372.035281 217.378099 
L 375.649124 215.290068 
L 376.853739 214.935377 
L 377.938133 214.867921 
L 379.087504 215.058678 
L 380.816921 215.676914 
L 383.191151 216.613172 
L 384.395766 216.882215 
L 385.480877 216.937426 
L 386.6316 216.786286 
L 388.438522 216.236406 
L 391.450058 215.174015 
L 392.654672 214.943707 
L 393.859287 214.890262 
L 395.646359 215.107541 
L 400.437476 216.027623 
L 402.244398 215.96903 
L 404.05132 215.650857 
L 407.665163 214.881748 
L 409.472085 214.74442 
L 411.088931 214.816674 
L 417.023577 215.365755 
L 419.231445 215.197539 
L 425.140526 214.524391 
L 427.549755 214.582568 
L 429.863 214.743904 
L 429.863 214.743904 
" style="fill:none;stroke:#fe3ea0;stroke-linecap:square;stroke-width:1.5;"/>
   </g>
   <g id="patch_6">
    <path d="M 59.906 300.76 
L 59.906 167.48 
" style="fill:none;stroke:#08bdf9;stroke-linecap:square;stroke-linejoin:miter;stroke-width:0.8;"/>
   </g>
   <g id="patch_7">
    <path d="M 59.906 300.76 
L 447.48 300.76 
" style="fill:none;stroke:#08bdf9;stroke-linecap:square;stroke-linejoin:miter;stroke-width:0.8;"/>
   </g>
  </g>
 </g>
 <defs>
  <clipPath id="pd91fca6433">
   <rect height="133.28" width="387.574" x="59.906" y="14.76"/>
  </clipPath>
  <clipPath id="p17de413c00">
   <rect height="133.28" width="387.574" x="59.906" y="167.48"/>
  </clipPath>
 </defs>
</svg>
