G04 Layer_Physical_Order=1*
G04 Layer_Color=255*
%FSLAX25Y25*%
%MOIN*%
G70*
G01*
G75*
G04:AMPARAMS|DCode=10|XSize=25.59mil|YSize=64.96mil|CornerRadius=1.92mil|HoleSize=0mil|Usage=FLASHONLY|Rotation=0.000|XOffset=0mil|YOffset=0mil|HoleType=Round|Shape=RoundedRectangle|*
%AMROUNDEDRECTD10*
21,1,0.02559,0.06112,0,0,0.0*
21,1,0.02175,0.06496,0,0,0.0*
1,1,0.00384,0.01088,-0.03056*
1,1,0.00384,-0.01088,-0.03056*
1,1,0.00384,-0.01088,0.03056*
1,1,0.00384,0.01088,0.03056*
%
%ADD10ROUNDEDRECTD10*%
%ADD11R,0.03543X0.02756*%
%ADD12R,0.07480X0.04331*%
%ADD13R,0.02756X0.03543*%
%ADD14O,0.05512X0.01772*%
%ADD15R,0.05512X0.05906*%
%ADD16O,0.02756X0.09843*%
%ADD17O,0.01378X0.05906*%
%ADD18R,0.03937X0.03937*%
%ADD19R,0.12992X0.10630*%
%ADD20R,0.03937X0.10630*%
%ADD21R,0.05906X0.05512*%
%ADD22C,0.00600*%
%ADD23C,0.02400*%
%ADD24C,0.03200*%
%ADD25C,0.01600*%
%ADD26C,0.01000*%
%ADD27C,0.01200*%
%ADD28C,0.02000*%
%ADD29C,0.05906*%
%ADD30C,0.09843*%
%ADD31C,0.07874*%
%ADD32C,0.18740*%
%ADD33R,0.06654X0.06654*%
%ADD34C,0.06654*%
%ADD35R,0.07087X0.07087*%
%ADD36C,0.07087*%
%ADD37R,0.07087X0.07087*%
%ADD38C,0.02400*%
%ADD39C,0.04400*%
%ADD40C,0.03600*%
G36*
X354331Y0D02*
X0D01*
Y196850D01*
X354331D01*
Y0D01*
D02*
G37*
%LPC*%
G36*
X83110Y37740D02*
X82085Y37605D01*
X81130Y37210D01*
X80310Y36580D01*
X79680Y35760D01*
X79285Y34805D01*
X79150Y33779D01*
X79285Y32754D01*
X79680Y31799D01*
X80310Y30979D01*
X81130Y30349D01*
X82085Y29954D01*
X83110Y29819D01*
X84135Y29954D01*
X85091Y30349D01*
X85911Y30979D01*
X86540Y31799D01*
X86936Y32754D01*
X87071Y33779D01*
X86936Y34805D01*
X86540Y35760D01*
X85911Y36580D01*
X85091Y37210D01*
X84135Y37605D01*
X83110Y37740D01*
D02*
G37*
G36*
X94016D02*
X92991Y37605D01*
X92035Y37210D01*
X91215Y36580D01*
X90586Y35760D01*
X90190Y34805D01*
X90055Y33779D01*
X90190Y32754D01*
X90586Y31799D01*
X91215Y30979D01*
X92035Y30349D01*
X92991Y29954D01*
X94016Y29819D01*
X95041Y29954D01*
X95996Y30349D01*
X96816Y30979D01*
X97446Y31799D01*
X97841Y32754D01*
X97976Y33779D01*
X97841Y34805D01*
X97446Y35760D01*
X96816Y36580D01*
X95996Y37210D01*
X95041Y37605D01*
X94016Y37740D01*
D02*
G37*
G36*
X72205D02*
X71180Y37605D01*
X70224Y37210D01*
X69404Y36580D01*
X68775Y35760D01*
X68379Y34805D01*
X68244Y33779D01*
X68379Y32754D01*
X68775Y31799D01*
X69404Y30979D01*
X70224Y30349D01*
X71180Y29954D01*
X72205Y29819D01*
X73230Y29954D01*
X74185Y30349D01*
X75005Y30979D01*
X75635Y31799D01*
X76030Y32754D01*
X76165Y33779D01*
X76030Y34805D01*
X75635Y35760D01*
X75005Y36580D01*
X74185Y37210D01*
X73230Y37605D01*
X72205Y37740D01*
D02*
G37*
G36*
X157874Y28313D02*
X156792Y28170D01*
X155784Y27753D01*
X154919Y27089D01*
X154255Y26223D01*
X153837Y25216D01*
X153695Y24134D01*
X153837Y23052D01*
X154255Y22044D01*
X154919Y21179D01*
X155784Y20515D01*
X156792Y20097D01*
X157874Y19955D01*
X158956Y20097D01*
X159964Y20515D01*
X160829Y21179D01*
X161493Y22044D01*
X161911Y23052D01*
X162053Y24134D01*
X161911Y25216D01*
X161493Y26223D01*
X160829Y27089D01*
X159964Y27753D01*
X158956Y28170D01*
X157874Y28313D01*
D02*
G37*
G36*
X326772Y26618D02*
X325419Y26484D01*
X324119Y26090D01*
X322920Y25449D01*
X321870Y24587D01*
X321007Y23537D01*
X320367Y22338D01*
X319972Y21037D01*
X319839Y19685D01*
X319972Y18333D01*
X320367Y17032D01*
X321007Y15834D01*
X321870Y14783D01*
X322920Y13921D01*
X324119Y13280D01*
X325419Y12886D01*
X326772Y12753D01*
X328124Y12886D01*
X329425Y13280D01*
X330623Y13921D01*
X331674Y14783D01*
X332536Y15834D01*
X333176Y17032D01*
X333571Y18333D01*
X333704Y19685D01*
X333571Y21037D01*
X333176Y22338D01*
X332536Y23537D01*
X331674Y24587D01*
X330623Y25449D01*
X329425Y26090D01*
X328124Y26484D01*
X326772Y26618D01*
D02*
G37*
G36*
X104921Y37740D02*
X103896Y37605D01*
X102941Y37210D01*
X102121Y36580D01*
X101491Y35760D01*
X101096Y34805D01*
X100961Y33779D01*
X101096Y32754D01*
X101491Y31799D01*
X102121Y30979D01*
X102941Y30349D01*
X103896Y29954D01*
X104921Y29819D01*
X105946Y29954D01*
X106902Y30349D01*
X107722Y30979D01*
X108351Y31799D01*
X108747Y32754D01*
X108882Y33779D01*
X108747Y34805D01*
X108351Y35760D01*
X107722Y36580D01*
X106902Y37210D01*
X105946Y37605D01*
X104921Y37740D01*
D02*
G37*
G36*
X231831Y38055D02*
X230806Y37920D01*
X229850Y37525D01*
X229030Y36895D01*
X228401Y36075D01*
X228005Y35120D01*
X227870Y34095D01*
X228005Y33069D01*
X228401Y32114D01*
X229030Y31294D01*
X229850Y30665D01*
X230806Y30269D01*
X231831Y30134D01*
X232856Y30269D01*
X233811Y30665D01*
X234631Y31294D01*
X235261Y32114D01*
X235656Y33069D01*
X235791Y34095D01*
X235656Y35120D01*
X235261Y36075D01*
X234631Y36895D01*
X233811Y37525D01*
X232856Y37920D01*
X231831Y38055D01*
D02*
G37*
G36*
X242736D02*
X241711Y37920D01*
X240756Y37525D01*
X239936Y36895D01*
X239306Y36075D01*
X238911Y35120D01*
X238776Y34095D01*
X238911Y33069D01*
X239306Y32114D01*
X239936Y31294D01*
X240756Y30665D01*
X241711Y30269D01*
X242736Y30134D01*
X243761Y30269D01*
X244717Y30665D01*
X245537Y31294D01*
X246166Y32114D01*
X246562Y33069D01*
X246697Y34095D01*
X246562Y35120D01*
X246166Y36075D01*
X245537Y36895D01*
X244717Y37525D01*
X243761Y37920D01*
X242736Y38055D01*
D02*
G37*
G36*
X11230Y159143D02*
X2943D01*
Y152154D01*
X1713Y150925D01*
X1514Y150627D01*
X1445Y150276D01*
Y138583D01*
X1514Y138232D01*
X1713Y137934D01*
X3807Y135840D01*
Y66142D01*
X3877Y65791D01*
X4075Y65493D01*
X5502Y64066D01*
Y61014D01*
X7373D01*
X8861Y59526D01*
X8670Y59065D01*
X5502D01*
Y55109D01*
X6253D01*
X6460Y54609D01*
X4469Y52617D01*
X4270Y52320D01*
X4200Y51968D01*
Y49606D01*
X4270Y49255D01*
X4469Y48957D01*
X6956Y46470D01*
Y45285D01*
X5305D01*
Y40148D01*
X10442D01*
Y45285D01*
X8792D01*
Y46850D01*
X8722Y47201D01*
X8523Y47499D01*
X7675Y48347D01*
X7866Y48809D01*
X10836D01*
Y50877D01*
X11672Y51713D01*
X11871Y52011D01*
X11941Y52362D01*
Y54201D01*
X14591D01*
X14699Y54053D01*
X14445Y53553D01*
X12786D01*
Y48809D01*
X13846D01*
Y45285D01*
X13180D01*
Y40148D01*
X17868D01*
X18075Y39648D01*
X17019Y38592D01*
X13180D01*
Y33455D01*
X12785Y33201D01*
X10837D01*
X10442Y33455D01*
Y38592D01*
X5305D01*
Y33455D01*
X6958D01*
X7026Y33113D01*
X7225Y32816D01*
X8406Y31635D01*
X8704Y31436D01*
X9055Y31366D01*
X17717D01*
X18068Y31436D01*
X18365Y31635D01*
X20334Y33603D01*
X20533Y33901D01*
X20603Y34252D01*
Y37883D01*
X29199Y46480D01*
X29711Y46338D01*
X29830Y46289D01*
X29921Y46197D01*
X30051D01*
X30170Y46148D01*
X32704D01*
X32907Y46232D01*
X33116Y46295D01*
X34167Y47157D01*
X35786Y48023D01*
X37543Y48556D01*
X39370Y48736D01*
X41197Y48556D01*
X42954Y48023D01*
X44573Y47157D01*
X45624Y46295D01*
X45833Y46232D01*
X46036Y46148D01*
X50915D01*
X51035Y46197D01*
X51164D01*
X51255Y46289D01*
X51375Y46338D01*
X51710Y46431D01*
X51957Y46409D01*
X52709Y45657D01*
X53006Y45458D01*
X53357Y45389D01*
X56091D01*
X56442Y45458D01*
X56740Y45657D01*
X59771Y48689D01*
X64339D01*
X64508Y48189D01*
X63951Y47761D01*
X63322Y46941D01*
X62926Y45986D01*
X62791Y44961D01*
X62926Y43936D01*
X63322Y42980D01*
X63951Y42160D01*
X64772Y41531D01*
X65727Y41135D01*
X66752Y41000D01*
X67777Y41135D01*
X68732Y41531D01*
X69553Y42160D01*
X70182Y42980D01*
X70578Y43936D01*
X70713Y44961D01*
X70578Y45986D01*
X70182Y46941D01*
X69553Y47761D01*
X68996Y48189D01*
X69165Y48689D01*
X75244D01*
X75414Y48189D01*
X74857Y47761D01*
X74227Y46941D01*
X73832Y45986D01*
X73697Y44961D01*
X73832Y43936D01*
X74227Y42980D01*
X74857Y42160D01*
X75677Y41531D01*
X76632Y41135D01*
X77658Y41000D01*
X78683Y41135D01*
X79638Y41531D01*
X80458Y42160D01*
X81087Y42980D01*
X81483Y43936D01*
X81618Y44961D01*
X81483Y45986D01*
X81087Y46941D01*
X80458Y47761D01*
X79901Y48189D01*
X80071Y48689D01*
X86150D01*
X86319Y48189D01*
X85762Y47761D01*
X85133Y46941D01*
X84737Y45986D01*
X84602Y44961D01*
X84737Y43936D01*
X85133Y42980D01*
X85762Y42160D01*
X86583Y41531D01*
X87538Y41135D01*
X88563Y41000D01*
X89588Y41135D01*
X90543Y41531D01*
X91364Y42160D01*
X91993Y42980D01*
X92389Y43936D01*
X92524Y44961D01*
X92389Y45986D01*
X91993Y46941D01*
X91364Y47761D01*
X90807Y48189D01*
X90976Y48689D01*
X97055D01*
X97225Y48189D01*
X96668Y47761D01*
X96039Y46941D01*
X95643Y45986D01*
X95508Y44961D01*
X95643Y43936D01*
X96039Y42980D01*
X96668Y42160D01*
X97488Y41531D01*
X98443Y41135D01*
X99468Y41000D01*
X100494Y41135D01*
X101449Y41531D01*
X102269Y42160D01*
X102899Y42980D01*
X103294Y43936D01*
X103429Y44961D01*
X103294Y45986D01*
X102899Y46941D01*
X102269Y47761D01*
X101712Y48189D01*
X101882Y48689D01*
X106447D01*
Y41034D01*
X114301D01*
Y47870D01*
X114801Y47919D01*
X114840Y47723D01*
X115238Y47128D01*
X115833Y46730D01*
X116535Y46590D01*
X117238Y46730D01*
X117527Y46646D01*
X117578Y46532D01*
X117648Y46466D01*
X117677Y46422D01*
X117711Y46338D01*
X117839Y46285D01*
X117939Y46191D01*
X118059Y46194D01*
X118171Y46148D01*
X131090D01*
X131292Y46232D01*
X131502Y46295D01*
X132553Y47157D01*
X134172Y48023D01*
X135929Y48556D01*
X137756Y48736D01*
X139583Y48556D01*
X141340Y48023D01*
X142959Y47157D01*
X144010Y46295D01*
X144219Y46232D01*
X144422Y46148D01*
X153774D01*
X154051Y45732D01*
X153837Y45215D01*
X153695Y44134D01*
X153837Y43052D01*
X154255Y42044D01*
X154919Y41179D01*
X155784Y40515D01*
X156792Y40097D01*
X157874Y39955D01*
X158956Y40097D01*
X159964Y40515D01*
X160829Y41179D01*
X161493Y42044D01*
X161911Y43052D01*
X162053Y44134D01*
X161911Y45215D01*
X161697Y45732D01*
X161974Y46148D01*
X170135D01*
X170338Y46232D01*
X170547Y46295D01*
X171982Y47472D01*
X173601Y48338D01*
X175358Y48871D01*
X177185Y49051D01*
X179012Y48871D01*
X180769Y48338D01*
X182388Y47472D01*
X183823Y46295D01*
X184032Y46232D01*
X184234Y46148D01*
X200342D01*
X200672Y45772D01*
X200606Y45276D01*
X200741Y44251D01*
X201137Y43295D01*
X201766Y42475D01*
X202587Y41846D01*
X203542Y41450D01*
X204567Y41315D01*
X205592Y41450D01*
X206547Y41846D01*
X207367Y42475D01*
X207997Y43295D01*
X208393Y44251D01*
X208528Y45276D01*
X208462Y45772D01*
X208792Y46148D01*
X211247D01*
X211577Y45772D01*
X211512Y45276D01*
X211647Y44251D01*
X212042Y43295D01*
X212672Y42475D01*
X213492Y41846D01*
X214447Y41450D01*
X215472Y41315D01*
X216497Y41450D01*
X217453Y41846D01*
X218273Y42475D01*
X218902Y43295D01*
X219298Y44251D01*
X219433Y45276D01*
X219368Y45772D01*
X219697Y46148D01*
X222153D01*
X222483Y45772D01*
X222417Y45276D01*
X222552Y44251D01*
X222948Y43295D01*
X223577Y42475D01*
X224398Y41846D01*
X225353Y41450D01*
X226378Y41315D01*
X227403Y41450D01*
X228358Y41846D01*
X229179Y42475D01*
X229808Y43295D01*
X230204Y44251D01*
X230339Y45276D01*
X230273Y45772D01*
X230603Y46148D01*
X233059D01*
X233388Y45772D01*
X233323Y45276D01*
X233458Y44251D01*
X233853Y43295D01*
X234483Y42475D01*
X235303Y41846D01*
X236258Y41450D01*
X237283Y41315D01*
X238309Y41450D01*
X239264Y41846D01*
X240084Y42475D01*
X240714Y43295D01*
X241109Y44251D01*
X241244Y45276D01*
X241179Y45772D01*
X241508Y46148D01*
X244262D01*
Y41349D01*
X252116D01*
Y46148D01*
X268521D01*
X268724Y46232D01*
X268933Y46295D01*
X270368Y47472D01*
X271987Y48338D01*
X273744Y48871D01*
X275571Y49051D01*
X277398Y48871D01*
X279155Y48338D01*
X280774Y47472D01*
X281664Y46742D01*
X281874Y46679D01*
X282076Y46595D01*
X314961D01*
X315420Y46785D01*
X315610Y47244D01*
Y77035D01*
X324738D01*
X331127Y70646D01*
X331027Y70515D01*
X330609Y69507D01*
X330467Y68425D01*
X330609Y67344D01*
X331027Y66336D01*
X331691Y65470D01*
X332556Y64806D01*
X333564Y64389D01*
X334646Y64246D01*
X335727Y64389D01*
X336735Y64806D01*
X337601Y65470D01*
X338265Y66336D01*
X338682Y67344D01*
X338825Y68425D01*
X338682Y69507D01*
X338265Y70515D01*
X337601Y71380D01*
X336735Y72044D01*
X335727Y72462D01*
X334646Y72604D01*
X333564Y72462D01*
X332556Y72044D01*
X332425Y71944D01*
X326264Y78104D01*
X326297Y78779D01*
X332425Y84907D01*
X332556Y84806D01*
X333564Y84389D01*
X334646Y84246D01*
X335727Y84389D01*
X336735Y84806D01*
X337601Y85470D01*
X338265Y86336D01*
X338682Y87344D01*
X338825Y88425D01*
X338682Y89507D01*
X338265Y90515D01*
X337601Y91380D01*
X336735Y92044D01*
X335727Y92462D01*
X334646Y92604D01*
X333564Y92462D01*
X332556Y92044D01*
X331691Y91380D01*
X331027Y90515D01*
X330609Y89507D01*
X330467Y88425D01*
X330609Y87344D01*
X331027Y86336D01*
X331127Y86204D01*
X324993Y80070D01*
X315610D01*
Y82408D01*
X330978Y97776D01*
X338583Y97776D01*
X339042Y97966D01*
X342979Y101903D01*
X343169Y102362D01*
Y110236D01*
X342979Y110696D01*
X335105Y118570D01*
X334646Y118760D01*
X321255D01*
Y121404D01*
X321065Y121863D01*
X316340Y126587D01*
X315881Y126778D01*
X285048D01*
X262403Y149422D01*
X261616Y150209D01*
X261157Y150400D01*
X250953D01*
X250783Y150900D01*
X250990Y151058D01*
X251619Y151878D01*
X252015Y152833D01*
X252150Y153858D01*
X252015Y154883D01*
X251619Y155839D01*
X250990Y156659D01*
X250169Y157288D01*
X249214Y157684D01*
X248189Y157819D01*
X247164Y157684D01*
X246209Y157288D01*
X245388Y156659D01*
X244759Y155839D01*
X244363Y154883D01*
X244228Y153858D01*
X244363Y152833D01*
X244759Y151878D01*
X245388Y151058D01*
X245594Y150900D01*
X245425Y150400D01*
X240048D01*
X239878Y150900D01*
X240084Y151058D01*
X240714Y151878D01*
X241109Y152833D01*
X241244Y153858D01*
X241109Y154883D01*
X240714Y155839D01*
X240084Y156659D01*
X239264Y157288D01*
X238309Y157684D01*
X237283Y157819D01*
X236258Y157684D01*
X235303Y157288D01*
X234483Y156659D01*
X233853Y155839D01*
X233458Y154883D01*
X233323Y153858D01*
X233458Y152833D01*
X233853Y151878D01*
X234483Y151058D01*
X234689Y150900D01*
X234519Y150400D01*
X229142D01*
X228973Y150900D01*
X229179Y151058D01*
X229808Y151878D01*
X230204Y152833D01*
X230339Y153858D01*
X230204Y154883D01*
X229808Y155839D01*
X229179Y156659D01*
X228358Y157288D01*
X227403Y157684D01*
X226378Y157819D01*
X225353Y157684D01*
X224398Y157288D01*
X223577Y156659D01*
X222948Y155839D01*
X222552Y154883D01*
X222417Y153858D01*
X222552Y152833D01*
X222948Y151878D01*
X223577Y151058D01*
X223783Y150900D01*
X223614Y150400D01*
X218237D01*
X218067Y150900D01*
X218273Y151058D01*
X218902Y151878D01*
X219298Y152833D01*
X219433Y153858D01*
X219298Y154883D01*
X218902Y155839D01*
X218273Y156659D01*
X217453Y157288D01*
X216497Y157684D01*
X215472Y157819D01*
X214447Y157684D01*
X213492Y157288D01*
X212672Y156659D01*
X212042Y155839D01*
X211647Y154883D01*
X211512Y153858D01*
X211647Y152833D01*
X212042Y151878D01*
X212672Y151058D01*
X212878Y150900D01*
X212708Y150400D01*
X208494D01*
Y157785D01*
X200640D01*
Y150400D01*
X179559D01*
X179468Y150362D01*
X179370Y150372D01*
X179012Y150263D01*
X177185Y150083D01*
X175358Y150263D01*
X175000Y150372D01*
X174902Y150362D01*
X174811Y150400D01*
X140149D01*
X140058Y150362D01*
X139961Y150372D01*
X139603Y150263D01*
X137776Y150083D01*
X135948Y150263D01*
X135591Y150372D01*
X135493Y150362D01*
X135402Y150400D01*
X123016D01*
X122984Y150387D01*
X122952Y150396D01*
X122759Y150293D01*
X122556Y150209D01*
X122198Y150477D01*
X121602Y150874D01*
X120900Y151014D01*
X120198Y150874D01*
X119602Y150477D01*
X119244Y150209D01*
X119041Y150293D01*
X118848Y150396D01*
X118816Y150387D01*
X118784Y150400D01*
X113158D01*
X112988Y150900D01*
X113194Y151058D01*
X113824Y151878D01*
X114219Y152833D01*
X114354Y153858D01*
X114219Y154883D01*
X113824Y155839D01*
X113194Y156659D01*
X112374Y157288D01*
X111419Y157684D01*
X110394Y157819D01*
X109369Y157684D01*
X108413Y157288D01*
X107593Y156659D01*
X106964Y155839D01*
X106568Y154883D01*
X106433Y153858D01*
X106568Y152833D01*
X106964Y151878D01*
X107593Y151058D01*
X107799Y150900D01*
X107629Y150400D01*
X102252D01*
X102083Y150900D01*
X102289Y151058D01*
X102918Y151878D01*
X103314Y152833D01*
X103449Y153858D01*
X103314Y154883D01*
X102918Y155839D01*
X102289Y156659D01*
X101469Y157288D01*
X100513Y157684D01*
X99488Y157819D01*
X98463Y157684D01*
X97508Y157288D01*
X96688Y156659D01*
X96058Y155839D01*
X95662Y154883D01*
X95527Y153858D01*
X95662Y152833D01*
X96058Y151878D01*
X96688Y151058D01*
X96894Y150900D01*
X96724Y150400D01*
X91347D01*
X91177Y150900D01*
X91383Y151058D01*
X92013Y151878D01*
X92408Y152833D01*
X92543Y153858D01*
X92408Y154883D01*
X92013Y155839D01*
X91383Y156659D01*
X90563Y157288D01*
X89608Y157684D01*
X88583Y157819D01*
X87558Y157684D01*
X86602Y157288D01*
X85782Y156659D01*
X85153Y155839D01*
X84757Y154883D01*
X84622Y153858D01*
X84757Y152833D01*
X85153Y151878D01*
X85782Y151058D01*
X85988Y150900D01*
X85818Y150400D01*
X80441D01*
X80272Y150900D01*
X80478Y151058D01*
X81107Y151878D01*
X81503Y152833D01*
X81638Y153858D01*
X81503Y154883D01*
X81107Y155839D01*
X80478Y156659D01*
X79658Y157288D01*
X78702Y157684D01*
X77677Y157819D01*
X76652Y157684D01*
X75697Y157288D01*
X74877Y156659D01*
X74247Y155839D01*
X73852Y154883D01*
X73716Y153858D01*
X73852Y152833D01*
X74247Y151878D01*
X74877Y151058D01*
X75083Y150900D01*
X74913Y150400D01*
X69536D01*
X69366Y150900D01*
X69572Y151058D01*
X70202Y151878D01*
X70597Y152833D01*
X70732Y153858D01*
X70597Y154883D01*
X70202Y155839D01*
X69572Y156659D01*
X68752Y157288D01*
X67797Y157684D01*
X66772Y157819D01*
X65747Y157684D01*
X64791Y157288D01*
X63971Y156659D01*
X63342Y155839D01*
X62946Y154883D01*
X62811Y153858D01*
X62946Y152833D01*
X63342Y151878D01*
X63971Y151058D01*
X64177Y150900D01*
X64007Y150400D01*
X41763D01*
X41673Y150362D01*
X41575Y150372D01*
X41217Y150263D01*
X39390Y150083D01*
X38907Y150131D01*
X38875Y150121D01*
X38844Y150134D01*
X38641Y150050D01*
X38432Y149986D01*
X38416Y149957D01*
X38385Y149943D01*
X35949Y147508D01*
X35900Y147389D01*
X35808Y147297D01*
Y147168D01*
X35759Y147049D01*
X35498Y146587D01*
X30709D01*
X30358Y146517D01*
X30060Y146318D01*
X20092Y136351D01*
X15144D01*
X14183Y137312D01*
Y140364D01*
X11131D01*
X9975Y141520D01*
X10007Y142019D01*
X10042Y142045D01*
X10706Y142911D01*
X11123Y143918D01*
X11266Y145000D01*
X11123Y146082D01*
X10706Y147090D01*
X10042Y147955D01*
X9176Y148619D01*
X8168Y149037D01*
X7087Y149179D01*
X6005Y149037D01*
X4997Y148619D01*
X4132Y147955D01*
X3780Y147497D01*
X3280Y147666D01*
Y149896D01*
X4241Y150857D01*
X11230D01*
Y159143D01*
D02*
G37*
G36*
X157874Y38313D02*
X156792Y38170D01*
X155784Y37753D01*
X154919Y37089D01*
X154255Y36223D01*
X153837Y35215D01*
X153695Y34134D01*
X153837Y33052D01*
X154255Y32044D01*
X154919Y31179D01*
X155784Y30515D01*
X156792Y30097D01*
X157874Y29955D01*
X158956Y30097D01*
X159964Y30515D01*
X160829Y31179D01*
X161493Y32044D01*
X161911Y33052D01*
X162053Y34134D01*
X161911Y35215D01*
X161493Y36223D01*
X160829Y37089D01*
X159964Y37753D01*
X158956Y38170D01*
X157874Y38313D01*
D02*
G37*
G36*
X210020Y38055D02*
X208995Y37920D01*
X208039Y37525D01*
X207219Y36895D01*
X206590Y36075D01*
X206194Y35120D01*
X206059Y34095D01*
X206194Y33069D01*
X206590Y32114D01*
X207219Y31294D01*
X208039Y30665D01*
X208995Y30269D01*
X210020Y30134D01*
X211045Y30269D01*
X212000Y30665D01*
X212820Y31294D01*
X213450Y32114D01*
X213845Y33069D01*
X213980Y34095D01*
X213845Y35120D01*
X213450Y36075D01*
X212820Y36895D01*
X212000Y37525D01*
X211045Y37920D01*
X210020Y38055D01*
D02*
G37*
G36*
X220925D02*
X219900Y37920D01*
X218945Y37525D01*
X218125Y36895D01*
X217495Y36075D01*
X217099Y35120D01*
X216965Y34095D01*
X217099Y33069D01*
X217495Y32114D01*
X218125Y31294D01*
X218945Y30665D01*
X219900Y30269D01*
X220925Y30134D01*
X221950Y30269D01*
X222905Y30665D01*
X223726Y31294D01*
X224355Y32114D01*
X224751Y33069D01*
X224886Y34095D01*
X224751Y35120D01*
X224355Y36075D01*
X223726Y36895D01*
X222905Y37525D01*
X221950Y37920D01*
X220925Y38055D01*
D02*
G37*
G36*
X231831Y169000D02*
X230806Y168865D01*
X229850Y168469D01*
X229030Y167840D01*
X228401Y167020D01*
X228005Y166065D01*
X227870Y165039D01*
X228005Y164014D01*
X228401Y163059D01*
X229030Y162239D01*
X229850Y161609D01*
X230806Y161214D01*
X231831Y161079D01*
X232856Y161214D01*
X233811Y161609D01*
X234631Y162239D01*
X235261Y163059D01*
X235656Y164014D01*
X235791Y165039D01*
X235656Y166065D01*
X235261Y167020D01*
X234631Y167840D01*
X233811Y168469D01*
X232856Y168865D01*
X231831Y169000D01*
D02*
G37*
G36*
X220925D02*
X219900Y168865D01*
X218945Y168469D01*
X218125Y167840D01*
X217495Y167020D01*
X217099Y166065D01*
X216965Y165039D01*
X217099Y164014D01*
X217495Y163059D01*
X218125Y162239D01*
X218945Y161609D01*
X219900Y161214D01*
X220925Y161079D01*
X221950Y161214D01*
X222905Y161609D01*
X223726Y162239D01*
X224355Y163059D01*
X224751Y164014D01*
X224886Y165039D01*
X224751Y166065D01*
X224355Y167020D01*
X223726Y167840D01*
X222905Y168469D01*
X221950Y168865D01*
X220925Y169000D01*
D02*
G37*
G36*
X210020D02*
X208995Y168865D01*
X208039Y168469D01*
X207219Y167840D01*
X206590Y167020D01*
X206194Y166065D01*
X206059Y165039D01*
X206194Y164014D01*
X206590Y163059D01*
X207219Y162239D01*
X208039Y161609D01*
X208995Y161214D01*
X210020Y161079D01*
X211045Y161214D01*
X212000Y161609D01*
X212820Y162239D01*
X213450Y163059D01*
X213845Y164014D01*
X213980Y165039D01*
X213845Y166065D01*
X213450Y167020D01*
X212820Y167840D01*
X212000Y168469D01*
X211045Y168865D01*
X210020Y169000D01*
D02*
G37*
G36*
X326772Y184098D02*
X325419Y183965D01*
X324119Y183570D01*
X322920Y182930D01*
X321870Y182067D01*
X321007Y181017D01*
X320367Y179818D01*
X319972Y178518D01*
X319839Y177165D01*
X319972Y175813D01*
X320367Y174512D01*
X321007Y173314D01*
X321870Y172263D01*
X322920Y171401D01*
X324119Y170761D01*
X325419Y170366D01*
X326772Y170233D01*
X328124Y170366D01*
X329425Y170761D01*
X330623Y171401D01*
X331674Y172263D01*
X332536Y173314D01*
X333176Y174512D01*
X333571Y175813D01*
X333704Y177165D01*
X333571Y178518D01*
X333176Y179818D01*
X332536Y181017D01*
X331674Y182067D01*
X330623Y182930D01*
X329425Y183570D01*
X328124Y183965D01*
X326772Y184098D01*
D02*
G37*
G36*
X11811D02*
X10458Y183965D01*
X9158Y183570D01*
X7959Y182930D01*
X6909Y182067D01*
X6047Y181017D01*
X5406Y179818D01*
X5012Y178518D01*
X4878Y177165D01*
X5012Y175813D01*
X5406Y174512D01*
X6047Y173314D01*
X6909Y172263D01*
X7959Y171401D01*
X9158Y170761D01*
X10458Y170366D01*
X11811Y170233D01*
X13163Y170366D01*
X14464Y170761D01*
X15663Y171401D01*
X16713Y172263D01*
X17575Y173314D01*
X18216Y174512D01*
X18610Y175813D01*
X18744Y177165D01*
X18610Y178518D01*
X18216Y179818D01*
X17575Y181017D01*
X16713Y182067D01*
X15663Y182930D01*
X14464Y183570D01*
X13163Y183965D01*
X11811Y184098D01*
D02*
G37*
G36*
X242736Y169000D02*
X241711Y168865D01*
X240756Y168469D01*
X239936Y167840D01*
X239306Y167020D01*
X238911Y166065D01*
X238776Y165039D01*
X238911Y164014D01*
X239306Y163059D01*
X239936Y162239D01*
X240756Y161609D01*
X241711Y161214D01*
X242736Y161079D01*
X243761Y161214D01*
X244717Y161609D01*
X245537Y162239D01*
X246166Y163059D01*
X246562Y164014D01*
X246697Y165039D01*
X246562Y166065D01*
X246166Y167020D01*
X245537Y167840D01*
X244717Y168469D01*
X243761Y168865D01*
X242736Y169000D01*
D02*
G37*
G36*
X72224D02*
X71199Y168865D01*
X70244Y168469D01*
X69424Y167840D01*
X68794Y167020D01*
X68399Y166065D01*
X68264Y165039D01*
X68399Y164014D01*
X68794Y163059D01*
X69424Y162239D01*
X70244Y161609D01*
X71199Y161214D01*
X72224Y161079D01*
X73250Y161214D01*
X74205Y161609D01*
X75025Y162239D01*
X75654Y163059D01*
X76050Y164014D01*
X76185Y165039D01*
X76050Y166065D01*
X75654Y167020D01*
X75025Y167840D01*
X74205Y168469D01*
X73250Y168865D01*
X72224Y169000D01*
D02*
G37*
G36*
X162017Y18277D02*
X153731D01*
Y9991D01*
X162017D01*
Y18277D01*
D02*
G37*
G36*
X11811Y26618D02*
X10458Y26484D01*
X9158Y26090D01*
X7959Y25449D01*
X6909Y24587D01*
X6047Y23537D01*
X5406Y22338D01*
X5012Y21037D01*
X4878Y19685D01*
X5012Y18333D01*
X5406Y17032D01*
X6047Y15834D01*
X6909Y14783D01*
X7959Y13921D01*
X9158Y13280D01*
X10458Y12886D01*
X11811Y12753D01*
X13163Y12886D01*
X14464Y13280D01*
X15663Y13921D01*
X16713Y14783D01*
X17575Y15834D01*
X18216Y17032D01*
X18610Y18333D01*
X18744Y19685D01*
X18610Y21037D01*
X18216Y22338D01*
X17575Y23537D01*
X16713Y24587D01*
X15663Y25449D01*
X14464Y26090D01*
X13163Y26484D01*
X11811Y26618D01*
D02*
G37*
G36*
X104941Y169000D02*
X103916Y168865D01*
X102961Y168469D01*
X102140Y167840D01*
X101511Y167020D01*
X101115Y166065D01*
X100980Y165039D01*
X101115Y164014D01*
X101511Y163059D01*
X102140Y162239D01*
X102961Y161609D01*
X103916Y161214D01*
X104941Y161079D01*
X105966Y161214D01*
X106921Y161609D01*
X107741Y162239D01*
X108371Y163059D01*
X108767Y164014D01*
X108902Y165039D01*
X108767Y166065D01*
X108371Y167020D01*
X107741Y167840D01*
X106921Y168469D01*
X105966Y168865D01*
X104941Y169000D01*
D02*
G37*
G36*
X94035D02*
X93010Y168865D01*
X92055Y168469D01*
X91235Y167840D01*
X90605Y167020D01*
X90210Y166065D01*
X90075Y165039D01*
X90210Y164014D01*
X90605Y163059D01*
X91235Y162239D01*
X92055Y161609D01*
X93010Y161214D01*
X94035Y161079D01*
X95060Y161214D01*
X96016Y161609D01*
X96836Y162239D01*
X97465Y163059D01*
X97861Y164014D01*
X97996Y165039D01*
X97861Y166065D01*
X97465Y167020D01*
X96836Y167840D01*
X96016Y168469D01*
X95060Y168865D01*
X94035Y169000D01*
D02*
G37*
G36*
X83130D02*
X82105Y168865D01*
X81150Y168469D01*
X80329Y167840D01*
X79700Y167020D01*
X79304Y166065D01*
X79169Y165039D01*
X79304Y164014D01*
X79700Y163059D01*
X80329Y162239D01*
X81150Y161609D01*
X82105Y161214D01*
X83130Y161079D01*
X84155Y161214D01*
X85110Y161609D01*
X85931Y162239D01*
X86560Y163059D01*
X86956Y164014D01*
X87091Y165039D01*
X86956Y166065D01*
X86560Y167020D01*
X85931Y167840D01*
X85110Y168469D01*
X84155Y168865D01*
X83130Y169000D01*
D02*
G37*
%LPD*%
G36*
X187540Y113918D02*
X187838Y113719D01*
X188189Y113649D01*
X212571D01*
X212762Y113187D01*
X211261Y111686D01*
X211062Y111388D01*
X210992Y111037D01*
Y110852D01*
X210822D01*
X210513Y110790D01*
X210251Y110615D01*
X210076Y110353D01*
X210014Y110044D01*
Y103932D01*
X210076Y103623D01*
X210251Y103361D01*
X210513Y103186D01*
X210822Y103125D01*
X212997D01*
X213306Y103186D01*
X213568Y103361D01*
X213743Y103623D01*
X213805Y103932D01*
Y110044D01*
X213743Y110353D01*
X213568Y110615D01*
X213523Y110645D01*
X213411Y111240D01*
X215945Y113775D01*
X224844D01*
X228610Y110009D01*
Y101346D01*
X228680Y100994D01*
X228879Y100697D01*
X235992Y93584D01*
Y89789D01*
X235822D01*
X235513Y89727D01*
X235251Y89552D01*
X235076Y89290D01*
X235014Y88981D01*
Y82869D01*
X235076Y82560D01*
X235251Y82298D01*
X235513Y82123D01*
X235822Y82062D01*
X235992D01*
Y80203D01*
X234245Y78456D01*
X223021D01*
X220007Y81471D01*
Y89434D01*
X219937Y89785D01*
X219738Y90082D01*
X217420Y92400D01*
X217123Y92599D01*
X216771Y92669D01*
X205350D01*
X204999Y92599D01*
X204702Y92400D01*
X202881Y90579D01*
X202880Y90578D01*
X195371Y83069D01*
X192650D01*
X192459Y83531D01*
X204204Y95277D01*
X219051D01*
X223812Y90516D01*
Y82417D01*
X223882Y82066D01*
X224081Y81768D01*
X224721Y81128D01*
X225018Y80929D01*
X225370Y80860D01*
X229809D01*
X230160Y80929D01*
X230457Y81128D01*
X231391Y82062D01*
X232997D01*
X233306Y82123D01*
X233568Y82298D01*
X233743Y82560D01*
X233804Y82869D01*
Y88981D01*
X233743Y89290D01*
X233568Y89552D01*
X233306Y89727D01*
X232997Y89789D01*
X232827D01*
Y94033D01*
X232757Y94384D01*
X232558Y94682D01*
X225007Y102233D01*
Y110497D01*
X224937Y110848D01*
X224738Y111145D01*
X224098Y111785D01*
X223800Y111984D01*
X223449Y112054D01*
X218282D01*
X217930Y111984D01*
X217633Y111785D01*
X216699Y110852D01*
X215822D01*
X215513Y110790D01*
X215251Y110615D01*
X215076Y110353D01*
X215014Y110044D01*
Y103932D01*
X215076Y103623D01*
X215251Y103361D01*
X215513Y103186D01*
X215822Y103125D01*
X217997D01*
X218306Y103186D01*
X218568Y103361D01*
X218743Y103623D01*
X218805Y103932D01*
Y110044D01*
X218948Y110219D01*
X219871D01*
X220014Y110044D01*
Y103932D01*
X220076Y103623D01*
X220251Y103361D01*
X220513Y103186D01*
X220822Y103125D01*
X220992D01*
Y98254D01*
X220492Y98100D01*
X220280Y98242D01*
X219928Y98312D01*
X203327D01*
X202976Y98242D01*
X202678Y98043D01*
X175631Y70996D01*
X173441D01*
X173090Y70926D01*
X172792Y70728D01*
X172190Y70125D01*
X172188Y70125D01*
X171642Y70285D01*
X171617Y70402D01*
X171714Y70547D01*
X171784Y70898D01*
Y96523D01*
X173219D01*
Y95463D01*
X177962D01*
Y96523D01*
X180306D01*
Y95463D01*
X185049D01*
Y99419D01*
X180306D01*
Y98359D01*
X177962D01*
Y99419D01*
X178338Y99718D01*
X178510Y99752D01*
X178808Y99951D01*
X181089Y102232D01*
X203071D01*
X203422Y102302D01*
X203720Y102501D01*
X204644Y103425D01*
X205251Y103361D01*
X205513Y103186D01*
X205822Y103125D01*
X207997D01*
X208306Y103186D01*
X208568Y103361D01*
X208743Y103623D01*
X208804Y103932D01*
Y110044D01*
X208743Y110353D01*
X208568Y110615D01*
X208306Y110790D01*
X207997Y110852D01*
X205822D01*
X205513Y110790D01*
X205251Y110615D01*
X205076Y110353D01*
X205014Y110044D01*
Y106391D01*
X202691Y104067D01*
X180709D01*
X180358Y103997D01*
X180060Y103798D01*
X178424Y102163D01*
X177962Y102354D01*
Y105324D01*
X173219D01*
Y104264D01*
X163069D01*
X162917Y104764D01*
X163375Y105070D01*
X163812Y105724D01*
X163965Y106496D01*
Y113583D01*
X163812Y114354D01*
X163375Y115009D01*
X162866Y115348D01*
Y117474D01*
X164141Y118748D01*
X182710D01*
X187540Y113918D01*
D02*
G37*
G36*
X163067Y68312D02*
Y67802D01*
X162596Y67634D01*
X162382Y67894D01*
X161332Y68756D01*
X160133Y69397D01*
X158833Y69792D01*
X157480Y69925D01*
X156128Y69792D01*
X154827Y69397D01*
X153629Y68756D01*
X152578Y67894D01*
X151716Y66844D01*
X151075Y65645D01*
X150681Y64345D01*
X150548Y62992D01*
X150681Y61640D01*
X151075Y60339D01*
X151716Y59141D01*
X152578Y58090D01*
X153629Y57228D01*
X154827Y56587D01*
X155819Y56286D01*
X155745Y55786D01*
X149748D01*
X148436Y57098D01*
X148306Y57185D01*
Y61636D01*
X148324Y61662D01*
X148510Y62598D01*
X148324Y63535D01*
X147793Y64329D01*
X146999Y64859D01*
X146444Y64970D01*
X146280Y65512D01*
X151840Y71073D01*
X160307D01*
X163067Y68312D01*
D02*
G37*
G36*
X168153Y96691D02*
X168128Y96484D01*
X168004Y96384D01*
X167588Y96181D01*
X166949Y96308D01*
X166177Y96154D01*
X165523Y95717D01*
X165086Y95063D01*
X164932Y94291D01*
Y87205D01*
X165086Y86433D01*
X165184Y86285D01*
X164948Y85844D01*
X163949D01*
X163713Y86285D01*
X163812Y86433D01*
X163965Y87205D01*
Y94291D01*
X163812Y95063D01*
X163375Y95717D01*
X162721Y96154D01*
X161949Y96308D01*
X161177Y96154D01*
X160523Y95717D01*
X160086Y95063D01*
X159932Y94291D01*
Y92103D01*
X158966D01*
Y94291D01*
X158812Y95063D01*
X158375Y95717D01*
X157867Y96057D01*
Y96201D01*
X157797Y96552D01*
X157598Y96850D01*
X156259Y98189D01*
X156466Y98689D01*
X166155D01*
X168153Y96691D01*
D02*
G37*
G36*
X223440Y101205D02*
X230992Y93653D01*
Y89789D01*
X230822D01*
X230513Y89727D01*
X230251Y89552D01*
X230076Y89290D01*
X230014Y88981D01*
Y83281D01*
X229430Y82696D01*
X228935Y82710D01*
X228804Y82869D01*
Y88981D01*
X228743Y89290D01*
X228568Y89552D01*
X228306Y89727D01*
X227997Y89789D01*
X227827D01*
Y90413D01*
X227757Y90764D01*
X227558Y91062D01*
X222827Y95793D01*
Y101222D01*
X223327Y101374D01*
X223440Y101205D01*
D02*
G37*
G36*
X51107Y47259D02*
X50915Y46797D01*
X46036D01*
X44936Y47700D01*
X43204Y48626D01*
X41325Y49196D01*
X39370Y49388D01*
X37416Y49196D01*
X35536Y48626D01*
X33804Y47700D01*
X32704Y46797D01*
X30170D01*
X29979Y47259D01*
X33376Y50657D01*
X47709D01*
X51107Y47259D01*
D02*
G37*
G36*
X18275Y50795D02*
X18573Y50595D01*
X18924Y50526D01*
X28245D01*
X28469Y50042D01*
X18816Y40390D01*
X18316Y40597D01*
Y45285D01*
X15681D01*
Y48809D01*
X16742D01*
Y51674D01*
X17204Y51866D01*
X18275Y50795D01*
D02*
G37*
G36*
X169568Y60050D02*
X169422Y59571D01*
X169089Y59505D01*
X168361Y59018D01*
X165129Y55786D01*
X159216D01*
X159142Y56286D01*
X160133Y56587D01*
X161332Y57228D01*
X162382Y58090D01*
X163245Y59141D01*
X163885Y60339D01*
X164280Y61640D01*
X164413Y62992D01*
X164280Y64345D01*
X164155Y64755D01*
X164597Y65020D01*
X169568Y60050D01*
D02*
G37*
G36*
X4132Y142045D02*
X4997Y141381D01*
X6005Y140963D01*
X7087Y140821D01*
X7963Y140936D01*
X9439Y139460D01*
Y136408D01*
X12491D01*
X13941Y134958D01*
X13734Y134458D01*
X9439D01*
Y130502D01*
X12491D01*
X15186Y127807D01*
X9044Y121665D01*
X8558Y120937D01*
X8387Y120079D01*
Y92726D01*
X8061D01*
Y80896D01*
X8795D01*
Y77953D01*
X8934Y77250D01*
X9332Y76655D01*
X9720Y76267D01*
Y64970D01*
X7194D01*
X5642Y66522D01*
Y136221D01*
X5572Y136572D01*
X5373Y136869D01*
X3280Y138963D01*
Y142334D01*
X3780Y142503D01*
X4132Y142045D01*
D02*
G37*
G36*
X180101Y70520D02*
Y63745D01*
X178381Y62025D01*
X171884D01*
X169298Y64612D01*
X169489Y65074D01*
X171052D01*
X171403Y65143D01*
X171701Y65342D01*
X174319Y67961D01*
X176508D01*
X176859Y68031D01*
X177157Y68230D01*
X179639Y70711D01*
X180101Y70520D01*
D02*
G37*
G36*
X166143Y139466D02*
Y130433D01*
X162612Y126902D01*
X160038D01*
X159964Y127402D01*
X160133Y127453D01*
X161332Y128094D01*
X162382Y128956D01*
X163245Y130007D01*
X163885Y131205D01*
X164280Y132506D01*
X164413Y133858D01*
X164280Y135211D01*
X163885Y136511D01*
X163245Y137710D01*
X162382Y138760D01*
X161332Y139622D01*
X160528Y140052D01*
X160653Y140552D01*
X165057D01*
X166143Y139466D01*
D02*
G37*
G36*
X248290Y110742D02*
X245964Y108416D01*
X243805D01*
Y110044D01*
X243743Y110353D01*
X243568Y110615D01*
X243306Y110790D01*
X242997Y110852D01*
X242036D01*
X241845Y111314D01*
X242513Y111982D01*
X242712Y112279D01*
X242781Y112630D01*
Y114435D01*
X242712Y114787D01*
X242513Y115084D01*
X240710Y116887D01*
X240901Y117349D01*
X241684D01*
X248290Y110742D01*
D02*
G37*
G36*
X183071Y135804D02*
Y125727D01*
X164686D01*
X164495Y126189D01*
X167710Y129404D01*
X167908Y129702D01*
X167978Y130053D01*
Y139846D01*
X167908Y140197D01*
X167710Y140495D01*
X166939Y141265D01*
X167131Y141727D01*
X177148D01*
X183071Y135804D01*
D02*
G37*
G36*
X154433Y140052D02*
X153629Y139622D01*
X152578Y138760D01*
X151716Y137710D01*
X151075Y136511D01*
X150681Y135211D01*
X150548Y133858D01*
X150681Y132506D01*
X151075Y131205D01*
X151716Y130007D01*
X152578Y128956D01*
X153629Y128094D01*
X154827Y127453D01*
X156128Y127059D01*
X157480Y126926D01*
X158516Y127028D01*
X158605Y126908D01*
X158720Y126545D01*
X149055Y116881D01*
X148555Y117088D01*
Y136221D01*
X148486Y136572D01*
X148287Y136869D01*
X146234Y138922D01*
X146324Y139370D01*
X146188Y140052D01*
X146179Y140141D01*
X146442Y140552D01*
X154308D01*
X154433Y140052D01*
D02*
G37*
G36*
X95531Y118766D02*
X110137D01*
Y114813D01*
X109925Y114684D01*
X109637Y114601D01*
X109448Y114727D01*
X109139Y114789D01*
X108161D01*
X107894Y115289D01*
X107995Y115439D01*
X108134Y116141D01*
X107995Y116844D01*
X107597Y117439D01*
X107001Y117837D01*
X106299Y117977D01*
X105597Y117837D01*
X105001Y117439D01*
X104603Y116844D01*
X104464Y116141D01*
X104553Y115693D01*
X103648Y114789D01*
X101964D01*
X101655Y114727D01*
X101393Y114552D01*
X101218Y114290D01*
X101156Y113981D01*
Y107869D01*
X101218Y107560D01*
X101376Y107323D01*
X101347Y107183D01*
X101204Y106823D01*
X99899D01*
X99756Y107183D01*
X99726Y107323D01*
X99885Y107560D01*
X99946Y107869D01*
Y113981D01*
X99885Y114290D01*
X99710Y114552D01*
X99448Y114727D01*
X99139Y114789D01*
X96964D01*
X96655Y114727D01*
X96393Y114552D01*
X96218Y114290D01*
X96156Y113981D01*
Y107869D01*
X96218Y107560D01*
X96393Y107298D01*
X96655Y107123D01*
X96964Y107062D01*
X97134D01*
Y106693D01*
X97203Y106342D01*
X97402Y106044D01*
X98190Y105257D01*
X98487Y105058D01*
X98839Y104988D01*
X99203Y104931D01*
Y100975D01*
X103946D01*
Y101525D01*
X104715D01*
Y100975D01*
X107136D01*
X107328Y100847D01*
X107874Y100738D01*
X107874Y100738D01*
X112195D01*
Y100187D01*
X116939D01*
Y101967D01*
X118598Y103626D01*
X119060Y103435D01*
Y99705D01*
X119160Y99202D01*
X119445Y98775D01*
X119456Y98768D01*
Y90059D01*
X119526Y89708D01*
X119725Y89410D01*
X120727Y88408D01*
X120605Y87795D01*
X120745Y87093D01*
X121143Y86497D01*
X121738Y86099D01*
X122441Y85960D01*
X123143Y86099D01*
X123738Y86497D01*
X124136Y87093D01*
X124276Y87795D01*
X124136Y88497D01*
X123738Y89093D01*
X123143Y89491D01*
X122441Y89630D01*
X122157Y89574D01*
X121292Y90439D01*
Y98465D01*
X121785Y98784D01*
X122015Y98721D01*
X122085Y98369D01*
X122284Y98072D01*
X129329Y91027D01*
X129627Y90828D01*
X129978Y90758D01*
X149932D01*
Y87205D01*
X150086Y86433D01*
X150523Y85779D01*
X151177Y85342D01*
X151949Y85188D01*
X152721Y85342D01*
X153252Y85696D01*
X153387Y85777D01*
X153928Y85706D01*
X155356Y84278D01*
X155654Y84079D01*
X156005Y84009D01*
X166423D01*
X166774Y84079D01*
X167072Y84278D01*
X167598Y84804D01*
X167797Y85102D01*
X167874Y85125D01*
X168374Y84754D01*
Y74644D01*
X167802Y74530D01*
X167206Y74132D01*
X166808Y73537D01*
X166713Y73060D01*
X166189Y72877D01*
X162827Y76239D01*
X162529Y76438D01*
X162178Y76508D01*
X149426D01*
X149075Y76438D01*
X148777Y76239D01*
X148280Y75742D01*
X147803Y75847D01*
X147747Y75916D01*
X147483Y76311D01*
X147360Y76494D01*
X147593Y76941D01*
X147754Y77049D01*
X148152Y77644D01*
X148292Y78347D01*
X148152Y79049D01*
X147754Y79644D01*
X147159Y80042D01*
X146457Y80182D01*
X145754Y80042D01*
X145159Y79644D01*
X145110Y79639D01*
X144720Y80004D01*
Y82185D01*
X144620Y82688D01*
X144335Y83114D01*
X143908Y83399D01*
X143405Y83499D01*
X142903Y83399D01*
X142476Y83114D01*
X142427Y83040D01*
X141825D01*
X141776Y83114D01*
X141349Y83399D01*
X140847Y83499D01*
X140343Y83399D01*
X139917Y83114D01*
X139868Y83040D01*
X139266D01*
X139217Y83114D01*
X138790Y83399D01*
X138287Y83499D01*
X137785Y83399D01*
X137358Y83114D01*
X137309Y83040D01*
X136707D01*
X136658Y83114D01*
X136231Y83399D01*
X135728Y83499D01*
X135225Y83399D01*
X134799Y83114D01*
X134749Y83040D01*
X134148D01*
X134099Y83114D01*
X133672Y83399D01*
X133169Y83499D01*
X132666Y83399D01*
X132240Y83114D01*
X131955Y82688D01*
X131855Y82185D01*
Y80834D01*
X131662Y80546D01*
X131538Y79921D01*
Y73721D01*
X131662Y73096D01*
X132016Y72567D01*
X132615Y71967D01*
X132770Y71189D01*
X132865Y71048D01*
Y70293D01*
X127577D01*
Y74310D01*
X128700Y75434D01*
X128899Y75731D01*
X128969Y76083D01*
Y76720D01*
X128981Y76728D01*
X129265Y77154D01*
X129365Y77658D01*
Y82185D01*
X129265Y82688D01*
X128981Y83114D01*
X128554Y83399D01*
X128051Y83499D01*
X127548Y83399D01*
X127122Y83114D01*
X127072Y83040D01*
X126471D01*
X126421Y83114D01*
X125995Y83399D01*
X125492Y83499D01*
X124989Y83399D01*
X124563Y83114D01*
X124513Y83040D01*
X123912D01*
X123862Y83114D01*
X123436Y83399D01*
X122933Y83499D01*
X122430Y83399D01*
X122004Y83114D01*
X121954Y83040D01*
X121353D01*
X121303Y83114D01*
X120877Y83399D01*
X120374Y83499D01*
X119871Y83399D01*
X119445Y83114D01*
X119160Y82688D01*
X119060Y82185D01*
Y77658D01*
X119160Y77154D01*
X119445Y76728D01*
X119456Y76720D01*
Y72268D01*
X118994Y72077D01*
X116526Y74545D01*
X116448Y74663D01*
X113548Y77562D01*
Y90428D01*
X113479Y90779D01*
X113280Y91076D01*
X110419Y93937D01*
X110121Y94136D01*
X109770Y94206D01*
X99726D01*
X99375Y94136D01*
X99077Y93937D01*
X94700Y89559D01*
X94448Y89727D01*
X94244Y89768D01*
Y99194D01*
X94174Y99545D01*
X93975Y99843D01*
X88969Y104849D01*
Y107062D01*
X89139D01*
X89448Y107123D01*
X89710Y107298D01*
X89885Y107560D01*
X89946Y107869D01*
Y113981D01*
X89885Y114290D01*
X89710Y114552D01*
X89448Y114727D01*
X89139Y114789D01*
X86964D01*
X86655Y114727D01*
X86393Y114552D01*
X86218Y114290D01*
X86156Y113981D01*
Y107869D01*
X86218Y107560D01*
X86393Y107298D01*
X86655Y107123D01*
X86964Y107062D01*
X87134D01*
Y105145D01*
X86634Y104938D01*
X84671Y106901D01*
X84710Y107298D01*
X84885Y107560D01*
X84946Y107869D01*
Y113981D01*
X84885Y114290D01*
X84710Y114552D01*
X84448Y114727D01*
X84139Y114789D01*
X81964D01*
X81655Y114727D01*
X81393Y114552D01*
X81218Y114290D01*
X81156Y113981D01*
Y107869D01*
X81218Y107560D01*
X81393Y107298D01*
X81655Y107123D01*
X81964Y107062D01*
X82166D01*
X82203Y106872D01*
X82402Y106574D01*
X89954Y99022D01*
Y81777D01*
X90024Y81426D01*
X90223Y81128D01*
X90838Y80513D01*
X90646Y80051D01*
X88569D01*
X86351Y82270D01*
Y99213D01*
X86281Y99564D01*
X86082Y99862D01*
X79350Y106594D01*
X79435Y107054D01*
X79496Y107155D01*
X79710Y107298D01*
X79885Y107560D01*
X79946Y107869D01*
Y113981D01*
X79885Y114290D01*
X79710Y114552D01*
X79448Y114727D01*
X79139Y114789D01*
X76964D01*
X76655Y114727D01*
X76393Y114552D01*
X76218Y114290D01*
X76156Y113981D01*
Y107869D01*
X76218Y107560D01*
X76393Y107298D01*
X76655Y107123D01*
X76964Y107062D01*
X77134D01*
Y106595D01*
X77203Y106243D01*
X77402Y105946D01*
X84515Y98832D01*
Y90224D01*
X84139Y89789D01*
X81964D01*
X81655Y89727D01*
X81393Y89552D01*
X81218Y89290D01*
X81156Y88981D01*
Y82965D01*
X80962Y82727D01*
X80711Y82543D01*
X80709Y82544D01*
X80378Y82478D01*
X79955Y82861D01*
X79946Y82902D01*
Y88981D01*
X79885Y89290D01*
X79710Y89552D01*
X79448Y89727D01*
X79139Y89789D01*
X76964D01*
X76655Y89727D01*
X76393Y89552D01*
X76218Y89290D01*
X76156Y88981D01*
Y82869D01*
X76218Y82560D01*
X76393Y82298D01*
X76655Y82123D01*
X76964Y82062D01*
X77158D01*
X77203Y81834D01*
X77402Y81536D01*
X78879Y80060D01*
X79057Y79941D01*
X79411Y79411D01*
X80006Y79013D01*
X80709Y78873D01*
X81411Y79013D01*
X82006Y79411D01*
X82009Y79413D01*
X82475Y79444D01*
X82636Y79453D01*
X84718Y77370D01*
X84526Y76908D01*
X78626D01*
X73935Y81600D01*
X74050Y81879D01*
X74173Y82069D01*
X74448Y82123D01*
X74710Y82298D01*
X74885Y82560D01*
X74946Y82869D01*
Y88981D01*
X74885Y89290D01*
X74710Y89552D01*
X74448Y89727D01*
X74139Y89789D01*
X71964D01*
X71655Y89727D01*
X71393Y89552D01*
X71218Y89290D01*
X71156Y88981D01*
Y87353D01*
X68182D01*
X52779Y102756D01*
X68789Y118766D01*
X95276D01*
X95403Y118792D01*
X95531Y118766D01*
D02*
G37*
G36*
X32087Y144252D02*
X31819Y144198D01*
X31091Y143712D01*
X16484Y129105D01*
X14183Y131406D01*
Y134160D01*
X14227Y134242D01*
X14650Y134538D01*
X14764Y134515D01*
X20472D01*
X20824Y134585D01*
X21121Y134784D01*
X31089Y144752D01*
X32038D01*
X32087Y144252D01*
D02*
G37*
G36*
X142798Y140141D02*
X142789Y140052D01*
X142653Y139370D01*
X142793Y138668D01*
X143191Y138072D01*
X143786Y137674D01*
X144488Y137535D01*
X144937Y137624D01*
X146720Y135840D01*
Y111797D01*
X142757Y107834D01*
X142558Y107536D01*
X142488Y107185D01*
Y105169D01*
X142476Y105162D01*
X142427Y105087D01*
X141825D01*
X141776Y105162D01*
X141349Y105447D01*
X141072Y105502D01*
X135563Y111010D01*
Y115762D01*
X139280Y119479D01*
X145088D01*
Y125009D01*
X141666D01*
Y125197D01*
X141596Y125548D01*
X141397Y125846D01*
X138395Y128847D01*
Y131899D01*
X134439D01*
Y127156D01*
X137491D01*
X139176Y125471D01*
X138984Y125009D01*
X136408D01*
Y119479D01*
X136408Y119479D01*
X136408D01*
X136244Y119037D01*
X133997Y116791D01*
X133798Y116493D01*
X133728Y116142D01*
Y111530D01*
X133266Y111339D01*
X130767Y113838D01*
X130521Y114002D01*
Y115954D01*
X121841D01*
Y114107D01*
X120482D01*
Y115167D01*
X115739D01*
X115485Y115562D01*
Y119623D01*
X122302Y126440D01*
X122501Y126738D01*
X122571Y127089D01*
Y127422D01*
X135702Y140552D01*
X142534D01*
X142798Y140141D01*
D02*
G37*
G36*
X121841Y110424D02*
X130521D01*
Y110835D01*
X130983Y111026D01*
X136009Y106000D01*
X135763Y105540D01*
X135728Y105546D01*
X135225Y105447D01*
X134799Y105162D01*
X134778Y105131D01*
X134248Y105236D01*
X134205Y105449D01*
X133962Y105813D01*
X133962Y105813D01*
X132683Y107092D01*
X132319Y107335D01*
X131890Y107421D01*
X131890Y107421D01*
X119685D01*
X119256Y107335D01*
X119134Y107254D01*
X118634Y107521D01*
Y109843D01*
X118564Y110194D01*
X118365Y110491D01*
X118108Y110749D01*
X118299Y111211D01*
X120482D01*
Y112271D01*
X121841D01*
Y110424D01*
D02*
G37*
G36*
X119102Y149364D02*
X119065Y149179D01*
X119154Y148730D01*
X117010Y146587D01*
X36600D01*
X36408Y147049D01*
X38844Y149484D01*
X39390Y149431D01*
X41344Y149623D01*
X41763Y149750D01*
X118784D01*
X119102Y149364D01*
D02*
G37*
G36*
X148531Y110306D02*
Y105276D01*
X148601Y104924D01*
X148800Y104627D01*
X151241Y102186D01*
X151049Y101724D01*
X149232D01*
X148880Y101654D01*
X148583Y101455D01*
X145683Y98555D01*
X144789D01*
X144522Y99055D01*
X144620Y99202D01*
X144720Y99705D01*
Y104232D01*
X144620Y104735D01*
X144335Y105162D01*
X144323Y105169D01*
Y106805D01*
X148031Y110513D01*
X148531Y110306D01*
D02*
G37*
G36*
X261944Y148963D02*
X284779Y126128D01*
X315881D01*
X320606Y121404D01*
Y119042D01*
Y118110D01*
X334646D01*
X342520Y110236D01*
Y102362D01*
X338583Y98425D01*
X330709Y98425D01*
X314961Y82677D01*
Y80070D01*
X259416D01*
X240288Y99199D01*
Y102781D01*
X240788Y103131D01*
X240822Y103125D01*
X242997D01*
X243306Y103186D01*
X243568Y103361D01*
X243743Y103623D01*
X243805Y103932D01*
Y105561D01*
X246555D01*
X246555Y105561D01*
X247101Y105669D01*
X247565Y105979D01*
X248996Y107411D01*
X249458Y107220D01*
Y102264D01*
X249458Y102264D01*
X249567Y101718D01*
X249876Y101254D01*
X263164Y87967D01*
X263164Y87967D01*
X263627Y87658D01*
X264173Y87549D01*
X264173Y87549D01*
X280896D01*
Y86605D01*
X284852D01*
Y91348D01*
X280896D01*
Y90404D01*
X264764D01*
X252313Y102855D01*
Y109627D01*
X252472Y109733D01*
X252670Y110030D01*
X253946D01*
Y113986D01*
X251391D01*
X244199Y121178D01*
X243471Y121665D01*
X242613Y121835D01*
X218764D01*
X218497Y122335D01*
X218624Y122526D01*
X218702Y122916D01*
X221155Y125369D01*
X222997D01*
X223306Y125430D01*
X223568Y125605D01*
X223743Y125867D01*
X223804Y126176D01*
Y132288D01*
X223743Y132597D01*
X223568Y132859D01*
X223306Y133034D01*
X222997Y133096D01*
X220822D01*
X220513Y133034D01*
X220251Y132859D01*
X220076Y132597D01*
X220014Y132288D01*
Y126824D01*
X219291Y126100D01*
X219172Y126119D01*
X218805Y126321D01*
Y132288D01*
X218743Y132597D01*
X218568Y132859D01*
X218306Y133034D01*
X217997Y133096D01*
X215822D01*
X215513Y133034D01*
X215251Y132859D01*
X215076Y132597D01*
X215014Y132288D01*
Y127947D01*
X214266Y127199D01*
X213805Y127390D01*
Y132288D01*
X213743Y132597D01*
X213568Y132859D01*
X213306Y133034D01*
X212997Y133096D01*
X210822D01*
X210513Y133034D01*
X210251Y132859D01*
X210076Y132597D01*
X210014Y132288D01*
Y127947D01*
X208069Y126002D01*
X205611D01*
X202140Y129473D01*
X202229Y129921D01*
X202089Y130624D01*
X201691Y131219D01*
X201096Y131617D01*
X200394Y131756D01*
X199691Y131617D01*
X199096Y131219D01*
X198698Y130624D01*
X198558Y129921D01*
X198698Y129219D01*
X199096Y128623D01*
X199691Y128226D01*
X200394Y128086D01*
X200842Y128175D01*
X204582Y124435D01*
X204879Y124237D01*
X205231Y124167D01*
X208449D01*
X208801Y124237D01*
X209098Y124435D01*
X210261Y125598D01*
X210513Y125430D01*
X210822Y125369D01*
X211783D01*
X211974Y124907D01*
X210032Y122965D01*
X201158D01*
X200904Y123345D01*
X200309Y123743D01*
X199606Y123882D01*
X198904Y123743D01*
X198309Y123345D01*
X197911Y122750D01*
X197771Y122047D01*
X197911Y121345D01*
X197976Y121247D01*
X197709Y120747D01*
X191223D01*
X187557Y124413D01*
Y136733D01*
X187386Y137592D01*
X186900Y138319D01*
X179663Y145556D01*
X178936Y146042D01*
X178077Y146213D01*
X134286D01*
X133428Y146042D01*
X132700Y145556D01*
X115426Y128282D01*
X115283Y128253D01*
X115142Y128159D01*
X113770D01*
Y125914D01*
X112807Y124951D01*
X112404Y125073D01*
X112300Y125150D01*
X111928Y125707D01*
X111332Y126105D01*
X110630Y126245D01*
X109928Y126105D01*
X109849Y126052D01*
X107096Y128806D01*
X107303Y129306D01*
X109139D01*
X109448Y129367D01*
X109710Y129542D01*
X109885Y129804D01*
X109946Y130113D01*
Y132252D01*
X111516D01*
X111867Y132322D01*
X112165Y132520D01*
X113725Y134081D01*
X114173Y133992D01*
X114875Y134131D01*
X115471Y134529D01*
X115869Y135125D01*
X116008Y135827D01*
X115869Y136529D01*
X115471Y137125D01*
X114875Y137522D01*
X114173Y137662D01*
X113471Y137522D01*
X112875Y137125D01*
X112478Y136529D01*
X112338Y135827D01*
X112427Y135378D01*
X111136Y134087D01*
X109946D01*
Y136225D01*
X109885Y136534D01*
X109710Y136796D01*
X109448Y136971D01*
X109139Y137033D01*
X106964D01*
X106655Y136971D01*
X106393Y136796D01*
X106218Y136534D01*
X106156Y136225D01*
Y130452D01*
X105656Y130245D01*
X104946Y130955D01*
Y136225D01*
X104885Y136534D01*
X104710Y136796D01*
X104448Y136971D01*
X104139Y137033D01*
X101964D01*
X101655Y136971D01*
X101393Y136796D01*
X101218Y136534D01*
X101156Y136225D01*
Y130113D01*
X101218Y129804D01*
X101393Y129542D01*
X101655Y129367D01*
X101964Y129306D01*
X104000D01*
X108812Y124494D01*
X108795Y124409D01*
X108925Y123752D01*
X108906Y123624D01*
X108708Y123252D01*
X95531D01*
X95403Y123227D01*
X95276Y123252D01*
X67860D01*
X67001Y123082D01*
X66274Y122596D01*
X48677Y104999D01*
X46860D01*
Y106112D01*
X39754D01*
Y104999D01*
X27898D01*
X26781Y106115D01*
Y115954D01*
X12589D01*
Y104124D01*
X17442D01*
Y92726D01*
X17117D01*
Y80896D01*
X22253D01*
Y92726D01*
X21928D01*
Y104123D01*
X22428Y104124D01*
X25382Y101170D01*
X26110Y100684D01*
X26969Y100513D01*
X32547D01*
Y82677D01*
X32617Y82326D01*
X32816Y82028D01*
X53807Y61037D01*
Y57457D01*
X53427Y57203D01*
X53029Y56608D01*
X52889Y55905D01*
X53029Y55203D01*
X53427Y54608D01*
X54022Y54210D01*
X54724Y54070D01*
X55427Y54210D01*
X56022Y54608D01*
X56420Y55203D01*
X56560Y55905D01*
X56420Y56608D01*
X56022Y57203D01*
X55642Y57457D01*
Y61417D01*
X55572Y61769D01*
X55373Y62066D01*
X34382Y83057D01*
Y100513D01*
X39754D01*
Y99400D01*
X46860D01*
Y100513D01*
X48677D01*
X63842Y85348D01*
X63345Y84852D01*
X61014D01*
Y80896D01*
X65758D01*
Y82725D01*
X66258Y82933D01*
X75756Y73434D01*
X75746Y72751D01*
X75676Y72684D01*
X75590Y72701D01*
X74888Y72562D01*
X74293Y72164D01*
X73895Y71568D01*
X73755Y70866D01*
X73895Y70164D01*
X74293Y69568D01*
X74673Y69314D01*
Y68144D01*
X74192Y67843D01*
X73918Y67970D01*
X73899Y68068D01*
X73700Y68365D01*
X70944Y71121D01*
X70646Y71320D01*
X70295Y71390D01*
X64150D01*
X63896Y71770D01*
X63301Y72168D01*
X62598Y72308D01*
X61896Y72168D01*
X61301Y71770D01*
X60903Y71175D01*
X60763Y70472D01*
X60903Y69770D01*
X61301Y69175D01*
X61896Y68777D01*
X62598Y68637D01*
X63301Y68777D01*
X63896Y69175D01*
X64150Y69555D01*
X69915D01*
X71539Y67931D01*
X71430Y67333D01*
X71393Y67308D01*
X71218Y67046D01*
X71156Y66737D01*
Y60625D01*
X71218Y60316D01*
X71393Y60054D01*
X71655Y59879D01*
X71964Y59818D01*
X74139D01*
X74448Y59879D01*
X74710Y60054D01*
X74885Y60316D01*
X74946Y60625D01*
Y65523D01*
X75408Y65714D01*
X76156Y64966D01*
Y60625D01*
X76218Y60316D01*
X76393Y60054D01*
X76655Y59879D01*
X76964Y59818D01*
X79139D01*
X79448Y59879D01*
X79710Y60054D01*
X79885Y60316D01*
X79946Y60625D01*
Y66737D01*
X79885Y67046D01*
X79710Y67308D01*
X79448Y67483D01*
X79139Y67545D01*
X76964D01*
X76508Y67941D01*
Y69314D01*
X76888Y69568D01*
X77286Y70164D01*
X77426Y70866D01*
X77286Y71568D01*
X76958Y72060D01*
X77142Y72448D01*
X77206Y72520D01*
X77697Y72422D01*
X98778D01*
X98930Y71922D01*
X98702Y71770D01*
X98448Y71390D01*
X98032D01*
X97680Y71320D01*
X97383Y71121D01*
X93806Y67545D01*
X91964D01*
X91655Y67483D01*
X91393Y67308D01*
X91218Y67046D01*
X91156Y66737D01*
Y60625D01*
X91218Y60316D01*
X91393Y60054D01*
X91655Y59879D01*
X91964Y59818D01*
X94139D01*
X94448Y59879D01*
X94710Y60054D01*
X94885Y60316D01*
X94946Y60625D01*
Y66089D01*
X95670Y66813D01*
X95788Y66795D01*
X96156Y66592D01*
Y60625D01*
X96218Y60316D01*
X96393Y60054D01*
X96655Y59879D01*
X96964Y59818D01*
X99139D01*
X99448Y59879D01*
X99710Y60054D01*
X99885Y60316D01*
X99946Y60625D01*
Y64966D01*
X100694Y65714D01*
X101156Y65523D01*
Y60625D01*
X101218Y60316D01*
X101393Y60054D01*
X101655Y59879D01*
X101964Y59818D01*
X104139D01*
X104448Y59879D01*
X104710Y60054D01*
X104885Y60316D01*
X104946Y60625D01*
Y66247D01*
X105611Y66912D01*
X109402D01*
X116098Y60216D01*
X116035Y59572D01*
X116025Y59565D01*
X115627Y58970D01*
X115488Y58268D01*
X115627Y57565D01*
X116025Y56970D01*
X116621Y56572D01*
X117323Y56432D01*
X118025Y56572D01*
X118621Y56970D01*
X119018Y57565D01*
X119132Y58136D01*
X119610Y58365D01*
X124000Y53974D01*
X124728Y53488D01*
X125586Y53317D01*
X138370D01*
X138615Y53269D01*
X145921D01*
X147233Y51957D01*
X147960Y51471D01*
X148819Y51300D01*
X166058D01*
X166916Y51471D01*
X167644Y51957D01*
X170852Y55165D01*
X180294D01*
X181152Y55335D01*
X181880Y55822D01*
X186626Y60567D01*
X187112Y61295D01*
X187283Y62153D01*
Y69150D01*
X194342Y76209D01*
X197940D01*
X198798Y76379D01*
X199077Y76565D01*
X200403D01*
Y78896D01*
X204563Y83056D01*
X204749Y82979D01*
X205026Y82812D01*
X205076Y82560D01*
X205251Y82298D01*
X205513Y82123D01*
X205822Y82062D01*
X207997D01*
X208306Y82123D01*
X208568Y82298D01*
X208743Y82560D01*
X208804Y82869D01*
Y88981D01*
X208774Y89134D01*
X209015Y89541D01*
X209115Y89634D01*
X209704D01*
X209804Y89541D01*
X210045Y89134D01*
X210014Y88981D01*
Y82869D01*
X210076Y82560D01*
X210204Y82368D01*
X206831Y78995D01*
X206632Y78698D01*
X206563Y78347D01*
Y74790D01*
X201629Y69856D01*
X201181Y69946D01*
X200479Y69806D01*
X199883Y69408D01*
X199486Y68813D01*
X199346Y68110D01*
X199486Y67408D01*
X199883Y66812D01*
X200479Y66415D01*
X201181Y66275D01*
X201883Y66415D01*
X202479Y66812D01*
X202877Y67408D01*
X203016Y68110D01*
X202927Y68559D01*
X208129Y73761D01*
X208328Y74058D01*
X208398Y74410D01*
Y77966D01*
X212493Y82062D01*
X212997D01*
X213306Y82123D01*
X213568Y82298D01*
X213743Y82560D01*
X213805Y82869D01*
Y88981D01*
X213774Y89134D01*
X214015Y89541D01*
X214115Y89634D01*
X214704D01*
X214804Y89541D01*
X215045Y89134D01*
X215014Y88981D01*
Y82869D01*
X215076Y82560D01*
X215251Y82298D01*
X215513Y82123D01*
X215822Y82062D01*
X217997D01*
X218171Y81919D01*
Y81091D01*
X218241Y80740D01*
X218440Y80442D01*
X221992Y76890D01*
X222290Y76691D01*
X222641Y76621D01*
X234626D01*
X234977Y76691D01*
X235274Y76890D01*
X237558Y79174D01*
X237757Y79472D01*
X237827Y79823D01*
Y82062D01*
X237997D01*
X238306Y82123D01*
X238568Y82298D01*
X238743Y82560D01*
X238805Y82869D01*
Y88981D01*
X238743Y89290D01*
X238568Y89552D01*
X238306Y89727D01*
X237997Y89789D01*
X237827D01*
Y92792D01*
X238289Y92983D01*
X240984Y90289D01*
X240972Y89789D01*
X240822D01*
X240513Y89727D01*
X240251Y89552D01*
X240076Y89290D01*
X240014Y88981D01*
Y82869D01*
X240076Y82560D01*
X240251Y82298D01*
X240513Y82123D01*
X240822Y82062D01*
X242997D01*
X243306Y82123D01*
X243568Y82298D01*
X243743Y82560D01*
X243805Y82869D01*
Y88981D01*
X243743Y89290D01*
X243568Y89552D01*
X243306Y89727D01*
X242997Y89789D01*
X242827D01*
Y90661D01*
X242757Y91012D01*
X242558Y91309D01*
X232827Y101041D01*
Y102523D01*
X232834Y102525D01*
X233265Y102280D01*
X233348Y102171D01*
X233404Y101889D01*
X233603Y101591D01*
X257890Y77304D01*
X258188Y77105D01*
X258539Y77035D01*
X314961D01*
Y47244D01*
X282076D01*
X281137Y48015D01*
X279405Y48941D01*
X277525Y49511D01*
X275571Y49703D01*
X273616Y49511D01*
X272153Y49067D01*
D01*
X271737Y48941D01*
X270005Y48015D01*
X268521Y46797D01*
X252116D01*
Y49202D01*
X244262D01*
Y46797D01*
X240903D01*
X240714Y47256D01*
X240084Y48076D01*
X239264Y48706D01*
X238309Y49101D01*
X237283Y49236D01*
X236258Y49101D01*
X235303Y48706D01*
X234483Y48076D01*
X233853Y47256D01*
X233664Y46797D01*
X229998D01*
X229808Y47256D01*
X229179Y48076D01*
X228358Y48706D01*
X227403Y49101D01*
X226378Y49236D01*
X225353Y49101D01*
X224398Y48706D01*
X223577Y48076D01*
X222948Y47256D01*
X222758Y46797D01*
X219092D01*
X218902Y47256D01*
X218273Y48076D01*
X217453Y48706D01*
X216497Y49101D01*
X215472Y49236D01*
X214447Y49101D01*
X213492Y48706D01*
X212672Y48076D01*
X212042Y47256D01*
X211853Y46797D01*
X208187D01*
X207997Y47256D01*
X207367Y48076D01*
X206547Y48706D01*
X205592Y49101D01*
X204567Y49236D01*
X203542Y49101D01*
X202587Y48706D01*
X201766Y48076D01*
X201137Y47256D01*
X200947Y46797D01*
X184234D01*
X182751Y48015D01*
X181019Y48941D01*
X179139Y49511D01*
X177185Y49703D01*
X175231Y49511D01*
X173351Y48941D01*
X171619Y48015D01*
X170135Y46797D01*
X144422Y46797D01*
X143322Y47700D01*
X141590Y48626D01*
X139710Y49196D01*
X137756Y49388D01*
X135801Y49196D01*
X133922Y48626D01*
X132190Y47700D01*
X131090Y46797D01*
X118171D01*
X117947Y47297D01*
X118231Y47723D01*
X118371Y48425D01*
X118231Y49128D01*
X118078Y49356D01*
X118298Y49782D01*
X118757Y49813D01*
X119077Y49446D01*
X119031Y49213D01*
X119171Y48510D01*
X119568Y47915D01*
X120164Y47517D01*
X120866Y47377D01*
X121569Y47517D01*
X122164Y47915D01*
X122562Y48510D01*
X122701Y49213D01*
X122562Y49915D01*
X122164Y50510D01*
X121569Y50908D01*
X120866Y51048D01*
X120418Y50959D01*
X119921Y51455D01*
X119624Y51654D01*
X119272Y51724D01*
X58894D01*
X58543Y51654D01*
X58245Y51455D01*
X56942Y50152D01*
X56465Y50257D01*
X56409Y50326D01*
X56022Y50904D01*
X55427Y51302D01*
X54724Y51442D01*
X54022Y51302D01*
X53657Y51058D01*
X50091Y54624D01*
X49794Y54823D01*
X49443Y54892D01*
X30960D01*
X30609Y54823D01*
X30312Y54624D01*
X28049Y52361D01*
X20751D01*
X10369Y62742D01*
X10369Y121010D01*
X34111Y144752D01*
X117391D01*
X117742Y144822D01*
X118039Y145020D01*
X120452Y147433D01*
X120900Y147344D01*
X121602Y147483D01*
X122198Y147881D01*
X122596Y148476D01*
X122735Y149179D01*
X122698Y149364D01*
X123016Y149750D01*
X135402D01*
X135821Y149623D01*
X137776Y149431D01*
X139730Y149623D01*
X140149Y149750D01*
X174811D01*
X175231Y149623D01*
X177185Y149431D01*
X179139Y149623D01*
X179559Y149750D01*
X261157D01*
X261944Y148963D01*
D02*
G37*
%LPC*%
G36*
X177165Y88229D02*
X176238Y88107D01*
X175374Y87749D01*
X174632Y87179D01*
X174062Y86437D01*
X173704Y85573D01*
X173582Y84646D01*
X173704Y83718D01*
X174062Y82854D01*
X174632Y82112D01*
X175374Y81542D01*
X176238Y81184D01*
X177165Y81062D01*
X178093Y81184D01*
X178957Y81542D01*
X179699Y82112D01*
X180269Y82854D01*
X180627Y83718D01*
X180749Y84646D01*
X180627Y85573D01*
X180269Y86437D01*
X179699Y87179D01*
X178957Y87749D01*
X178093Y88107D01*
X177165Y88229D01*
D02*
G37*
G36*
Y115788D02*
X176238Y115666D01*
X175374Y115308D01*
X174632Y114739D01*
X174062Y113996D01*
X173704Y113132D01*
X173582Y112205D01*
X173704Y111277D01*
X174062Y110413D01*
X174632Y109671D01*
X175374Y109101D01*
X176238Y108743D01*
X177165Y108621D01*
X178093Y108743D01*
X178957Y109101D01*
X179699Y109671D01*
X180269Y110413D01*
X180627Y111277D01*
X180749Y112205D01*
X180627Y113132D01*
X180269Y113996D01*
X179699Y114739D01*
X178957Y115308D01*
X178093Y115666D01*
X177165Y115788D01*
D02*
G37*
G36*
Y135473D02*
X176238Y135351D01*
X175374Y134993D01*
X174632Y134424D01*
X174062Y133681D01*
X173704Y132817D01*
X173582Y131890D01*
X173704Y130962D01*
X174062Y130098D01*
X174632Y129356D01*
X175374Y128786D01*
X176238Y128428D01*
X177165Y128306D01*
X178093Y128428D01*
X178957Y128786D01*
X179699Y129356D01*
X180269Y130098D01*
X180627Y130962D01*
X180749Y131890D01*
X180627Y132817D01*
X180269Y133681D01*
X179699Y134424D01*
X178957Y134993D01*
X178093Y135351D01*
X177165Y135473D01*
D02*
G37*
%LPD*%
G36*
X177923Y134718D02*
X178630Y134426D01*
X179236Y133960D01*
X179701Y133354D01*
X179994Y132648D01*
X180094Y131890D01*
X179994Y131132D01*
X179701Y130426D01*
X179236Y129819D01*
X178630Y129354D01*
X177923Y129061D01*
X177165Y128961D01*
X176407Y129061D01*
X175701Y129354D01*
X175095Y129819D01*
X174629Y130426D01*
X174337Y131132D01*
X174237Y131890D01*
X174337Y132648D01*
X174629Y133354D01*
X175095Y133960D01*
X175701Y134426D01*
X176407Y134718D01*
X177165Y134818D01*
X177923Y134718D01*
D02*
G37*
%LPC*%
G36*
X74139Y114789D02*
X71964D01*
X71655Y114727D01*
X71393Y114552D01*
X71218Y114290D01*
X71156Y113981D01*
Y107869D01*
X71218Y107560D01*
X71393Y107298D01*
X71655Y107123D01*
X71964Y107062D01*
X74139D01*
X74448Y107123D01*
X74710Y107298D01*
X74885Y107560D01*
X74946Y107869D01*
Y113981D01*
X74885Y114290D01*
X74710Y114552D01*
X74448Y114727D01*
X74139Y114789D01*
D02*
G37*
G36*
X225590Y137662D02*
X224888Y137522D01*
X224293Y137125D01*
X223895Y136529D01*
X223755Y135827D01*
X223895Y135125D01*
X224293Y134529D01*
X224888Y134131D01*
X225590Y133992D01*
X225605Y133994D01*
X225992Y133677D01*
Y133096D01*
X225822D01*
X225513Y133034D01*
X225251Y132859D01*
X225076Y132597D01*
X225014Y132288D01*
Y126176D01*
X225076Y125867D01*
X225251Y125605D01*
X225513Y125430D01*
X225822Y125369D01*
X227997D01*
X228306Y125430D01*
X228568Y125605D01*
X228743Y125867D01*
X228804Y126176D01*
Y132288D01*
X228743Y132597D01*
X228568Y132859D01*
X228306Y133034D01*
X227997Y133096D01*
X227827D01*
Y134508D01*
X227757Y134859D01*
X227558Y135157D01*
X227337Y135378D01*
X227426Y135827D01*
X227286Y136529D01*
X226888Y137125D01*
X226293Y137522D01*
X225590Y137662D01*
D02*
G37*
G36*
X272450Y137214D02*
X267707D01*
Y134162D01*
X265641Y132096D01*
X262195D01*
Y128140D01*
X266939D01*
Y130682D01*
X267227Y130909D01*
X267707Y130695D01*
Y127353D01*
X269161D01*
Y125797D01*
X267707D01*
Y122454D01*
X267227Y122241D01*
X266939Y122468D01*
Y126191D01*
X262195D01*
Y122235D01*
X264460D01*
X267707Y118987D01*
Y116840D01*
X265247Y114380D01*
X262195D01*
Y110424D01*
X266939D01*
Y113435D01*
X267246Y113684D01*
X267707Y113484D01*
Y110424D01*
X272450D01*
Y113043D01*
X273046Y113639D01*
X274649D01*
X274912Y113463D01*
X275492Y113347D01*
X279232D01*
X279812Y113463D01*
X280304Y113791D01*
X280632Y114283D01*
X280747Y114862D01*
X280632Y115442D01*
X280389Y115806D01*
X280354Y116025D01*
X280751Y116504D01*
X281411D01*
X281563Y116352D01*
Y108671D01*
X280502D01*
Y103928D01*
X284458D01*
Y108671D01*
X283398D01*
Y116732D01*
X283328Y117083D01*
X283129Y117381D01*
X282440Y118070D01*
X282142Y118269D01*
X281791Y118339D01*
X280406D01*
X280304Y118492D01*
Y118909D01*
X280632Y119401D01*
X280747Y119980D01*
X280632Y120560D01*
X280304Y121052D01*
X279812Y121380D01*
X279232Y121495D01*
X275492D01*
X274912Y121380D01*
X274421Y121052D01*
X274093Y120560D01*
X273977Y119980D01*
X274093Y119401D01*
X274421Y118909D01*
Y118796D01*
X273985Y118339D01*
X272450D01*
Y119891D01*
X269398D01*
X267949Y121341D01*
X268156Y121841D01*
X272450D01*
Y122901D01*
X280329D01*
X288368Y114862D01*
X287737Y114232D01*
X287538Y113934D01*
X287468Y113583D01*
Y108671D01*
X286408D01*
Y103928D01*
X290364D01*
Y105382D01*
X292806D01*
X293059Y105001D01*
X293633Y104618D01*
X293698Y104559D01*
X293808Y104086D01*
X291700Y101978D01*
X286408D01*
Y96778D01*
D01*
Y94872D01*
X288540D01*
Y91348D01*
X286802D01*
Y86605D01*
X290757D01*
Y89288D01*
X290894Y89492D01*
X290987Y89961D01*
Y94872D01*
X293120D01*
Y99937D01*
X298897Y105714D01*
X299162Y106111D01*
X299255Y106579D01*
Y115902D01*
X299991D01*
Y115148D01*
X304734D01*
Y118110D01*
Y119104D01*
X299991D01*
Y118350D01*
X298310D01*
X298008Y118552D01*
X297539Y118645D01*
X296870D01*
X296603Y119145D01*
X296774Y119401D01*
X296889Y119980D01*
X296774Y120560D01*
X296445Y121052D01*
X295954Y121380D01*
X295374Y121495D01*
X291634D01*
X291054Y121380D01*
X290563Y121052D01*
X290234Y120560D01*
X290119Y119980D01*
X290234Y119401D01*
X290563Y118909D01*
Y118492D01*
X290234Y118001D01*
X290119Y117421D01*
X290234Y116841D01*
X290477Y116478D01*
X290497Y116353D01*
X290355Y116174D01*
X289690Y116136D01*
X281358Y124468D01*
X281060Y124667D01*
X280709Y124736D01*
X272450D01*
Y125797D01*
X270996D01*
Y127353D01*
X272450D01*
Y131309D01*
X268156D01*
X267949Y131809D01*
X269398Y133258D01*
X272450D01*
Y137214D01*
D02*
G37*
G36*
X99139Y137033D02*
X96964D01*
X96655Y136971D01*
X96393Y136796D01*
X96218Y136534D01*
X96156Y136225D01*
Y130113D01*
X96218Y129804D01*
X96393Y129542D01*
X96655Y129367D01*
X96964Y129306D01*
X97174D01*
X97203Y129157D01*
X97402Y128859D01*
X98254Y128007D01*
X98165Y127559D01*
X98304Y126857D01*
X98702Y126261D01*
X99298Y125864D01*
X100000Y125724D01*
X100702Y125864D01*
X101298Y126261D01*
X101696Y126857D01*
X101835Y127559D01*
X101696Y128261D01*
X101298Y128857D01*
X100702Y129255D01*
X100187Y129357D01*
X99931Y129736D01*
X99901Y129884D01*
X99946Y130113D01*
Y136225D01*
X99885Y136534D01*
X99710Y136796D01*
X99448Y136971D01*
X99139Y137033D01*
D02*
G37*
G36*
X244488Y138056D02*
X243786Y137916D01*
X243191Y137518D01*
X242936Y137138D01*
X236614D01*
X236263Y137068D01*
X235965Y136869D01*
X232192Y133096D01*
X230822D01*
X230513Y133034D01*
X230251Y132859D01*
X230076Y132597D01*
X230014Y132288D01*
Y126176D01*
X230076Y125867D01*
X230251Y125605D01*
X230513Y125430D01*
X230822Y125369D01*
X232997D01*
X233306Y125430D01*
X233568Y125605D01*
X233743Y125867D01*
X233804Y126176D01*
Y132113D01*
X236994Y135303D01*
X242936D01*
X243191Y134923D01*
X243377Y134798D01*
X243226Y134298D01*
X240370D01*
X240018Y134228D01*
X239721Y134029D01*
X238558Y132866D01*
X238306Y133034D01*
X237997Y133096D01*
X235822D01*
X235513Y133034D01*
X235251Y132859D01*
X235076Y132597D01*
X235014Y132288D01*
Y126176D01*
X235076Y125867D01*
X235251Y125605D01*
X235513Y125430D01*
X235822Y125369D01*
X237997D01*
X238306Y125430D01*
X238568Y125605D01*
X238743Y125867D01*
X238805Y126176D01*
Y130517D01*
X239552Y131265D01*
X240014Y131074D01*
Y126176D01*
X240076Y125867D01*
X240251Y125605D01*
X240513Y125430D01*
X240822Y125369D01*
X242997D01*
X243306Y125430D01*
X243568Y125605D01*
X243743Y125867D01*
X243805Y126176D01*
Y128315D01*
X255070D01*
X255203Y128226D01*
X255906Y128086D01*
X256608Y128226D01*
X257203Y128623D01*
X257601Y129219D01*
X257741Y129921D01*
X257601Y130624D01*
X257203Y131219D01*
X256608Y131617D01*
X255906Y131756D01*
X255203Y131617D01*
X254608Y131219D01*
X254210Y130624D01*
X254116Y130150D01*
X246548D01*
X246532Y130189D01*
X246464Y130650D01*
X246967Y130986D01*
X247365Y131581D01*
X247505Y132283D01*
X247365Y132986D01*
X246967Y133581D01*
X246372Y133979D01*
X245669Y134119D01*
X245450Y134075D01*
X245306Y134046D01*
X245191Y134525D01*
X245291Y134592D01*
X245786Y134923D01*
X246184Y135518D01*
X246323Y136221D01*
X246184Y136923D01*
X245786Y137518D01*
X245191Y137916D01*
X244488Y138056D01*
D02*
G37*
G36*
X89764Y140418D02*
X89061Y140278D01*
X88466Y139880D01*
X88068Y139285D01*
X87928Y138583D01*
X88068Y137880D01*
X88300Y137533D01*
X88033Y137033D01*
X86964D01*
X86655Y136971D01*
X86393Y136796D01*
X86218Y136534D01*
X86156Y136225D01*
Y130113D01*
X86179Y129997D01*
X82691Y126508D01*
X81473D01*
X81219Y126888D01*
X81158Y126929D01*
X81309Y127429D01*
X81496D01*
X81847Y127499D01*
X82145Y127698D01*
X83700Y129253D01*
X83736Y129306D01*
X84139D01*
X84448Y129367D01*
X84710Y129542D01*
X84885Y129804D01*
X84946Y130113D01*
Y136225D01*
X84885Y136534D01*
X84710Y136796D01*
X84448Y136971D01*
X84139Y137033D01*
X81964D01*
X81655Y136971D01*
X81393Y136796D01*
X81218Y136534D01*
X81156Y136225D01*
Y130113D01*
X81218Y129804D01*
X81293Y129691D01*
X80977Y129264D01*
X80125D01*
X79858Y129764D01*
X79885Y129804D01*
X79946Y130113D01*
Y136225D01*
X79885Y136534D01*
X79710Y136796D01*
X79448Y136971D01*
X79139Y137033D01*
X76964D01*
X76655Y136971D01*
X76393Y136796D01*
X76218Y136534D01*
X76156Y136225D01*
Y130997D01*
X74817Y129658D01*
X72034D01*
X71121Y130570D01*
X70824Y130769D01*
X70472Y130839D01*
X60236D01*
X60160Y130824D01*
X60151Y130829D01*
X59449Y130969D01*
X58746Y130829D01*
X58151Y130432D01*
X57753Y129836D01*
X57614Y129134D01*
X57753Y128431D01*
X58151Y127836D01*
X58746Y127438D01*
X59449Y127299D01*
X60151Y127438D01*
X60747Y127836D01*
X61144Y128431D01*
X61258Y129004D01*
X67903D01*
X68054Y128504D01*
X67994Y128463D01*
X67596Y127868D01*
X67456Y127165D01*
X67596Y126463D01*
X67994Y125868D01*
X68589Y125470D01*
X69291Y125330D01*
X69994Y125470D01*
X70569Y125854D01*
X75590D01*
X75942Y125924D01*
X76239Y126123D01*
X77545Y127429D01*
X78533D01*
X78685Y126929D01*
X78623Y126888D01*
X78225Y126293D01*
X78086Y125590D01*
X78225Y124888D01*
X78623Y124293D01*
X79219Y123895D01*
X79921Y123755D01*
X80623Y123895D01*
X81219Y124293D01*
X81473Y124673D01*
X83071D01*
X83422Y124742D01*
X83719Y124941D01*
X88084Y129306D01*
X89139D01*
X89448Y129367D01*
X89710Y129542D01*
X89885Y129804D01*
X89946Y130113D01*
Y136225D01*
X89904Y136438D01*
X90192Y136675D01*
X90316Y136732D01*
X91156Y135893D01*
Y130113D01*
X91218Y129804D01*
X91393Y129542D01*
X91655Y129367D01*
X91964Y129306D01*
X94139D01*
X94448Y129367D01*
X94710Y129542D01*
X94885Y129804D01*
X94946Y130113D01*
Y136225D01*
X94885Y136534D01*
X94710Y136796D01*
X94448Y136971D01*
X94139Y137033D01*
X92611D01*
X91510Y138134D01*
X91599Y138583D01*
X91459Y139285D01*
X91062Y139880D01*
X90466Y140278D01*
X89764Y140418D01*
D02*
G37*
G36*
X39370Y135473D02*
X38443Y135351D01*
X37578Y134993D01*
X36836Y134424D01*
X36267Y133681D01*
X35909Y132817D01*
X35787Y131890D01*
X35909Y130962D01*
X36267Y130098D01*
X36836Y129356D01*
X37578Y128786D01*
X38443Y128428D01*
X39370Y128306D01*
X40297Y128428D01*
X41162Y128786D01*
X41904Y129356D01*
X42473Y130098D01*
X42831Y130962D01*
X42954Y131890D01*
X42831Y132817D01*
X42473Y133681D01*
X41904Y134424D01*
X41162Y134993D01*
X40297Y135351D01*
X39370Y135473D01*
D02*
G37*
G36*
X236221Y73095D02*
X235518Y72955D01*
X234923Y72558D01*
X234669Y72177D01*
X231496D01*
X231145Y72108D01*
X230847Y71909D01*
X226483Y67545D01*
X225822D01*
X225513Y67483D01*
X225251Y67308D01*
X225076Y67046D01*
X225014Y66737D01*
Y60849D01*
X224514Y60642D01*
X223804Y61352D01*
Y66737D01*
X223743Y67046D01*
X223568Y67308D01*
X223306Y67483D01*
X222997Y67545D01*
X220822D01*
X220513Y67483D01*
X220251Y67308D01*
X220076Y67046D01*
X220014Y66737D01*
Y60625D01*
X220076Y60316D01*
X220251Y60054D01*
X220513Y59879D01*
X220822Y59818D01*
X222743D01*
X225813Y56748D01*
X225724Y56299D01*
X225864Y55597D01*
X226261Y55001D01*
X226857Y54604D01*
X227559Y54464D01*
X228261Y54604D01*
X228857Y55001D01*
X229255Y55597D01*
X229394Y56299D01*
X229255Y57002D01*
X228857Y57597D01*
X228261Y57995D01*
X227559Y58135D01*
X227111Y58045D01*
X225838Y59318D01*
X226046Y59818D01*
X227997D01*
X228306Y59879D01*
X228568Y60054D01*
X228743Y60316D01*
X228804Y60625D01*
Y66737D01*
X228743Y67046D01*
X228678Y67144D01*
X231876Y70342D01*
X234669D01*
X234923Y69962D01*
X235518Y69564D01*
X235701Y69528D01*
X235652Y69028D01*
X233071D01*
X232720Y68958D01*
X232422Y68759D01*
X231261Y67598D01*
X231225Y67545D01*
X230822D01*
X230513Y67483D01*
X230251Y67308D01*
X230076Y67046D01*
X230014Y66737D01*
Y60625D01*
X230076Y60316D01*
X230251Y60054D01*
X230513Y59879D01*
X230822Y59818D01*
X232997D01*
X233306Y59879D01*
X233568Y60054D01*
X233743Y60316D01*
X233804Y60625D01*
Y66737D01*
X234150Y67135D01*
X234669D01*
X235014Y66737D01*
Y60625D01*
X235076Y60316D01*
X235251Y60054D01*
X235513Y59879D01*
X235822Y59818D01*
X237997D01*
X238306Y59879D01*
X238568Y60054D01*
X238743Y60316D01*
X238805Y60625D01*
Y66247D01*
X239469Y66912D01*
X243069D01*
X244358Y65623D01*
Y62992D01*
X244428Y62641D01*
X244627Y62343D01*
X250657Y56313D01*
Y54308D01*
X250277Y54054D01*
X249879Y53458D01*
X249740Y52756D01*
X249879Y52054D01*
X250277Y51458D01*
X250872Y51060D01*
X251575Y50921D01*
X252277Y51060D01*
X252872Y51458D01*
X253270Y52054D01*
X253410Y52756D01*
X253270Y53458D01*
X252872Y54054D01*
X252492Y54308D01*
Y56693D01*
X252423Y57044D01*
X252224Y57342D01*
X246193Y63372D01*
Y64848D01*
X246655Y65039D01*
X247073Y64622D01*
X246984Y64173D01*
X247123Y63471D01*
X247521Y62875D01*
X248117Y62478D01*
X248819Y62338D01*
X249521Y62478D01*
X250117Y62875D01*
X250515Y63471D01*
X250654Y64173D01*
X250515Y64876D01*
X250117Y65471D01*
X249521Y65869D01*
X248819Y66009D01*
X248371Y65919D01*
X244612Y69678D01*
X244314Y69877D01*
X243963Y69947D01*
X238592D01*
X238241Y69877D01*
X237943Y69678D01*
X237293Y69028D01*
X236789D01*
X236740Y69528D01*
X236923Y69564D01*
X237518Y69962D01*
X237916Y70557D01*
X238056Y71260D01*
X237916Y71962D01*
X237518Y72558D01*
X236923Y72955D01*
X236221Y73095D01*
D02*
G37*
G36*
X39370Y88229D02*
X38443Y88107D01*
X37578Y87749D01*
X36836Y87179D01*
X36267Y86437D01*
X35909Y85573D01*
X35787Y84646D01*
X35909Y83718D01*
X36267Y82854D01*
X36836Y82112D01*
X37578Y81542D01*
X38443Y81184D01*
X39370Y81062D01*
X40297Y81184D01*
X41162Y81542D01*
X41904Y82112D01*
X42473Y82854D01*
X42831Y83718D01*
X42954Y84646D01*
X42831Y85573D01*
X42473Y86437D01*
X41904Y87179D01*
X41162Y87749D01*
X40297Y88107D01*
X39370Y88229D01*
D02*
G37*
G36*
X270079Y108739D02*
X269220Y108568D01*
X269079Y108474D01*
X267707D01*
Y104518D01*
X267707D01*
X267744Y104018D01*
X267717Y103994D01*
X266275Y103804D01*
X264932Y103248D01*
X263779Y102363D01*
X262894Y101210D01*
X262337Y99866D01*
X262148Y98425D01*
X262337Y96984D01*
X262894Y95641D01*
X263779Y94487D01*
X264932Y93602D01*
X266275Y93046D01*
X267717Y92856D01*
X269158Y93046D01*
X270501Y93602D01*
X271654Y94487D01*
X272539Y95641D01*
X273096Y96984D01*
X273285Y98425D01*
X273096Y99866D01*
X272539Y101210D01*
X272322Y101493D01*
Y104518D01*
X272450D01*
Y108474D01*
X271078D01*
X270937Y108568D01*
X270079Y108739D01*
D02*
G37*
G36*
X39370Y115788D02*
X38443Y115666D01*
X37578Y115308D01*
X36836Y114739D01*
X36267Y113996D01*
X35909Y113132D01*
X35787Y112205D01*
X35909Y111277D01*
X36267Y110413D01*
X36836Y109671D01*
X37578Y109101D01*
X38443Y108743D01*
X39370Y108621D01*
X40297Y108743D01*
X41162Y109101D01*
X41904Y109671D01*
X42473Y110413D01*
X42831Y111277D01*
X42954Y112205D01*
X42831Y113132D01*
X42473Y113996D01*
X41904Y114739D01*
X41162Y115308D01*
X40297Y115666D01*
X39370Y115788D01*
D02*
G37*
G36*
X86614Y71127D02*
X85912Y70987D01*
X85316Y70589D01*
X84919Y69994D01*
X84779Y69291D01*
X84868Y68843D01*
X83570Y67545D01*
X81964D01*
X81655Y67483D01*
X81393Y67308D01*
X81218Y67046D01*
X81156Y66737D01*
Y60625D01*
X81218Y60316D01*
X81393Y60054D01*
X81655Y59879D01*
X81964Y59818D01*
X84139D01*
X84448Y59879D01*
X84710Y60054D01*
X84885Y60316D01*
X84946Y60625D01*
Y66326D01*
X85718Y67098D01*
X86179Y66851D01*
X86156Y66737D01*
Y60625D01*
X86218Y60316D01*
X86393Y60054D01*
X86655Y59879D01*
X86964Y59818D01*
X87134D01*
Y59334D01*
X86891Y59172D01*
X86493Y58576D01*
X86354Y57874D01*
X86493Y57172D01*
X86891Y56576D01*
X87487Y56178D01*
X88189Y56039D01*
X88891Y56178D01*
X89487Y56576D01*
X89885Y57172D01*
X90024Y57874D01*
X89885Y58576D01*
X89487Y59172D01*
X89250Y59330D01*
X89356Y59861D01*
X89448Y59879D01*
X89710Y60054D01*
X89885Y60316D01*
X89946Y60625D01*
Y66737D01*
X89885Y67046D01*
X89710Y67308D01*
X89448Y67483D01*
X89139Y67545D01*
X88140D01*
X88004Y67811D01*
X87946Y68045D01*
X88310Y68589D01*
X88449Y69291D01*
X88310Y69994D01*
X87912Y70589D01*
X87317Y70987D01*
X86614Y71127D01*
D02*
G37*
G36*
X196850Y69552D02*
X196148Y69412D01*
X195552Y69014D01*
X195154Y68419D01*
X195015Y67716D01*
X195154Y67014D01*
X195552Y66419D01*
X196148Y66021D01*
X196850Y65881D01*
X197298Y65970D01*
X200236Y63032D01*
X200534Y62833D01*
X200885Y62764D01*
X205014D01*
Y60625D01*
X205076Y60316D01*
X205251Y60054D01*
X205513Y59879D01*
X205822Y59818D01*
X207997D01*
X208306Y59879D01*
X208568Y60054D01*
X208743Y60316D01*
X208804Y60625D01*
Y66737D01*
X208743Y67046D01*
X208568Y67308D01*
X208306Y67483D01*
X207997Y67545D01*
X205822D01*
X205513Y67483D01*
X205251Y67308D01*
X205076Y67046D01*
X205014Y66737D01*
Y64599D01*
X201265D01*
X198596Y67268D01*
X198685Y67716D01*
X198546Y68419D01*
X198148Y69014D01*
X197552Y69412D01*
X196850Y69552D01*
D02*
G37*
G36*
X31309Y92726D02*
X26172D01*
Y80896D01*
X26905D01*
Y76744D01*
X24579Y74419D01*
X20266D01*
Y67313D01*
X21787D01*
Y63789D01*
X20266D01*
Y56683D01*
X26978D01*
Y63789D01*
X25457D01*
Y67313D01*
X26978D01*
Y71627D01*
X28740Y73389D01*
X36006Y66123D01*
X35909Y65888D01*
X35787Y64961D01*
X35909Y64033D01*
X36267Y63169D01*
X36836Y62427D01*
X37578Y61857D01*
X38443Y61499D01*
X39370Y61377D01*
X40297Y61499D01*
X41162Y61857D01*
X41904Y62427D01*
X42473Y63169D01*
X42831Y64033D01*
X42954Y64961D01*
X42831Y65888D01*
X42473Y66752D01*
X41904Y67494D01*
X41162Y68064D01*
X40297Y68422D01*
X39370Y68544D01*
X38845Y68475D01*
X30575Y76744D01*
Y80896D01*
X31309D01*
Y92726D01*
D02*
G37*
G36*
X212598Y74670D02*
X211896Y74530D01*
X211301Y74132D01*
X210903Y73537D01*
X210763Y72835D01*
X210903Y72132D01*
X210992Y71999D01*
Y67545D01*
X210822D01*
X210513Y67483D01*
X210251Y67308D01*
X210076Y67046D01*
X210014Y66737D01*
Y60625D01*
X210076Y60316D01*
X210251Y60054D01*
X210513Y59879D01*
X210822Y59818D01*
X212997D01*
X213306Y59879D01*
X213568Y60054D01*
X213743Y60316D01*
X213805Y60625D01*
Y66737D01*
X213743Y67046D01*
X213624Y67225D01*
X213661Y67305D01*
X213903Y67640D01*
X214173Y67586D01*
X214524Y67656D01*
X214822Y67855D01*
X214909Y67942D01*
X215280Y67606D01*
X215251Y67308D01*
X215076Y67046D01*
X215014Y66737D01*
Y60625D01*
X215076Y60316D01*
X215251Y60054D01*
X215513Y59879D01*
X215822Y59818D01*
X217997D01*
X218306Y59879D01*
X218568Y60054D01*
X218743Y60316D01*
X218805Y60625D01*
Y66737D01*
X218743Y67046D01*
X218568Y67308D01*
X218306Y67483D01*
X217997Y67545D01*
X217787D01*
X217757Y67694D01*
X217558Y67991D01*
X215985Y69565D01*
X216008Y69685D01*
X215869Y70387D01*
X215471Y70983D01*
X214876Y71381D01*
X214450Y71465D01*
X214204Y71997D01*
X214294Y72132D01*
X214434Y72835D01*
X214294Y73537D01*
X213896Y74132D01*
X213301Y74530D01*
X212598Y74670D01*
D02*
G37*
%LPD*%
G36*
X290513Y113866D02*
X290563Y113791D01*
Y113374D01*
X290234Y112883D01*
X290119Y112303D01*
X290234Y111723D01*
X290563Y111232D01*
X291054Y110904D01*
X291634Y110788D01*
X295374D01*
X295954Y110904D01*
X296308Y111140D01*
X296756Y110964D01*
X296808Y110919D01*
Y107194D01*
X296522Y106958D01*
X296007Y107070D01*
X295655Y107597D01*
X295059Y107995D01*
X294357Y108134D01*
X293655Y107995D01*
X293059Y107597D01*
X292806Y107217D01*
X290364D01*
Y108671D01*
X289303D01*
Y113203D01*
X289998Y113898D01*
X290513Y113866D01*
D02*
G37*
G36*
X40128Y134718D02*
X40834Y134426D01*
X41441Y133960D01*
X41906Y133354D01*
X42199Y132648D01*
X42298Y131890D01*
X42199Y131132D01*
X41906Y130426D01*
X41441Y129819D01*
X40834Y129354D01*
X40128Y129061D01*
X39370Y128961D01*
X38612Y129061D01*
X37906Y129354D01*
X37299Y129819D01*
X36834Y130426D01*
X36542Y131132D01*
X36442Y131890D01*
X36542Y132648D01*
X36834Y133354D01*
X37299Y133960D01*
X37906Y134426D01*
X38612Y134718D01*
X39370Y134818D01*
X40128Y134718D01*
D02*
G37*
D10*
X73051Y110925D02*
D03*
X78051D02*
D03*
X83051D02*
D03*
X88051D02*
D03*
X93051D02*
D03*
X98051D02*
D03*
X103051D02*
D03*
X108051D02*
D03*
X73051Y133169D02*
D03*
X78051D02*
D03*
X83051D02*
D03*
X88051D02*
D03*
X93051D02*
D03*
X98051D02*
D03*
X103051D02*
D03*
X108051D02*
D03*
X206909Y106988D02*
D03*
X211910D02*
D03*
X216910D02*
D03*
X221909D02*
D03*
X226909D02*
D03*
X231909D02*
D03*
X236910D02*
D03*
X241910D02*
D03*
X206909Y129232D02*
D03*
X211910D02*
D03*
X216910D02*
D03*
X221909D02*
D03*
X226909D02*
D03*
X231909D02*
D03*
X236910D02*
D03*
X241910D02*
D03*
Y85925D02*
D03*
X236910D02*
D03*
X231909D02*
D03*
X226909D02*
D03*
X221909D02*
D03*
X216910D02*
D03*
X211910D02*
D03*
X206909D02*
D03*
X241910Y63681D02*
D03*
X236910D02*
D03*
X231909D02*
D03*
X226909D02*
D03*
X221909D02*
D03*
X216910D02*
D03*
X211910D02*
D03*
X206909D02*
D03*
X108051Y85925D02*
D03*
X103051D02*
D03*
X98051D02*
D03*
X93051D02*
D03*
X88051D02*
D03*
X83051D02*
D03*
X78051D02*
D03*
X73051D02*
D03*
X108051Y63681D02*
D03*
X103051D02*
D03*
X98051D02*
D03*
X93051D02*
D03*
X88051D02*
D03*
X83051D02*
D03*
X78051D02*
D03*
X73051D02*
D03*
D11*
X116142Y132087D02*
D03*
Y126181D02*
D03*
X118110Y113189D02*
D03*
Y119095D02*
D03*
X270079Y129331D02*
D03*
Y135236D02*
D03*
X251575Y117913D02*
D03*
Y112008D02*
D03*
X264567Y130118D02*
D03*
Y124213D02*
D03*
X270079Y123819D02*
D03*
Y117913D02*
D03*
Y112402D02*
D03*
Y106496D02*
D03*
X264567Y112402D02*
D03*
Y106496D02*
D03*
X302362Y111221D02*
D03*
Y117126D02*
D03*
X198031Y72638D02*
D03*
Y78543D02*
D03*
X175591Y97441D02*
D03*
Y103347D02*
D03*
X182677Y97441D02*
D03*
Y91535D02*
D03*
X114567Y108071D02*
D03*
Y102165D02*
D03*
X107087Y102953D02*
D03*
Y97047D02*
D03*
X101575Y102953D02*
D03*
Y97047D02*
D03*
X63386Y76968D02*
D03*
Y82874D02*
D03*
X7874Y57087D02*
D03*
Y62992D02*
D03*
X11811Y132480D02*
D03*
Y138386D02*
D03*
D12*
X140748Y113189D02*
D03*
X126181D02*
D03*
Y122244D02*
D03*
X140748D02*
D03*
D13*
X130512Y129528D02*
D03*
X136417D02*
D03*
X288779Y88976D02*
D03*
X282874D02*
D03*
X288386Y106299D02*
D03*
X282480D02*
D03*
X128937Y72047D02*
D03*
X134843D02*
D03*
X14764Y51181D02*
D03*
X8858D02*
D03*
D14*
X293504Y112303D02*
D03*
Y114862D02*
D03*
Y117421D02*
D03*
Y119980D02*
D03*
X277362Y112303D02*
D03*
Y114862D02*
D03*
Y117421D02*
D03*
Y119980D02*
D03*
D15*
X281890Y98425D02*
D03*
X289764D02*
D03*
X15748Y70866D02*
D03*
X23622D02*
D03*
X15748Y60236D02*
D03*
X23622D02*
D03*
D16*
X166949Y110039D02*
D03*
X161949D02*
D03*
X156949D02*
D03*
X151949D02*
D03*
X166949Y90748D02*
D03*
X161949D02*
D03*
X156949D02*
D03*
X151949D02*
D03*
D17*
X120374Y79921D02*
D03*
X122933D02*
D03*
X125492D02*
D03*
X128051D02*
D03*
X130610D02*
D03*
X133169D02*
D03*
X135728D02*
D03*
X138287D02*
D03*
X140847D02*
D03*
X143405D02*
D03*
X120374Y101969D02*
D03*
X122933D02*
D03*
X125492D02*
D03*
X128051D02*
D03*
X130610D02*
D03*
X133169D02*
D03*
X135728D02*
D03*
X138287D02*
D03*
X140847D02*
D03*
X143405D02*
D03*
D18*
X7874Y42717D02*
D03*
Y36024D02*
D03*
X15748Y42717D02*
D03*
Y36024D02*
D03*
D19*
X19685Y110039D02*
D03*
D20*
X28740Y86811D02*
D03*
X19685D02*
D03*
X10630D02*
D03*
D21*
X43307Y94882D02*
D03*
Y102756D02*
D03*
D22*
X214173Y68504D02*
X214961Y69291D01*
X140748Y122244D02*
Y125197D01*
X126181Y113189D02*
X130118D01*
X118110D02*
X126181D01*
X136417Y129528D02*
X140748Y125197D01*
X144488Y139370D02*
X147638Y136221D01*
Y111417D02*
Y136221D01*
X165437Y141470D02*
X167061Y139846D01*
X121653Y127802D02*
X135322Y141470D01*
X165437D01*
X143405Y107185D02*
X147638Y111417D01*
X114567Y120003D02*
X121653Y127089D01*
Y127802D01*
X143405Y101969D02*
Y107185D01*
X114567Y111417D02*
Y120003D01*
Y111417D02*
X115354Y110630D01*
X130118Y113189D02*
X138287Y105020D01*
Y101969D02*
Y105020D01*
X134646Y110630D02*
X140847Y104429D01*
Y101969D02*
Y104429D01*
X134646Y116142D02*
X140748Y122244D01*
X134646Y110630D02*
Y116142D01*
X117717Y106404D02*
Y109843D01*
X116929Y110630D02*
X117717Y109843D01*
X115354Y110630D02*
X116929D01*
X116430Y105118D02*
X117717Y106404D01*
X110194Y124409D02*
X110630D01*
X103051Y112894D02*
X106299Y116141D01*
X103051Y110925D02*
Y112894D01*
X136931Y69376D02*
X138582Y67725D01*
X134440Y59260D02*
X136015Y60835D01*
X120374Y90059D02*
X122835Y87598D01*
X105493Y79115D02*
X105690Y78918D01*
X105118Y79490D02*
X105493Y79115D01*
X105118Y78918D02*
X105690D01*
X103365Y77165D02*
X105118Y78918D01*
X20472Y135433D02*
X30709Y145669D01*
X14764Y135433D02*
X20472D01*
X2362Y138583D02*
X4724Y136221D01*
Y66142D02*
Y136221D01*
Y66142D02*
X7874Y62992D01*
X171504Y61108D02*
X178761D01*
X165185Y67427D02*
X171504Y61108D01*
X163985Y66930D02*
X171007Y59908D01*
X179258D02*
X182218Y62868D01*
X178761Y61108D02*
X181018Y63365D01*
X171007Y59908D02*
X179258D01*
X182218Y62868D02*
Y71194D01*
X181018Y63365D02*
Y71692D01*
X191478Y82152D01*
X182218Y71194D02*
X191975Y80952D01*
X196249D02*
X204730Y89433D01*
X195752Y82152D02*
X203530Y89930D01*
X191478Y82152D02*
X195752D01*
X191975Y80952D02*
X196249D01*
X176508Y68879D02*
X203824Y96194D01*
X176011Y70079D02*
X203327Y97395D01*
X203824Y96194D02*
X219431D01*
X203327Y97395D02*
X219928D01*
X203530Y89930D02*
Y89931D01*
X204730Y89433D02*
Y89434D01*
X122441Y87795D02*
X122637Y87598D01*
X122835D01*
X154331Y86601D02*
Y96063D01*
Y86601D02*
X156005Y84927D01*
X153824Y96569D02*
X154331Y96063D01*
X133090Y94076D02*
X145895D01*
X133465Y95669D02*
X145791D01*
X149729Y99606D01*
X145895Y94076D02*
X149589Y97769D01*
X155380D01*
X149729Y99606D02*
X166535D01*
X149232Y100806D02*
X167698D01*
X146063Y97638D02*
X149232Y100806D01*
X137084Y97638D02*
X146063D01*
X150394Y96569D02*
X153824D01*
X146700Y92876D02*
X150394Y96569D01*
X131534Y92876D02*
X146700D01*
X129978Y91676D02*
X151021D01*
X151949Y90748D01*
X130610Y98524D02*
Y101969D01*
Y98524D02*
X133465Y95669D01*
X128051Y99114D02*
X133090Y94076D01*
X128051Y99114D02*
Y101969D01*
X125492Y98917D02*
X131534Y92876D01*
X125492Y98917D02*
Y101969D01*
X135728Y98993D02*
X137084Y97638D01*
X122933Y98721D02*
X129978Y91676D01*
X166535Y99606D02*
X169291Y96850D01*
X170828Y102006D02*
X172235Y100600D01*
X167698Y100806D02*
X170866Y97638D01*
X152718Y102006D02*
X170828D01*
X149449Y105276D02*
X152718Y102006D01*
X154134Y103347D02*
X175591D01*
X151949Y105532D02*
X154134Y103347D01*
X169291Y73622D02*
Y96850D01*
X166949Y85453D02*
Y90748D01*
X166423Y84927D02*
X166949Y85453D01*
X156005Y84927D02*
X166423D01*
X155380Y97769D02*
X156949Y96201D01*
Y90748D02*
Y96201D01*
X157387Y91186D02*
X161511D01*
X170866Y70898D02*
Y97638D01*
X169480Y69512D02*
X170866Y70898D01*
X168504Y72835D02*
X169291Y73622D01*
X162178Y75590D02*
X167585Y70184D01*
X149426Y75590D02*
X162178D01*
X161681Y74391D02*
X166385Y69687D01*
X149923Y74391D02*
X161681D01*
X161184Y73190D02*
X165185Y69190D01*
X150963Y73190D02*
X161184D01*
X160687Y71991D02*
X163985Y68692D01*
X151460Y71991D02*
X160687D01*
X288386Y106299D02*
X294357D01*
X111431Y76685D02*
Y89931D01*
Y76685D02*
X114599Y73516D01*
X109273Y92088D02*
X111431Y89931D01*
X110231Y76188D02*
Y89434D01*
X109113Y90551D02*
X110231Y89434D01*
Y76188D02*
X113399Y73019D01*
X180709Y103150D02*
X203071D01*
X178159Y100600D02*
X180709Y103150D01*
X172235Y100600D02*
X178159D01*
X151949Y105532D02*
Y110039D01*
X182677Y97441D02*
X182677Y97441D01*
X175591Y97441D02*
X182677D01*
X170866Y97638D02*
X171063Y97441D01*
X175591D01*
X167585Y68421D02*
Y70184D01*
X168318Y65991D02*
X171052D01*
X170554Y67191D02*
X171785Y68421D01*
X163985Y66930D02*
Y68692D01*
X165185Y67427D02*
Y69190D01*
X166385Y67924D02*
X168318Y65991D01*
X166385Y67924D02*
Y69687D01*
X168815Y67191D02*
X170554D01*
X167585Y68421D02*
X168815Y67191D01*
X173939Y68879D02*
X176508D01*
X171052Y65991D02*
X173939Y68879D01*
X173441Y70079D02*
X176011D01*
X171785Y68423D02*
X173441Y70079D01*
X196850Y67716D02*
X200885Y63681D01*
X171785Y68421D02*
Y68423D01*
X137530Y58060D02*
X151460Y71991D01*
X138919Y63386D02*
X149923Y74391D01*
X138403Y60630D02*
X150963Y73190D01*
X145776Y71940D02*
X149426Y75590D01*
X135728Y98993D02*
Y101969D01*
X161811Y120866D02*
X183587D01*
X188686Y115767D02*
X213245D01*
X183587Y120866D02*
X188686Y115767D01*
X188189Y114567D02*
X213742D01*
X183090Y119666D02*
X188189Y114567D01*
X163761Y119666D02*
X183090D01*
X149449Y115977D02*
X159457Y125984D01*
X162992D01*
X167061Y130053D01*
X156949Y116004D02*
X161811Y120866D01*
X161949Y117854D02*
X163761Y119666D01*
X149449Y105276D02*
Y115977D01*
X156949Y110039D02*
Y116004D01*
X161949Y110039D02*
Y117854D01*
X143326Y74391D02*
X145776Y71940D01*
X139502Y65666D02*
X145776Y71940D01*
X137139Y65666D02*
X139502D01*
X136221Y60630D02*
X138403D01*
X126622Y58060D02*
X137530D01*
X138189Y63386D02*
X138919D01*
X145669Y75590D02*
X146063Y75197D01*
X140570Y74391D02*
X143326D01*
X138287Y76673D02*
X140570Y74391D01*
X138287Y76673D02*
Y79921D01*
X138582Y67725D02*
Y68110D01*
X141732Y75590D02*
X145669D01*
X140847Y76476D02*
X141732Y75590D01*
X140847Y76476D02*
Y79921D01*
X144980Y78347D02*
X146457D01*
X143405Y79921D02*
X144980Y78347D01*
X216910Y106988D02*
Y109764D01*
X218282Y111136D02*
X223449D01*
X216910Y109764D02*
X218282Y111136D01*
X203071Y103150D02*
X206909Y106988D01*
X211910D02*
Y111037D01*
X215564Y114692D01*
X213742Y114567D02*
X215068Y115892D01*
X213245Y115767D02*
X214570Y117092D01*
X215564Y114692D02*
X225224D01*
X223449Y111136D02*
X224089Y110497D01*
Y101853D02*
Y110497D01*
X215068Y115892D02*
X230565D01*
X214570Y117092D02*
X239207D01*
X225224Y114692D02*
X229528Y110389D01*
X230565Y115892D02*
X234252Y112205D01*
X239207Y117092D02*
X241864Y114435D01*
X229528Y101346D02*
Y110389D01*
X167061Y130053D02*
Y139846D01*
X80709Y106693D02*
X88051Y99350D01*
X80709Y106693D02*
Y114271D01*
X88051Y85925D02*
Y99350D01*
X93326Y86888D02*
Y99194D01*
X88051Y104469D02*
X93326Y99194D01*
X88051Y104469D02*
Y110925D01*
X85433Y81890D02*
Y99213D01*
X78051Y106595D02*
X85433Y99213D01*
X78051Y106595D02*
Y110925D01*
X83051Y107223D02*
Y110925D01*
Y107223D02*
X90872Y99402D01*
Y81777D02*
Y99402D01*
X103761Y70079D02*
X104464D01*
X98051Y64369D02*
X103761Y70079D01*
X105231Y67829D02*
X109782D01*
X103051Y65650D02*
X105231Y67829D01*
X224089Y101853D02*
X231909Y94033D01*
X112205Y105118D02*
X116430D01*
X111417Y105905D02*
X112205Y105118D01*
X98839Y105905D02*
X111417D01*
X98051Y106693D02*
X98839Y105905D01*
X98051Y106693D02*
Y110925D01*
X103051Y131553D02*
X110194Y124409D01*
X241864Y112630D02*
Y114435D01*
X239370Y110137D02*
X241864Y112630D01*
X270079Y123819D02*
X280709D01*
X289665Y114862D01*
X277362Y117421D02*
X281791D01*
X282480Y116732D01*
Y106299D02*
Y116732D01*
X270079Y129331D02*
X270079Y129331D01*
X270079Y123819D02*
Y129331D01*
X264961Y130118D02*
X270079Y135236D01*
X264567Y130118D02*
X264961D01*
X264567Y123425D02*
X270079Y117913D01*
X264567Y123425D02*
Y124213D01*
X270079Y117913D02*
X270571Y117421D01*
X277362D01*
X264567Y112402D02*
X270079Y117913D01*
X288386Y106299D02*
Y113583D01*
X289665Y114862D01*
X293504D01*
X239370Y98819D02*
X259036Y79153D01*
X234252Y102240D02*
X258539Y77953D01*
X239370Y98819D02*
Y110137D01*
X259036Y79153D02*
X325373D01*
X234252Y102240D02*
Y112205D01*
X258539Y77953D02*
X325118D01*
X236910Y79823D02*
Y85925D01*
X234626Y77539D02*
X236910Y79823D01*
X222641Y77539D02*
X234626D01*
X219089Y81091D02*
X222641Y77539D01*
X219089Y81091D02*
Y89434D01*
X231909Y85925D02*
Y94033D01*
X225370Y81777D02*
X229809D01*
X231909Y83878D01*
X219431Y96194D02*
X224730Y90896D01*
Y82417D02*
Y90896D01*
Y82417D02*
X225370Y81777D01*
X236910Y85925D02*
Y93964D01*
X221909Y95413D02*
Y106988D01*
X231909Y100661D02*
X241910Y90661D01*
X216771Y91751D02*
X219089Y89434D01*
X205350Y91751D02*
X216771D01*
X203530Y89931D02*
X205350Y91751D01*
X215748Y90551D02*
X216910Y89390D01*
X205848Y90551D02*
X215748D01*
X204730Y89434D02*
X205848Y90551D01*
X219928Y97395D02*
X221909Y95413D01*
X226909Y85925D02*
Y90413D01*
X221909Y95413D02*
X226909Y90413D01*
X216910Y85925D02*
Y89390D01*
X211910Y82776D02*
Y85925D01*
X207480Y78347D02*
X211910Y82776D01*
X207480Y74410D02*
Y78347D01*
X201181Y68110D02*
X207480Y74410D01*
X200885Y63681D02*
X206909D01*
X33465Y82677D02*
Y102756D01*
X17126Y126575D02*
Y127165D01*
X11811Y132480D02*
X17126Y127165D01*
X7087Y143110D02*
Y145000D01*
Y143110D02*
X11811Y138386D01*
X2362Y138583D02*
Y150276D01*
X7087Y155000D01*
X11811Y138386D02*
X14764Y135433D01*
X30709Y145669D02*
X117391D01*
X120900Y149179D01*
X122933Y98721D02*
Y101969D01*
X120374Y90059D02*
Y101969D01*
X128051Y76083D02*
Y79921D01*
X126659Y74691D02*
X128051Y76083D01*
X126659Y69903D02*
Y74691D01*
X125459Y69406D02*
Y79888D01*
Y69406D02*
X127779Y67085D01*
X125459Y79888D02*
X125492Y79921D01*
X126659Y69903D02*
X127186Y69376D01*
X120374Y71097D02*
Y79921D01*
X122933Y70235D02*
Y79921D01*
Y70235D02*
X128207Y64960D01*
X216929Y123228D02*
X217716D01*
X221909Y127421D01*
X210412Y122047D02*
X216910Y128544D01*
X199606Y122047D02*
X210412D01*
X229528Y101346D02*
X236910Y93964D01*
X231909Y100661D02*
Y106988D01*
X241910Y85925D02*
Y90661D01*
X245276Y62992D02*
Y66003D01*
Y62992D02*
X251575Y56693D01*
X243963Y69029D02*
X248819Y64173D01*
X251575Y52756D02*
Y56693D01*
X239089Y67829D02*
X243449D01*
X245276Y66003D01*
X238592Y69029D02*
X243963D01*
X236910Y65650D02*
X239089Y67829D01*
X237673Y68110D02*
X238592Y69029D01*
X134777Y62730D02*
X137533D01*
X138189Y63386D01*
X127186Y69376D02*
X136931D01*
X135404Y63930D02*
X136239Y64766D01*
X134280Y63930D02*
X135404D01*
X132011Y61660D02*
X134280Y63930D01*
X127779Y67085D02*
X132433D01*
X136239Y64766D02*
X137139Y65666D01*
X136239Y64766D02*
X136239D01*
X15249Y55118D02*
X18924Y51443D01*
X11024Y55118D02*
X15249D01*
X11024D02*
Y58661D01*
Y52362D02*
Y55118D01*
X9843Y51181D02*
X11024Y52362D01*
X8858Y51181D02*
X9843D01*
X7874Y61811D02*
X11024Y58661D01*
X7874Y61811D02*
Y62992D01*
X14764Y43701D02*
Y51181D01*
Y43701D02*
X15748Y42717D01*
X7874Y54724D02*
Y57087D01*
X5118Y51968D02*
X7874Y54724D01*
X5118Y49606D02*
Y51968D01*
X7874Y42717D02*
Y46850D01*
X5118Y49606D02*
X7874Y46850D01*
X9055Y32283D02*
X17717D01*
X7874Y33465D02*
X9055Y32283D01*
X7874Y33465D02*
Y36024D01*
X19685Y34252D02*
Y38263D01*
X17717Y32283D02*
X19685Y34252D01*
Y38263D02*
X32996Y51575D01*
X48089D01*
X32499Y52775D02*
X48586D01*
X16535Y36811D02*
X32499Y52775D01*
X16535Y36811D02*
Y36811D01*
X15748Y36024D02*
X16535Y36811D01*
X18924Y51443D02*
X28429D01*
X30960Y53975D02*
X49443D01*
X28429Y51443D02*
X30960Y53975D01*
X49443D02*
X53811Y49606D01*
X48586Y52775D02*
X53855Y47506D01*
X48089Y51575D02*
X53357Y46306D01*
X112199Y72483D02*
X126622Y58060D01*
X127119Y59260D02*
X134440D01*
X113399Y72980D02*
X127119Y59260D01*
X132508Y60461D02*
X134777Y62730D01*
X127616Y60461D02*
X132508D01*
X114599Y73478D02*
X127616Y60461D01*
X128113Y61660D02*
X132011D01*
X115799Y73975D02*
X128113Y61660D01*
X131364Y62861D02*
X135433Y66929D01*
X128610Y62861D02*
X131364D01*
X120374Y71097D02*
X128610Y62861D01*
X108211Y76510D02*
X112199Y72522D01*
X115799Y73975D02*
Y74014D01*
X112631Y77182D02*
X115799Y74014D01*
X112631Y77182D02*
Y90428D01*
X114599Y73478D02*
Y73516D01*
X113399Y72980D02*
Y73019D01*
X112199Y72483D02*
Y72522D01*
X109782Y67829D02*
X117323Y60289D01*
Y58268D02*
Y60289D01*
X128207Y64960D02*
X129921D01*
X119272Y50806D02*
X120866Y49213D01*
X58894Y50806D02*
X119272D01*
X136015Y60835D02*
X136221Y60630D01*
X55594Y47506D02*
X58894Y50806D01*
X115354Y49606D02*
X116535Y48425D01*
X59391Y49606D02*
X115354D01*
X56091Y46306D02*
X59391Y49606D01*
X53357Y46306D02*
X56091D01*
X53855Y47506D02*
X55594D01*
X53811Y49606D02*
X54724D01*
Y55905D02*
Y61417D01*
X33465Y82677D02*
X54724Y61417D01*
X325373Y79153D02*
X334646Y88425D01*
X325118Y77953D02*
X334646Y68425D01*
X238976Y113386D02*
X239370D01*
X236910Y111319D02*
X238976Y113386D01*
X236910Y106988D02*
Y111319D01*
X105118Y78918D02*
Y79490D01*
Y78740D02*
Y78918D01*
X86221Y77165D02*
X103365D01*
X109770Y93288D02*
X112631Y90428D01*
X108051Y85925D02*
X108211Y85765D01*
Y76510D02*
Y85765D01*
X79528Y80709D02*
X80709D01*
X78051Y82185D02*
X79528Y80709D01*
X78051Y82185D02*
Y85925D01*
X75590Y66830D02*
Y70866D01*
Y66830D02*
X78051Y64369D01*
Y63681D02*
Y64369D01*
X83051Y80335D02*
X86221Y77165D01*
X83051Y80335D02*
Y85925D01*
X99726Y93288D02*
X109770D01*
X101931Y92088D02*
X109273D01*
X104331Y90551D02*
X109113D01*
X100394Y79134D02*
X103051Y81791D01*
X85433Y81890D02*
X88189Y79134D01*
X100394D01*
X92126Y80523D02*
X97058D01*
X90872Y81777D02*
X92126Y80523D01*
X97058D02*
X98051Y81516D01*
Y85925D01*
X103051Y81791D02*
Y85433D01*
X93326Y86888D02*
X99726Y93288D01*
X98051Y88209D02*
X101931Y92088D01*
X103051Y89272D02*
X104331Y90551D01*
X103051Y85925D02*
Y89272D01*
X161511Y91186D02*
X161949Y90748D01*
X156949D02*
X157387Y91186D01*
X89591Y115073D02*
X93051Y111613D01*
X111516Y133169D02*
X114173Y135827D01*
X108051Y133169D02*
X111516D01*
X98051Y129508D02*
X100000Y127559D01*
X83051Y65728D02*
X86614Y69291D01*
X93051Y65492D02*
X98032Y70472D01*
X88051Y58012D02*
X88189Y57874D01*
X88051Y58012D02*
Y63681D01*
X216910D02*
Y67343D01*
X221909Y61949D02*
Y63681D01*
X98032Y70472D02*
X100000D01*
X214961Y69291D02*
X216910Y67343D01*
X221909Y61949D02*
X227559Y56299D01*
X98051Y63681D02*
Y64369D01*
X93051Y85925D02*
Y86613D01*
X93326Y86888D01*
X214173Y68504D02*
Y69685D01*
X216910Y128544D02*
Y129232D01*
X211910Y128544D02*
Y129232D01*
X225590Y135827D02*
X226909Y134508D01*
Y129232D02*
Y134508D01*
X231909Y129232D02*
Y131516D01*
X243449Y133380D02*
X244546Y132283D01*
X236910Y129232D02*
Y129920D01*
X231496Y71260D02*
X236221D01*
X226909Y63681D02*
Y66673D01*
X231496Y71260D01*
X211910Y72146D02*
X212598Y72835D01*
X211910Y63681D02*
Y72146D01*
X231909Y83878D02*
Y85925D01*
Y106988D02*
Y108642D01*
X211910Y106300D02*
Y106988D01*
X88051Y130571D02*
Y133169D01*
X98051Y129508D02*
Y133169D01*
X62598Y70472D02*
X70295D01*
X73051Y67716D01*
X70210Y126772D02*
X75590D01*
X77165Y128347D01*
X81496D01*
X83051Y129902D01*
Y133169D01*
X78051Y131595D02*
Y133169D01*
X75197Y128740D02*
X78051Y131595D01*
X71653Y128740D02*
X75197D01*
X59449Y129134D02*
X60236Y129921D01*
X70472D01*
X71653Y128740D01*
X221909Y127421D02*
Y129232D01*
X208449Y125084D02*
X211910Y128544D01*
X103051Y131553D02*
Y133169D01*
X93051Y63681D02*
Y65492D01*
X83051Y63681D02*
Y65728D01*
X103051Y63681D02*
Y65650D01*
X98051Y85925D02*
Y88209D01*
X73051Y63681D02*
Y67716D01*
X200394Y129921D02*
X205231Y125084D01*
X208449D01*
X80709Y114271D02*
X81511Y115073D01*
X89591D01*
X93051Y110925D02*
Y111613D01*
X79921Y125590D02*
X83071D01*
X88051Y130571D01*
X231909Y63681D02*
Y66949D01*
X233071Y68110D01*
X236910Y63681D02*
Y65650D01*
X233071Y68110D02*
X237673D01*
X241910Y129232D02*
X255217D01*
X244546Y132283D02*
X245669D01*
X255217Y129232D02*
X255906Y129921D01*
X236910Y129920D02*
X240370Y133380D01*
X243449D01*
X231909Y131516D02*
X236614Y136221D01*
X244488D01*
X93051Y133169D02*
Y135295D01*
X89764Y138583D02*
X93051Y135295D01*
D23*
X193701Y68810D02*
X197529Y72638D01*
X111972Y110925D02*
Y121009D01*
X114567Y108071D02*
Y108330D01*
X111972Y110925D02*
X114567Y108330D01*
X108051Y110925D02*
X111972D01*
X194881Y84252D02*
X204481Y93851D01*
X194881Y84252D02*
Y84252D01*
X193701Y68810D02*
Y71260D01*
X123964Y84674D02*
X124213Y84425D01*
X126008Y86221D01*
X119343Y84674D02*
X123964D01*
X116535Y81866D02*
X119343Y84674D01*
X126008Y86221D02*
X129528D01*
X124213Y84425D02*
Y84425D01*
X193701Y53150D02*
Y68810D01*
X170473Y53150D02*
X193701D01*
X197529Y72638D02*
X198031D01*
X167323Y50000D02*
X170473Y53150D01*
X146850Y50000D02*
X167323D01*
X144882Y51968D02*
X146850Y50000D01*
X129528Y86221D02*
X130610Y85138D01*
X196597Y50402D02*
X206691D01*
X193850Y53150D02*
X196597Y50402D01*
X124370Y51968D02*
X144882D01*
X123189Y53150D02*
X124370Y51968D01*
X207093Y50000D02*
X212947D01*
X206691Y50402D02*
X207093Y50000D01*
X217998D02*
X223852D01*
X217596Y50402D02*
X217998Y50000D01*
X213349Y50402D02*
X217596D01*
X212947Y50000D02*
X213349Y50402D01*
X228904Y50000D02*
X234646D01*
X228502Y50402D02*
X228904Y50000D01*
X224254Y50402D02*
X228502D01*
X223852Y50000D02*
X224254Y50402D01*
X234646Y50000D02*
X241910Y57264D01*
X116535Y77559D02*
Y81866D01*
X57480Y53150D02*
X107480D01*
X252953Y117913D02*
X258268Y112598D01*
Y109055D02*
Y112598D01*
Y109055D02*
X260827Y106496D01*
X264567D01*
X223511Y79639D02*
X233182D01*
X221909Y81240D02*
X223511Y79639D01*
X221909Y81240D02*
Y85925D01*
X218631Y93851D02*
X221909Y90572D01*
X204481Y93851D02*
X218631D01*
X221909Y85925D02*
Y90572D01*
X118110Y134055D02*
Y142126D01*
X30091Y56075D02*
X50313D01*
X27559Y53543D02*
X30091Y56075D01*
X20061Y53543D02*
X27559D01*
X15748Y57856D02*
X20061Y53543D01*
X50313Y56075D02*
X53482Y52905D01*
X107480Y53150D02*
X123189D01*
X57236Y52905D02*
X57480Y53150D01*
X53482Y52905D02*
X57236D01*
X15748Y57856D02*
Y60236D01*
X57724Y53394D02*
Y76134D01*
X57480Y76378D02*
X57724Y76134D01*
X57480Y53150D02*
X57724Y53394D01*
X116142Y132087D02*
X118110Y134055D01*
X248031Y140551D02*
X250000D01*
X260630Y125591D02*
Y129921D01*
X250000Y140551D02*
X260630Y129921D01*
X58071Y76968D02*
X63386D01*
X57480Y76378D02*
X58071Y76968D01*
X43307Y90551D02*
Y94882D01*
Y90551D02*
X57480Y76378D01*
X23622Y60236D02*
Y70866D01*
X28740Y75984D02*
Y86811D01*
X23622Y70866D02*
X28740Y75984D01*
X39370Y65354D01*
Y64961D02*
Y65354D01*
X108051Y53720D02*
Y63681D01*
X206909Y129232D02*
Y140551D01*
X251575Y117913D02*
X252953D01*
X260630Y125591D01*
X241910Y57264D02*
Y63681D01*
X107480Y53150D02*
X108051Y53720D01*
X10630Y77953D02*
Y86811D01*
Y77953D02*
X15748Y72835D01*
Y70866D02*
Y72835D01*
Y60236D02*
Y70866D01*
X73051Y133169D02*
Y141983D01*
X78203D01*
D24*
X242613Y119592D02*
X250886Y111319D01*
X66437Y85925D02*
X77697Y74665D01*
X179651Y147770D02*
X186870Y140551D01*
X126378Y146063D02*
X128085Y147770D01*
X178077Y143970D02*
X185314Y136733D01*
X116497Y126181D02*
X134286Y143970D01*
X178077D01*
X128085Y147770D02*
X179651D01*
X116142Y126181D02*
X116497D01*
X116142Y125113D02*
Y126181D01*
X112038Y121009D02*
X116142Y125113D01*
X111972Y121009D02*
X112038D01*
X95531D02*
X111972D01*
X17126Y126575D02*
X32677Y142126D01*
X169972Y57408D02*
X180294D01*
X169947Y57432D02*
X169972Y57408D01*
X166058Y53543D02*
X169947Y57432D01*
X180294Y57408D02*
X185039Y62153D01*
Y70079D02*
X193412Y78452D01*
X185039Y62153D02*
Y70079D01*
X193412Y78452D02*
X197940D01*
X198031Y78543D01*
X148819Y53543D02*
X166058D01*
X146850Y55512D02*
X148819Y53543D01*
X190294Y118504D02*
X212205D01*
X185314Y123484D02*
X190294Y118504D01*
X160492Y123484D02*
X185314D01*
Y124213D02*
Y136733D01*
X151949Y114941D02*
X160492Y123484D01*
X151949Y110039D02*
Y114941D01*
X146063Y55512D02*
Y62598D01*
Y55512D02*
X146850D01*
X138566Y55560D02*
X138615Y55512D01*
X146063D01*
X125586Y55560D02*
X138566D01*
X139085Y71763D02*
Y72045D01*
X212205Y118504D02*
X213293Y119592D01*
X242613D01*
X107668Y73479D02*
X107707D01*
X106482Y74665D02*
X107668Y73479D01*
X77697Y74665D02*
X106482D01*
X107707Y73479D02*
X109699Y71487D01*
X267717Y98425D02*
X270079Y100787D01*
Y106496D01*
X186870Y140551D02*
X206909D01*
X26969Y102756D02*
X33465D01*
X19685Y110039D02*
X26969Y102756D01*
X33465D02*
X43307D01*
X10630Y120079D02*
X17126Y126575D01*
X32677Y142126D02*
X118110D01*
X122441D02*
X126378Y146063D01*
X118110Y142126D02*
X122441D01*
X10630Y86811D02*
Y120079D01*
X139084Y72047D02*
X139085Y72045D01*
X134843Y72047D02*
X139084D01*
X109699Y71448D02*
X125586Y55560D01*
X109699Y71448D02*
Y71487D01*
X206909Y140551D02*
X248031D01*
X43307Y102756D02*
X49606D01*
X66437Y85925D01*
X49606Y102756D02*
X67860Y121009D01*
X95276D01*
X19685Y86811D02*
Y110039D01*
D25*
X139764Y137795D02*
X141339D01*
X130610Y79921D02*
Y85138D01*
X107874Y102165D02*
X114567D01*
X107087Y102953D02*
X107874Y102165D01*
X101575Y102953D02*
X107087D01*
X250886Y102264D02*
Y111319D01*
Y102264D02*
X264173Y88976D01*
X246555Y106988D02*
X250886Y111319D01*
Y111319D01*
X251575Y112008D02*
X251575D01*
X250886Y111319D02*
X251575Y112008D01*
X264173Y88976D02*
X282874D01*
X205413Y85925D02*
X206909D01*
X198031Y78543D02*
X205413Y85925D01*
X128937Y72047D02*
X130610Y73721D01*
Y79921D01*
X226909Y101437D02*
X234089Y94257D01*
X226909Y101437D02*
Y106988D01*
X241910D02*
X246555D01*
X66437Y85925D02*
X73051D01*
X63386Y82874D02*
X66437Y85925D01*
D26*
X133169Y103839D02*
Y105020D01*
X131890Y106299D02*
X133169Y105020D01*
X119685Y106299D02*
X131890D01*
X114764Y102362D02*
X115748D01*
X114567Y102165D02*
X114764Y102362D01*
X115748D02*
X119685Y106299D01*
D27*
X298031Y106579D02*
Y116929D01*
X289877Y98425D02*
X298031Y106579D01*
X289764Y98425D02*
X289877D01*
X216445Y112636D02*
X224071D01*
X214430Y110621D02*
X216445Y112636D01*
X224071D02*
X226909Y109797D01*
X214430Y102825D02*
Y110621D01*
X213899Y102294D02*
X214430Y102825D01*
X210168Y102294D02*
X213899D01*
X188208Y111436D02*
X208574D01*
X183465Y106693D02*
X188208Y111436D01*
X173622Y106693D02*
X183465D01*
X170276Y110039D02*
X173622Y106693D01*
X166949Y110039D02*
X170276D01*
X208574Y111436D02*
X209389Y110621D01*
Y103073D02*
Y110621D01*
Y103073D02*
X210168Y102294D01*
X226909Y106988D02*
Y109797D01*
X133169Y101969D02*
Y103839D01*
X270079Y112402D02*
X272539Y114862D01*
X277362D01*
X298031Y116929D02*
X298228Y117126D01*
X302362D01*
X293504Y117421D02*
X297539D01*
X298031Y116929D01*
X277362Y102953D02*
Y112303D01*
Y102953D02*
X281890Y98425D01*
X289764Y89961D02*
Y98425D01*
X288779Y88976D02*
X289764Y89961D01*
X234389Y80846D02*
Y93958D01*
X233182Y79639D02*
X234389Y80846D01*
X234089Y94257D02*
X234389Y93958D01*
D28*
X133169Y73721D02*
Y79921D01*
Y73721D02*
X134843Y72047D01*
D29*
X177165Y112205D02*
D03*
Y131890D02*
D03*
Y84646D02*
D03*
Y64961D02*
D03*
X39370Y84646D02*
D03*
Y64961D02*
D03*
Y112205D02*
D03*
Y131890D02*
D03*
D30*
X307087Y98425D02*
D03*
X267717D02*
D03*
D31*
X305118Y133858D02*
D03*
X285433D02*
D03*
X305118Y62992D02*
D03*
X285433D02*
D03*
D32*
X39370Y39370D02*
D03*
X137756D02*
D03*
X137776Y159449D02*
D03*
X39390D02*
D03*
X275571D02*
D03*
X177185D02*
D03*
X177185Y39685D02*
D03*
X275571D02*
D03*
D33*
X110374Y44961D02*
D03*
X204567Y153858D02*
D03*
X248189Y45276D02*
D03*
D34*
X104921Y33779D02*
D03*
X99468Y44961D02*
D03*
X94016Y33779D02*
D03*
X88563Y44961D02*
D03*
X83110Y33779D02*
D03*
X77658Y44961D02*
D03*
X72205Y33779D02*
D03*
X66752Y44961D02*
D03*
X66772Y153858D02*
D03*
X72224Y165039D02*
D03*
X77677Y153858D02*
D03*
X83130Y165039D02*
D03*
X88583Y153858D02*
D03*
X94035Y165039D02*
D03*
X99488Y153858D02*
D03*
X104941Y165039D02*
D03*
X110394Y153858D02*
D03*
X210020Y165039D02*
D03*
X215472Y153858D02*
D03*
X220925Y165039D02*
D03*
X226378Y153858D02*
D03*
X231831Y165039D02*
D03*
X237283Y153858D02*
D03*
X242736Y165039D02*
D03*
X248189Y153858D02*
D03*
X242736Y34095D02*
D03*
X237283Y45276D02*
D03*
X231831Y34095D02*
D03*
X226378Y45276D02*
D03*
X220925Y34095D02*
D03*
X215472Y45276D02*
D03*
X210020Y34095D02*
D03*
X204567Y45276D02*
D03*
D35*
X7087Y155000D02*
D03*
D36*
Y145000D02*
D03*
X157874Y44134D02*
D03*
Y34134D02*
D03*
Y24134D02*
D03*
X334646Y68425D02*
D03*
Y88425D02*
D03*
Y108425D02*
D03*
Y128425D02*
D03*
D37*
X157874Y14134D02*
D03*
D38*
X144488Y139370D02*
D03*
X110630Y124409D02*
D03*
X106299Y116141D02*
D03*
X194881Y84252D02*
D03*
X193701Y71260D02*
D03*
X122441Y87795D02*
D03*
X168504Y72835D02*
D03*
X294357Y106299D02*
D03*
X196850Y67716D02*
D03*
X169685Y69291D02*
D03*
X146063Y75197D02*
D03*
X138582Y68110D02*
D03*
X146457Y78347D02*
D03*
X116535Y77559D02*
D03*
X104464Y70079D02*
D03*
X107480Y53150D02*
D03*
X201181Y68110D02*
D03*
X120900Y149179D02*
D03*
X216929Y123228D02*
D03*
X251575Y52756D02*
D03*
X138189Y63386D02*
D03*
X132433Y67085D02*
D03*
X117323Y58268D02*
D03*
X129921Y64960D02*
D03*
X135433Y66929D02*
D03*
X136221Y60630D02*
D03*
X116535Y48425D02*
D03*
X120866Y49213D02*
D03*
X54724Y49606D02*
D03*
Y55905D02*
D03*
X239370Y113386D02*
D03*
X105118Y78740D02*
D03*
X80709Y80709D02*
D03*
X75590Y70866D02*
D03*
X114173Y135827D02*
D03*
X100000Y127559D02*
D03*
X86614Y69291D02*
D03*
X88189Y57874D02*
D03*
X100000Y70472D02*
D03*
X227559Y56299D02*
D03*
X214173Y69685D02*
D03*
X225590Y135827D02*
D03*
X236221Y71260D02*
D03*
X212598Y72835D02*
D03*
X200394Y129921D02*
D03*
X199606Y122047D02*
D03*
X62598Y70472D02*
D03*
X59449Y129134D02*
D03*
X79921Y125590D02*
D03*
X69291Y127165D02*
D03*
X248819Y64173D02*
D03*
X245669Y132283D02*
D03*
X255906Y129921D02*
D03*
X244488Y136221D02*
D03*
X89764Y138583D02*
D03*
D39*
X139764Y137795D02*
D03*
X126378Y146063D02*
D03*
D40*
X146063Y62598D02*
D03*
X139085Y71763D02*
D03*
M02*
