G04 Layer_Color=8421504*
%FSLAX25Y25*%
%MOIN*%
G70*
G01*
G75*
G04:AMPARAMS|DCode=10|XSize=25.59mil|YSize=64.96mil|CornerRadius=1.92mil|HoleSize=0mil|Usage=FLASHONLY|Rotation=0.000|XOffset=0mil|YOffset=0mil|HoleType=Round|Shape=RoundedRectangle|*
%AMROUNDEDRECTD10*
21,1,0.02559,0.06112,0,0,0.0*
21,1,0.02175,0.06496,0,0,0.0*
1,1,0.00384,0.01088,-0.03056*
1,1,0.00384,-0.01088,-0.03056*
1,1,0.00384,-0.01088,0.03056*
1,1,0.00384,0.01088,0.03056*
%
%ADD10ROUNDEDRECTD10*%
%ADD11R,0.03543X0.02756*%
%ADD12R,0.07480X0.04331*%
%ADD13R,0.02756X0.03543*%
%ADD14R,0.05512X0.05905*%
%ADD15O,0.02756X0.09842*%
%ADD16O,0.01378X0.05905*%
%ADD17R,0.03937X0.03937*%
%ADD18R,0.12992X0.10630*%
%ADD19R,0.03937X0.10630*%
%ADD20R,0.05905X0.05512*%
%ADD21O,0.06693X0.01772*%
D10*
X73051Y110925D02*
D03*
X78051Y110925D02*
D03*
X83051Y110925D02*
D03*
X88051Y110925D02*
D03*
X93051Y110925D02*
D03*
X98051Y110925D02*
D03*
X103051Y110925D02*
D03*
X108051Y110925D02*
D03*
X73051Y133169D02*
D03*
X78051Y133169D02*
D03*
X83051Y133169D02*
D03*
X88051Y133169D02*
D03*
X93051Y133169D02*
D03*
X98051Y133169D02*
D03*
X103051Y133169D02*
D03*
X108051Y133169D02*
D03*
X206909Y106988D02*
D03*
X211910Y106988D02*
D03*
X216910Y106988D02*
D03*
X221909Y106988D02*
D03*
X226909Y106988D02*
D03*
X231909Y106988D02*
D03*
X236910Y106988D02*
D03*
X241910Y106988D02*
D03*
X206909Y129232D02*
D03*
X211910Y129232D02*
D03*
X216910Y129232D02*
D03*
X221909Y129232D02*
D03*
X226909Y129232D02*
D03*
X231909Y129232D02*
D03*
X236910Y129232D02*
D03*
X241910Y129232D02*
D03*
X241910Y85925D02*
D03*
X236910Y85925D02*
D03*
X231909Y85925D02*
D03*
X226909Y85925D02*
D03*
X221909Y85925D02*
D03*
X216910Y85925D02*
D03*
X211910Y85925D02*
D03*
X206909Y85925D02*
D03*
X241910Y63681D02*
D03*
X236910Y63681D02*
D03*
X231909Y63681D02*
D03*
X226909Y63681D02*
D03*
X221909Y63681D02*
D03*
X216910Y63681D02*
D03*
X211910Y63681D02*
D03*
X206909Y63681D02*
D03*
X108051Y85925D02*
D03*
X103051Y85925D02*
D03*
X98051Y85925D02*
D03*
X93051Y85925D02*
D03*
X88051Y85925D02*
D03*
X83051Y85925D02*
D03*
X78051Y85925D02*
D03*
X73051Y85925D02*
D03*
X108051Y63681D02*
D03*
X103051Y63681D02*
D03*
X98051Y63681D02*
D03*
X93051Y63681D02*
D03*
X88051Y63681D02*
D03*
X83051Y63681D02*
D03*
X78051Y63681D02*
D03*
X73051Y63681D02*
D03*
D11*
X116142Y132087D02*
D03*
X116142Y126181D02*
D03*
X135039Y128996D02*
D03*
X135039Y134901D02*
D03*
X142126Y134843D02*
D03*
X142126Y128937D02*
D03*
X270079Y123819D02*
D03*
X270079Y117913D02*
D03*
X302362Y111221D02*
D03*
X302362Y117126D02*
D03*
X196457Y72638D02*
D03*
X196457Y78543D02*
D03*
X182677Y97441D02*
D03*
X182677Y91535D02*
D03*
X107087Y102953D02*
D03*
X107087Y97047D02*
D03*
X101575Y102953D02*
D03*
X101575Y97047D02*
D03*
X63386Y76968D02*
D03*
X63386Y82874D02*
D03*
X270079Y129331D02*
D03*
X270079Y135236D02*
D03*
X264567Y130118D02*
D03*
X264567Y124213D02*
D03*
X264567Y112402D02*
D03*
X264567Y106496D02*
D03*
X270079Y112402D02*
D03*
X270079Y106496D02*
D03*
X7874Y57087D02*
D03*
X7874Y62992D02*
D03*
X11811Y132480D02*
D03*
X11811Y138386D02*
D03*
X175591Y97441D02*
D03*
X175591Y103347D02*
D03*
X114567Y108071D02*
D03*
X114567Y102165D02*
D03*
X62992Y64961D02*
D03*
X62992Y70866D02*
D03*
X255512Y131299D02*
D03*
X255512Y125394D02*
D03*
X199213Y58858D02*
D03*
X199213Y64764D02*
D03*
D12*
X140748Y113189D02*
D03*
X126181Y113189D02*
D03*
X126181Y122244D02*
D03*
X140748Y122244D02*
D03*
D13*
X257677Y107874D02*
D03*
X251772Y107874D02*
D03*
X128937Y72047D02*
D03*
X134843Y72047D02*
D03*
X78937Y96063D02*
D03*
X73032Y96063D02*
D03*
X288779Y88976D02*
D03*
X282874Y88976D02*
D03*
X288386Y106299D02*
D03*
X282480Y106299D02*
D03*
X14764Y51181D02*
D03*
X8858Y51181D02*
D03*
X75394Y141339D02*
D03*
X69488Y141339D02*
D03*
X88779Y141339D02*
D03*
X82874Y141339D02*
D03*
X99410Y141339D02*
D03*
X93504Y141339D02*
D03*
X104134Y141339D02*
D03*
X110039Y141339D02*
D03*
X97835Y55512D02*
D03*
X103740Y55512D02*
D03*
X85630Y55512D02*
D03*
X91535Y55512D02*
D03*
X74410Y55118D02*
D03*
X80315Y55118D02*
D03*
X66929Y58071D02*
D03*
X61024Y58071D02*
D03*
X208465Y139764D02*
D03*
X202559Y139764D02*
D03*
X219291Y139764D02*
D03*
X213386Y139764D02*
D03*
X230118Y139764D02*
D03*
X224213Y139764D02*
D03*
X235236Y139764D02*
D03*
X241142Y139764D02*
D03*
X246260Y139764D02*
D03*
X252165Y139764D02*
D03*
X250787Y61024D02*
D03*
X256693Y61024D02*
D03*
X250787Y53937D02*
D03*
X256693Y53937D02*
D03*
X239567Y53937D02*
D03*
X245472Y53937D02*
D03*
X228150Y53937D02*
D03*
X234055Y53937D02*
D03*
X211221Y53937D02*
D03*
X205315Y53937D02*
D03*
X222638Y53937D02*
D03*
X216732Y53937D02*
D03*
D14*
X281890Y98425D02*
D03*
X289764Y98425D02*
D03*
X15748Y70866D02*
D03*
X23622Y70866D02*
D03*
X15748Y60236D02*
D03*
X23622Y60236D02*
D03*
D15*
X166949Y110039D02*
D03*
X161949Y110039D02*
D03*
X156949Y110039D02*
D03*
X151949Y110039D02*
D03*
X166949Y90748D02*
D03*
X161949Y90748D02*
D03*
X156949Y90748D02*
D03*
X151949Y90748D02*
D03*
D16*
X120374Y79921D02*
D03*
X122933Y79921D02*
D03*
X125492Y79921D02*
D03*
X128051Y79921D02*
D03*
X130610Y79921D02*
D03*
X133169Y79921D02*
D03*
X135728Y79921D02*
D03*
X138287Y79921D02*
D03*
X140847Y79921D02*
D03*
X143405Y79921D02*
D03*
X120374Y101969D02*
D03*
X122933Y101969D02*
D03*
X125492Y101969D02*
D03*
X128051Y101969D02*
D03*
X130610Y101969D02*
D03*
X133169Y101969D02*
D03*
X135728Y101969D02*
D03*
X138287Y101969D02*
D03*
X140847Y101969D02*
D03*
X143405Y101969D02*
D03*
D17*
X7874Y42717D02*
D03*
X7874Y36024D02*
D03*
X15748Y42717D02*
D03*
X15748Y36024D02*
D03*
D18*
X19685Y110039D02*
D03*
D19*
X28740Y86811D02*
D03*
X19685Y86811D02*
D03*
X10630Y86811D02*
D03*
D20*
X43307Y94882D02*
D03*
X43307Y102756D02*
D03*
D21*
X277165Y119980D02*
D03*
X277165Y117421D02*
D03*
X277165Y114862D02*
D03*
X277165Y112303D02*
D03*
X293701Y119980D02*
D03*
X293701Y117421D02*
D03*
X293701Y114862D02*
D03*
X293701Y112303D02*
D03*
M02*
