G04 Layer_Physical_Order=2*
G04 Layer_Color=16711680*
%FSLAX25Y25*%
%MOIN*%
G70*
G01*
G75*
%ADD10R,0.03543X0.02756*%
%ADD11R,0.02756X0.03543*%
%ADD22C,0.00600*%
%ADD24C,0.02400*%
%ADD25C,0.03200*%
%ADD29C,0.09842*%
%ADD30C,0.06653*%
%ADD31R,0.06653X0.06653*%
%ADD32C,0.18740*%
%ADD33C,0.07087*%
%ADD34R,0.07087X0.07087*%
%ADD35R,0.07087X0.07087*%
%ADD36C,0.05905*%
%ADD37C,0.07874*%
%ADD38C,0.02400*%
%ADD39C,0.03600*%
%ADD40R,0.03543X0.03150*%
%ADD41R,0.03150X0.03543*%
%ADD42R,0.03937X0.02362*%
%ADD43C,0.08000*%
G36*
X1646Y9270D02*
X3160Y7005D01*
X4956Y4956D01*
X7005Y3160D01*
X9270Y1646D01*
X11594Y500D01*
X11478Y0D01*
X0Y0D01*
X0Y11478D01*
X500Y11594D01*
X1646Y9270D01*
X1646Y9270D02*
G37*
G36*
X354331Y11478D02*
X354331Y0D01*
X342853Y0D01*
X342737Y500D01*
X345060Y1646D01*
X347326Y3160D01*
X349374Y4956D01*
X351171Y7005D01*
X352685Y9270D01*
X353831Y11594D01*
X354331Y11478D01*
X354331Y11478D02*
G37*
G36*
X19685Y195729D02*
X334646Y195729D01*
X334688Y195737D01*
X337070Y195581D01*
X339453Y195107D01*
X341754Y194326D01*
X343933Y193252D01*
X345953Y191902D01*
X347780Y190300D01*
X349382Y188473D01*
X350732Y186453D01*
X351807Y184274D01*
X352588Y181973D01*
X353062Y179590D01*
X353218Y177208D01*
X353209Y177165D01*
X353209Y19685D01*
X353218Y19642D01*
X353062Y17260D01*
X352588Y14877D01*
X351807Y12577D01*
X350732Y10398D01*
X349382Y8377D01*
X347780Y6551D01*
X345953Y4949D01*
X343933Y3599D01*
X341754Y2524D01*
X339453Y1743D01*
X337070Y1269D01*
X334688Y1113D01*
X334646Y1122D01*
X19685Y1122D01*
X19642Y1113D01*
X17260Y1269D01*
X14877Y1743D01*
X12577Y2524D01*
X10398Y3599D01*
X8377Y4949D01*
X6551Y6551D01*
X4949Y8377D01*
X3599Y10398D01*
X2524Y12577D01*
X1743Y14877D01*
X1269Y17260D01*
X1113Y19642D01*
X1122Y19685D01*
X1122Y177165D01*
X1113Y177208D01*
X1269Y179590D01*
X1743Y181973D01*
X2524Y184274D01*
X3599Y186453D01*
X4949Y188473D01*
X6551Y190300D01*
X8377Y191902D01*
X10398Y193252D01*
X12577Y194326D01*
X14877Y195107D01*
X17260Y195581D01*
X19642Y195737D01*
X19685Y195729D01*
X19685Y195729D02*
G37*
G36*
X354331Y185373D02*
X353831Y185256D01*
X352685Y187580D01*
X351171Y189846D01*
X349374Y191894D01*
X347326Y193691D01*
X345060Y195204D01*
X342737Y196350D01*
X342853Y196850D01*
X354331Y196850D01*
X354331Y185373D01*
X354331Y185373D02*
G37*
G36*
X11594Y196350D02*
X9270Y195204D01*
X7005Y193691D01*
X4956Y191894D01*
X3160Y189846D01*
X1646Y187580D01*
X500Y185256D01*
X0Y185373D01*
X0Y196850D01*
X11478Y196850D01*
X11594Y196350D01*
X11594Y196350D02*
G37*
%LPC*%
G36*
X11811Y26664D02*
X11780Y26651D01*
X11747Y26661D01*
X10513Y26539D01*
X10454Y26508D01*
X10388Y26515D01*
X9200Y26154D01*
X9149Y26112D01*
X9083Y26106D01*
X7988Y25521D01*
X7946Y25469D01*
X7882Y25450D01*
X6923Y24663D01*
X6892Y24604D01*
X6833Y24573D01*
X6046Y23614D01*
X6027Y23550D01*
X5975Y23508D01*
X5390Y22413D01*
X5384Y22347D01*
X5342Y22296D01*
X4981Y21108D01*
X4988Y21042D01*
X4957Y20983D01*
X4835Y19749D01*
X4854Y19685D01*
X4835Y19621D01*
X4957Y18386D01*
X4988Y18328D01*
X4981Y18262D01*
X5342Y17074D01*
X5384Y17023D01*
X5390Y16957D01*
X5975Y15862D01*
X6027Y15820D01*
X6046Y15756D01*
X6833Y14797D01*
X6892Y14766D01*
X6923Y14707D01*
X7882Y13920D01*
X7946Y13901D01*
X7988Y13849D01*
X9083Y13264D01*
X9149Y13258D01*
X9200Y13216D01*
X10388Y12855D01*
X10454Y12862D01*
X10513Y12831D01*
X11747Y12709D01*
X11780Y12719D01*
X11811Y12706D01*
X11842Y12719D01*
X11875Y12709D01*
X13110Y12831D01*
X13168Y12862D01*
X13234Y12855D01*
X14422Y13216D01*
X14473Y13258D01*
X14539Y13264D01*
X15634Y13849D01*
X15676Y13901D01*
X15740Y13920D01*
X16699Y14707D01*
X16730Y14766D01*
X16789Y14797D01*
X17576Y15756D01*
X17595Y15820D01*
X17647Y15862D01*
X18232Y16957D01*
X18238Y17023D01*
X18280Y17074D01*
X18641Y18262D01*
X18634Y18328D01*
X18665Y18386D01*
X18787Y19621D01*
X18768Y19685D01*
X18787Y19749D01*
X18665Y20983D01*
X18634Y21042D01*
X18641Y21108D01*
X18280Y22296D01*
X18238Y22347D01*
X18232Y22413D01*
X17647Y23508D01*
X17595Y23550D01*
X17576Y23614D01*
X16789Y24573D01*
X16730Y24604D01*
X16699Y24663D01*
X15740Y25450D01*
X15676Y25469D01*
X15634Y25521D01*
X14539Y26106D01*
X14473Y26112D01*
X14422Y26154D01*
X13234Y26515D01*
X13168Y26508D01*
X13110Y26539D01*
X11875Y26661D01*
X11842Y26651D01*
X11811Y26664D01*
X11811Y26664D02*
G37*
G36*
X334646Y92604D02*
X333564Y92462D01*
X332556Y92044D01*
X331691Y91380D01*
X331027Y90515D01*
X330609Y89507D01*
X330467Y88425D01*
X330609Y87344D01*
X331027Y86336D01*
X331691Y85470D01*
X332556Y84806D01*
X333564Y84389D01*
X334646Y84246D01*
X335727Y84389D01*
X336735Y84806D01*
X337601Y85470D01*
X338265Y86336D01*
X338682Y87344D01*
X338825Y88425D01*
X338682Y89507D01*
X338265Y90515D01*
X337601Y91380D01*
X336735Y92044D01*
X335727Y92462D01*
X334646Y92604D01*
X334646Y92604D02*
G37*
G36*
X334646Y72604D02*
X333564Y72462D01*
X332556Y72044D01*
X331691Y71380D01*
X331027Y70515D01*
X330609Y69507D01*
X330467Y68425D01*
X330609Y67344D01*
X331027Y66336D01*
X331691Y65470D01*
X332556Y64806D01*
X333564Y64389D01*
X334646Y64246D01*
X335727Y64389D01*
X336735Y64806D01*
X337601Y65470D01*
X338265Y66336D01*
X338682Y67344D01*
X338825Y68425D01*
X338682Y69507D01*
X338265Y70515D01*
X337601Y71380D01*
X336735Y72044D01*
X335727Y72462D01*
X334646Y72604D01*
X334646Y72604D02*
G37*
G36*
X326772Y26664D02*
X326740Y26651D01*
X326708Y26661D01*
X325473Y26539D01*
X325414Y26508D01*
X325348Y26515D01*
X324161Y26154D01*
X324109Y26112D01*
X324043Y26106D01*
X322949Y25521D01*
X322907Y25469D01*
X322843Y25450D01*
X321884Y24663D01*
X321852Y24604D01*
X321794Y24573D01*
X321007Y23614D01*
X320987Y23550D01*
X320936Y23508D01*
X320351Y22413D01*
X320344Y22347D01*
X320302Y22296D01*
X319942Y21108D01*
X319949Y21042D01*
X319917Y20983D01*
X319796Y19749D01*
X319815Y19685D01*
X319796Y19621D01*
X319917Y18386D01*
X319949Y18328D01*
X319942Y18262D01*
X320302Y17074D01*
X320344Y17023D01*
X320351Y16957D01*
X320936Y15862D01*
X320987Y15820D01*
X321007Y15756D01*
X321794Y14797D01*
X321852Y14766D01*
X321884Y14707D01*
X322843Y13920D01*
X322907Y13901D01*
X322949Y13849D01*
X324043Y13264D01*
X324109Y13258D01*
X324161Y13216D01*
X325348Y12855D01*
X325414Y12862D01*
X325473Y12831D01*
X326708Y12709D01*
X326740Y12719D01*
X326772Y12706D01*
X326803Y12719D01*
X326835Y12709D01*
X328070Y12831D01*
X328129Y12862D01*
X328195Y12855D01*
X329382Y13216D01*
X329434Y13258D01*
X329500Y13264D01*
X330594Y13849D01*
X330637Y13901D01*
X330700Y13920D01*
X331659Y14707D01*
X331691Y14766D01*
X331749Y14797D01*
X332537Y15756D01*
X332556Y15820D01*
X332607Y15862D01*
X333192Y16957D01*
X333199Y17023D01*
X333241Y17074D01*
X333601Y18262D01*
X333595Y18328D01*
X333626Y18386D01*
X333748Y19621D01*
X333728Y19685D01*
X333748Y19749D01*
X333626Y20983D01*
X333595Y21042D01*
X333601Y21108D01*
X333241Y22296D01*
X333199Y22347D01*
X333192Y22413D01*
X332607Y23508D01*
X332556Y23550D01*
X332537Y23614D01*
X331749Y24573D01*
X331691Y24604D01*
X331659Y24663D01*
X330700Y25450D01*
X330637Y25469D01*
X330594Y25521D01*
X329500Y26106D01*
X329434Y26112D01*
X329382Y26154D01*
X328195Y26515D01*
X328129Y26508D01*
X328070Y26539D01*
X326835Y26661D01*
X326803Y26651D01*
X326772Y26664D01*
X326772Y26664D02*
G37*
G36*
X242736Y169000D02*
X241711Y168865D01*
X240756Y168469D01*
X239936Y167840D01*
X239306Y167020D01*
X238911Y166065D01*
X238776Y165039D01*
X238911Y164014D01*
X239306Y163059D01*
X239936Y162239D01*
X240756Y161609D01*
X240901Y161549D01*
X240901Y156416D01*
X240401Y156246D01*
X240084Y156659D01*
X239264Y157288D01*
X238309Y157684D01*
X237283Y157819D01*
X236258Y157684D01*
X235303Y157288D01*
X234483Y156659D01*
X234166Y156246D01*
X233666Y156416D01*
X233666Y161549D01*
X233811Y161609D01*
X234631Y162239D01*
X235261Y163059D01*
X235656Y164014D01*
X235791Y165039D01*
X235656Y166065D01*
X235261Y167020D01*
X234631Y167840D01*
X233811Y168469D01*
X232856Y168865D01*
X231831Y169000D01*
X230806Y168865D01*
X229850Y168469D01*
X229030Y167840D01*
X228401Y167020D01*
X228005Y166065D01*
X227870Y165039D01*
X228005Y164014D01*
X228401Y163059D01*
X229030Y162239D01*
X229850Y161609D01*
X229995Y161549D01*
X229995Y156416D01*
X229495Y156246D01*
X229179Y156659D01*
X228358Y157288D01*
X227403Y157684D01*
X226378Y157819D01*
X225353Y157684D01*
X224398Y157288D01*
X223577Y156659D01*
X223260Y156246D01*
X222760Y156416D01*
X222760Y161549D01*
X222905Y161609D01*
X223726Y162239D01*
X224355Y163059D01*
X224751Y164014D01*
X224886Y165039D01*
X224751Y166065D01*
X224355Y167020D01*
X223726Y167840D01*
X222905Y168469D01*
X221950Y168865D01*
X220925Y169000D01*
X219900Y168865D01*
X218945Y168469D01*
X218125Y167840D01*
X217495Y167020D01*
X217099Y166065D01*
X216965Y165039D01*
X217099Y164014D01*
X217495Y163059D01*
X218125Y162239D01*
X218945Y161609D01*
X219090Y161549D01*
X219090Y156416D01*
X218590Y156246D01*
X218273Y156659D01*
X217453Y157288D01*
X216497Y157684D01*
X215472Y157819D01*
X214447Y157684D01*
X213492Y157288D01*
X212672Y156659D01*
X212355Y156246D01*
X211855Y156416D01*
X211855Y161549D01*
X212000Y161609D01*
X212820Y162239D01*
X213450Y163059D01*
X213845Y164014D01*
X213980Y165039D01*
X213845Y166065D01*
X213450Y167020D01*
X212820Y167840D01*
X212000Y168469D01*
X211045Y168865D01*
X210020Y169000D01*
X208995Y168865D01*
X208039Y168469D01*
X207219Y167840D01*
X206590Y167020D01*
X206194Y166065D01*
X206059Y165039D01*
X206194Y164014D01*
X206590Y163059D01*
X207219Y162239D01*
X208039Y161609D01*
X208184Y161549D01*
X208184Y158029D01*
X207894Y157834D01*
X201240Y157834D01*
X200781Y157644D01*
X200591Y157185D01*
X200591Y152005D01*
X198509Y149924D01*
X197998Y150066D01*
X197879Y150115D01*
X197787Y150206D01*
X197658Y150206D01*
X197539Y150256D01*
X181805Y150256D01*
X181805Y159299D01*
X181825Y159449D01*
X181667Y160650D01*
X181203Y161769D01*
X180466Y162730D01*
X179505Y163467D01*
X178386Y163930D01*
X177185Y164088D01*
X175984Y163930D01*
X174865Y163467D01*
X173904Y162730D01*
X173885Y162710D01*
X173147Y161749D01*
X172684Y160630D01*
X172605Y160029D01*
X172526Y159429D01*
X172526Y159429D01*
X172526Y150256D01*
X139561Y150256D01*
X139529Y150243D01*
X139497Y150253D01*
X137776Y150083D01*
X136054Y150253D01*
X136022Y150243D01*
X135991Y150256D01*
X133598Y150256D01*
X133478Y150206D01*
X133349Y150206D01*
X133258Y150115D01*
X133139Y150066D01*
X132627Y149924D01*
X130327Y152224D01*
X130029Y152423D01*
X129678Y152492D01*
X118504Y152492D01*
X118428Y152477D01*
X118419Y152483D01*
X117717Y152623D01*
X117014Y152483D01*
X116419Y152085D01*
X116021Y151490D01*
X115881Y150787D01*
X116021Y150085D01*
X116419Y149490D01*
X117014Y149092D01*
X117717Y148952D01*
X118419Y149092D01*
X119014Y149490D01*
X119412Y150085D01*
X119526Y150657D01*
X123767Y150657D01*
X123919Y150157D01*
X123890Y150138D01*
X123715Y150066D01*
X123690Y150004D01*
X123634Y149967D01*
X123388Y149599D01*
X123228Y149665D01*
X120472Y149665D01*
X120013Y149475D01*
X119823Y149016D01*
X119823Y145473D01*
X119361Y145287D01*
X119141Y145265D01*
X113261Y151145D01*
X113824Y151878D01*
X114219Y152833D01*
X114354Y153858D01*
X114219Y154883D01*
X113824Y155839D01*
X113194Y156659D01*
X112374Y157288D01*
X111419Y157684D01*
X110394Y157819D01*
X109369Y157684D01*
X108413Y157288D01*
X107593Y156659D01*
X107276Y156246D01*
X106776Y156416D01*
X106776Y161549D01*
X106921Y161609D01*
X107741Y162239D01*
X108371Y163059D01*
X108767Y164014D01*
X108902Y165039D01*
X108767Y166065D01*
X108371Y167020D01*
X107741Y167840D01*
X106921Y168469D01*
X105966Y168865D01*
X104941Y169000D01*
X103916Y168865D01*
X102961Y168469D01*
X102140Y167840D01*
X101511Y167020D01*
X101115Y166065D01*
X100980Y165039D01*
X101115Y164014D01*
X101511Y163059D01*
X102140Y162239D01*
X102961Y161609D01*
X103106Y161549D01*
X103106Y156416D01*
X102606Y156246D01*
X102289Y156659D01*
X101469Y157288D01*
X100513Y157684D01*
X99488Y157819D01*
X98463Y157684D01*
X97508Y157288D01*
X96688Y156659D01*
X96371Y156246D01*
X95871Y156416D01*
X95871Y161549D01*
X96016Y161609D01*
X96836Y162239D01*
X97465Y163059D01*
X97861Y164014D01*
X97996Y165039D01*
X97861Y166065D01*
X97465Y167020D01*
X96836Y167840D01*
X96016Y168469D01*
X95060Y168865D01*
X94035Y169000D01*
X93010Y168865D01*
X92055Y168469D01*
X91235Y167840D01*
X90605Y167020D01*
X90210Y166065D01*
X90075Y165039D01*
X90210Y164014D01*
X90605Y163059D01*
X91235Y162239D01*
X92055Y161609D01*
X92200Y161549D01*
X92200Y156416D01*
X91700Y156246D01*
X91383Y156659D01*
X90563Y157288D01*
X89608Y157684D01*
X88583Y157819D01*
X87558Y157684D01*
X86602Y157288D01*
X85782Y156659D01*
X85465Y156246D01*
X84965Y156416D01*
X84965Y161549D01*
X85110Y161609D01*
X85931Y162239D01*
X86560Y163059D01*
X86956Y164014D01*
X87091Y165039D01*
X86956Y166065D01*
X86560Y167020D01*
X85931Y167840D01*
X85110Y168469D01*
X84155Y168865D01*
X83130Y169000D01*
X82105Y168865D01*
X81150Y168469D01*
X80329Y167840D01*
X79700Y167020D01*
X79304Y166065D01*
X79169Y165039D01*
X79304Y164014D01*
X79700Y163059D01*
X80329Y162239D01*
X81150Y161609D01*
X81295Y161549D01*
X81295Y156416D01*
X80795Y156246D01*
X80478Y156659D01*
X79658Y157288D01*
X78702Y157684D01*
X77677Y157819D01*
X76652Y157684D01*
X75697Y157288D01*
X74877Y156659D01*
X74560Y156246D01*
X74060Y156416D01*
X74060Y161549D01*
X74205Y161609D01*
X75025Y162239D01*
X75654Y163059D01*
X76050Y164014D01*
X76185Y165039D01*
X76050Y166065D01*
X75654Y167020D01*
X75025Y167840D01*
X74205Y168469D01*
X73250Y168865D01*
X72224Y169000D01*
X71199Y168865D01*
X70244Y168469D01*
X69424Y167840D01*
X68794Y167020D01*
X68399Y166065D01*
X68264Y165039D01*
X68399Y164014D01*
X68794Y163059D01*
X69424Y162239D01*
X70244Y161609D01*
X70389Y161549D01*
X70389Y156416D01*
X69889Y156246D01*
X69572Y156659D01*
X68752Y157288D01*
X67797Y157684D01*
X66772Y157819D01*
X65747Y157684D01*
X64791Y157288D01*
X63971Y156659D01*
X63342Y155839D01*
X62946Y154883D01*
X62811Y153858D01*
X62946Y152833D01*
X63006Y152688D01*
X54471Y144153D01*
X53543Y144153D01*
X53084Y143963D01*
X52894Y143504D01*
X52894Y143106D01*
X52432Y142845D01*
X52313Y142796D01*
X52183Y142796D01*
X52092Y142704D01*
X51973Y142655D01*
X43635Y134318D01*
X43445Y133858D01*
X43445Y129009D01*
X31037Y116601D01*
X30847Y116142D01*
X30847Y114173D01*
X30847Y86614D01*
X30847Y82677D01*
X31037Y82218D01*
X46785Y66470D01*
X46785Y66470D01*
X51317Y61938D01*
X51125Y61476D01*
X49409Y61476D01*
X48950Y61286D01*
X48760Y60827D01*
X48760Y59643D01*
X48281Y59441D01*
X48023Y59677D01*
X48095Y60039D01*
X47955Y60742D01*
X47558Y61337D01*
X46962Y61735D01*
X46260Y61875D01*
X45557Y61735D01*
X44962Y61337D01*
X44564Y60742D01*
X44425Y60039D01*
X44564Y59337D01*
X44962Y58742D01*
X45557Y58344D01*
X46260Y58204D01*
X46708Y58293D01*
X47311Y57691D01*
X47311Y55527D01*
X46931Y55273D01*
X46533Y54677D01*
X46393Y53975D01*
X46533Y53272D01*
X46931Y52677D01*
X47526Y52279D01*
X48228Y52140D01*
X48931Y52279D01*
X49526Y52677D01*
X49924Y53272D01*
X50064Y53975D01*
X49924Y54677D01*
X49526Y55273D01*
X49146Y55527D01*
X49146Y56852D01*
X49409Y57028D01*
X52953Y57028D01*
X53412Y57218D01*
X53602Y57677D01*
X53602Y60375D01*
X56134Y62907D01*
X56634Y62700D01*
X56634Y61417D01*
X56824Y60958D01*
X57220Y60794D01*
X57220Y57087D01*
X57360Y56384D01*
X57757Y55789D01*
X64661Y48886D01*
X64685Y48778D01*
X64592Y48253D01*
X63951Y47761D01*
X63322Y46941D01*
X62926Y45986D01*
X62791Y44961D01*
X62926Y43936D01*
X63322Y42980D01*
X63951Y42160D01*
X64772Y41531D01*
X65727Y41135D01*
X66752Y41000D01*
X67777Y41135D01*
X68732Y41531D01*
X69553Y42160D01*
X69889Y42599D01*
X70389Y42429D01*
X70389Y37278D01*
X70224Y37210D01*
X69404Y36580D01*
X68775Y35760D01*
X68379Y34805D01*
X68244Y33779D01*
X68379Y32754D01*
X68775Y31799D01*
X69404Y30979D01*
X70224Y30349D01*
X71180Y29954D01*
X72205Y29819D01*
X73230Y29954D01*
X74185Y30349D01*
X75005Y30979D01*
X75635Y31799D01*
X76030Y32754D01*
X76165Y33779D01*
X76030Y34805D01*
X75635Y35760D01*
X75005Y36580D01*
X74185Y37210D01*
X74060Y37262D01*
X74060Y42378D01*
X74560Y42547D01*
X74857Y42160D01*
X75677Y41531D01*
X76632Y41135D01*
X77658Y41000D01*
X78683Y41135D01*
X79638Y41531D01*
X80458Y42160D01*
X80795Y42599D01*
X81295Y42429D01*
X81295Y37278D01*
X81130Y37210D01*
X80310Y36580D01*
X79680Y35760D01*
X79285Y34805D01*
X79150Y33779D01*
X79285Y32754D01*
X79680Y31799D01*
X80310Y30979D01*
X81130Y30349D01*
X82085Y29954D01*
X83110Y29819D01*
X84135Y29954D01*
X85091Y30349D01*
X85911Y30979D01*
X86540Y31799D01*
X86936Y32754D01*
X87071Y33779D01*
X86936Y34805D01*
X86540Y35760D01*
X85911Y36580D01*
X85091Y37210D01*
X84965Y37262D01*
X84965Y42378D01*
X85465Y42547D01*
X85762Y42160D01*
X86583Y41531D01*
X87538Y41135D01*
X88563Y41000D01*
X89588Y41135D01*
X90543Y41531D01*
X91364Y42160D01*
X91700Y42599D01*
X92200Y42429D01*
X92200Y37278D01*
X92035Y37210D01*
X91215Y36580D01*
X90586Y35760D01*
X90190Y34805D01*
X90055Y33779D01*
X90190Y32754D01*
X90586Y31799D01*
X91215Y30979D01*
X92035Y30349D01*
X92991Y29954D01*
X94016Y29819D01*
X95041Y29954D01*
X95996Y30349D01*
X96816Y30979D01*
X97446Y31799D01*
X97841Y32754D01*
X97976Y33779D01*
X97841Y34805D01*
X97446Y35760D01*
X96816Y36580D01*
X95996Y37210D01*
X95871Y37262D01*
X95871Y42378D01*
X96371Y42547D01*
X96668Y42160D01*
X97488Y41531D01*
X98443Y41135D01*
X99468Y41000D01*
X100494Y41135D01*
X101449Y41531D01*
X102269Y42160D01*
X102586Y42573D01*
X103086Y42403D01*
X103086Y37270D01*
X102941Y37210D01*
X102121Y36580D01*
X101491Y35760D01*
X101096Y34805D01*
X100961Y33779D01*
X101096Y32754D01*
X101491Y31799D01*
X102121Y30979D01*
X102941Y30349D01*
X103896Y29954D01*
X104921Y29819D01*
X105946Y29954D01*
X106902Y30349D01*
X107722Y30979D01*
X108351Y31799D01*
X108747Y32754D01*
X108882Y33779D01*
X108747Y34805D01*
X108351Y35760D01*
X107722Y36580D01*
X106902Y37210D01*
X106756Y37270D01*
X106756Y40790D01*
X107047Y40984D01*
X113701Y40984D01*
X114160Y41175D01*
X114350Y41634D01*
X114350Y47624D01*
X114808Y47717D01*
X114840Y47710D01*
X114861Y47691D01*
X115238Y47128D01*
X115833Y46730D01*
X116535Y46590D01*
X117238Y46730D01*
X117833Y47128D01*
X118231Y47723D01*
X118371Y48425D01*
X118310Y48730D01*
X118620Y49021D01*
X119099Y48867D01*
X119171Y48510D01*
X119568Y47915D01*
X120164Y47517D01*
X120866Y47377D01*
X121314Y47466D01*
X121439Y47056D01*
X121540Y46932D01*
X121601Y46785D01*
X121692Y46747D01*
X121754Y46671D01*
X121913Y46656D01*
X122060Y46595D01*
X131634Y46595D01*
X131837Y46679D01*
X132046Y46742D01*
X132553Y47157D01*
X134172Y48023D01*
X135929Y48556D01*
X137756Y48736D01*
X139583Y48556D01*
X141340Y48023D01*
X142959Y47157D01*
X143465Y46742D01*
X143675Y46679D01*
X143877Y46595D01*
X147901Y46595D01*
X147901Y25591D01*
X147971Y25239D01*
X148170Y24942D01*
X154298Y18813D01*
X154304Y18729D01*
X154152Y18253D01*
X153872Y18136D01*
X153681Y17677D01*
X153681Y10591D01*
X153872Y10131D01*
X154331Y9941D01*
X161417Y9941D01*
X161876Y10131D01*
X162067Y10591D01*
X162067Y13216D01*
X162165Y13216D01*
X162516Y13286D01*
X162814Y13485D01*
X165216Y15887D01*
X165415Y16184D01*
X165485Y16535D01*
X165485Y31102D01*
X165415Y31453D01*
X165216Y31751D01*
X163910Y33057D01*
X163910Y46595D01*
X170680Y46595D01*
X170882Y46679D01*
X171092Y46742D01*
X171982Y47472D01*
X172097Y47534D01*
X172526Y47277D01*
X172526Y39705D01*
X172526Y39705D01*
X172605Y39104D01*
X172684Y38504D01*
X173147Y37385D01*
X173885Y36424D01*
X173904Y36404D01*
X174865Y35667D01*
X175984Y35203D01*
X177185Y35045D01*
X178386Y35203D01*
X179505Y35667D01*
X180466Y36404D01*
X181203Y37365D01*
X181667Y38484D01*
X181825Y39685D01*
X181805Y39834D01*
X181805Y47298D01*
X182234Y47555D01*
X182388Y47472D01*
X183278Y46742D01*
X183488Y46679D01*
X183690Y46595D01*
X184935Y46595D01*
X185054Y46644D01*
X185183Y46644D01*
X185275Y46735D01*
X185394Y46785D01*
X185905Y46927D01*
X205941Y26891D01*
X206238Y26692D01*
X206590Y26623D01*
X245379Y26623D01*
X245730Y26692D01*
X246028Y26891D01*
X270542Y51406D01*
X271004Y51214D01*
X271004Y49438D01*
X271023Y49391D01*
X271011Y49343D01*
X271116Y49167D01*
X271194Y48979D01*
X271241Y48959D01*
X271267Y48916D01*
X271767Y48546D01*
X271815Y48533D01*
X271847Y48494D01*
X272051Y48474D01*
X272249Y48425D01*
X272292Y48451D01*
X272342Y48446D01*
X273744Y48871D01*
X275571Y49051D01*
X277398Y48871D01*
X279155Y48338D01*
X280774Y47472D01*
X281664Y46742D01*
X281874Y46679D01*
X282076Y46595D01*
X314961Y46595D01*
X315420Y46785D01*
X315610Y47244D01*
X315610Y82408D01*
X330978Y97776D01*
X338583Y97776D01*
X339042Y97966D01*
X342979Y101903D01*
X343169Y102362D01*
X343169Y110236D01*
X342979Y110696D01*
X335105Y118570D01*
X334646Y118760D01*
X296193Y118760D01*
X296193Y122202D01*
X296573Y122456D01*
X296971Y123051D01*
X297111Y123753D01*
X296971Y124456D01*
X296573Y125051D01*
X295978Y125449D01*
X295395Y125565D01*
X295348Y126048D01*
X295245Y126241D01*
X295161Y126444D01*
X295129Y126456D01*
X295113Y126486D01*
X294904Y126550D01*
X294702Y126634D01*
X283734Y126634D01*
X276050Y134318D01*
X270571Y139796D01*
X270509Y139822D01*
X270472Y139877D01*
X270287Y139914D01*
X270138Y139976D01*
X270138Y142913D01*
X269947Y143373D01*
X269488Y143563D01*
X268496Y143563D01*
X268365Y143759D01*
X265610Y146514D01*
X265610Y149016D01*
X265420Y149475D01*
X264961Y149665D01*
X262205Y149665D01*
X261746Y149475D01*
X261555Y149016D01*
X261555Y145473D01*
X261627Y145299D01*
X261203Y145016D01*
X259705Y146514D01*
X259705Y149016D01*
X259514Y149475D01*
X259055Y149665D01*
X256299Y149665D01*
X256139Y149599D01*
X255893Y149967D01*
X255838Y150004D01*
X255812Y150066D01*
X255637Y150138D01*
X255480Y150243D01*
X255415Y150230D01*
X255353Y150256D01*
X250766Y150256D01*
X250596Y150756D01*
X250990Y151058D01*
X251619Y151878D01*
X252015Y152833D01*
X252150Y153858D01*
X252015Y154883D01*
X251619Y155839D01*
X250990Y156659D01*
X250169Y157288D01*
X249214Y157684D01*
X248189Y157819D01*
X247164Y157684D01*
X246209Y157288D01*
X245388Y156659D01*
X245072Y156246D01*
X244571Y156416D01*
X244571Y161549D01*
X244717Y161609D01*
X245537Y162239D01*
X246166Y163059D01*
X246562Y164014D01*
X246697Y165039D01*
X246562Y166065D01*
X246166Y167020D01*
X245537Y167840D01*
X244717Y168469D01*
X243761Y168865D01*
X242736Y169000D01*
X242736Y169000D02*
G37*
G36*
X11811Y184144D02*
X11780Y184132D01*
X11747Y184141D01*
X10513Y184020D01*
X10454Y183988D01*
X10388Y183995D01*
X9200Y183635D01*
X9149Y183592D01*
X9083Y183586D01*
X7988Y183001D01*
X7946Y182950D01*
X7882Y182930D01*
X6923Y182143D01*
X6892Y182085D01*
X6833Y182053D01*
X6046Y181094D01*
X6027Y181030D01*
X5975Y180988D01*
X5390Y179894D01*
X5384Y179828D01*
X5342Y179776D01*
X4981Y178589D01*
X4988Y178523D01*
X4957Y178464D01*
X4835Y177229D01*
X4854Y177165D01*
X4835Y177102D01*
X4957Y175867D01*
X4988Y175808D01*
X4981Y175742D01*
X5342Y174555D01*
X5384Y174503D01*
X5390Y174437D01*
X5975Y173343D01*
X6027Y173300D01*
X6046Y173237D01*
X6833Y172278D01*
X6892Y172246D01*
X6923Y172188D01*
X7882Y171400D01*
X7946Y171381D01*
X7988Y171330D01*
X9083Y170745D01*
X9149Y170738D01*
X9200Y170696D01*
X10388Y170336D01*
X10454Y170342D01*
X10513Y170311D01*
X11747Y170189D01*
X11780Y170199D01*
X11811Y170186D01*
X11842Y170199D01*
X11875Y170189D01*
X13110Y170311D01*
X13168Y170342D01*
X13234Y170336D01*
X14422Y170696D01*
X14473Y170738D01*
X14539Y170745D01*
X15634Y171330D01*
X15676Y171381D01*
X15740Y171400D01*
X16699Y172188D01*
X16730Y172246D01*
X16789Y172278D01*
X17576Y173237D01*
X17595Y173300D01*
X17647Y173343D01*
X18232Y174437D01*
X18238Y174503D01*
X18280Y174555D01*
X18641Y175742D01*
X18634Y175808D01*
X18665Y175867D01*
X18787Y177102D01*
X18768Y177165D01*
X18787Y177229D01*
X18665Y178464D01*
X18634Y178523D01*
X18641Y178589D01*
X18280Y179776D01*
X18238Y179828D01*
X18232Y179894D01*
X17647Y180988D01*
X17595Y181030D01*
X17576Y181094D01*
X16789Y182053D01*
X16730Y182085D01*
X16699Y182143D01*
X15740Y182930D01*
X15676Y182950D01*
X15634Y183001D01*
X14539Y183586D01*
X14473Y183592D01*
X14422Y183635D01*
X13234Y183995D01*
X13168Y183988D01*
X13110Y184020D01*
X11875Y184141D01*
X11842Y184132D01*
X11811Y184144D01*
X11811Y184144D02*
G37*
G36*
X39390Y164088D02*
X38189Y163930D01*
X37070Y163467D01*
X36109Y162730D01*
X36089Y162710D01*
X35352Y161749D01*
X34888Y160630D01*
X34730Y159429D01*
X34888Y158228D01*
X35352Y157109D01*
X36089Y156148D01*
X37050Y155411D01*
X38169Y154947D01*
X39370Y154789D01*
X40571Y154947D01*
X41690Y155411D01*
X42651Y156148D01*
X42671Y156168D01*
X43408Y157129D01*
X43871Y158248D01*
X44030Y159449D01*
X43871Y160650D01*
X43408Y161769D01*
X42671Y162730D01*
X41710Y163467D01*
X40591Y163930D01*
X39390Y164088D01*
X39390Y164088D02*
G37*
G36*
X10630Y159193D02*
X3543Y159193D01*
X3084Y159002D01*
X2894Y158543D01*
X2894Y151457D01*
X3084Y150997D01*
X3543Y150807D01*
X4623Y150807D01*
X4659Y150722D01*
X4798Y150664D01*
X4798Y150123D01*
X4659Y150066D01*
X4469Y149606D01*
X4469Y148214D01*
X4132Y147955D01*
X3467Y147090D01*
X3050Y146082D01*
X2908Y145000D01*
X3050Y143918D01*
X3467Y142911D01*
X4132Y142045D01*
X4997Y141381D01*
X6005Y140963D01*
X7087Y140821D01*
X8168Y140963D01*
X9176Y141381D01*
X10042Y142045D01*
X10706Y142911D01*
X11123Y143918D01*
X11266Y145000D01*
X11123Y146082D01*
X10706Y147090D01*
X10042Y147955D01*
X9705Y148214D01*
X9705Y149606D01*
X9514Y150066D01*
X9581Y150579D01*
X9816Y150807D01*
X10630Y150807D01*
X11089Y150997D01*
X11279Y151457D01*
X11279Y158543D01*
X11089Y159002D01*
X10630Y159193D01*
X10630Y159193D02*
G37*
G36*
X326772Y184144D02*
X326740Y184132D01*
X326708Y184141D01*
X325473Y184020D01*
X325414Y183988D01*
X325348Y183995D01*
X324161Y183635D01*
X324109Y183592D01*
X324043Y183586D01*
X322949Y183001D01*
X322907Y182950D01*
X322843Y182930D01*
X321884Y182143D01*
X321852Y182085D01*
X321794Y182053D01*
X321007Y181094D01*
X320987Y181030D01*
X320936Y180988D01*
X320351Y179894D01*
X320344Y179828D01*
X320302Y179776D01*
X319942Y178589D01*
X319949Y178523D01*
X319917Y178464D01*
X319796Y177229D01*
X319815Y177165D01*
X319796Y177102D01*
X319917Y175867D01*
X319949Y175808D01*
X319942Y175742D01*
X320302Y174555D01*
X320344Y174503D01*
X320351Y174437D01*
X320936Y173343D01*
X320987Y173300D01*
X321007Y173237D01*
X321794Y172278D01*
X321852Y172246D01*
X321884Y172188D01*
X322843Y171400D01*
X322907Y171381D01*
X322949Y171330D01*
X324043Y170745D01*
X324109Y170738D01*
X324161Y170696D01*
X325348Y170336D01*
X325414Y170342D01*
X325473Y170311D01*
X326708Y170189D01*
X326740Y170199D01*
X326772Y170186D01*
X326803Y170199D01*
X326835Y170189D01*
X328070Y170311D01*
X328129Y170342D01*
X328195Y170336D01*
X329382Y170696D01*
X329434Y170738D01*
X329500Y170745D01*
X330594Y171330D01*
X330637Y171381D01*
X330700Y171400D01*
X331659Y172188D01*
X331691Y172246D01*
X331749Y172278D01*
X332537Y173237D01*
X332556Y173300D01*
X332607Y173343D01*
X333192Y174437D01*
X333199Y174503D01*
X333241Y174555D01*
X333601Y175742D01*
X333595Y175808D01*
X333626Y175867D01*
X333748Y177102D01*
X333728Y177165D01*
X333748Y177229D01*
X333626Y178464D01*
X333595Y178523D01*
X333601Y178589D01*
X333241Y179776D01*
X333199Y179828D01*
X333192Y179894D01*
X332607Y180988D01*
X332556Y181030D01*
X332537Y181094D01*
X331749Y182053D01*
X331691Y182085D01*
X331659Y182143D01*
X330700Y182930D01*
X330637Y182950D01*
X330594Y183001D01*
X329500Y183586D01*
X329434Y183592D01*
X329382Y183635D01*
X328195Y183995D01*
X328129Y183988D01*
X328070Y184020D01*
X326835Y184141D01*
X326803Y184132D01*
X326772Y184144D01*
X326772Y184144D02*
G37*
%LPD*%
G36*
X191602Y56763D02*
X191602Y54134D01*
X191672Y53783D01*
X191871Y53485D01*
X193051Y52305D01*
X193051Y49803D01*
X193242Y49344D01*
X193701Y49154D01*
X196457Y49154D01*
X196916Y49344D01*
X197106Y49803D01*
X197106Y52741D01*
X197606Y52948D01*
X201901Y48653D01*
X201868Y48154D01*
X201766Y48076D01*
X201137Y47256D01*
X201132Y47244D01*
X189880Y47244D01*
X188433Y48692D01*
X188624Y49154D01*
X190551Y49154D01*
X191010Y49344D01*
X191201Y49803D01*
X191201Y53346D01*
X191010Y53806D01*
X190551Y53996D01*
X189894Y53996D01*
X189894Y56831D01*
X190748Y56831D01*
X191102Y56977D01*
X191602Y56763D01*
X191602Y56763D02*
G37*
G36*
X64700Y70194D02*
X64700Y55512D01*
X64840Y54809D01*
X65238Y54214D01*
X70389Y49063D01*
X70389Y47388D01*
X69889Y47323D01*
X69553Y47761D01*
X68732Y48391D01*
X68607Y48443D01*
X68607Y49370D01*
X68467Y50072D01*
X68069Y50668D01*
X60890Y57847D01*
X60890Y60794D01*
X61286Y60958D01*
X61476Y61417D01*
X61476Y64567D01*
X61286Y65026D01*
X60827Y65216D01*
X57284Y65216D01*
X56823Y65567D01*
X56823Y76165D01*
X57284Y76516D01*
X58378Y76516D01*
X64700Y70194D01*
X64700Y70194D02*
G37*
G36*
X143820Y66394D02*
X143820Y63561D01*
X143802Y63535D01*
X143616Y62598D01*
X143802Y61662D01*
X144333Y60868D01*
X145127Y60338D01*
X146063Y60151D01*
X146999Y60338D01*
X147401Y60606D01*
X147901Y60339D01*
X147901Y47244D01*
X143877Y47244D01*
X143322Y47700D01*
X141590Y48626D01*
X139710Y49196D01*
X137756Y49388D01*
X135801Y49196D01*
X133922Y48626D01*
X132190Y47700D01*
X131634Y47244D01*
X122060Y47244D01*
X121908Y47744D01*
X122164Y47915D01*
X122562Y48510D01*
X122701Y49213D01*
X122612Y49661D01*
X133082Y60130D01*
X133281Y60428D01*
X133350Y60779D01*
X133350Y65219D01*
X133806Y65640D01*
X134135Y65631D01*
X134731Y65233D01*
X135121Y65156D01*
X136443Y63834D01*
X136353Y63386D01*
X136444Y62931D01*
X136259Y62546D01*
X136072Y62436D01*
X135518Y62326D01*
X134923Y61928D01*
X134525Y61332D01*
X134385Y60630D01*
X134525Y59928D01*
X134923Y59332D01*
X135518Y58934D01*
X136221Y58795D01*
X136923Y58934D01*
X137518Y59332D01*
X137772Y59712D01*
X138403Y59712D01*
X138754Y59782D01*
X139052Y59981D01*
X140938Y61867D01*
X141137Y62165D01*
X141206Y62516D01*
X141206Y64256D01*
X141137Y64607D01*
X140938Y64905D01*
X139713Y66130D01*
X139762Y66734D01*
X139880Y66812D01*
X140278Y67408D01*
X140418Y68110D01*
X140278Y68812D01*
X140274Y68818D01*
X140520Y69321D01*
X140855Y69358D01*
X143820Y66394D01*
X143820Y66394D02*
G37*
G36*
X211221Y60571D02*
X211878Y60571D01*
X211878Y59646D01*
X211947Y59294D01*
X212146Y58997D01*
X212237Y58906D01*
X212148Y58458D01*
X212288Y57756D01*
X212685Y57160D01*
X213281Y56762D01*
X213983Y56623D01*
X214311Y56353D01*
X214311Y53347D01*
X214501Y52887D01*
X214961Y52697D01*
X216361Y52697D01*
X219090Y49968D01*
X219090Y47833D01*
X218590Y47663D01*
X218273Y48076D01*
X217453Y48706D01*
X216976Y48903D01*
X216770Y49211D01*
X210497Y55485D01*
X210497Y60373D01*
X210997Y60664D01*
X211221Y60571D01*
X211221Y60571D02*
G37*
G36*
X182922Y68930D02*
X182922Y50290D01*
X182992Y49939D01*
X183191Y49641D01*
X185126Y47706D01*
X184935Y47244D01*
X183690Y47244D01*
X182751Y48015D01*
X181805Y48520D01*
X181805Y64961D01*
X181647Y66162D01*
X181183Y67281D01*
X180446Y68241D01*
X179485Y68979D01*
X178366Y69442D01*
X177165Y69600D01*
X175964Y69442D01*
X174846Y68979D01*
X173885Y68241D01*
X173147Y67281D01*
X172684Y66162D01*
X172526Y64961D01*
X172526Y48500D01*
X171619Y48015D01*
X170680Y47244D01*
X163910Y47244D01*
X163910Y54738D01*
X170333Y61162D01*
X170532Y61459D01*
X170602Y61810D01*
X170602Y72358D01*
X170866Y72574D01*
X171569Y72714D01*
X172164Y73112D01*
X172562Y73707D01*
X172701Y74410D01*
X172566Y75092D01*
X172557Y75181D01*
X172820Y75592D01*
X176260Y75592D01*
X182922Y68930D01*
X182922Y68930D02*
G37*
G36*
X223577Y42475D02*
X224398Y41846D01*
X225353Y41450D01*
X226378Y41315D01*
X227403Y41450D01*
X228358Y41846D01*
X229179Y42475D01*
X229495Y42888D01*
X229995Y42718D01*
X229995Y37585D01*
X229850Y37525D01*
X229030Y36895D01*
X228401Y36075D01*
X228005Y35120D01*
X227870Y34095D01*
X228005Y33069D01*
X228401Y32114D01*
X229030Y31294D01*
X229850Y30665D01*
X230806Y30269D01*
X231649Y30158D01*
X231616Y29658D01*
X221140Y29658D01*
X221107Y30158D01*
X221950Y30269D01*
X222905Y30665D01*
X223726Y31294D01*
X224355Y32114D01*
X224751Y33069D01*
X224886Y34095D01*
X224751Y35120D01*
X224355Y36075D01*
X223726Y36895D01*
X222905Y37525D01*
X222760Y37585D01*
X222760Y42718D01*
X223260Y42888D01*
X223577Y42475D01*
X223577Y42475D02*
G37*
G36*
X212042Y43295D02*
X212672Y42475D01*
X213492Y41846D01*
X214447Y41450D01*
X215472Y41315D01*
X216497Y41450D01*
X217453Y41846D01*
X218273Y42475D01*
X218590Y42888D01*
X219090Y42718D01*
X219090Y37585D01*
X218945Y37525D01*
X218125Y36895D01*
X217495Y36075D01*
X217099Y35120D01*
X216965Y34095D01*
X217099Y33069D01*
X217495Y32114D01*
X218125Y31294D01*
X218945Y30665D01*
X219900Y30269D01*
X220743Y30158D01*
X220710Y29658D01*
X210234Y29658D01*
X210202Y30158D01*
X211045Y30269D01*
X212000Y30665D01*
X212820Y31294D01*
X213450Y32114D01*
X213845Y33069D01*
X213980Y34095D01*
X213845Y35120D01*
X213450Y36075D01*
X212820Y36895D01*
X212000Y37525D01*
X211529Y37720D01*
X211529Y43228D01*
X212029Y43328D01*
X212042Y43295D01*
X212042Y43295D02*
G37*
G36*
X200714Y46095D02*
X200606Y45276D01*
X200741Y44251D01*
X201137Y43295D01*
X201766Y42475D01*
X202587Y41846D01*
X203542Y41450D01*
X204567Y41315D01*
X205592Y41450D01*
X206547Y41846D01*
X207358Y42468D01*
X207546Y42443D01*
X207858Y42337D01*
X207858Y37386D01*
X207219Y36895D01*
X206590Y36075D01*
X206194Y35120D01*
X206059Y34095D01*
X206194Y33069D01*
X206590Y32114D01*
X207219Y31294D01*
X208039Y30665D01*
X208995Y30269D01*
X209838Y30158D01*
X209805Y29658D01*
X207467Y29658D01*
X190992Y46133D01*
X191183Y46595D01*
X200378Y46595D01*
X200714Y46095D01*
X200714Y46095D02*
G37*
G36*
X240901Y42718D02*
X240901Y37585D01*
X240756Y37525D01*
X239936Y36895D01*
X239306Y36075D01*
X238911Y35120D01*
X238776Y34095D01*
X238911Y33069D01*
X239306Y32114D01*
X239936Y31294D01*
X240756Y30665D01*
X241711Y30269D01*
X242554Y30158D01*
X242522Y29658D01*
X232046Y29658D01*
X232013Y30158D01*
X232856Y30269D01*
X233811Y30665D01*
X234631Y31294D01*
X235261Y32114D01*
X235656Y33069D01*
X235791Y34095D01*
X235656Y35120D01*
X235261Y36075D01*
X234631Y36895D01*
X233811Y37525D01*
X233666Y37585D01*
X233666Y42718D01*
X234166Y42888D01*
X234483Y42475D01*
X235303Y41846D01*
X236258Y41450D01*
X237283Y41315D01*
X238309Y41450D01*
X239264Y41846D01*
X240084Y42475D01*
X240401Y42888D01*
X240901Y42718D01*
X240901Y42718D02*
G37*
G36*
X154201Y46095D02*
X153837Y45215D01*
X153695Y44134D01*
X153837Y43052D01*
X154255Y42044D01*
X154919Y41179D01*
X155784Y40515D01*
X156792Y40097D01*
X157874Y39955D01*
X158956Y40097D01*
X159964Y40515D01*
X160829Y41179D01*
X161493Y42044D01*
X161574Y42241D01*
X162074Y42141D01*
X162074Y36127D01*
X161574Y36027D01*
X161493Y36223D01*
X160829Y37089D01*
X159964Y37753D01*
X158956Y38170D01*
X157874Y38313D01*
X156792Y38170D01*
X155784Y37753D01*
X154919Y37089D01*
X154255Y36223D01*
X153837Y35215D01*
X153695Y34134D01*
X153837Y33052D01*
X154255Y32044D01*
X154919Y31179D01*
X155784Y30515D01*
X156792Y30097D01*
X157874Y29955D01*
X158956Y30097D01*
X159964Y30515D01*
X160095Y30615D01*
X162074Y28636D01*
X162074Y26127D01*
X161574Y26027D01*
X161493Y26223D01*
X160829Y27089D01*
X159964Y27753D01*
X158956Y28170D01*
X157874Y28313D01*
X156792Y28170D01*
X155784Y27753D01*
X155653Y27652D01*
X150936Y32369D01*
X150936Y46595D01*
X153973Y46595D01*
X154201Y46095D01*
X154201Y46095D02*
G37*
G36*
X260794Y46574D02*
X260977Y46133D01*
X246263Y31419D01*
X245886Y31750D01*
X246166Y32114D01*
X246562Y33069D01*
X246697Y34095D01*
X246562Y35120D01*
X246166Y36075D01*
X245537Y36895D01*
X244717Y37525D01*
X244571Y37585D01*
X244571Y41105D01*
X244862Y41299D01*
X251516Y41299D01*
X251975Y41490D01*
X252165Y41949D01*
X252165Y43440D01*
X254724Y43440D01*
X255427Y43580D01*
X256022Y43978D01*
X258442Y46398D01*
X259842Y46398D01*
X260302Y46588D01*
X260492Y46595D01*
X260648Y46595D01*
X260794Y46574D01*
X260794Y46574D02*
G37*
G36*
X255687Y149106D02*
X255650Y149016D01*
X255650Y145473D01*
X255840Y145013D01*
X256299Y144823D01*
X258801Y144823D01*
X263256Y140368D01*
X263256Y136994D01*
X262764Y136502D01*
X262264Y136709D01*
X262264Y139173D01*
X262073Y139632D01*
X261614Y139823D01*
X259229Y139823D01*
X250024Y149028D01*
X250024Y149606D01*
X255353Y149606D01*
X255687Y149106D01*
X255687Y149106D02*
G37*
G36*
X103219Y149606D02*
X103245Y149475D01*
X103643Y148879D01*
X109188Y143334D01*
X109188Y129134D01*
X109328Y128431D01*
X109726Y127836D01*
X115689Y121873D01*
X115689Y120472D01*
X115879Y120013D01*
X116339Y119823D01*
X119882Y119823D01*
X120341Y120013D01*
X120531Y120472D01*
X120531Y123622D01*
X120341Y124081D01*
X119882Y124272D01*
X118481Y124272D01*
X113383Y129370D01*
X113666Y129794D01*
X113976Y129666D01*
X116478Y129666D01*
X121005Y125138D01*
X121302Y124940D01*
X121654Y124870D01*
X123563Y124870D01*
X123563Y124213D01*
X123753Y123753D01*
X124213Y123563D01*
X127568Y123563D01*
X127858Y123130D01*
X127865Y123101D01*
X127776Y122965D01*
X124409Y122965D01*
X124058Y122895D01*
X123761Y122696D01*
X121792Y120728D01*
X121593Y120430D01*
X121523Y120079D01*
X121523Y111010D01*
X121031Y110518D01*
X120531Y110725D01*
X120531Y113976D01*
X120341Y114436D01*
X119882Y114626D01*
X119422Y114626D01*
X119422Y114961D01*
X119352Y115312D01*
X119153Y115610D01*
X112460Y122302D01*
X112162Y122501D01*
X111811Y122571D01*
X105498Y122571D01*
X105006Y123063D01*
X105213Y123563D01*
X107874Y123563D01*
X108333Y123753D01*
X108523Y124213D01*
X108523Y127756D01*
X108333Y128215D01*
X108134Y128297D01*
X108134Y142520D01*
X107995Y143222D01*
X107597Y143817D01*
X102270Y149144D01*
X102461Y149606D01*
X103219Y149606D01*
X103219Y149606D02*
G37*
G36*
X210834Y140908D02*
X210763Y140551D01*
X210763Y139993D01*
X210367Y139829D01*
X210177Y139370D01*
X210177Y136221D01*
X210367Y135761D01*
X210827Y135571D01*
X211716Y135571D01*
X211907Y135214D01*
X211937Y135071D01*
X211807Y134421D01*
X211947Y133718D01*
X212263Y133246D01*
X211950Y132932D01*
X211751Y132635D01*
X211681Y132284D01*
X211681Y128012D01*
X210827Y128012D01*
X210368Y127821D01*
X210177Y127362D01*
X210177Y124213D01*
X210368Y123753D01*
X210456Y123717D01*
X210485Y123163D01*
X210375Y123090D01*
X207607Y120323D01*
X207413Y120386D01*
X207146Y120568D01*
X207146Y121873D01*
X209022Y123749D01*
X209420Y124345D01*
X209560Y125047D01*
X209560Y140341D01*
X210373Y141154D01*
X210834Y140908D01*
X210834Y140908D02*
G37*
G36*
X120472Y144823D02*
X120933Y144823D01*
X120933Y144685D01*
X121003Y144334D01*
X121202Y144036D01*
X125067Y140171D01*
X125067Y131496D01*
X125136Y131145D01*
X125335Y130847D01*
X127671Y128512D01*
X127464Y128012D01*
X124213Y128012D01*
X123753Y127821D01*
X123563Y127362D01*
X123563Y126705D01*
X122034Y126705D01*
X118169Y130570D01*
X118169Y133071D01*
X117979Y133530D01*
X117520Y133720D01*
X113976Y133720D01*
X113517Y133530D01*
X113327Y133071D01*
X112859Y133148D01*
X112859Y136143D01*
X113327Y136221D01*
X113517Y135761D01*
X113976Y135571D01*
X117520Y135571D01*
X117979Y135761D01*
X118169Y136221D01*
X118169Y138976D01*
X117979Y139436D01*
X117520Y139626D01*
X116666Y139626D01*
X116666Y140945D01*
X116650Y141021D01*
X116656Y141030D01*
X116793Y141716D01*
X116865Y141765D01*
X117262Y141954D01*
X119748Y139468D01*
X119626Y139173D01*
X119626Y136024D01*
X119816Y135564D01*
X120276Y135374D01*
X123819Y135374D01*
X124278Y135564D01*
X124468Y136024D01*
X124468Y139173D01*
X124278Y139632D01*
X123875Y139799D01*
X123743Y140466D01*
X123345Y141061D01*
X119879Y144528D01*
X120162Y144952D01*
X120472Y144823D01*
X120472Y144823D02*
G37*
G36*
X257421Y136440D02*
X257421Y136024D01*
X257612Y135564D01*
X258071Y135374D01*
X260928Y135374D01*
X261136Y134874D01*
X256438Y130176D01*
X256239Y129879D01*
X256169Y129527D01*
X256169Y126772D01*
X256239Y126420D01*
X256438Y126123D01*
X257827Y124733D01*
X257764Y124539D01*
X257582Y124272D01*
X256277Y124272D01*
X254347Y126201D01*
X254347Y138807D01*
X254391Y138848D01*
X254813Y139049D01*
X257421Y136440D01*
X257421Y136440D02*
G37*
G36*
X67617Y149606D02*
X67809Y149144D01*
X61844Y143180D01*
X61446Y142584D01*
X61307Y141882D01*
X61307Y138660D01*
X60807Y138611D01*
X60751Y138891D01*
X60353Y139487D01*
X59757Y139884D01*
X59055Y140024D01*
X58353Y139884D01*
X57757Y139487D01*
X57360Y138891D01*
X57220Y138189D01*
X57360Y137487D01*
X57757Y136891D01*
X57941Y136769D01*
X57941Y136279D01*
X57284Y136279D01*
X56824Y136089D01*
X56634Y135630D01*
X56634Y132087D01*
X56824Y131627D01*
X57284Y131437D01*
X60433Y131437D01*
X60807Y131592D01*
X61307Y131388D01*
X61307Y126894D01*
X58684Y124272D01*
X57284Y124272D01*
X56824Y124081D01*
X56634Y123622D01*
X56634Y120472D01*
X56824Y120013D01*
X57284Y119823D01*
X60827Y119823D01*
X61286Y120013D01*
X61476Y120472D01*
X61476Y121873D01*
X63956Y124353D01*
X64456Y124145D01*
X64456Y122685D01*
X64508Y122423D01*
X64508Y120472D01*
X64698Y120013D01*
X65158Y119823D01*
X68606Y119823D01*
X68788Y119555D01*
X68851Y119361D01*
X65296Y115806D01*
X65097Y115509D01*
X65078Y115413D01*
X64567Y115413D01*
X64108Y115223D01*
X63917Y114764D01*
X63917Y111221D01*
X64108Y110761D01*
X64567Y110571D01*
X67323Y110571D01*
X67782Y110761D01*
X67972Y111221D01*
X67972Y114764D01*
X67782Y115223D01*
X67703Y115618D01*
X74002Y121917D01*
X77559Y121917D01*
X77910Y121987D01*
X78208Y122186D01*
X79079Y123057D01*
X79527Y122968D01*
X80230Y123107D01*
X80825Y123505D01*
X81223Y124101D01*
X81363Y124803D01*
X81223Y125505D01*
X80947Y125918D01*
X80825Y126101D01*
X81057Y126547D01*
X81219Y126655D01*
X81617Y127250D01*
X81757Y127953D01*
X81617Y128655D01*
X81219Y129251D01*
X80624Y129648D01*
X79921Y129788D01*
X79219Y129648D01*
X78623Y129251D01*
X78370Y128870D01*
X76968Y128870D01*
X76617Y128800D01*
X76320Y128602D01*
X75730Y128012D01*
X73032Y128012D01*
X72572Y127821D01*
X72382Y127362D01*
X72382Y124213D01*
X72572Y123753D01*
X72664Y123174D01*
X69812Y120323D01*
X69618Y120386D01*
X69350Y120568D01*
X69350Y123622D01*
X69160Y124081D01*
X68701Y124272D01*
X68126Y124272D01*
X68126Y138366D01*
X78975Y149214D01*
X79021Y149283D01*
X79049Y149281D01*
X79235Y148760D01*
X73505Y143030D01*
X73108Y142435D01*
X72968Y141732D01*
X72968Y139993D01*
X72572Y139829D01*
X72382Y139370D01*
X72382Y136221D01*
X72572Y135761D01*
X73032Y135571D01*
X76575Y135571D01*
X77034Y135761D01*
X77224Y136221D01*
X77224Y139370D01*
X77034Y139829D01*
X76638Y139993D01*
X76638Y140972D01*
X84428Y148761D01*
X84825Y149357D01*
X84875Y149606D01*
X92200Y149606D01*
X92200Y146122D01*
X92340Y145420D01*
X92738Y144824D01*
X96201Y141361D01*
X96201Y139961D01*
X96391Y139501D01*
X96850Y139311D01*
X100000Y139311D01*
X100459Y139501D01*
X100649Y139961D01*
X100649Y143504D01*
X100459Y143963D01*
X100000Y144153D01*
X98600Y144153D01*
X95871Y146882D01*
X95871Y149606D01*
X97653Y149606D01*
X97653Y149331D01*
X97793Y148628D01*
X98190Y148033D01*
X104464Y141760D01*
X104464Y136478D01*
X103964Y136187D01*
X103740Y136279D01*
X100591Y136279D01*
X100131Y136089D01*
X99941Y135630D01*
X99941Y132087D01*
X100131Y131627D01*
X100591Y131437D01*
X101248Y131437D01*
X101248Y130892D01*
X99267Y128911D01*
X98819Y129001D01*
X98117Y128861D01*
X97521Y128463D01*
X97123Y127868D01*
X96984Y127165D01*
X97123Y126463D01*
X97521Y125868D01*
X98117Y125470D01*
X98819Y125330D01*
X99521Y125470D01*
X100117Y125868D01*
X100181Y125964D01*
X100307Y125992D01*
X100760Y125930D01*
X101065Y125474D01*
X101445Y125220D01*
X101445Y124409D01*
X101514Y124058D01*
X101713Y123761D01*
X104469Y121005D01*
X104767Y120806D01*
X105118Y120736D01*
X107747Y120736D01*
X107962Y120236D01*
X107815Y119882D01*
X107815Y117900D01*
X107458Y117709D01*
X107315Y117679D01*
X106665Y117808D01*
X105962Y117669D01*
X105367Y117271D01*
X104969Y116675D01*
X104829Y115973D01*
X104969Y115271D01*
X105367Y114675D01*
X105962Y114278D01*
X106665Y114138D01*
X107043Y114213D01*
X108138Y113119D01*
X108138Y110630D01*
X108207Y110279D01*
X108406Y109981D01*
X110375Y108013D01*
X110672Y107814D01*
X111024Y107744D01*
X120472Y107744D01*
X120824Y107814D01*
X121121Y108013D01*
X123090Y109981D01*
X123289Y110279D01*
X123359Y110630D01*
X123359Y119699D01*
X124790Y121130D01*
X128347Y121130D01*
X128698Y121200D01*
X128995Y121398D01*
X130570Y122973D01*
X130769Y123271D01*
X130839Y123622D01*
X130839Y127559D01*
X130769Y127910D01*
X130570Y128208D01*
X126902Y131876D01*
X126902Y140551D01*
X126832Y140902D01*
X126633Y141200D01*
X123457Y144376D01*
X123574Y144966D01*
X123688Y145013D01*
X123878Y145473D01*
X123878Y149016D01*
X123840Y149106D01*
X124174Y149606D01*
X125432Y149606D01*
X125766Y149106D01*
X125728Y149016D01*
X125728Y145473D01*
X125919Y145013D01*
X126378Y144823D01*
X128879Y144823D01*
X129004Y144699D01*
X129004Y143563D01*
X128150Y143563D01*
X127690Y143373D01*
X127500Y142913D01*
X127500Y139764D01*
X127690Y139305D01*
X128150Y139114D01*
X131693Y139114D01*
X132152Y139305D01*
X132342Y139764D01*
X132342Y142913D01*
X132152Y143373D01*
X131693Y143563D01*
X130839Y143563D01*
X130839Y145079D01*
X130769Y145430D01*
X130570Y145728D01*
X129783Y146514D01*
X129783Y149016D01*
X130100Y149406D01*
X130517Y149438D01*
X139709Y140246D01*
X140007Y140048D01*
X140358Y139978D01*
X142293Y139978D01*
X142683Y139519D01*
X142653Y139370D01*
X142793Y138668D01*
X143191Y138072D01*
X143786Y137674D01*
X144488Y137535D01*
X145191Y137674D01*
X145786Y138072D01*
X146184Y138668D01*
X146324Y139370D01*
X146184Y140072D01*
X145786Y140668D01*
X145191Y141066D01*
X144488Y141205D01*
X144040Y141116D01*
X143612Y141544D01*
X143314Y141743D01*
X142963Y141813D01*
X140738Y141813D01*
X133406Y149144D01*
X133598Y149606D01*
X135991Y149606D01*
X137776Y149431D01*
X139561Y149606D01*
X172526Y149606D01*
X172526Y131890D01*
X172684Y130689D01*
X173147Y129570D01*
X173885Y128609D01*
X174846Y127872D01*
X175964Y127408D01*
X177165Y127250D01*
X178366Y127408D01*
X179485Y127872D01*
X180446Y128609D01*
X181183Y129570D01*
X181647Y130689D01*
X181805Y131890D01*
X181805Y149606D01*
X197539Y149606D01*
X197730Y149144D01*
X192739Y144153D01*
X191339Y144153D01*
X190879Y143963D01*
X190689Y143504D01*
X190689Y139961D01*
X190879Y139501D01*
X191339Y139311D01*
X194488Y139311D01*
X194947Y139501D01*
X195138Y139961D01*
X195138Y141361D01*
X203383Y149606D01*
X207381Y149606D01*
X207573Y149144D01*
X203427Y144999D01*
X203029Y144403D01*
X202889Y143701D01*
X202889Y134853D01*
X202389Y134701D01*
X202085Y135156D01*
X201490Y135554D01*
X200787Y135694D01*
X200085Y135554D01*
X199490Y135156D01*
X199378Y134988D01*
X198878Y135140D01*
X198878Y135630D01*
X198688Y136089D01*
X198228Y136279D01*
X195079Y136279D01*
X194620Y136089D01*
X194429Y135630D01*
X194429Y132087D01*
X194620Y131627D01*
X195079Y131437D01*
X198228Y131437D01*
X198688Y131627D01*
X198878Y132087D01*
X198878Y132576D01*
X199378Y132728D01*
X199490Y132561D01*
X200085Y132163D01*
X200787Y132023D01*
X201490Y132163D01*
X202085Y132561D01*
X202389Y133016D01*
X202889Y132864D01*
X202889Y130681D01*
X200027Y127820D01*
X195111Y127820D01*
X194947Y128215D01*
X194488Y128405D01*
X191339Y128405D01*
X190879Y128215D01*
X190689Y127756D01*
X190689Y124213D01*
X190879Y123753D01*
X191339Y123563D01*
X194488Y123563D01*
X194947Y123753D01*
X195111Y124149D01*
X200787Y124149D01*
X201490Y124289D01*
X202085Y124687D01*
X205427Y128029D01*
X205889Y127837D01*
X205889Y125807D01*
X204353Y124272D01*
X202953Y124272D01*
X202494Y124081D01*
X202303Y123622D01*
X202303Y120472D01*
X202494Y120013D01*
X202953Y119823D01*
X206401Y119823D01*
X206583Y119555D01*
X206646Y119361D01*
X206635Y119350D01*
X206436Y119052D01*
X206366Y118701D01*
X206366Y115020D01*
X205906Y115020D01*
X205446Y114829D01*
X205256Y114370D01*
X205256Y110827D01*
X205446Y110368D01*
X205906Y110177D01*
X208661Y110177D01*
X209121Y110368D01*
X209311Y110827D01*
X209311Y114370D01*
X209121Y114829D01*
X208661Y115020D01*
X208201Y115020D01*
X208201Y118321D01*
X211404Y121523D01*
X214567Y121523D01*
X214918Y121593D01*
X215216Y121792D01*
X217550Y124126D01*
X217749Y124424D01*
X217818Y124775D01*
X217818Y133094D01*
X218198Y133348D01*
X218596Y133943D01*
X218736Y134646D01*
X218596Y135348D01*
X218198Y135943D01*
X217603Y136341D01*
X216901Y136481D01*
X216198Y136341D01*
X215603Y135943D01*
X215110Y136106D01*
X215020Y136220D01*
X215019Y136231D01*
X215019Y139370D01*
X214829Y139829D01*
X214770Y140127D01*
X217551Y142909D01*
X218051Y142701D01*
X218051Y139961D01*
X218242Y139501D01*
X218701Y139311D01*
X222244Y139311D01*
X222703Y139501D01*
X222894Y139961D01*
X222894Y141674D01*
X223764Y142545D01*
X224213Y142456D01*
X224915Y142596D01*
X225510Y142994D01*
X225908Y143589D01*
X226048Y144291D01*
X225908Y144994D01*
X225510Y145589D01*
X224915Y145987D01*
X224213Y146127D01*
X223510Y145987D01*
X222915Y145589D01*
X222517Y144994D01*
X222377Y144291D01*
X222391Y144222D01*
X222377Y144177D01*
X221973Y143760D01*
X219110Y143760D01*
X218902Y144260D01*
X222223Y147580D01*
X222621Y148176D01*
X222760Y148878D01*
X222760Y149606D01*
X229995Y149606D01*
X229995Y146122D01*
X230135Y145420D01*
X230533Y144824D01*
X233996Y141361D01*
X233996Y139961D01*
X234187Y139501D01*
X234646Y139311D01*
X237795Y139311D01*
X238254Y139501D01*
X238445Y139961D01*
X238445Y143504D01*
X238316Y143814D01*
X238740Y144098D01*
X246834Y136004D01*
X246834Y135185D01*
X246449Y134979D01*
X246334Y134971D01*
X245669Y135103D01*
X244967Y134963D01*
X244372Y134565D01*
X243974Y133970D01*
X243834Y133268D01*
X243974Y132565D01*
X244372Y131970D01*
X244752Y131716D01*
X244752Y126364D01*
X239509Y121121D01*
X239310Y120824D01*
X239291Y120728D01*
X238386Y120728D01*
X237927Y120538D01*
X237736Y120079D01*
X237736Y116929D01*
X237927Y116470D01*
X238386Y116280D01*
X241929Y116280D01*
X242388Y116470D01*
X242579Y116929D01*
X242579Y120079D01*
X242388Y120538D01*
X242275Y120585D01*
X242158Y121175D01*
X245258Y124276D01*
X245682Y123992D01*
X245610Y123819D01*
X245610Y120669D01*
X245801Y120210D01*
X246260Y120020D01*
X249803Y120020D01*
X250262Y120210D01*
X250453Y120669D01*
X250453Y122621D01*
X250505Y122882D01*
X250505Y124305D01*
X251005Y124457D01*
X251214Y124143D01*
X253484Y121873D01*
X253484Y120472D01*
X253550Y120315D01*
X253219Y119815D01*
X251181Y119815D01*
X250830Y119745D01*
X250532Y119546D01*
X246989Y116003D01*
X246870Y115825D01*
X246340Y115471D01*
X245942Y114875D01*
X245802Y114173D01*
X245942Y113471D01*
X246340Y112875D01*
X246936Y112478D01*
X247638Y112338D01*
X248340Y112478D01*
X248936Y112875D01*
X249333Y113471D01*
X249473Y114173D01*
X249333Y114875D01*
X248982Y115401D01*
X251561Y117980D01*
X258661Y117980D01*
X259013Y118050D01*
X259310Y118249D01*
X260491Y119430D01*
X260690Y119728D01*
X260760Y120079D01*
X260760Y124016D01*
X260690Y124367D01*
X260491Y124665D01*
X258004Y127152D01*
X258004Y128172D01*
X258504Y128221D01*
X258541Y128038D01*
X258939Y127442D01*
X259534Y127045D01*
X260236Y126905D01*
X260912Y127039D01*
X261040Y126967D01*
X261358Y126724D01*
X261358Y124213D01*
X261549Y123753D01*
X262008Y123563D01*
X265551Y123563D01*
X266010Y123753D01*
X266201Y124213D01*
X266201Y127362D01*
X266010Y127821D01*
X265551Y128012D01*
X262853Y128012D01*
X262058Y128806D01*
X261932Y129443D01*
X261534Y130038D01*
X260939Y130436D01*
X260236Y130575D01*
X260115Y130551D01*
X259869Y131012D01*
X264822Y135965D01*
X265021Y136263D01*
X265091Y136614D01*
X265091Y139046D01*
X265591Y139261D01*
X265945Y139114D01*
X269488Y139114D01*
X269947Y139304D01*
X270112Y139337D01*
X275590Y133858D01*
X283465Y125984D01*
X294702Y125984D01*
X294751Y125484D01*
X294573Y125449D01*
X293978Y125051D01*
X293580Y124456D01*
X293440Y123753D01*
X293580Y123051D01*
X293978Y122456D01*
X294358Y122202D01*
X294358Y110568D01*
X291608Y107818D01*
X291409Y107520D01*
X291339Y107169D01*
X291339Y106417D01*
X269036Y84113D01*
X268837Y83816D01*
X268767Y83465D01*
X268767Y53923D01*
X262088Y47244D01*
X260492Y47244D01*
X260492Y50591D01*
X260302Y51050D01*
X259842Y51240D01*
X256693Y51240D01*
X256234Y51050D01*
X256178Y50916D01*
X255658Y50967D01*
X255633Y51096D01*
X255235Y51691D01*
X254855Y51945D01*
X254855Y54272D01*
X256102Y54272D01*
X256562Y54462D01*
X256752Y54921D01*
X256752Y58465D01*
X256562Y58924D01*
X256102Y59114D01*
X252956Y59114D01*
X252947Y59123D01*
X252695Y59548D01*
X254697Y61551D01*
X256070Y61551D01*
X256234Y61155D01*
X256693Y60965D01*
X259842Y60965D01*
X260302Y61155D01*
X260492Y61614D01*
X260492Y65158D01*
X260302Y65617D01*
X259842Y65807D01*
X257135Y65807D01*
X256961Y66034D01*
X256830Y66307D01*
X256953Y66929D01*
X256814Y67631D01*
X256416Y68227D01*
X256192Y68376D01*
X256192Y68380D01*
X256265Y68906D01*
X256562Y69029D01*
X256752Y69488D01*
X256752Y73032D01*
X256562Y73491D01*
X256102Y73681D01*
X252953Y73681D01*
X252494Y73491D01*
X252303Y73032D01*
X252303Y69488D01*
X252494Y69029D01*
X252953Y68839D01*
X253836Y68839D01*
X253988Y68339D01*
X253820Y68227D01*
X253423Y67631D01*
X253283Y66929D01*
X253423Y66227D01*
X253775Y65699D01*
X253718Y65382D01*
X253627Y65159D01*
X253235Y65081D01*
X252639Y64684D01*
X249490Y61534D01*
X249092Y60939D01*
X248952Y60236D01*
X248952Y59588D01*
X248493Y59355D01*
X248162Y59591D01*
X248162Y68596D01*
X248092Y68947D01*
X247893Y69244D01*
X242775Y74362D01*
X242775Y76575D01*
X242585Y77034D01*
X242126Y77224D01*
X238976Y77224D01*
X238517Y77034D01*
X238327Y76575D01*
X238327Y73032D01*
X238517Y72572D01*
X238976Y72382D01*
X242126Y72382D01*
X242150Y72392D01*
X244730Y69812D01*
X244538Y69350D01*
X242717Y69350D01*
X242257Y69160D01*
X242067Y68701D01*
X242067Y66751D01*
X242015Y66488D01*
X242015Y61533D01*
X241929Y61476D01*
X238386Y61476D01*
X237927Y61286D01*
X237736Y60827D01*
X237736Y57677D01*
X237927Y57218D01*
X237953Y57084D01*
X235205Y54335D01*
X234705Y54542D01*
X234705Y57087D01*
X234514Y57546D01*
X234055Y57736D01*
X231357Y57736D01*
X230570Y58523D01*
X230272Y58722D01*
X229921Y58792D01*
X229504Y58792D01*
X229251Y59172D01*
X228655Y59570D01*
X227953Y59709D01*
X227250Y59570D01*
X226655Y59172D01*
X226257Y58576D01*
X226117Y57874D01*
X226257Y57172D01*
X226655Y56576D01*
X227250Y56178D01*
X227953Y56039D01*
X228655Y56178D01*
X229251Y56576D01*
X229362Y56587D01*
X229862Y56133D01*
X229862Y53937D01*
X230053Y53478D01*
X230512Y53288D01*
X233450Y53288D01*
X233657Y52788D01*
X230533Y49664D01*
X230135Y49068D01*
X229995Y48366D01*
X229995Y47833D01*
X229495Y47663D01*
X229179Y48076D01*
X228358Y48706D01*
X227403Y49101D01*
X226378Y49236D01*
X225353Y49101D01*
X224398Y48706D01*
X223577Y48076D01*
X223260Y47663D01*
X222760Y47833D01*
X222760Y50728D01*
X222621Y51431D01*
X222223Y52026D01*
X218760Y55489D01*
X218760Y56890D01*
X218569Y57349D01*
X218110Y57539D01*
X216090Y57539D01*
X215735Y58039D01*
X215818Y58458D01*
X215679Y59160D01*
X215281Y59756D01*
X214685Y60153D01*
X214674Y60156D01*
X214623Y60676D01*
X214829Y60761D01*
X215019Y61221D01*
X215019Y64764D01*
X214829Y65223D01*
X214370Y65413D01*
X211221Y65413D01*
X210997Y65320D01*
X210497Y65612D01*
X210497Y72490D01*
X210695Y72572D01*
X210886Y73032D01*
X210886Y76575D01*
X210695Y77034D01*
X210236Y77224D01*
X207087Y77224D01*
X206955Y77312D01*
X206955Y80446D01*
X206955Y80446D01*
X207146Y80905D01*
X207146Y84449D01*
X206955Y84908D01*
X206496Y85098D01*
X203346Y85098D01*
X202887Y84908D01*
X202697Y84449D01*
X202697Y81176D01*
X202280Y80773D01*
X202235Y80758D01*
X202165Y80772D01*
X199164Y80772D01*
X199081Y80971D01*
X198622Y81161D01*
X195082Y81161D01*
X195073Y81171D01*
X194821Y81596D01*
X196179Y82954D01*
X196577Y83549D01*
X196717Y84252D01*
X196717Y84252D01*
X196577Y84954D01*
X196179Y85549D01*
X195584Y85947D01*
X194881Y86087D01*
X194179Y85947D01*
X193584Y85549D01*
X193583Y85549D01*
X191616Y83581D01*
X191218Y82986D01*
X191078Y82284D01*
X191078Y77642D01*
X190748Y77421D01*
X187205Y77421D01*
X186746Y77231D01*
X186555Y76772D01*
X186555Y73622D01*
X186746Y73163D01*
X187205Y72973D01*
X188059Y72973D01*
X188059Y71653D01*
X188129Y71302D01*
X188328Y71005D01*
X192658Y66674D01*
X192956Y66475D01*
X193307Y66405D01*
X193588Y66405D01*
X193779Y65943D01*
X191871Y64035D01*
X191672Y63737D01*
X191602Y63386D01*
X191602Y61348D01*
X191102Y61133D01*
X190748Y61279D01*
X187205Y61279D01*
X186746Y61089D01*
X186555Y60630D01*
X186555Y57480D01*
X186746Y57021D01*
X187205Y56831D01*
X188059Y56831D01*
X188059Y53996D01*
X187795Y53996D01*
X187336Y53806D01*
X187146Y53346D01*
X187146Y50632D01*
X186684Y50441D01*
X185957Y51168D01*
X185957Y69807D01*
X185887Y70158D01*
X185688Y70456D01*
X177018Y79127D01*
X176720Y79326D01*
X176369Y79396D01*
X152099Y79396D01*
X152089Y79443D01*
X151691Y80038D01*
X151096Y80436D01*
X150394Y80575D01*
X149691Y80436D01*
X149096Y80038D01*
X148698Y79443D01*
X148640Y79150D01*
X148312Y79082D01*
X148120Y79097D01*
X147754Y79644D01*
X147159Y80042D01*
X146457Y80182D01*
X145754Y80042D01*
X145159Y79644D01*
X144761Y79049D01*
X144621Y78347D01*
X144761Y77644D01*
X145037Y77232D01*
X145159Y77049D01*
X144927Y76603D01*
X144765Y76494D01*
X144367Y75899D01*
X144227Y75197D01*
X144367Y74494D01*
X144765Y73899D01*
X145360Y73501D01*
X146063Y73361D01*
X146511Y73451D01*
X147901Y72060D01*
X147901Y69364D01*
X147401Y69157D01*
X143068Y73490D01*
X142340Y73976D01*
X141482Y74147D01*
X140771Y74006D01*
X140048Y74006D01*
X140022Y74023D01*
X139085Y74209D01*
X138149Y74023D01*
X137355Y73493D01*
X136825Y72699D01*
X136638Y71763D01*
X136825Y70826D01*
X137355Y70032D01*
X137413Y69994D01*
X137413Y69494D01*
X137285Y69408D01*
X136887Y68812D01*
X136871Y68734D01*
X136316Y68504D01*
X136135Y68625D01*
X135433Y68764D01*
X134731Y68625D01*
X134343Y68366D01*
X133730Y68383D01*
X133135Y68781D01*
X132433Y68921D01*
X131730Y68781D01*
X131135Y68383D01*
X130737Y67788D01*
X130598Y67085D01*
X130155Y66749D01*
X129921Y66796D01*
X129219Y66656D01*
X128623Y66258D01*
X128225Y65663D01*
X128086Y64960D01*
X128225Y64258D01*
X128623Y63663D01*
X129003Y63409D01*
X129003Y62191D01*
X124733Y57921D01*
X124272Y58112D01*
X124272Y60827D01*
X124081Y61286D01*
X123622Y61476D01*
X120472Y61476D01*
X120013Y61286D01*
X119823Y60827D01*
X119823Y58551D01*
X116474Y55202D01*
X116086Y55521D01*
X116137Y55597D01*
X116276Y56299D01*
X116187Y56748D01*
X118956Y59516D01*
X119155Y59814D01*
X119225Y60165D01*
X119225Y64508D01*
X119882Y64508D01*
X120341Y64698D01*
X120531Y65158D01*
X120531Y68701D01*
X120341Y69160D01*
X119882Y69350D01*
X117141Y69350D01*
X116934Y69850D01*
X119715Y72632D01*
X120013Y72572D01*
X120472Y72382D01*
X123622Y72382D01*
X124081Y72572D01*
X124272Y73032D01*
X124272Y76575D01*
X124081Y77034D01*
X123622Y77224D01*
X120472Y77224D01*
X120013Y77034D01*
X119849Y76638D01*
X119291Y76638D01*
X118754Y76532D01*
X118565Y76646D01*
X118403Y76788D01*
X118321Y76916D01*
X118371Y77165D01*
X118371Y77559D01*
X118231Y78261D01*
X117833Y78857D01*
X117238Y79255D01*
X116535Y79394D01*
X115833Y79255D01*
X115238Y78857D01*
X114840Y78261D01*
X114791Y78017D01*
X112439Y75665D01*
X111979Y75911D01*
X112072Y76378D01*
X112072Y76542D01*
X112467Y76706D01*
X112657Y77165D01*
X112657Y80315D01*
X112467Y80774D01*
X112008Y80964D01*
X108465Y80964D01*
X108135Y81184D01*
X108135Y83281D01*
X110228Y85374D01*
X111024Y85374D01*
X111483Y85564D01*
X111673Y86024D01*
X111673Y89549D01*
X113524Y89549D01*
X113524Y86024D01*
X113714Y85564D01*
X114173Y85374D01*
X116092Y85374D01*
X116273Y84908D01*
X116083Y84449D01*
X116083Y80905D01*
X116273Y80446D01*
X116732Y80256D01*
X119882Y80256D01*
X120341Y80446D01*
X120531Y80905D01*
X120531Y84449D01*
X120341Y84908D01*
X119882Y85098D01*
X119213Y85098D01*
X119155Y85391D01*
X118956Y85688D01*
X117579Y87066D01*
X117579Y89549D01*
X118581Y89549D01*
X118678Y89061D01*
X119076Y88466D01*
X119672Y88068D01*
X120374Y87928D01*
X121076Y88068D01*
X121672Y88466D01*
X122070Y89061D01*
X122209Y89764D01*
X122070Y90466D01*
X121672Y91062D01*
X121076Y91459D01*
X120374Y91599D01*
X119672Y91459D01*
X119560Y91385D01*
X107895Y91385D01*
X107544Y91315D01*
X107246Y91116D01*
X104863Y88733D01*
X104664Y88435D01*
X104594Y88084D01*
X104594Y80865D01*
X104416Y80829D01*
X103820Y80431D01*
X103422Y79836D01*
X103283Y79134D01*
X103422Y78431D01*
X103820Y77836D01*
X103987Y77724D01*
X103836Y77224D01*
X101436Y77224D01*
X99271Y79389D01*
X98973Y79588D01*
X98878Y79607D01*
X98878Y80118D01*
X98687Y80577D01*
X98228Y80768D01*
X94685Y80768D01*
X94226Y80577D01*
X94036Y80118D01*
X94036Y77362D01*
X94226Y76903D01*
X94685Y76713D01*
X98228Y76713D01*
X98687Y76903D01*
X99083Y76982D01*
X99941Y76123D01*
X99941Y73425D01*
X100131Y72966D01*
X100591Y72776D01*
X104134Y72776D01*
X104594Y72425D01*
X104594Y71246D01*
X103905Y70557D01*
X103852Y70593D01*
X103149Y70733D01*
X102447Y70593D01*
X101852Y70195D01*
X101454Y69600D01*
X101314Y68897D01*
X101454Y68195D01*
X101852Y67600D01*
X102447Y67202D01*
X103149Y67062D01*
X103852Y67202D01*
X104447Y67600D01*
X104845Y68195D01*
X104985Y68897D01*
X104961Y69017D01*
X105577Y69633D01*
X106039Y69442D01*
X106039Y59422D01*
X98190Y51573D01*
X97793Y50978D01*
X97653Y50276D01*
X97653Y48459D01*
X97488Y48391D01*
X96668Y47761D01*
X96371Y47374D01*
X95871Y47535D01*
X95871Y49968D01*
X103660Y57757D01*
X104058Y58353D01*
X104198Y59055D01*
X104198Y60794D01*
X104593Y60958D01*
X104783Y61417D01*
X104783Y64567D01*
X104593Y65026D01*
X104134Y65216D01*
X100591Y65216D01*
X100131Y65026D01*
X99941Y64567D01*
X99941Y61417D01*
X100131Y60958D01*
X100527Y60794D01*
X100527Y59815D01*
X96682Y55970D01*
X96203Y56115D01*
X96184Y56214D01*
X95974Y56528D01*
X96241Y57028D01*
X96260Y57028D01*
X96719Y57218D01*
X96909Y57677D01*
X96909Y60827D01*
X96719Y61286D01*
X96260Y61476D01*
X92716Y61476D01*
X92257Y61286D01*
X92067Y60827D01*
X92067Y57677D01*
X92257Y57218D01*
X92716Y57028D01*
X92735Y57028D01*
X93002Y56528D01*
X92793Y56214D01*
X92653Y55512D01*
X92793Y54809D01*
X93190Y54214D01*
X93786Y53816D01*
X93885Y53797D01*
X94030Y53318D01*
X92738Y52026D01*
X92340Y51431D01*
X92200Y50728D01*
X92200Y47388D01*
X91700Y47323D01*
X91364Y47761D01*
X90543Y48391D01*
X89588Y48786D01*
X88563Y48921D01*
X87538Y48786D01*
X86583Y48391D01*
X85762Y47761D01*
X85465Y47374D01*
X84965Y47535D01*
X84965Y50728D01*
X84825Y51431D01*
X84428Y52026D01*
X76638Y59815D01*
X76638Y60794D01*
X77034Y60958D01*
X77224Y61417D01*
X77224Y64567D01*
X77034Y65026D01*
X76575Y65216D01*
X73032Y65216D01*
X72701Y65437D01*
X72701Y68553D01*
X72900Y68635D01*
X73090Y69095D01*
X73090Y72638D01*
X72900Y73097D01*
X72441Y73287D01*
X69917Y73287D01*
X69506Y73787D01*
X69552Y74016D01*
X69412Y74718D01*
X69014Y75314D01*
X68419Y75711D01*
X68044Y75786D01*
X68044Y76319D01*
X68701Y76319D01*
X69160Y76509D01*
X69350Y76968D01*
X69350Y80512D01*
X69160Y80971D01*
X68701Y81161D01*
X66588Y81161D01*
X66432Y81548D01*
X66423Y81661D01*
X68056Y83293D01*
X68504Y83204D01*
X69206Y83344D01*
X69802Y83742D01*
X70200Y84337D01*
X70339Y85039D01*
X70200Y85742D01*
X69802Y86337D01*
X69206Y86735D01*
X68504Y86875D01*
X67802Y86735D01*
X67206Y86337D01*
X66808Y85742D01*
X66669Y85039D01*
X66758Y84591D01*
X65368Y83201D01*
X57480Y83201D01*
X57129Y83131D01*
X56831Y82932D01*
X55257Y81358D01*
X55058Y81060D01*
X54988Y80709D01*
X54988Y73061D01*
X54488Y72794D01*
X54246Y72955D01*
X53910Y73022D01*
X53602Y73425D01*
X53602Y76575D01*
X53412Y77034D01*
X52953Y77224D01*
X49409Y77224D01*
X48950Y77034D01*
X48760Y76575D01*
X48760Y73425D01*
X48950Y72966D01*
X49409Y72776D01*
X51517Y72776D01*
X52041Y72252D01*
X51848Y71962D01*
X51708Y71260D01*
X51848Y70557D01*
X52246Y69962D01*
X52841Y69564D01*
X53543Y69425D01*
X54246Y69564D01*
X54488Y69726D01*
X54988Y69459D01*
X54988Y64356D01*
X52402Y61771D01*
X47244Y66929D01*
X31496Y82677D01*
X31496Y86614D01*
X31496Y114173D01*
X31496Y116142D01*
X44094Y128740D01*
X44094Y133858D01*
X52432Y142196D01*
X52894Y142004D01*
X52894Y139961D01*
X53084Y139501D01*
X53543Y139311D01*
X56693Y139311D01*
X57152Y139501D01*
X57342Y139961D01*
X57342Y141833D01*
X65115Y149606D01*
X67617Y149606D01*
X67617Y149606D02*
G37*
G36*
X199159Y76394D02*
X199091Y76293D01*
X198952Y75590D01*
X199091Y74888D01*
X199489Y74293D01*
X200085Y73895D01*
X200395Y73833D01*
X200395Y70458D01*
X199984Y70195D01*
X199895Y70204D01*
X199213Y70339D01*
X198510Y70200D01*
X197915Y69802D01*
X197517Y69206D01*
X197377Y68504D01*
X197161Y68240D01*
X193687Y68240D01*
X192794Y69134D01*
X192872Y69298D01*
X193088Y69546D01*
X193701Y69425D01*
X194403Y69564D01*
X194999Y69962D01*
X195396Y70557D01*
X195536Y71260D01*
X195396Y71962D01*
X194999Y72558D01*
X194749Y72807D01*
X194749Y76492D01*
X195079Y76713D01*
X198622Y76713D01*
X198828Y76798D01*
X199159Y76394D01*
X199159Y76394D02*
G37*
G36*
X166813Y77149D02*
X166804Y77060D01*
X166669Y76378D01*
X166808Y75676D01*
X167206Y75080D01*
X167802Y74682D01*
X168504Y74543D01*
X168579Y74558D01*
X169054Y74201D01*
X169095Y73936D01*
X169036Y73877D01*
X168837Y73579D01*
X168767Y73228D01*
X168767Y62191D01*
X162343Y55767D01*
X162144Y55469D01*
X162074Y55118D01*
X162074Y47244D01*
X160627Y47244D01*
X159964Y47753D01*
X158956Y48171D01*
X157874Y48313D01*
X156792Y48171D01*
X155784Y47753D01*
X155121Y47244D01*
X150936Y47244D01*
X150936Y59434D01*
X151436Y59559D01*
X151645Y59169D01*
X151696Y59127D01*
X151715Y59064D01*
X152503Y58104D01*
X152561Y58073D01*
X152593Y58014D01*
X153552Y57227D01*
X153615Y57208D01*
X153658Y57156D01*
X154752Y56572D01*
X154818Y56565D01*
X154869Y56523D01*
X156057Y56163D01*
X156123Y56169D01*
X156182Y56138D01*
X157417Y56016D01*
X157449Y56026D01*
X157480Y56013D01*
X157512Y56026D01*
X157544Y56016D01*
X158779Y56138D01*
X158837Y56169D01*
X158904Y56163D01*
X160091Y56523D01*
X160143Y56565D01*
X160209Y56572D01*
X161303Y57156D01*
X161345Y57208D01*
X161409Y57227D01*
X162368Y58014D01*
X162399Y58073D01*
X162458Y58104D01*
X163245Y59064D01*
X163265Y59127D01*
X163316Y59169D01*
X163901Y60264D01*
X163907Y60330D01*
X163950Y60381D01*
X164310Y61569D01*
X164303Y61635D01*
X164335Y61694D01*
X164456Y62928D01*
X164437Y62992D01*
X164456Y63056D01*
X164335Y64291D01*
X164303Y64349D01*
X164310Y64416D01*
X163950Y65603D01*
X163907Y65654D01*
X163901Y65721D01*
X163316Y66815D01*
X163265Y66857D01*
X163245Y66921D01*
X162458Y67880D01*
X162399Y67911D01*
X162368Y67970D01*
X161409Y68757D01*
X161345Y68776D01*
X161303Y68828D01*
X160209Y69413D01*
X160143Y69419D01*
X160091Y69462D01*
X158904Y69822D01*
X158837Y69815D01*
X158779Y69846D01*
X157544Y69968D01*
X157512Y69958D01*
X157480Y69971D01*
X157449Y69958D01*
X157417Y69968D01*
X156182Y69846D01*
X156123Y69815D01*
X156057Y69822D01*
X154869Y69462D01*
X154818Y69419D01*
X154752Y69413D01*
X153658Y68828D01*
X153615Y68776D01*
X153552Y68757D01*
X152593Y67970D01*
X152561Y67911D01*
X152503Y67880D01*
X151715Y66921D01*
X151696Y66857D01*
X151645Y66815D01*
X151436Y66426D01*
X150936Y66551D01*
X150936Y74784D01*
X150867Y75135D01*
X150668Y75433D01*
X149486Y76614D01*
X149565Y76779D01*
X149781Y77027D01*
X150394Y76905D01*
X151096Y77045D01*
X151691Y77442D01*
X151770Y77560D01*
X166550Y77560D01*
X166813Y77149D01*
X166813Y77149D02*
G37*
G36*
X342520Y110236D02*
X342520Y102362D01*
X338583Y98425D01*
X330709Y98425D01*
X314961Y82677D01*
X314961Y47244D01*
X282076Y47244D01*
X281137Y48015D01*
X279405Y48941D01*
X277525Y49511D01*
X275571Y49703D01*
X273616Y49511D01*
X272153Y49067D01*
X271654Y49438D01*
X271654Y52517D01*
X271852Y52814D01*
X271922Y53165D01*
X271922Y82313D01*
X294120Y104511D01*
X294357Y104464D01*
X295059Y104604D01*
X295655Y105001D01*
X296053Y105597D01*
X296192Y106299D01*
X296053Y107001D01*
X295655Y107597D01*
X295276Y107850D01*
X295276Y108890D01*
X295924Y109539D01*
X296123Y109836D01*
X296193Y110187D01*
X296193Y118110D01*
X334646Y118110D01*
X342520Y110236D01*
X342520Y110236D02*
G37*
%LPC*%
G36*
X157480Y140837D02*
X157449Y140824D01*
X157417Y140834D01*
X156182Y140713D01*
X156123Y140681D01*
X156057Y140688D01*
X154869Y140328D01*
X154818Y140285D01*
X154752Y140279D01*
X153658Y139694D01*
X153615Y139643D01*
X153552Y139623D01*
X152593Y138836D01*
X152561Y138777D01*
X152503Y138746D01*
X151715Y137787D01*
X151696Y137723D01*
X151645Y137681D01*
X151060Y136587D01*
X151053Y136521D01*
X151011Y136469D01*
X150651Y135282D01*
X150657Y135215D01*
X150626Y135157D01*
X150504Y133922D01*
X150524Y133858D01*
X150504Y133795D01*
X150626Y132560D01*
X150657Y132501D01*
X150651Y132435D01*
X151011Y131247D01*
X151053Y131196D01*
X151060Y131130D01*
X151645Y130035D01*
X151696Y129993D01*
X151715Y129930D01*
X152503Y128971D01*
X152561Y128939D01*
X152593Y128881D01*
X153552Y128093D01*
X153615Y128074D01*
X153658Y128023D01*
X154752Y127438D01*
X154818Y127431D01*
X154869Y127389D01*
X156057Y127029D01*
X156123Y127035D01*
X156182Y127004D01*
X157417Y126882D01*
X157449Y126892D01*
X157480Y126879D01*
X157512Y126892D01*
X157544Y126882D01*
X158779Y127004D01*
X158837Y127035D01*
X158904Y127029D01*
X160091Y127389D01*
X160143Y127431D01*
X160209Y127438D01*
X161303Y128023D01*
X161345Y128074D01*
X161409Y128093D01*
X162368Y128881D01*
X162399Y128939D01*
X162458Y128971D01*
X163245Y129930D01*
X163265Y129993D01*
X163316Y130035D01*
X163901Y131130D01*
X163907Y131196D01*
X163950Y131247D01*
X164310Y132435D01*
X164303Y132501D01*
X164335Y132560D01*
X164456Y133795D01*
X164437Y133858D01*
X164456Y133922D01*
X164335Y135157D01*
X164303Y135215D01*
X164310Y135282D01*
X163950Y136469D01*
X163907Y136521D01*
X163901Y136587D01*
X163316Y137681D01*
X163265Y137723D01*
X163245Y137787D01*
X162458Y138746D01*
X162399Y138777D01*
X162368Y138836D01*
X161409Y139623D01*
X161345Y139643D01*
X161303Y139694D01*
X160209Y140279D01*
X160143Y140285D01*
X160091Y140328D01*
X158904Y140688D01*
X158837Y140681D01*
X158779Y140713D01*
X157544Y140834D01*
X157512Y140824D01*
X157480Y140837D01*
X157480Y140837D02*
G37*
G36*
X84336Y147111D02*
X83634Y146971D01*
X83039Y146573D01*
X82641Y145978D01*
X82501Y145276D01*
X82590Y144827D01*
X82028Y144265D01*
X81829Y143968D01*
X81788Y143760D01*
X80905Y143760D01*
X80446Y143570D01*
X80256Y143110D01*
X80256Y139961D01*
X80446Y139501D01*
X80905Y139311D01*
X84449Y139311D01*
X84908Y139501D01*
X85098Y139961D01*
X85098Y143110D01*
X84962Y143438D01*
X85039Y143580D01*
X85634Y143978D01*
X86032Y144573D01*
X86172Y145276D01*
X86032Y145978D01*
X85634Y146573D01*
X85039Y146971D01*
X84336Y147111D01*
X84336Y147111D02*
G37*
G36*
X98228Y74862D02*
X94685Y74862D01*
X94226Y74672D01*
X94036Y74213D01*
X94036Y71457D01*
X94226Y70998D01*
X94685Y70807D01*
X96672Y70807D01*
X96939Y70307D01*
X96730Y69994D01*
X96590Y69291D01*
X96730Y68589D01*
X97127Y67994D01*
X97723Y67596D01*
X98425Y67456D01*
X99128Y67596D01*
X99723Y67994D01*
X100121Y68589D01*
X100260Y69291D01*
X100121Y69994D01*
X99723Y70589D01*
X99343Y70843D01*
X99343Y70866D01*
X99273Y71217D01*
X99074Y71515D01*
X98878Y71711D01*
X98878Y74213D01*
X98687Y74672D01*
X98228Y74862D01*
X98228Y74862D02*
G37*
G36*
X85827Y70339D02*
X85124Y70200D01*
X84529Y69802D01*
X84131Y69206D01*
X84082Y68957D01*
X80905Y68957D01*
X80446Y68766D01*
X80256Y68307D01*
X80256Y65158D01*
X80446Y64698D01*
X80905Y64508D01*
X84449Y64508D01*
X84908Y64698D01*
X85098Y65158D01*
X85098Y66390D01*
X85492Y66735D01*
X85827Y66669D01*
X86529Y66808D01*
X87125Y67206D01*
X87522Y67802D01*
X87662Y68504D01*
X87522Y69206D01*
X87125Y69802D01*
X86529Y70200D01*
X85827Y70339D01*
X85827Y70339D02*
G37*
G36*
X198228Y120531D02*
X195079Y120531D01*
X194620Y120341D01*
X194429Y119882D01*
X194429Y116339D01*
X194620Y115879D01*
X195079Y115689D01*
X196990Y115689D01*
X199351Y113328D01*
X199351Y110827D01*
X199541Y110368D01*
X200000Y110177D01*
X202756Y110177D01*
X203215Y110368D01*
X203405Y110827D01*
X203405Y114370D01*
X203215Y114829D01*
X202756Y115020D01*
X200255Y115020D01*
X198878Y116396D01*
X198878Y119882D01*
X198688Y120341D01*
X198228Y120531D01*
X198228Y120531D02*
G37*
G36*
X238189Y138646D02*
X237487Y138507D01*
X236891Y138109D01*
X236493Y137513D01*
X236354Y136811D01*
X236493Y136109D01*
X236891Y135513D01*
X237487Y135116D01*
X237736Y135066D01*
X237736Y132087D01*
X237927Y131627D01*
X238386Y131437D01*
X241535Y131437D01*
X241995Y131627D01*
X242185Y132087D01*
X242185Y135630D01*
X241995Y136089D01*
X241535Y136279D01*
X240428Y136279D01*
X240018Y136779D01*
X240024Y136811D01*
X239884Y137513D01*
X239487Y138109D01*
X238891Y138507D01*
X238189Y138646D01*
X238189Y138646D02*
G37*
G36*
X52953Y120531D02*
X49409Y120531D01*
X48950Y120341D01*
X48760Y119882D01*
X48760Y116732D01*
X48950Y116273D01*
X49409Y116083D01*
X52953Y116083D01*
X53412Y116273D01*
X53602Y116732D01*
X53602Y117390D01*
X54344Y117390D01*
X58012Y113722D01*
X58012Y111221D01*
X58202Y110761D01*
X58661Y110571D01*
X61417Y110571D01*
X61876Y110761D01*
X62067Y111221D01*
X62067Y114764D01*
X61876Y115223D01*
X61417Y115413D01*
X58916Y115413D01*
X55373Y118956D01*
X55076Y119155D01*
X54724Y119225D01*
X53602Y119225D01*
X53602Y119882D01*
X53412Y120341D01*
X52953Y120531D01*
X52953Y120531D02*
G37*
%LPD*%
D10*
X96457Y78740D02*
D03*
X96457Y72835D02*
D03*
X115748Y131693D02*
D03*
X115748Y137598D02*
D03*
D11*
X115551Y87795D02*
D03*
X109646Y87795D02*
D03*
X127756Y147244D02*
D03*
X121850Y147244D02*
D03*
X60039Y112992D02*
D03*
X65945Y112992D02*
D03*
X112598Y112205D02*
D03*
X118504Y112205D02*
D03*
X263583Y147244D02*
D03*
X257677Y147244D02*
D03*
X201378Y112598D02*
D03*
X207283Y112598D02*
D03*
X189173Y51575D02*
D03*
X195079Y51575D02*
D03*
D22*
X106581Y115973D02*
X109055Y113499D01*
X150394Y78740D02*
X150656Y78478D01*
X176369Y78478D02*
X185039Y69807D01*
X150656Y78478D02*
X176369Y78478D01*
X185039Y50787D02*
X185039Y69807D01*
X183839Y50290D02*
X183839Y69310D01*
X176640Y76509D02*
X183839Y69310D01*
X168635Y76509D02*
X176640Y76509D01*
X269685Y83465D02*
X292257Y106037D01*
X269685Y53543D02*
X269685Y83465D01*
X244882Y28740D02*
X269685Y53543D01*
X271004Y82693D02*
X294357Y106046D01*
X271004Y53165D02*
X271004Y82693D01*
X245379Y27540D02*
X271004Y53165D01*
X295276Y110187D02*
X295276Y123753D01*
X292257Y107169D02*
X295276Y110187D01*
X292257Y106037D02*
X292257Y107169D01*
X294357Y106046D02*
X294357Y106299D01*
X255118Y66929D02*
X255118Y70669D01*
X206590Y27540D02*
X245379Y27540D01*
X207087Y28740D02*
X244882Y28740D01*
X185039Y50787D02*
X207087Y28740D01*
X183839Y50290D02*
X206590Y27540D01*
X188976Y51772D02*
X188976Y59055D01*
X192520Y54134D02*
X192520Y63386D01*
X192520Y54134D02*
X195079Y51575D01*
X168504Y76378D02*
X168635Y76509D01*
X169685Y73228D02*
X170866Y74410D01*
X169685Y61810D02*
X169685Y73228D01*
X162992Y55118D02*
X169685Y61810D01*
X258661Y118898D02*
X259842Y120079D01*
X247638Y114173D02*
X247638Y115354D01*
X251181Y118898D01*
X258661Y118898D01*
X107895Y90467D02*
X119671Y90467D01*
X120374Y89764D01*
X146457Y78347D02*
X150019Y74784D01*
X106581Y115973D02*
X106665Y115973D01*
X102362Y124409D02*
X102362Y126772D01*
X102362Y124409D02*
X105118Y121653D01*
X204921Y82677D02*
X206037Y81561D01*
X205512Y57874D02*
X206037Y58399D01*
X206037Y81561D01*
X201313Y67634D02*
X201313Y75065D01*
X200787Y75590D02*
X201313Y75065D01*
X188976Y71653D02*
X193307Y67323D01*
X188976Y71653D02*
X188976Y75197D01*
X199801Y66123D02*
X201313Y67634D01*
X195257Y66123D02*
X199801Y66123D01*
X192520Y63386D02*
X195257Y66123D01*
X188976Y51772D02*
X189173Y51575D01*
X227953Y57874D02*
X229921Y57874D01*
X247244Y57874D02*
X247244Y68596D01*
X247244Y57480D02*
X247244Y57874D01*
X241037Y74803D02*
X247244Y68596D01*
X240551Y74803D02*
X241037Y74803D01*
X253937Y56102D02*
X254528Y56693D01*
X253937Y50394D02*
X253937Y56102D01*
X254528Y71260D02*
X255118Y70669D01*
X229921Y57874D02*
X232283Y55512D01*
X212795Y59646D02*
X212795Y62992D01*
X212795Y59646D02*
X213983Y58458D01*
X193307Y67323D02*
X198031Y67323D01*
X199213Y68504D01*
X214567Y122441D02*
X216901Y124775D01*
X216901Y134646D01*
X213642Y133328D02*
X213642Y134421D01*
X212598Y132284D02*
X213642Y133328D01*
X212598Y125787D02*
X212598Y132284D01*
X211024Y122441D02*
X214567Y122441D01*
X207283Y118701D02*
X211024Y122441D01*
X207283Y112598D02*
X207283Y118701D01*
X196653Y117323D02*
X201378Y112598D01*
X196653Y117323D02*
X196653Y118110D01*
X259842Y120079D02*
X259842Y124016D01*
X257087Y126772D02*
X259842Y124016D01*
X257087Y126772D02*
X257087Y129527D01*
X264173Y136614D01*
X264173Y140748D01*
X257677Y147244D02*
X264173Y140748D01*
X263583Y147244D02*
X267717Y143110D01*
X267717Y141339D02*
X267717Y143110D01*
X260827Y128740D02*
X263779Y125787D01*
X260236Y128740D02*
X260827Y128740D01*
X240158Y118504D02*
X240158Y120472D01*
X245669Y125984D01*
X245669Y133268D01*
X239961Y133858D02*
X239961Y135039D01*
X238189Y136811D02*
X239961Y135039D01*
X220472Y141535D02*
X221457Y141535D01*
X224213Y144291D01*
X196653Y133858D02*
X200787Y133858D01*
X102165Y130512D02*
X102165Y133858D01*
X98819Y127165D02*
X102165Y130512D01*
X121850Y144685D02*
X125984Y140551D01*
X121850Y144685D02*
X121850Y147244D01*
X125984Y131496D02*
X125984Y140551D01*
X125984Y131496D02*
X129921Y127559D01*
X129921Y123622D02*
X129921Y127559D01*
X128347Y122047D02*
X129921Y123622D01*
X124409Y122047D02*
X128347Y122047D01*
X122441Y120079D02*
X124409Y122047D01*
X122441Y110630D02*
X122441Y120079D01*
X120472Y108661D02*
X122441Y110630D01*
X111024Y108661D02*
X120472Y108661D01*
X109055Y110630D02*
X111024Y108661D01*
X109055Y110630D02*
X109055Y113499D01*
X118504Y112205D02*
X118504Y114961D01*
X111811Y121653D02*
X118504Y114961D01*
X105118Y121653D02*
X111811Y121653D01*
X114961Y141732D02*
X115748Y140945D01*
X115748Y137598D02*
X115748Y140945D01*
X127756Y147244D02*
X129921Y145079D01*
X129921Y141339D02*
X129921Y145079D01*
X115748Y131693D02*
X121654Y125787D01*
X125984Y125787D01*
X110039Y118110D02*
X112598Y115551D01*
X112598Y112205D02*
X112598Y115551D01*
X54724Y118307D02*
X60039Y112992D01*
X51181Y118307D02*
X54724Y118307D01*
X76968Y127953D02*
X79921Y127953D01*
X74803Y125787D02*
X76968Y127953D01*
X73622Y122835D02*
X77559Y122835D01*
X65945Y115157D02*
X73622Y122835D01*
X65945Y112992D02*
X65945Y115157D01*
X77559Y122835D02*
X79527Y124803D01*
X82677Y141535D02*
X82677Y143617D01*
X84336Y145276D01*
X58858Y137992D02*
X59055Y138189D01*
X58858Y133858D02*
X58858Y137992D01*
X107218Y76903D02*
X107218Y83661D01*
X105118Y79134D02*
X105512Y79134D01*
X105512Y79134D01*
X98425Y69291D02*
X98425Y70866D01*
X96457Y72835D02*
X98425Y70866D01*
X103149Y68897D02*
X103543Y68897D01*
X105512Y70866D01*
X118307Y82677D02*
X118307Y85039D01*
X115551Y87795D02*
X118307Y85039D01*
X107218Y83661D02*
X109646Y86089D01*
X109646Y87795D01*
X105512Y79134D02*
X105512Y88084D01*
X107895Y90467D01*
X118504Y151575D02*
X129678Y151575D01*
X117717Y150787D02*
X118504Y151575D01*
X129678Y151575D02*
X140358Y140895D01*
X105512Y70866D02*
X105512Y75197D01*
X107218Y76903D01*
X98622Y78740D02*
X102362Y75000D01*
X96457Y78740D02*
X98622Y78740D01*
X57480Y82284D02*
X65748Y82284D01*
X68504Y85039D01*
X55905Y80709D02*
X57480Y82284D01*
X55905Y63976D02*
X55905Y80709D01*
X51181Y59252D02*
X55905Y63976D01*
X53543Y71260D02*
X53543Y72047D01*
X51181Y74410D02*
X53543Y72047D01*
X51181Y74410D02*
X51181Y75000D01*
X67126Y74606D02*
X67716Y74016D01*
X67126Y74606D02*
X67126Y78740D01*
X82677Y66732D02*
X84055Y66732D01*
X85827Y68504D01*
X114441Y56299D02*
X118307Y60165D01*
X118307Y66929D01*
X129921Y61811D02*
X129921Y64960D01*
X94488Y55512D02*
X94488Y59252D01*
X94488Y55512D02*
X94488Y55512D01*
X48228Y53975D02*
X48228Y58071D01*
X46260Y60039D02*
X48228Y58071D01*
X116535Y48425D02*
X129921Y61811D01*
X135433Y66142D02*
X135433Y66929D01*
X120866Y49213D02*
X132433Y60779D01*
X129921Y61811D02*
X129921Y61811D01*
X132433Y60779D02*
X132433Y67085D01*
X135433Y66142D02*
X138189Y63386D01*
X138189Y63386D02*
X138189Y63386D01*
X138403Y60630D02*
X140289Y62516D01*
X140289Y64256D01*
X136221Y60630D02*
X138403Y60630D01*
X138582Y65962D02*
X140289Y64256D01*
X138582Y65962D02*
X138582Y68110D01*
X155248Y19161D02*
X160911Y19161D01*
X146063Y75197D02*
X148819Y72440D01*
X157874Y14134D02*
X162165Y14134D01*
X160911Y19161D02*
X162992Y21242D01*
X162165Y14134D02*
X164567Y16535D01*
X148819Y25591D02*
X155248Y19161D01*
X150019Y31989D02*
X157874Y24134D01*
X148819Y25591D02*
X148819Y72440D01*
X150019Y31989D02*
X150019Y74784D01*
X164567Y16535D02*
X164567Y31102D01*
X162992Y21242D02*
X162992Y29016D01*
X157874Y34134D02*
X162992Y29016D01*
X162992Y32677D02*
X164567Y31102D01*
X162992Y32677D02*
X162992Y55118D01*
X157874Y34921D02*
X158268Y34528D01*
X142963Y140895D02*
X144488Y139370D01*
X140358Y140895D02*
X142963Y140895D01*
D24*
X238361Y47205D02*
X238787Y46779D01*
X99488Y42992D02*
X99488Y50276D01*
X94036Y31811D02*
X94036Y50728D01*
X83130Y31811D02*
X83130Y50728D01*
X72224Y31811D02*
X72224Y49823D01*
X66772Y42992D02*
X66772Y49370D01*
X253937Y63386D02*
X258268Y63386D01*
X250787Y60236D02*
X253937Y63386D01*
X209694Y34420D02*
X209694Y48574D01*
X196850Y56299D02*
X204567Y48583D01*
X196850Y56299D02*
X196850Y62795D01*
X202165Y78937D02*
X203937Y77165D01*
X203937Y61417D02*
X203937Y77165D01*
X201969Y59449D02*
X203937Y61417D01*
X196850Y78937D02*
X202165Y78937D01*
X201969Y56299D02*
X201969Y59449D01*
X201969Y56299D02*
X209694Y48574D01*
X208661Y54724D02*
X208661Y74803D01*
X192913Y72047D02*
X192913Y82284D01*
X192913Y72047D02*
X193701Y71260D01*
X192913Y82284D02*
X194881Y84252D01*
X243850Y56055D02*
X243850Y66488D01*
X244291Y66929D01*
X238361Y50566D02*
X243850Y56055D01*
X250787Y53937D02*
X250787Y60236D01*
X248425Y51575D02*
X250787Y53937D01*
X244488Y51575D02*
X248425Y51575D01*
X242736Y49823D02*
X244488Y51575D01*
X242736Y34095D02*
X242736Y49823D01*
X231831Y48366D02*
X240158Y56693D01*
X238361Y47205D02*
X238361Y50566D01*
X240158Y56693D02*
X240158Y59252D01*
X231831Y34095D02*
X231831Y48366D01*
X207724Y125047D02*
X207724Y141101D01*
X204724Y122047D02*
X207724Y125047D01*
X252512Y125441D02*
X252512Y138827D01*
X242736Y148602D02*
X252512Y138827D01*
X237283Y148150D02*
X248669Y136764D01*
X248669Y122882D02*
X248669Y136764D01*
X252512Y125441D02*
X255906Y122047D01*
X212598Y140551D02*
X220925Y148878D01*
X212598Y137795D02*
X212598Y140551D01*
X207724Y141101D02*
X215472Y148849D01*
X111024Y129134D02*
X118110Y122047D01*
X122047Y137598D02*
X122047Y139764D01*
X110394Y151417D02*
X122047Y139764D01*
X104941Y150177D02*
X111024Y144095D01*
X111024Y129134D02*
X111024Y144095D01*
X99488Y149331D02*
X106299Y142520D01*
X106299Y125984D02*
X106299Y142520D01*
X110394Y151417D02*
X110394Y153858D01*
X94035Y146122D02*
X98425Y141732D01*
X94035Y146122D02*
X94035Y165039D01*
X83130Y150059D02*
X83130Y165039D01*
X63142Y126134D02*
X63142Y141882D01*
X72224Y150965D01*
X66291Y122685D02*
X66291Y139126D01*
X77677Y150512D01*
X74803Y137795D02*
X74803Y141732D01*
X114173Y69685D02*
X119291Y74803D01*
X114173Y61811D02*
X114173Y69685D01*
X111024Y58661D02*
X114173Y61811D01*
X119291Y74803D02*
X122047Y74803D01*
X110236Y76378D02*
X110236Y78740D01*
X107874Y74016D02*
X110236Y76378D01*
X107874Y58661D02*
X107874Y74016D01*
X99488Y50276D02*
X107874Y58661D01*
X59055Y78434D02*
X66535Y70954D01*
X66535Y55512D02*
X66535Y70954D01*
X59055Y78434D02*
X59055Y78740D01*
X111024Y54809D02*
X111024Y58661D01*
X104921Y48707D02*
X111024Y54809D01*
X104921Y33779D02*
X104921Y48707D01*
X111024Y64567D02*
X111024Y71653D01*
X248031Y122244D02*
X248669Y122882D01*
X55118Y141732D02*
X55118Y142205D01*
X66772Y153858D01*
X66291Y122685D02*
X66929Y122047D01*
X66535Y55512D02*
X72224Y49823D01*
X70866Y57480D02*
X77658Y50689D01*
X70866Y57480D02*
X70866Y70866D01*
X59055Y122047D02*
X63142Y126134D01*
X200787Y125984D02*
X204724Y129921D01*
X192913Y125984D02*
X200787Y125984D01*
X204724Y129921D02*
X204724Y143701D01*
X210020Y148996D01*
X192913Y141732D02*
X204567Y153386D01*
X242736Y148602D02*
X242736Y165039D01*
X231831Y146122D02*
X236221Y141732D01*
X210020Y148996D02*
X210020Y165039D01*
X204567Y153386D02*
X204567Y153858D01*
X208661Y54724D02*
X215472Y47913D01*
X204567Y45276D02*
X204567Y48583D01*
X220925Y34095D02*
X220925Y50728D01*
X216535Y55118D02*
X220925Y50728D01*
X104615Y32137D02*
X104941Y31811D01*
X77658Y44961D02*
X77658Y50689D01*
X74803Y59055D02*
X83130Y50728D01*
X74803Y59055D02*
X74803Y62992D01*
X102362Y59055D02*
X102362Y62992D01*
X94036Y50728D02*
X102362Y59055D01*
X59055Y57087D02*
X59055Y62992D01*
X59055Y57087D02*
X66772Y49370D01*
X237283Y45276D02*
X238787Y46779D01*
X215472Y45276D02*
X215472Y47913D01*
X209694Y34420D02*
X210020Y34095D01*
X258858Y137598D02*
X259842Y137598D01*
X248189Y148268D02*
X258858Y137598D01*
X248189Y148268D02*
X248189Y153858D01*
X237283Y148150D02*
X237283Y153858D01*
X220925Y148878D02*
X220925Y165039D01*
X231831Y146122D02*
X231831Y165039D01*
X215472Y148849D02*
X215472Y153858D01*
X74803Y141732D02*
X83130Y150059D01*
X77677Y150512D02*
X77677Y153858D01*
X72224Y150965D02*
X72224Y165039D01*
X74803Y137795D02*
X74803Y137795D01*
X110374Y46506D02*
X115293Y51425D01*
X110374Y44961D02*
X110374Y46506D01*
X115293Y51425D02*
X115293Y51425D01*
X122047Y58180D01*
X122047Y59055D01*
X99488Y149331D02*
X99488Y153858D01*
X104941Y150177D02*
X104941Y165039D01*
X111024Y71653D02*
X116535Y77165D01*
X116535Y77559D01*
X248189Y45276D02*
X254724Y45276D01*
X258268Y48819D01*
X194881Y84252D02*
X194881Y84252D01*
D25*
X139085Y71763D02*
X141340Y71763D01*
X141482Y71904D01*
X146063Y67323D01*
X146063Y62598D02*
X146063Y67323D01*
D29*
X267717Y98425D02*
D03*
X307087Y98425D02*
D03*
D30*
X204567Y45276D02*
D03*
X210020Y34095D02*
D03*
X215472Y45276D02*
D03*
X220925Y34095D02*
D03*
X226378Y45276D02*
D03*
X231831Y34095D02*
D03*
X237283Y45276D02*
D03*
X242736Y34095D02*
D03*
X248189Y153858D02*
D03*
X242736Y165039D02*
D03*
X237283Y153858D02*
D03*
X231831Y165039D02*
D03*
X226378Y153858D02*
D03*
X220925Y165039D02*
D03*
X215472Y153858D02*
D03*
X210020Y165039D02*
D03*
X110394Y153858D02*
D03*
X104941Y165039D02*
D03*
X99488Y153858D02*
D03*
X94035Y165039D02*
D03*
X88583Y153858D02*
D03*
X83130Y165039D02*
D03*
X77677Y153858D02*
D03*
X72224Y165039D02*
D03*
X66772Y153858D02*
D03*
X66752Y44961D02*
D03*
X72205Y33779D02*
D03*
X77658Y44961D02*
D03*
X83110Y33779D02*
D03*
X88563Y44961D02*
D03*
X94016Y33779D02*
D03*
X99468Y44961D02*
D03*
X104921Y33779D02*
D03*
D31*
X248189Y45276D02*
D03*
X204567Y153858D02*
D03*
X110374Y44961D02*
D03*
D32*
X275571Y39685D02*
D03*
X177185Y39685D02*
D03*
X177185Y159449D02*
D03*
X275571Y159449D02*
D03*
X39390Y159449D02*
D03*
X137776Y159449D02*
D03*
X137756Y39370D02*
D03*
X39370Y39370D02*
D03*
D33*
X334646Y128425D02*
D03*
X334646Y108425D02*
D03*
X334646Y88425D02*
D03*
X334646Y68425D02*
D03*
X157874Y24134D02*
D03*
X157874Y34134D02*
D03*
X157874Y44134D02*
D03*
X7087Y145000D02*
D03*
D34*
X157874Y14134D02*
D03*
D35*
X7087Y155000D02*
D03*
D36*
X39370Y131890D02*
D03*
X39370Y112205D02*
D03*
X39370Y64961D02*
D03*
X39370Y84646D02*
D03*
X177165Y64961D02*
D03*
X177165Y84646D02*
D03*
X177165Y131890D02*
D03*
X177165Y112205D02*
D03*
D37*
X285433Y62992D02*
D03*
X305118Y62992D02*
D03*
X285433Y133858D02*
D03*
X305118Y133858D02*
D03*
D38*
X295276Y123753D02*
D03*
X255118Y66929D02*
D03*
X168504Y76378D02*
D03*
X170866Y74410D02*
D03*
X150394Y78740D02*
D03*
X247638Y114173D02*
D03*
X120374Y89764D02*
D03*
X146457Y78347D02*
D03*
X106665Y115973D02*
D03*
X102362Y126772D02*
D03*
X200787Y75590D02*
D03*
X227953Y57874D02*
D03*
X247244Y57874D02*
D03*
X253937Y50394D02*
D03*
X213983Y58458D02*
D03*
X205512Y57874D02*
D03*
X199213Y68504D02*
D03*
X216901Y134646D02*
D03*
X213642Y134421D02*
D03*
X260236Y128740D02*
D03*
X245669Y133268D02*
D03*
X238189Y136811D02*
D03*
X224213Y144291D02*
D03*
X200787Y133858D02*
D03*
X98819Y127165D02*
D03*
X114961Y141732D02*
D03*
X79527Y124803D02*
D03*
X79921Y127953D02*
D03*
X84336Y145276D02*
D03*
X59055Y138189D02*
D03*
X105118Y79134D02*
D03*
X98425Y69291D02*
D03*
X103149Y68897D02*
D03*
X117717Y150787D02*
D03*
X68504Y85039D02*
D03*
X53543Y71260D02*
D03*
X67716Y74016D02*
D03*
X85827Y68504D02*
D03*
X114441Y56299D02*
D03*
X111024Y64567D02*
D03*
X129921Y64960D02*
D03*
X94488Y55512D02*
D03*
X46260Y60039D02*
D03*
X48228Y53975D02*
D03*
X120866Y49213D02*
D03*
X116535Y48425D02*
D03*
X136221Y60630D02*
D03*
X135433Y66929D02*
D03*
X132433Y67085D02*
D03*
X138189Y63386D02*
D03*
X116535Y77559D02*
D03*
X138582Y68110D02*
D03*
X146063Y75197D02*
D03*
X294357Y106299D02*
D03*
X193701Y71260D02*
D03*
X194881Y84252D02*
D03*
X144488Y139370D02*
D03*
D39*
X139085Y71763D02*
D03*
X146063Y62598D02*
D03*
D40*
X122047Y137598D02*
D03*
X129921Y133858D02*
D03*
X129921Y141339D02*
D03*
X118110Y122047D02*
D03*
X125984Y118307D02*
D03*
X125984Y125787D02*
D03*
X59055Y122047D02*
D03*
X51181Y125787D02*
D03*
X51181Y118307D02*
D03*
X66929Y122047D02*
D03*
X74803Y118307D02*
D03*
X74803Y125787D02*
D03*
X74803Y137795D02*
D03*
X82677Y134055D02*
D03*
X82677Y141535D02*
D03*
X259842Y137598D02*
D03*
X267717Y133858D02*
D03*
X267717Y141339D02*
D03*
X255906Y122047D02*
D03*
X263779Y118307D02*
D03*
X263779Y125787D02*
D03*
X248031Y122244D02*
D03*
X240158Y125984D02*
D03*
X240158Y118504D02*
D03*
X204724Y122047D02*
D03*
X212598Y118307D02*
D03*
X212598Y125787D02*
D03*
X212598Y137795D02*
D03*
X220472Y134055D02*
D03*
X220472Y141535D02*
D03*
X196850Y62795D02*
D03*
X188976Y66535D02*
D03*
X188976Y59055D02*
D03*
X196850Y78937D02*
D03*
X188976Y82677D02*
D03*
X188976Y75197D02*
D03*
X240158Y59252D02*
D03*
X232283Y62992D02*
D03*
X232283Y55512D02*
D03*
X59055Y62992D02*
D03*
X51181Y66732D02*
D03*
X51181Y59252D02*
D03*
X59055Y78740D02*
D03*
X51181Y82480D02*
D03*
X51181Y75000D02*
D03*
X74803Y62992D02*
D03*
X82677Y59252D02*
D03*
X82677Y66732D02*
D03*
X110236Y78740D02*
D03*
X102362Y82480D02*
D03*
X102362Y75000D02*
D03*
X102362Y62992D02*
D03*
X94488Y66732D02*
D03*
X94488Y59252D02*
D03*
D41*
X106299Y125984D02*
D03*
X102559Y118110D02*
D03*
X110039Y118110D02*
D03*
X98425Y141732D02*
D03*
X94685Y133858D02*
D03*
X102165Y133858D02*
D03*
X55118Y141732D02*
D03*
X51378Y133858D02*
D03*
X58858Y133858D02*
D03*
X236221Y141732D02*
D03*
X232480Y133858D02*
D03*
X239961Y133858D02*
D03*
X192913Y141732D02*
D03*
X189173Y133858D02*
D03*
X196653Y133858D02*
D03*
X192913Y125984D02*
D03*
X189173Y118110D02*
D03*
X196653Y118110D02*
D03*
X208661Y74803D02*
D03*
X212402Y82677D02*
D03*
X204921Y82677D02*
D03*
X216535Y55118D02*
D03*
X220276Y62992D02*
D03*
X212795Y62992D02*
D03*
X258268Y48819D02*
D03*
X262008Y56693D02*
D03*
X254528Y56693D02*
D03*
X258268Y63386D02*
D03*
X262008Y71260D02*
D03*
X254528Y71260D02*
D03*
X244291Y66929D02*
D03*
X248031Y74803D02*
D03*
X240551Y74803D02*
D03*
X70866Y70866D02*
D03*
X74606Y78740D02*
D03*
X67126Y78740D02*
D03*
X122047Y59055D02*
D03*
X125787Y66929D02*
D03*
X118307Y66929D02*
D03*
X122047Y74803D02*
D03*
X125787Y82677D02*
D03*
X118307Y82677D02*
D03*
D42*
X7087Y152362D02*
D03*
X7087Y148425D02*
D03*
D43*
X39370Y159429D02*
X39390Y159449D01*
X177165Y159429D02*
X177185Y159449D01*
X177165Y131890D02*
X177165Y159429D01*
X177165Y39705D02*
X177185Y39685D01*
X177165Y39705D02*
X177165Y64961D01*
M02*
