G04 Layer_Color=128*
%FSLAX25Y25*%
%MOIN*%
G70*
G01*
G75*
%ADD41R,0.03543X0.03150*%
%ADD42R,0.03150X0.03543*%
%ADD43R,0.03937X0.02362*%
D41*
X267717Y141339D02*
D03*
Y133858D02*
D03*
X259842Y137598D02*
D03*
X263779Y125787D02*
D03*
Y118307D02*
D03*
X255906Y122047D02*
D03*
X240158Y118504D02*
D03*
Y125984D02*
D03*
X248031Y122244D02*
D03*
X220472Y141535D02*
D03*
Y134055D02*
D03*
X212598Y137795D02*
D03*
X212598Y125787D02*
D03*
Y118307D02*
D03*
X204724Y122047D02*
D03*
X129921Y141339D02*
D03*
Y133858D02*
D03*
X122047Y137598D02*
D03*
X125984Y125787D02*
D03*
Y118307D02*
D03*
X118110Y122047D02*
D03*
X82677Y141535D02*
D03*
Y134055D02*
D03*
X74803Y137795D02*
D03*
Y125787D02*
D03*
Y118307D02*
D03*
X66929Y122047D02*
D03*
X51181Y118307D02*
D03*
Y125787D02*
D03*
X59055Y122047D02*
D03*
X102362Y75000D02*
D03*
Y82480D02*
D03*
X110236Y78740D02*
D03*
X94488Y59252D02*
D03*
Y66732D02*
D03*
X102362Y62992D02*
D03*
X82677Y66732D02*
D03*
Y59252D02*
D03*
X74803Y62992D02*
D03*
X51181Y75000D02*
D03*
Y82480D02*
D03*
X59055Y78740D02*
D03*
X51181Y59252D02*
D03*
Y66732D02*
D03*
X59055Y62992D02*
D03*
X188976Y75197D02*
D03*
Y82677D02*
D03*
X196850Y78937D02*
D03*
X188976Y59055D02*
D03*
Y66535D02*
D03*
X196850Y62795D02*
D03*
X232283Y55512D02*
D03*
Y62992D02*
D03*
X240158Y59252D02*
D03*
D42*
X239961Y133858D02*
D03*
X232480D02*
D03*
X236221Y141732D02*
D03*
X196653Y118110D02*
D03*
X189173D02*
D03*
X192913Y125984D02*
D03*
X196653Y133858D02*
D03*
X189173D02*
D03*
X192913Y141732D02*
D03*
X110039Y118110D02*
D03*
X102559D02*
D03*
X106299Y125984D02*
D03*
X102165Y133858D02*
D03*
X94685D02*
D03*
X98425Y141732D02*
D03*
X58858Y133858D02*
D03*
X51378D02*
D03*
X55118Y141732D02*
D03*
X118307Y82677D02*
D03*
X125787D02*
D03*
X122047Y74803D02*
D03*
X118307Y66929D02*
D03*
X125787D02*
D03*
X122047Y59055D02*
D03*
X67126Y78740D02*
D03*
X74606D02*
D03*
X70866Y70866D02*
D03*
X240551Y74803D02*
D03*
X248031D02*
D03*
X244291Y66929D02*
D03*
X254528Y71260D02*
D03*
X262008D02*
D03*
X258268Y63386D02*
D03*
X254528Y56693D02*
D03*
X262008D02*
D03*
X258268Y48819D02*
D03*
X204921Y82677D02*
D03*
X212402D02*
D03*
X208661Y74803D02*
D03*
X212795Y62992D02*
D03*
X220276D02*
D03*
X216535Y55118D02*
D03*
D43*
X7087Y148425D02*
D03*
Y152362D02*
D03*
M02*
