M48
;Layer_Color=9474304
;FILE_FORMAT=2:5
INCH,LZ
;TYPE=PLATED
T1F00S00C0.01200
T2F00S00C0.01600
T3F00S00C0.02400
T4F00S00C0.03150
T5F00S00C0.03937
T6F00S00C0.04291
T7F00S00C0.04724
T8F00S00C0.06299
T9F00S00C0.06693
T10F00S00C0.12835
;TYPE=NON_PLATED
T11F00S00C0.12598
%
T01
X0048228Y0053975
X004626Y0060039
X0053543Y007126
X0067716Y0074016
X0068504Y0085039
X0085827Y0068504
X0098425Y0069291
X0103149Y0068897
X0105118Y0079134
X0111024Y0064567
X0114441Y0056299
X0116535Y0048425
X0120866Y0049213
X0129921Y006496
X0132433Y0067085
X0135433Y0066929
X0138582Y006811
X0138189Y0063386
X0136221Y006063
X0146063Y0075197
X0146457Y0078347
X0150394Y007874
X0120374Y0089764
X0094488Y0055512
X0168504Y0076378
X0170866Y007441
X0193701Y007126
X0199213Y0068504
X0200787Y007559
X0194881Y0084252
X0205512Y0057874
X0213983Y0058458
X0227953Y0057874
X0247244
X0253937Y0050394
X0255118Y0066929
X0247638Y0114173
X0245669Y0133268
X0238189Y0136811
X0224213Y0144291
X0216901Y0134646
X0213642Y0134421
X0200787Y0133858
X0260236Y012874
X0295276Y0123753
X0294357Y0106299
X0144488Y013937
X0114961Y0141732
X0117717Y0150787
X0084336Y0145276
X0079921Y0127953
X0079527Y0124803
X0098819Y0127165
X0102362Y0126772
X0106665Y0115973
X0059055Y0138189
T02
X0116535Y0077559
T03
X0146063Y0062598
X0139085Y0071763
T04
X003937Y0064961
Y0084646
X0177165
Y0064961
Y0112205
Y013189
X003937
Y0112205
T05
X0157874Y0014134
Y0024134
Y0034134
Y0044134
X0007087Y0145
Y0155
T06
X0072205Y0033779
X008311
X0094016
X0104921
X0110374Y0044961
X0099468
X0088563
X0077658
X0066752
X0204567Y0045276
X0215472
X0226378
X0237283
X0248189
X0242736Y0034095
X0231831
X0220925
X021002
X0215472Y0153858
X0226378
X0237283
X0248189
X0242736Y0165039
X0231831
X0220925
X021002
X0204567Y0153858
X0110394
X0099488
X0088583
X0077677
X0066772
X0072224Y0165039
X008313
X0094035
X0104941
T07
X0334646Y0068425
Y0088425
Y0108425
Y0128425
T08
X0285433Y0062992
X0305118
Y0133858
X0285433
T09
X0267717Y0098425
X0307087
T10
X003937Y003937
X0137756
X0177185Y0039685
X0275571
X0275571Y0159449
X0177185
X0137776
X003939
T11
X0011811Y0019685
X015748Y0062992
X0326772Y0019685
Y0177165
X015748Y0133858
X0011811Y0177165
M30
