G04 Layer_Color=32896*
%FSLAX25Y25*%
%MOIN*%
G70*
G01*
G75*
%ADD45C,0.00984*%
%ADD47C,0.00787*%
D45*
X94980Y55512D02*
G03*
X94980Y55512I-492J0D01*
G01*
X102854Y71260D02*
G03*
X102854Y71260I-492J0D01*
G01*
X115059Y82677D02*
G03*
X115059Y82677I-492J0D01*
G01*
X115059Y66929D02*
G03*
X115059Y66929I-492J0D01*
G01*
X83169Y70473D02*
G03*
X83169Y70473I-492J0D01*
G01*
X63878Y78740D02*
G03*
X63878Y78740I-492J0D01*
G01*
X51673Y71260D02*
G03*
X51673Y71260I-492J0D01*
G01*
X51673Y55512D02*
G03*
X51673Y55512I-492J0D01*
G01*
X232776Y51772D02*
G03*
X232776Y51772I-492J0D01*
G01*
X237303Y74803D02*
G03*
X237303Y74803I-492J0D01*
G01*
X251279Y71260D02*
G03*
X251279Y71260I-492J0D01*
G01*
X251279Y56693D02*
G03*
X251279Y56693I-492J0D01*
G01*
X209547Y62992D02*
G03*
X209547Y62992I-492J0D01*
G01*
X201673Y82677D02*
G03*
X201673Y82677I-492J0D01*
G01*
X189469Y71457D02*
G03*
X189469Y71457I-492J0D01*
G01*
X189469Y55315D02*
G03*
X189469Y55315I-492J0D01*
G01*
X220965Y145276D02*
G03*
X220965Y145276I-492J0D01*
G01*
X213091Y129528D02*
G03*
X213091Y129528I-492J0D01*
G01*
X200886Y118110D02*
G03*
X200886Y118110I-492J0D01*
G01*
X200886Y133858D02*
G03*
X200886Y133858I-492J0D01*
G01*
X244193Y133858D02*
G03*
X244193Y133858I-492J0D01*
G01*
X240650Y114764D02*
G03*
X240650Y114764I-492J0D01*
G01*
X264272Y129528D02*
G03*
X264272Y129528I-492J0D01*
G01*
X268209Y145079D02*
G03*
X268209Y145079I-492J0D01*
G01*
X83169Y145276D02*
G03*
X83169Y145276I-492J0D01*
G01*
X75295Y129528D02*
G03*
X75295Y129528I-492J0D01*
G01*
X51673Y114567D02*
G03*
X51673Y114567I-492J0D01*
G01*
X63091Y133858D02*
G03*
X63091Y133858I-492J0D01*
G01*
X106398Y133858D02*
G03*
X106398Y133858I-492J0D01*
G01*
X114272Y118110D02*
G03*
X114272Y118110I-492J0D01*
G01*
X126476Y129528D02*
G03*
X126476Y129528I-492J0D01*
G01*
X130413Y145079D02*
G03*
X130413Y145079I-492J0D01*
G01*
D47*
X191339Y52953D02*
X192913Y52953D01*
X191339Y50197D02*
X192913Y50197D01*
X203543Y113976D02*
X205118Y113976D01*
X203543Y111221D02*
X205118Y111221D01*
X259842Y145866D02*
X261417Y145866D01*
X259842Y148622D02*
X261417Y148622D01*
X114764Y113583D02*
X116339Y113583D01*
X114764Y110827D02*
X116339Y110827D01*
X62205Y114370D02*
X63779Y114370D01*
X62205Y111614D02*
X63779Y111614D01*
X124016Y145866D02*
X125591Y145866D01*
X124016Y148622D02*
X125591Y148622D01*
X114370Y133858D02*
X114370Y135433D01*
X117126Y133858D02*
X117126Y135433D01*
X97835Y75000D02*
X97835Y76575D01*
X95079Y75000D02*
X95079Y76575D01*
X111811Y86417D02*
X113386Y86417D01*
X111811Y89173D02*
X113386Y89173D01*
X97776Y57244D02*
X100984Y57244D01*
X100984Y59842D01*
X97776Y68740D02*
X100984Y68740D01*
X100984Y66142D02*
X100984Y68740D01*
X105650Y72992D02*
X108858Y72992D01*
X108858Y75590D01*
X105650Y84488D02*
X108858Y84488D01*
X108858Y81890D02*
X108858Y84488D01*
X116299Y76181D02*
X116299Y79390D01*
X116299Y76181D02*
X118898Y76181D01*
X127795Y76181D02*
X127795Y79390D01*
X125197Y76181D02*
X127795Y76181D01*
X116299Y60433D02*
X116299Y63642D01*
X116299Y60433D02*
X118898Y60433D01*
X127795Y60433D02*
X127795Y63642D01*
X125197Y60433D02*
X127795Y60433D01*
X76181Y68740D02*
X79390Y68740D01*
X76181Y66142D02*
X76181Y68740D01*
X76181Y57244D02*
X79390Y57244D01*
X76181Y57244D02*
X76181Y59842D01*
X65118Y72244D02*
X65118Y75453D01*
X65118Y72244D02*
X67716Y72244D01*
X76614Y72244D02*
X76614Y75453D01*
X74016Y72244D02*
X76614Y72244D01*
X54469Y72992D02*
X57677Y72992D01*
X57677Y75590D01*
X54469Y84488D02*
X57677Y84488D01*
X57677Y81890D02*
X57677Y84488D01*
X54469Y57244D02*
X57677Y57244D01*
X57677Y59842D01*
X54469Y68740D02*
X57677Y68740D01*
X57677Y66142D02*
X57677Y68740D01*
X235571Y53504D02*
X238779Y53504D01*
X238779Y56102D01*
X235571Y65000D02*
X238779Y65000D01*
X238779Y62402D02*
X238779Y65000D01*
X238543Y68307D02*
X238543Y71516D01*
X238543Y68307D02*
X241142Y68307D01*
X250039Y68307D02*
X250039Y71516D01*
X247441Y68307D02*
X250039Y68307D01*
X252520Y64764D02*
X252520Y67972D01*
X252520Y64764D02*
X255118Y64764D01*
X264016Y64764D02*
X264016Y67972D01*
X261417Y64764D02*
X264016Y64764D01*
X252520Y50197D02*
X252520Y53405D01*
X252520Y50197D02*
X255118Y50197D01*
X264016Y50197D02*
X264016Y53405D01*
X261417Y50197D02*
X264016Y50197D01*
X210787Y56496D02*
X210787Y59705D01*
X210787Y56496D02*
X213386Y56496D01*
X222284Y56496D02*
X222284Y59705D01*
X219685Y56496D02*
X222284Y56496D01*
X202913Y76181D02*
X202913Y79390D01*
X202913Y76181D02*
X205512Y76181D01*
X214409Y76181D02*
X214409Y79390D01*
X211811Y76181D02*
X214409Y76181D01*
X192264Y73189D02*
X195472Y73189D01*
X195472Y75787D01*
X192264Y84685D02*
X195472Y84685D01*
X195472Y82087D02*
X195472Y84685D01*
X192264Y57047D02*
X195472Y57047D01*
X195472Y59646D01*
X192264Y68543D02*
X195472Y68543D01*
X195472Y65945D02*
X195472Y68543D01*
X213976Y143543D02*
X217185Y143543D01*
X213976Y140945D02*
X213976Y143543D01*
X213976Y132047D02*
X217185Y132047D01*
X213976Y132047D02*
X213976Y134646D01*
X206102Y127795D02*
X209311Y127795D01*
X206102Y125197D02*
X206102Y127795D01*
X206102Y116299D02*
X209311Y116299D01*
X206102Y116299D02*
X206102Y118898D01*
X198661Y121398D02*
X198661Y124606D01*
X196063Y124606D02*
X198661Y124606D01*
X187165Y121398D02*
X187165Y124606D01*
X189764Y124606D01*
X198661Y137146D02*
X198661Y140354D01*
X196063Y140354D02*
X198661Y140354D01*
X187165Y137146D02*
X187165Y140354D01*
X189764Y140354D01*
X241968Y137146D02*
X241968Y140354D01*
X239370Y140354D02*
X241968Y140354D01*
X230472Y137146D02*
X230472Y140354D01*
X233071Y140354D01*
X243445Y116496D02*
X246654Y116496D01*
X246654Y119095D01*
X243445Y127992D02*
X246654Y127992D01*
X246654Y125394D02*
X246654Y127992D01*
X257283Y127795D02*
X260492Y127795D01*
X257283Y125197D02*
X257283Y127795D01*
X257283Y116299D02*
X260492Y116299D01*
X257283Y116299D02*
X257283Y118898D01*
X261221Y143347D02*
X264429Y143347D01*
X261221Y140748D02*
X261221Y143347D01*
X261221Y131850D02*
X264429Y131850D01*
X261221Y131850D02*
X261221Y134449D01*
X76181Y143543D02*
X79390Y143543D01*
X76181Y140945D02*
X76181Y143543D01*
X76181Y132047D02*
X79390Y132047D01*
X76181Y132047D02*
X76181Y134646D01*
X68307Y127795D02*
X71516Y127795D01*
X68307Y125197D02*
X68307Y127795D01*
X68307Y116299D02*
X71516Y116299D01*
X68307Y116299D02*
X68307Y118898D01*
X54469Y116299D02*
X57677Y116299D01*
X57677Y118898D01*
X54469Y127795D02*
X57677Y127795D01*
X57677Y125197D02*
X57677Y127795D01*
X60866Y137146D02*
X60866Y140354D01*
X58268Y140354D02*
X60866Y140354D01*
X49370Y137146D02*
X49370Y140354D01*
X51968Y140354D01*
X104173Y137146D02*
X104173Y140354D01*
X101575Y140354D02*
X104173Y140354D01*
X92677Y137146D02*
X92677Y140354D01*
X95276Y140354D01*
X112047Y121398D02*
X112047Y124606D01*
X109449Y124606D02*
X112047Y124606D01*
X100551Y121398D02*
X100551Y124606D01*
X103150Y124606D01*
X119488Y127795D02*
X122697Y127795D01*
X119488Y125197D02*
X119488Y127795D01*
X119488Y116299D02*
X122697Y116299D01*
X119488Y116299D02*
X119488Y118898D01*
X123425Y143347D02*
X126634Y143347D01*
X123425Y140748D02*
X123425Y143347D01*
X123425Y131850D02*
X126634Y131850D01*
X123425Y131850D02*
X123425Y134449D01*
M02*
