G04 Layer_Color=8421504*
%FSLAX25Y25*%
%MOIN*%
G70*
G01*
G75*
%ADD10R,0.19685X0.05905*%
%ADD11C,0.07874*%
%ADD12R,0.02756X0.03543*%
%ADD13R,0.03543X0.02756*%
%ADD14R,0.07008X0.12402*%
%ADD15R,0.12402X0.07008*%
%ADD16R,0.05905X0.05512*%
%ADD17R,0.05512X0.05905*%
%ADD18O,0.01378X0.05905*%
%ADD19R,0.03937X0.03937*%
%ADD20R,0.07480X0.04331*%
G04:AMPARAMS|DCode=21|XSize=25.59mil|YSize=64.96mil|CornerRadius=1.92mil|HoleSize=0mil|Usage=FLASHONLY|Rotation=90.000|XOffset=0mil|YOffset=0mil|HoleType=Round|Shape=RoundedRectangle|*
%AMROUNDEDRECTD21*
21,1,0.02559,0.06112,0,0,90.0*
21,1,0.02175,0.06496,0,0,90.0*
1,1,0.00384,0.03056,0.01088*
1,1,0.00384,0.03056,-0.01088*
1,1,0.00384,-0.03056,-0.01088*
1,1,0.00384,-0.03056,0.01088*
%
%ADD21ROUNDEDRECTD21*%
D10*
X177165Y95472D02*
D03*
D11*
X122835Y141339D02*
D03*
X124016Y125591D02*
D03*
X135827Y156496D02*
D03*
X125984D02*
D03*
X122047Y104724D02*
D03*
X120866Y114567D02*
D03*
D12*
X152559Y110236D02*
D03*
X146653D02*
D03*
X76968Y84646D02*
D03*
X71063D02*
D03*
X76968Y112992D02*
D03*
X71063D02*
D03*
X182087Y175197D02*
D03*
X187992D02*
D03*
X76181Y99213D02*
D03*
X70276D02*
D03*
X105315Y163386D02*
D03*
X111221D02*
D03*
D13*
X157480Y154528D02*
D03*
Y160433D02*
D03*
X146653Y159449D02*
D03*
Y165354D02*
D03*
X118110Y148622D02*
D03*
Y154528D02*
D03*
X75590Y119882D02*
D03*
Y125787D02*
D03*
X76772Y168307D02*
D03*
Y162402D02*
D03*
X61024Y168307D02*
D03*
Y162402D02*
D03*
X53150Y168307D02*
D03*
Y162402D02*
D03*
X131890Y141732D02*
D03*
Y147638D02*
D03*
X145669Y95472D02*
D03*
Y89567D02*
D03*
X68898Y168307D02*
D03*
Y162402D02*
D03*
X137795Y95472D02*
D03*
Y89567D02*
D03*
D14*
X49902Y37008D02*
D03*
X63484D02*
D03*
D15*
X53543Y145768D02*
D03*
Y132185D02*
D03*
D16*
X127953Y210630D02*
D03*
Y218504D02*
D03*
D17*
X175197Y204724D02*
D03*
X167323D02*
D03*
D18*
X139370Y121653D02*
D03*
X141929D02*
D03*
X144488D02*
D03*
X147047D02*
D03*
X149606D02*
D03*
X152165D02*
D03*
X154724D02*
D03*
X157283D02*
D03*
X159843D02*
D03*
X162402D02*
D03*
X139370Y143701D02*
D03*
X141929D02*
D03*
X144488D02*
D03*
X147047D02*
D03*
X149606D02*
D03*
X152165D02*
D03*
X154724D02*
D03*
X157283D02*
D03*
X159843D02*
D03*
X162402D02*
D03*
D19*
X101772Y78740D02*
D03*
X95079D02*
D03*
X131299D02*
D03*
X124606D02*
D03*
D20*
X186696Y156843D02*
D03*
X172129D02*
D03*
Y165899D02*
D03*
X186696D02*
D03*
D21*
X105610Y120295D02*
D03*
Y125295D02*
D03*
Y130295D02*
D03*
Y135295D02*
D03*
Y140295D02*
D03*
Y145295D02*
D03*
Y150295D02*
D03*
Y155295D02*
D03*
X83366Y120295D02*
D03*
Y125295D02*
D03*
Y130295D02*
D03*
Y135295D02*
D03*
Y140295D02*
D03*
Y145295D02*
D03*
Y150295D02*
D03*
Y155295D02*
D03*
M02*
